solid comp1
  facet normal 0.607703 -0.404414 -0.683481
    outer loop
      vertex 4.575537971724855 -5.0990873618328143 -3.8369611758390056
      vertex 4.5958706819376989 -5.0749192969537136 -3.8331829376285196
      vertex 4.5955084808435158 -5.0783826355692039 -3.8314557358608408
    endloop
  endfacet
  facet normal -0.510608 0.275971 0.814321
    outer loop
      vertex 4.5519044606715511 -4.9906406743288736 -3.8885325551074881
      vertex 4.575537971724855 -5.0990873618328143 -3.8369611758390056
      vertex 4.5955084808435158 -5.0783826355692039 -3.8314557358608408
    endloop
  endfacet
  facet normal -0.218044 0.453718 0.864058
    outer loop
      vertex 4.5958706819376989 -5.0749192969537136 -3.8331829376285196
      vertex 4.5519044606715511 -4.9906406743288736 -3.8885325551074881
      vertex 4.5955084808435158 -5.0783826355692039 -3.8314557358608408
    endloop
  endfacet
  facet normal 0.491142 -0.28449 -0.823313
    outer loop
      vertex 4.5519044606715511 -4.9906406743288736 -3.8885325551074881
      vertex 4.5958706819376989 -5.0749192969537136 -3.8331829376285196
      vertex 4.575537971724855 -5.0990873618328143 -3.8369611758390056
    endloop
  endfacet
endsolid comp1
