solid OpenSCAD_Model
  facet normal 0 0 1
    outer loop
      vertex -0.8694738077799481 1.0414448583935783 5
      vertex 0 1.0499999970197678 5
      vertex -0.9752677445853325 1.0499999970197678 5
    endloop
  endfacet
  facet normal 0 0 1
    outer loop
      vertex -0.8694738077799481 1.0414448583935783 5
      vertex -0.741180954897479 1.0159258233088364 5
      vertex 0 1.0499999970197678 5
    endloop
  endfacet
  facet normal 0 0 1
    outer loop
      vertex 0.0009963674567396953 0.062411045220961865 5
      vertex 0.0007427830600398132 0.9288145385289602 5
      vertex -0.008555138626189396 0.18052618923981956 5
    endloop
  endfacet
  facet normal 0 0 1
    outer loop
      vertex -0.008555138626189396 0.18052618923981956 5
      vertex 0 0.9344565346837044 5
      vertex -0.034074173710931466 0.3088190421222887 5
    endloop
  endfacet
  facet normal 0 0 1
    outer loop
      vertex -0.034074173710931466 0.3088190421222887 5
      vertex 0 0.9344565346837044 5
      vertex -0.07612046748871304 0.43268342938485777 5
    endloop
  endfacet
  facet normal 0 0 1
    outer loop
      vertex -0.13397459621556107 0.549999997019768 5
      vertex -0.07612046748871304 0.43268342938485777 5
      vertex 0 0.9344565346837044 5
    endloop
  endfacet
  facet normal 0 0 1
    outer loop
      vertex -0.13397459621556107 0.549999997019768 5
      vertex 0 0.9344565346837044 5
      vertex -0.2066466597087646 0.6587614260284886 5
    endloop
  endfacet
  facet normal 0 0 1
    outer loop
      vertex -0.008555138626189396 0.18052618923981956 5
      vertex 0.0007427830600398132 0.9288145385289602 5
      vertex 0 0.9344565346837044 5
    endloop
  endfacet
  facet normal 0 0 1
    outer loop
      vertex -0.2928932188134522 0.7571067782063154 5
      vertex 0 1.0499999970197678 5
      vertex -0.3912385709912791 0.8433533373110031 5
    endloop
  endfacet
  facet normal 0 0 1
    outer loop
      vertex -0.2928932188134522 0.7571067782063154 5
      vertex -0.2066466597087646 0.6587614260284886 5
      vertex 0 0.9344565346837044 5
    endloop
  endfacet
  facet normal 0 0 1
    outer loop
      vertex -0.49999999999999967 0.9160254008042066 5
      vertex -0.3912385709912791 0.8433533373110031 5
      vertex 0 1.0499999970197678 5
    endloop
  endfacet
  facet normal 0 0 1
    outer loop
      vertex -0.6173165676349099 0.9738795295310547 5
      vertex -0.49999999999999967 0.9160254008042066 5
      vertex 0 1.0499999970197678 5
    endloop
  endfacet
  facet normal 0 0 1
    outer loop
      vertex -0.741180954897479 1.0159258233088364 5
      vertex -0.6173165676349099 0.9738795295310547 5
      vertex 0 1.0499999970197678 5
    endloop
  endfacet
  facet normal 0 0 1
    outer loop
      vertex -0.2928932188134522 0.7571067782063154 5
      vertex 0 0.9344565346837044 5
      vertex 0 1.0499999970197678 5
    endloop
  endfacet
  facet normal -0.9999999571673799 -0.0002926862458390978 3.6204279058710804e-22
    outer loop
      vertex 0.0009963674567396953 0.062411045220961865 5
      vertex 0.0007427830600398132 0.9288145385289602 15
      vertex 0.0007427830600398132 0.9288145385289602 5
    endloop
  endfacet
  facet normal -0.9999999571673799 -0.0002926862458390978 0
    outer loop
      vertex 0.0009963674567396953 0.062411045220961865 5
      vertex 0.0009963674567396953 0.062411045220961865 15
      vertex 0.0007427830600398132 0.9288145385289602 15
    endloop
  endfacet
  facet normal 0 0 -1
    outer loop
      vertex -0.8694738077799481 1.0414448583935783 15
      vertex -0.9752677445853325 1.0499999970197678 15
      vertex 0 1.0499999970197678 15
    endloop
  endfacet
  facet normal 0 0 -1
    outer loop
      vertex -0.8694738077799481 1.0414448583935783 15
      vertex 0 1.0499999970197678 15
      vertex -0.741180954897479 1.0159258233088364 15
    endloop
  endfacet
  facet normal 0 0 -1
    outer loop
      vertex 0.0009963674567396953 0.062411045220961865 15
      vertex -0.008555138626189396 0.18052618923981956 15
      vertex 0.0007427830600398132 0.9288145385289602 15
    endloop
  endfacet
  facet normal 0 0 -1
    outer loop
      vertex -0.008555138626189396 0.18052618923981956 15
      vertex -0.034074173710931466 0.3088190421222887 15
      vertex 0 1.0499999970197678 15
    endloop
  endfacet
  facet normal 0 0 -1
    outer loop
      vertex -0.034074173710931466 0.3088190421222887 15
      vertex -0.07612046748871304 0.43268342938485777 15
      vertex 0 1.0499999970197678 15
    endloop
  endfacet
  facet normal 0 0 -1
    outer loop
      vertex -0.13397459621556107 0.549999997019768 15
      vertex 0 1.0499999970197678 15
      vertex -0.07612046748871304 0.43268342938485777 15
    endloop
  endfacet
  facet normal 0 0 -1
    outer loop
      vertex -0.008555138626189396 0.18052618923981956 15
      vertex 0 0.9344565346837044 15
      vertex 0.0007427830600398132 0.9288145385289602 15
    endloop
  endfacet
  facet normal 0 0 -1
    outer loop
      vertex -0.008555138626189396 0.18052618923981956 15
      vertex 0 1.0499999970197678 15
      vertex 0 0.9344565346837044 15
    endloop
  endfacet
  facet normal 0 0 -1
    outer loop
      vertex -0.2928932188134522 0.7571067782063154 15
      vertex -0.3912385709912791 0.8433533373110031 15
      vertex 0 1.0499999970197678 15
    endloop
  endfacet
  facet normal 0 0 -1
    outer loop
      vertex -0.13397459621556107 0.549999997019768 15
      vertex -0.2066466597087646 0.6587614260284886 15
      vertex 0 1.0499999970197678 15
    endloop
  endfacet
  facet normal 0 0 -1
    outer loop
      vertex -0.2928932188134522 0.7571067782063154 15
      vertex 0 1.0499999970197678 15
      vertex -0.2066466597087646 0.6587614260284886 15
    endloop
  endfacet
  facet normal 0 0 -1
    outer loop
      vertex -0.49999999999999967 0.9160254008042066 15
      vertex 0 1.0499999970197678 15
      vertex -0.3912385709912791 0.8433533373110031 15
    endloop
  endfacet
  facet normal 0 0 -1
    outer loop
      vertex -0.6173165676349099 0.9738795295310547 15
      vertex 0 1.0499999970197678 15
      vertex -0.49999999999999967 0.9160254008042066 15
    endloop
  endfacet
  facet normal 0 0 -1
    outer loop
      vertex -0.741180954897479 1.0159258233088364 15
      vertex 0 1.0499999970197678 15
      vertex -0.6173165676349099 0.9738795295310547 15
    endloop
  endfacet
  facet normal 0.08060294322085733 0.9967462894559154 0
    outer loop
      vertex -0.8694738077799481 1.0414448583935783 5
      vertex -0.9752677445853325 1.0499999970197678 5
      vertex -0.8694738077799481 1.0414448583935783 15
    endloop
  endfacet
  facet normal 0.4422886902190013 0.8968727415326883 1.3767520923323983e-19
    outer loop
      vertex -0.6173165676349099 0.9738795295310547 5
      vertex -0.49999999999999967 0.9160254008042066 15
      vertex -0.49999999999999967 0.9160254008042066 5
    endloop
  endfacet
  facet normal 0.3214394653031624 0.9469301294951054 -1.1453111740825176e-19
    outer loop
      vertex -0.741180954897479 1.0159258233088364 5
      vertex -0.6173165676349099 0.9738795295310547 15
      vertex -0.6173165676349099 0.9738795295310547 5
    endloop
  endfacet
  facet normal 0.1950903220161264 0.9807852804032308 5.014085435491522e-20
    outer loop
      vertex -0.8694738077799481 1.0414448583935783 5
      vertex -0.741180954897479 1.0159258233088364 15
      vertex -0.741180954897479 1.0159258233088364 5
    endloop
  endfacet
  facet normal 0.9967462894559154 0.08060294322085568 0
    outer loop
      vertex 0.0009963674567396953 0.062411045220961865 5
      vertex -0.008555138626189396 0.18052618923981956 5
      vertex 0.0009963674567396953 0.062411045220961865 15
    endloop
  endfacet
  facet normal 0.9807852804032307 0.1950903220161279 0
    outer loop
      vertex -0.008555138626189396 0.18052618923981956 5
      vertex -0.034074173710931466 0.3088190421222887 5
      vertex -0.008555138626189396 0.18052618923981956 15
    endloop
  endfacet
  facet normal 0.9469301294951056 0.32143946530316175 0
    outer loop
      vertex -0.034074173710931466 0.3088190421222887 5
      vertex -0.07612046748871304 0.43268342938485777 5
      vertex -0.034074173710931466 0.3088190421222887 15
    endloop
  endfacet
  facet normal 0.8968727415326885 0.44228869021900086 -4.8530160227514717e-20
    outer loop
      vertex -0.13397459621556107 0.549999997019768 5
      vertex -0.07612046748871304 0.43268342938485777 15
      vertex -0.07612046748871304 0.43268342938485777 5
    endloop
  endfacet
  facet normal 0.7518398074789774 0.659345815100069 -5.354582768872632e-19
    outer loop
      vertex -0.2928932188134522 0.7571067782063154 5
      vertex -0.2066466597087646 0.6587614260284886 15
      vertex -0.2066466597087646 0.6587614260284886 5
    endloop
  endfacet
  facet normal 0.831469612302545 0.5555702330196024 0
    outer loop
      vertex -0.13397459621556107 0.549999997019768 5
      vertex -0.2066466597087646 0.6587614260284886 5
      vertex -0.13397459621556107 0.549999997019768 15
    endloop
  endfacet
  facet normal 0.6593458151000691 0.7518398074789773 0
    outer loop
      vertex -0.2928932188134522 0.7571067782063154 5
      vertex -0.3912385709912791 0.8433533373110031 5
      vertex -0.2928932188134522 0.7571067782063154 15
    endloop
  endfacet
  facet normal 0.5555702330196023 0.8314696123025451 1.1842123871655906e-19
    outer loop
      vertex -0.49999999999999967 0.9160254008042066 5
      vertex -0.3912385709912791 0.8433533373110031 15
      vertex -0.3912385709912791 0.8433533373110031 5
    endloop
  endfacet
  facet normal 0.08060294322085733 0.9967462894559154 -4.5992374464760676e-20
    outer loop
      vertex -0.8694738077799481 1.0414448583935783 15
      vertex -0.9752677445853325 1.0499999970197678 5
      vertex -0.9752677445853325 1.0499999970197678 15
    endloop
  endfacet
  facet normal 0.1950903220161264 0.9807852804032308 0
    outer loop
      vertex -0.8694738077799481 1.0414448583935783 5
      vertex -0.8694738077799481 1.0414448583935783 15
      vertex -0.741180954897479 1.0159258233088364 15
    endloop
  endfacet
  facet normal 0.4422886902190013 0.8968727415326883 0
    outer loop
      vertex -0.6173165676349099 0.9738795295310547 5
      vertex -0.6173165676349099 0.9738795295310547 15
      vertex -0.49999999999999967 0.9160254008042066 15
    endloop
  endfacet
  facet normal 0.3214394653031624 0.9469301294951054 0
    outer loop
      vertex -0.741180954897479 1.0159258233088364 5
      vertex -0.741180954897479 1.0159258233088364 15
      vertex -0.6173165676349099 0.9738795295310547 15
    endloop
  endfacet
  facet normal 0.9967462894559154 0.08060294322085568 0
    outer loop
      vertex -0.008555138626189396 0.18052618923981956 5
      vertex -0.008555138626189396 0.18052618923981956 15
      vertex 0.0009963674567396953 0.062411045220961865 15
    endloop
  endfacet
  facet normal 0.9807852804032307 0.1950903220161279 0
    outer loop
      vertex -0.034074173710931466 0.3088190421222887 5
      vertex -0.034074173710931466 0.3088190421222887 15
      vertex -0.008555138626189396 0.18052618923981956 15
    endloop
  endfacet
  facet normal 0.9469301294951056 0.32143946530316175 0
    outer loop
      vertex -0.07612046748871304 0.43268342938485777 5
      vertex -0.07612046748871304 0.43268342938485777 15
      vertex -0.034074173710931466 0.3088190421222887 15
    endloop
  endfacet
  facet normal 0.8968727415326885 0.44228869021900086 0
    outer loop
      vertex -0.13397459621556107 0.549999997019768 5
      vertex -0.13397459621556107 0.549999997019768 15
      vertex -0.07612046748871304 0.43268342938485777 15
    endloop
  endfacet
  facet normal 0.7518398074789774 0.659345815100069 0
    outer loop
      vertex -0.2928932188134522 0.7571067782063154 5
      vertex -0.2928932188134522 0.7571067782063154 15
      vertex -0.2066466597087646 0.6587614260284886 15
    endloop
  endfacet
  facet normal 0.831469612302545 0.5555702330196024 6.3331833788478285e-19
    outer loop
      vertex -0.13397459621556107 0.549999997019768 15
      vertex -0.2066466597087646 0.6587614260284886 5
      vertex -0.2066466597087646 0.6587614260284886 15
    endloop
  endfacet
  facet normal 0.6593458151000691 0.7518398074789773 0
    outer loop
      vertex -0.3912385709912791 0.8433533373110031 5
      vertex -0.3912385709912791 0.8433533373110031 15
      vertex -0.2928932188134522 0.7571067782063154 15
    endloop
  endfacet
  facet normal 0.5555702330196023 0.8314696123025451 0
    outer loop
      vertex -0.49999999999999967 0.9160254008042066 5
      vertex -0.49999999999999967 0.9160254008042066 15
      vertex -0.3912385709912791 0.8433533373110031 15
    endloop
  endfacet
  facet normal 0 -1 0
    outer loop
      vertex -8 -4 0
      vertex 12 -4 0
      vertex -8 -4 20
    endloop
  endfacet
  facet normal 0 0 -1
    outer loop
      vertex -8 -4 0
      vertex 0.9344565346837044 0 0
      vertex 12 -4 0
    endloop
  endfacet
  facet normal -1 0 0
    outer loop
      vertex -8 -4 0
      vertex -8 -4 20
      vertex -8 1.0499999970197678 20
    endloop
  endfacet
  facet normal 0 0 1
    outer loop
      vertex -8 -4 20
      vertex 12 -4 20
      vertex 0.9344565346837044 0 20
    endloop
  endfacet
  facet normal 0 0 -1
    outer loop
      vertex -8 -4 0
      vertex -8 1.0499999970197678 0
      vertex 0 0.9344565346837044 0
    endloop
  endfacet
  facet normal -1 0 0
    outer loop
      vertex -8 -4 0
      vertex -8 1.0499999970197678 20
      vertex -8 1.0499999970197678 0
    endloop
  endfacet
  facet normal 0 1 0
    outer loop
      vertex -8 1.0499999970197678 0
      vertex -0.9752677445853325 1.0499999970197678 15
      vertex -0.9752677445853325 1.0499999970197678 5
    endloop
  endfacet
  facet normal 0 0 -1
    outer loop
      vertex -8 -4 0
      vertex 0.3392394483089447 0.24654699116945267 0
      vertex 0.44323769956827164 0.1667463257908821 0
    endloop
  endfacet
  facet normal 0 0 -1
    outer loop
      vertex -8 -4 0
      vertex 0.8044910803437233 0.017110280692577362 0
      vertex 0.9344565346837044 0 0
    endloop
  endfacet
  facet normal 0 0 -1
    outer loop
      vertex -8 -4 0
      vertex 0.5567623004317284 0.10120286792516708 0
      vertex 0.6778708323836327 0.051038071513175964 0
    endloop
  endfacet
  facet normal 0 0 -1
    outer loop
      vertex -8 -4 0
      vertex 0.44323769956827164 0.1667463257908821 0
      vertex 0.5567623004317284 0.10120286792516708 0
    endloop
  endfacet
  facet normal 0 0 -1
    outer loop
      vertex -8 -4 0
      vertex 0.6778708323836327 0.051038071513175964 0
      vertex 0.8044910803437233 0.017110280692577362 0
    endloop
  endfacet
  facet normal 0 0 -1
    outer loop
      vertex -8 -4 0
      vertex 0.24654699116945267 0.3392394483089447 0
      vertex 0.3392394483089447 0.24654699116945267 0
    endloop
  endfacet
  facet normal 0 0 -1
    outer loop
      vertex -8 -4 0
      vertex 0.1667463257908821 0.44323769956827164 0
      vertex 0.24654699116945267 0.3392394483089447 0
    endloop
  endfacet
  facet normal 0 0 -1
    outer loop
      vertex -8 -4 0
      vertex 0.10120286792516708 0.5567623004317284 0
      vertex 0.1667463257908821 0.44323769956827164 0
    endloop
  endfacet
  facet normal 0 0 -1
    outer loop
      vertex -8 -4 0
      vertex 0.051038071513175964 0.6778708323836327 0
      vertex 0.10120286792516708 0.5567623004317284 0
    endloop
  endfacet
  facet normal 0 0 -1
    outer loop
      vertex -8 -4 0
      vertex 0.017110280692577362 0.8044910803437233 0
      vertex 0.051038071513175964 0.6778708323836327 0
    endloop
  endfacet
  facet normal 0 0 -1
    outer loop
      vertex -8 -4 0
      vertex 0 0.9344565346837044 0
      vertex 0.017110280692577362 0.8044910803437233 0
    endloop
  endfacet
  facet normal 0 0 -1
    outer loop
      vertex -8 1.0499999970197678 0
      vertex 0 1.0499999970197678 0
      vertex 0 0.9344565346837044 0
    endloop
  endfacet
  facet normal 0 1 0
    outer loop
      vertex -8 1.0499999970197678 0
      vertex -0.9752677445853325 1.0499999970197678 5
      vertex 0 1.0499999970197678 0
    endloop
  endfacet
  facet normal 1 0 0
    outer loop
      vertex 0 0.9344565346837044 0
      vertex 0 1.0499999970197678 0
      vertex 0 0.9344565346837044 5
    endloop
  endfacet
  facet normal 0 1 0
    outer loop
      vertex 0 1.0499999970197678 0
      vertex -0.9752677445853325 1.0499999970197678 5
      vertex 0 1.0499999970197678 5
    endloop
  endfacet
  facet normal 0.9914448573967223 0.13052622242903134 0
    outer loop
      vertex 0 0.9344565346837044 0
      vertex 0 0.9344565346837044 5
      vertex 0.0007427830600398132 0.9288145385289602 5
    endloop
  endfacet
  facet normal 1 0 0
    outer loop
      vertex 0 1.0499999970197678 0
      vertex 0 1.0499999970197678 5
      vertex 0 0.9344565346837044 5
    endloop
  endfacet
  facet normal 0.38268343209432837 0.9238795326234398 0
    outer loop
      vertex 0.5567623004317284 0.10120286792516708 0
      vertex 0.6778708323836327 0.051038071513175964 20
      vertex 0.6778708323836327 0.051038071513175964 0
    endloop
  endfacet
  facet normal 0.6087614313358576 0.7933533385055602 0
    outer loop
      vertex 0.3392394483089447 0.24654699116945267 0
      vertex 0.44323769956827164 0.1667463257908821 20
      vertex 0.44323769956827164 0.1667463257908821 0
    endloop
  endfacet
  facet normal 0.4999999942646076 0.8660254070957689 0
    outer loop
      vertex 0.5567623004317284 0.10120286792516708 0
      vertex 0.44323769956827164 0.1667463257908821 0
      vertex 0.5567623004317284 0.10120286792516708 20
    endloop
  endfacet
  facet normal 0.7071067811865476 0.7071067811865476 0
    outer loop
      vertex 0.3392394483089447 0.24654699116945267 0
      vertex 0.24654699116945267 0.3392394483089447 0
      vertex 0.3392394483089447 0.24654699116945267 20
    endloop
  endfacet
  facet normal 0.7933533385055602 0.6087614313358576 0
    outer loop
      vertex 0.24654699116945267 0.3392394483089447 0
      vertex 0.1667463257908821 0.44323769956827164 0
      vertex 0.24654699116945267 0.3392394483089447 20
    endloop
  endfacet
  facet normal 0.1305262224290296 0.9914448573967226 0
    outer loop
      vertex 0.8044910803437233 0.017110280692577362 0
      vertex 0.9344565346837044 0 20
      vertex 0.9344565346837044 0 0
    endloop
  endfacet
  facet normal 0.25881902826436615 0.965925830800838 0
    outer loop
      vertex 0.6778708323836327 0.051038071513175964 0
      vertex 0.8044910803437233 0.017110280692577362 20
      vertex 0.8044910803437233 0.017110280692577362 0
    endloop
  endfacet
  facet normal 0.9238795326234398 0.38268343209432837 0
    outer loop
      vertex 0.10120286792516708 0.5567623004317284 0
      vertex 0.051038071513175964 0.6778708323836327 0
      vertex 0.10120286792516708 0.5567623004317284 20
    endloop
  endfacet
  facet normal 0.965925830800838 0.25881902826436615 0
    outer loop
      vertex 0.051038071513175964 0.6778708323836327 0
      vertex 0.017110280692577362 0.8044910803437233 0
      vertex 0.051038071513175964 0.6778708323836327 20
    endloop
  endfacet
  facet normal 0.8660254070957689 0.4999999942646076 0
    outer loop
      vertex 0.10120286792516708 0.5567623004317284 0
      vertex 0.1667463257908821 0.44323769956827164 20
      vertex 0.1667463257908821 0.44323769956827164 0
    endloop
  endfacet
  facet normal 0.9914448573967226 0.1305262224290296 0
    outer loop
      vertex 0.017110280692577362 0.8044910803437233 0
      vertex 0 0.9344565346837044 0
      vertex 0.017110280692577362 0.8044910803437233 20
    endloop
  endfacet
  facet normal 0.9914448573967225 0.1305262224290292 -2.42098059648436e-18
    outer loop
      vertex 0 0.9344565346837044 0
      vertex 0.0007427830600398132 0.9288145385289602 5
      vertex 0.017110280692577362 0.8044910803437233 20
    endloop
  endfacet
  facet normal 0 0 1
    outer loop
      vertex -8 -4 20
      vertex 0 0.9344565346837044 20
      vertex -8 1.0499999970197678 20
    endloop
  endfacet
  facet normal 0 1 0
    outer loop
      vertex -8 1.0499999970197678 0
      vertex -8 1.0499999970197678 20
      vertex 0 1.0499999970197678 20
    endloop
  endfacet
  facet normal 0 0 1
    outer loop
      vertex -8 -4 20
      vertex 0.44323769956827164 0.1667463257908821 20
      vertex 0.3392394483089447 0.24654699116945267 20
    endloop
  endfacet
  facet normal 0 0 1
    outer loop
      vertex -8 -4 20
      vertex 0.9344565346837044 0 20
      vertex 0.8044910803437233 0.017110280692577362 20
    endloop
  endfacet
  facet normal 0 0 1
    outer loop
      vertex -8 -4 20
      vertex 0.6778708323836327 0.051038071513175964 20
      vertex 0.5567623004317284 0.10120286792516708 20
    endloop
  endfacet
  facet normal 0 0 1
    outer loop
      vertex -8 -4 20
      vertex 0.5567623004317284 0.10120286792516708 20
      vertex 0.44323769956827164 0.1667463257908821 20
    endloop
  endfacet
  facet normal 0 0 1
    outer loop
      vertex -8 -4 20
      vertex 0.8044910803437233 0.017110280692577362 20
      vertex 0.6778708323836327 0.051038071513175964 20
    endloop
  endfacet
  facet normal 0 0 1
    outer loop
      vertex -8 -4 20
      vertex 0.3392394483089447 0.24654699116945267 20
      vertex 0.24654699116945267 0.3392394483089447 20
    endloop
  endfacet
  facet normal 0 0 1
    outer loop
      vertex -8 -4 20
      vertex 0.24654699116945267 0.3392394483089447 20
      vertex 0.1667463257908821 0.44323769956827164 20
    endloop
  endfacet
  facet normal 0 0 1
    outer loop
      vertex -8 -4 20
      vertex 0.1667463257908821 0.44323769956827164 20
      vertex 0.10120286792516708 0.5567623004317284 20
    endloop
  endfacet
  facet normal 0 0 1
    outer loop
      vertex -8 -4 20
      vertex 0.10120286792516708 0.5567623004317284 20
      vertex 0.051038071513175964 0.6778708323836327 20
    endloop
  endfacet
  facet normal 0 0 1
    outer loop
      vertex -8 -4 20
      vertex 0.051038071513175964 0.6778708323836327 20
      vertex 0.017110280692577362 0.8044910803437233 20
    endloop
  endfacet
  facet normal 0 0 1
    outer loop
      vertex -8 -4 20
      vertex 0.017110280692577362 0.8044910803437233 20
      vertex 0 0.9344565346837044 20
    endloop
  endfacet
  facet normal 0 1 0
    outer loop
      vertex -8 1.0499999970197678 0
      vertex 0 1.0499999970197678 20
      vertex -0.9752677445853325 1.0499999970197678 15
    endloop
  endfacet
  facet normal 0.25881902826436615 0.965925830800838 0
    outer loop
      vertex 0.6778708323836327 0.051038071513175964 0
      vertex 0.6778708323836327 0.051038071513175964 20
      vertex 0.8044910803437233 0.017110280692577362 20
    endloop
  endfacet
  facet normal 0.38268343209432837 0.9238795326234398 0
    outer loop
      vertex 0.5567623004317284 0.10120286792516708 0
      vertex 0.5567623004317284 0.10120286792516708 20
      vertex 0.6778708323836327 0.051038071513175964 20
    endloop
  endfacet
  facet normal 0.6087614313358576 0.7933533385055602 0
    outer loop
      vertex 0.3392394483089447 0.24654699116945267 0
      vertex 0.3392394483089447 0.24654699116945267 20
      vertex 0.44323769956827164 0.1667463257908821 20
    endloop
  endfacet
  facet normal 0.4999999942646076 0.8660254070957689 0
    outer loop
      vertex 0.44323769956827164 0.1667463257908821 0
      vertex 0.44323769956827164 0.1667463257908821 20
      vertex 0.5567623004317284 0.10120286792516708 20
    endloop
  endfacet
  facet normal 0.7071067811865476 0.7071067811865476 0
    outer loop
      vertex 0.24654699116945267 0.3392394483089447 0
      vertex 0.24654699116945267 0.3392394483089447 20
      vertex 0.3392394483089447 0.24654699116945267 20
    endloop
  endfacet
  facet normal 0.7933533385055602 0.6087614313358576 0
    outer loop
      vertex 0.1667463257908821 0.44323769956827164 0
      vertex 0.1667463257908821 0.44323769956827164 20
      vertex 0.24654699116945267 0.3392394483089447 20
    endloop
  endfacet
  facet normal 0.1305262224290296 0.9914448573967226 0
    outer loop
      vertex 0.8044910803437233 0.017110280692577362 0
      vertex 0.8044910803437233 0.017110280692577362 20
      vertex 0.9344565346837044 0 20
    endloop
  endfacet
  facet normal 0.8660254070957689 0.4999999942646076 0
    outer loop
      vertex 0.10120286792516708 0.5567623004317284 0
      vertex 0.10120286792516708 0.5567623004317284 20
      vertex 0.1667463257908821 0.44323769956827164 20
    endloop
  endfacet
  facet normal 0.9238795326234398 0.38268343209432837 0
    outer loop
      vertex 0.051038071513175964 0.6778708323836327 0
      vertex 0.051038071513175964 0.6778708323836327 20
      vertex 0.10120286792516708 0.5567623004317284 20
    endloop
  endfacet
  facet normal 0.965925830800838 0.25881902826436615 0
    outer loop
      vertex 0.017110280692577362 0.8044910803437233 0
      vertex 0.017110280692577362 0.8044910803437233 20
      vertex 0.051038071513175964 0.6778708323836327 20
    endloop
  endfacet
  facet normal 0.9914448573967227 0.13052622242902948 1.6081651540308597e-19
    outer loop
      vertex 0.017110280692577362 0.8044910803437233 20
      vertex 0.0007427830600398132 0.9288145385289602 5
      vertex 0.0007427830600398132 0.9288145385289602 15
    endloop
  endfacet
  facet normal 0 0 1
    outer loop
      vertex -8 1.0499999970197678 20
      vertex 0 0.9344565346837044 20
      vertex 0 1.0499999970197678 20
    endloop
  endfacet
  facet normal 0 1 0
    outer loop
      vertex 0 1.0499999970197678 20
      vertex 0 1.0499999970197678 15
      vertex -0.9752677445853325 1.0499999970197678 15
    endloop
  endfacet
  facet normal 0.9914448573967223 0.13052622242903134 0
    outer loop
      vertex 0 0.9344565346837044 20
      vertex 0.0007427830600398132 0.9288145385289602 15
      vertex 0 0.9344565346837044 15
    endloop
  endfacet
  facet normal 1 0 0
    outer loop
      vertex 0 0.9344565346837044 20
      vertex 0 0.9344565346837044 15
      vertex 0 1.0499999970197678 15
    endloop
  endfacet
  facet normal 0.9914448573967226 0.1305262224290296 2.1907882499819424e-18
    outer loop
      vertex 0.017110280692577362 0.8044910803437233 20
      vertex 0.0007427830600398132 0.9288145385289602 15
      vertex 0 0.9344565346837044 20
    endloop
  endfacet
  facet normal 1 0 0
    outer loop
      vertex 0 0.9344565346837044 20
      vertex 0 1.0499999970197678 15
      vertex 0 1.0499999970197678 20
    endloop
  endfacet
  facet normal 1 0 0
    outer loop
      vertex 12 -4 0
      vertex 12 0 0
      vertex 12 -4 20
    endloop
  endfacet
  facet normal 0 -1 0
    outer loop
      vertex -8 -4 20
      vertex 12 -4 0
      vertex 12 -4 20
    endloop
  endfacet
  facet normal 0 0 -1
    outer loop
      vertex 0.9344565346837044 0 0
      vertex 12 0 0
      vertex 12 -4 0
    endloop
  endfacet
  facet normal 0 1 0
    outer loop
      vertex 0.9344565346837044 0 0
      vertex 12 0 20
      vertex 12 0 0
    endloop
  endfacet
  facet normal 0 1 0
    outer loop
      vertex 0.9344565346837044 0 0
      vertex 0.9344565346837044 0 20
      vertex 12 0 20
    endloop
  endfacet
  facet normal 1 0 0
    outer loop
      vertex 12 -4 20
      vertex 12 0 0
      vertex 12 0 20
    endloop
  endfacet
  facet normal 0 0 1
    outer loop
      vertex 0.9344565346837044 0 20
      vertex 12 -4 20
      vertex 12 0 20
    endloop
  endfacet
endsolid OpenSCAD_Model
