solid OpenSCAD_Model
  facet normal 0 0 1
    outer loop
      vertex -0.8694738077799481 2.4914448613738105 5
      vertex 0 2.5 5
      vertex -0.9752677445853369 2.5 5
    endloop
  endfacet
  facet normal 0 0 1
    outer loop
      vertex -0.8694738077799481 2.4914448613738105 5
      vertex -0.741180954897479 2.4659258262890686 5
      vertex 0 2.5 5
    endloop
  endfacet
  facet normal 0 0 1
    outer loop
      vertex -0.008555138626189396 1.6305261922200518 5
      vertex 0 1.5247322554146665 5
      vertex 0 2.5 5
    endloop
  endfacet
  facet normal 0 0 1
    outer loop
      vertex -0.008555138626189396 1.6305261922200518 5
      vertex 0 2.5 5
      vertex -0.034074173710931466 1.758819045102521 5
    endloop
  endfacet
  facet normal 0 0 1
    outer loop
      vertex -0.034074173710931466 1.758819045102521 5
      vertex 0 2.5 5
      vertex -0.07612046748871304 1.88268343236509 5
    endloop
  endfacet
  facet normal 0 0 1
    outer loop
      vertex -0.13397459621556107 2 5
      vertex -0.07612046748871304 1.88268343236509 5
      vertex 0 2.5 5
    endloop
  endfacet
  facet normal 0 0 1
    outer loop
      vertex -0.13397459621556107 2 5
      vertex 0 2.5 5
      vertex -0.2066466597087646 2.108761429008721 5
    endloop
  endfacet
  facet normal 0 0 1
    outer loop
      vertex -0.2928932188134522 2.207106781186548 5
      vertex -0.2066466597087646 2.108761429008721 5
      vertex 0 2.5 5
    endloop
  endfacet
  facet normal 0 0 1
    outer loop
      vertex -0.2928932188134522 2.207106781186548 5
      vertex 0 2.5 5
      vertex -0.3912385709912791 2.2933533402912354 5
    endloop
  endfacet
  facet normal 0 0 1
    outer loop
      vertex -0.49999999999999967 2.366025403784439 5
      vertex -0.3912385709912791 2.2933533402912354 5
      vertex 0 2.5 5
    endloop
  endfacet
  facet normal 0 0 1
    outer loop
      vertex -0.6173165676349099 2.423879532511287 5
      vertex -0.49999999999999967 2.366025403784439 5
      vertex 0 2.5 5
    endloop
  endfacet
  facet normal 0 0 1
    outer loop
      vertex -0.741180954897479 2.4659258262890686 5
      vertex -0.6173165676349099 2.423879532511287 5
      vertex 0 2.5 5
    endloop
  endfacet
  facet normal 0 0 -1
    outer loop
      vertex -0.8694738077799481 2.4914448613738105 15
      vertex -0.9752677445853369 2.5 15
      vertex 0 2.5 15
    endloop
  endfacet
  facet normal 0 0 -1
    outer loop
      vertex -0.8694738077799481 2.4914448613738105 15
      vertex 0 2.5 15
      vertex -0.741180954897479 2.4659258262890686 15
    endloop
  endfacet
  facet normal 0 0 -1
    outer loop
      vertex -0.008555138626189396 1.6305261922200518 15
      vertex 0 2.5 15
      vertex 0 1.5247322554146665 15
    endloop
  endfacet
  facet normal 0 0 -1
    outer loop
      vertex -0.008555138626189396 1.6305261922200518 15
      vertex -0.034074173710931466 1.758819045102521 15
      vertex 0 2.5 15
    endloop
  endfacet
  facet normal 0 0 -1
    outer loop
      vertex -0.034074173710931466 1.758819045102521 15
      vertex -0.07612046748871304 1.88268343236509 15
      vertex 0 2.5 15
    endloop
  endfacet
  facet normal 0 0 -1
    outer loop
      vertex -0.13397459621556107 2 15
      vertex 0 2.5 15
      vertex -0.07612046748871304 1.88268343236509 15
    endloop
  endfacet
  facet normal 0 0 -1
    outer loop
      vertex -0.13397459621556107 2 15
      vertex -0.2066466597087646 2.108761429008721 15
      vertex 0 2.5 15
    endloop
  endfacet
  facet normal 0 0 -1
    outer loop
      vertex -0.2928932188134522 2.207106781186548 15
      vertex 0 2.5 15
      vertex -0.2066466597087646 2.108761429008721 15
    endloop
  endfacet
  facet normal 0 0 -1
    outer loop
      vertex -0.2928932188134522 2.207106781186548 15
      vertex -0.3912385709912791 2.2933533402912354 15
      vertex 0 2.5 15
    endloop
  endfacet
  facet normal 0 0 -1
    outer loop
      vertex -0.49999999999999967 2.366025403784439 15
      vertex 0 2.5 15
      vertex -0.3912385709912791 2.2933533402912354 15
    endloop
  endfacet
  facet normal 0 0 -1
    outer loop
      vertex -0.6173165676349099 2.423879532511287 15
      vertex 0 2.5 15
      vertex -0.49999999999999967 2.366025403784439 15
    endloop
  endfacet
  facet normal 0 0 -1
    outer loop
      vertex -0.741180954897479 2.4659258262890686 15
      vertex 0 2.5 15
      vertex -0.6173165676349099 2.423879532511287 15
    endloop
  endfacet
  facet normal 0.08060294322085396 0.9967462894559155 0
    outer loop
      vertex -0.8694738077799481 2.4914448613738105 5
      vertex -0.9752677445853369 2.5 5
      vertex -0.8694738077799481 2.4914448613738105 15
    endloop
  endfacet
  facet normal 0.4422886902190013 0.8968727415326883 1.3767520923323983e-19
    outer loop
      vertex -0.6173165676349099 2.423879532511287 5
      vertex -0.49999999999999967 2.366025403784439 15
      vertex -0.49999999999999967 2.366025403784439 5
    endloop
  endfacet
  facet normal 0.3214394653031624 0.9469301294951054 -1.1453111740825176e-19
    outer loop
      vertex -0.741180954897479 2.4659258262890686 5
      vertex -0.6173165676349099 2.423879532511287 15
      vertex -0.6173165676349099 2.423879532511287 5
    endloop
  endfacet
  facet normal 0.1950903220161264 0.9807852804032308 5.014085435491522e-20
    outer loop
      vertex -0.8694738077799481 2.4914448613738105 5
      vertex -0.741180954897479 2.4659258262890686 15
      vertex -0.741180954897479 2.4659258262890686 5
    endloop
  endfacet
  facet normal 0.9967462894559154 0.08060294322085561 -2.0527071614320443e-20
    outer loop
      vertex -0.008555138626189396 1.6305261922200518 5
      vertex 0 1.5247322554146665 15
      vertex 0 1.5247322554146665 5
    endloop
  endfacet
  facet normal 0.9807852804032307 0.1950903220161279 0
    outer loop
      vertex -0.008555138626189396 1.6305261922200518 5
      vertex -0.034074173710931466 1.758819045102521 5
      vertex -0.008555138626189396 1.6305261922200518 15
    endloop
  endfacet
  facet normal 0.9469301294951057 0.3214394653031617 0
    outer loop
      vertex -0.034074173710931466 1.758819045102521 5
      vertex -0.07612046748871304 1.88268343236509 5
      vertex -0.034074173710931466 1.758819045102521 15
    endloop
  endfacet
  facet normal 0.8968727415326881 0.4422886902190017 2.918474080885369e-19
    outer loop
      vertex -0.13397459621556107 2 5
      vertex -0.07612046748871304 1.88268343236509 15
      vertex -0.07612046748871304 1.88268343236509 5
    endloop
  endfacet
  facet normal 0.8314696123025456 0.5555702330196016 0
    outer loop
      vertex -0.13397459621556107 2 5
      vertex -0.2066466597087646 2.108761429008721 5
      vertex -0.13397459621556107 2 15
    endloop
  endfacet
  facet normal 0.7518398074789782 0.6593458151000682 -5.879212917358031e-19
    outer loop
      vertex -0.2928932188134522 2.207106781186548 5
      vertex -0.2066466597087646 2.108761429008721 15
      vertex -0.2066466597087646 2.108761429008721 5
    endloop
  endfacet
  facet normal 0.6593458151000682 0.7518398074789782 0
    outer loop
      vertex -0.2928932188134522 2.207106781186548 5
      vertex -0.3912385709912791 2.2933533402912354 5
      vertex -0.2928932188134522 2.207106781186548 15
    endloop
  endfacet
  facet normal 0.5555702330196023 0.8314696123025451 1.1842123871655906e-19
    outer loop
      vertex -0.49999999999999967 2.366025403784439 5
      vertex -0.3912385709912791 2.2933533402912354 15
      vertex -0.3912385709912791 2.2933533402912354 5
    endloop
  endfacet
  facet normal 0.08060294322085396 0.9967462894559155 1.3409503569595192e-20
    outer loop
      vertex -0.8694738077799481 2.4914448613738105 15
      vertex -0.9752677445853369 2.5 5
      vertex -0.9752677445853369 2.5 15
    endloop
  endfacet
  facet normal 0.1950903220161264 0.9807852804032308 0
    outer loop
      vertex -0.8694738077799481 2.4914448613738105 5
      vertex -0.8694738077799481 2.4914448613738105 15
      vertex -0.741180954897479 2.4659258262890686 15
    endloop
  endfacet
  facet normal 0.3214394653031624 0.9469301294951054 0
    outer loop
      vertex -0.741180954897479 2.4659258262890686 5
      vertex -0.741180954897479 2.4659258262890686 15
      vertex -0.6173165676349099 2.423879532511287 15
    endloop
  endfacet
  facet normal 0.4422886902190013 0.8968727415326883 0
    outer loop
      vertex -0.6173165676349099 2.423879532511287 5
      vertex -0.6173165676349099 2.423879532511287 15
      vertex -0.49999999999999967 2.366025403784439 15
    endloop
  endfacet
  facet normal 0.9967462894559154 0.08060294322085561 0
    outer loop
      vertex -0.008555138626189396 1.6305261922200518 5
      vertex -0.008555138626189396 1.6305261922200518 15
      vertex 0 1.5247322554146665 15
    endloop
  endfacet
  facet normal 0.9807852804032307 0.1950903220161279 0
    outer loop
      vertex -0.034074173710931466 1.758819045102521 5
      vertex -0.034074173710931466 1.758819045102521 15
      vertex -0.008555138626189396 1.6305261922200518 15
    endloop
  endfacet
  facet normal 0.9469301294951057 0.3214394653031617 0
    outer loop
      vertex -0.07612046748871304 1.88268343236509 5
      vertex -0.07612046748871304 1.88268343236509 15
      vertex -0.034074173710931466 1.758819045102521 15
    endloop
  endfacet
  facet normal 0.8968727415326881 0.4422886902190017 0
    outer loop
      vertex -0.13397459621556107 2 5
      vertex -0.13397459621556107 2 15
      vertex -0.07612046748871304 1.88268343236509 15
    endloop
  endfacet
  facet normal 0.8314696123025456 0.5555702330196016 2.327806649851512e-19
    outer loop
      vertex -0.13397459621556107 2 15
      vertex -0.2066466597087646 2.108761429008721 5
      vertex -0.2066466597087646 2.108761429008721 15
    endloop
  endfacet
  facet normal 0.7518398074789782 0.6593458151000682 0
    outer loop
      vertex -0.2928932188134522 2.207106781186548 5
      vertex -0.2928932188134522 2.207106781186548 15
      vertex -0.2066466597087646 2.108761429008721 15
    endloop
  endfacet
  facet normal 0.6593458151000682 0.7518398074789782 0
    outer loop
      vertex -0.3912385709912791 2.2933533402912354 5
      vertex -0.3912385709912791 2.2933533402912354 15
      vertex -0.2928932188134522 2.207106781186548 15
    endloop
  endfacet
  facet normal 0.5555702330196023 0.8314696123025451 0
    outer loop
      vertex -0.49999999999999967 2.366025403784439 5
      vertex -0.49999999999999967 2.366025403784439 15
      vertex -0.3912385709912791 2.2933533402912354 15
    endloop
  endfacet
  facet normal 0 0 -1
    outer loop
      vertex -8 -4 0
      vertex 0.9344565346837044 0 0
      vertex 12 -4 0
    endloop
  endfacet
  facet normal 0 -1 0
    outer loop
      vertex -8 -4 0
      vertex 12 -4 0
      vertex -8 -4 20
    endloop
  endfacet
  facet normal 0 0 -1
    outer loop
      vertex -8 -4 0
      vertex 0.3392394483089447 0.24654699116945267 0
      vertex 0.44323769956827164 0.1667463257908821 0
    endloop
  endfacet
  facet normal 0 0 -1
    outer loop
      vertex -8 -4 0
      vertex 0.5567623004317284 0.10120286792516708 0
      vertex 0.6778708323836327 0.051038071513175964 0
    endloop
  endfacet
  facet normal 0 0 -1
    outer loop
      vertex -8 -4 0
      vertex 0.6778708323836327 0.051038071513175964 0
      vertex 0.8044910803437233 0.017110280692577362 0
    endloop
  endfacet
  facet normal 0 0 -1
    outer loop
      vertex -8 -4 0
      vertex 0.8044910803437233 0.017110280692577362 0
      vertex 0.9344565346837044 0 0
    endloop
  endfacet
  facet normal 0 0 -1
    outer loop
      vertex -8 -4 0
      vertex 0.44323769956827164 0.1667463257908821 0
      vertex 0.5567623004317284 0.10120286792516708 0
    endloop
  endfacet
  facet normal 0 0 -1
    outer loop
      vertex -8 -4 0
      vertex 0.24654699116945267 0.3392394483089447 0
      vertex 0.3392394483089447 0.24654699116945267 0
    endloop
  endfacet
  facet normal 0 0 -1
    outer loop
      vertex -8 -4 0
      vertex 0.1667463257908821 0.44323769956827164 0
      vertex 0.24654699116945267 0.3392394483089447 0
    endloop
  endfacet
  facet normal 0 0 -1
    outer loop
      vertex -8 -4 0
      vertex 0.10120286792516708 0.5567623004317284 0
      vertex 0.1667463257908821 0.44323769956827164 0
    endloop
  endfacet
  facet normal 0 0 -1
    outer loop
      vertex -8 -4 0
      vertex 0.051038071513175964 0.6778708323836327 0
      vertex 0.10120286792516708 0.5567623004317284 0
    endloop
  endfacet
  facet normal 0 0 -1
    outer loop
      vertex -8 -4 0
      vertex 0.017110280692577362 0.8044910803437233 0
      vertex 0.051038071513175964 0.6778708323836327 0
    endloop
  endfacet
  facet normal 0 0 -1
    outer loop
      vertex -8 -4 0
      vertex 0 0.9344565346837044 0
      vertex 0.017110280692577362 0.8044910803437233 0
    endloop
  endfacet
  facet normal -1 0 0
    outer loop
      vertex -8 -4 0
      vertex -8 -4 20
      vertex -8 2.5 20
    endloop
  endfacet
  facet normal 0 0 1
    outer loop
      vertex -8 -4 20
      vertex 12 -4 20
      vertex 0.9344565346837044 0 20
    endloop
  endfacet
  facet normal 0 0 1
    outer loop
      vertex -8 -4 20
      vertex 0.44323769956827164 0.1667463257908821 20
      vertex 0.3392394483089447 0.24654699116945267 20
    endloop
  endfacet
  facet normal 0 0 1
    outer loop
      vertex -8 -4 20
      vertex 0.6778708323836327 0.051038071513175964 20
      vertex 0.5567623004317284 0.10120286792516708 20
    endloop
  endfacet
  facet normal 0 0 1
    outer loop
      vertex -8 -4 20
      vertex 0.8044910803437233 0.017110280692577362 20
      vertex 0.6778708323836327 0.051038071513175964 20
    endloop
  endfacet
  facet normal 0 0 1
    outer loop
      vertex -8 -4 20
      vertex 0.9344565346837044 0 20
      vertex 0.8044910803437233 0.017110280692577362 20
    endloop
  endfacet
  facet normal 0 0 1
    outer loop
      vertex -8 -4 20
      vertex 0.5567623004317284 0.10120286792516708 20
      vertex 0.44323769956827164 0.1667463257908821 20
    endloop
  endfacet
  facet normal 0 0 1
    outer loop
      vertex -8 -4 20
      vertex 0.3392394483089447 0.24654699116945267 20
      vertex 0.24654699116945267 0.3392394483089447 20
    endloop
  endfacet
  facet normal 0 0 1
    outer loop
      vertex -8 -4 20
      vertex 0.24654699116945267 0.3392394483089447 20
      vertex 0.1667463257908821 0.44323769956827164 20
    endloop
  endfacet
  facet normal 0 0 1
    outer loop
      vertex -8 -4 20
      vertex 0.1667463257908821 0.44323769956827164 20
      vertex 0.10120286792516708 0.5567623004317284 20
    endloop
  endfacet
  facet normal 0 0 1
    outer loop
      vertex -8 -4 20
      vertex 0.10120286792516708 0.5567623004317284 20
      vertex 0.051038071513175964 0.6778708323836327 20
    endloop
  endfacet
  facet normal 0 0 1
    outer loop
      vertex -8 -4 20
      vertex 0.051038071513175964 0.6778708323836327 20
      vertex 0.017110280692577362 0.8044910803437233 20
    endloop
  endfacet
  facet normal 0 0 1
    outer loop
      vertex -8 -4 20
      vertex 0.017110280692577362 0.8044910803437233 20
      vertex 0 0.9344565346837044 20
    endloop
  endfacet
  facet normal 0 0 -1
    outer loop
      vertex -8 -4 0
      vertex -8 2.5 0
      vertex 0 0.9344565346837044 0
    endloop
  endfacet
  facet normal -1 0 0
    outer loop
      vertex -8 -4 0
      vertex -8 2.5 20
      vertex -8 2.5 0
    endloop
  endfacet
  facet normal 0 1 0
    outer loop
      vertex -8 2.5 0
      vertex -0.9752677445853369 2.5 15
      vertex -0.9752677445853369 2.5 5
    endloop
  endfacet
  facet normal 0.1305262224290296 0.9914448573967226 0
    outer loop
      vertex 0.8044910803437233 0.017110280692577362 0
      vertex 0.9344565346837044 0 20
      vertex 0.9344565346837044 0 0
    endloop
  endfacet
  facet normal 0.25881902826436615 0.965925830800838 0
    outer loop
      vertex 0.6778708323836327 0.051038071513175964 0
      vertex 0.8044910803437233 0.017110280692577362 20
      vertex 0.8044910803437233 0.017110280692577362 0
    endloop
  endfacet
  facet normal 0.6087614313358576 0.7933533385055602 0
    outer loop
      vertex 0.3392394483089447 0.24654699116945267 0
      vertex 0.44323769956827164 0.1667463257908821 20
      vertex 0.44323769956827164 0.1667463257908821 0
    endloop
  endfacet
  facet normal 0.4999999942646076 0.8660254070957689 0
    outer loop
      vertex 0.5567623004317284 0.10120286792516708 0
      vertex 0.44323769956827164 0.1667463257908821 0
      vertex 0.5567623004317284 0.10120286792516708 20
    endloop
  endfacet
  facet normal 0.38268343209432837 0.9238795326234398 0
    outer loop
      vertex 0.6778708323836327 0.051038071513175964 0
      vertex 0.5567623004317284 0.10120286792516708 0
      vertex 0.6778708323836327 0.051038071513175964 20
    endloop
  endfacet
  facet normal 0.7071067811865476 0.7071067811865476 0
    outer loop
      vertex 0.3392394483089447 0.24654699116945267 0
      vertex 0.24654699116945267 0.3392394483089447 0
      vertex 0.3392394483089447 0.24654699116945267 20
    endloop
  endfacet
  facet normal 0.7933533385055602 0.6087614313358576 0
    outer loop
      vertex 0.24654699116945267 0.3392394483089447 0
      vertex 0.1667463257908821 0.44323769956827164 0
      vertex 0.24654699116945267 0.3392394483089447 20
    endloop
  endfacet
  facet normal 0.9238795326234398 0.38268343209432837 0
    outer loop
      vertex 0.10120286792516708 0.5567623004317284 0
      vertex 0.051038071513175964 0.6778708323836327 0
      vertex 0.10120286792516708 0.5567623004317284 20
    endloop
  endfacet
  facet normal 0.965925830800838 0.25881902826436615 0
    outer loop
      vertex 0.051038071513175964 0.6778708323836327 0
      vertex 0.017110280692577362 0.8044910803437233 0
      vertex 0.051038071513175964 0.6778708323836327 20
    endloop
  endfacet
  facet normal 0.9914448573967226 0.1305262224290296 0
    outer loop
      vertex 0.017110280692577362 0.8044910803437233 0
      vertex 0 0.9344565346837044 0
      vertex 0.017110280692577362 0.8044910803437233 20
    endloop
  endfacet
  facet normal 0.8660254070957689 0.4999999942646076 0
    outer loop
      vertex 0.1667463257908821 0.44323769956827164 0
      vertex 0.10120286792516708 0.5567623004317284 0
      vertex 0.1667463257908821 0.44323769956827164 20
    endloop
  endfacet
  facet normal 0 0 -1
    outer loop
      vertex -8 2.5 0
      vertex 0 2.5 0
      vertex 0 0.9344565346837044 0
    endloop
  endfacet
  facet normal 0 1 0
    outer loop
      vertex -8 2.5 0
      vertex -0.9752677445853369 2.5 5
      vertex 0 2.5 0
    endloop
  endfacet
  facet normal 1 0 0
    outer loop
      vertex 0 0.9344565346837044 0
      vertex 0 2.5 0
      vertex 0 1.5247322554146665 5
    endloop
  endfacet
  facet normal 1 0 0
    outer loop
      vertex 0 2.5 0
      vertex 0 2.5 5
      vertex 0 1.5247322554146665 5
    endloop
  endfacet
  facet normal 0 1 0
    outer loop
      vertex 0 2.5 0
      vertex -0.9752677445853369 2.5 5
      vertex 0 2.5 5
    endloop
  endfacet
  facet normal 1 0 0
    outer loop
      vertex 0 0.9344565346837044 0
      vertex 0 1.5247322554146665 5
      vertex 0 1.5247322554146665 15
    endloop
  endfacet
  facet normal 0 0 1
    outer loop
      vertex -8 -4 20
      vertex 0 0.9344565346837044 20
      vertex -8 2.5 20
    endloop
  endfacet
  facet normal 0 1 0
    outer loop
      vertex -8 2.5 0
      vertex -8 2.5 20
      vertex 0 2.5 20
    endloop
  endfacet
  facet normal 0.25881902826436615 0.965925830800838 0
    outer loop
      vertex 0.6778708323836327 0.051038071513175964 0
      vertex 0.6778708323836327 0.051038071513175964 20
      vertex 0.8044910803437233 0.017110280692577362 20
    endloop
  endfacet
  facet normal 0.1305262224290296 0.9914448573967226 0
    outer loop
      vertex 0.8044910803437233 0.017110280692577362 0
      vertex 0.8044910803437233 0.017110280692577362 20
      vertex 0.9344565346837044 0 20
    endloop
  endfacet
  facet normal 0.6087614313358576 0.7933533385055602 0
    outer loop
      vertex 0.3392394483089447 0.24654699116945267 0
      vertex 0.3392394483089447 0.24654699116945267 20
      vertex 0.44323769956827164 0.1667463257908821 20
    endloop
  endfacet
  facet normal 0.4999999942646076 0.8660254070957689 0
    outer loop
      vertex 0.44323769956827164 0.1667463257908821 0
      vertex 0.44323769956827164 0.1667463257908821 20
      vertex 0.5567623004317284 0.10120286792516708 20
    endloop
  endfacet
  facet normal 0.38268343209432837 0.9238795326234398 0
    outer loop
      vertex 0.5567623004317284 0.10120286792516708 0
      vertex 0.5567623004317284 0.10120286792516708 20
      vertex 0.6778708323836327 0.051038071513175964 20
    endloop
  endfacet
  facet normal 0.7071067811865476 0.7071067811865476 0
    outer loop
      vertex 0.24654699116945267 0.3392394483089447 0
      vertex 0.24654699116945267 0.3392394483089447 20
      vertex 0.3392394483089447 0.24654699116945267 20
    endloop
  endfacet
  facet normal 0.7933533385055602 0.6087614313358576 0
    outer loop
      vertex 0.1667463257908821 0.44323769956827164 0
      vertex 0.1667463257908821 0.44323769956827164 20
      vertex 0.24654699116945267 0.3392394483089447 20
    endloop
  endfacet
  facet normal 0.8660254070957689 0.4999999942646076 0
    outer loop
      vertex 0.10120286792516708 0.5567623004317284 0
      vertex 0.10120286792516708 0.5567623004317284 20
      vertex 0.1667463257908821 0.44323769956827164 20
    endloop
  endfacet
  facet normal 0.9238795326234398 0.38268343209432837 0
    outer loop
      vertex 0.051038071513175964 0.6778708323836327 0
      vertex 0.051038071513175964 0.6778708323836327 20
      vertex 0.10120286792516708 0.5567623004317284 20
    endloop
  endfacet
  facet normal 0.965925830800838 0.25881902826436615 0
    outer loop
      vertex 0.017110280692577362 0.8044910803437233 0
      vertex 0.017110280692577362 0.8044910803437233 20
      vertex 0.051038071513175964 0.6778708323836327 20
    endloop
  endfacet
  facet normal 0 1 0
    outer loop
      vertex -8 2.5 0
      vertex 0 2.5 20
      vertex -0.9752677445853369 2.5 15
    endloop
  endfacet
  facet normal 1 0 0
    outer loop
      vertex 0 0.9344565346837044 0
      vertex 0 1.5247322554146665 15
      vertex 0 0.9344565346837044 20
    endloop
  endfacet
  facet normal 0.9914448573967226 0.1305262224290296 0
    outer loop
      vertex 0 0.9344565346837044 0
      vertex 0 0.9344565346837044 20
      vertex 0.017110280692577362 0.8044910803437233 20
    endloop
  endfacet
  facet normal 0 0 1
    outer loop
      vertex -8 2.5 20
      vertex 0 0.9344565346837044 20
      vertex 0 2.5 20
    endloop
  endfacet
  facet normal 1 0 0
    outer loop
      vertex 0 0.9344565346837044 20
      vertex 0 1.5247322554146665 15
      vertex 0 2.5 20
    endloop
  endfacet
  facet normal 1 0 0
    outer loop
      vertex 0 2.5 20
      vertex 0 1.5247322554146665 15
      vertex 0 2.5 15
    endloop
  endfacet
  facet normal 0 1 0
    outer loop
      vertex 0 2.5 20
      vertex 0 2.5 15
      vertex -0.9752677445853369 2.5 15
    endloop
  endfacet
  facet normal 1 0 0
    outer loop
      vertex 12 -4 0
      vertex 12 0 0
      vertex 12 -4 20
    endloop
  endfacet
  facet normal 0 0 -1
    outer loop
      vertex 0.9344565346837044 0 0
      vertex 12 0 0
      vertex 12 -4 0
    endloop
  endfacet
  facet normal 0 -1 0
    outer loop
      vertex -8 -4 20
      vertex 12 -4 0
      vertex 12 -4 20
    endloop
  endfacet
  facet normal 1 0 0
    outer loop
      vertex 12 -4 20
      vertex 12 0 0
      vertex 12 0 20
    endloop
  endfacet
  facet normal 0 0 1
    outer loop
      vertex 0.9344565346837044 0 20
      vertex 12 -4 20
      vertex 12 0 20
    endloop
  endfacet
  facet normal 0 1 0
    outer loop
      vertex 0.9344565346837044 0 0
      vertex 12 0 20
      vertex 12 0 0
    endloop
  endfacet
  facet normal 0 1 0
    outer loop
      vertex 0.9344565346837044 0 0
      vertex 0.9344565346837044 0 20
      vertex 12 0 20
    endloop
  endfacet
endsolid OpenSCAD_Model
