solid OpenSCAD_Model
  facet normal 0 0 1
    outer loop
      vertex -0.8694738077799481 1.1914448643540427 5
      vertex 0 1.2000000029802322 5
      vertex -0.9752677445853325 1.2000000029802322 5
    endloop
  endfacet
  facet normal 0 0 1
    outer loop
      vertex -0.8694738077799481 1.1914448643540427 5
      vertex -0.741180954897479 1.1659258292693009 5
      vertex 0 1.2000000029802322 5
    endloop
  endfacet
  facet normal 0 0 1
    outer loop
      vertex 0.0009963674567396953 0.21241105118142636 5
      vertex 0.0007789107977482474 0.9553795123531706 5
      vertex -0.008555138626189396 0.33052619520028403 5
    endloop
  endfacet
  facet normal 0 0 1
    outer loop
      vertex -0.008555138626189396 0.33052619520028403 5
      vertex 0 0.9672633931040764 5
      vertex -0.034074173710931466 0.4588190480827532 5
    endloop
  endfacet
  facet normal 0 0 1
    outer loop
      vertex -0.034074173710931466 0.4588190480827532 5
      vertex 0 0.9672633931040764 5
      vertex -0.07612046748871304 0.5826834353453223 5
    endloop
  endfacet
  facet normal 0 0 1
    outer loop
      vertex -0.13397459621556107 0.7000000029802325 5
      vertex -0.07612046748871304 0.5826834353453223 5
      vertex 0 0.9672633931040764 5
    endloop
  endfacet
  facet normal 0 0 1
    outer loop
      vertex -0.008555138626189396 0.33052619520028403 5
      vertex 0.0007789107977482474 0.9553795123531706 5
      vertex 0 0.9672633931040764 5
    endloop
  endfacet
  facet normal 0 0 1
    outer loop
      vertex -0.13397459621556107 0.7000000029802325 5
      vertex 0 0.9672633931040764 5
      vertex -0.2066466597087646 0.8087614319889531 5
    endloop
  endfacet
  facet normal 0 0 1
    outer loop
      vertex -0.2928932188134522 0.9071067841667799 5
      vertex 0 1.2000000029802322 5
      vertex -0.3912385709912791 0.9933533432714676 5
    endloop
  endfacet
  facet normal 0 0 1
    outer loop
      vertex -0.2928932188134522 0.9071067841667799 5
      vertex -0.2066466597087646 0.8087614319889531 5
      vertex 0 0.9672633931040764 5
    endloop
  endfacet
  facet normal 0 0 1
    outer loop
      vertex -0.2928932188134522 0.9071067841667799 5
      vertex 0 0.9672633931040764 5
      vertex 0 1.2000000029802322 5
    endloop
  endfacet
  facet normal 0 0 1
    outer loop
      vertex -0.49999999999999967 1.066025406764671 5
      vertex -0.3912385709912791 0.9933533432714676 5
      vertex 0 1.2000000029802322 5
    endloop
  endfacet
  facet normal 0 0 1
    outer loop
      vertex -0.6173165676349099 1.1238795354915192 5
      vertex -0.49999999999999967 1.066025406764671 5
      vertex 0 1.2000000029802322 5
    endloop
  endfacet
  facet normal 0 0 1
    outer loop
      vertex -0.741180954897479 1.1659258292693009 5
      vertex -0.6173165676349099 1.1238795354915192 5
      vertex 0 1.2000000029802322 5
    endloop
  endfacet
  facet normal -0.9999999571673799 -0.0002926862458390979 1.788213162351554e-21
    outer loop
      vertex 0.0009963674567396953 0.21241105118142636 5
      vertex 0.0007789107977482474 0.9553795123531706 15
      vertex 0.0007789107977482474 0.9553795123531706 5
    endloop
  endfacet
  facet normal -0.9999999571673799 -0.0002926862458390979 0
    outer loop
      vertex 0.0009963674567396953 0.21241105118142636 5
      vertex 0.0009963674567396953 0.21241105118142636 15
      vertex 0.0007789107977482474 0.9553795123531706 15
    endloop
  endfacet
  facet normal 0 0 -1
    outer loop
      vertex -0.8694738077799481 1.1914448643540427 15
      vertex -0.9752677445853325 1.2000000029802322 15
      vertex 0 1.2000000029802322 15
    endloop
  endfacet
  facet normal 0 0 -1
    outer loop
      vertex -0.8694738077799481 1.1914448643540427 15
      vertex 0 1.2000000029802322 15
      vertex -0.741180954897479 1.1659258292693009 15
    endloop
  endfacet
  facet normal 0 0 -1
    outer loop
      vertex 0.0009963674567396953 0.21241105118142636 15
      vertex -0.008555138626189396 0.33052619520028403 15
      vertex 0.0007789107977482474 0.9553795123531706 15
    endloop
  endfacet
  facet normal 0 0 -1
    outer loop
      vertex -0.008555138626189396 0.33052619520028403 15
      vertex -0.034074173710931466 0.4588190480827532 15
      vertex 0 1.2000000029802322 15
    endloop
  endfacet
  facet normal 0 0 -1
    outer loop
      vertex -0.034074173710931466 0.4588190480827532 15
      vertex -0.07612046748871304 0.5826834353453223 15
      vertex 0 1.2000000029802322 15
    endloop
  endfacet
  facet normal 0 0 -1
    outer loop
      vertex -0.008555138626189396 0.33052619520028403 15
      vertex 0 0.9672633931040764 15
      vertex 0.0007789107977482474 0.9553795123531706 15
    endloop
  endfacet
  facet normal 0 0 -1
    outer loop
      vertex -0.13397459621556107 0.7000000029802325 15
      vertex 0 1.2000000029802322 15
      vertex -0.07612046748871304 0.5826834353453223 15
    endloop
  endfacet
  facet normal 0 0 -1
    outer loop
      vertex -0.008555138626189396 0.33052619520028403 15
      vertex 0 1.2000000029802322 15
      vertex 0 0.9672633931040764 15
    endloop
  endfacet
  facet normal 0 0 -1
    outer loop
      vertex -0.2928932188134522 0.9071067841667799 15
      vertex -0.3912385709912791 0.9933533432714676 15
      vertex 0 1.2000000029802322 15
    endloop
  endfacet
  facet normal 0 0 -1
    outer loop
      vertex -0.13397459621556107 0.7000000029802325 15
      vertex -0.2066466597087646 0.8087614319889531 15
      vertex 0 1.2000000029802322 15
    endloop
  endfacet
  facet normal 0 0 -1
    outer loop
      vertex -0.2928932188134522 0.9071067841667799 15
      vertex 0 1.2000000029802322 15
      vertex -0.2066466597087646 0.8087614319889531 15
    endloop
  endfacet
  facet normal 0 0 -1
    outer loop
      vertex -0.49999999999999967 1.066025406764671 15
      vertex 0 1.2000000029802322 15
      vertex -0.3912385709912791 0.9933533432714676 15
    endloop
  endfacet
  facet normal 0 0 -1
    outer loop
      vertex -0.6173165676349099 1.1238795354915192 15
      vertex 0 1.2000000029802322 15
      vertex -0.49999999999999967 1.066025406764671 15
    endloop
  endfacet
  facet normal 0 0 -1
    outer loop
      vertex -0.741180954897479 1.1659258292693009 15
      vertex 0 1.2000000029802322 15
      vertex -0.6173165676349099 1.1238795354915192 15
    endloop
  endfacet
  facet normal 0.08060294322085733 0.9967462894559154 0
    outer loop
      vertex -0.8694738077799481 1.1914448643540427 5
      vertex -0.9752677445853325 1.2000000029802322 5
      vertex -0.8694738077799481 1.1914448643540427 15
    endloop
  endfacet
  facet normal 0.4422886902190013 0.8968727415326883 1.3767520923323983e-19
    outer loop
      vertex -0.6173165676349099 1.1238795354915192 5
      vertex -0.49999999999999967 1.066025406764671 15
      vertex -0.49999999999999967 1.066025406764671 5
    endloop
  endfacet
  facet normal 0.3214394653031624 0.9469301294951054 -1.1453111740825176e-19
    outer loop
      vertex -0.741180954897479 1.1659258292693009 5
      vertex -0.6173165676349099 1.1238795354915192 15
      vertex -0.6173165676349099 1.1238795354915192 5
    endloop
  endfacet
  facet normal 0.1950903220161264 0.9807852804032308 5.014085435491522e-20
    outer loop
      vertex -0.8694738077799481 1.1914448643540427 5
      vertex -0.741180954897479 1.1659258292693009 15
      vertex -0.741180954897479 1.1659258292693009 5
    endloop
  endfacet
  facet normal 0.9967462894559154 0.08060294322085569 0
    outer loop
      vertex 0.0009963674567396953 0.21241105118142636 5
      vertex -0.008555138626189396 0.33052619520028403 5
      vertex 0.0009963674567396953 0.21241105118142636 15
    endloop
  endfacet
  facet normal 0.9807852804032307 0.1950903220161279 0
    outer loop
      vertex -0.008555138626189396 0.33052619520028403 5
      vertex -0.034074173710931466 0.4588190480827532 5
      vertex -0.008555138626189396 0.33052619520028403 15
    endloop
  endfacet
  facet normal 0.9469301294951057 0.3214394653031617 0
    outer loop
      vertex -0.034074173710931466 0.4588190480827532 5
      vertex -0.07612046748871304 0.5826834353453223 5
      vertex -0.034074173710931466 0.4588190480827532 15
    endloop
  endfacet
  facet normal 0.8968727415326885 0.442288690219001 -2.456901936086357e-19
    outer loop
      vertex -0.13397459621556107 0.7000000029802325 5
      vertex -0.07612046748871304 0.5826834353453223 15
      vertex -0.07612046748871304 0.5826834353453223 5
    endloop
  endfacet
  facet normal 0.7518398074789774 0.659345815100069 -5.354582768872632e-19
    outer loop
      vertex -0.2928932188134522 0.9071067841667799 5
      vertex -0.2066466597087646 0.8087614319889531 15
      vertex -0.2066466597087646 0.8087614319889531 5
    endloop
  endfacet
  facet normal 0.831469612302545 0.5555702330196024 0
    outer loop
      vertex -0.13397459621556107 0.7000000029802325 5
      vertex -0.2066466597087646 0.8087614319889531 5
      vertex -0.13397459621556107 0.7000000029802325 15
    endloop
  endfacet
  facet normal 0.6593458151000691 0.7518398074789773 0
    outer loop
      vertex -0.2928932188134522 0.9071067841667799 5
      vertex -0.3912385709912791 0.9933533432714676 5
      vertex -0.2928932188134522 0.9071067841667799 15
    endloop
  endfacet
  facet normal 0.5555702330196023 0.8314696123025451 1.1842123871655906e-19
    outer loop
      vertex -0.49999999999999967 1.066025406764671 5
      vertex -0.3912385709912791 0.9933533432714676 15
      vertex -0.3912385709912791 0.9933533432714676 5
    endloop
  endfacet
  facet normal 0.08060294322085733 0.9967462894559154 -4.5992374464760676e-20
    outer loop
      vertex -0.8694738077799481 1.1914448643540427 15
      vertex -0.9752677445853325 1.2000000029802322 5
      vertex -0.9752677445853325 1.2000000029802322 15
    endloop
  endfacet
  facet normal 0.1950903220161264 0.9807852804032308 0
    outer loop
      vertex -0.8694738077799481 1.1914448643540427 5
      vertex -0.8694738077799481 1.1914448643540427 15
      vertex -0.741180954897479 1.1659258292693009 15
    endloop
  endfacet
  facet normal 0.4422886902190013 0.8968727415326883 0
    outer loop
      vertex -0.6173165676349099 1.1238795354915192 5
      vertex -0.6173165676349099 1.1238795354915192 15
      vertex -0.49999999999999967 1.066025406764671 15
    endloop
  endfacet
  facet normal 0.3214394653031624 0.9469301294951054 0
    outer loop
      vertex -0.741180954897479 1.1659258292693009 5
      vertex -0.741180954897479 1.1659258292693009 15
      vertex -0.6173165676349099 1.1238795354915192 15
    endloop
  endfacet
  facet normal 0.9967462894559154 0.08060294322085569 0
    outer loop
      vertex -0.008555138626189396 0.33052619520028403 5
      vertex -0.008555138626189396 0.33052619520028403 15
      vertex 0.0009963674567396953 0.21241105118142636 15
    endloop
  endfacet
  facet normal 0.9807852804032307 0.1950903220161279 0
    outer loop
      vertex -0.034074173710931466 0.4588190480827532 5
      vertex -0.034074173710931466 0.4588190480827532 15
      vertex -0.008555138626189396 0.33052619520028403 15
    endloop
  endfacet
  facet normal 0.9469301294951057 0.3214394653031617 0
    outer loop
      vertex -0.07612046748871304 0.5826834353453223 5
      vertex -0.07612046748871304 0.5826834353453223 15
      vertex -0.034074173710931466 0.4588190480827532 15
    endloop
  endfacet
  facet normal 0.8968727415326885 0.442288690219001 0
    outer loop
      vertex -0.13397459621556107 0.7000000029802325 5
      vertex -0.13397459621556107 0.7000000029802325 15
      vertex -0.07612046748871304 0.5826834353453223 15
    endloop
  endfacet
  facet normal 0.7518398074789774 0.659345815100069 0
    outer loop
      vertex -0.2928932188134522 0.9071067841667799 5
      vertex -0.2928932188134522 0.9071067841667799 15
      vertex -0.2066466597087646 0.8087614319889531 15
    endloop
  endfacet
  facet normal 0.831469612302545 0.5555702330196024 6.3331833788478285e-19
    outer loop
      vertex -0.13397459621556107 0.7000000029802325 15
      vertex -0.2066466597087646 0.8087614319889531 5
      vertex -0.2066466597087646 0.8087614319889531 15
    endloop
  endfacet
  facet normal 0.6593458151000691 0.7518398074789773 0
    outer loop
      vertex -0.3912385709912791 0.9933533432714676 5
      vertex -0.3912385709912791 0.9933533432714676 15
      vertex -0.2928932188134522 0.9071067841667799 15
    endloop
  endfacet
  facet normal 0.5555702330196023 0.8314696123025451 0
    outer loop
      vertex -0.49999999999999967 1.066025406764671 5
      vertex -0.49999999999999967 1.066025406764671 15
      vertex -0.3912385709912791 0.9933533432714676 15
    endloop
  endfacet
  facet normal 0 -1 0
    outer loop
      vertex -8 -4 0
      vertex 12 -4 0
      vertex -8 -4 20
    endloop
  endfacet
  facet normal 0 0 -1
    outer loop
      vertex -8 -4 0
      vertex 0.9672633931040764 0 0
      vertex 12 -4 0
    endloop
  endfacet
  facet normal -1 0 0
    outer loop
      vertex -8 -4 0
      vertex -8 -4 20
      vertex -8 1.2000000029802322 20
    endloop
  endfacet
  facet normal 0 0 1
    outer loop
      vertex -8 -4 20
      vertex 12 -4 20
      vertex 0.9672633931040764 0 20
    endloop
  endfacet
  facet normal 0 0 -1
    outer loop
      vertex -8 -4 0
      vertex -8 1.2000000029802322 0
      vertex 0 0.9672633931040764 0
    endloop
  endfacet
  facet normal -1 0 0
    outer loop
      vertex -8 -4 0
      vertex -8 1.2000000029802322 20
      vertex -8 1.2000000029802322 0
    endloop
  endfacet
  facet normal 0 1 0
    outer loop
      vertex -8 1.2000000029802322 0
      vertex -0.9752677445853325 1.2000000029802322 15
      vertex -0.9752677445853325 1.2000000029802322 5
    endloop
  endfacet
  facet normal 0 0 -1
    outer loop
      vertex -8 -4 0
      vertex 0.3652668744325638 0.22657544910907745 0
      vertex 0.41721027344465256 0.18671787530183792 0
    endloop
  endfacet
  facet normal 0 0 -1
    outer loop
      vertex -8 -4 0
      vertex 0.316041499376297 0.2697449401021004 0
      vertex 0.3652668744325638 0.22657544910907745 0
    endloop
  endfacet
  facet normal 0 0 -1
    outer loop
      vertex -8 -4 0
      vertex 0.2697449401021004 0.316041499376297 0
      vertex 0.316041499376297 0.2697449401021004 0
    endloop
  endfacet
  facet normal 0 0 -1
    outer loop
      vertex -8 -4 0
      vertex 0.22657544910907745 0.3652668744325638 0
      vertex 0.2697449401021004 0.316041499376297 0
    endloop
  endfacet
  facet normal 0 0 -1
    outer loop
      vertex -8 -4 0
      vertex 0.7728020921349525 0.025601312518119812 0
      vertex 0.837017260491848 0.012828126549720764 0
    endloop
  endfacet
  facet normal 0 0 -1
    outer loop
      vertex -8 -4 0
      vertex 0.837017260491848 0.012828126549720764 0
      vertex 0.9019303545355797 0.004282154142856598 0
    endloop
  endfacet
  facet normal 0 0 -1
    outer loop
      vertex -8 -4 0
      vertex 0.587071880698204 0.088648222386837 0
      vertex 0.647561252117157 0.06359270960092545 0
    endloop
  endfacet
  facet normal 0 0 -1
    outer loop
      vertex -8 -4 0
      vertex 0.47164926677942276 0.1503429040312767 0
      vertex 0.5283507332205772 0.11760628968477249 0
    endloop
  endfacet
  facet normal 0 0 -1
    outer loop
      vertex -8 -4 0
      vertex 0.5283507332205772 0.11760628968477249 0
      vertex 0.587071880698204 0.088648222386837 0
    endloop
  endfacet
  facet normal 0 0 -1
    outer loop
      vertex -8 -4 0
      vertex 0.7095598205924034 0.04254703223705292 0
      vertex 0.7728020921349525 0.025601312518119812 0
    endloop
  endfacet
  facet normal 0 0 -1
    outer loop
      vertex -8 -4 0
      vertex 0.647561252117157 0.06359270960092545 0
      vertex 0.7095598205924034 0.04254703223705292 0
    endloop
  endfacet
  facet normal 0 0 -1
    outer loop
      vertex -8 -4 0
      vertex 0.9019303545355797 0.004282154142856598 0
      vertex 0.9672633931040764 0 0
    endloop
  endfacet
  facet normal 0 0 -1
    outer loop
      vertex -8 -4 0
      vertex 0.41721027344465256 0.18671787530183792 0
      vertex 0.47164926677942276 0.1503429040312767 0
    endloop
  endfacet
  facet normal 0 0 -1
    outer loop
      vertex -8 -4 0
      vertex 0.1503429040312767 0.47164926677942276 0
      vertex 0.18671787530183792 0.41721027344465256 0
    endloop
  endfacet
  facet normal 0 0 -1
    outer loop
      vertex -8 -4 0
      vertex 0.11760628968477249 0.5283507332205772 0
      vertex 0.1503429040312767 0.47164926677942276 0
    endloop
  endfacet
  facet normal 0 0 -1
    outer loop
      vertex -8 -4 0
      vertex 0.18671787530183792 0.41721027344465256 0
      vertex 0.22657544910907745 0.3652668744325638 0
    endloop
  endfacet
  facet normal 0 0 -1
    outer loop
      vertex -8 -4 0
      vertex 0.088648222386837 0.587071880698204 0
      vertex 0.11760628968477249 0.5283507332205772 0
    endloop
  endfacet
  facet normal 0 0 -1
    outer loop
      vertex -8 -4 0
      vertex 0.06359270960092545 0.647561252117157 0
      vertex 0.088648222386837 0.587071880698204 0
    endloop
  endfacet
  facet normal 0 0 -1
    outer loop
      vertex -8 -4 0
      vertex 0.04254703223705292 0.7095598205924034 0
      vertex 0.06359270960092545 0.647561252117157 0
    endloop
  endfacet
  facet normal 0 0 -1
    outer loop
      vertex -8 -4 0
      vertex 0.025601312518119812 0.7728020921349525 0
      vertex 0.04254703223705292 0.7095598205924034 0
    endloop
  endfacet
  facet normal 0 0 -1
    outer loop
      vertex -8 -4 0
      vertex 0.012828126549720764 0.837017260491848 0
      vertex 0.025601312518119812 0.7728020921349525 0
    endloop
  endfacet
  facet normal 0 0 -1
    outer loop
      vertex -8 -4 0
      vertex 0.004282154142856598 0.9019303545355797 0
      vertex 0.012828126549720764 0.837017260491848 0
    endloop
  endfacet
  facet normal 0 0 -1
    outer loop
      vertex -8 -4 0
      vertex 0 0.9672633931040764 0
      vertex 0.004282154142856598 0.9019303545355797 0
    endloop
  endfacet
  facet normal 0 0 -1
    outer loop
      vertex -8 1.2000000029802322 0
      vertex 0 1.2000000029802322 0
      vertex 0 0.9672633931040764 0
    endloop
  endfacet
  facet normal 0 1 0
    outer loop
      vertex -8 1.2000000029802322 0
      vertex -0.9752677445853325 1.2000000029802322 5
      vertex 0 1.2000000029802322 0
    endloop
  endfacet
  facet normal 1 0 0
    outer loop
      vertex 0 0.9672633931040764 0
      vertex 0 1.2000000029802322 0
      vertex 0 0.9672633931040764 5
    endloop
  endfacet
  facet normal 0.9978589226815612 0.06540313772896647 0
    outer loop
      vertex 0 0.9672633931040764 0
      vertex 0 0.9672633931040764 5
      vertex 0.0007789107977482474 0.9553795123531706 5
    endloop
  endfacet
  facet normal 0 1 0
    outer loop
      vertex 0 1.2000000029802322 0
      vertex -0.9752677445853325 1.2000000029802322 5
      vertex 0 1.2000000029802322 5
    endloop
  endfacet
  facet normal 1 0 0
    outer loop
      vertex 0 1.2000000029802322 0
      vertex 0 1.2000000029802322 5
      vertex 0 0.9672633931040764 5
    endloop
  endfacet
  facet normal 0.3214394550524551 0.9469301329747516 0
    outer loop
      vertex 0.7095598205924034 0.04254703223705292 0
      vertex 0.647561252117157 0.06359270960092545 0
      vertex 0.7095598205924034 0.04254703223705292 20
    endloop
  endfacet
  facet normal 0.6087614472537204 0.7933533262913541 0
    outer loop
      vertex 0.41721027344465256 0.18671787530183792 0
      vertex 0.3652668744325638 0.22657544910907745 0
      vertex 0.41721027344465256 0.18671787530183792 20
    endloop
  endfacet
  facet normal 0.4422887148889946 0.8968727293667935 0
    outer loop
      vertex 0.587071880698204 0.088648222386837 0
      vertex 0.5283507332205772 0.11760628968477249 0
      vertex 0.587071880698204 0.088648222386837 20
    endloop
  endfacet
  facet normal 0.5000000851484455 0.8660253546239551 0
    outer loop
      vertex 0.5283507332205772 0.11760628968477249 0
      vertex 0.47164926677942276 0.1503429040312767 0
      vertex 0.5283507332205772 0.11760628968477249 20
    endloop
  endfacet
  facet normal 0.38268336411491527 0.9238795607814317 0
    outer loop
      vertex 0.587071880698204 0.088648222386837 0
      vertex 0.647561252117157 0.06359270960092545 20
      vertex 0.647561252117157 0.06359270960092545 0
    endloop
  endfacet
  facet normal 0.5555702209234242 0.8314696203849529 0
    outer loop
      vertex 0.41721027344465256 0.18671787530183792 0
      vertex 0.47164926677942276 0.1503429040312767 20
      vertex 0.47164926677942276 0.1503429040312767 0
    endloop
  endfacet
  facet normal 0.8968727293667935 0.4422887148889946 0
    outer loop
      vertex 0.11760628968477249 0.5283507332205772 0
      vertex 0.088648222386837 0.587071880698204 0
      vertex 0.11760628968477249 0.5283507332205772 20
    endloop
  endfacet
  facet normal 0.6593457778610697 0.7518398401367015 0
    outer loop
      vertex 0.3652668744325638 0.22657544910907745 0
      vertex 0.316041499376297 0.2697449401021004 0
      vertex 0.3652668744325638 0.22657544910907745 20
    endloop
  endfacet
  facet normal 0.7071067811865475 0.7071067811865475 0
    outer loop
      vertex 0.316041499376297 0.2697449401021004 0
      vertex 0.2697449401021004 0.316041499376297 0
      vertex 0.316041499376297 0.2697449401021004 20
    endloop
  endfacet
  facet normal 0.7518398401367015 0.6593457778610697 0
    outer loop
      vertex 0.2697449401021004 0.316041499376297 0
      vertex 0.22657544910907745 0.3652668744325638 0
      vertex 0.2697449401021004 0.316041499376297 20
    endloop
  endfacet
  facet normal 0.7933533262913541 0.6087614472537204 0
    outer loop
      vertex 0.22657544910907745 0.3652668744325638 0
      vertex 0.18671787530183792 0.41721027344465256 0
      vertex 0.22657544910907745 0.3652668744325638 20
    endloop
  endfacet
  facet normal 0.8314696203849529 0.5555702209234242 0
    outer loop
      vertex 0.18671787530183792 0.41721027344465256 0
      vertex 0.1503429040312767 0.47164926677942276 0
      vertex 0.18671787530183792 0.41721027344465256 20
    endloop
  endfacet
  facet normal 0.8660253546239551 0.5000000851484455 0
    outer loop
      vertex 0.11760628968477249 0.5283507332205772 0
      vertex 0.1503429040312767 0.47164926677942276 20
      vertex 0.1503429040312767 0.47164926677942276 0
    endloop
  endfacet
  facet normal 0.19509024574711234 0.980785295574078 0
    outer loop
      vertex 0.837017260491848 0.012828126549720764 0
      vertex 0.7728020921349525 0.025601312518119812 0
      vertex 0.837017260491848 0.012828126549720764 20
    endloop
  endfacet
  facet normal 0.13052621398741657 0.9914448585080822 0
    outer loop
      vertex 0.837017260491848 0.012828126549720764 0
      vertex 0.9019303545355797 0.004282154142856598 20
      vertex 0.9019303545355797 0.004282154142856598 0
    endloop
  endfacet
  facet normal 0.25881910397900215 0.9659258105131608 0
    outer loop
      vertex 0.7095598205924034 0.04254703223705292 0
      vertex 0.7728020921349525 0.025601312518119812 20
      vertex 0.7728020921349525 0.025601312518119812 0
    endloop
  endfacet
  facet normal 0.06540313772896647 0.9978589226815611 0
    outer loop
      vertex 0.9019303545355797 0.004282154142856598 0
      vertex 0.9672633931040764 0 20
      vertex 0.9672633931040764 0 0
    endloop
  endfacet
  facet normal 0.9238795607814317 0.38268336411491527 0
    outer loop
      vertex 0.088648222386837 0.587071880698204 0
      vertex 0.06359270960092545 0.647561252117157 0
      vertex 0.088648222386837 0.587071880698204 20
    endloop
  endfacet
  facet normal 0.9469301329747516 0.3214394550524551 0
    outer loop
      vertex 0.06359270960092545 0.647561252117157 0
      vertex 0.04254703223705292 0.7095598205924034 0
      vertex 0.06359270960092545 0.647561252117157 20
    endloop
  endfacet
  facet normal 0.9659258105131608 0.25881910397900215 0
    outer loop
      vertex 0.04254703223705292 0.7095598205924034 0
      vertex 0.025601312518119812 0.7728020921349525 0
      vertex 0.04254703223705292 0.7095598205924034 20
    endloop
  endfacet
  facet normal 0.980785295574078 0.19509024574711234 0
    outer loop
      vertex 0.025601312518119812 0.7728020921349525 0
      vertex 0.012828126549720764 0.837017260491848 0
      vertex 0.025601312518119812 0.7728020921349525 20
    endloop
  endfacet
  facet normal 0.9914448585080822 0.13052621398741657 0
    outer loop
      vertex 0.012828126549720764 0.837017260491848 0
      vertex 0.004282154142856598 0.9019303545355797 0
      vertex 0.012828126549720764 0.837017260491848 20
    endloop
  endfacet
  facet normal 0.9978589226815611 0.06540313772896647 0
    outer loop
      vertex 0.004282154142856598 0.9019303545355797 0
      vertex 0 0.9672633931040764 0
      vertex 0.004282154142856598 0.9019303545355797 20
    endloop
  endfacet
  facet normal 0.9978589226815612 0.0654031377289665 6.864192872034473e-20
    outer loop
      vertex 0 0.9672633931040764 0
      vertex 0.0007789107977482474 0.9553795123531706 5
      vertex 0.004282154142856598 0.9019303545355797 20
    endloop
  endfacet
  facet normal 0 0 1
    outer loop
      vertex -8 -4 20
      vertex 0 0.9672633931040764 20
      vertex -8 1.2000000029802322 20
    endloop
  endfacet
  facet normal 0 1 0
    outer loop
      vertex -8 1.2000000029802322 0
      vertex -8 1.2000000029802322 20
      vertex 0 1.2000000029802322 20
    endloop
  endfacet
  facet normal 0 0 1
    outer loop
      vertex -8 -4 20
      vertex 0.41721027344465256 0.18671787530183792 20
      vertex 0.3652668744325638 0.22657544910907745 20
    endloop
  endfacet
  facet normal 0 0 1
    outer loop
      vertex -8 -4 20
      vertex 0.3652668744325638 0.22657544910907745 20
      vertex 0.316041499376297 0.2697449401021004 20
    endloop
  endfacet
  facet normal 0 0 1
    outer loop
      vertex -8 -4 20
      vertex 0.316041499376297 0.2697449401021004 20
      vertex 0.2697449401021004 0.316041499376297 20
    endloop
  endfacet
  facet normal 0 0 1
    outer loop
      vertex -8 -4 20
      vertex 0.2697449401021004 0.316041499376297 20
      vertex 0.22657544910907745 0.3652668744325638 20
    endloop
  endfacet
  facet normal 0 0 1
    outer loop
      vertex -8 -4 20
      vertex 0.837017260491848 0.012828126549720764 20
      vertex 0.7728020921349525 0.025601312518119812 20
    endloop
  endfacet
  facet normal 0 0 1
    outer loop
      vertex -8 -4 20
      vertex 0.9019303545355797 0.004282154142856598 20
      vertex 0.837017260491848 0.012828126549720764 20
    endloop
  endfacet
  facet normal 0 0 1
    outer loop
      vertex -8 -4 20
      vertex 0.647561252117157 0.06359270960092545 20
      vertex 0.587071880698204 0.088648222386837 20
    endloop
  endfacet
  facet normal 0 0 1
    outer loop
      vertex -8 -4 20
      vertex 0.5283507332205772 0.11760628968477249 20
      vertex 0.47164926677942276 0.1503429040312767 20
    endloop
  endfacet
  facet normal 0 0 1
    outer loop
      vertex -8 -4 20
      vertex 0.587071880698204 0.088648222386837 20
      vertex 0.5283507332205772 0.11760628968477249 20
    endloop
  endfacet
  facet normal 0 0 1
    outer loop
      vertex -8 -4 20
      vertex 0.7728020921349525 0.025601312518119812 20
      vertex 0.7095598205924034 0.04254703223705292 20
    endloop
  endfacet
  facet normal 0 0 1
    outer loop
      vertex -8 -4 20
      vertex 0.7095598205924034 0.04254703223705292 20
      vertex 0.647561252117157 0.06359270960092545 20
    endloop
  endfacet
  facet normal 0 0 1
    outer loop
      vertex -8 -4 20
      vertex 0.9672633931040764 0 20
      vertex 0.9019303545355797 0.004282154142856598 20
    endloop
  endfacet
  facet normal 0 0 1
    outer loop
      vertex -8 -4 20
      vertex 0.47164926677942276 0.1503429040312767 20
      vertex 0.41721027344465256 0.18671787530183792 20
    endloop
  endfacet
  facet normal 0 0 1
    outer loop
      vertex -8 -4 20
      vertex 0.18671787530183792 0.41721027344465256 20
      vertex 0.1503429040312767 0.47164926677942276 20
    endloop
  endfacet
  facet normal 0 0 1
    outer loop
      vertex -8 -4 20
      vertex 0.1503429040312767 0.47164926677942276 20
      vertex 0.11760628968477249 0.5283507332205772 20
    endloop
  endfacet
  facet normal 0 0 1
    outer loop
      vertex -8 -4 20
      vertex 0.22657544910907745 0.3652668744325638 20
      vertex 0.18671787530183792 0.41721027344465256 20
    endloop
  endfacet
  facet normal 0 0 1
    outer loop
      vertex -8 -4 20
      vertex 0.11760628968477249 0.5283507332205772 20
      vertex 0.088648222386837 0.587071880698204 20
    endloop
  endfacet
  facet normal 0 0 1
    outer loop
      vertex -8 -4 20
      vertex 0.088648222386837 0.587071880698204 20
      vertex 0.06359270960092545 0.647561252117157 20
    endloop
  endfacet
  facet normal 0 0 1
    outer loop
      vertex -8 -4 20
      vertex 0.06359270960092545 0.647561252117157 20
      vertex 0.04254703223705292 0.7095598205924034 20
    endloop
  endfacet
  facet normal 0 0 1
    outer loop
      vertex -8 -4 20
      vertex 0.04254703223705292 0.7095598205924034 20
      vertex 0.025601312518119812 0.7728020921349525 20
    endloop
  endfacet
  facet normal 0 0 1
    outer loop
      vertex -8 -4 20
      vertex 0.025601312518119812 0.7728020921349525 20
      vertex 0.012828126549720764 0.837017260491848 20
    endloop
  endfacet
  facet normal 0 0 1
    outer loop
      vertex -8 -4 20
      vertex 0.012828126549720764 0.837017260491848 20
      vertex 0.004282154142856598 0.9019303545355797 20
    endloop
  endfacet
  facet normal 0 0 1
    outer loop
      vertex -8 -4 20
      vertex 0.004282154142856598 0.9019303545355797 20
      vertex 0 0.9672633931040764 20
    endloop
  endfacet
  facet normal 0 1 0
    outer loop
      vertex -8 1.2000000029802322 0
      vertex 0 1.2000000029802322 20
      vertex -0.9752677445853325 1.2000000029802322 15
    endloop
  endfacet
  facet normal 0.3214394550524551 0.9469301329747516 0
    outer loop
      vertex 0.647561252117157 0.06359270960092545 0
      vertex 0.647561252117157 0.06359270960092545 20
      vertex 0.7095598205924034 0.04254703223705292 20
    endloop
  endfacet
  facet normal 0.25881910397900215 0.9659258105131608 0
    outer loop
      vertex 0.7095598205924034 0.04254703223705292 0
      vertex 0.7095598205924034 0.04254703223705292 20
      vertex 0.7728020921349525 0.025601312518119812 20
    endloop
  endfacet
  facet normal 0.5555702209234242 0.8314696203849529 0
    outer loop
      vertex 0.41721027344465256 0.18671787530183792 0
      vertex 0.41721027344465256 0.18671787530183792 20
      vertex 0.47164926677942276 0.1503429040312767 20
    endloop
  endfacet
  facet normal 0.6087614472537204 0.7933533262913541 0
    outer loop
      vertex 0.3652668744325638 0.22657544910907745 0
      vertex 0.3652668744325638 0.22657544910907745 20
      vertex 0.41721027344465256 0.18671787530183792 20
    endloop
  endfacet
  facet normal 0.5000000851484455 0.8660253546239551 0
    outer loop
      vertex 0.47164926677942276 0.1503429040312767 0
      vertex 0.47164926677942276 0.1503429040312767 20
      vertex 0.5283507332205772 0.11760628968477249 20
    endloop
  endfacet
  facet normal 0.4422887148889946 0.8968727293667935 0
    outer loop
      vertex 0.5283507332205772 0.11760628968477249 0
      vertex 0.5283507332205772 0.11760628968477249 20
      vertex 0.587071880698204 0.088648222386837 20
    endloop
  endfacet
  facet normal 0.38268336411491527 0.9238795607814317 0
    outer loop
      vertex 0.587071880698204 0.088648222386837 0
      vertex 0.587071880698204 0.088648222386837 20
      vertex 0.647561252117157 0.06359270960092545 20
    endloop
  endfacet
  facet normal 0.6593457778610697 0.7518398401367015 0
    outer loop
      vertex 0.316041499376297 0.2697449401021004 0
      vertex 0.316041499376297 0.2697449401021004 20
      vertex 0.3652668744325638 0.22657544910907745 20
    endloop
  endfacet
  facet normal 0.7071067811865475 0.7071067811865475 0
    outer loop
      vertex 0.2697449401021004 0.316041499376297 0
      vertex 0.2697449401021004 0.316041499376297 20
      vertex 0.316041499376297 0.2697449401021004 20
    endloop
  endfacet
  facet normal 0.7518398401367015 0.6593457778610697 0
    outer loop
      vertex 0.22657544910907745 0.3652668744325638 0
      vertex 0.22657544910907745 0.3652668744325638 20
      vertex 0.2697449401021004 0.316041499376297 20
    endloop
  endfacet
  facet normal 0.7933533262913541 0.6087614472537204 0
    outer loop
      vertex 0.18671787530183792 0.41721027344465256 0
      vertex 0.18671787530183792 0.41721027344465256 20
      vertex 0.22657544910907745 0.3652668744325638 20
    endloop
  endfacet
  facet normal 0.8314696203849529 0.5555702209234242 0
    outer loop
      vertex 0.1503429040312767 0.47164926677942276 0
      vertex 0.1503429040312767 0.47164926677942276 20
      vertex 0.18671787530183792 0.41721027344465256 20
    endloop
  endfacet
  facet normal 0.8660253546239551 0.5000000851484455 0
    outer loop
      vertex 0.11760628968477249 0.5283507332205772 0
      vertex 0.11760628968477249 0.5283507332205772 20
      vertex 0.1503429040312767 0.47164926677942276 20
    endloop
  endfacet
  facet normal 0.19509024574711234 0.980785295574078 0
    outer loop
      vertex 0.7728020921349525 0.025601312518119812 0
      vertex 0.7728020921349525 0.025601312518119812 20
      vertex 0.837017260491848 0.012828126549720764 20
    endloop
  endfacet
  facet normal 0.13052621398741657 0.9914448585080822 0
    outer loop
      vertex 0.837017260491848 0.012828126549720764 0
      vertex 0.837017260491848 0.012828126549720764 20
      vertex 0.9019303545355797 0.004282154142856598 20
    endloop
  endfacet
  facet normal 0.06540313772896647 0.9978589226815611 0
    outer loop
      vertex 0.9019303545355797 0.004282154142856598 0
      vertex 0.9019303545355797 0.004282154142856598 20
      vertex 0.9672633931040764 0 20
    endloop
  endfacet
  facet normal 0.8968727293667935 0.4422887148889946 0
    outer loop
      vertex 0.088648222386837 0.587071880698204 0
      vertex 0.088648222386837 0.587071880698204 20
      vertex 0.11760628968477249 0.5283507332205772 20
    endloop
  endfacet
  facet normal 0.9238795607814317 0.38268336411491527 0
    outer loop
      vertex 0.06359270960092545 0.647561252117157 0
      vertex 0.06359270960092545 0.647561252117157 20
      vertex 0.088648222386837 0.587071880698204 20
    endloop
  endfacet
  facet normal 0.9469301329747516 0.3214394550524551 0
    outer loop
      vertex 0.04254703223705292 0.7095598205924034 0
      vertex 0.04254703223705292 0.7095598205924034 20
      vertex 0.06359270960092545 0.647561252117157 20
    endloop
  endfacet
  facet normal 0.9659258105131608 0.25881910397900215 0
    outer loop
      vertex 0.025601312518119812 0.7728020921349525 0
      vertex 0.025601312518119812 0.7728020921349525 20
      vertex 0.04254703223705292 0.7095598205924034 20
    endloop
  endfacet
  facet normal 0.980785295574078 0.19509024574711234 0
    outer loop
      vertex 0.012828126549720764 0.837017260491848 0
      vertex 0.012828126549720764 0.837017260491848 20
      vertex 0.025601312518119812 0.7728020921349525 20
    endloop
  endfacet
  facet normal 0.9914448585080822 0.13052621398741657 0
    outer loop
      vertex 0.004282154142856598 0.9019303545355797 0
      vertex 0.004282154142856598 0.9019303545355797 20
      vertex 0.012828126549720764 0.837017260491848 20
    endloop
  endfacet
  facet normal 0.9978589226815611 0.06540313772896647 2.100687366168613e-20
    outer loop
      vertex 0.004282154142856598 0.9019303545355797 20
      vertex 0.0007789107977482474 0.9553795123531706 5
      vertex 0.0007789107977482474 0.9553795123531706 15
    endloop
  endfacet
  facet normal 0 0 1
    outer loop
      vertex -8 1.2000000029802322 20
      vertex 0 0.9672633931040764 20
      vertex 0 1.2000000029802322 20
    endloop
  endfacet
  facet normal 0.9978589226815612 0.06540313772896647 0
    outer loop
      vertex 0 0.9672633931040764 20
      vertex 0.0007789107977482474 0.9553795123531706 15
      vertex 0 0.9672633931040764 15
    endloop
  endfacet
  facet normal 0 1 0
    outer loop
      vertex 0 1.2000000029802322 20
      vertex 0 1.2000000029802322 15
      vertex -0.9752677445853325 1.2000000029802322 15
    endloop
  endfacet
  facet normal 1 0 0
    outer loop
      vertex 0 0.9672633931040764 20
      vertex 0 0.9672633931040764 15
      vertex 0 1.2000000029802322 15
    endloop
  endfacet
  facet normal 0.9978589226815611 0.06540313772896647 2.938718686402194e-21
    outer loop
      vertex 0.004282154142856598 0.9019303545355797 20
      vertex 0.0007789107977482474 0.9553795123531706 15
      vertex 0 0.9672633931040764 20
    endloop
  endfacet
  facet normal 1 0 0
    outer loop
      vertex 0 0.9672633931040764 20
      vertex 0 1.2000000029802322 15
      vertex 0 1.2000000029802322 20
    endloop
  endfacet
  facet normal 1 0 0
    outer loop
      vertex 12 -4 0
      vertex 12 0 0
      vertex 12 -4 20
    endloop
  endfacet
  facet normal 0 -1 0
    outer loop
      vertex -8 -4 20
      vertex 12 -4 0
      vertex 12 -4 20
    endloop
  endfacet
  facet normal 0 0 -1
    outer loop
      vertex 0.9672633931040764 0 0
      vertex 12 0 0
      vertex 12 -4 0
    endloop
  endfacet
  facet normal 0 1 0
    outer loop
      vertex 0.9672633931040764 0 0
      vertex 12 0 20
      vertex 12 0 0
    endloop
  endfacet
  facet normal 0 1 0
    outer loop
      vertex 0.9672633931040764 0 0
      vertex 0.9672633931040764 0 20
      vertex 12 0 20
    endloop
  endfacet
  facet normal 1 0 0
    outer loop
      vertex 12 -4 20
      vertex 12 0 0
      vertex 12 0 20
    endloop
  endfacet
  facet normal 0 0 1
    outer loop
      vertex 0.9672633931040764 0 20
      vertex 12 -4 20
      vertex 12 0 20
    endloop
  endfacet
endsolid OpenSCAD_Model
