solid OpenSCAD_Model
  facet normal 0 0 1
    outer loop
      vertex -0.8694738077799481 1.8914448598836944 5
      vertex 0 1.8999999985098839 5
      vertex -0.9752677445853325 1.8999999985098839 5
    endloop
  endfacet
  facet normal 0 0 1
    outer loop
      vertex -0.8694738077799481 1.8914448598836944 5
      vertex -0.741180954897479 1.8659258247989525 5
      vertex 0 1.8999999985098839 5
    endloop
  endfacet
  facet normal 0 0 1
    outer loop
      vertex -0.008555138626189396 1.0305261907299357 5
      vertex 0 0.9247322539245505 5
      vertex 0 1.8999999985098839 5
    endloop
  endfacet
  facet normal 0 0 1
    outer loop
      vertex -0.008555138626189396 1.0305261907299357 5
      vertex 0 1.8999999985098839 5
      vertex -0.034074173710931466 1.1588190436124048 5
    endloop
  endfacet
  facet normal 0 0 1
    outer loop
      vertex -0.034074173710931466 1.1588190436124048 5
      vertex 0 1.8999999985098839 5
      vertex -0.07612046748871304 1.282683430874974 5
    endloop
  endfacet
  facet normal 0 0 1
    outer loop
      vertex -0.13397459621556107 1.399999998509884 5
      vertex -0.07612046748871304 1.282683430874974 5
      vertex 0 1.8999999985098839 5
    endloop
  endfacet
  facet normal 0 0 1
    outer loop
      vertex -0.13397459621556107 1.399999998509884 5
      vertex 0 1.8999999985098839 5
      vertex -0.2066466597087646 1.5087614275186048 5
    endloop
  endfacet
  facet normal 0 0 1
    outer loop
      vertex -0.2928932188134522 1.6071067796964316 5
      vertex -0.2066466597087646 1.5087614275186048 5
      vertex 0 1.8999999985098839 5
    endloop
  endfacet
  facet normal 0 0 1
    outer loop
      vertex -0.2928932188134522 1.6071067796964316 5
      vertex 0 1.8999999985098839 5
      vertex -0.3912385709912791 1.6933533388011193 5
    endloop
  endfacet
  facet normal 0 0 1
    outer loop
      vertex -0.49999999999999967 1.7660254022943227 5
      vertex -0.3912385709912791 1.6933533388011193 5
      vertex 0 1.8999999985098839 5
    endloop
  endfacet
  facet normal 0 0 1
    outer loop
      vertex -0.6173165676349099 1.8238795310211708 5
      vertex -0.49999999999999967 1.7660254022943227 5
      vertex 0 1.8999999985098839 5
    endloop
  endfacet
  facet normal 0 0 1
    outer loop
      vertex -0.741180954897479 1.8659258247989525 5
      vertex -0.6173165676349099 1.8238795310211708 5
      vertex 0 1.8999999985098839 5
    endloop
  endfacet
  facet normal 0 0 -1
    outer loop
      vertex -0.8694738077799481 1.8914448598836944 15
      vertex -0.9752677445853325 1.8999999985098839 15
      vertex 0 1.8999999985098839 15
    endloop
  endfacet
  facet normal 0 0 -1
    outer loop
      vertex -0.8694738077799481 1.8914448598836944 15
      vertex 0 1.8999999985098839 15
      vertex -0.741180954897479 1.8659258247989525 15
    endloop
  endfacet
  facet normal 0 0 -1
    outer loop
      vertex -0.008555138626189396 1.0305261907299357 15
      vertex 0 1.8999999985098839 15
      vertex 0 0.9247322539245505 15
    endloop
  endfacet
  facet normal 0 0 -1
    outer loop
      vertex -0.008555138626189396 1.0305261907299357 15
      vertex -0.034074173710931466 1.1588190436124048 15
      vertex 0 1.8999999985098839 15
    endloop
  endfacet
  facet normal 0 0 -1
    outer loop
      vertex -0.034074173710931466 1.1588190436124048 15
      vertex -0.07612046748871304 1.282683430874974 15
      vertex 0 1.8999999985098839 15
    endloop
  endfacet
  facet normal 0 0 -1
    outer loop
      vertex -0.13397459621556107 1.399999998509884 15
      vertex 0 1.8999999985098839 15
      vertex -0.07612046748871304 1.282683430874974 15
    endloop
  endfacet
  facet normal 0 0 -1
    outer loop
      vertex -0.13397459621556107 1.399999998509884 15
      vertex -0.2066466597087646 1.5087614275186048 15
      vertex 0 1.8999999985098839 15
    endloop
  endfacet
  facet normal 0 0 -1
    outer loop
      vertex -0.2928932188134522 1.6071067796964316 15
      vertex 0 1.8999999985098839 15
      vertex -0.2066466597087646 1.5087614275186048 15
    endloop
  endfacet
  facet normal 0 0 -1
    outer loop
      vertex -0.2928932188134522 1.6071067796964316 15
      vertex -0.3912385709912791 1.6933533388011193 15
      vertex 0 1.8999999985098839 15
    endloop
  endfacet
  facet normal 0 0 -1
    outer loop
      vertex -0.49999999999999967 1.7660254022943227 15
      vertex 0 1.8999999985098839 15
      vertex -0.3912385709912791 1.6933533388011193 15
    endloop
  endfacet
  facet normal 0 0 -1
    outer loop
      vertex -0.6173165676349099 1.8238795310211708 15
      vertex 0 1.8999999985098839 15
      vertex -0.49999999999999967 1.7660254022943227 15
    endloop
  endfacet
  facet normal 0 0 -1
    outer loop
      vertex -0.741180954897479 1.8659258247989525 15
      vertex 0 1.8999999985098839 15
      vertex -0.6173165676349099 1.8238795310211708 15
    endloop
  endfacet
  facet normal 0.08060294322085733 0.9967462894559154 0
    outer loop
      vertex -0.8694738077799481 1.8914448598836944 5
      vertex -0.9752677445853325 1.8999999985098839 5
      vertex -0.8694738077799481 1.8914448598836944 15
    endloop
  endfacet
  facet normal 0.4422886902190013 0.8968727415326883 1.3767520923323983e-19
    outer loop
      vertex -0.6173165676349099 1.8238795310211708 5
      vertex -0.49999999999999967 1.7660254022943227 15
      vertex -0.49999999999999967 1.7660254022943227 5
    endloop
  endfacet
  facet normal 0.3214394653031624 0.9469301294951054 -1.1453111740825176e-19
    outer loop
      vertex -0.741180954897479 1.8659258247989525 5
      vertex -0.6173165676349099 1.8238795310211708 15
      vertex -0.6173165676349099 1.8238795310211708 5
    endloop
  endfacet
  facet normal 0.1950903220161264 0.9807852804032308 5.014085435491522e-20
    outer loop
      vertex -0.8694738077799481 1.8914448598836944 5
      vertex -0.741180954897479 1.8659258247989525 15
      vertex -0.741180954897479 1.8659258247989525 5
    endloop
  endfacet
  facet normal 0.9967462894559154 0.08060294322085569 -4.499564372196924e-20
    outer loop
      vertex -0.008555138626189396 1.0305261907299357 5
      vertex 0 0.9247322539245505 15
      vertex 0 0.9247322539245505 5
    endloop
  endfacet
  facet normal 0.9807852804032307 0.1950903220161279 0
    outer loop
      vertex -0.008555138626189396 1.0305261907299357 5
      vertex -0.034074173710931466 1.1588190436124048 5
      vertex -0.008555138626189396 1.0305261907299357 15
    endloop
  endfacet
  facet normal 0.9469301294951057 0.3214394653031617 0
    outer loop
      vertex -0.034074173710931466 1.1588190436124048 5
      vertex -0.07612046748871304 1.282683430874974 5
      vertex -0.034074173710931466 1.1588190436124048 15
    endloop
  endfacet
  facet normal 0.8968727415326885 0.442288690219001 -2.456901936086357e-19
    outer loop
      vertex -0.13397459621556107 1.399999998509884 5
      vertex -0.07612046748871304 1.282683430874974 15
      vertex -0.07612046748871304 1.282683430874974 5
    endloop
  endfacet
  facet normal 0.831469612302545 0.5555702330196024 0
    outer loop
      vertex -0.13397459621556107 1.399999998509884 5
      vertex -0.2066466597087646 1.5087614275186048 5
      vertex -0.13397459621556107 1.399999998509884 15
    endloop
  endfacet
  facet normal 0.7518398074789774 0.659345815100069 -5.354582768872632e-19
    outer loop
      vertex -0.2928932188134522 1.6071067796964316 5
      vertex -0.2066466597087646 1.5087614275186048 15
      vertex -0.2066466597087646 1.5087614275186048 5
    endloop
  endfacet
  facet normal 0.6593458151000691 0.7518398074789773 0
    outer loop
      vertex -0.2928932188134522 1.6071067796964316 5
      vertex -0.3912385709912791 1.6933533388011193 5
      vertex -0.2928932188134522 1.6071067796964316 15
    endloop
  endfacet
  facet normal 0.5555702330196023 0.8314696123025451 1.1842123871655906e-19
    outer loop
      vertex -0.49999999999999967 1.7660254022943227 5
      vertex -0.3912385709912791 1.6933533388011193 15
      vertex -0.3912385709912791 1.6933533388011193 5
    endloop
  endfacet
  facet normal 0.08060294322085733 0.9967462894559154 -4.5992374464760676e-20
    outer loop
      vertex -0.8694738077799481 1.8914448598836944 15
      vertex -0.9752677445853325 1.8999999985098839 5
      vertex -0.9752677445853325 1.8999999985098839 15
    endloop
  endfacet
  facet normal 0.1950903220161264 0.9807852804032308 0
    outer loop
      vertex -0.8694738077799481 1.8914448598836944 5
      vertex -0.8694738077799481 1.8914448598836944 15
      vertex -0.741180954897479 1.8659258247989525 15
    endloop
  endfacet
  facet normal 0.4422886902190013 0.8968727415326883 0
    outer loop
      vertex -0.6173165676349099 1.8238795310211708 5
      vertex -0.6173165676349099 1.8238795310211708 15
      vertex -0.49999999999999967 1.7660254022943227 15
    endloop
  endfacet
  facet normal 0.3214394653031624 0.9469301294951054 0
    outer loop
      vertex -0.741180954897479 1.8659258247989525 5
      vertex -0.741180954897479 1.8659258247989525 15
      vertex -0.6173165676349099 1.8238795310211708 15
    endloop
  endfacet
  facet normal 0.9967462894559154 0.08060294322085569 0
    outer loop
      vertex -0.008555138626189396 1.0305261907299357 5
      vertex -0.008555138626189396 1.0305261907299357 15
      vertex 0 0.9247322539245505 15
    endloop
  endfacet
  facet normal 0.9807852804032307 0.1950903220161279 0
    outer loop
      vertex -0.034074173710931466 1.1588190436124048 5
      vertex -0.034074173710931466 1.1588190436124048 15
      vertex -0.008555138626189396 1.0305261907299357 15
    endloop
  endfacet
  facet normal 0.9469301294951057 0.3214394653031617 0
    outer loop
      vertex -0.07612046748871304 1.282683430874974 5
      vertex -0.07612046748871304 1.282683430874974 15
      vertex -0.034074173710931466 1.1588190436124048 15
    endloop
  endfacet
  facet normal 0.8968727415326885 0.442288690219001 0
    outer loop
      vertex -0.13397459621556107 1.399999998509884 5
      vertex -0.13397459621556107 1.399999998509884 15
      vertex -0.07612046748871304 1.282683430874974 15
    endloop
  endfacet
  facet normal 0.831469612302545 0.5555702330196024 6.3331833788478285e-19
    outer loop
      vertex -0.13397459621556107 1.399999998509884 15
      vertex -0.2066466597087646 1.5087614275186048 5
      vertex -0.2066466597087646 1.5087614275186048 15
    endloop
  endfacet
  facet normal 0.7518398074789774 0.659345815100069 0
    outer loop
      vertex -0.2928932188134522 1.6071067796964316 5
      vertex -0.2928932188134522 1.6071067796964316 15
      vertex -0.2066466597087646 1.5087614275186048 15
    endloop
  endfacet
  facet normal 0.6593458151000691 0.7518398074789773 0
    outer loop
      vertex -0.3912385709912791 1.6933533388011193 5
      vertex -0.3912385709912791 1.6933533388011193 15
      vertex -0.2928932188134522 1.6071067796964316 15
    endloop
  endfacet
  facet normal 0.5555702330196023 0.8314696123025451 0
    outer loop
      vertex -0.49999999999999967 1.7660254022943227 5
      vertex -0.49999999999999967 1.7660254022943227 15
      vertex -0.3912385709912791 1.6933533388011193 15
    endloop
  endfacet
  facet normal 0 0 -1
    outer loop
      vertex -8 -4 0
      vertex 0.8010876327753067 0 0
      vertex 12 -4 0
    endloop
  endfacet
  facet normal 0 -1 0
    outer loop
      vertex -8 -4 0
      vertex 12 -4 0
      vertex -8 -4 20
    endloop
  endfacet
  facet normal 0 0 -1
    outer loop
      vertex -8 -4 0
      vertex 0.15224093198776245 0.4335455000400543 0
      vertex 0.4335455000400543 0.15224093198776245 0
    endloop
  endfacet
  facet normal 0 0 -1
    outer loop
      vertex -8 -4 0
      vertex 0.4335455000400543 0.15224093198776245 0
      vertex 0.8010876327753067 0 0
    endloop
  endfacet
  facet normal -1 0 0
    outer loop
      vertex -8 -4 0
      vertex -8 -4 20
      vertex -8 1.8999999985098839 20
    endloop
  endfacet
  facet normal 0 0 1
    outer loop
      vertex -8 -4 20
      vertex 12 -4 20
      vertex 0.8010876327753067 0 20
    endloop
  endfacet
  facet normal 0 0 1
    outer loop
      vertex -8 -4 20
      vertex 0.4335455000400543 0.15224093198776245 20
      vertex 0.15224093198776245 0.4335455000400543 20
    endloop
  endfacet
  facet normal 0 0 1
    outer loop
      vertex -8 -4 20
      vertex 0.8010876327753067 0 20
      vertex 0.4335455000400543 0.15224093198776245 20
    endloop
  endfacet
  facet normal 0 0 -1
    outer loop
      vertex -8 -4 0
      vertex -8 1.8999999985098839 0
      vertex 0 0.8010876327753067 0
    endloop
  endfacet
  facet normal -1 0 0
    outer loop
      vertex -8 -4 0
      vertex -8 1.8999999985098839 20
      vertex -8 1.8999999985098839 0
    endloop
  endfacet
  facet normal 0 1 0
    outer loop
      vertex -8 1.8999999985098839 0
      vertex -0.9752677445853325 1.8999999985098839 15
      vertex -0.9752677445853325 1.8999999985098839 5
    endloop
  endfacet
  facet normal 0 0 -1
    outer loop
      vertex -8 -4 0
      vertex 0 0.8010876327753067 0
      vertex 0.15224093198776245 0.4335455000400543 0
    endloop
  endfacet
  facet normal 0.38268342349385426 0.9238795361858728 0
    outer loop
      vertex 0.4335455000400543 0.15224093198776245 0
      vertex 0.8010876327753067 0 20
      vertex 0.8010876327753067 0 0
    endloop
  endfacet
  facet normal 0.7071067811865475 0.7071067811865475 0
    outer loop
      vertex 0.4335455000400543 0.15224093198776245 0
      vertex 0.15224093198776245 0.4335455000400543 0
      vertex 0.4335455000400543 0.15224093198776245 20
    endloop
  endfacet
  facet normal 0 0 -1
    outer loop
      vertex -8 1.8999999985098839 0
      vertex 0 1.8999999985098839 0
      vertex 0 0.8010876327753067 0
    endloop
  endfacet
  facet normal 0 1 0
    outer loop
      vertex -8 1.8999999985098839 0
      vertex -0.9752677445853325 1.8999999985098839 5
      vertex 0 1.8999999985098839 0
    endloop
  endfacet
  facet normal 1 0 0
    outer loop
      vertex 0 0.8010876327753067 0
      vertex 0 1.8999999985098839 0
      vertex 0 0.9247322539245505 5
    endloop
  endfacet
  facet normal 1 0 0
    outer loop
      vertex 0 1.8999999985098839 0
      vertex 0 1.8999999985098839 5
      vertex 0 0.9247322539245505 5
    endloop
  endfacet
  facet normal 0 1 0
    outer loop
      vertex 0 1.8999999985098839 0
      vertex -0.9752677445853325 1.8999999985098839 5
      vertex 0 1.8999999985098839 5
    endloop
  endfacet
  facet normal 0.9238795361858728 0.38268342349385426 0
    outer loop
      vertex 0.15224093198776245 0.4335455000400543 0
      vertex 0 0.8010876327753067 0
      vertex 0.15224093198776245 0.4335455000400543 20
    endloop
  endfacet
  facet normal 1 0 0
    outer loop
      vertex 0 0.8010876327753067 0
      vertex 0 0.9247322539245505 5
      vertex 0 0.9247322539245505 15
    endloop
  endfacet
  facet normal 0 0 1
    outer loop
      vertex -8 -4 20
      vertex 0 0.8010876327753067 20
      vertex -8 1.8999999985098839 20
    endloop
  endfacet
  facet normal 0 1 0
    outer loop
      vertex -8 1.8999999985098839 0
      vertex -8 1.8999999985098839 20
      vertex 0 1.8999999985098839 20
    endloop
  endfacet
  facet normal 0.38268342349385426 0.9238795361858728 0
    outer loop
      vertex 0.4335455000400543 0.15224093198776245 0
      vertex 0.4335455000400543 0.15224093198776245 20
      vertex 0.8010876327753067 0 20
    endloop
  endfacet
  facet normal 0.7071067811865475 0.7071067811865475 0
    outer loop
      vertex 0.15224093198776245 0.4335455000400543 0
      vertex 0.15224093198776245 0.4335455000400543 20
      vertex 0.4335455000400543 0.15224093198776245 20
    endloop
  endfacet
  facet normal 0 0 1
    outer loop
      vertex -8 -4 20
      vertex 0.15224093198776245 0.4335455000400543 20
      vertex 0 0.8010876327753067 20
    endloop
  endfacet
  facet normal 0 1 0
    outer loop
      vertex -8 1.8999999985098839 0
      vertex 0 1.8999999985098839 20
      vertex -0.9752677445853325 1.8999999985098839 15
    endloop
  endfacet
  facet normal 1 0 0
    outer loop
      vertex 0 0.8010876327753067 0
      vertex 0 0.9247322539245505 15
      vertex 0 0.8010876327753067 20
    endloop
  endfacet
  facet normal 0.9238795361858728 0.38268342349385426 0
    outer loop
      vertex 0 0.8010876327753067 0
      vertex 0 0.8010876327753067 20
      vertex 0.15224093198776245 0.4335455000400543 20
    endloop
  endfacet
  facet normal 0 0 1
    outer loop
      vertex -8 1.8999999985098839 20
      vertex 0 0.8010876327753067 20
      vertex 0 1.8999999985098839 20
    endloop
  endfacet
  facet normal 1 0 0
    outer loop
      vertex 0 0.8010876327753067 20
      vertex 0 0.9247322539245505 15
      vertex 0 1.8999999985098839 15
    endloop
  endfacet
  facet normal 0 1 0
    outer loop
      vertex 0 1.8999999985098839 20
      vertex 0 1.8999999985098839 15
      vertex -0.9752677445853325 1.8999999985098839 15
    endloop
  endfacet
  facet normal 1 0 0
    outer loop
      vertex 0 0.8010876327753067 20
      vertex 0 1.8999999985098839 15
      vertex 0 1.8999999985098839 20
    endloop
  endfacet
  facet normal 1 0 0
    outer loop
      vertex 12 -4 0
      vertex 12 0 0
      vertex 12 -4 20
    endloop
  endfacet
  facet normal 0 0 -1
    outer loop
      vertex 0.8010876327753067 0 0
      vertex 12 0 0
      vertex 12 -4 0
    endloop
  endfacet
  facet normal 0 -1 0
    outer loop
      vertex -8 -4 20
      vertex 12 -4 0
      vertex 12 -4 20
    endloop
  endfacet
  facet normal 1 0 0
    outer loop
      vertex 12 -4 20
      vertex 12 0 0
      vertex 12 0 20
    endloop
  endfacet
  facet normal 0 0 1
    outer loop
      vertex 0.8010876327753067 0 20
      vertex 12 -4 20
      vertex 12 0 20
    endloop
  endfacet
  facet normal 0 1 0
    outer loop
      vertex 0.8010876327753067 0 0
      vertex 12 0 20
      vertex 12 0 0
    endloop
  endfacet
  facet normal 0 1 0
    outer loop
      vertex 0.8010876327753067 0 0
      vertex 0.8010876327753067 0 20
      vertex 12 0 20
    endloop
  endfacet
endsolid OpenSCAD_Model
