solid OpenSCAD_Model
  facet normal 0 0 1
    outer loop
      vertex -0.8694738077799481 1.011444864652066 5
      vertex 0 1.0200000032782555 5
      vertex -0.9752677445853325 1.0200000032782555 5
    endloop
  endfacet
  facet normal 0 0 1
    outer loop
      vertex -0.8694738077799481 1.011444864652066 5
      vertex -0.741180954897479 0.985925829567324 5
      vertex 0 1.0200000032782555 5
    endloop
  endfacet
  facet normal 0 0 1
    outer loop
      vertex 0.0009963674567396953 0.03241105147944957 5
      vertex 0.0007719318368172995 0.799224024415021 5
      vertex -0.008555138626189396 0.15052619549830726 5
    endloop
  endfacet
  facet normal 0 0 1
    outer loop
      vertex -0.008555138626189396 0.15052619549830726 5
      vertex 0 0.8010876327753067 5
      vertex -0.034074173710931466 0.2788190483807764 5
    endloop
  endfacet
  facet normal 0 0 1
    outer loop
      vertex -0.034074173710931466 0.2788190483807764 5
      vertex 0 0.8010876327753067 5
      vertex -0.07612046748871304 0.40268343564334547 5
    endloop
  endfacet
  facet normal 0 0 1
    outer loop
      vertex -0.13397459621556107 0.5200000032782557 5
      vertex -0.07612046748871304 0.40268343564334547 5
      vertex 0 0.8010876327753067 5
    endloop
  endfacet
  facet normal 0 0 1
    outer loop
      vertex -0.008555138626189396 0.15052619549830726 5
      vertex 0.0007719318368172995 0.799224024415021 5
      vertex 0 0.8010876327753067 5
    endloop
  endfacet
  facet normal 0 0 1
    outer loop
      vertex -0.13397459621556107 0.5200000032782557 5
      vertex 0 0.8010876327753067 5
      vertex -0.2066466597087646 0.6287614322869763 5
    endloop
  endfacet
  facet normal 0 0 1
    outer loop
      vertex -0.2928932188134522 0.7271067844648031 5
      vertex 0 1.0200000032782555 5
      vertex -0.3912385709912791 0.8133533435694908 5
    endloop
  endfacet
  facet normal 0 0 1
    outer loop
      vertex -0.2928932188134522 0.7271067844648031 5
      vertex -0.2066466597087646 0.6287614322869763 5
      vertex 0 0.8010876327753067 5
    endloop
  endfacet
  facet normal 0 0 1
    outer loop
      vertex -0.2928932188134522 0.7271067844648031 5
      vertex 0 0.8010876327753067 5
      vertex 0 1.0200000032782555 5
    endloop
  endfacet
  facet normal 0 0 1
    outer loop
      vertex -0.49999999999999967 0.8860254070626943 5
      vertex -0.3912385709912791 0.8133533435694908 5
      vertex 0 1.0200000032782555 5
    endloop
  endfacet
  facet normal 0 0 1
    outer loop
      vertex -0.6173165676349099 0.9438795357895424 5
      vertex -0.49999999999999967 0.8860254070626943 5
      vertex 0 1.0200000032782555 5
    endloop
  endfacet
  facet normal 0 0 1
    outer loop
      vertex -0.741180954897479 0.985925829567324 5
      vertex -0.6173165676349099 0.9438795357895424 5
      vertex 0 1.0200000032782555 5
    endloop
  endfacet
  facet normal -0.9999999571673798 -0.0002926862458390978 1.1003777584196067e-22
    outer loop
      vertex 0.0009963674567396953 0.03241105147944957 5
      vertex 0.0007719318368172995 0.799224024415021 15
      vertex 0.0007719318368172995 0.799224024415021 5
    endloop
  endfacet
  facet normal -0.9999999571673798 -0.0002926862458390978 0
    outer loop
      vertex 0.0009963674567396953 0.03241105147944957 5
      vertex 0.0009963674567396953 0.03241105147944957 15
      vertex 0.0007719318368172995 0.799224024415021 15
    endloop
  endfacet
  facet normal 0 0 -1
    outer loop
      vertex -0.8694738077799481 1.011444864652066 15
      vertex -0.9752677445853325 1.0200000032782555 15
      vertex 0 1.0200000032782555 15
    endloop
  endfacet
  facet normal 0 0 -1
    outer loop
      vertex -0.8694738077799481 1.011444864652066 15
      vertex 0 1.0200000032782555 15
      vertex -0.741180954897479 0.985925829567324 15
    endloop
  endfacet
  facet normal 0 0 -1
    outer loop
      vertex 0.0009963674567396953 0.03241105147944957 15
      vertex -0.008555138626189396 0.15052619549830726 15
      vertex 0.0007719318368172995 0.799224024415021 15
    endloop
  endfacet
  facet normal 0 0 -1
    outer loop
      vertex -0.008555138626189396 0.15052619549830726 15
      vertex -0.034074173710931466 0.2788190483807764 15
      vertex 0 1.0200000032782555 15
    endloop
  endfacet
  facet normal 0 0 -1
    outer loop
      vertex -0.034074173710931466 0.2788190483807764 15
      vertex -0.07612046748871304 0.40268343564334547 15
      vertex 0 1.0200000032782555 15
    endloop
  endfacet
  facet normal 0 0 -1
    outer loop
      vertex -0.008555138626189396 0.15052619549830726 15
      vertex 0 0.8010876327753067 15
      vertex 0.0007719318368172995 0.799224024415021 15
    endloop
  endfacet
  facet normal 0 0 -1
    outer loop
      vertex -0.13397459621556107 0.5200000032782557 15
      vertex 0 1.0200000032782555 15
      vertex -0.07612046748871304 0.40268343564334547 15
    endloop
  endfacet
  facet normal 0 0 -1
    outer loop
      vertex -0.008555138626189396 0.15052619549830726 15
      vertex 0 1.0200000032782555 15
      vertex 0 0.8010876327753067 15
    endloop
  endfacet
  facet normal 0 0 -1
    outer loop
      vertex -0.2928932188134522 0.7271067844648031 15
      vertex -0.3912385709912791 0.8133533435694908 15
      vertex 0 1.0200000032782555 15
    endloop
  endfacet
  facet normal 0 0 -1
    outer loop
      vertex -0.13397459621556107 0.5200000032782557 15
      vertex -0.2066466597087646 0.6287614322869763 15
      vertex 0 1.0200000032782555 15
    endloop
  endfacet
  facet normal 0 0 -1
    outer loop
      vertex -0.2928932188134522 0.7271067844648031 15
      vertex 0 1.0200000032782555 15
      vertex -0.2066466597087646 0.6287614322869763 15
    endloop
  endfacet
  facet normal 0 0 -1
    outer loop
      vertex -0.49999999999999967 0.8860254070626943 15
      vertex 0 1.0200000032782555 15
      vertex -0.3912385709912791 0.8133533435694908 15
    endloop
  endfacet
  facet normal 0 0 -1
    outer loop
      vertex -0.6173165676349099 0.9438795357895424 15
      vertex 0 1.0200000032782555 15
      vertex -0.49999999999999967 0.8860254070626943 15
    endloop
  endfacet
  facet normal 0 0 -1
    outer loop
      vertex -0.741180954897479 0.985925829567324 15
      vertex 0 1.0200000032782555 15
      vertex -0.6173165676349099 0.9438795357895424 15
    endloop
  endfacet
  facet normal 0.08060294322085733 0.9967462894559154 0
    outer loop
      vertex -0.8694738077799481 1.011444864652066 5
      vertex -0.9752677445853325 1.0200000032782555 5
      vertex -0.8694738077799481 1.011444864652066 15
    endloop
  endfacet
  facet normal 0.4422886902190013 0.8968727415326883 1.3767520923323983e-19
    outer loop
      vertex -0.6173165676349099 0.9438795357895424 5
      vertex -0.49999999999999967 0.8860254070626943 15
      vertex -0.49999999999999967 0.8860254070626943 5
    endloop
  endfacet
  facet normal 0.3214394653031617 0.9469301294951057 -2.109166744140103e-19
    outer loop
      vertex -0.741180954897479 0.985925829567324 5
      vertex -0.6173165676349099 0.9438795357895424 15
      vertex -0.6173165676349099 0.9438795357895424 5
    endloop
  endfacet
  facet normal 0.19509032201612722 0.9807852804032307 1.0220316476251078e-19
    outer loop
      vertex -0.8694738077799481 1.011444864652066 5
      vertex -0.741180954897479 0.985925829567324 15
      vertex -0.741180954897479 0.985925829567324 5
    endloop
  endfacet
  facet normal 0.9967462894559154 0.08060294322085568 0
    outer loop
      vertex 0.0009963674567396953 0.03241105147944957 5
      vertex -0.008555138626189396 0.15052619549830726 5
      vertex 0.0009963674567396953 0.03241105147944957 15
    endloop
  endfacet
  facet normal 0.9807852804032307 0.1950903220161279 0
    outer loop
      vertex -0.008555138626189396 0.15052619549830726 5
      vertex -0.034074173710931466 0.2788190483807764 5
      vertex -0.008555138626189396 0.15052619549830726 15
    endloop
  endfacet
  facet normal 0.9469301294951056 0.32143946530316175 0
    outer loop
      vertex -0.034074173710931466 0.2788190483807764 5
      vertex -0.07612046748871304 0.40268343564334547 5
      vertex -0.034074173710931466 0.2788190483807764 15
    endloop
  endfacet
  facet normal 0.8968727415326885 0.44228869021900086 -4.8530160227514717e-20
    outer loop
      vertex -0.13397459621556107 0.5200000032782557 5
      vertex -0.07612046748871304 0.40268343564334547 15
      vertex -0.07612046748871304 0.40268343564334547 5
    endloop
  endfacet
  facet normal 0.7518398074789774 0.659345815100069 -5.354582768872632e-19
    outer loop
      vertex -0.2928932188134522 0.7271067844648031 5
      vertex -0.2066466597087646 0.6287614322869763 15
      vertex -0.2066466597087646 0.6287614322869763 5
    endloop
  endfacet
  facet normal 0.831469612302545 0.5555702330196024 0
    outer loop
      vertex -0.13397459621556107 0.5200000032782557 5
      vertex -0.2066466597087646 0.6287614322869763 5
      vertex -0.13397459621556107 0.5200000032782557 15
    endloop
  endfacet
  facet normal 0.6593458151000691 0.7518398074789773 0
    outer loop
      vertex -0.2928932188134522 0.7271067844648031 5
      vertex -0.3912385709912791 0.8133533435694908 5
      vertex -0.2928932188134522 0.7271067844648031 15
    endloop
  endfacet
  facet normal 0.5555702330196023 0.8314696123025451 1.1842123871655906e-19
    outer loop
      vertex -0.49999999999999967 0.8860254070626943 5
      vertex -0.3912385709912791 0.8133533435694908 15
      vertex -0.3912385709912791 0.8133533435694908 5
    endloop
  endfacet
  facet normal 0.08060294322085733 0.9967462894559154 -4.5992374464760676e-20
    outer loop
      vertex -0.8694738077799481 1.011444864652066 15
      vertex -0.9752677445853325 1.0200000032782555 5
      vertex -0.9752677445853325 1.0200000032782555 15
    endloop
  endfacet
  facet normal 0.19509032201612722 0.9807852804032307 0
    outer loop
      vertex -0.8694738077799481 1.011444864652066 5
      vertex -0.8694738077799481 1.011444864652066 15
      vertex -0.741180954897479 0.985925829567324 15
    endloop
  endfacet
  facet normal 0.4422886902190013 0.8968727415326883 0
    outer loop
      vertex -0.6173165676349099 0.9438795357895424 5
      vertex -0.6173165676349099 0.9438795357895424 15
      vertex -0.49999999999999967 0.8860254070626943 15
    endloop
  endfacet
  facet normal 0.3214394653031617 0.9469301294951057 0
    outer loop
      vertex -0.741180954897479 0.985925829567324 5
      vertex -0.741180954897479 0.985925829567324 15
      vertex -0.6173165676349099 0.9438795357895424 15
    endloop
  endfacet
  facet normal 0.9967462894559154 0.08060294322085568 0
    outer loop
      vertex -0.008555138626189396 0.15052619549830726 5
      vertex -0.008555138626189396 0.15052619549830726 15
      vertex 0.0009963674567396953 0.03241105147944957 15
    endloop
  endfacet
  facet normal 0.9807852804032307 0.1950903220161279 0
    outer loop
      vertex -0.034074173710931466 0.2788190483807764 5
      vertex -0.034074173710931466 0.2788190483807764 15
      vertex -0.008555138626189396 0.15052619549830726 15
    endloop
  endfacet
  facet normal 0.9469301294951056 0.32143946530316175 0
    outer loop
      vertex -0.07612046748871304 0.40268343564334547 5
      vertex -0.07612046748871304 0.40268343564334547 15
      vertex -0.034074173710931466 0.2788190483807764 15
    endloop
  endfacet
  facet normal 0.8968727415326885 0.44228869021900086 0
    outer loop
      vertex -0.13397459621556107 0.5200000032782557 5
      vertex -0.13397459621556107 0.5200000032782557 15
      vertex -0.07612046748871304 0.40268343564334547 15
    endloop
  endfacet
  facet normal 0.7518398074789774 0.659345815100069 0
    outer loop
      vertex -0.2928932188134522 0.7271067844648031 5
      vertex -0.2928932188134522 0.7271067844648031 15
      vertex -0.2066466597087646 0.6287614322869763 15
    endloop
  endfacet
  facet normal 0.831469612302545 0.5555702330196024 6.3331833788478285e-19
    outer loop
      vertex -0.13397459621556107 0.5200000032782557 15
      vertex -0.2066466597087646 0.6287614322869763 5
      vertex -0.2066466597087646 0.6287614322869763 15
    endloop
  endfacet
  facet normal 0.6593458151000691 0.7518398074789773 0
    outer loop
      vertex -0.3912385709912791 0.8133533435694908 5
      vertex -0.3912385709912791 0.8133533435694908 15
      vertex -0.2928932188134522 0.7271067844648031 15
    endloop
  endfacet
  facet normal 0.5555702330196023 0.8314696123025451 0
    outer loop
      vertex -0.49999999999999967 0.8860254070626943 5
      vertex -0.49999999999999967 0.8860254070626943 15
      vertex -0.3912385709912791 0.8133533435694908 15
    endloop
  endfacet
  facet normal 0 -1 0
    outer loop
      vertex -8 -4 0
      vertex 12 -4 0
      vertex -8 -4 20
    endloop
  endfacet
  facet normal 0 0 -1
    outer loop
      vertex -8 -4 0
      vertex 0.8010876327753067 0 0
      vertex 12 -4 0
    endloop
  endfacet
  facet normal -1 0 0
    outer loop
      vertex -8 -4 0
      vertex -8 -4 20
      vertex -8 1.0200000032782555 20
    endloop
  endfacet
  facet normal 0 0 1
    outer loop
      vertex -8 -4 20
      vertex 12 -4 20
      vertex 0.8010876327753067 0 20
    endloop
  endfacet
  facet normal 0 0 -1
    outer loop
      vertex -8 -4 0
      vertex -8 1.0200000032782555 0
      vertex 0 0.8010876327753067 0
    endloop
  endfacet
  facet normal -1 0 0
    outer loop
      vertex -8 -4 0
      vertex -8 1.0200000032782555 20
      vertex -8 1.0200000032782555 0
    endloop
  endfacet
  facet normal 0 1 0
    outer loop
      vertex -8 1.0200000032782555 0
      vertex -0.9752677445853325 1.0200000032782555 15
      vertex -0.9752677445853325 1.0200000032782555 5
    endloop
  endfacet
  facet normal 0 0 -1
    outer loop
      vertex -8 -4 0
      vertex 0.4335455000400543 0.15224093198776245 0
      vertex 0.8010876327753067 0 0
    endloop
  endfacet
  facet normal 0 0 -1
    outer loop
      vertex -8 -4 0
      vertex 0.15224093198776245 0.4335455000400543 0
      vertex 0.4335455000400543 0.15224093198776245 0
    endloop
  endfacet
  facet normal 0 0 -1
    outer loop
      vertex -8 -4 0
      vertex 0 0.8010876327753067 0
      vertex 0.15224093198776245 0.4335455000400543 0
    endloop
  endfacet
  facet normal 0 0 -1
    outer loop
      vertex -8 1.0200000032782555 0
      vertex 0 1.0200000032782555 0
      vertex 0 0.8010876327753067 0
    endloop
  endfacet
  facet normal 0 1 0
    outer loop
      vertex -8 1.0200000032782555 0
      vertex -0.9752677445853325 1.0200000032782555 5
      vertex 0 1.0200000032782555 0
    endloop
  endfacet
  facet normal 1 0 0
    outer loop
      vertex 0 0.8010876327753067 0
      vertex 0 1.0200000032782555 0
      vertex 0 0.8010876327753067 5
    endloop
  endfacet
  facet normal 0.9238795361858738 0.38268342349385165 0
    outer loop
      vertex 0 0.8010876327753067 0
      vertex 0 0.8010876327753067 5
      vertex 0.0007719318368172995 0.799224024415021 5
    endloop
  endfacet
  facet normal 0 1 0
    outer loop
      vertex 0 1.0200000032782555 0
      vertex -0.9752677445853325 1.0200000032782555 5
      vertex 0 1.0200000032782555 5
    endloop
  endfacet
  facet normal 1 0 0
    outer loop
      vertex 0 1.0200000032782555 0
      vertex 0 1.0200000032782555 5
      vertex 0 0.8010876327753067 5
    endloop
  endfacet
  facet normal 0.38268342349385426 0.9238795361858728 0
    outer loop
      vertex 0.4335455000400543 0.15224093198776245 0
      vertex 0.8010876327753067 0 20
      vertex 0.8010876327753067 0 0
    endloop
  endfacet
  facet normal 0.7071067811865475 0.7071067811865475 0
    outer loop
      vertex 0.4335455000400543 0.15224093198776245 0
      vertex 0.15224093198776245 0.4335455000400543 0
      vertex 0.4335455000400543 0.15224093198776245 20
    endloop
  endfacet
  facet normal 0.9238795361858728 0.38268342349385426 0
    outer loop
      vertex 0.15224093198776245 0.4335455000400543 0
      vertex 0 0.8010876327753067 0
      vertex 0.15224093198776245 0.4335455000400543 20
    endloop
  endfacet
  facet normal 0.9238795361858727 0.3826834234938543 1.1550835182169211e-18
    outer loop
      vertex 0 0.8010876327753067 0
      vertex 0.0007719318368172995 0.799224024415021 5
      vertex 0.15224093198776245 0.4335455000400543 20
    endloop
  endfacet
  facet normal 0 0 1
    outer loop
      vertex -8 -4 20
      vertex 0 0.8010876327753067 20
      vertex -8 1.0200000032782555 20
    endloop
  endfacet
  facet normal 0 1 0
    outer loop
      vertex -8 1.0200000032782555 0
      vertex -8 1.0200000032782555 20
      vertex 0 1.0200000032782555 20
    endloop
  endfacet
  facet normal 0 0 1
    outer loop
      vertex -8 -4 20
      vertex 0.8010876327753067 0 20
      vertex 0.4335455000400543 0.15224093198776245 20
    endloop
  endfacet
  facet normal 0 0 1
    outer loop
      vertex -8 -4 20
      vertex 0.4335455000400543 0.15224093198776245 20
      vertex 0.15224093198776245 0.4335455000400543 20
    endloop
  endfacet
  facet normal 0 0 1
    outer loop
      vertex -8 -4 20
      vertex 0.15224093198776245 0.4335455000400543 20
      vertex 0 0.8010876327753067 20
    endloop
  endfacet
  facet normal 0 1 0
    outer loop
      vertex -8 1.0200000032782555 0
      vertex 0 1.0200000032782555 20
      vertex -0.9752677445853325 1.0200000032782555 15
    endloop
  endfacet
  facet normal 0.38268342349385426 0.9238795361858728 0
    outer loop
      vertex 0.4335455000400543 0.15224093198776245 0
      vertex 0.4335455000400543 0.15224093198776245 20
      vertex 0.8010876327753067 0 20
    endloop
  endfacet
  facet normal 0.7071067811865475 0.7071067811865475 0
    outer loop
      vertex 0.15224093198776245 0.4335455000400543 0
      vertex 0.15224093198776245 0.4335455000400543 20
      vertex 0.4335455000400543 0.15224093198776245 20
    endloop
  endfacet
  facet normal 0.9238795361858728 0.38268342349385426 1.191260562061847e-19
    outer loop
      vertex 0.15224093198776245 0.4335455000400543 20
      vertex 0.0007719318368172995 0.799224024415021 5
      vertex 0.0007719318368172995 0.799224024415021 15
    endloop
  endfacet
  facet normal 0 0 1
    outer loop
      vertex -8 1.0200000032782555 20
      vertex 0 0.8010876327753067 20
      vertex 0 1.0200000032782555 20
    endloop
  endfacet
  facet normal 0.9238795361858738 0.38268342349385165 0
    outer loop
      vertex 0 0.8010876327753067 20
      vertex 0.0007719318368172995 0.799224024415021 15
      vertex 0 0.8010876327753067 15
    endloop
  endfacet
  facet normal 0 1 0
    outer loop
      vertex 0 1.0200000032782555 20
      vertex 0 1.0200000032782555 15
      vertex -0.9752677445853325 1.0200000032782555 15
    endloop
  endfacet
  facet normal 1 0 0
    outer loop
      vertex 0 0.8010876327753067 20
      vertex 0 0.8010876327753067 15
      vertex 0 1.0200000032782555 15
    endloop
  endfacet
  facet normal 0.9238795361858728 0.38268342349385426 -4.758814337299755e-18
    outer loop
      vertex 0.15224093198776245 0.4335455000400543 20
      vertex 0.0007719318368172995 0.799224024415021 15
      vertex 0 0.8010876327753067 20
    endloop
  endfacet
  facet normal 1 0 0
    outer loop
      vertex 0 0.8010876327753067 20
      vertex 0 1.0200000032782555 15
      vertex 0 1.0200000032782555 20
    endloop
  endfacet
  facet normal 1 0 0
    outer loop
      vertex 12 -4 0
      vertex 12 0 0
      vertex 12 -4 20
    endloop
  endfacet
  facet normal 0 -1 0
    outer loop
      vertex -8 -4 20
      vertex 12 -4 0
      vertex 12 -4 20
    endloop
  endfacet
  facet normal 0 0 -1
    outer loop
      vertex 0.8010876327753067 0 0
      vertex 12 0 0
      vertex 12 -4 0
    endloop
  endfacet
  facet normal 0 1 0
    outer loop
      vertex 0.8010876327753067 0 0
      vertex 12 0 20
      vertex 12 0 0
    endloop
  endfacet
  facet normal 0 1 0
    outer loop
      vertex 0.8010876327753067 0 0
      vertex 0.8010876327753067 0 20
      vertex 12 0 20
    endloop
  endfacet
  facet normal 1 0 0
    outer loop
      vertex 12 -4 20
      vertex 12 0 0
      vertex 12 0 20
    endloop
  endfacet
  facet normal 0 0 1
    outer loop
      vertex 0.8010876327753067 0 20
      vertex 12 -4 20
      vertex 12 0 20
    endloop
  endfacet
endsolid OpenSCAD_Model
