solid OpenSCAD_Model
  facet normal 0 0 1
    outer loop
      vertex -0.8694738077799481 1.1914448643540427 5
      vertex 0 1.2000000029802322 5
      vertex -0.9752677445853325 1.2000000029802322 5
    endloop
  endfacet
  facet normal 0 0 1
    outer loop
      vertex -0.8694738077799481 1.1914448643540427 5
      vertex -0.741180954897479 1.1659258292693009 5
      vertex 0 1.2000000029802322 5
    endloop
  endfacet
  facet normal 0 0 1
    outer loop
      vertex 0.0009963674567396953 0.21241105118142636 5
      vertex 0.0008246526161174844 0.7990967451911589 5
      vertex -0.008555138626189396 0.33052619520028403 5
    endloop
  endfacet
  facet normal 0 0 1
    outer loop
      vertex -0.008555138626189396 0.33052619520028403 5
      vertex 0 0.8010876327753067 5
      vertex -0.034074173710931466 0.4588190480827532 5
    endloop
  endfacet
  facet normal 0 0 1
    outer loop
      vertex -0.034074173710931466 0.4588190480827532 5
      vertex 0 0.8010876327753067 5
      vertex -0.07612046748871304 0.5826834353453223 5
    endloop
  endfacet
  facet normal 0 0 1
    outer loop
      vertex -0.13397459621556107 0.7000000029802325 5
      vertex -0.07612046748871304 0.5826834353453223 5
      vertex 0 0.8010876327753067 5
    endloop
  endfacet
  facet normal 0 0 1
    outer loop
      vertex -0.008555138626189396 0.33052619520028403 5
      vertex 0.0008246526161174844 0.7990967451911589 5
      vertex 0 0.8010876327753067 5
    endloop
  endfacet
  facet normal 0 0 1
    outer loop
      vertex -0.13397459621556107 0.7000000029802325 5
      vertex 0 0.8010876327753067 5
      vertex -0.2066466597087646 0.8087614319889531 5
    endloop
  endfacet
  facet normal 0 0 1
    outer loop
      vertex -0.2928932188134522 0.9071067841667799 5
      vertex -0.2066466597087646 0.8087614319889531 5
      vertex 0 0.8010876327753067 5
    endloop
  endfacet
  facet normal 0 0 1
    outer loop
      vertex -0.2928932188134522 0.9071067841667799 5
      vertex 0 1.2000000029802322 5
      vertex -0.3912385709912791 0.9933533432714676 5
    endloop
  endfacet
  facet normal 0 0 1
    outer loop
      vertex -0.2928932188134522 0.9071067841667799 5
      vertex 0 0.8010876327753067 5
      vertex 0 1.2000000029802322 5
    endloop
  endfacet
  facet normal 0 0 1
    outer loop
      vertex -0.49999999999999967 1.066025406764671 5
      vertex -0.3912385709912791 0.9933533432714676 5
      vertex 0 1.2000000029802322 5
    endloop
  endfacet
  facet normal 0 0 1
    outer loop
      vertex -0.6173165676349099 1.1238795354915192 5
      vertex -0.49999999999999967 1.066025406764671 5
      vertex 0 1.2000000029802322 5
    endloop
  endfacet
  facet normal 0 0 1
    outer loop
      vertex -0.741180954897479 1.1659258292693009 5
      vertex -0.6173165676349099 1.1238795354915192 5
      vertex 0 1.2000000029802322 5
    endloop
  endfacet
  facet normal -0.9999999571673799 -0.0002926862458390978 -6.338375084351362e-22
    outer loop
      vertex 0.0009963674567396953 0.21241105118142636 5
      vertex 0.0008246526161174844 0.7990967451911589 15
      vertex 0.0008246526161174844 0.7990967451911589 5
    endloop
  endfacet
  facet normal -0.9999999571673799 -0.0002926862458390978 0
    outer loop
      vertex 0.0009963674567396953 0.21241105118142636 5
      vertex 0.0009963674567396953 0.21241105118142636 15
      vertex 0.0008246526161174844 0.7990967451911589 15
    endloop
  endfacet
  facet normal 0 0 -1
    outer loop
      vertex -0.8694738077799481 1.1914448643540427 15
      vertex -0.9752677445853325 1.2000000029802322 15
      vertex 0 1.2000000029802322 15
    endloop
  endfacet
  facet normal 0 0 -1
    outer loop
      vertex -0.8694738077799481 1.1914448643540427 15
      vertex 0 1.2000000029802322 15
      vertex -0.741180954897479 1.1659258292693009 15
    endloop
  endfacet
  facet normal 0 0 -1
    outer loop
      vertex 0.0009963674567396953 0.21241105118142636 15
      vertex -0.008555138626189396 0.33052619520028403 15
      vertex 0.0008246526161174844 0.7990967451911589 15
    endloop
  endfacet
  facet normal 0 0 -1
    outer loop
      vertex -0.008555138626189396 0.33052619520028403 15
      vertex 0 0.8010876327753067 15
      vertex 0.0008246526161174844 0.7990967451911589 15
    endloop
  endfacet
  facet normal 0 0 -1
    outer loop
      vertex -0.008555138626189396 0.33052619520028403 15
      vertex -0.034074173710931466 0.4588190480827532 15
      vertex 0 1.2000000029802322 15
    endloop
  endfacet
  facet normal 0 0 -1
    outer loop
      vertex -0.034074173710931466 0.4588190480827532 15
      vertex -0.07612046748871304 0.5826834353453223 15
      vertex 0 1.2000000029802322 15
    endloop
  endfacet
  facet normal 0 0 -1
    outer loop
      vertex -0.008555138626189396 0.33052619520028403 15
      vertex 0 1.2000000029802322 15
      vertex 0 0.8010876327753067 15
    endloop
  endfacet
  facet normal 0 0 -1
    outer loop
      vertex -0.13397459621556107 0.7000000029802325 15
      vertex 0 1.2000000029802322 15
      vertex -0.07612046748871304 0.5826834353453223 15
    endloop
  endfacet
  facet normal 0 0 -1
    outer loop
      vertex -0.2928932188134522 0.9071067841667799 15
      vertex -0.3912385709912791 0.9933533432714676 15
      vertex 0 1.2000000029802322 15
    endloop
  endfacet
  facet normal 0 0 -1
    outer loop
      vertex -0.13397459621556107 0.7000000029802325 15
      vertex -0.2066466597087646 0.8087614319889531 15
      vertex 0 1.2000000029802322 15
    endloop
  endfacet
  facet normal 0 0 -1
    outer loop
      vertex -0.2928932188134522 0.9071067841667799 15
      vertex 0 1.2000000029802322 15
      vertex -0.2066466597087646 0.8087614319889531 15
    endloop
  endfacet
  facet normal 0 0 -1
    outer loop
      vertex -0.49999999999999967 1.066025406764671 15
      vertex 0 1.2000000029802322 15
      vertex -0.3912385709912791 0.9933533432714676 15
    endloop
  endfacet
  facet normal 0 0 -1
    outer loop
      vertex -0.6173165676349099 1.1238795354915192 15
      vertex 0 1.2000000029802322 15
      vertex -0.49999999999999967 1.066025406764671 15
    endloop
  endfacet
  facet normal 0 0 -1
    outer loop
      vertex -0.741180954897479 1.1659258292693009 15
      vertex 0 1.2000000029802322 15
      vertex -0.6173165676349099 1.1238795354915192 15
    endloop
  endfacet
  facet normal 0.08060294322085733 0.9967462894559154 0
    outer loop
      vertex -0.8694738077799481 1.1914448643540427 5
      vertex -0.9752677445853325 1.2000000029802322 5
      vertex -0.8694738077799481 1.1914448643540427 15
    endloop
  endfacet
  facet normal 0.4422886902190013 0.8968727415326883 1.3767520923323983e-19
    outer loop
      vertex -0.6173165676349099 1.1238795354915192 5
      vertex -0.49999999999999967 1.066025406764671 15
      vertex -0.49999999999999967 1.066025406764671 5
    endloop
  endfacet
  facet normal 0.3214394653031624 0.9469301294951054 -1.1453111740825176e-19
    outer loop
      vertex -0.741180954897479 1.1659258292693009 5
      vertex -0.6173165676349099 1.1238795354915192 15
      vertex -0.6173165676349099 1.1238795354915192 5
    endloop
  endfacet
  facet normal 0.1950903220161264 0.9807852804032308 5.014085435491522e-20
    outer loop
      vertex -0.8694738077799481 1.1914448643540427 5
      vertex -0.741180954897479 1.1659258292693009 15
      vertex -0.741180954897479 1.1659258292693009 5
    endloop
  endfacet
  facet normal 0.9967462894559154 0.08060294322085569 0
    outer loop
      vertex 0.0009963674567396953 0.21241105118142636 5
      vertex -0.008555138626189396 0.33052619520028403 5
      vertex 0.0009963674567396953 0.21241105118142636 15
    endloop
  endfacet
  facet normal 0.9807852804032307 0.1950903220161279 0
    outer loop
      vertex -0.008555138626189396 0.33052619520028403 5
      vertex -0.034074173710931466 0.4588190480827532 5
      vertex -0.008555138626189396 0.33052619520028403 15
    endloop
  endfacet
  facet normal 0.9469301294951057 0.3214394653031617 0
    outer loop
      vertex -0.034074173710931466 0.4588190480827532 5
      vertex -0.07612046748871304 0.5826834353453223 5
      vertex -0.034074173710931466 0.4588190480827532 15
    endloop
  endfacet
  facet normal 0.8968727415326885 0.442288690219001 -2.456901936086357e-19
    outer loop
      vertex -0.13397459621556107 0.7000000029802325 5
      vertex -0.07612046748871304 0.5826834353453223 15
      vertex -0.07612046748871304 0.5826834353453223 5
    endloop
  endfacet
  facet normal 0.7518398074789774 0.659345815100069 -5.354582768872632e-19
    outer loop
      vertex -0.2928932188134522 0.9071067841667799 5
      vertex -0.2066466597087646 0.8087614319889531 15
      vertex -0.2066466597087646 0.8087614319889531 5
    endloop
  endfacet
  facet normal 0.831469612302545 0.5555702330196024 0
    outer loop
      vertex -0.13397459621556107 0.7000000029802325 5
      vertex -0.2066466597087646 0.8087614319889531 5
      vertex -0.13397459621556107 0.7000000029802325 15
    endloop
  endfacet
  facet normal 0.6593458151000691 0.7518398074789773 0
    outer loop
      vertex -0.2928932188134522 0.9071067841667799 5
      vertex -0.3912385709912791 0.9933533432714676 5
      vertex -0.2928932188134522 0.9071067841667799 15
    endloop
  endfacet
  facet normal 0.5555702330196023 0.8314696123025451 1.1842123871655906e-19
    outer loop
      vertex -0.49999999999999967 1.066025406764671 5
      vertex -0.3912385709912791 0.9933533432714676 15
      vertex -0.3912385709912791 0.9933533432714676 5
    endloop
  endfacet
  facet normal 0.08060294322085733 0.9967462894559154 -4.5992374464760676e-20
    outer loop
      vertex -0.8694738077799481 1.1914448643540427 15
      vertex -0.9752677445853325 1.2000000029802322 5
      vertex -0.9752677445853325 1.2000000029802322 15
    endloop
  endfacet
  facet normal 0.1950903220161264 0.9807852804032308 0
    outer loop
      vertex -0.8694738077799481 1.1914448643540427 5
      vertex -0.8694738077799481 1.1914448643540427 15
      vertex -0.741180954897479 1.1659258292693009 15
    endloop
  endfacet
  facet normal 0.4422886902190013 0.8968727415326883 0
    outer loop
      vertex -0.6173165676349099 1.1238795354915192 5
      vertex -0.6173165676349099 1.1238795354915192 15
      vertex -0.49999999999999967 1.066025406764671 15
    endloop
  endfacet
  facet normal 0.3214394653031624 0.9469301294951054 0
    outer loop
      vertex -0.741180954897479 1.1659258292693009 5
      vertex -0.741180954897479 1.1659258292693009 15
      vertex -0.6173165676349099 1.1238795354915192 15
    endloop
  endfacet
  facet normal 0.9967462894559154 0.08060294322085569 0
    outer loop
      vertex -0.008555138626189396 0.33052619520028403 5
      vertex -0.008555138626189396 0.33052619520028403 15
      vertex 0.0009963674567396953 0.21241105118142636 15
    endloop
  endfacet
  facet normal 0.9807852804032307 0.1950903220161279 0
    outer loop
      vertex -0.034074173710931466 0.4588190480827532 5
      vertex -0.034074173710931466 0.4588190480827532 15
      vertex -0.008555138626189396 0.33052619520028403 15
    endloop
  endfacet
  facet normal 0.9469301294951057 0.3214394653031617 0
    outer loop
      vertex -0.07612046748871304 0.5826834353453223 5
      vertex -0.07612046748871304 0.5826834353453223 15
      vertex -0.034074173710931466 0.4588190480827532 15
    endloop
  endfacet
  facet normal 0.8968727415326885 0.442288690219001 0
    outer loop
      vertex -0.13397459621556107 0.7000000029802325 5
      vertex -0.13397459621556107 0.7000000029802325 15
      vertex -0.07612046748871304 0.5826834353453223 15
    endloop
  endfacet
  facet normal 0.7518398074789774 0.659345815100069 0
    outer loop
      vertex -0.2928932188134522 0.9071067841667799 5
      vertex -0.2928932188134522 0.9071067841667799 15
      vertex -0.2066466597087646 0.8087614319889531 15
    endloop
  endfacet
  facet normal 0.831469612302545 0.5555702330196024 6.3331833788478285e-19
    outer loop
      vertex -0.13397459621556107 0.7000000029802325 15
      vertex -0.2066466597087646 0.8087614319889531 5
      vertex -0.2066466597087646 0.8087614319889531 15
    endloop
  endfacet
  facet normal 0.6593458151000691 0.7518398074789773 0
    outer loop
      vertex -0.3912385709912791 0.9933533432714676 5
      vertex -0.3912385709912791 0.9933533432714676 15
      vertex -0.2928932188134522 0.9071067841667799 15
    endloop
  endfacet
  facet normal 0.5555702330196023 0.8314696123025451 0
    outer loop
      vertex -0.49999999999999967 1.066025406764671 5
      vertex -0.49999999999999967 1.066025406764671 15
      vertex -0.3912385709912791 0.9933533432714676 15
    endloop
  endfacet
  facet normal 0 -1 0
    outer loop
      vertex -8 -4 0
      vertex 12 -4 0
      vertex -8 -4 20
    endloop
  endfacet
  facet normal 0 0 -1
    outer loop
      vertex -8 -4 0
      vertex 0.8010876327753067 0 0
      vertex 12 -4 0
    endloop
  endfacet
  facet normal -1 0 0
    outer loop
      vertex -8 -4 0
      vertex -8 -4 20
      vertex -8 1.2000000029802322 20
    endloop
  endfacet
  facet normal 0 0 1
    outer loop
      vertex -8 -4 20
      vertex 12 -4 20
      vertex 0.8010876327753067 0 20
    endloop
  endfacet
  facet normal 0 0 -1
    outer loop
      vertex -8 -4 0
      vertex -8 1.2000000029802322 0
      vertex 0 0.8010876327753067 0
    endloop
  endfacet
  facet normal -1 0 0
    outer loop
      vertex -8 -4 0
      vertex -8 1.2000000029802322 20
      vertex -8 1.2000000029802322 0
    endloop
  endfacet
  facet normal 0 1 0
    outer loop
      vertex -8 1.2000000029802322 0
      vertex -0.9752677445853325 1.2000000029802322 15
      vertex -0.9752677445853325 1.2000000029802322 5
    endloop
  endfacet
  facet normal 0 0 -1
    outer loop
      vertex -8 -4 0
      vertex 0.15224093198776245 0.4335455000400543 0
      vertex 0.4335455000400543 0.15224093198776245 0
    endloop
  endfacet
  facet normal 0 0 -1
    outer loop
      vertex -8 -4 0
      vertex 0.4335455000400543 0.15224093198776245 0
      vertex 0.8010876327753067 0 0
    endloop
  endfacet
  facet normal 0 0 -1
    outer loop
      vertex -8 -4 0
      vertex 0 0.8010876327753067 0
      vertex 0.15224093198776245 0.4335455000400543 0
    endloop
  endfacet
  facet normal 0 0 -1
    outer loop
      vertex -8 1.2000000029802322 0
      vertex 0 1.2000000029802322 0
      vertex 0 0.8010876327753067 0
    endloop
  endfacet
  facet normal 0 1 0
    outer loop
      vertex -8 1.2000000029802322 0
      vertex -0.9752677445853325 1.2000000029802322 5
      vertex 0 1.2000000029802322 0
    endloop
  endfacet
  facet normal 1 0 0
    outer loop
      vertex 0 0.8010876327753067 0
      vertex 0 1.2000000029802322 0
      vertex 0 0.8010876327753067 5
    endloop
  endfacet
  facet normal 0.9238795361858718 0.3826834234938568 0
    outer loop
      vertex 0 0.8010876327753067 0
      vertex 0 0.8010876327753067 5
      vertex 0.0008246526161174844 0.7990967451911589 5
    endloop
  endfacet
  facet normal 0 1 0
    outer loop
      vertex 0 1.2000000029802322 0
      vertex -0.9752677445853325 1.2000000029802322 5
      vertex 0 1.2000000029802322 5
    endloop
  endfacet
  facet normal 1 0 0
    outer loop
      vertex 0 1.2000000029802322 0
      vertex 0 1.2000000029802322 5
      vertex 0 0.8010876327753067 5
    endloop
  endfacet
  facet normal 0.38268342349385426 0.9238795361858728 0
    outer loop
      vertex 0.4335455000400543 0.15224093198776245 0
      vertex 0.8010876327753067 0 20
      vertex 0.8010876327753067 0 0
    endloop
  endfacet
  facet normal 0.7071067811865475 0.7071067811865475 0
    outer loop
      vertex 0.4335455000400543 0.15224093198776245 0
      vertex 0.15224093198776245 0.4335455000400543 0
      vertex 0.4335455000400543 0.15224093198776245 20
    endloop
  endfacet
  facet normal 0.9238795361858728 0.38268342349385426 0
    outer loop
      vertex 0.15224093198776245 0.4335455000400543 0
      vertex 0 0.8010876327753067 0
      vertex 0.15224093198776245 0.4335455000400543 20
    endloop
  endfacet
  facet normal 0.9238795361858727 0.3826834234938542 -1.20234026632456e-18
    outer loop
      vertex 0 0.8010876327753067 0
      vertex 0.0008246526161174844 0.7990967451911589 5
      vertex 0.15224093198776245 0.4335455000400543 20
    endloop
  endfacet
  facet normal 0 0 1
    outer loop
      vertex -8 -4 20
      vertex 0 0.8010876327753067 20
      vertex -8 1.2000000029802322 20
    endloop
  endfacet
  facet normal 0 1 0
    outer loop
      vertex -8 1.2000000029802322 0
      vertex -8 1.2000000029802322 20
      vertex 0 1.2000000029802322 20
    endloop
  endfacet
  facet normal 0 0 1
    outer loop
      vertex -8 -4 20
      vertex 0.4335455000400543 0.15224093198776245 20
      vertex 0.15224093198776245 0.4335455000400543 20
    endloop
  endfacet
  facet normal 0 0 1
    outer loop
      vertex -8 -4 20
      vertex 0.8010876327753067 0 20
      vertex 0.4335455000400543 0.15224093198776245 20
    endloop
  endfacet
  facet normal 0 0 1
    outer loop
      vertex -8 -4 20
      vertex 0.15224093198776245 0.4335455000400543 20
      vertex 0 0.8010876327753067 20
    endloop
  endfacet
  facet normal 0 1 0
    outer loop
      vertex -8 1.2000000029802322 0
      vertex 0 1.2000000029802322 20
      vertex -0.9752677445853325 1.2000000029802322 15
    endloop
  endfacet
  facet normal 0.38268342349385426 0.9238795361858728 0
    outer loop
      vertex 0.4335455000400543 0.15224093198776245 0
      vertex 0.4335455000400543 0.15224093198776245 20
      vertex 0.8010876327753067 0 20
    endloop
  endfacet
  facet normal 0.7071067811865475 0.7071067811865475 0
    outer loop
      vertex 0.15224093198776245 0.4335455000400543 0
      vertex 0.15224093198776245 0.4335455000400543 20
      vertex 0.4335455000400543 0.15224093198776245 20
    endloop
  endfacet
  facet normal 0.9238795361858728 0.3826834234938543 8.074260488780184e-19
    outer loop
      vertex 0.15224093198776245 0.4335455000400543 20
      vertex 0.0008246526161174844 0.7990967451911589 5
      vertex 0.0008246526161174844 0.7990967451911589 15
    endloop
  endfacet
  facet normal 0 0 1
    outer loop
      vertex -8 1.2000000029802322 20
      vertex 0 0.8010876327753067 20
      vertex 0 1.2000000029802322 20
    endloop
  endfacet
  facet normal 0.9238795361858718 0.3826834234938568 0
    outer loop
      vertex 0 0.8010876327753067 20
      vertex 0.0008246526161174844 0.7990967451911589 15
      vertex 0 0.8010876327753067 15
    endloop
  endfacet
  facet normal 1 0 0
    outer loop
      vertex 0 0.8010876327753067 20
      vertex 0 0.8010876327753067 15
      vertex 0 1.2000000029802322 15
    endloop
  endfacet
  facet normal 0 1 0
    outer loop
      vertex 0 1.2000000029802322 20
      vertex 0 1.2000000029802322 15
      vertex -0.9752677445853325 1.2000000029802322 15
    endloop
  endfacet
  facet normal 0.9238795361858728 0.38268342349385426 -1.569202948295915e-18
    outer loop
      vertex 0.15224093198776245 0.4335455000400543 20
      vertex 0.0008246526161174844 0.7990967451911589 15
      vertex 0 0.8010876327753067 20
    endloop
  endfacet
  facet normal 1 0 0
    outer loop
      vertex 0 0.8010876327753067 20
      vertex 0 1.2000000029802322 15
      vertex 0 1.2000000029802322 20
    endloop
  endfacet
  facet normal 1 0 0
    outer loop
      vertex 12 -4 0
      vertex 12 0 0
      vertex 12 -4 20
    endloop
  endfacet
  facet normal 0 -1 0
    outer loop
      vertex -8 -4 20
      vertex 12 -4 0
      vertex 12 -4 20
    endloop
  endfacet
  facet normal 0 0 -1
    outer loop
      vertex 0.8010876327753067 0 0
      vertex 12 0 0
      vertex 12 -4 0
    endloop
  endfacet
  facet normal 0 1 0
    outer loop
      vertex 0.8010876327753067 0 0
      vertex 12 0 20
      vertex 12 0 0
    endloop
  endfacet
  facet normal 0 1 0
    outer loop
      vertex 0.8010876327753067 0 0
      vertex 0.8010876327753067 0 20
      vertex 12 0 20
    endloop
  endfacet
  facet normal 1 0 0
    outer loop
      vertex 12 -4 20
      vertex 12 0 0
      vertex 12 0 20
    endloop
  endfacet
  facet normal 0 0 1
    outer loop
      vertex 0.8010876327753067 0 20
      vertex 12 -4 20
      vertex 12 0 20
    endloop
  endfacet
endsolid OpenSCAD_Model
