solid OpenSCAD_Model
  facet normal 0 0 1
    outer loop
      vertex 0.00029891023702189755 0.9037233174405904 5
      vertex 0 0.9344565346837044 5
      vertex -0.002566541587856852 0.9391578606462477 5
    endloop
  endfacet
  facet normal 0 0 1
    outer loop
      vertex 0.00029891023702189755 0.9037233174405904 5
      vertex 0.0002905610138645959 0.932249505187293 5
      vertex 0 0.9344565346837044 5
    endloop
  endfacet
  facet normal 0 0 1
    outer loop
      vertex -0.002566541587856852 0.9391578606462477 5
      vertex 0 0.9344565346837044 5
      vertex -0.010222252113279429 0.9776457165109885 5
    endloop
  endfacet
  facet normal 0 0 1
    outer loop
      vertex -0.010222252113279429 0.9776457165109885 5
      vertex 0 0.9344565346837044 5
      vertex 0 1.2000000029802322 5
    endloop
  endfacet
  facet normal 0 0 1
    outer loop
      vertex -0.04019237886466831 1.0500000029802323 5
      vertex 0 1.2000000029802322 5
      vertex -0.061993997912629384 1.0826284316828485 5
    endloop
  endfacet
  facet normal 0 0 1
    outer loop
      vertex -0.010222252113279429 0.9776457165109885 5
      vertex 0 1.2000000029802322 5
      vertex -0.0228361402466139 1.0148050326897593 5
    endloop
  endfacet
  facet normal 0 0 1
    outer loop
      vertex -0.04019237886466831 1.0500000029802323 5
      vertex -0.0228361402466139 1.0148050326897593 5
      vertex 0 1.2000000029802322 5
    endloop
  endfacet
  facet normal 0 0 1
    outer loop
      vertex -0.08786796564403568 1.1121320373361965 5
      vertex -0.061993997912629384 1.0826284316828485 5
      vertex 0 1.2000000029802322 5
    endloop
  endfacet
  facet normal 0 0 1
    outer loop
      vertex -0.08786796564403568 1.1121320373361965 5
      vertex 0 1.2000000029802322 5
      vertex -0.11737157129738374 1.1380060050676029 5
    endloop
  endfacet
  facet normal 0 0 1
    outer loop
      vertex -0.185194970290473 1.1771638627336183 5
      vertex -0.1499999999999999 1.159807624115564 5
      vertex 0 1.2000000029802322 5
    endloop
  endfacet
  facet normal 0 0 1
    outer loop
      vertex -0.2608421423339844 1.1974334613923754 5
      vertex 0 1.2000000029802322 5
      vertex -0.2925803233756006 1.2000000029802322 5
    endloop
  endfacet
  facet normal 0 0 1
    outer loop
      vertex -0.2608421423339844 1.1974334613923754 5
      vertex -0.2223542864692437 1.189777750866953 5
      vertex 0 1.2000000029802322 5
    endloop
  endfacet
  facet normal 0 0 1
    outer loop
      vertex -0.2223542864692437 1.189777750866953 5
      vertex -0.185194970290473 1.1771638627336183 5
      vertex 0 1.2000000029802322 5
    endloop
  endfacet
  facet normal 0 0 1
    outer loop
      vertex -0.1499999999999999 1.159807624115564 5
      vertex -0.11737157129738374 1.1380060050676029 5
      vertex 0 1.2000000029802322 5
    endloop
  endfacet
  facet normal -0.9999999571673799 -0.0002926862458390597 3.617664298180986e-23
    outer loop
      vertex 0.00029891023702189755 0.9037233174405904 5
      vertex 0.0002905610138645959 0.932249505187293 15
      vertex 0.0002905610138645959 0.932249505187293 5
    endloop
  endfacet
  facet normal -0.9999999571673799 -0.0002926862458390597 0
    outer loop
      vertex 0.00029891023702189755 0.9037233174405904 5
      vertex 0.00029891023702189755 0.9037233174405904 15
      vertex 0.0002905610138645959 0.932249505187293 15
    endloop
  endfacet
  facet normal 0 0 -1
    outer loop
      vertex 0.00029891023702189755 0.9037233174405904 15
      vertex -0.002566541587856852 0.9391578606462477 15
      vertex 0 0.9344565346837044 15
    endloop
  endfacet
  facet normal 0 0 -1
    outer loop
      vertex 0.00029891023702189755 0.9037233174405904 15
      vertex 0 0.9344565346837044 15
      vertex 0.0002905610138645959 0.932249505187293 15
    endloop
  endfacet
  facet normal 0 0 -1
    outer loop
      vertex -0.002566541587856852 0.9391578606462477 15
      vertex 0 1.2000000029802322 15
      vertex 0 0.9344565346837044 15
    endloop
  endfacet
  facet normal 0 0 -1
    outer loop
      vertex -0.04019237886466831 1.0500000029802323 15
      vertex -0.061993997912629384 1.0826284316828485 15
      vertex 0 1.2000000029802322 15
    endloop
  endfacet
  facet normal 0 0 -1
    outer loop
      vertex -0.002566541587856852 0.9391578606462477 15
      vertex -0.010222252113279429 0.9776457165109885 15
      vertex 0 1.2000000029802322 15
    endloop
  endfacet
  facet normal 0 0 -1
    outer loop
      vertex -0.010222252113279429 0.9776457165109885 15
      vertex -0.0228361402466139 1.0148050326897593 15
      vertex 0 1.2000000029802322 15
    endloop
  endfacet
  facet normal 0 0 -1
    outer loop
      vertex -0.04019237886466831 1.0500000029802323 15
      vertex 0 1.2000000029802322 15
      vertex -0.0228361402466139 1.0148050326897593 15
    endloop
  endfacet
  facet normal 0 0 -1
    outer loop
      vertex -0.08786796564403568 1.1121320373361965 15
      vertex 0 1.2000000029802322 15
      vertex -0.061993997912629384 1.0826284316828485 15
    endloop
  endfacet
  facet normal 0 0 -1
    outer loop
      vertex -0.08786796564403568 1.1121320373361965 15
      vertex -0.11737157129738374 1.1380060050676029 15
      vertex 0 1.2000000029802322 15
    endloop
  endfacet
  facet normal 0 0 -1
    outer loop
      vertex -0.185194970290473 1.1771638627336183 15
      vertex 0 1.2000000029802322 15
      vertex -0.1499999999999999 1.159807624115564 15
    endloop
  endfacet
  facet normal 0 0 -1
    outer loop
      vertex -0.2608421423339844 1.1974334613923754 15
      vertex -0.2925803233756006 1.2000000029802322 15
      vertex 0 1.2000000029802322 15
    endloop
  endfacet
  facet normal 0 0 -1
    outer loop
      vertex -0.2608421423339844 1.1974334613923754 15
      vertex 0 1.2000000029802322 15
      vertex -0.2223542864692437 1.189777750866953 15
    endloop
  endfacet
  facet normal 0 0 -1
    outer loop
      vertex -0.2223542864692437 1.189777750866953 15
      vertex 0 1.2000000029802322 15
      vertex -0.185194970290473 1.1771638627336183 15
    endloop
  endfacet
  facet normal 0 0 -1
    outer loop
      vertex -0.1499999999999999 1.159807624115564 15
      vertex 0 1.2000000029802322 15
      vertex -0.11737157129738374 1.1380060050676029 15
    endloop
  endfacet
  facet normal 0.9967462894559154 0.08060294322085629 0
    outer loop
      vertex 0.00029891023702189755 0.9037233174405904 5
      vertex -0.002566541587856852 0.9391578606462477 5
      vertex 0.00029891023702189755 0.9037233174405904 15
    endloop
  endfacet
  facet normal 0.9807852804032308 0.19509032201612655 0
    outer loop
      vertex -0.002566541587856852 0.9391578606462477 5
      vertex -0.010222252113279429 0.9776457165109885 5
      vertex -0.002566541587856852 0.9391578606462477 15
    endloop
  endfacet
  facet normal 0.9469301294951057 0.3214394653031613 0
    outer loop
      vertex -0.010222252113279429 0.9776457165109885 5
      vertex -0.0228361402466139 1.0148050326897593 5
      vertex -0.010222252113279429 0.9776457165109885 15
    endloop
  endfacet
  facet normal 0.8968727415326883 0.4422886902190012 -1.99532979128735e-20
    outer loop
      vertex -0.04019237886466831 1.0500000029802323 5
      vertex -0.0228361402466139 1.0148050326897593 15
      vertex -0.0228361402466139 1.0148050326897593 5
    endloop
  endfacet
  facet normal 0.08060294322085514 0.9967462894559154 0
    outer loop
      vertex -0.2608421423339844 1.1974334613923754 5
      vertex -0.2925803233756006 1.2000000029802322 5
      vertex -0.2608421423339844 1.1974334613923754 15
    endloop
  endfacet
  facet normal 0.19509032201612442 0.9807852804032313 -1.2286454661801068e-20
    outer loop
      vertex -0.2608421423339844 1.1974334613923754 5
      vertex -0.2223542864692437 1.189777750866953 15
      vertex -0.2223542864692437 1.189777750866953 5
    endloop
  endfacet
  facet normal 0.3214394653031656 0.9469301294951044 6.242247027440657e-20
    outer loop
      vertex -0.2223542864692437 1.189777750866953 5
      vertex -0.185194970290473 1.1771638627336183 15
      vertex -0.185194970290473 1.1771638627336183 5
    endloop
  endfacet
  facet normal 0.8314696123025447 0.5555702330196028 0
    outer loop
      vertex -0.04019237886466831 1.0500000029802323 5
      vertex -0.061993997912629384 1.0826284316828485 5
      vertex -0.04019237886466831 1.0500000029802323 15
    endloop
  endfacet
  facet normal 0.7518398074789764 0.6593458151000701 3.972917023915495e-20
    outer loop
      vertex -0.08786796564403568 1.1121320373361965 5
      vertex -0.061993997912629384 1.0826284316828485 15
      vertex -0.061993997912629384 1.0826284316828485 5
    endloop
  endfacet
  facet normal 0.5555702330196028 0.8314696123025447 5.8433277426565e-20
    outer loop
      vertex -0.1499999999999999 1.159807624115564 5
      vertex -0.11737157129738374 1.1380060050676029 15
      vertex -0.11737157129738374 1.1380060050676029 5
    endloop
  endfacet
  facet normal 0.6593458151000702 0.7518398074789763 0
    outer loop
      vertex -0.08786796564403568 1.1121320373361965 5
      vertex -0.11737157129738374 1.1380060050676029 5
      vertex -0.08786796564403568 1.1121320373361965 15
    endloop
  endfacet
  facet normal 0.4422886902189995 0.8968727415326891 1.6911850525723578e-20
    outer loop
      vertex -0.185194970290473 1.1771638627336183 5
      vertex -0.1499999999999999 1.159807624115564 15
      vertex -0.1499999999999999 1.159807624115564 5
    endloop
  endfacet
  facet normal 0.9967462894559154 0.08060294322085629 0
    outer loop
      vertex -0.002566541587856852 0.9391578606462477 5
      vertex -0.002566541587856852 0.9391578606462477 15
      vertex 0.00029891023702189755 0.9037233174405904 15
    endloop
  endfacet
  facet normal 0.9807852804032308 0.19509032201612655 0
    outer loop
      vertex -0.010222252113279429 0.9776457165109885 5
      vertex -0.010222252113279429 0.9776457165109885 15
      vertex -0.002566541587856852 0.9391578606462477 15
    endloop
  endfacet
  facet normal 0.9469301294951057 0.3214394653031613 0
    outer loop
      vertex -0.0228361402466139 1.0148050326897593 5
      vertex -0.0228361402466139 1.0148050326897593 15
      vertex -0.010222252113279429 0.9776457165109885 15
    endloop
  endfacet
  facet normal 0.08060294322085514 0.9967462894559154 8.511298950434336e-21
    outer loop
      vertex -0.2608421423339844 1.1974334613923754 15
      vertex -0.2925803233756006 1.2000000029802322 5
      vertex -0.2925803233756006 1.2000000029802322 15
    endloop
  endfacet
  facet normal 0.19509032201612442 0.9807852804032313 0
    outer loop
      vertex -0.2608421423339844 1.1974334613923754 5
      vertex -0.2608421423339844 1.1974334613923754 15
      vertex -0.2223542864692437 1.189777750866953 15
    endloop
  endfacet
  facet normal 0.3214394653031656 0.9469301294951044 0
    outer loop
      vertex -0.2223542864692437 1.189777750866953 5
      vertex -0.2223542864692437 1.189777750866953 15
      vertex -0.185194970290473 1.1771638627336183 15
    endloop
  endfacet
  facet normal 0.8968727415326883 0.4422886902190012 0
    outer loop
      vertex -0.04019237886466831 1.0500000029802323 5
      vertex -0.04019237886466831 1.0500000029802323 15
      vertex -0.0228361402466139 1.0148050326897593 15
    endloop
  endfacet
  facet normal 0.8314696123025447 0.5555702330196028 5.8433277426565e-20
    outer loop
      vertex -0.04019237886466831 1.0500000029802323 15
      vertex -0.061993997912629384 1.0826284316828485 5
      vertex -0.061993997912629384 1.0826284316828485 15
    endloop
  endfacet
  facet normal 0.7518398074789764 0.6593458151000701 0
    outer loop
      vertex -0.08786796564403568 1.1121320373361965 5
      vertex -0.08786796564403568 1.1121320373361965 15
      vertex -0.061993997912629384 1.0826284316828485 15
    endloop
  endfacet
  facet normal 0.5555702330196028 0.8314696123025447 0
    outer loop
      vertex -0.1499999999999999 1.159807624115564 5
      vertex -0.1499999999999999 1.159807624115564 15
      vertex -0.11737157129738374 1.1380060050676029 15
    endloop
  endfacet
  facet normal 0.6593458151000702 0.7518398074789763 0
    outer loop
      vertex -0.11737157129738374 1.1380060050676029 5
      vertex -0.11737157129738374 1.1380060050676029 15
      vertex -0.08786796564403568 1.1121320373361965 15
    endloop
  endfacet
  facet normal 0.4422886902189995 0.8968727415326891 0
    outer loop
      vertex -0.185194970290473 1.1771638627336183 5
      vertex -0.185194970290473 1.1771638627336183 15
      vertex -0.1499999999999999 1.159807624115564 15
    endloop
  endfacet
  facet normal 0 -1 0
    outer loop
      vertex -8 -4 0
      vertex 12 -4 0
      vertex -8 -4 20
    endloop
  endfacet
  facet normal 0 0 -1
    outer loop
      vertex -8 -4 0
      vertex 0.9344565346837044 0 0
      vertex 12 -4 0
    endloop
  endfacet
  facet normal -1 0 0
    outer loop
      vertex -8 -4 0
      vertex -8 -4 20
      vertex -8 1.2000000029802322 20
    endloop
  endfacet
  facet normal 0 0 1
    outer loop
      vertex -8 -4 20
      vertex 12 -4 20
      vertex 0.9344565346837044 0 20
    endloop
  endfacet
  facet normal 0 0 -1
    outer loop
      vertex -8 -4 0
      vertex -8 1.2000000029802322 0
      vertex 0 0.9344565346837044 0
    endloop
  endfacet
  facet normal -1 0 0
    outer loop
      vertex -8 -4 0
      vertex -8 1.2000000029802322 20
      vertex -8 1.2000000029802322 0
    endloop
  endfacet
  facet normal 0 0 -1
    outer loop
      vertex -8 -4 0
      vertex 0.3392394483089447 0.24654699116945267 0
      vertex 0.44323769956827164 0.1667463257908821 0
    endloop
  endfacet
  facet normal 0 0 -1
    outer loop
      vertex -8 -4 0
      vertex 0.24654699116945267 0.3392394483089447 0
      vertex 0.3392394483089447 0.24654699116945267 0
    endloop
  endfacet
  facet normal 0 0 -1
    outer loop
      vertex -8 -4 0
      vertex 0.8044910803437233 0.017110280692577362 0
      vertex 0.9344565346837044 0 0
    endloop
  endfacet
  facet normal 0 0 -1
    outer loop
      vertex -8 -4 0
      vertex 0.5567623004317284 0.10120286792516708 0
      vertex 0.6778708323836327 0.051038071513175964 0
    endloop
  endfacet
  facet normal 0 0 -1
    outer loop
      vertex -8 -4 0
      vertex 0.44323769956827164 0.1667463257908821 0
      vertex 0.5567623004317284 0.10120286792516708 0
    endloop
  endfacet
  facet normal 0 0 -1
    outer loop
      vertex -8 -4 0
      vertex 0.6778708323836327 0.051038071513175964 0
      vertex 0.8044910803437233 0.017110280692577362 0
    endloop
  endfacet
  facet normal 0 0 -1
    outer loop
      vertex -8 -4 0
      vertex 0.10120286792516708 0.5567623004317284 0
      vertex 0.1667463257908821 0.44323769956827164 0
    endloop
  endfacet
  facet normal 0 0 -1
    outer loop
      vertex -8 -4 0
      vertex 0.1667463257908821 0.44323769956827164 0
      vertex 0.24654699116945267 0.3392394483089447 0
    endloop
  endfacet
  facet normal 0 0 -1
    outer loop
      vertex -8 -4 0
      vertex 0.051038071513175964 0.6778708323836327 0
      vertex 0.10120286792516708 0.5567623004317284 0
    endloop
  endfacet
  facet normal 0 0 -1
    outer loop
      vertex -8 -4 0
      vertex 0.017110280692577362 0.8044910803437233 0
      vertex 0.051038071513175964 0.6778708323836327 0
    endloop
  endfacet
  facet normal 0 0 -1
    outer loop
      vertex -8 -4 0
      vertex 0 0.9344565346837044 0
      vertex 0.017110280692577362 0.8044910803437233 0
    endloop
  endfacet
  facet normal 0 0 -1
    outer loop
      vertex -8 1.2000000029802322 0
      vertex 0 1.2000000029802322 0
      vertex 0 0.9344565346837044 0
    endloop
  endfacet
  facet normal 0 1 0
    outer loop
      vertex -8 1.2000000029802322 0
      vertex -0.2925803233756006 1.2000000029802322 5
      vertex 0 1.2000000029802322 0
    endloop
  endfacet
  facet normal 1 0 0
    outer loop
      vertex 0 0.9344565346837044 0
      vertex 0 1.2000000029802322 0
      vertex 0 0.9344565346837044 5
    endloop
  endfacet
  facet normal 0.991444857396722 0.13052622242903403 0
    outer loop
      vertex 0 0.9344565346837044 0
      vertex 0 0.9344565346837044 5
      vertex 0.0002905610138645959 0.932249505187293 5
    endloop
  endfacet
  facet normal 1 0 0
    outer loop
      vertex 0 1.2000000029802322 0
      vertex 0 1.2000000029802322 5
      vertex 0 0.9344565346837044 5
    endloop
  endfacet
  facet normal 0 1 0
    outer loop
      vertex 0 1.2000000029802322 0
      vertex -0.2925803233756006 1.2000000029802322 5
      vertex 0 1.2000000029802322 5
    endloop
  endfacet
  facet normal 0 1 0
    outer loop
      vertex -8 1.2000000029802322 0
      vertex -0.2925803233756006 1.2000000029802322 15
      vertex -0.2925803233756006 1.2000000029802322 5
    endloop
  endfacet
  facet normal 0.6087614313358576 0.7933533385055602 0
    outer loop
      vertex 0.44323769956827164 0.1667463257908821 0
      vertex 0.3392394483089447 0.24654699116945267 0
      vertex 0.44323769956827164 0.1667463257908821 20
    endloop
  endfacet
  facet normal 0.4999999942646076 0.8660254070957689 0
    outer loop
      vertex 0.5567623004317284 0.10120286792516708 0
      vertex 0.44323769956827164 0.1667463257908821 0
      vertex 0.5567623004317284 0.10120286792516708 20
    endloop
  endfacet
  facet normal 0.38268343209432837 0.9238795326234398 0
    outer loop
      vertex 0.6778708323836327 0.051038071513175964 0
      vertex 0.5567623004317284 0.10120286792516708 0
      vertex 0.6778708323836327 0.051038071513175964 20
    endloop
  endfacet
  facet normal 0.7071067811865476 0.7071067811865476 0
    outer loop
      vertex 0.3392394483089447 0.24654699116945267 0
      vertex 0.24654699116945267 0.3392394483089447 0
      vertex 0.3392394483089447 0.24654699116945267 20
    endloop
  endfacet
  facet normal 0.7933533385055602 0.6087614313358576 0
    outer loop
      vertex 0.24654699116945267 0.3392394483089447 0
      vertex 0.1667463257908821 0.44323769956827164 0
      vertex 0.24654699116945267 0.3392394483089447 20
    endloop
  endfacet
  facet normal 0.8660254070957689 0.4999999942646076 0
    outer loop
      vertex 0.1667463257908821 0.44323769956827164 0
      vertex 0.10120286792516708 0.5567623004317284 0
      vertex 0.1667463257908821 0.44323769956827164 20
    endloop
  endfacet
  facet normal 0.1305262224290296 0.9914448573967226 0
    outer loop
      vertex 0.8044910803437233 0.017110280692577362 0
      vertex 0.9344565346837044 0 20
      vertex 0.9344565346837044 0 0
    endloop
  endfacet
  facet normal 0.25881902826436615 0.965925830800838 0
    outer loop
      vertex 0.6778708323836327 0.051038071513175964 0
      vertex 0.8044910803437233 0.017110280692577362 20
      vertex 0.8044910803437233 0.017110280692577362 0
    endloop
  endfacet
  facet normal 0.9238795326234398 0.38268343209432837 0
    outer loop
      vertex 0.10120286792516708 0.5567623004317284 0
      vertex 0.051038071513175964 0.6778708323836327 0
      vertex 0.10120286792516708 0.5567623004317284 20
    endloop
  endfacet
  facet normal 0.965925830800838 0.25881902826436615 0
    outer loop
      vertex 0.051038071513175964 0.6778708323836327 0
      vertex 0.017110280692577362 0.8044910803437233 0
      vertex 0.051038071513175964 0.6778708323836327 20
    endloop
  endfacet
  facet normal 0.9914448573967226 0.1305262224290296 0
    outer loop
      vertex 0.017110280692577362 0.8044910803437233 0
      vertex 0 0.9344565346837044 0
      vertex 0.017110280692577362 0.8044910803437233 20
    endloop
  endfacet
  facet normal 0.9914448573967226 0.13052622242902925 -2.1435605733125116e-18
    outer loop
      vertex 0 0.9344565346837044 0
      vertex 0.0002905610138645959 0.932249505187293 5
      vertex 0.017110280692577362 0.8044910803437233 20
    endloop
  endfacet
  facet normal 0 0 1
    outer loop
      vertex -8 -4 20
      vertex 0 0.9344565346837044 20
      vertex -8 1.2000000029802322 20
    endloop
  endfacet
  facet normal 0 1 0
    outer loop
      vertex -8 1.2000000029802322 0
      vertex -8 1.2000000029802322 20
      vertex 0 1.2000000029802322 20
    endloop
  endfacet
  facet normal 0 0 1
    outer loop
      vertex -8 -4 20
      vertex 0.44323769956827164 0.1667463257908821 20
      vertex 0.3392394483089447 0.24654699116945267 20
    endloop
  endfacet
  facet normal 0 0 1
    outer loop
      vertex -8 -4 20
      vertex 0.3392394483089447 0.24654699116945267 20
      vertex 0.24654699116945267 0.3392394483089447 20
    endloop
  endfacet
  facet normal 0 0 1
    outer loop
      vertex -8 -4 20
      vertex 0.9344565346837044 0 20
      vertex 0.8044910803437233 0.017110280692577362 20
    endloop
  endfacet
  facet normal 0 0 1
    outer loop
      vertex -8 -4 20
      vertex 0.6778708323836327 0.051038071513175964 20
      vertex 0.5567623004317284 0.10120286792516708 20
    endloop
  endfacet
  facet normal 0 0 1
    outer loop
      vertex -8 -4 20
      vertex 0.5567623004317284 0.10120286792516708 20
      vertex 0.44323769956827164 0.1667463257908821 20
    endloop
  endfacet
  facet normal 0 0 1
    outer loop
      vertex -8 -4 20
      vertex 0.8044910803437233 0.017110280692577362 20
      vertex 0.6778708323836327 0.051038071513175964 20
    endloop
  endfacet
  facet normal 0 0 1
    outer loop
      vertex -8 -4 20
      vertex 0.1667463257908821 0.44323769956827164 20
      vertex 0.10120286792516708 0.5567623004317284 20
    endloop
  endfacet
  facet normal 0 0 1
    outer loop
      vertex -8 -4 20
      vertex 0.24654699116945267 0.3392394483089447 20
      vertex 0.1667463257908821 0.44323769956827164 20
    endloop
  endfacet
  facet normal 0 0 1
    outer loop
      vertex -8 -4 20
      vertex 0.10120286792516708 0.5567623004317284 20
      vertex 0.051038071513175964 0.6778708323836327 20
    endloop
  endfacet
  facet normal 0 0 1
    outer loop
      vertex -8 -4 20
      vertex 0.051038071513175964 0.6778708323836327 20
      vertex 0.017110280692577362 0.8044910803437233 20
    endloop
  endfacet
  facet normal 0 0 1
    outer loop
      vertex -8 -4 20
      vertex 0.017110280692577362 0.8044910803437233 20
      vertex 0 0.9344565346837044 20
    endloop
  endfacet
  facet normal 0 1 0
    outer loop
      vertex -8 1.2000000029802322 0
      vertex 0 1.2000000029802322 20
      vertex -0.2925803233756006 1.2000000029802322 15
    endloop
  endfacet
  facet normal 0.25881902826436615 0.965925830800838 0
    outer loop
      vertex 0.6778708323836327 0.051038071513175964 0
      vertex 0.6778708323836327 0.051038071513175964 20
      vertex 0.8044910803437233 0.017110280692577362 20
    endloop
  endfacet
  facet normal 0.6087614313358576 0.7933533385055602 0
    outer loop
      vertex 0.3392394483089447 0.24654699116945267 0
      vertex 0.3392394483089447 0.24654699116945267 20
      vertex 0.44323769956827164 0.1667463257908821 20
    endloop
  endfacet
  facet normal 0.38268343209432837 0.9238795326234398 0
    outer loop
      vertex 0.5567623004317284 0.10120286792516708 0
      vertex 0.5567623004317284 0.10120286792516708 20
      vertex 0.6778708323836327 0.051038071513175964 20
    endloop
  endfacet
  facet normal 0.4999999942646076 0.8660254070957689 0
    outer loop
      vertex 0.44323769956827164 0.1667463257908821 0
      vertex 0.44323769956827164 0.1667463257908821 20
      vertex 0.5567623004317284 0.10120286792516708 20
    endloop
  endfacet
  facet normal 0.8660254070957689 0.4999999942646076 0
    outer loop
      vertex 0.10120286792516708 0.5567623004317284 0
      vertex 0.10120286792516708 0.5567623004317284 20
      vertex 0.1667463257908821 0.44323769956827164 20
    endloop
  endfacet
  facet normal 0.7071067811865476 0.7071067811865476 0
    outer loop
      vertex 0.24654699116945267 0.3392394483089447 0
      vertex 0.24654699116945267 0.3392394483089447 20
      vertex 0.3392394483089447 0.24654699116945267 20
    endloop
  endfacet
  facet normal 0.7933533385055602 0.6087614313358576 0
    outer loop
      vertex 0.1667463257908821 0.44323769956827164 0
      vertex 0.1667463257908821 0.44323769956827164 20
      vertex 0.24654699116945267 0.3392394483089447 20
    endloop
  endfacet
  facet normal 0.1305262224290296 0.9914448573967226 0
    outer loop
      vertex 0.8044910803437233 0.017110280692577362 0
      vertex 0.8044910803437233 0.017110280692577362 20
      vertex 0.9344565346837044 0 20
    endloop
  endfacet
  facet normal 0.9238795326234398 0.38268343209432837 0
    outer loop
      vertex 0.051038071513175964 0.6778708323836327 0
      vertex 0.051038071513175964 0.6778708323836327 20
      vertex 0.10120286792516708 0.5567623004317284 20
    endloop
  endfacet
  facet normal 0.965925830800838 0.25881902826436615 0
    outer loop
      vertex 0.017110280692577362 0.8044910803437233 0
      vertex 0.017110280692577362 0.8044910803437233 20
      vertex 0.051038071513175964 0.6778708323836327 20
    endloop
  endfacet
  facet normal 0.9914448573967225 0.1305262224290295 -1.54196191196285e-19
    outer loop
      vertex 0.017110280692577362 0.8044910803437233 20
      vertex 0.0002905610138645959 0.932249505187293 5
      vertex 0.0002905610138645959 0.932249505187293 15
    endloop
  endfacet
  facet normal 0 0 1
    outer loop
      vertex -8 1.2000000029802322 20
      vertex 0 0.9344565346837044 20
      vertex 0 1.2000000029802322 20
    endloop
  endfacet
  facet normal 0.991444857396722 0.13052622242903403 0
    outer loop
      vertex 0 0.9344565346837044 20
      vertex 0.0002905610138645959 0.932249505187293 15
      vertex 0 0.9344565346837044 15
    endloop
  endfacet
  facet normal 1 0 0
    outer loop
      vertex 0 0.9344565346837044 20
      vertex 0 0.9344565346837044 15
      vertex 0 1.2000000029802322 15
    endloop
  endfacet
  facet normal 0 1 0
    outer loop
      vertex 0 1.2000000029802322 20
      vertex 0 1.2000000029802322 15
      vertex -0.2925803233756006 1.2000000029802322 15
    endloop
  endfacet
  facet normal 0.9914448573967226 0.1305262224290296 1.599750699673655e-18
    outer loop
      vertex 0.017110280692577362 0.8044910803437233 20
      vertex 0.0002905610138645959 0.932249505187293 15
      vertex 0 0.9344565346837044 20
    endloop
  endfacet
  facet normal 1 0 0
    outer loop
      vertex 0 0.9344565346837044 20
      vertex 0 1.2000000029802322 15
      vertex 0 1.2000000029802322 20
    endloop
  endfacet
  facet normal 1 0 0
    outer loop
      vertex 12 -4 0
      vertex 12 0 0
      vertex 12 -4 20
    endloop
  endfacet
  facet normal 0 -1 0
    outer loop
      vertex -8 -4 20
      vertex 12 -4 0
      vertex 12 -4 20
    endloop
  endfacet
  facet normal 0 0 -1
    outer loop
      vertex 0.9344565346837044 0 0
      vertex 12 0 0
      vertex 12 -4 0
    endloop
  endfacet
  facet normal 0 1 0
    outer loop
      vertex 0.9344565346837044 0 0
      vertex 12 0 20
      vertex 12 0 0
    endloop
  endfacet
  facet normal 0 1 0
    outer loop
      vertex 0.9344565346837044 0 0
      vertex 0.9344565346837044 0 20
      vertex 12 0 20
    endloop
  endfacet
  facet normal 1 0 0
    outer loop
      vertex 12 -4 20
      vertex 12 0 0
      vertex 12 0 20
    endloop
  endfacet
  facet normal 0 0 1
    outer loop
      vertex 0.9344565346837044 0 20
      vertex 12 -4 20
      vertex 12 0 20
    endloop
  endfacet
endsolid OpenSCAD_Model
