solid OpenSCAD_Model
  facet normal 0 0 1
    outer loop
      vertex -0.0023098874290711224 0.9652420748796462 5
      vertex 0 0.9366777119421921 5
      vertex 0 1.2000000029802322 5
    endloop
  endfacet
  facet normal 0 0 1
    outer loop
      vertex -0.0023098874290711224 0.9652420748796462 5
      vertex 0 1.2000000029802322 5
      vertex -0.009200026901951486 0.9998811451579128 5
    endloop
  endfacet
  facet normal 0 0 1
    outer loop
      vertex -0.009200026901951486 0.9998811451579128 5
      vertex 0 1.2000000029802322 5
      vertex -0.020552526221952527 1.0333245297188065 5
    endloop
  endfacet
  facet normal 0 0 1
    outer loop
      vertex -0.036173140978201485 1.0650000029802322 5
      vertex -0.020552526221952527 1.0333245297188065 5
      vertex 0 1.2000000029802322 5
    endloop
  endfacet
  facet normal 0 0 1
    outer loop
      vertex -0.07908116907963211 1.1209188339006 5
      vertex -0.055794598121366445 1.0943655888125867 5
      vertex 0 1.2000000029802322 5
    endloop
  endfacet
  facet normal 0 0 1
    outer loop
      vertex -0.07908116907963211 1.1209188339006 5
      vertex 0 1.2000000029802322 5
      vertex -0.10563441416764538 1.1442054048588657 5
    endloop
  endfacet
  facet normal 0 0 1
    outer loop
      vertex -0.234757928100586 1.197690115551161 5
      vertex 0 1.2000000029802322 5
      vertex -0.26332229103804083 1.2000000029802322 5
    endloop
  endfacet
  facet normal 0 0 1
    outer loop
      vertex -0.234757928100586 1.197690115551161 5
      vertex -0.20011885782231936 1.1907999760782806 5
      vertex 0 1.2000000029802322 5
    endloop
  endfacet
  facet normal 0 0 1
    outer loop
      vertex -0.20011885782231936 1.1907999760782806 5
      vertex -0.1666754732614257 1.1794474767582797 5
      vertex 0 1.2000000029802322 5
    endloop
  endfacet
  facet normal 0 0 1
    outer loop
      vertex -0.13499999999999993 1.1638268620020307 5
      vertex -0.10563441416764538 1.1442054048588657 5
      vertex 0 1.2000000029802322 5
    endloop
  endfacet
  facet normal 0 0 1
    outer loop
      vertex -0.1666754732614257 1.1794474767582797 5
      vertex -0.13499999999999993 1.1638268620020307 5
      vertex 0 1.2000000029802322 5
    endloop
  endfacet
  facet normal 0 0 1
    outer loop
      vertex -0.036173140978201485 1.0650000029802322 5
      vertex 0 1.2000000029802322 5
      vertex -0.055794598121366445 1.0943655888125867 5
    endloop
  endfacet
  facet normal 0 0 -1
    outer loop
      vertex -0.0023098874290711224 0.9652420748796462 15.000000000000002
      vertex 0 1.2000000029802322 15.000000000000002
      vertex 0 0.9366777119421921 15.000000000000002
    endloop
  endfacet
  facet normal 0 0 -1
    outer loop
      vertex -0.0023098874290711224 0.9652420748796462 15.000000000000002
      vertex -0.009200026901951486 0.9998811451579128 15.000000000000002
      vertex 0 1.2000000029802322 15.000000000000002
    endloop
  endfacet
  facet normal 0 0 -1
    outer loop
      vertex -0.009200026901951486 0.9998811451579128 15.000000000000002
      vertex -0.020552526221952527 1.0333245297188065 15.000000000000002
      vertex 0 1.2000000029802322 15.000000000000002
    endloop
  endfacet
  facet normal 0 0 -1
    outer loop
      vertex -0.036173140978201485 1.0650000029802322 15.000000000000002
      vertex 0 1.2000000029802322 15.000000000000002
      vertex -0.020552526221952527 1.0333245297188065 15.000000000000002
    endloop
  endfacet
  facet normal 0 0 -1
    outer loop
      vertex -0.07908116907963211 1.1209188339006 15.000000000000002
      vertex 0 1.2000000029802322 15.000000000000002
      vertex -0.055794598121366445 1.0943655888125867 15.000000000000002
    endloop
  endfacet
  facet normal 0 0 -1
    outer loop
      vertex -0.07908116907963211 1.1209188339006 15.000000000000002
      vertex -0.10563441416764538 1.1442054048588657 15.000000000000002
      vertex 0 1.2000000029802322 15.000000000000002
    endloop
  endfacet
  facet normal 0 0 -1
    outer loop
      vertex -0.234757928100586 1.197690115551161 15.000000000000002
      vertex -0.26332229103804083 1.2000000029802322 15.000000000000002
      vertex 0 1.2000000029802322 15.000000000000002
    endloop
  endfacet
  facet normal 0 0 -1
    outer loop
      vertex -0.234757928100586 1.197690115551161 15.000000000000002
      vertex 0 1.2000000029802322 15.000000000000002
      vertex -0.20011885782231936 1.1907999760782806 15.000000000000002
    endloop
  endfacet
  facet normal 0 0 -1
    outer loop
      vertex -0.20011885782231936 1.1907999760782806 15.000000000000002
      vertex 0 1.2000000029802322 15.000000000000002
      vertex -0.1666754732614257 1.1794474767582797 15.000000000000002
    endloop
  endfacet
  facet normal 0 0 -1
    outer loop
      vertex -0.13499999999999993 1.1638268620020307 15.000000000000002
      vertex 0 1.2000000029802322 15.000000000000002
      vertex -0.10563441416764538 1.1442054048588657 15.000000000000002
    endloop
  endfacet
  facet normal 0 0 -1
    outer loop
      vertex -0.1666754732614257 1.1794474767582797 15.000000000000002
      vertex 0 1.2000000029802322 15.000000000000002
      vertex -0.13499999999999993 1.1638268620020307 15.000000000000002
    endloop
  endfacet
  facet normal 0 0 -1
    outer loop
      vertex -0.036173140978201485 1.0650000029802322 15.000000000000002
      vertex -0.055794598121366445 1.0943655888125867 15.000000000000002
      vertex 0 1.2000000029802322 15.000000000000002
    endloop
  endfacet
  facet normal 0.9967462894559154 0.08060294322085483 1.3339641636036749e-20
    outer loop
      vertex -0.0023098874290711224 0.9652420748796462 5
      vertex 0 0.9366777119421921 15.000000000000002
      vertex 0 0.9366777119421921 5
    endloop
  endfacet
  facet normal 0.9807852804032304 0.19509032201612825 0
    outer loop
      vertex -0.0023098874290711224 0.9652420748796462 5
      vertex -0.009200026901951486 0.9998811451579128 5
      vertex -0.0023098874290711224 0.9652420748796462 15.000000000000002
    endloop
  endfacet
  facet normal 0.9469301294951055 0.3214394653031618 0
    outer loop
      vertex -0.009200026901951486 0.9998811451579128 5
      vertex -0.020552526221952527 1.0333245297188065 5
      vertex -0.009200026901951486 0.9998811451579128 15.000000000000002
    endloop
  endfacet
  facet normal 0.08060294322085666 0.9967462894559153 0
    outer loop
      vertex -0.234757928100586 1.197690115551161 5
      vertex -0.26332229103804083 1.2000000029802322 5
      vertex -0.234757928100586 1.197690115551161 15.000000000000002
    endloop
  endfacet
  facet normal 0.19509032201612977 0.9807852804032301 -4.084514605321451e-21
    outer loop
      vertex -0.234757928100586 1.197690115551161 5
      vertex -0.20011885782231936 1.1907999760782806 15.000000000000002
      vertex -0.20011885782231936 1.1907999760782806 5
    endloop
  endfacet
  facet normal 0.8314696123025442 0.5555702330196036 0
    outer loop
      vertex -0.036173140978201485 1.0650000029802322 5
      vertex -0.055794598121366445 1.0943655888125867 5
      vertex -0.036173140978201485 1.0650000029802322 15.000000000000002
    endloop
  endfacet
  facet normal 0.7518398074789775 0.6593458151000688 1.290424183760144e-19
    outer loop
      vertex -0.07908116907963211 1.1209188339006 5
      vertex -0.055794598121366445 1.0943655888125867 15.000000000000002
      vertex -0.055794598121366445 1.0943655888125867 5
    endloop
  endfacet
  facet normal 0.8968727415326884 0.4422886902190009 7.523317432750838e-20
    outer loop
      vertex -0.036173140978201485 1.0650000029802322 5
      vertex -0.020552526221952527 1.0333245297188065 15.000000000000002
      vertex -0.020552526221952527 1.0333245297188065 5
    endloop
  endfacet
  facet normal 0.5555702330196035 0.8314696123025443 -7.168848884552678e-20
    outer loop
      vertex -0.13499999999999993 1.1638268620020307 5
      vertex -0.10563441416764538 1.1442054048588657 15.000000000000002
      vertex -0.10563441416764538 1.1442054048588657 5
    endloop
  endfacet
  facet normal 0.6593458151000693 0.751839807478977 0
    outer loop
      vertex -0.07908116907963211 1.1209188339006 5
      vertex -0.10563441416764538 1.1442054048588657 5
      vertex -0.07908116907963211 1.1209188339006 15.000000000000002
    endloop
  endfacet
  facet normal 0.442288690219001 0.8968727415326886 4.248520745445905e-20
    outer loop
      vertex -0.1666754732614257 1.1794474767582797 5
      vertex -0.13499999999999993 1.1638268620020307 15.000000000000002
      vertex -0.13499999999999993 1.1638268620020307 5
    endloop
  endfacet
  facet normal 0.3214394653031592 0.9469301294951064 -4.243557850375974e-20
    outer loop
      vertex -0.20011885782231936 1.1907999760782806 5
      vertex -0.1666754732614257 1.1794474767582797 15.000000000000002
      vertex -0.1666754732614257 1.1794474767582797 5
    endloop
  endfacet
  facet normal 0.9967462894559154 0.08060294322085483 0
    outer loop
      vertex -0.0023098874290711224 0.9652420748796462 5
      vertex -0.0023098874290711224 0.9652420748796462 15.000000000000002
      vertex 0 0.9366777119421921 15.000000000000002
    endloop
  endfacet
  facet normal 0.9807852804032304 0.19509032201612825 0
    outer loop
      vertex -0.009200026901951486 0.9998811451579128 5
      vertex -0.009200026901951486 0.9998811451579128 15.000000000000002
      vertex -0.0023098874290711224 0.9652420748796462 15.000000000000002
    endloop
  endfacet
  facet normal 0.9469301294951055 0.3214394653031618 0
    outer loop
      vertex -0.020552526221952527 1.0333245297188065 5
      vertex -0.020552526221952527 1.0333245297188065 15.000000000000002
      vertex -0.009200026901951486 0.9998811451579128 15.000000000000002
    endloop
  endfacet
  facet normal 0.08060294322085666 0.9967462894559153 1.3521854323133312e-20
    outer loop
      vertex -0.234757928100586 1.197690115551161 15.000000000000002
      vertex -0.26332229103804083 1.2000000029802322 5
      vertex -0.26332229103804083 1.2000000029802322 15.000000000000002
    endloop
  endfacet
  facet normal 0.3214394653031592 0.9469301294951064 0
    outer loop
      vertex -0.20011885782231936 1.1907999760782806 5
      vertex -0.20011885782231936 1.1907999760782806 15.000000000000002
      vertex -0.1666754732614257 1.1794474767582797 15.000000000000002
    endloop
  endfacet
  facet normal 0.19509032201612977 0.9807852804032301 0
    outer loop
      vertex -0.234757928100586 1.197690115551161 5
      vertex -0.234757928100586 1.197690115551161 15.000000000000002
      vertex -0.20011885782231936 1.1907999760782806 15.000000000000002
    endloop
  endfacet
  facet normal 0.8314696123025442 0.5555702330196036 1.013826266975008e-19
    outer loop
      vertex -0.036173140978201485 1.0650000029802322 15.000000000000002
      vertex -0.055794598121366445 1.0943655888125867 5
      vertex -0.055794598121366445 1.0943655888125867 15.000000000000002
    endloop
  endfacet
  facet normal 0.7518398074789775 0.6593458151000688 0
    outer loop
      vertex -0.07908116907963211 1.1209188339006 5
      vertex -0.07908116907963211 1.1209188339006 15.000000000000002
      vertex -0.055794598121366445 1.0943655888125867 15.000000000000002
    endloop
  endfacet
  facet normal 0.8968727415326884 0.4422886902190009 0
    outer loop
      vertex -0.036173140978201485 1.0650000029802322 5
      vertex -0.036173140978201485 1.0650000029802322 15.000000000000002
      vertex -0.020552526221952527 1.0333245297188065 15.000000000000002
    endloop
  endfacet
  facet normal 0.5555702330196035 0.8314696123025443 0
    outer loop
      vertex -0.13499999999999993 1.1638268620020307 5
      vertex -0.13499999999999993 1.1638268620020307 15.000000000000002
      vertex -0.10563441416764538 1.1442054048588657 15.000000000000002
    endloop
  endfacet
  facet normal 0.6593458151000693 0.751839807478977 0
    outer loop
      vertex -0.10563441416764538 1.1442054048588657 5
      vertex -0.10563441416764538 1.1442054048588657 15.000000000000002
      vertex -0.07908116907963211 1.1209188339006 15.000000000000002
    endloop
  endfacet
  facet normal 0.442288690219001 0.8968727415326886 0
    outer loop
      vertex -0.1666754732614257 1.1794474767582797 5
      vertex -0.1666754732614257 1.1794474767582797 15.000000000000002
      vertex -0.13499999999999993 1.1638268620020307 15.000000000000002
    endloop
  endfacet
  facet normal 0 -1 0
    outer loop
      vertex -8 -4 0
      vertex 12 -4 0
      vertex -8 -4 20
    endloop
  endfacet
  facet normal 0 0 -1
    outer loop
      vertex -8 -4 0
      vertex 0.9344565346837044 0 0
      vertex 12 -4 0
    endloop
  endfacet
  facet normal -1 0 0
    outer loop
      vertex -8 -4 0
      vertex -8 -4 20
      vertex -8 1.2000000029802322 20
    endloop
  endfacet
  facet normal 0 0 1
    outer loop
      vertex -8 -4 20
      vertex 12 -4 20
      vertex 0.9344565346837044 0 20
    endloop
  endfacet
  facet normal 0 0 -1
    outer loop
      vertex -8 -4 0
      vertex -8 1.2000000029802322 0
      vertex 0 0.9344565346837044 0
    endloop
  endfacet
  facet normal -1 0 0
    outer loop
      vertex -8 -4 0
      vertex -8 1.2000000029802322 20
      vertex -8 1.2000000029802322 0
    endloop
  endfacet
  facet normal 0 0 -1
    outer loop
      vertex -8 -4 0
      vertex 0.3392394483089447 0.24654699116945267 0
      vertex 0.44323769956827164 0.1667463257908821 0
    endloop
  endfacet
  facet normal 0 0 -1
    outer loop
      vertex -8 -4 0
      vertex 0.24654699116945267 0.3392394483089447 0
      vertex 0.3392394483089447 0.24654699116945267 0
    endloop
  endfacet
  facet normal 0 0 -1
    outer loop
      vertex -8 -4 0
      vertex 0.8044910803437233 0.017110280692577362 0
      vertex 0.9344565346837044 0 0
    endloop
  endfacet
  facet normal 0 0 -1
    outer loop
      vertex -8 -4 0
      vertex 0.5567623004317284 0.10120286792516708 0
      vertex 0.6778708323836327 0.051038071513175964 0
    endloop
  endfacet
  facet normal 0 0 -1
    outer loop
      vertex -8 -4 0
      vertex 0.44323769956827164 0.1667463257908821 0
      vertex 0.5567623004317284 0.10120286792516708 0
    endloop
  endfacet
  facet normal 0 0 -1
    outer loop
      vertex -8 -4 0
      vertex 0.6778708323836327 0.051038071513175964 0
      vertex 0.8044910803437233 0.017110280692577362 0
    endloop
  endfacet
  facet normal 0 0 -1
    outer loop
      vertex -8 -4 0
      vertex 0.10120286792516708 0.5567623004317284 0
      vertex 0.1667463257908821 0.44323769956827164 0
    endloop
  endfacet
  facet normal 0 0 -1
    outer loop
      vertex -8 -4 0
      vertex 0.1667463257908821 0.44323769956827164 0
      vertex 0.24654699116945267 0.3392394483089447 0
    endloop
  endfacet
  facet normal 0 0 -1
    outer loop
      vertex -8 -4 0
      vertex 0.051038071513175964 0.6778708323836327 0
      vertex 0.10120286792516708 0.5567623004317284 0
    endloop
  endfacet
  facet normal 0 0 -1
    outer loop
      vertex -8 -4 0
      vertex 0.017110280692577362 0.8044910803437233 0
      vertex 0.051038071513175964 0.6778708323836327 0
    endloop
  endfacet
  facet normal 0 0 -1
    outer loop
      vertex -8 -4 0
      vertex 0 0.9344565346837044 0
      vertex 0.017110280692577362 0.8044910803437233 0
    endloop
  endfacet
  facet normal 0 0 -1
    outer loop
      vertex -8 1.2000000029802322 0
      vertex 0 1.2000000029802322 0
      vertex 0 0.9344565346837044 0
    endloop
  endfacet
  facet normal 0 1 0
    outer loop
      vertex -8 1.2000000029802322 0
      vertex -0.26332229103804083 1.2000000029802322 5
      vertex 0 1.2000000029802322 0
    endloop
  endfacet
  facet normal 1 0 0
    outer loop
      vertex 0 0.9344565346837044 0
      vertex 0 1.2000000029802322 0
      vertex 0 0.9366777119421921 5
    endloop
  endfacet
  facet normal 1 0 0
    outer loop
      vertex 0 1.2000000029802322 0
      vertex 0 1.2000000029802322 5
      vertex 0 0.9366777119421921 5
    endloop
  endfacet
  facet normal 0 1 0
    outer loop
      vertex 0 1.2000000029802322 0
      vertex -0.26332229103804083 1.2000000029802322 5
      vertex 0 1.2000000029802322 5
    endloop
  endfacet
  facet normal 0 1 0
    outer loop
      vertex -8 1.2000000029802322 0
      vertex -0.26332229103804083 1.2000000029802322 15.000000000000002
      vertex -0.26332229103804083 1.2000000029802322 5
    endloop
  endfacet
  facet normal 0.6087614313358576 0.7933533385055602 0
    outer loop
      vertex 0.44323769956827164 0.1667463257908821 0
      vertex 0.3392394483089447 0.24654699116945267 0
      vertex 0.44323769956827164 0.1667463257908821 20
    endloop
  endfacet
  facet normal 0.4999999942646076 0.8660254070957689 0
    outer loop
      vertex 0.5567623004317284 0.10120286792516708 0
      vertex 0.44323769956827164 0.1667463257908821 0
      vertex 0.5567623004317284 0.10120286792516708 20
    endloop
  endfacet
  facet normal 0.38268343209432837 0.9238795326234398 0
    outer loop
      vertex 0.6778708323836327 0.051038071513175964 0
      vertex 0.5567623004317284 0.10120286792516708 0
      vertex 0.6778708323836327 0.051038071513175964 20
    endloop
  endfacet
  facet normal 0.7071067811865476 0.7071067811865476 0
    outer loop
      vertex 0.3392394483089447 0.24654699116945267 0
      vertex 0.24654699116945267 0.3392394483089447 0
      vertex 0.3392394483089447 0.24654699116945267 20
    endloop
  endfacet
  facet normal 0.7933533385055602 0.6087614313358576 0
    outer loop
      vertex 0.24654699116945267 0.3392394483089447 0
      vertex 0.1667463257908821 0.44323769956827164 0
      vertex 0.24654699116945267 0.3392394483089447 20
    endloop
  endfacet
  facet normal 0.8660254070957689 0.4999999942646076 0
    outer loop
      vertex 0.1667463257908821 0.44323769956827164 0
      vertex 0.10120286792516708 0.5567623004317284 0
      vertex 0.1667463257908821 0.44323769956827164 20
    endloop
  endfacet
  facet normal 0.1305262224290296 0.9914448573967226 0
    outer loop
      vertex 0.8044910803437233 0.017110280692577362 0
      vertex 0.9344565346837044 0 20
      vertex 0.9344565346837044 0 0
    endloop
  endfacet
  facet normal 0.25881902826436615 0.965925830800838 0
    outer loop
      vertex 0.6778708323836327 0.051038071513175964 0
      vertex 0.8044910803437233 0.017110280692577362 20
      vertex 0.8044910803437233 0.017110280692577362 0
    endloop
  endfacet
  facet normal 0.9238795326234398 0.38268343209432837 0
    outer loop
      vertex 0.10120286792516708 0.5567623004317284 0
      vertex 0.051038071513175964 0.6778708323836327 0
      vertex 0.10120286792516708 0.5567623004317284 20
    endloop
  endfacet
  facet normal 0.965925830800838 0.25881902826436615 0
    outer loop
      vertex 0.051038071513175964 0.6778708323836327 0
      vertex 0.017110280692577362 0.8044910803437233 0
      vertex 0.051038071513175964 0.6778708323836327 20
    endloop
  endfacet
  facet normal 0.9914448573967226 0.1305262224290296 0
    outer loop
      vertex 0.017110280692577362 0.8044910803437233 0
      vertex 0 0.9344565346837044 0
      vertex 0.017110280692577362 0.8044910803437233 20
    endloop
  endfacet
  facet normal 1 0 0
    outer loop
      vertex 0 0.9344565346837044 0
      vertex 0 0.9366777119421921 5
      vertex 0 0.9366777119421921 15.000000000000002
    endloop
  endfacet
  facet normal 0 0 1
    outer loop
      vertex -8 -4 20
      vertex 0 0.9344565346837044 20
      vertex -8 1.2000000029802322 20
    endloop
  endfacet
  facet normal 0 1 0
    outer loop
      vertex -8 1.2000000029802322 0
      vertex -8 1.2000000029802322 20
      vertex 0 1.2000000029802322 20
    endloop
  endfacet
  facet normal 0 0 1
    outer loop
      vertex -8 -4 20
      vertex 0.44323769956827164 0.1667463257908821 20
      vertex 0.3392394483089447 0.24654699116945267 20
    endloop
  endfacet
  facet normal 0 0 1
    outer loop
      vertex -8 -4 20
      vertex 0.3392394483089447 0.24654699116945267 20
      vertex 0.24654699116945267 0.3392394483089447 20
    endloop
  endfacet
  facet normal 0 0 1
    outer loop
      vertex -8 -4 20
      vertex 0.9344565346837044 0 20
      vertex 0.8044910803437233 0.017110280692577362 20
    endloop
  endfacet
  facet normal 0 0 1
    outer loop
      vertex -8 -4 20
      vertex 0.6778708323836327 0.051038071513175964 20
      vertex 0.5567623004317284 0.10120286792516708 20
    endloop
  endfacet
  facet normal 0 0 1
    outer loop
      vertex -8 -4 20
      vertex 0.5567623004317284 0.10120286792516708 20
      vertex 0.44323769956827164 0.1667463257908821 20
    endloop
  endfacet
  facet normal 0 0 1
    outer loop
      vertex -8 -4 20
      vertex 0.8044910803437233 0.017110280692577362 20
      vertex 0.6778708323836327 0.051038071513175964 20
    endloop
  endfacet
  facet normal 0 0 1
    outer loop
      vertex -8 -4 20
      vertex 0.1667463257908821 0.44323769956827164 20
      vertex 0.10120286792516708 0.5567623004317284 20
    endloop
  endfacet
  facet normal 0 0 1
    outer loop
      vertex -8 -4 20
      vertex 0.24654699116945267 0.3392394483089447 20
      vertex 0.1667463257908821 0.44323769956827164 20
    endloop
  endfacet
  facet normal 0 0 1
    outer loop
      vertex -8 -4 20
      vertex 0.10120286792516708 0.5567623004317284 20
      vertex 0.051038071513175964 0.6778708323836327 20
    endloop
  endfacet
  facet normal 0 0 1
    outer loop
      vertex -8 -4 20
      vertex 0.051038071513175964 0.6778708323836327 20
      vertex 0.017110280692577362 0.8044910803437233 20
    endloop
  endfacet
  facet normal 0 0 1
    outer loop
      vertex -8 -4 20
      vertex 0.017110280692577362 0.8044910803437233 20
      vertex 0 0.9344565346837044 20
    endloop
  endfacet
  facet normal 0 1 0
    outer loop
      vertex -8 1.2000000029802322 0
      vertex 0 1.2000000029802322 20
      vertex -0.26332229103804083 1.2000000029802322 15.000000000000002
    endloop
  endfacet
  facet normal 0.25881902826436615 0.965925830800838 0
    outer loop
      vertex 0.6778708323836327 0.051038071513175964 0
      vertex 0.6778708323836327 0.051038071513175964 20
      vertex 0.8044910803437233 0.017110280692577362 20
    endloop
  endfacet
  facet normal 0.6087614313358576 0.7933533385055602 0
    outer loop
      vertex 0.3392394483089447 0.24654699116945267 0
      vertex 0.3392394483089447 0.24654699116945267 20
      vertex 0.44323769956827164 0.1667463257908821 20
    endloop
  endfacet
  facet normal 0.38268343209432837 0.9238795326234398 0
    outer loop
      vertex 0.5567623004317284 0.10120286792516708 0
      vertex 0.5567623004317284 0.10120286792516708 20
      vertex 0.6778708323836327 0.051038071513175964 20
    endloop
  endfacet
  facet normal 0.4999999942646076 0.8660254070957689 0
    outer loop
      vertex 0.44323769956827164 0.1667463257908821 0
      vertex 0.44323769956827164 0.1667463257908821 20
      vertex 0.5567623004317284 0.10120286792516708 20
    endloop
  endfacet
  facet normal 0.8660254070957689 0.4999999942646076 0
    outer loop
      vertex 0.10120286792516708 0.5567623004317284 0
      vertex 0.10120286792516708 0.5567623004317284 20
      vertex 0.1667463257908821 0.44323769956827164 20
    endloop
  endfacet
  facet normal 0.7071067811865476 0.7071067811865476 0
    outer loop
      vertex 0.24654699116945267 0.3392394483089447 0
      vertex 0.24654699116945267 0.3392394483089447 20
      vertex 0.3392394483089447 0.24654699116945267 20
    endloop
  endfacet
  facet normal 0.7933533385055602 0.6087614313358576 0
    outer loop
      vertex 0.1667463257908821 0.44323769956827164 0
      vertex 0.1667463257908821 0.44323769956827164 20
      vertex 0.24654699116945267 0.3392394483089447 20
    endloop
  endfacet
  facet normal 0.1305262224290296 0.9914448573967226 0
    outer loop
      vertex 0.8044910803437233 0.017110280692577362 0
      vertex 0.8044910803437233 0.017110280692577362 20
      vertex 0.9344565346837044 0 20
    endloop
  endfacet
  facet normal 1 0 0
    outer loop
      vertex 0 0.9344565346837044 0
      vertex 0 0.9366777119421921 15.000000000000002
      vertex 0 0.9344565346837044 20
    endloop
  endfacet
  facet normal 0.9238795326234398 0.38268343209432837 0
    outer loop
      vertex 0.051038071513175964 0.6778708323836327 0
      vertex 0.051038071513175964 0.6778708323836327 20
      vertex 0.10120286792516708 0.5567623004317284 20
    endloop
  endfacet
  facet normal 0.965925830800838 0.25881902826436615 0
    outer loop
      vertex 0.017110280692577362 0.8044910803437233 0
      vertex 0.017110280692577362 0.8044910803437233 20
      vertex 0.051038071513175964 0.6778708323836327 20
    endloop
  endfacet
  facet normal 0.9914448573967226 0.1305262224290296 0
    outer loop
      vertex 0 0.9344565346837044 0
      vertex 0 0.9344565346837044 20
      vertex 0.017110280692577362 0.8044910803437233 20
    endloop
  endfacet
  facet normal 0 0 1
    outer loop
      vertex -8 1.2000000029802322 20
      vertex 0 0.9344565346837044 20
      vertex 0 1.2000000029802322 20
    endloop
  endfacet
  facet normal 1 0 0
    outer loop
      vertex 0 0.9344565346837044 20
      vertex 0 0.9366777119421921 15.000000000000002
      vertex 0 1.2000000029802322 15.000000000000002
    endloop
  endfacet
  facet normal 0 1 0
    outer loop
      vertex 0 1.2000000029802322 20
      vertex 0 1.2000000029802322 15.000000000000002
      vertex -0.26332229103804083 1.2000000029802322 15.000000000000002
    endloop
  endfacet
  facet normal 1 0 0
    outer loop
      vertex 0 0.9344565346837044 20
      vertex 0 1.2000000029802322 15.000000000000002
      vertex 0 1.2000000029802322 20
    endloop
  endfacet
  facet normal 1 0 0
    outer loop
      vertex 12 -4 0
      vertex 12 0 0
      vertex 12 -4 20
    endloop
  endfacet
  facet normal 0 -1 0
    outer loop
      vertex -8 -4 20
      vertex 12 -4 0
      vertex 12 -4 20
    endloop
  endfacet
  facet normal 0 0 -1
    outer loop
      vertex 0.9344565346837044 0 0
      vertex 12 0 0
      vertex 12 -4 0
    endloop
  endfacet
  facet normal 0 1 0
    outer loop
      vertex 0.9344565346837044 0 0
      vertex 12 0 20
      vertex 12 0 0
    endloop
  endfacet
  facet normal 0 1 0
    outer loop
      vertex 0.9344565346837044 0 0
      vertex 0.9344565346837044 0 20
      vertex 12 0 20
    endloop
  endfacet
  facet normal 1 0 0
    outer loop
      vertex 12 -4 20
      vertex 12 0 0
      vertex 12 0 20
    endloop
  endfacet
  facet normal 0 0 1
    outer loop
      vertex 0.9344565346837044 0 20
      vertex 12 -4 20
      vertex 12 0 20
    endloop
  endfacet
endsolid OpenSCAD_Model
