solid OpenSCAD_Model
  facet normal 0 0 1
    outer loop
      vertex -0.002138784656547349 0.9826315510352451 5
      vertex 0 0.9561830668338989 5
      vertex 0 1.2000000029802322 5
    endloop
  endfacet
  facet normal 0 0 1
    outer loop
      vertex -0.002138784656547349 0.9826315510352451 5
      vertex 0 1.2000000029802322 5
      vertex -0.008518543427732866 1.0147047642558624 5
    endloop
  endfacet
  facet normal 0 0 1
    outer loop
      vertex -0.008518543427732866 1.0147047642558624 5
      vertex 0 1.2000000029802322 5
      vertex -0.01903011687217826 1.0456708610715046 5
    endloop
  endfacet
  facet normal 0 0 1
    outer loop
      vertex -0.03349364905389027 1.0750000029802322 5
      vertex -0.01903011687217826 1.0456708610715046 5
      vertex 0 1.2000000029802322 5
    endloop
  endfacet
  facet normal 0 0 1
    outer loop
      vertex -0.07322330470336305 1.1267766982768692 5
      vertex -0.05166166492719115 1.1021903602324123 5
      vertex 0 1.2000000029802322 5
    endloop
  endfacet
  facet normal 0 0 1
    outer loop
      vertex -0.07322330470336305 1.1267766982768692 5
      vertex 0 1.2000000029802322 5
      vertex -0.09780964274781978 1.148338338053041 5
    endloop
  endfacet
  facet normal 0 0 1
    outer loop
      vertex -0.21736845194498702 1.1978612183236848 5
      vertex 0 1.2000000029802322 5
      vertex -0.24381693614633573 1.2000000029802322 5
    endloop
  endfacet
  facet normal 0 0 1
    outer loop
      vertex -0.21736845194498702 1.1978612183236848 5
      vertex -0.18529523872436976 1.1914814595524994 5
      vertex 0 1.2000000029802322 5
    endloop
  endfacet
  facet normal 0 0 1
    outer loop
      vertex -0.18529523872436976 1.1914814595524994 5
      vertex -0.15432914190872749 1.180969886108054 5
      vertex 0 1.2000000029802322 5
    endloop
  endfacet
  facet normal 0 0 1
    outer loop
      vertex -0.12499999999999992 1.1665063539263418 5
      vertex -0.09780964274781978 1.148338338053041 5
      vertex 0 1.2000000029802322 5
    endloop
  endfacet
  facet normal 0 0 1
    outer loop
      vertex -0.15432914190872749 1.180969886108054 5
      vertex -0.12499999999999992 1.1665063539263418 5
      vertex 0 1.2000000029802322 5
    endloop
  endfacet
  facet normal 0 0 1
    outer loop
      vertex -0.03349364905389027 1.0750000029802322 5
      vertex 0 1.2000000029802322 5
      vertex -0.05166166492719115 1.1021903602324123 5
    endloop
  endfacet
  facet normal 0 0 -1
    outer loop
      vertex -0.002138784656547349 0.9826315510352451 15
      vertex 0 1.2000000029802322 15
      vertex 0 0.9561830668338989 15
    endloop
  endfacet
  facet normal 0 0 -1
    outer loop
      vertex -0.002138784656547349 0.9826315510352451 15
      vertex -0.008518543427732866 1.0147047642558624 15
      vertex 0 1.2000000029802322 15
    endloop
  endfacet
  facet normal 0 0 -1
    outer loop
      vertex -0.008518543427732866 1.0147047642558624 15
      vertex -0.01903011687217826 1.0456708610715046 15
      vertex 0 1.2000000029802322 15
    endloop
  endfacet
  facet normal 0 0 -1
    outer loop
      vertex -0.03349364905389027 1.0750000029802322 15
      vertex 0 1.2000000029802322 15
      vertex -0.01903011687217826 1.0456708610715046 15
    endloop
  endfacet
  facet normal 0 0 -1
    outer loop
      vertex -0.07322330470336305 1.1267766982768692 15
      vertex 0 1.2000000029802322 15
      vertex -0.05166166492719115 1.1021903602324123 15
    endloop
  endfacet
  facet normal 0 0 -1
    outer loop
      vertex -0.07322330470336305 1.1267766982768692 15
      vertex -0.09780964274781978 1.148338338053041 15
      vertex 0 1.2000000029802322 15
    endloop
  endfacet
  facet normal 0 0 -1
    outer loop
      vertex -0.21736845194498702 1.1978612183236848 15
      vertex -0.24381693614633573 1.2000000029802322 15
      vertex 0 1.2000000029802322 15
    endloop
  endfacet
  facet normal 0 0 -1
    outer loop
      vertex -0.21736845194498702 1.1978612183236848 15
      vertex 0 1.2000000029802322 15
      vertex -0.18529523872436976 1.1914814595524994 15
    endloop
  endfacet
  facet normal 0 0 -1
    outer loop
      vertex -0.18529523872436976 1.1914814595524994 15
      vertex 0 1.2000000029802322 15
      vertex -0.15432914190872749 1.180969886108054 15
    endloop
  endfacet
  facet normal 0 0 -1
    outer loop
      vertex -0.12499999999999992 1.1665063539263418 15
      vertex 0 1.2000000029802322 15
      vertex -0.09780964274781978 1.148338338053041 15
    endloop
  endfacet
  facet normal 0 0 -1
    outer loop
      vertex -0.15432914190872749 1.180969886108054 15
      vertex 0 1.2000000029802322 15
      vertex -0.12499999999999992 1.1665063539263418 15
    endloop
  endfacet
  facet normal 0 0 -1
    outer loop
      vertex -0.03349364905389027 1.0750000029802322 15
      vertex -0.05166166492719115 1.1021903602324123 15
      vertex 0 1.2000000029802322 15
    endloop
  endfacet
  facet normal 0.9967462894559154 0.08060294322085579 8.171196216793575e-21
    outer loop
      vertex -0.002138784656547349 0.9826315510352451 5
      vertex 0 0.9561830668338989 15
      vertex 0 0.9561830668338989 5
    endloop
  endfacet
  facet normal 0.9807852804032307 0.1950903220161279 0
    outer loop
      vertex -0.002138784656547349 0.9826315510352451 5
      vertex -0.008518543427732866 1.0147047642558624 5
      vertex -0.002138784656547349 0.9826315510352451 15
    endloop
  endfacet
  facet normal 0.9469301294951055 0.3214394653031622 0
    outer loop
      vertex -0.008518543427732866 1.0147047642558624 5
      vertex -0.01903011687217826 1.0456708610715046 5
      vertex -0.008518543427732866 1.0147047642558624 15
    endloop
  endfacet
  facet normal 0.08060294322085358 0.9967462894559155 0
    outer loop
      vertex -0.21736845194498702 1.1978612183236848 5
      vertex -0.24381693614633573 1.2000000029802322 5
      vertex -0.21736845194498702 1.1978612183236848 15
    endloop
  endfacet
  facet normal 0.19509032201612314 0.9807852804032314 -3.95270968188668e-20
    outer loop
      vertex -0.21736845194498702 1.1978612183236848 5
      vertex -0.18529523872436976 1.1914814595524994 15
      vertex -0.18529523872436976 1.1914814595524994 5
    endloop
  endfacet
  facet normal 0.8314696123025446 0.5555702330196033 0
    outer loop
      vertex -0.03349364905389027 1.0750000029802322 5
      vertex -0.05166166492719115 1.1021903602324123 5
      vertex -0.03349364905389027 1.0750000029802322 15
    endloop
  endfacet
  facet normal 0.7518398074789795 0.6593458151000664 1.5833260344719207e-19
    outer loop
      vertex -0.07322330470336305 1.1267766982768692 5
      vertex -0.05166166492719115 1.1021903602324123 15
      vertex -0.05166166492719115 1.1021903602324123 5
    endloop
  endfacet
  facet normal 0.8968727415326888 0.4422886902190003 -3.003473192374492e-20
    outer loop
      vertex -0.03349364905389027 1.0750000029802322 5
      vertex -0.01903011687217826 1.0456708610715046 15
      vertex -0.01903011687217826 1.0456708610715046 5
    endloop
  endfacet
  facet normal 0.6593458151000662 0.7518398074789798 0
    outer loop
      vertex -0.07322330470336305 1.1267766982768692 5
      vertex -0.09780964274781978 1.148338338053041 5
      vertex -0.07322330470336305 1.1267766982768692 15
    endloop
  endfacet
  facet normal 0.5555702330196023 0.8314696123025451 2.9605309679139765e-20
    outer loop
      vertex -0.12499999999999992 1.1665063539263418 5
      vertex -0.09780964274781978 1.148338338053041 15
      vertex -0.09780964274781978 1.148338338053041 5
    endloop
  endfacet
  facet normal 0.44228869021900413 0.896872741532687 2.3464138387943704e-20
    outer loop
      vertex -0.15432914190872749 1.180969886108054 5
      vertex -0.12499999999999992 1.1665063539263418 15
      vertex -0.12499999999999992 1.1665063539263418 5
    endloop
  endfacet
  facet normal 0.3214394653031624 0.9469301294951054 -2.863277935206294e-20
    outer loop
      vertex -0.18529523872436976 1.1914814595524994 5
      vertex -0.15432914190872749 1.180969886108054 15
      vertex -0.15432914190872749 1.180969886108054 5
    endloop
  endfacet
  facet normal 0.9967462894559154 0.08060294322085579 0
    outer loop
      vertex -0.002138784656547349 0.9826315510352451 5
      vertex -0.002138784656547349 0.9826315510352451 15
      vertex 0 0.9561830668338989 15
    endloop
  endfacet
  facet normal 0.9807852804032307 0.1950903220161279 0
    outer loop
      vertex -0.008518543427732866 1.0147047642558624 5
      vertex -0.008518543427732866 1.0147047642558624 15
      vertex -0.002138784656547349 0.9826315510352451 15
    endloop
  endfacet
  facet normal 0.9469301294951055 0.3214394653031622 0
    outer loop
      vertex -0.01903011687217826 1.0456708610715046 5
      vertex -0.01903011687217826 1.0456708610715046 15
      vertex -0.008518543427732866 1.0147047642558624 15
    endloop
  endfacet
  facet normal 0.08060294322085358 0.9967462894559155 -6.783630128801459e-21
    outer loop
      vertex -0.21736845194498702 1.1978612183236848 15
      vertex -0.24381693614633573 1.2000000029802322 5
      vertex -0.24381693614633573 1.2000000029802322 15
    endloop
  endfacet
  facet normal 0.19509032201612314 0.9807852804032314 0
    outer loop
      vertex -0.21736845194498702 1.1978612183236848 5
      vertex -0.21736845194498702 1.1978612183236848 15
      vertex -0.18529523872436976 1.1914814595524994 15
    endloop
  endfacet
  facet normal 0.8314696123025446 0.5555702330196033 -7.308043110931018e-20
    outer loop
      vertex -0.03349364905389027 1.0750000029802322 15
      vertex -0.05166166492719115 1.1021903602324123 5
      vertex -0.05166166492719115 1.1021903602324123 15
    endloop
  endfacet
  facet normal 0.7518398074789795 0.6593458151000664 0
    outer loop
      vertex -0.07322330470336305 1.1267766982768692 5
      vertex -0.07322330470336305 1.1267766982768692 15
      vertex -0.05166166492719115 1.1021903602324123 15
    endloop
  endfacet
  facet normal 0.8968727415326888 0.4422886902190003 0
    outer loop
      vertex -0.03349364905389027 1.0750000029802322 5
      vertex -0.03349364905389027 1.0750000029802322 15
      vertex -0.01903011687217826 1.0456708610715046 15
    endloop
  endfacet
  facet normal 0.6593458151000662 0.7518398074789798 0
    outer loop
      vertex -0.09780964274781978 1.148338338053041 5
      vertex -0.09780964274781978 1.148338338053041 15
      vertex -0.07322330470336305 1.1267766982768692 15
    endloop
  endfacet
  facet normal 0.5555702330196023 0.8314696123025451 0
    outer loop
      vertex -0.12499999999999992 1.1665063539263418 5
      vertex -0.12499999999999992 1.1665063539263418 15
      vertex -0.09780964274781978 1.148338338053041 15
    endloop
  endfacet
  facet normal 0.44228869021900413 0.896872741532687 0
    outer loop
      vertex -0.15432914190872749 1.180969886108054 5
      vertex -0.15432914190872749 1.180969886108054 15
      vertex -0.12499999999999992 1.1665063539263418 15
    endloop
  endfacet
  facet normal 0.3214394653031624 0.9469301294951054 0
    outer loop
      vertex -0.18529523872436976 1.1914814595524994 5
      vertex -0.18529523872436976 1.1914814595524994 15
      vertex -0.15432914190872749 1.180969886108054 15
    endloop
  endfacet
  facet normal 0 -1 0
    outer loop
      vertex -8 -4 0
      vertex 12 -4 0
      vertex -8 -4 20
    endloop
  endfacet
  facet normal 0 0 -1
    outer loop
      vertex -8 -4 0
      vertex 0.9344565346837044 0 0
      vertex 12 -4 0
    endloop
  endfacet
  facet normal -1 0 0
    outer loop
      vertex -8 -4 0
      vertex -8 -4 20
      vertex -8 1.2000000029802322 20
    endloop
  endfacet
  facet normal 0 0 1
    outer loop
      vertex -8 -4 20
      vertex 12 -4 20
      vertex 0.9344565346837044 0 20
    endloop
  endfacet
  facet normal 0 0 -1
    outer loop
      vertex -8 -4 0
      vertex -8 1.2000000029802322 0
      vertex 0 0.9344565346837044 0
    endloop
  endfacet
  facet normal -1 0 0
    outer loop
      vertex -8 -4 0
      vertex -8 1.2000000029802322 20
      vertex -8 1.2000000029802322 0
    endloop
  endfacet
  facet normal 0 0 -1
    outer loop
      vertex -8 -4 0
      vertex 0.3392394483089447 0.24654699116945267 0
      vertex 0.44323769956827164 0.1667463257908821 0
    endloop
  endfacet
  facet normal 0 0 -1
    outer loop
      vertex -8 -4 0
      vertex 0.24654699116945267 0.3392394483089447 0
      vertex 0.3392394483089447 0.24654699116945267 0
    endloop
  endfacet
  facet normal 0 0 -1
    outer loop
      vertex -8 -4 0
      vertex 0.8044910803437233 0.017110280692577362 0
      vertex 0.9344565346837044 0 0
    endloop
  endfacet
  facet normal 0 0 -1
    outer loop
      vertex -8 -4 0
      vertex 0.5567623004317284 0.10120286792516708 0
      vertex 0.6778708323836327 0.051038071513175964 0
    endloop
  endfacet
  facet normal 0 0 -1
    outer loop
      vertex -8 -4 0
      vertex 0.44323769956827164 0.1667463257908821 0
      vertex 0.5567623004317284 0.10120286792516708 0
    endloop
  endfacet
  facet normal 0 0 -1
    outer loop
      vertex -8 -4 0
      vertex 0.6778708323836327 0.051038071513175964 0
      vertex 0.8044910803437233 0.017110280692577362 0
    endloop
  endfacet
  facet normal 0 0 -1
    outer loop
      vertex -8 -4 0
      vertex 0.10120286792516708 0.5567623004317284 0
      vertex 0.1667463257908821 0.44323769956827164 0
    endloop
  endfacet
  facet normal 0 0 -1
    outer loop
      vertex -8 -4 0
      vertex 0.1667463257908821 0.44323769956827164 0
      vertex 0.24654699116945267 0.3392394483089447 0
    endloop
  endfacet
  facet normal 0 0 -1
    outer loop
      vertex -8 -4 0
      vertex 0.051038071513175964 0.6778708323836327 0
      vertex 0.10120286792516708 0.5567623004317284 0
    endloop
  endfacet
  facet normal 0 0 -1
    outer loop
      vertex -8 -4 0
      vertex 0.017110280692577362 0.8044910803437233 0
      vertex 0.051038071513175964 0.6778708323836327 0
    endloop
  endfacet
  facet normal 0 0 -1
    outer loop
      vertex -8 -4 0
      vertex 0 0.9344565346837044 0
      vertex 0.017110280692577362 0.8044910803437233 0
    endloop
  endfacet
  facet normal 0 0 -1
    outer loop
      vertex -8 1.2000000029802322 0
      vertex 0 1.2000000029802322 0
      vertex 0 0.9344565346837044 0
    endloop
  endfacet
  facet normal 0 1 0
    outer loop
      vertex -8 1.2000000029802322 0
      vertex -0.24381693614633573 1.2000000029802322 5
      vertex 0 1.2000000029802322 0
    endloop
  endfacet
  facet normal 1 0 0
    outer loop
      vertex 0 0.9344565346837044 0
      vertex 0 1.2000000029802322 0
      vertex 0 0.9561830668338989 5
    endloop
  endfacet
  facet normal 1 0 0
    outer loop
      vertex 0 1.2000000029802322 0
      vertex 0 1.2000000029802322 5
      vertex 0 0.9561830668338989 5
    endloop
  endfacet
  facet normal 0 1 0
    outer loop
      vertex 0 1.2000000029802322 0
      vertex -0.24381693614633573 1.2000000029802322 5
      vertex 0 1.2000000029802322 5
    endloop
  endfacet
  facet normal 0 1 0
    outer loop
      vertex -8 1.2000000029802322 0
      vertex -0.24381693614633573 1.2000000029802322 15
      vertex -0.24381693614633573 1.2000000029802322 5
    endloop
  endfacet
  facet normal 0.6087614313358576 0.7933533385055602 0
    outer loop
      vertex 0.44323769956827164 0.1667463257908821 0
      vertex 0.3392394483089447 0.24654699116945267 0
      vertex 0.44323769956827164 0.1667463257908821 20
    endloop
  endfacet
  facet normal 0.4999999942646076 0.8660254070957689 0
    outer loop
      vertex 0.5567623004317284 0.10120286792516708 0
      vertex 0.44323769956827164 0.1667463257908821 0
      vertex 0.5567623004317284 0.10120286792516708 20
    endloop
  endfacet
  facet normal 0.38268343209432837 0.9238795326234398 0
    outer loop
      vertex 0.6778708323836327 0.051038071513175964 0
      vertex 0.5567623004317284 0.10120286792516708 0
      vertex 0.6778708323836327 0.051038071513175964 20
    endloop
  endfacet
  facet normal 0.7071067811865476 0.7071067811865476 0
    outer loop
      vertex 0.3392394483089447 0.24654699116945267 0
      vertex 0.24654699116945267 0.3392394483089447 0
      vertex 0.3392394483089447 0.24654699116945267 20
    endloop
  endfacet
  facet normal 0.7933533385055602 0.6087614313358576 0
    outer loop
      vertex 0.24654699116945267 0.3392394483089447 0
      vertex 0.1667463257908821 0.44323769956827164 0
      vertex 0.24654699116945267 0.3392394483089447 20
    endloop
  endfacet
  facet normal 0.8660254070957689 0.4999999942646076 0
    outer loop
      vertex 0.1667463257908821 0.44323769956827164 0
      vertex 0.10120286792516708 0.5567623004317284 0
      vertex 0.1667463257908821 0.44323769956827164 20
    endloop
  endfacet
  facet normal 0.1305262224290296 0.9914448573967226 0
    outer loop
      vertex 0.8044910803437233 0.017110280692577362 0
      vertex 0.9344565346837044 0 20
      vertex 0.9344565346837044 0 0
    endloop
  endfacet
  facet normal 0.25881902826436615 0.965925830800838 0
    outer loop
      vertex 0.6778708323836327 0.051038071513175964 0
      vertex 0.8044910803437233 0.017110280692577362 20
      vertex 0.8044910803437233 0.017110280692577362 0
    endloop
  endfacet
  facet normal 0.9238795326234398 0.38268343209432837 0
    outer loop
      vertex 0.10120286792516708 0.5567623004317284 0
      vertex 0.051038071513175964 0.6778708323836327 0
      vertex 0.10120286792516708 0.5567623004317284 20
    endloop
  endfacet
  facet normal 0.965925830800838 0.25881902826436615 0
    outer loop
      vertex 0.051038071513175964 0.6778708323836327 0
      vertex 0.017110280692577362 0.8044910803437233 0
      vertex 0.051038071513175964 0.6778708323836327 20
    endloop
  endfacet
  facet normal 0.9914448573967226 0.1305262224290296 0
    outer loop
      vertex 0.017110280692577362 0.8044910803437233 0
      vertex 0 0.9344565346837044 0
      vertex 0.017110280692577362 0.8044910803437233 20
    endloop
  endfacet
  facet normal 1 0 0
    outer loop
      vertex 0 0.9344565346837044 0
      vertex 0 0.9561830668338989 5
      vertex 0 0.9561830668338989 15
    endloop
  endfacet
  facet normal 0 0 1
    outer loop
      vertex -8 -4 20
      vertex 0 0.9344565346837044 20
      vertex -8 1.2000000029802322 20
    endloop
  endfacet
  facet normal 0 1 0
    outer loop
      vertex -8 1.2000000029802322 0
      vertex -8 1.2000000029802322 20
      vertex 0 1.2000000029802322 20
    endloop
  endfacet
  facet normal 0 0 1
    outer loop
      vertex -8 -4 20
      vertex 0.44323769956827164 0.1667463257908821 20
      vertex 0.3392394483089447 0.24654699116945267 20
    endloop
  endfacet
  facet normal 0 0 1
    outer loop
      vertex -8 -4 20
      vertex 0.3392394483089447 0.24654699116945267 20
      vertex 0.24654699116945267 0.3392394483089447 20
    endloop
  endfacet
  facet normal 0 0 1
    outer loop
      vertex -8 -4 20
      vertex 0.9344565346837044 0 20
      vertex 0.8044910803437233 0.017110280692577362 20
    endloop
  endfacet
  facet normal 0 0 1
    outer loop
      vertex -8 -4 20
      vertex 0.6778708323836327 0.051038071513175964 20
      vertex 0.5567623004317284 0.10120286792516708 20
    endloop
  endfacet
  facet normal 0 0 1
    outer loop
      vertex -8 -4 20
      vertex 0.5567623004317284 0.10120286792516708 20
      vertex 0.44323769956827164 0.1667463257908821 20
    endloop
  endfacet
  facet normal 0 0 1
    outer loop
      vertex -8 -4 20
      vertex 0.8044910803437233 0.017110280692577362 20
      vertex 0.6778708323836327 0.051038071513175964 20
    endloop
  endfacet
  facet normal 0 0 1
    outer loop
      vertex -8 -4 20
      vertex 0.1667463257908821 0.44323769956827164 20
      vertex 0.10120286792516708 0.5567623004317284 20
    endloop
  endfacet
  facet normal 0 0 1
    outer loop
      vertex -8 -4 20
      vertex 0.24654699116945267 0.3392394483089447 20
      vertex 0.1667463257908821 0.44323769956827164 20
    endloop
  endfacet
  facet normal 0 0 1
    outer loop
      vertex -8 -4 20
      vertex 0.10120286792516708 0.5567623004317284 20
      vertex 0.051038071513175964 0.6778708323836327 20
    endloop
  endfacet
  facet normal 0 0 1
    outer loop
      vertex -8 -4 20
      vertex 0.051038071513175964 0.6778708323836327 20
      vertex 0.017110280692577362 0.8044910803437233 20
    endloop
  endfacet
  facet normal 0 0 1
    outer loop
      vertex -8 -4 20
      vertex 0.017110280692577362 0.8044910803437233 20
      vertex 0 0.9344565346837044 20
    endloop
  endfacet
  facet normal 0 1 0
    outer loop
      vertex -8 1.2000000029802322 0
      vertex 0 1.2000000029802322 20
      vertex -0.24381693614633573 1.2000000029802322 15
    endloop
  endfacet
  facet normal 0.25881902826436615 0.965925830800838 0
    outer loop
      vertex 0.6778708323836327 0.051038071513175964 0
      vertex 0.6778708323836327 0.051038071513175964 20
      vertex 0.8044910803437233 0.017110280692577362 20
    endloop
  endfacet
  facet normal 0.6087614313358576 0.7933533385055602 0
    outer loop
      vertex 0.3392394483089447 0.24654699116945267 0
      vertex 0.3392394483089447 0.24654699116945267 20
      vertex 0.44323769956827164 0.1667463257908821 20
    endloop
  endfacet
  facet normal 0.38268343209432837 0.9238795326234398 0
    outer loop
      vertex 0.5567623004317284 0.10120286792516708 0
      vertex 0.5567623004317284 0.10120286792516708 20
      vertex 0.6778708323836327 0.051038071513175964 20
    endloop
  endfacet
  facet normal 0.4999999942646076 0.8660254070957689 0
    outer loop
      vertex 0.44323769956827164 0.1667463257908821 0
      vertex 0.44323769956827164 0.1667463257908821 20
      vertex 0.5567623004317284 0.10120286792516708 20
    endloop
  endfacet
  facet normal 0.8660254070957689 0.4999999942646076 0
    outer loop
      vertex 0.10120286792516708 0.5567623004317284 0
      vertex 0.10120286792516708 0.5567623004317284 20
      vertex 0.1667463257908821 0.44323769956827164 20
    endloop
  endfacet
  facet normal 0.7071067811865476 0.7071067811865476 0
    outer loop
      vertex 0.24654699116945267 0.3392394483089447 0
      vertex 0.24654699116945267 0.3392394483089447 20
      vertex 0.3392394483089447 0.24654699116945267 20
    endloop
  endfacet
  facet normal 0.7933533385055602 0.6087614313358576 0
    outer loop
      vertex 0.1667463257908821 0.44323769956827164 0
      vertex 0.1667463257908821 0.44323769956827164 20
      vertex 0.24654699116945267 0.3392394483089447 20
    endloop
  endfacet
  facet normal 0.1305262224290296 0.9914448573967226 0
    outer loop
      vertex 0.8044910803437233 0.017110280692577362 0
      vertex 0.8044910803437233 0.017110280692577362 20
      vertex 0.9344565346837044 0 20
    endloop
  endfacet
  facet normal 1 0 0
    outer loop
      vertex 0 0.9344565346837044 0
      vertex 0 0.9561830668338989 15
      vertex 0 0.9344565346837044 20
    endloop
  endfacet
  facet normal 0.9238795326234398 0.38268343209432837 0
    outer loop
      vertex 0.051038071513175964 0.6778708323836327 0
      vertex 0.051038071513175964 0.6778708323836327 20
      vertex 0.10120286792516708 0.5567623004317284 20
    endloop
  endfacet
  facet normal 0.965925830800838 0.25881902826436615 0
    outer loop
      vertex 0.017110280692577362 0.8044910803437233 0
      vertex 0.017110280692577362 0.8044910803437233 20
      vertex 0.051038071513175964 0.6778708323836327 20
    endloop
  endfacet
  facet normal 0.9914448573967226 0.1305262224290296 0
    outer loop
      vertex 0 0.9344565346837044 0
      vertex 0 0.9344565346837044 20
      vertex 0.017110280692577362 0.8044910803437233 20
    endloop
  endfacet
  facet normal 0 0 1
    outer loop
      vertex -8 1.2000000029802322 20
      vertex 0 0.9344565346837044 20
      vertex 0 1.2000000029802322 20
    endloop
  endfacet
  facet normal 1 0 0
    outer loop
      vertex 0 0.9344565346837044 20
      vertex 0 0.9561830668338989 15
      vertex 0 1.2000000029802322 15
    endloop
  endfacet
  facet normal 0 1 0
    outer loop
      vertex 0 1.2000000029802322 20
      vertex 0 1.2000000029802322 15
      vertex -0.24381693614633573 1.2000000029802322 15
    endloop
  endfacet
  facet normal 1 0 0
    outer loop
      vertex 0 0.9344565346837044 20
      vertex 0 1.2000000029802322 15
      vertex 0 1.2000000029802322 20
    endloop
  endfacet
  facet normal 1 0 0
    outer loop
      vertex 12 -4 0
      vertex 12 0 0
      vertex 12 -4 20
    endloop
  endfacet
  facet normal 0 -1 0
    outer loop
      vertex -8 -4 20
      vertex 12 -4 0
      vertex 12 -4 20
    endloop
  endfacet
  facet normal 0 0 -1
    outer loop
      vertex 0.9344565346837044 0 0
      vertex 12 0 0
      vertex 12 -4 0
    endloop
  endfacet
  facet normal 0 1 0
    outer loop
      vertex 0.9344565346837044 0 0
      vertex 12 0 20
      vertex 12 0 0
    endloop
  endfacet
  facet normal 0 1 0
    outer loop
      vertex 0.9344565346837044 0 0
      vertex 0.9344565346837044 0 20
      vertex 12 0 20
    endloop
  endfacet
  facet normal 1 0 0
    outer loop
      vertex 12 -4 20
      vertex 12 0 0
      vertex 12 0 20
    endloop
  endfacet
  facet normal 0 0 1
    outer loop
      vertex 0.9344565346837044 0 20
      vertex 12 -4 20
      vertex 12 0 20
    endloop
  endfacet
endsolid OpenSCAD_Model
