solid OpenSCAD_Model
  facet normal 0 0 1
    outer loop
      vertex 0.0005978204740437951 0.6074466319009486 5
      vertex 0.0005032279315583359 0.9306341399529201 5
      vertex -0.005133083175713704 0.6783157183122633 5
    endloop
  endfacet
  facet normal 0 0 1
    outer loop
      vertex -0.005133083175713704 0.6783157183122633 5
      vertex 0 0.9344565346837044 5
      vertex -0.020444504226558857 0.7552914300417448 5
    endloop
  endfacet
  facet normal 0 0 1
    outer loop
      vertex -0.020444504226558857 0.7552914300417448 5
      vertex 0 0.9344565346837044 5
      vertex -0.0456722804932278 0.8296100623992863 5
    endloop
  endfacet
  facet normal 0 0 1
    outer loop
      vertex -0.005133083175713704 0.6783157183122633 5
      vertex 0.0005032279315583359 0.9306341399529201 5
      vertex 0 0.9344565346837044 5
    endloop
  endfacet
  facet normal 0 0 1
    outer loop
      vertex -0.08038475772933662 0.9000000029802323 5
      vertex -0.0456722804932278 0.8296100623992863 5
      vertex 0 0.9344565346837044 5
    endloop
  endfacet
  facet normal 0 0 1
    outer loop
      vertex -0.08038475772933662 0.9000000029802323 5
      vertex 0 0.9344565346837044 5
      vertex -0.12398799582525877 0.9652568603854648 5
    endloop
  endfacet
  facet normal 0 0 1
    outer loop
      vertex -0.17573593128807136 1.0242640716921607 5
      vertex -0.12398799582525877 0.9652568603854648 5
      vertex 0 0.9344565346837044 5
    endloop
  endfacet
  facet normal 0 0 1
    outer loop
      vertex -0.5216842846679688 1.1948669198045185 5
      vertex 0 1.2000000029802322 5
      vertex -0.5851606467512015 1.2000000029802322 5
    endloop
  endfacet
  facet normal 0 0 1
    outer loop
      vertex -0.370389940580946 1.1543277224870043 5
      vertex -0.2999999999999998 1.1196152452508956 5
      vertex 0 1.2000000029802322 5
    endloop
  endfacet
  facet normal 0 0 1
    outer loop
      vertex -0.4447085729384874 1.1795554987536734 5
      vertex -0.370389940580946 1.1543277224870043 5
      vertex 0 1.2000000029802322 5
    endloop
  endfacet
  facet normal 0 0 1
    outer loop
      vertex -0.5216842846679688 1.1948669198045185 5
      vertex -0.4447085729384874 1.1795554987536734 5
      vertex 0 1.2000000029802322 5
    endloop
  endfacet
  facet normal 0 0 1
    outer loop
      vertex -0.17573593128807136 1.0242640716921607 5
      vertex 0 0.9344565346837044 5
      vertex 0 1.2000000029802322 5
    endloop
  endfacet
  facet normal 0 0 1
    outer loop
      vertex -0.17573593128807136 1.0242640716921607 5
      vertex 0 1.2000000029802322 5
      vertex -0.23474314259476747 1.0760120071549735 5
    endloop
  endfacet
  facet normal 0 0 1
    outer loop
      vertex -0.2999999999999998 1.1196152452508956 5
      vertex -0.23474314259476747 1.0760120071549735 5
      vertex 0 1.2000000029802322 5
    endloop
  endfacet
  facet normal -0.9999999571673798 -0.00029268624583906087 -1.761372383022886e-23
    outer loop
      vertex 0.0005978204740437951 0.6074466319009486 5
      vertex 0.0005032279315583359 0.9306341399529201 15.000000000000002
      vertex 0.0005032279315583359 0.9306341399529201 5
    endloop
  endfacet
  facet normal -0.9999999571673798 -0.00029268624583906087 0
    outer loop
      vertex 0.0005978204740437951 0.6074466319009486 5
      vertex 0.0005978204740437951 0.6074466319009486 15.000000000000002
      vertex 0.0005032279315583359 0.9306341399529201 15.000000000000002
    endloop
  endfacet
  facet normal 0 0 -1
    outer loop
      vertex 0.0005978204740437951 0.6074466319009486 15.000000000000002
      vertex -0.005133083175713704 0.6783157183122633 15.000000000000002
      vertex 0.0005032279315583359 0.9306341399529201 15.000000000000002
    endloop
  endfacet
  facet normal 0 0 -1
    outer loop
      vertex -0.005133083175713704 0.6783157183122633 15.000000000000002
      vertex 0 0.9344565346837044 15.000000000000002
      vertex 0.0005032279315583359 0.9306341399529201 15.000000000000002
    endloop
  endfacet
  facet normal 0 0 -1
    outer loop
      vertex -0.005133083175713704 0.6783157183122633 15.000000000000002
      vertex -0.020444504226558857 0.7552914300417448 15.000000000000002
      vertex 0 1.2000000029802322 15.000000000000002
    endloop
  endfacet
  facet normal 0 0 -1
    outer loop
      vertex -0.020444504226558857 0.7552914300417448 15.000000000000002
      vertex -0.0456722804932278 0.8296100623992863 15.000000000000002
      vertex 0 1.2000000029802322 15.000000000000002
    endloop
  endfacet
  facet normal 0 0 -1
    outer loop
      vertex -0.005133083175713704 0.6783157183122633 15.000000000000002
      vertex 0 1.2000000029802322 15.000000000000002
      vertex 0 0.9344565346837044 15.000000000000002
    endloop
  endfacet
  facet normal 0 0 -1
    outer loop
      vertex -0.08038475772933662 0.9000000029802323 15.000000000000002
      vertex 0 1.2000000029802322 15.000000000000002
      vertex -0.0456722804932278 0.8296100623992863 15.000000000000002
    endloop
  endfacet
  facet normal 0 0 -1
    outer loop
      vertex -0.08038475772933662 0.9000000029802323 15.000000000000002
      vertex -0.12398799582525877 0.9652568603854648 15.000000000000002
      vertex 0 1.2000000029802322 15.000000000000002
    endloop
  endfacet
  facet normal 0 0 -1
    outer loop
      vertex -0.5216842846679688 1.1948669198045185 15.000000000000002
      vertex -0.5851606467512015 1.2000000029802322 15.000000000000002
      vertex 0 1.2000000029802322 15.000000000000002
    endloop
  endfacet
  facet normal 0 0 -1
    outer loop
      vertex -0.370389940580946 1.1543277224870043 15.000000000000002
      vertex 0 1.2000000029802322 15.000000000000002
      vertex -0.2999999999999998 1.1196152452508956 15.000000000000002
    endloop
  endfacet
  facet normal 0 0 -1
    outer loop
      vertex -0.4447085729384874 1.1795554987536734 15.000000000000002
      vertex 0 1.2000000029802322 15.000000000000002
      vertex -0.370389940580946 1.1543277224870043 15.000000000000002
    endloop
  endfacet
  facet normal 0 0 -1
    outer loop
      vertex -0.5216842846679688 1.1948669198045185 15.000000000000002
      vertex 0 1.2000000029802322 15.000000000000002
      vertex -0.4447085729384874 1.1795554987536734 15.000000000000002
    endloop
  endfacet
  facet normal 0 0 -1
    outer loop
      vertex -0.17573593128807136 1.0242640716921607 15.000000000000002
      vertex 0 1.2000000029802322 15.000000000000002
      vertex -0.12398799582525877 0.9652568603854648 15.000000000000002
    endloop
  endfacet
  facet normal 0 0 -1
    outer loop
      vertex -0.17573593128807136 1.0242640716921607 15.000000000000002
      vertex -0.23474314259476747 1.0760120071549735 15.000000000000002
      vertex 0 1.2000000029802322 15.000000000000002
    endloop
  endfacet
  facet normal 0 0 -1
    outer loop
      vertex -0.2999999999999998 1.1196152452508956 15.000000000000002
      vertex 0 1.2000000029802322 15.000000000000002
      vertex -0.23474314259476747 1.0760120071549735 15.000000000000002
    endloop
  endfacet
  facet normal 0.08060294322085473 0.9967462894559156 0
    outer loop
      vertex -0.5216842846679688 1.1948669198045185 5
      vertex -0.5851606467512015 1.2000000029802322 5
      vertex -0.5216842846679688 1.1948669198045185 15.000000000000002
    endloop
  endfacet
  facet normal 0.9967462894559154 0.08060294322085616 0
    outer loop
      vertex 0.0005978204740437951 0.6074466319009486 5
      vertex -0.005133083175713704 0.6783157183122633 5
      vertex 0.0005978204740437951 0.6074466319009486 15.000000000000002
    endloop
  endfacet
  facet normal 0.9807852804032307 0.19509032201612683 0
    outer loop
      vertex -0.005133083175713704 0.6783157183122633 5
      vertex -0.020444504226558857 0.7552914300417448 5
      vertex -0.005133083175713704 0.6783157183122633 15.000000000000002
    endloop
  endfacet
  facet normal 0.9469301294951057 0.3214394653031618 0
    outer loop
      vertex -0.020444504226558857 0.7552914300417448 5
      vertex -0.0456722804932278 0.8296100623992863 5
      vertex -0.020444504226558857 0.7552914300417448 15.000000000000002
    endloop
  endfacet
  facet normal 0.8968727415326883 0.4422886902190012 -3.9906595825746995e-20
    outer loop
      vertex -0.08038475772933662 0.9000000029802323 5
      vertex -0.0456722804932278 0.8296100623992863 15.000000000000002
      vertex -0.0456722804932278 0.8296100623992863 5
    endloop
  endfacet
  facet normal 0.8314696123025453 0.5555702330196023 0
    outer loop
      vertex -0.08038475772933662 0.9000000029802323 5
      vertex -0.12398799582525877 0.9652568603854648 5
      vertex -0.08038475772933662 0.9000000029802323 15.000000000000002
    endloop
  endfacet
  facet normal 0.7518398074789764 0.6593458151000701 7.945834047830989e-20
    outer loop
      vertex -0.17573593128807136 1.0242640716921607 5
      vertex -0.12398799582525877 0.9652568603854648 15.000000000000002
      vertex -0.12398799582525877 0.9652568603854648 5
    endloop
  endfacet
  facet normal 0.6593458151000702 0.7518398074789762 0
    outer loop
      vertex -0.17573593128807136 1.0242640716921607 5
      vertex -0.23474314259476747 1.0760120071549735 5
      vertex -0.17573593128807136 1.0242640716921607 15.000000000000002
    endloop
  endfacet
  facet normal 0.5555702330196028 0.8314696123025447 1.1686655485313e-19
    outer loop
      vertex -0.2999999999999998 1.1196152452508956 5
      vertex -0.23474314259476747 1.0760120071549735 15.000000000000002
      vertex -0.23474314259476747 1.0760120071549735 5
    endloop
  endfacet
  facet normal 0.1950903220161271 0.9807852804032307 2.4294305857372224e-20
    outer loop
      vertex -0.5216842846679688 1.1948669198045185 5
      vertex -0.4447085729384874 1.1795554987536734 15.000000000000002
      vertex -0.4447085729384874 1.1795554987536734 5
    endloop
  endfacet
  facet normal 0.32143946530316303 0.9469301294951051 -1.2318357909694556e-19
    outer loop
      vertex -0.4447085729384874 1.1795554987536734 5
      vertex -0.370389940580946 1.1543277224870043 15.000000000000002
      vertex -0.370389940580946 1.1543277224870043 5
    endloop
  endfacet
  facet normal 0.4422886902189995 0.8968727415326891 3.382370105144715e-20
    outer loop
      vertex -0.370389940580946 1.1543277224870043 5
      vertex -0.2999999999999998 1.1196152452508956 15.000000000000002
      vertex -0.2999999999999998 1.1196152452508956 5
    endloop
  endfacet
  facet normal 0.08060294322085473 0.9967462894559156 -2.8745519922476434e-20
    outer loop
      vertex -0.5216842846679688 1.1948669198045185 15.000000000000002
      vertex -0.5851606467512015 1.2000000029802322 5
      vertex -0.5851606467512015 1.2000000029802322 15.000000000000002
    endloop
  endfacet
  facet normal 0.9967462894559154 0.08060294322085616 0
    outer loop
      vertex -0.005133083175713704 0.6783157183122633 5
      vertex -0.005133083175713704 0.6783157183122633 15.000000000000002
      vertex 0.0005978204740437951 0.6074466319009486 15.000000000000002
    endloop
  endfacet
  facet normal 0.9807852804032307 0.19509032201612683 0
    outer loop
      vertex -0.020444504226558857 0.7552914300417448 5
      vertex -0.020444504226558857 0.7552914300417448 15.000000000000002
      vertex -0.005133083175713704 0.6783157183122633 15.000000000000002
    endloop
  endfacet
  facet normal 0.9469301294951057 0.3214394653031618 0
    outer loop
      vertex -0.0456722804932278 0.8296100623992863 5
      vertex -0.0456722804932278 0.8296100623992863 15.000000000000002
      vertex -0.020444504226558857 0.7552914300417448 15.000000000000002
    endloop
  endfacet
  facet normal 0.8968727415326883 0.4422886902190012 0
    outer loop
      vertex -0.08038475772933662 0.9000000029802323 5
      vertex -0.08038475772933662 0.9000000029802323 15.000000000000002
      vertex -0.0456722804932278 0.8296100623992863 15.000000000000002
    endloop
  endfacet
  facet normal 0.8314696123025453 0.5555702330196023 2.711252967178235e-20
    outer loop
      vertex -0.08038475772933662 0.9000000029802323 15.000000000000002
      vertex -0.12398799582525877 0.9652568603854648 5
      vertex -0.12398799582525877 0.9652568603854648 15.000000000000002
    endloop
  endfacet
  facet normal 0.7518398074789764 0.6593458151000701 0
    outer loop
      vertex -0.17573593128807136 1.0242640716921607 5
      vertex -0.17573593128807136 1.0242640716921607 15.000000000000002
      vertex -0.12398799582525877 0.9652568603854648 15.000000000000002
    endloop
  endfacet
  facet normal 0.6593458151000702 0.7518398074789762 0
    outer loop
      vertex -0.23474314259476747 1.0760120071549735 5
      vertex -0.23474314259476747 1.0760120071549735 15.000000000000002
      vertex -0.17573593128807136 1.0242640716921607 15.000000000000002
    endloop
  endfacet
  facet normal 0.5555702330196028 0.8314696123025447 0
    outer loop
      vertex -0.2999999999999998 1.1196152452508956 5
      vertex -0.2999999999999998 1.1196152452508956 15.000000000000002
      vertex -0.23474314259476747 1.0760120071549735 15.000000000000002
    endloop
  endfacet
  facet normal 0.4422886902189995 0.8968727415326891 0
    outer loop
      vertex -0.370389940580946 1.1543277224870043 5
      vertex -0.370389940580946 1.1543277224870043 15.000000000000002
      vertex -0.2999999999999998 1.1196152452508956 15.000000000000002
    endloop
  endfacet
  facet normal 0.1950903220161271 0.9807852804032307 0
    outer loop
      vertex -0.5216842846679688 1.1948669198045185 5
      vertex -0.5216842846679688 1.1948669198045185 15.000000000000002
      vertex -0.4447085729384874 1.1795554987536734 15.000000000000002
    endloop
  endfacet
  facet normal 0.32143946530316303 0.9469301294951051 0
    outer loop
      vertex -0.4447085729384874 1.1795554987536734 5
      vertex -0.4447085729384874 1.1795554987536734 15.000000000000002
      vertex -0.370389940580946 1.1543277224870043 15.000000000000002
    endloop
  endfacet
  facet normal 0 -1 0
    outer loop
      vertex -8 -4 0
      vertex 12 -4 0
      vertex -8 -4 20
    endloop
  endfacet
  facet normal 0 0 -1
    outer loop
      vertex -8 -4 0
      vertex 0.9344565346837044 0 0
      vertex 12 -4 0
    endloop
  endfacet
  facet normal -1 0 0
    outer loop
      vertex -8 -4 0
      vertex -8 -4 20
      vertex -8 1.2000000029802322 20
    endloop
  endfacet
  facet normal 0 0 1
    outer loop
      vertex -8 -4 20
      vertex 12 -4 20
      vertex 0.9344565346837044 0 20
    endloop
  endfacet
  facet normal 0 0 -1
    outer loop
      vertex -8 -4 0
      vertex -8 1.2000000029802322 0
      vertex 0 0.9344565346837044 0
    endloop
  endfacet
  facet normal -1 0 0
    outer loop
      vertex -8 -4 0
      vertex -8 1.2000000029802322 20
      vertex -8 1.2000000029802322 0
    endloop
  endfacet
  facet normal 0 1 0
    outer loop
      vertex -8 1.2000000029802322 0
      vertex -0.5851606467512015 1.2000000029802322 15.000000000000002
      vertex -0.5851606467512015 1.2000000029802322 5
    endloop
  endfacet
  facet normal 0 0 -1
    outer loop
      vertex -8 -4 0
      vertex 0.3392394483089447 0.24654699116945267 0
      vertex 0.44323769956827164 0.1667463257908821 0
    endloop
  endfacet
  facet normal 0 0 -1
    outer loop
      vertex -8 -4 0
      vertex 0.24654699116945267 0.3392394483089447 0
      vertex 0.3392394483089447 0.24654699116945267 0
    endloop
  endfacet
  facet normal 0 0 -1
    outer loop
      vertex -8 -4 0
      vertex 0.8044910803437233 0.017110280692577362 0
      vertex 0.9344565346837044 0 0
    endloop
  endfacet
  facet normal 0 0 -1
    outer loop
      vertex -8 -4 0
      vertex 0.5567623004317284 0.10120286792516708 0
      vertex 0.6778708323836327 0.051038071513175964 0
    endloop
  endfacet
  facet normal 0 0 -1
    outer loop
      vertex -8 -4 0
      vertex 0.44323769956827164 0.1667463257908821 0
      vertex 0.5567623004317284 0.10120286792516708 0
    endloop
  endfacet
  facet normal 0 0 -1
    outer loop
      vertex -8 -4 0
      vertex 0.6778708323836327 0.051038071513175964 0
      vertex 0.8044910803437233 0.017110280692577362 0
    endloop
  endfacet
  facet normal 0 0 -1
    outer loop
      vertex -8 -4 0
      vertex 0.10120286792516708 0.5567623004317284 0
      vertex 0.1667463257908821 0.44323769956827164 0
    endloop
  endfacet
  facet normal 0 0 -1
    outer loop
      vertex -8 -4 0
      vertex 0.1667463257908821 0.44323769956827164 0
      vertex 0.24654699116945267 0.3392394483089447 0
    endloop
  endfacet
  facet normal 0 0 -1
    outer loop
      vertex -8 -4 0
      vertex 0.051038071513175964 0.6778708323836327 0
      vertex 0.10120286792516708 0.5567623004317284 0
    endloop
  endfacet
  facet normal 0 0 -1
    outer loop
      vertex -8 -4 0
      vertex 0.017110280692577362 0.8044910803437233 0
      vertex 0.051038071513175964 0.6778708323836327 0
    endloop
  endfacet
  facet normal 0 0 -1
    outer loop
      vertex -8 -4 0
      vertex 0 0.9344565346837044 0
      vertex 0.017110280692577362 0.8044910803437233 0
    endloop
  endfacet
  facet normal 0 0 -1
    outer loop
      vertex -8 1.2000000029802322 0
      vertex 0 1.2000000029802322 0
      vertex 0 0.9344565346837044 0
    endloop
  endfacet
  facet normal 0 1 0
    outer loop
      vertex -8 1.2000000029802322 0
      vertex -0.5851606467512015 1.2000000029802322 5
      vertex 0 1.2000000029802322 0
    endloop
  endfacet
  facet normal 1 0 0
    outer loop
      vertex 0 0.9344565346837044 0
      vertex 0 1.2000000029802322 0
      vertex 0 0.9344565346837044 5
    endloop
  endfacet
  facet normal 0.9914448573967225 0.13052622242903042 0
    outer loop
      vertex 0 0.9344565346837044 0
      vertex 0 0.9344565346837044 5
      vertex 0.0005032279315583359 0.9306341399529201 5
    endloop
  endfacet
  facet normal 0 1 0
    outer loop
      vertex 0 1.2000000029802322 0
      vertex -0.5851606467512015 1.2000000029802322 5
      vertex 0 1.2000000029802322 5
    endloop
  endfacet
  facet normal 1 0 0
    outer loop
      vertex 0 1.2000000029802322 0
      vertex 0 1.2000000029802322 5
      vertex 0 0.9344565346837044 5
    endloop
  endfacet
  facet normal 0.6087614313358576 0.7933533385055602 0
    outer loop
      vertex 0.44323769956827164 0.1667463257908821 0
      vertex 0.3392394483089447 0.24654699116945267 0
      vertex 0.44323769956827164 0.1667463257908821 20
    endloop
  endfacet
  facet normal 0.4999999942646076 0.8660254070957689 0
    outer loop
      vertex 0.5567623004317284 0.10120286792516708 0
      vertex 0.44323769956827164 0.1667463257908821 0
      vertex 0.5567623004317284 0.10120286792516708 20
    endloop
  endfacet
  facet normal 0.38268343209432837 0.9238795326234398 0
    outer loop
      vertex 0.6778708323836327 0.051038071513175964 0
      vertex 0.5567623004317284 0.10120286792516708 0
      vertex 0.6778708323836327 0.051038071513175964 20
    endloop
  endfacet
  facet normal 0.7071067811865476 0.7071067811865476 0
    outer loop
      vertex 0.3392394483089447 0.24654699116945267 0
      vertex 0.24654699116945267 0.3392394483089447 0
      vertex 0.3392394483089447 0.24654699116945267 20
    endloop
  endfacet
  facet normal 0.7933533385055602 0.6087614313358576 0
    outer loop
      vertex 0.24654699116945267 0.3392394483089447 0
      vertex 0.1667463257908821 0.44323769956827164 0
      vertex 0.24654699116945267 0.3392394483089447 20
    endloop
  endfacet
  facet normal 0.8660254070957689 0.4999999942646076 0
    outer loop
      vertex 0.1667463257908821 0.44323769956827164 0
      vertex 0.10120286792516708 0.5567623004317284 0
      vertex 0.1667463257908821 0.44323769956827164 20
    endloop
  endfacet
  facet normal 0.1305262224290296 0.9914448573967226 0
    outer loop
      vertex 0.8044910803437233 0.017110280692577362 0
      vertex 0.9344565346837044 0 20
      vertex 0.9344565346837044 0 0
    endloop
  endfacet
  facet normal 0.25881902826436615 0.965925830800838 0
    outer loop
      vertex 0.6778708323836327 0.051038071513175964 0
      vertex 0.8044910803437233 0.017110280692577362 20
      vertex 0.8044910803437233 0.017110280692577362 0
    endloop
  endfacet
  facet normal 0.9238795326234398 0.38268343209432837 0
    outer loop
      vertex 0.10120286792516708 0.5567623004317284 0
      vertex 0.051038071513175964 0.6778708323836327 0
      vertex 0.10120286792516708 0.5567623004317284 20
    endloop
  endfacet
  facet normal 0.965925830800838 0.25881902826436615 0
    outer loop
      vertex 0.051038071513175964 0.6778708323836327 0
      vertex 0.017110280692577362 0.8044910803437233 0
      vertex 0.051038071513175964 0.6778708323836327 20
    endloop
  endfacet
  facet normal 0.9914448573967226 0.1305262224290296 0
    outer loop
      vertex 0.017110280692577362 0.8044910803437233 0
      vertex 0 0.9344565346837044 0
      vertex 0.017110280692577362 0.8044910803437233 20
    endloop
  endfacet
  facet normal 0.9914448573967225 0.13052622242902945 -7.470106752082451e-19
    outer loop
      vertex 0 0.9344565346837044 0
      vertex 0.0005032279315583359 0.9306341399529201 5
      vertex 0.017110280692577362 0.8044910803437233 20
    endloop
  endfacet
  facet normal 0 0 1
    outer loop
      vertex -8 -4 20
      vertex 0 0.9344565346837044 20
      vertex -8 1.2000000029802322 20
    endloop
  endfacet
  facet normal 0 1 0
    outer loop
      vertex -8 1.2000000029802322 0
      vertex -8 1.2000000029802322 20
      vertex 0 1.2000000029802322 20
    endloop
  endfacet
  facet normal 0 0 1
    outer loop
      vertex -8 -4 20
      vertex 0.44323769956827164 0.1667463257908821 20
      vertex 0.3392394483089447 0.24654699116945267 20
    endloop
  endfacet
  facet normal 0 0 1
    outer loop
      vertex -8 -4 20
      vertex 0.3392394483089447 0.24654699116945267 20
      vertex 0.24654699116945267 0.3392394483089447 20
    endloop
  endfacet
  facet normal 0 0 1
    outer loop
      vertex -8 -4 20
      vertex 0.9344565346837044 0 20
      vertex 0.8044910803437233 0.017110280692577362 20
    endloop
  endfacet
  facet normal 0 0 1
    outer loop
      vertex -8 -4 20
      vertex 0.6778708323836327 0.051038071513175964 20
      vertex 0.5567623004317284 0.10120286792516708 20
    endloop
  endfacet
  facet normal 0 0 1
    outer loop
      vertex -8 -4 20
      vertex 0.5567623004317284 0.10120286792516708 20
      vertex 0.44323769956827164 0.1667463257908821 20
    endloop
  endfacet
  facet normal 0 0 1
    outer loop
      vertex -8 -4 20
      vertex 0.8044910803437233 0.017110280692577362 20
      vertex 0.6778708323836327 0.051038071513175964 20
    endloop
  endfacet
  facet normal 0 0 1
    outer loop
      vertex -8 -4 20
      vertex 0.1667463257908821 0.44323769956827164 20
      vertex 0.10120286792516708 0.5567623004317284 20
    endloop
  endfacet
  facet normal 0 0 1
    outer loop
      vertex -8 -4 20
      vertex 0.24654699116945267 0.3392394483089447 20
      vertex 0.1667463257908821 0.44323769956827164 20
    endloop
  endfacet
  facet normal 0 0 1
    outer loop
      vertex -8 -4 20
      vertex 0.10120286792516708 0.5567623004317284 20
      vertex 0.051038071513175964 0.6778708323836327 20
    endloop
  endfacet
  facet normal 0 0 1
    outer loop
      vertex -8 -4 20
      vertex 0.051038071513175964 0.6778708323836327 20
      vertex 0.017110280692577362 0.8044910803437233 20
    endloop
  endfacet
  facet normal 0 0 1
    outer loop
      vertex -8 -4 20
      vertex 0.017110280692577362 0.8044910803437233 20
      vertex 0 0.9344565346837044 20
    endloop
  endfacet
  facet normal 0 1 0
    outer loop
      vertex -8 1.2000000029802322 0
      vertex 0 1.2000000029802322 20
      vertex -0.5851606467512015 1.2000000029802322 15.000000000000002
    endloop
  endfacet
  facet normal 0.25881902826436615 0.965925830800838 0
    outer loop
      vertex 0.6778708323836327 0.051038071513175964 0
      vertex 0.6778708323836327 0.051038071513175964 20
      vertex 0.8044910803437233 0.017110280692577362 20
    endloop
  endfacet
  facet normal 0.6087614313358576 0.7933533385055602 0
    outer loop
      vertex 0.3392394483089447 0.24654699116945267 0
      vertex 0.3392394483089447 0.24654699116945267 20
      vertex 0.44323769956827164 0.1667463257908821 20
    endloop
  endfacet
  facet normal 0.38268343209432837 0.9238795326234398 0
    outer loop
      vertex 0.5567623004317284 0.10120286792516708 0
      vertex 0.5567623004317284 0.10120286792516708 20
      vertex 0.6778708323836327 0.051038071513175964 20
    endloop
  endfacet
  facet normal 0.4999999942646076 0.8660254070957689 0
    outer loop
      vertex 0.44323769956827164 0.1667463257908821 0
      vertex 0.44323769956827164 0.1667463257908821 20
      vertex 0.5567623004317284 0.10120286792516708 20
    endloop
  endfacet
  facet normal 0.8660254070957689 0.4999999942646076 0
    outer loop
      vertex 0.10120286792516708 0.5567623004317284 0
      vertex 0.10120286792516708 0.5567623004317284 20
      vertex 0.1667463257908821 0.44323769956827164 20
    endloop
  endfacet
  facet normal 0.7071067811865476 0.7071067811865476 0
    outer loop
      vertex 0.24654699116945267 0.3392394483089447 0
      vertex 0.24654699116945267 0.3392394483089447 20
      vertex 0.3392394483089447 0.24654699116945267 20
    endloop
  endfacet
  facet normal 0.7933533385055602 0.6087614313358576 0
    outer loop
      vertex 0.1667463257908821 0.44323769956827164 0
      vertex 0.1667463257908821 0.44323769956827164 20
      vertex 0.24654699116945267 0.3392394483089447 20
    endloop
  endfacet
  facet normal 0.1305262224290296 0.9914448573967226 0
    outer loop
      vertex 0.8044910803437233 0.017110280692577362 0
      vertex 0.8044910803437233 0.017110280692577362 20
      vertex 0.9344565346837044 0 20
    endloop
  endfacet
  facet normal 0.9238795326234398 0.38268343209432837 0
    outer loop
      vertex 0.051038071513175964 0.6778708323836327 0
      vertex 0.051038071513175964 0.6778708323836327 20
      vertex 0.10120286792516708 0.5567623004317284 20
    endloop
  endfacet
  facet normal 0.965925830800838 0.25881902826436615 0
    outer loop
      vertex 0.017110280692577362 0.8044910803437233 0
      vertex 0.017110280692577362 0.8044910803437233 20
      vertex 0.051038071513175964 0.6778708323836327 20
    endloop
  endfacet
  facet normal 0.9914448573967226 0.13052622242902956 5.738946788991377e-20
    outer loop
      vertex 0.017110280692577362 0.8044910803437233 20
      vertex 0.0005032279315583359 0.9306341399529201 5
      vertex 0.0005032279315583359 0.9306341399529201 15.000000000000002
    endloop
  endfacet
  facet normal 0 0 1
    outer loop
      vertex -8 1.2000000029802322 20
      vertex 0 0.9344565346837044 20
      vertex 0 1.2000000029802322 20
    endloop
  endfacet
  facet normal 0.9914448573967225 0.13052622242903042 0
    outer loop
      vertex 0 0.9344565346837044 20
      vertex 0.0005032279315583359 0.9306341399529201 15.000000000000002
      vertex 0 0.9344565346837044 15.000000000000002
    endloop
  endfacet
  facet normal 1 0 0
    outer loop
      vertex 0 0.9344565346837044 20
      vertex 0 0.9344565346837044 15.000000000000002
      vertex 0 1.2000000029802322 15.000000000000002
    endloop
  endfacet
  facet normal 0 1 0
    outer loop
      vertex 0 1.2000000029802322 20
      vertex 0 1.2000000029802322 15.000000000000002
      vertex -0.5851606467512015 1.2000000029802322 15.000000000000002
    endloop
  endfacet
  facet normal 0.9914448573967226 0.1305262224290296 9.692872142510694e-19
    outer loop
      vertex 0.017110280692577362 0.8044910803437233 20
      vertex 0.0005032279315583359 0.9306341399529201 15.000000000000002
      vertex 0 0.9344565346837044 20
    endloop
  endfacet
  facet normal 1 0 0
    outer loop
      vertex 0 0.9344565346837044 20
      vertex 0 1.2000000029802322 15.000000000000002
      vertex 0 1.2000000029802322 20
    endloop
  endfacet
  facet normal 1 0 0
    outer loop
      vertex 12 -4 0
      vertex 12 0 0
      vertex 12 -4 20
    endloop
  endfacet
  facet normal 0 -1 0
    outer loop
      vertex -8 -4 20
      vertex 12 -4 0
      vertex 12 -4 20
    endloop
  endfacet
  facet normal 0 0 -1
    outer loop
      vertex 0.9344565346837044 0 0
      vertex 12 0 0
      vertex 12 -4 0
    endloop
  endfacet
  facet normal 0 1 0
    outer loop
      vertex 0.9344565346837044 0 0
      vertex 12 0 20
      vertex 12 0 0
    endloop
  endfacet
  facet normal 0 1 0
    outer loop
      vertex 0.9344565346837044 0 0
      vertex 0.9344565346837044 0 20
      vertex 12 0 20
    endloop
  endfacet
  facet normal 1 0 0
    outer loop
      vertex 12 -4 20
      vertex 12 0 0
      vertex 12 0 20
    endloop
  endfacet
  facet normal 0 0 1
    outer loop
      vertex 0.9344565346837044 0 20
      vertex 12 -4 20
      vertex 12 0 20
    endloop
  endfacet
endsolid OpenSCAD_Model
