solid OpenSCAD_Model
  facet normal 0 0 1
    outer loop
      vertex 0.0003985469826958452 0.8049644222607099 5
      vertex 0.0003614499864291635 0.9317110501091688 5
      vertex -0.0034220554504758027 0.8522104798682529 5
    endloop
  endfacet
  facet normal 0 0 1
    outer loop
      vertex -0.0034220554504758027 0.8522104798682529 5
      vertex 0 0.9344565346837044 5
      vertex -0.013629669484372609 0.9035276210212406 5
    endloop
  endfacet
  facet normal 0 0 1
    outer loop
      vertex -0.0034220554504758027 0.8522104798682529 5
      vertex 0.0003614499864291635 0.9317110501091688 5
      vertex 0 0.9344565346837044 5
    endloop
  endfacet
  facet normal 0 0 1
    outer loop
      vertex -0.013629669484372609 0.9035276210212406 5
      vertex 0 0.9344565346837044 5
      vertex -0.030448186995485238 0.9530733759262683 5
    endloop
  endfacet
  facet normal 0 0 1
    outer loop
      vertex -0.05358983848622445 1.0000000029802323 5
      vertex 0 0.9344565346837044 5
      vertex -0.0826586638835059 1.0435045745837206 5
    endloop
  endfacet
  facet normal 0 0 1
    outer loop
      vertex -0.05358983848622445 1.0000000029802323 5
      vertex -0.030448186995485238 0.9530733759262683 5
      vertex 0 0.9344565346837044 5
    endloop
  endfacet
  facet normal 0 0 1
    outer loop
      vertex -0.3477895231119793 1.1965779475297564 5
      vertex 0 1.2000000029802322 5
      vertex -0.39010709783413583 1.2000000029802322 5
    endloop
  endfacet
  facet normal 0 0 1
    outer loop
      vertex -0.3477895231119793 1.1965779475297564 5
      vertex -0.29647238195899167 1.1863703334958597 5
      vertex 0 1.2000000029802322 5
    endloop
  endfacet
  facet normal 0 0 1
    outer loop
      vertex -0.1171572875253809 1.0828427154548512 5
      vertex -0.0826586638835059 1.0435045745837206 5
      vertex 0 1.2000000029802322 5
    endloop
  endfacet
  facet normal 0 0 1
    outer loop
      vertex -0.0826586638835059 1.0435045745837206 5
      vertex 0 0.9344565346837044 5
      vertex 0 1.2000000029802322 5
    endloop
  endfacet
  facet normal 0 0 1
    outer loop
      vertex -0.1999999999999999 1.1464101644940077 5
      vertex -0.1564954283965117 1.1173413390967264 5
      vertex 0 1.2000000029802322 5
    endloop
  endfacet
  facet normal 0 0 1
    outer loop
      vertex -0.1171572875253809 1.0828427154548512 5
      vertex 0 1.2000000029802322 5
      vertex -0.1564954283965117 1.1173413390967264 5
    endloop
  endfacet
  facet normal 0 0 1
    outer loop
      vertex -0.246926627053964 1.1695518159847471 5
      vertex -0.1999999999999999 1.1464101644940077 5
      vertex 0 1.2000000029802322 5
    endloop
  endfacet
  facet normal 0 0 1
    outer loop
      vertex -0.29647238195899167 1.1863703334958597 5
      vertex -0.246926627053964 1.1695518159847471 5
      vertex 0 1.2000000029802322 5
    endloop
  endfacet
  facet normal -0.9999999571673798 -0.0002926862458390147 3.2261718749478275e-22
    outer loop
      vertex 0.0003985469826958452 0.8049644222607099 5
      vertex 0.0003614499864291635 0.9317110501091688 15
      vertex 0.0003614499864291635 0.9317110501091688 5
    endloop
  endfacet
  facet normal -0.9999999571673798 -0.0002926862458390147 0
    outer loop
      vertex 0.0003985469826958452 0.8049644222607099 5
      vertex 0.0003985469826958452 0.8049644222607099 15
      vertex 0.0003614499864291635 0.9317110501091688 15
    endloop
  endfacet
  facet normal 0 0 -1
    outer loop
      vertex 0.0003985469826958452 0.8049644222607099 15
      vertex -0.0034220554504758027 0.8522104798682529 15
      vertex 0.0003614499864291635 0.9317110501091688 15
    endloop
  endfacet
  facet normal 0 0 -1
    outer loop
      vertex -0.0034220554504758027 0.8522104798682529 15
      vertex 0 0.9344565346837044 15
      vertex 0.0003614499864291635 0.9317110501091688 15
    endloop
  endfacet
  facet normal 0 0 -1
    outer loop
      vertex -0.0034220554504758027 0.8522104798682529 15
      vertex -0.013629669484372609 0.9035276210212406 15
      vertex 0 1.2000000029802322 15
    endloop
  endfacet
  facet normal 0 0 -1
    outer loop
      vertex -0.0034220554504758027 0.8522104798682529 15
      vertex 0 1.2000000029802322 15
      vertex 0 0.9344565346837044 15
    endloop
  endfacet
  facet normal 0 0 -1
    outer loop
      vertex -0.013629669484372609 0.9035276210212406 15
      vertex -0.030448186995485238 0.9530733759262683 15
      vertex 0 1.2000000029802322 15
    endloop
  endfacet
  facet normal 0 0 -1
    outer loop
      vertex -0.3477895231119793 1.1965779475297564 15
      vertex -0.39010709783413583 1.2000000029802322 15
      vertex 0 1.2000000029802322 15
    endloop
  endfacet
  facet normal 0 0 -1
    outer loop
      vertex -0.3477895231119793 1.1965779475297564 15
      vertex 0 1.2000000029802322 15
      vertex -0.29647238195899167 1.1863703334958597 15
    endloop
  endfacet
  facet normal 0 0 -1
    outer loop
      vertex -0.05358983848622445 1.0000000029802323 15
      vertex -0.0826586638835059 1.0435045745837206 15
      vertex 0 1.2000000029802322 15
    endloop
  endfacet
  facet normal 0 0 -1
    outer loop
      vertex -0.1171572875253809 1.0828427154548512 15
      vertex 0 1.2000000029802322 15
      vertex -0.0826586638835059 1.0435045745837206 15
    endloop
  endfacet
  facet normal 0 0 -1
    outer loop
      vertex -0.05358983848622445 1.0000000029802323 15
      vertex 0 1.2000000029802322 15
      vertex -0.030448186995485238 0.9530733759262683 15
    endloop
  endfacet
  facet normal 0 0 -1
    outer loop
      vertex -0.1999999999999999 1.1464101644940077 15
      vertex 0 1.2000000029802322 15
      vertex -0.1564954283965117 1.1173413390967264 15
    endloop
  endfacet
  facet normal 0 0 -1
    outer loop
      vertex -0.1171572875253809 1.0828427154548512 15
      vertex -0.1564954283965117 1.1173413390967264 15
      vertex 0 1.2000000029802322 15
    endloop
  endfacet
  facet normal 0 0 -1
    outer loop
      vertex -0.246926627053964 1.1695518159847471 15
      vertex 0 1.2000000029802322 15
      vertex -0.1999999999999999 1.1464101644940077 15
    endloop
  endfacet
  facet normal 0 0 -1
    outer loop
      vertex -0.29647238195899167 1.1863703334958597 15
      vertex 0 1.2000000029802322 15
      vertex -0.246926627053964 1.1695518159847471 15
    endloop
  endfacet
  facet normal 0.9967462894559154 0.0806029432208559 0
    outer loop
      vertex 0.0003985469826958452 0.8049644222607099 5
      vertex -0.0034220554504758027 0.8522104798682529 5
      vertex 0.0003985469826958452 0.8049644222607099 15
    endloop
  endfacet
  facet normal 0.9807852804032305 0.19509032201612736 0
    outer loop
      vertex -0.0034220554504758027 0.8522104798682529 5
      vertex -0.013629669484372609 0.9035276210212406 5
      vertex -0.0034220554504758027 0.8522104798682529 15
    endloop
  endfacet
  facet normal 0.9469301294951057 0.32143946530316153 0
    outer loop
      vertex -0.013629669484372609 0.9035276210212406 5
      vertex -0.030448186995485238 0.9530733759262683 5
      vertex -0.013629669484372609 0.9035276210212406 15
    endloop
  endfacet
  facet normal 0.8968727415326881 0.44228869021900147 -1.8567312228836332e-19
    outer loop
      vertex -0.05358983848622445 1.0000000029802323 5
      vertex -0.030448186995485238 0.9530733759262683 15
      vertex -0.030448186995485238 0.9530733759262683 5
    endloop
  endfacet
  facet normal 0.831469612302545 0.5555702330196025 0
    outer loop
      vertex -0.05358983848622445 1.0000000029802323 5
      vertex -0.0826586638835059 1.0435045745837206 5
      vertex -0.05358983848622445 1.0000000029802323 15
    endloop
  endfacet
  facet normal 0.0806029432208521 0.9967462894559157 0
    outer loop
      vertex -0.3477895231119793 1.1965779475297564 5
      vertex -0.39010709783413583 1.2000000029802322 5
      vertex -0.3477895231119793 1.1965779475297564 15
    endloop
  endfacet
  facet normal 0.44228869021900413 0.896872741532687 -1.448068171722673e-19
    outer loop
      vertex -0.246926627053964 1.1695518159847471 5
      vertex -0.1999999999999999 1.1464101644940077 15
      vertex -0.1999999999999999 1.1464101644940077 5
    endloop
  endfacet
  facet normal 0.19509032201612556 0.9807852804032311 -9.303318712788051e-20
    outer loop
      vertex -0.3477895231119793 1.1965779475297564 5
      vertex -0.29647238195899167 1.1863703334958597 15
      vertex -0.29647238195899167 1.1863703334958597 5
    endloop
  endfacet
  facet normal 0.32143946530316153 0.9469301294951057 -1.8976241128420813e-20
    outer loop
      vertex -0.29647238195899167 1.1863703334958597 5
      vertex -0.246926627053964 1.1695518159847471 15
      vertex -0.246926627053964 1.1695518159847471 5
    endloop
  endfacet
  facet normal 0.7518398074789769 0.6593458151000695 -9.879546174675744e-21
    outer loop
      vertex -0.1171572875253809 1.0828427154548512 5
      vertex -0.0826586638835059 1.0435045745837206 15
      vertex -0.0826586638835059 1.0435045745837206 5
    endloop
  endfacet
  facet normal 0.6593458151000697 0.7518398074789767 0
    outer loop
      vertex -0.1171572875253809 1.0828427154548512 5
      vertex -0.1564954283965117 1.1173413390967264 5
      vertex -0.1171572875253809 1.0828427154548512 15
    endloop
  endfacet
  facet normal 0.5555702330196014 0.8314696123025459 2.9183386680540547e-20
    outer loop
      vertex -0.1999999999999999 1.1464101644940077 5
      vertex -0.1564954283965117 1.1173413390967264 15
      vertex -0.1564954283965117 1.1173413390967264 5
    endloop
  endfacet
  facet normal 0.9967462894559154 0.0806029432208559 0
    outer loop
      vertex -0.0034220554504758027 0.8522104798682529 5
      vertex -0.0034220554504758027 0.8522104798682529 15
      vertex 0.0003985469826958452 0.8049644222607099 15
    endloop
  endfacet
  facet normal 0.9807852804032305 0.19509032201612736 0
    outer loop
      vertex -0.013629669484372609 0.9035276210212406 5
      vertex -0.013629669484372609 0.9035276210212406 15
      vertex -0.0034220554504758027 0.8522104798682529 15
    endloop
  endfacet
  facet normal 0.9469301294951057 0.32143946530316153 0
    outer loop
      vertex -0.030448186995485238 0.9530733759262683 5
      vertex -0.030448186995485238 0.9530733759262683 15
      vertex -0.013629669484372609 0.9035276210212406 15
    endloop
  endfacet
  facet normal 0.8968727415326881 0.44228869021900147 0
    outer loop
      vertex -0.05358983848622445 1.0000000029802323 5
      vertex -0.05358983848622445 1.0000000029802323 15
      vertex -0.030448186995485238 0.9530733759262683 15
    endloop
  endfacet
  facet normal 0.831469612302545 0.5555702330196025 -9.296984775845654e-20
    outer loop
      vertex -0.05358983848622445 1.0000000029802323 15
      vertex -0.0826586638835059 1.0435045745837206 5
      vertex -0.0826586638835059 1.0435045745837206 15
    endloop
  endfacet
  facet normal 0.0806029432208521 0.9967462894559157 -4.147433364553572e-21
    outer loop
      vertex -0.3477895231119793 1.1965779475297564 15
      vertex -0.39010709783413583 1.2000000029802322 5
      vertex -0.39010709783413583 1.2000000029802322 15
    endloop
  endfacet
  facet normal 0.19509032201612556 0.9807852804032311 0
    outer loop
      vertex -0.3477895231119793 1.1965779475297564 5
      vertex -0.3477895231119793 1.1965779475297564 15
      vertex -0.29647238195899167 1.1863703334958597 15
    endloop
  endfacet
  facet normal 0.32143946530316153 0.9469301294951057 0
    outer loop
      vertex -0.29647238195899167 1.1863703334958597 5
      vertex -0.29647238195899167 1.1863703334958597 15
      vertex -0.246926627053964 1.1695518159847471 15
    endloop
  endfacet
  facet normal 0.44228869021900413 0.896872741532687 0
    outer loop
      vertex -0.246926627053964 1.1695518159847471 5
      vertex -0.246926627053964 1.1695518159847471 15
      vertex -0.1999999999999999 1.1464101644940077 15
    endloop
  endfacet
  facet normal 0.7518398074789769 0.6593458151000695 0
    outer loop
      vertex -0.1171572875253809 1.0828427154548512 5
      vertex -0.1171572875253809 1.0828427154548512 15
      vertex -0.0826586638835059 1.0435045745837206 15
    endloop
  endfacet
  facet normal 0.6593458151000697 0.7518398074789767 0
    outer loop
      vertex -0.1564954283965117 1.1173413390967264 5
      vertex -0.1564954283965117 1.1173413390967264 15
      vertex -0.1171572875253809 1.0828427154548512 15
    endloop
  endfacet
  facet normal 0.5555702330196014 0.8314696123025459 0
    outer loop
      vertex -0.1999999999999999 1.1464101644940077 5
      vertex -0.1999999999999999 1.1464101644940077 15
      vertex -0.1564954283965117 1.1173413390967264 15
    endloop
  endfacet
  facet normal 0 -1 0
    outer loop
      vertex -8 -4 0
      vertex 12 -4 0
      vertex -8 -4 20
    endloop
  endfacet
  facet normal 0 0 -1
    outer loop
      vertex -8 -4 0
      vertex 0.9344565346837044 0 0
      vertex 12 -4 0
    endloop
  endfacet
  facet normal -1 0 0
    outer loop
      vertex -8 -4 0
      vertex -8 -4 20
      vertex -8 1.2000000029802322 20
    endloop
  endfacet
  facet normal 0 0 1
    outer loop
      vertex -8 -4 20
      vertex 12 -4 20
      vertex 0.9344565346837044 0 20
    endloop
  endfacet
  facet normal 0 0 -1
    outer loop
      vertex -8 -4 0
      vertex -8 1.2000000029802322 0
      vertex 0 0.9344565346837044 0
    endloop
  endfacet
  facet normal -1 0 0
    outer loop
      vertex -8 -4 0
      vertex -8 1.2000000029802322 20
      vertex -8 1.2000000029802322 0
    endloop
  endfacet
  facet normal 0 0 -1
    outer loop
      vertex -8 -4 0
      vertex 0.3392394483089447 0.24654699116945267 0
      vertex 0.44323769956827164 0.1667463257908821 0
    endloop
  endfacet
  facet normal 0 0 -1
    outer loop
      vertex -8 -4 0
      vertex 0.24654699116945267 0.3392394483089447 0
      vertex 0.3392394483089447 0.24654699116945267 0
    endloop
  endfacet
  facet normal 0 0 -1
    outer loop
      vertex -8 -4 0
      vertex 0.8044910803437233 0.017110280692577362 0
      vertex 0.9344565346837044 0 0
    endloop
  endfacet
  facet normal 0 0 -1
    outer loop
      vertex -8 -4 0
      vertex 0.5567623004317284 0.10120286792516708 0
      vertex 0.6778708323836327 0.051038071513175964 0
    endloop
  endfacet
  facet normal 0 0 -1
    outer loop
      vertex -8 -4 0
      vertex 0.44323769956827164 0.1667463257908821 0
      vertex 0.5567623004317284 0.10120286792516708 0
    endloop
  endfacet
  facet normal 0 0 -1
    outer loop
      vertex -8 -4 0
      vertex 0.6778708323836327 0.051038071513175964 0
      vertex 0.8044910803437233 0.017110280692577362 0
    endloop
  endfacet
  facet normal 0 0 -1
    outer loop
      vertex -8 -4 0
      vertex 0.10120286792516708 0.5567623004317284 0
      vertex 0.1667463257908821 0.44323769956827164 0
    endloop
  endfacet
  facet normal 0 0 -1
    outer loop
      vertex -8 -4 0
      vertex 0.1667463257908821 0.44323769956827164 0
      vertex 0.24654699116945267 0.3392394483089447 0
    endloop
  endfacet
  facet normal 0 0 -1
    outer loop
      vertex -8 -4 0
      vertex 0.051038071513175964 0.6778708323836327 0
      vertex 0.10120286792516708 0.5567623004317284 0
    endloop
  endfacet
  facet normal 0 0 -1
    outer loop
      vertex -8 -4 0
      vertex 0.017110280692577362 0.8044910803437233 0
      vertex 0.051038071513175964 0.6778708323836327 0
    endloop
  endfacet
  facet normal 0 0 -1
    outer loop
      vertex -8 -4 0
      vertex 0 0.9344565346837044 0
      vertex 0.017110280692577362 0.8044910803437233 0
    endloop
  endfacet
  facet normal 0 0 -1
    outer loop
      vertex -8 1.2000000029802322 0
      vertex 0 1.2000000029802322 0
      vertex 0 0.9344565346837044 0
    endloop
  endfacet
  facet normal 0 1 0
    outer loop
      vertex -8 1.2000000029802322 0
      vertex -0.39010709783413583 1.2000000029802322 5
      vertex 0 1.2000000029802322 0
    endloop
  endfacet
  facet normal 1 0 0
    outer loop
      vertex 0 0.9344565346837044 0
      vertex 0 1.2000000029802322 0
      vertex 0 0.9344565346837044 5
    endloop
  endfacet
  facet normal 0.9914448573967223 0.13052622242903142 0
    outer loop
      vertex 0 0.9344565346837044 0
      vertex 0 0.9344565346837044 5
      vertex 0.0003614499864291635 0.9317110501091688 5
    endloop
  endfacet
  facet normal 1 0 0
    outer loop
      vertex 0 1.2000000029802322 0
      vertex 0 1.2000000029802322 5
      vertex 0 0.9344565346837044 5
    endloop
  endfacet
  facet normal 0 1 0
    outer loop
      vertex 0 1.2000000029802322 0
      vertex -0.39010709783413583 1.2000000029802322 5
      vertex 0 1.2000000029802322 5
    endloop
  endfacet
  facet normal 0 1 0
    outer loop
      vertex -8 1.2000000029802322 0
      vertex -0.39010709783413583 1.2000000029802322 15
      vertex -0.39010709783413583 1.2000000029802322 5
    endloop
  endfacet
  facet normal 0.6087614313358576 0.7933533385055602 0
    outer loop
      vertex 0.44323769956827164 0.1667463257908821 0
      vertex 0.3392394483089447 0.24654699116945267 0
      vertex 0.44323769956827164 0.1667463257908821 20
    endloop
  endfacet
  facet normal 0.4999999942646076 0.8660254070957689 0
    outer loop
      vertex 0.5567623004317284 0.10120286792516708 0
      vertex 0.44323769956827164 0.1667463257908821 0
      vertex 0.5567623004317284 0.10120286792516708 20
    endloop
  endfacet
  facet normal 0.38268343209432837 0.9238795326234398 0
    outer loop
      vertex 0.6778708323836327 0.051038071513175964 0
      vertex 0.5567623004317284 0.10120286792516708 0
      vertex 0.6778708323836327 0.051038071513175964 20
    endloop
  endfacet
  facet normal 0.7071067811865476 0.7071067811865476 0
    outer loop
      vertex 0.3392394483089447 0.24654699116945267 0
      vertex 0.24654699116945267 0.3392394483089447 0
      vertex 0.3392394483089447 0.24654699116945267 20
    endloop
  endfacet
  facet normal 0.7933533385055602 0.6087614313358576 0
    outer loop
      vertex 0.24654699116945267 0.3392394483089447 0
      vertex 0.1667463257908821 0.44323769956827164 0
      vertex 0.24654699116945267 0.3392394483089447 20
    endloop
  endfacet
  facet normal 0.8660254070957689 0.4999999942646076 0
    outer loop
      vertex 0.1667463257908821 0.44323769956827164 0
      vertex 0.10120286792516708 0.5567623004317284 0
      vertex 0.1667463257908821 0.44323769956827164 20
    endloop
  endfacet
  facet normal 0.1305262224290296 0.9914448573967226 0
    outer loop
      vertex 0.8044910803437233 0.017110280692577362 0
      vertex 0.9344565346837044 0 20
      vertex 0.9344565346837044 0 0
    endloop
  endfacet
  facet normal 0.25881902826436615 0.965925830800838 0
    outer loop
      vertex 0.6778708323836327 0.051038071513175964 0
      vertex 0.8044910803437233 0.017110280692577362 20
      vertex 0.8044910803437233 0.017110280692577362 0
    endloop
  endfacet
  facet normal 0.9238795326234398 0.38268343209432837 0
    outer loop
      vertex 0.10120286792516708 0.5567623004317284 0
      vertex 0.051038071513175964 0.6778708323836327 0
      vertex 0.10120286792516708 0.5567623004317284 20
    endloop
  endfacet
  facet normal 0.965925830800838 0.25881902826436615 0
    outer loop
      vertex 0.051038071513175964 0.6778708323836327 0
      vertex 0.017110280692577362 0.8044910803437233 0
      vertex 0.051038071513175964 0.6778708323836327 20
    endloop
  endfacet
  facet normal 0.9914448573967226 0.1305262224290296 0
    outer loop
      vertex 0.017110280692577362 0.8044910803437233 0
      vertex 0 0.9344565346837044 0
      vertex 0.017110280692577362 0.8044910803437233 20
    endloop
  endfacet
  facet normal 0.9914448573967225 0.13052622242902942 -1.1333775211189742e-18
    outer loop
      vertex 0 0.9344565346837044 0
      vertex 0.0003614499864291635 0.9317110501091688 5
      vertex 0.017110280692577362 0.8044910803437233 20
    endloop
  endfacet
  facet normal 0 0 1
    outer loop
      vertex -8 -4 20
      vertex 0 0.9344565346837044 20
      vertex -8 1.2000000029802322 20
    endloop
  endfacet
  facet normal 0 1 0
    outer loop
      vertex -8 1.2000000029802322 0
      vertex -8 1.2000000029802322 20
      vertex 0 1.2000000029802322 20
    endloop
  endfacet
  facet normal 0 0 1
    outer loop
      vertex -8 -4 20
      vertex 0.44323769956827164 0.1667463257908821 20
      vertex 0.3392394483089447 0.24654699116945267 20
    endloop
  endfacet
  facet normal 0 0 1
    outer loop
      vertex -8 -4 20
      vertex 0.3392394483089447 0.24654699116945267 20
      vertex 0.24654699116945267 0.3392394483089447 20
    endloop
  endfacet
  facet normal 0 0 1
    outer loop
      vertex -8 -4 20
      vertex 0.9344565346837044 0 20
      vertex 0.8044910803437233 0.017110280692577362 20
    endloop
  endfacet
  facet normal 0 0 1
    outer loop
      vertex -8 -4 20
      vertex 0.6778708323836327 0.051038071513175964 20
      vertex 0.5567623004317284 0.10120286792516708 20
    endloop
  endfacet
  facet normal 0 0 1
    outer loop
      vertex -8 -4 20
      vertex 0.5567623004317284 0.10120286792516708 20
      vertex 0.44323769956827164 0.1667463257908821 20
    endloop
  endfacet
  facet normal 0 0 1
    outer loop
      vertex -8 -4 20
      vertex 0.8044910803437233 0.017110280692577362 20
      vertex 0.6778708323836327 0.051038071513175964 20
    endloop
  endfacet
  facet normal 0 0 1
    outer loop
      vertex -8 -4 20
      vertex 0.1667463257908821 0.44323769956827164 20
      vertex 0.10120286792516708 0.5567623004317284 20
    endloop
  endfacet
  facet normal 0 0 1
    outer loop
      vertex -8 -4 20
      vertex 0.24654699116945267 0.3392394483089447 20
      vertex 0.1667463257908821 0.44323769956827164 20
    endloop
  endfacet
  facet normal 0 0 1
    outer loop
      vertex -8 -4 20
      vertex 0.10120286792516708 0.5567623004317284 20
      vertex 0.051038071513175964 0.6778708323836327 20
    endloop
  endfacet
  facet normal 0 0 1
    outer loop
      vertex -8 -4 20
      vertex 0.051038071513175964 0.6778708323836327 20
      vertex 0.017110280692577362 0.8044910803437233 20
    endloop
  endfacet
  facet normal 0 0 1
    outer loop
      vertex -8 -4 20
      vertex 0.017110280692577362 0.8044910803437233 20
      vertex 0 0.9344565346837044 20
    endloop
  endfacet
  facet normal 0 1 0
    outer loop
      vertex -8 1.2000000029802322 0
      vertex 0 1.2000000029802322 20
      vertex -0.39010709783413583 1.2000000029802322 15
    endloop
  endfacet
  facet normal 0.25881902826436615 0.965925830800838 0
    outer loop
      vertex 0.6778708323836327 0.051038071513175964 0
      vertex 0.6778708323836327 0.051038071513175964 20
      vertex 0.8044910803437233 0.017110280692577362 20
    endloop
  endfacet
  facet normal 0.6087614313358576 0.7933533385055602 0
    outer loop
      vertex 0.3392394483089447 0.24654699116945267 0
      vertex 0.3392394483089447 0.24654699116945267 20
      vertex 0.44323769956827164 0.1667463257908821 20
    endloop
  endfacet
  facet normal 0.38268343209432837 0.9238795326234398 0
    outer loop
      vertex 0.5567623004317284 0.10120286792516708 0
      vertex 0.5567623004317284 0.10120286792516708 20
      vertex 0.6778708323836327 0.051038071513175964 20
    endloop
  endfacet
  facet normal 0.4999999942646076 0.8660254070957689 0
    outer loop
      vertex 0.44323769956827164 0.1667463257908821 0
      vertex 0.44323769956827164 0.1667463257908821 20
      vertex 0.5567623004317284 0.10120286792516708 20
    endloop
  endfacet
  facet normal 0.8660254070957689 0.4999999942646076 0
    outer loop
      vertex 0.10120286792516708 0.5567623004317284 0
      vertex 0.10120286792516708 0.5567623004317284 20
      vertex 0.1667463257908821 0.44323769956827164 20
    endloop
  endfacet
  facet normal 0.7071067811865476 0.7071067811865476 0
    outer loop
      vertex 0.24654699116945267 0.3392394483089447 0
      vertex 0.24654699116945267 0.3392394483089447 20
      vertex 0.3392394483089447 0.24654699116945267 20
    endloop
  endfacet
  facet normal 0.7933533385055602 0.6087614313358576 0
    outer loop
      vertex 0.1667463257908821 0.44323769956827164 0
      vertex 0.1667463257908821 0.44323769956827164 20
      vertex 0.24654699116945267 0.3392394483089447 20
    endloop
  endfacet
  facet normal 0.1305262224290296 0.9914448573967226 0
    outer loop
      vertex 0.8044910803437233 0.017110280692577362 0
      vertex 0.8044910803437233 0.017110280692577362 20
      vertex 0.9344565346837044 0 20
    endloop
  endfacet
  facet normal 0.9238795326234398 0.38268343209432837 0
    outer loop
      vertex 0.051038071513175964 0.6778708323836327 0
      vertex 0.051038071513175964 0.6778708323836327 20
      vertex 0.10120286792516708 0.5567623004317284 20
    endloop
  endfacet
  facet normal 0.965925830800838 0.25881902826436615 0
    outer loop
      vertex 0.017110280692577362 0.8044910803437233 0
      vertex 0.017110280692577362 0.8044910803437233 20
      vertex 0.051038071513175964 0.6778708323836327 20
    endloop
  endfacet
  facet normal 0.9914448573967226 0.13052622242902953 3.577040479962424e-21
    outer loop
      vertex 0.017110280692577362 0.8044910803437233 20
      vertex 0.0003614499864291635 0.9317110501091688 5
      vertex 0.0003614499864291635 0.9317110501091688 15
    endloop
  endfacet
  facet normal 0 0 1
    outer loop
      vertex -8 1.2000000029802322 20
      vertex 0 0.9344565346837044 20
      vertex 0 1.2000000029802322 20
    endloop
  endfacet
  facet normal 0.9914448573967223 0.13052622242903142 0
    outer loop
      vertex 0 0.9344565346837044 20
      vertex 0.0003614499864291635 0.9317110501091688 15
      vertex 0 0.9344565346837044 15
    endloop
  endfacet
  facet normal 1 0 0
    outer loop
      vertex 0 0.9344565346837044 20
      vertex 0 0.9344565346837044 15
      vertex 0 1.2000000029802322 15
    endloop
  endfacet
  facet normal 0 1 0
    outer loop
      vertex 0 1.2000000029802322 20
      vertex 0 1.2000000029802322 15
      vertex -0.39010709783413583 1.2000000029802322 15
    endloop
  endfacet
  facet normal 0.9914448573967226 0.1305262224290296 1.0814268028234082e-18
    outer loop
      vertex 0.017110280692577362 0.8044910803437233 20
      vertex 0.0003614499864291635 0.9317110501091688 15
      vertex 0 0.9344565346837044 20
    endloop
  endfacet
  facet normal 1 0 0
    outer loop
      vertex 0 0.9344565346837044 20
      vertex 0 1.2000000029802322 15
      vertex 0 1.2000000029802322 20
    endloop
  endfacet
  facet normal 1 0 0
    outer loop
      vertex 12 -4 0
      vertex 12 0 0
      vertex 12 -4 20
    endloop
  endfacet
  facet normal 0 -1 0
    outer loop
      vertex -8 -4 20
      vertex 12 -4 0
      vertex 12 -4 20
    endloop
  endfacet
  facet normal 0 0 -1
    outer loop
      vertex 0.9344565346837044 0 0
      vertex 12 0 0
      vertex 12 -4 0
    endloop
  endfacet
  facet normal 0 1 0
    outer loop
      vertex 0.9344565346837044 0 0
      vertex 12 0 20
      vertex 12 0 0
    endloop
  endfacet
  facet normal 0 1 0
    outer loop
      vertex 0.9344565346837044 0 0
      vertex 0.9344565346837044 0 20
      vertex 12 0 20
    endloop
  endfacet
  facet normal 1 0 0
    outer loop
      vertex 12 -4 20
      vertex 12 0 0
      vertex 12 0 20
    endloop
  endfacet
  facet normal 0 0 1
    outer loop
      vertex 0.9344565346837044 0 20
      vertex 12 -4 20
      vertex 12 0 20
    endloop
  endfacet
endsolid OpenSCAD_Model
