solid OpenSCAD_Model
  facet normal 0 0 1
    outer loop
      vertex -0.0022243360428092496 0.9739368129574456 5
      vertex 0 0.9464303893880455 5
      vertex 0 1.2000000029802322 5
    endloop
  endfacet
  facet normal 0 0 1
    outer loop
      vertex -0.0022243360428092496 0.9739368129574456 5
      vertex 0 1.2000000029802322 5
      vertex -0.00885928516484219 1.0072929547068876 5
    endloop
  endfacet
  facet normal 0 0 1
    outer loop
      vertex -0.00885928516484219 1.0072929547068876 5
      vertex 0 1.2000000029802322 5
      vertex -0.019791321547065394 1.0394976953951556 5
    endloop
  endfacet
  facet normal 0 0 1
    outer loop
      vertex -0.034833395016045876 1.0700000029802321 5
      vertex -0.019791321547065394 1.0394976953951556 5
      vertex 0 1.2000000029802322 5
    endloop
  endfacet
  facet normal 0 0 1
    outer loop
      vertex -0.07615223689149758 1.1238477660887345 5
      vertex -0.0537281315242788 1.0982779745224995 5
      vertex 0 1.2000000029802322 5
    endloop
  endfacet
  facet normal 0 0 1
    outer loop
      vertex -0.07615223689149758 1.1238477660887345 5
      vertex 0 1.2000000029802322 5
      vertex -0.10172202845773257 1.1462718714559534 5
    endloop
  endfacet
  facet normal 0 0 1
    outer loop
      vertex -0.22606319002278652 1.1977756669374229 5
      vertex 0 1.2000000029802322 5
      vertex -0.25356961359218577 1.2000000029802322 5
    endloop
  endfacet
  facet normal 0 0 1
    outer loop
      vertex -0.22606319002278652 1.1977756669374229 5
      vertex -0.19270704827334456 1.19114071781539 5
      vertex 0 1.2000000029802322 5
    endloop
  endfacet
  facet normal 0 0 1
    outer loop
      vertex -0.19270704827334456 1.19114071781539 5
      vertex -0.1605023075850766 1.1802086814331667 5
      vertex 0 1.2000000029802322 5
    endloop
  endfacet
  facet normal 0 0 1
    outer loop
      vertex -0.12999999999999992 1.1651666079641863 5
      vertex -0.10172202845773257 1.1462718714559534 5
      vertex 0 1.2000000029802322 5
    endloop
  endfacet
  facet normal 0 0 1
    outer loop
      vertex -0.1605023075850766 1.1802086814331667 5
      vertex -0.12999999999999992 1.1651666079641863 5
      vertex 0 1.2000000029802322 5
    endloop
  endfacet
  facet normal 0 0 1
    outer loop
      vertex -0.034833395016045876 1.0700000029802321 5
      vertex 0 1.2000000029802322 5
      vertex -0.0537281315242788 1.0982779745224995 5
    endloop
  endfacet
  facet normal 0 0 -1
    outer loop
      vertex -0.0022243360428092496 0.9739368129574456 15
      vertex 0 1.2000000029802322 15
      vertex 0 0.9464303893880455 15
    endloop
  endfacet
  facet normal 0 0 -1
    outer loop
      vertex -0.0022243360428092496 0.9739368129574456 15
      vertex -0.00885928516484219 1.0072929547068876 15
      vertex 0 1.2000000029802322 15
    endloop
  endfacet
  facet normal 0 0 -1
    outer loop
      vertex -0.00885928516484219 1.0072929547068876 15
      vertex -0.019791321547065394 1.0394976953951556 15
      vertex 0 1.2000000029802322 15
    endloop
  endfacet
  facet normal 0 0 -1
    outer loop
      vertex -0.034833395016045876 1.0700000029802321 15
      vertex 0 1.2000000029802322 15
      vertex -0.019791321547065394 1.0394976953951556 15
    endloop
  endfacet
  facet normal 0 0 -1
    outer loop
      vertex -0.07615223689149758 1.1238477660887345 15
      vertex 0 1.2000000029802322 15
      vertex -0.0537281315242788 1.0982779745224995 15
    endloop
  endfacet
  facet normal 0 0 -1
    outer loop
      vertex -0.07615223689149758 1.1238477660887345 15
      vertex -0.10172202845773257 1.1462718714559534 15
      vertex 0 1.2000000029802322 15
    endloop
  endfacet
  facet normal 0 0 -1
    outer loop
      vertex -0.22606319002278652 1.1977756669374229 15
      vertex -0.25356961359218577 1.2000000029802322 15
      vertex 0 1.2000000029802322 15
    endloop
  endfacet
  facet normal 0 0 -1
    outer loop
      vertex -0.22606319002278652 1.1977756669374229 15
      vertex 0 1.2000000029802322 15
      vertex -0.19270704827334456 1.19114071781539 15
    endloop
  endfacet
  facet normal 0 0 -1
    outer loop
      vertex -0.19270704827334456 1.19114071781539 15
      vertex 0 1.2000000029802322 15
      vertex -0.1605023075850766 1.1802086814331667 15
    endloop
  endfacet
  facet normal 0 0 -1
    outer loop
      vertex -0.12999999999999992 1.1651666079641863 15
      vertex 0 1.2000000029802322 15
      vertex -0.10172202845773257 1.1462718714559534 15
    endloop
  endfacet
  facet normal 0 0 -1
    outer loop
      vertex -0.1605023075850766 1.1802086814331667 15
      vertex 0 1.2000000029802322 15
      vertex -0.12999999999999992 1.1651666079641863 15
    endloop
  endfacet
  facet normal 0 0 -1
    outer loop
      vertex -0.034833395016045876 1.0700000029802321 15
      vertex -0.0537281315242788 1.0982779745224995 15
      vertex 0 1.2000000029802322 15
    endloop
  endfacet
  facet normal 0.9967462894559154 0.08060294322085595 -7.585978362077354e-21
    outer loop
      vertex -0.0022243360428092496 0.9739368129574456 5
      vertex 0 0.9464303893880455 15
      vertex 0 0.9464303893880455 5
    endloop
  endfacet
  facet normal 0.9807852804032304 0.19509032201612775 0
    outer loop
      vertex -0.0022243360428092496 0.9739368129574456 5
      vertex -0.00885928516484219 1.0072929547068876 5
      vertex -0.0022243360428092496 0.9739368129574456 15
    endloop
  endfacet
  facet normal 0.9469301294951057 0.3214394653031617 0
    outer loop
      vertex -0.00885928516484219 1.0072929547068876 5
      vertex -0.019791321547065394 1.0394976953951556 5
      vertex -0.00885928516484219 1.0072929547068876 15
    endloop
  endfacet
  facet normal 0.08060294322086255 0.9967462894559148 0
    outer loop
      vertex -0.22606319002278652 1.1977756669374229 5
      vertex -0.25356961359218577 1.2000000029802322 5
      vertex -0.22606319002278652 1.1977756669374229 15
    endloop
  endfacet
  facet normal 0.19509032201612336 0.9807852804032314 -3.4318739864936766e-20
    outer loop
      vertex -0.22606319002278652 1.1977756669374229 5
      vertex -0.19270704827334456 1.19114071781539 15
      vertex -0.19270704827334456 1.19114071781539 5
    endloop
  endfacet
  facet normal 0.8314696123025453 0.555570233019602 0
    outer loop
      vertex -0.034833395016045876 1.0700000029802321 5
      vertex -0.0537281315242788 1.0982779745224995 5
      vertex -0.034833395016045876 1.0700000029802321 15
    endloop
  endfacet
  facet normal 0.7518398074789769 0.6593458151000693 3.01225049364412e-20
    outer loop
      vertex -0.07615223689149758 1.1238477660887345 5
      vertex -0.0537281315242788 1.0982779745224995 15
      vertex -0.0537281315242788 1.0982779745224995 5
    endloop
  endfacet
  facet normal 0.8968727415326879 0.4422886902190019 7.954796711923004e-20
    outer loop
      vertex -0.034833395016045876 1.0700000029802321 5
      vertex -0.019791321547065394 1.0394976953951556 15
      vertex -0.019791321547065394 1.0394976953951556 5
    endloop
  endfacet
  facet normal 0.5555702330196004 0.8314696123025463 -1.3428210429209067e-19
    outer loop
      vertex -0.12999999999999992 1.1651666079641863 5
      vertex -0.10172202845773257 1.1462718714559534 15
      vertex -0.10172202845773257 1.1462718714559534 5
    endloop
  endfacet
  facet normal 0.6593458151000717 0.7518398074789749 0
    outer loop
      vertex -0.07615223689149758 1.1238477660887345 5
      vertex -0.10172202845773257 1.1462718714559534 5
      vertex -0.07615223689149758 1.1238477660887345 15
    endloop
  endfacet
  facet normal 0.4422886902189997 0.896872741532689 -6.239873307366868e-20
    outer loop
      vertex -0.1605023075850766 1.1802086814331667 5
      vertex -0.12999999999999992 1.1651666079641863 15
      vertex -0.12999999999999992 1.1651666079641863 5
    endloop
  endfacet
  facet normal 0.32143946530316675 0.9469301294951039 -1.1828083172257561e-20
    outer loop
      vertex -0.19270704827334456 1.19114071781539 5
      vertex -0.1605023075850766 1.1802086814331667 15
      vertex -0.1605023075850766 1.1802086814331667 5
    endloop
  endfacet
  facet normal 0.9967462894559154 0.08060294322085595 0
    outer loop
      vertex -0.0022243360428092496 0.9739368129574456 5
      vertex -0.0022243360428092496 0.9739368129574456 15
      vertex 0 0.9464303893880455 15
    endloop
  endfacet
  facet normal 0.9807852804032304 0.19509032201612775 0
    outer loop
      vertex -0.00885928516484219 1.0072929547068876 5
      vertex -0.00885928516484219 1.0072929547068876 15
      vertex -0.0022243360428092496 0.9739368129574456 15
    endloop
  endfacet
  facet normal 0.9469301294951057 0.3214394653031617 0
    outer loop
      vertex -0.019791321547065394 1.0394976953951556 5
      vertex -0.019791321547065394 1.0394976953951556 15
      vertex -0.00885928516484219 1.0072929547068876 15
    endloop
  endfacet
  facet normal 0.08060294322086255 0.9967462894559148 1.4094411417072118e-20
    outer loop
      vertex -0.22606319002278652 1.1977756669374229 15
      vertex -0.25356961359218577 1.2000000029802322 5
      vertex -0.25356961359218577 1.2000000029802322 15
    endloop
  endfacet
  facet normal 0.19509032201612336 0.9807852804032314 0
    outer loop
      vertex -0.22606319002278652 1.1977756669374229 5
      vertex -0.22606319002278652 1.1977756669374229 15
      vertex -0.19270704827334456 1.19114071781539 15
    endloop
  endfacet
  facet normal 0.8314696123025453 0.555570233019602 -1.6567237607083727e-20
    outer loop
      vertex -0.034833395016045876 1.0700000029802321 15
      vertex -0.0537281315242788 1.0982779745224995 5
      vertex -0.0537281315242788 1.0982779745224995 15
    endloop
  endfacet
  facet normal 0.7518398074789769 0.6593458151000693 0
    outer loop
      vertex -0.07615223689149758 1.1238477660887345 5
      vertex -0.07615223689149758 1.1238477660887345 15
      vertex -0.0537281315242788 1.0982779745224995 15
    endloop
  endfacet
  facet normal 0.8968727415326879 0.4422886902190019 0
    outer loop
      vertex -0.034833395016045876 1.0700000029802321 5
      vertex -0.034833395016045876 1.0700000029802321 15
      vertex -0.019791321547065394 1.0394976953951556 15
    endloop
  endfacet
  facet normal 0.5555702330196004 0.8314696123025463 0
    outer loop
      vertex -0.12999999999999992 1.1651666079641863 5
      vertex -0.12999999999999992 1.1651666079641863 15
      vertex -0.10172202845773257 1.1462718714559534 15
    endloop
  endfacet
  facet normal 0.6593458151000717 0.7518398074789749 0
    outer loop
      vertex -0.10172202845773257 1.1462718714559534 5
      vertex -0.10172202845773257 1.1462718714559534 15
      vertex -0.07615223689149758 1.1238477660887345 15
    endloop
  endfacet
  facet normal 0.4422886902189997 0.896872741532689 0
    outer loop
      vertex -0.1605023075850766 1.1802086814331667 5
      vertex -0.1605023075850766 1.1802086814331667 15
      vertex -0.12999999999999992 1.1651666079641863 15
    endloop
  endfacet
  facet normal 0.32143946530316675 0.9469301294951039 0
    outer loop
      vertex -0.19270704827334456 1.19114071781539 5
      vertex -0.19270704827334456 1.19114071781539 15
      vertex -0.1605023075850766 1.1802086814331667 15
    endloop
  endfacet
  facet normal 0 -1 0
    outer loop
      vertex -8 -4 0
      vertex 12 -4 0
      vertex -8 -4 20
    endloop
  endfacet
  facet normal 0 0 -1
    outer loop
      vertex -8 -4 0
      vertex 0.9344565346837044 0 0
      vertex 12 -4 0
    endloop
  endfacet
  facet normal -1 0 0
    outer loop
      vertex -8 -4 0
      vertex -8 -4 20
      vertex -8 1.2000000029802322 20
    endloop
  endfacet
  facet normal 0 0 1
    outer loop
      vertex -8 -4 20
      vertex 12 -4 20
      vertex 0.9344565346837044 0 20
    endloop
  endfacet
  facet normal 0 0 -1
    outer loop
      vertex -8 -4 0
      vertex -8 1.2000000029802322 0
      vertex 0 0.9344565346837044 0
    endloop
  endfacet
  facet normal -1 0 0
    outer loop
      vertex -8 -4 0
      vertex -8 1.2000000029802322 20
      vertex -8 1.2000000029802322 0
    endloop
  endfacet
  facet normal 0 0 -1
    outer loop
      vertex -8 -4 0
      vertex 0.3392394483089447 0.24654699116945267 0
      vertex 0.44323769956827164 0.1667463257908821 0
    endloop
  endfacet
  facet normal 0 0 -1
    outer loop
      vertex -8 -4 0
      vertex 0.24654699116945267 0.3392394483089447 0
      vertex 0.3392394483089447 0.24654699116945267 0
    endloop
  endfacet
  facet normal 0 0 -1
    outer loop
      vertex -8 -4 0
      vertex 0.8044910803437233 0.017110280692577362 0
      vertex 0.9344565346837044 0 0
    endloop
  endfacet
  facet normal 0 0 -1
    outer loop
      vertex -8 -4 0
      vertex 0.5567623004317284 0.10120286792516708 0
      vertex 0.6778708323836327 0.051038071513175964 0
    endloop
  endfacet
  facet normal 0 0 -1
    outer loop
      vertex -8 -4 0
      vertex 0.44323769956827164 0.1667463257908821 0
      vertex 0.5567623004317284 0.10120286792516708 0
    endloop
  endfacet
  facet normal 0 0 -1
    outer loop
      vertex -8 -4 0
      vertex 0.6778708323836327 0.051038071513175964 0
      vertex 0.8044910803437233 0.017110280692577362 0
    endloop
  endfacet
  facet normal 0 0 -1
    outer loop
      vertex -8 -4 0
      vertex 0.10120286792516708 0.5567623004317284 0
      vertex 0.1667463257908821 0.44323769956827164 0
    endloop
  endfacet
  facet normal 0 0 -1
    outer loop
      vertex -8 -4 0
      vertex 0.1667463257908821 0.44323769956827164 0
      vertex 0.24654699116945267 0.3392394483089447 0
    endloop
  endfacet
  facet normal 0 0 -1
    outer loop
      vertex -8 -4 0
      vertex 0.051038071513175964 0.6778708323836327 0
      vertex 0.10120286792516708 0.5567623004317284 0
    endloop
  endfacet
  facet normal 0 0 -1
    outer loop
      vertex -8 -4 0
      vertex 0.017110280692577362 0.8044910803437233 0
      vertex 0.051038071513175964 0.6778708323836327 0
    endloop
  endfacet
  facet normal 0 0 -1
    outer loop
      vertex -8 -4 0
      vertex 0 0.9344565346837044 0
      vertex 0.017110280692577362 0.8044910803437233 0
    endloop
  endfacet
  facet normal 0 0 -1
    outer loop
      vertex -8 1.2000000029802322 0
      vertex 0 1.2000000029802322 0
      vertex 0 0.9344565346837044 0
    endloop
  endfacet
  facet normal 0 1 0
    outer loop
      vertex -8 1.2000000029802322 0
      vertex -0.25356961359218577 1.2000000029802322 5
      vertex 0 1.2000000029802322 0
    endloop
  endfacet
  facet normal 1 0 0
    outer loop
      vertex 0 0.9344565346837044 0
      vertex 0 1.2000000029802322 0
      vertex 0 0.9464303893880455 5
    endloop
  endfacet
  facet normal 1 0 0
    outer loop
      vertex 0 1.2000000029802322 0
      vertex 0 1.2000000029802322 5
      vertex 0 0.9464303893880455 5
    endloop
  endfacet
  facet normal 0 1 0
    outer loop
      vertex 0 1.2000000029802322 0
      vertex -0.25356961359218577 1.2000000029802322 5
      vertex 0 1.2000000029802322 5
    endloop
  endfacet
  facet normal 0 1 0
    outer loop
      vertex -8 1.2000000029802322 0
      vertex -0.25356961359218577 1.2000000029802322 15
      vertex -0.25356961359218577 1.2000000029802322 5
    endloop
  endfacet
  facet normal 0.6087614313358576 0.7933533385055602 0
    outer loop
      vertex 0.44323769956827164 0.1667463257908821 0
      vertex 0.3392394483089447 0.24654699116945267 0
      vertex 0.44323769956827164 0.1667463257908821 20
    endloop
  endfacet
  facet normal 0.4999999942646076 0.8660254070957689 0
    outer loop
      vertex 0.5567623004317284 0.10120286792516708 0
      vertex 0.44323769956827164 0.1667463257908821 0
      vertex 0.5567623004317284 0.10120286792516708 20
    endloop
  endfacet
  facet normal 0.38268343209432837 0.9238795326234398 0
    outer loop
      vertex 0.6778708323836327 0.051038071513175964 0
      vertex 0.5567623004317284 0.10120286792516708 0
      vertex 0.6778708323836327 0.051038071513175964 20
    endloop
  endfacet
  facet normal 0.7071067811865476 0.7071067811865476 0
    outer loop
      vertex 0.3392394483089447 0.24654699116945267 0
      vertex 0.24654699116945267 0.3392394483089447 0
      vertex 0.3392394483089447 0.24654699116945267 20
    endloop
  endfacet
  facet normal 0.7933533385055602 0.6087614313358576 0
    outer loop
      vertex 0.24654699116945267 0.3392394483089447 0
      vertex 0.1667463257908821 0.44323769956827164 0
      vertex 0.24654699116945267 0.3392394483089447 20
    endloop
  endfacet
  facet normal 0.8660254070957689 0.4999999942646076 0
    outer loop
      vertex 0.1667463257908821 0.44323769956827164 0
      vertex 0.10120286792516708 0.5567623004317284 0
      vertex 0.1667463257908821 0.44323769956827164 20
    endloop
  endfacet
  facet normal 0.1305262224290296 0.9914448573967226 0
    outer loop
      vertex 0.8044910803437233 0.017110280692577362 0
      vertex 0.9344565346837044 0 20
      vertex 0.9344565346837044 0 0
    endloop
  endfacet
  facet normal 0.25881902826436615 0.965925830800838 0
    outer loop
      vertex 0.6778708323836327 0.051038071513175964 0
      vertex 0.8044910803437233 0.017110280692577362 20
      vertex 0.8044910803437233 0.017110280692577362 0
    endloop
  endfacet
  facet normal 0.9238795326234398 0.38268343209432837 0
    outer loop
      vertex 0.10120286792516708 0.5567623004317284 0
      vertex 0.051038071513175964 0.6778708323836327 0
      vertex 0.10120286792516708 0.5567623004317284 20
    endloop
  endfacet
  facet normal 0.965925830800838 0.25881902826436615 0
    outer loop
      vertex 0.051038071513175964 0.6778708323836327 0
      vertex 0.017110280692577362 0.8044910803437233 0
      vertex 0.051038071513175964 0.6778708323836327 20
    endloop
  endfacet
  facet normal 0.9914448573967226 0.1305262224290296 0
    outer loop
      vertex 0.017110280692577362 0.8044910803437233 0
      vertex 0 0.9344565346837044 0
      vertex 0.017110280692577362 0.8044910803437233 20
    endloop
  endfacet
  facet normal 1 0 0
    outer loop
      vertex 0 0.9344565346837044 0
      vertex 0 0.9464303893880455 5
      vertex 0 0.9464303893880455 15
    endloop
  endfacet
  facet normal 0 0 1
    outer loop
      vertex -8 -4 20
      vertex 0 0.9344565346837044 20
      vertex -8 1.2000000029802322 20
    endloop
  endfacet
  facet normal 0 1 0
    outer loop
      vertex -8 1.2000000029802322 0
      vertex -8 1.2000000029802322 20
      vertex 0 1.2000000029802322 20
    endloop
  endfacet
  facet normal 0 0 1
    outer loop
      vertex -8 -4 20
      vertex 0.44323769956827164 0.1667463257908821 20
      vertex 0.3392394483089447 0.24654699116945267 20
    endloop
  endfacet
  facet normal 0 0 1
    outer loop
      vertex -8 -4 20
      vertex 0.3392394483089447 0.24654699116945267 20
      vertex 0.24654699116945267 0.3392394483089447 20
    endloop
  endfacet
  facet normal 0 0 1
    outer loop
      vertex -8 -4 20
      vertex 0.9344565346837044 0 20
      vertex 0.8044910803437233 0.017110280692577362 20
    endloop
  endfacet
  facet normal 0 0 1
    outer loop
      vertex -8 -4 20
      vertex 0.6778708323836327 0.051038071513175964 20
      vertex 0.5567623004317284 0.10120286792516708 20
    endloop
  endfacet
  facet normal 0 0 1
    outer loop
      vertex -8 -4 20
      vertex 0.5567623004317284 0.10120286792516708 20
      vertex 0.44323769956827164 0.1667463257908821 20
    endloop
  endfacet
  facet normal 0 0 1
    outer loop
      vertex -8 -4 20
      vertex 0.8044910803437233 0.017110280692577362 20
      vertex 0.6778708323836327 0.051038071513175964 20
    endloop
  endfacet
  facet normal 0 0 1
    outer loop
      vertex -8 -4 20
      vertex 0.1667463257908821 0.44323769956827164 20
      vertex 0.10120286792516708 0.5567623004317284 20
    endloop
  endfacet
  facet normal 0 0 1
    outer loop
      vertex -8 -4 20
      vertex 0.24654699116945267 0.3392394483089447 20
      vertex 0.1667463257908821 0.44323769956827164 20
    endloop
  endfacet
  facet normal 0 0 1
    outer loop
      vertex -8 -4 20
      vertex 0.10120286792516708 0.5567623004317284 20
      vertex 0.051038071513175964 0.6778708323836327 20
    endloop
  endfacet
  facet normal 0 0 1
    outer loop
      vertex -8 -4 20
      vertex 0.051038071513175964 0.6778708323836327 20
      vertex 0.017110280692577362 0.8044910803437233 20
    endloop
  endfacet
  facet normal 0 0 1
    outer loop
      vertex -8 -4 20
      vertex 0.017110280692577362 0.8044910803437233 20
      vertex 0 0.9344565346837044 20
    endloop
  endfacet
  facet normal 0 1 0
    outer loop
      vertex -8 1.2000000029802322 0
      vertex 0 1.2000000029802322 20
      vertex -0.25356961359218577 1.2000000029802322 15
    endloop
  endfacet
  facet normal 0.25881902826436615 0.965925830800838 0
    outer loop
      vertex 0.6778708323836327 0.051038071513175964 0
      vertex 0.6778708323836327 0.051038071513175964 20
      vertex 0.8044910803437233 0.017110280692577362 20
    endloop
  endfacet
  facet normal 0.6087614313358576 0.7933533385055602 0
    outer loop
      vertex 0.3392394483089447 0.24654699116945267 0
      vertex 0.3392394483089447 0.24654699116945267 20
      vertex 0.44323769956827164 0.1667463257908821 20
    endloop
  endfacet
  facet normal 0.38268343209432837 0.9238795326234398 0
    outer loop
      vertex 0.5567623004317284 0.10120286792516708 0
      vertex 0.5567623004317284 0.10120286792516708 20
      vertex 0.6778708323836327 0.051038071513175964 20
    endloop
  endfacet
  facet normal 0.4999999942646076 0.8660254070957689 0
    outer loop
      vertex 0.44323769956827164 0.1667463257908821 0
      vertex 0.44323769956827164 0.1667463257908821 20
      vertex 0.5567623004317284 0.10120286792516708 20
    endloop
  endfacet
  facet normal 0.8660254070957689 0.4999999942646076 0
    outer loop
      vertex 0.10120286792516708 0.5567623004317284 0
      vertex 0.10120286792516708 0.5567623004317284 20
      vertex 0.1667463257908821 0.44323769956827164 20
    endloop
  endfacet
  facet normal 0.7071067811865476 0.7071067811865476 0
    outer loop
      vertex 0.24654699116945267 0.3392394483089447 0
      vertex 0.24654699116945267 0.3392394483089447 20
      vertex 0.3392394483089447 0.24654699116945267 20
    endloop
  endfacet
  facet normal 0.7933533385055602 0.6087614313358576 0
    outer loop
      vertex 0.1667463257908821 0.44323769956827164 0
      vertex 0.1667463257908821 0.44323769956827164 20
      vertex 0.24654699116945267 0.3392394483089447 20
    endloop
  endfacet
  facet normal 0.1305262224290296 0.9914448573967226 0
    outer loop
      vertex 0.8044910803437233 0.017110280692577362 0
      vertex 0.8044910803437233 0.017110280692577362 20
      vertex 0.9344565346837044 0 20
    endloop
  endfacet
  facet normal 1 0 0
    outer loop
      vertex 0 0.9344565346837044 0
      vertex 0 0.9464303893880455 15
      vertex 0 0.9344565346837044 20
    endloop
  endfacet
  facet normal 0.9238795326234398 0.38268343209432837 0
    outer loop
      vertex 0.051038071513175964 0.6778708323836327 0
      vertex 0.051038071513175964 0.6778708323836327 20
      vertex 0.10120286792516708 0.5567623004317284 20
    endloop
  endfacet
  facet normal 0.965925830800838 0.25881902826436615 0
    outer loop
      vertex 0.017110280692577362 0.8044910803437233 0
      vertex 0.017110280692577362 0.8044910803437233 20
      vertex 0.051038071513175964 0.6778708323836327 20
    endloop
  endfacet
  facet normal 0.9914448573967226 0.1305262224290296 0
    outer loop
      vertex 0 0.9344565346837044 0
      vertex 0 0.9344565346837044 20
      vertex 0.017110280692577362 0.8044910803437233 20
    endloop
  endfacet
  facet normal 0 0 1
    outer loop
      vertex -8 1.2000000029802322 20
      vertex 0 0.9344565346837044 20
      vertex 0 1.2000000029802322 20
    endloop
  endfacet
  facet normal 1 0 0
    outer loop
      vertex 0 0.9344565346837044 20
      vertex 0 0.9464303893880455 15
      vertex 0 1.2000000029802322 15
    endloop
  endfacet
  facet normal 0 1 0
    outer loop
      vertex 0 1.2000000029802322 20
      vertex 0 1.2000000029802322 15
      vertex -0.25356961359218577 1.2000000029802322 15
    endloop
  endfacet
  facet normal 1 0 0
    outer loop
      vertex 0 0.9344565346837044 20
      vertex 0 1.2000000029802322 15
      vertex 0 1.2000000029802322 20
    endloop
  endfacet
  facet normal 1 0 0
    outer loop
      vertex 12 -4 0
      vertex 12 0 0
      vertex 12 -4 20
    endloop
  endfacet
  facet normal 0 -1 0
    outer loop
      vertex -8 -4 20
      vertex 12 -4 0
      vertex 12 -4 20
    endloop
  endfacet
  facet normal 0 0 -1
    outer loop
      vertex 0.9344565346837044 0 0
      vertex 12 0 0
      vertex 12 -4 0
    endloop
  endfacet
  facet normal 0 1 0
    outer loop
      vertex 0.9344565346837044 0 0
      vertex 12 0 20
      vertex 12 0 0
    endloop
  endfacet
  facet normal 0 1 0
    outer loop
      vertex 0.9344565346837044 0 0
      vertex 0.9344565346837044 0 20
      vertex 12 0 20
    endloop
  endfacet
  facet normal 1 0 0
    outer loop
      vertex 12 -4 20
      vertex 12 0 0
      vertex 12 0 20
    endloop
  endfacet
  facet normal 0 0 1
    outer loop
      vertex 0.9344565346837044 0 20
      vertex 12 -4 20
      vertex 12 0 20
    endloop
  endfacet
endsolid OpenSCAD_Model
