solid OpenSCAD_Model
  facet normal 0 0 1
    outer loop
      vertex -0.08694738077799483 1.1991444891176133 5
      vertex 0 1.2000000029802322 5
      vertex -0.09752677445853274 1.2000000029802322 5
    endloop
  endfacet
  facet normal 0 0 1
    outer loop
      vertex -0.08694738077799483 1.1991444891176133 5
      vertex -0.07411809548974792 1.196592585609139 5
      vertex 0 1.2000000029802322 5
    endloop
  endfacet
  facet normal 0 0 1
    outer loop
      vertex -0.061731656763491 1.1923879562313608 5
      vertex -0.049999999999999975 1.186602543358676 5
      vertex 0 1.2000000029802322 5
    endloop
  endfacet
  facet normal 0 0 1
    outer loop
      vertex -0.07411809548974792 1.196592585609139 5
      vertex -0.061731656763491 1.1923879562313608 5
      vertex 0 1.2000000029802322 5
    endloop
  endfacet
  facet normal 0 0 1
    outer loop
      vertex -0.0008555138626189507 1.1130526222022372 5
      vertex 0 1.1024732285216985 5
      vertex 0 1.2000000029802322 5
    endloop
  endfacet
  facet normal 0 0 1
    outer loop
      vertex -0.0008555138626189507 1.1130526222022372 5
      vertex 0 1.2000000029802322 5
      vertex -0.003407417371093152 1.1258819074904842 5
    endloop
  endfacet
  facet normal 0 0 1
    outer loop
      vertex -0.003407417371093152 1.1258819074904842 5
      vertex 0 1.2000000029802322 5
      vertex -0.0076120467488713095 1.1382683462167411 5
    endloop
  endfacet
  facet normal 0 0 1
    outer loop
      vertex -0.013397459621556113 1.1500000029802322 5
      vertex -0.0076120467488713095 1.1382683462167411 5
      vertex 0 1.2000000029802322 5
    endloop
  endfacet
  facet normal 0 0 1
    outer loop
      vertex -0.029289321881345226 1.170710681098887 5
      vertex -0.020664665970876475 1.160876145881104 5
      vertex 0 1.2000000029802322 5
    endloop
  endfacet
  facet normal 0 0 1
    outer loop
      vertex -0.013397459621556113 1.1500000029802322 5
      vertex 0 1.2000000029802322 5
      vertex -0.020664665970876475 1.160876145881104 5
    endloop
  endfacet
  facet normal 0 0 1
    outer loop
      vertex -0.029289321881345226 1.170710681098887 5
      vertex 0 1.2000000029802322 5
      vertex -0.039123857099127926 1.1793353370093556 5
    endloop
  endfacet
  facet normal 0 0 1
    outer loop
      vertex -0.049999999999999975 1.186602543358676 5
      vertex -0.039123857099127926 1.1793353370093556 5
      vertex 0 1.2000000029802322 5
    endloop
  endfacet
  facet normal 0 0 -1
    outer loop
      vertex -0.08694738077799483 1.1991444891176133 15
      vertex -0.09752677445853274 1.2000000029802322 15
      vertex 0 1.2000000029802322 15
    endloop
  endfacet
  facet normal 0 0 -1
    outer loop
      vertex -0.08694738077799483 1.1991444891176133 15
      vertex 0 1.2000000029802322 15
      vertex -0.07411809548974792 1.196592585609139 15
    endloop
  endfacet
  facet normal 0 0 -1
    outer loop
      vertex -0.061731656763491 1.1923879562313608 15
      vertex 0 1.2000000029802322 15
      vertex -0.049999999999999975 1.186602543358676 15
    endloop
  endfacet
  facet normal 0 0 -1
    outer loop
      vertex -0.07411809548974792 1.196592585609139 15
      vertex 0 1.2000000029802322 15
      vertex -0.061731656763491 1.1923879562313608 15
    endloop
  endfacet
  facet normal 0 0 -1
    outer loop
      vertex -0.0008555138626189507 1.1130526222022372 15
      vertex 0 1.2000000029802322 15
      vertex 0 1.1024732285216985 15
    endloop
  endfacet
  facet normal 0 0 -1
    outer loop
      vertex -0.0008555138626189507 1.1130526222022372 15
      vertex -0.003407417371093152 1.1258819074904842 15
      vertex 0 1.2000000029802322 15
    endloop
  endfacet
  facet normal 0 0 -1
    outer loop
      vertex -0.003407417371093152 1.1258819074904842 15
      vertex -0.0076120467488713095 1.1382683462167411 15
      vertex 0 1.2000000029802322 15
    endloop
  endfacet
  facet normal 0 0 -1
    outer loop
      vertex -0.013397459621556113 1.1500000029802322 15
      vertex 0 1.2000000029802322 15
      vertex -0.0076120467488713095 1.1382683462167411 15
    endloop
  endfacet
  facet normal 0 0 -1
    outer loop
      vertex -0.029289321881345226 1.170710681098887 15
      vertex 0 1.2000000029802322 15
      vertex -0.020664665970876475 1.160876145881104 15
    endloop
  endfacet
  facet normal 0 0 -1
    outer loop
      vertex -0.013397459621556113 1.1500000029802322 15
      vertex -0.020664665970876475 1.160876145881104 15
      vertex 0 1.2000000029802322 15
    endloop
  endfacet
  facet normal 0 0 -1
    outer loop
      vertex -0.029289321881345226 1.170710681098887 15
      vertex -0.039123857099127926 1.1793353370093556 15
      vertex 0 1.2000000029802322 15
    endloop
  endfacet
  facet normal 0 0 -1
    outer loop
      vertex -0.049999999999999975 1.186602543358676 15
      vertex 0 1.2000000029802322 15
      vertex -0.039123857099127926 1.1793353370093556 15
    endloop
  endfacet
  facet normal 0.9967462894559155 0.08060294322085515 2.837099650144779e-21
    outer loop
      vertex -0.0008555138626189507 1.1130526222022372 5
      vertex 0 1.1024732285216985 15
      vertex 0 1.1024732285216985 5
    endloop
  endfacet
  facet normal 0.9807852804032309 0.19509032201612617 0
    outer loop
      vertex -0.0008555138626189507 1.1130526222022372 5
      vertex -0.003407417371093152 1.1258819074904842 5
      vertex -0.0008555138626189507 1.1130526222022372 15
    endloop
  endfacet
  facet normal 0.65934581510006 0.751839807478985 0
    outer loop
      vertex -0.029289321881345226 1.170710681098887 5
      vertex -0.039123857099127926 1.1793353370093556 5
      vertex -0.029289321881345226 1.170710681098887 15
    endloop
  endfacet
  facet normal 0.08060294322086134 0.9967462894559149 0
    outer loop
      vertex -0.08694738077799483 1.1991444891176133 5
      vertex -0.09752677445853274 1.2000000029802322 5
      vertex -0.08694738077799483 1.1991444891176133 15
    endloop
  endfacet
  facet normal 0.1950903220161296 0.9807852804032301 2.3494385534664846e-20
    outer loop
      vertex -0.08694738077799483 1.1991444891176133 5
      vertex -0.07411809548974792 1.196592585609139 15
      vertex -0.07411809548974792 1.196592585609139 5
    endloop
  endfacet
  facet normal 0.44228869021900413 0.896872741532687 -3.6201704293066825e-20
    outer loop
      vertex -0.061731656763491 1.1923879562313608 5
      vertex -0.049999999999999975 1.186602543358676 15
      vertex -0.049999999999999975 1.186602543358676 5
    endloop
  endfacet
  facet normal 0.5555702330196072 0.8314696123025419 -2.7916666611628455e-21
    outer loop
      vertex -0.049999999999999975 1.186602543358676 5
      vertex -0.039123857099127926 1.1793353370093556 15
      vertex -0.039123857099127926 1.1793353370093556 5
    endloop
  endfacet
  facet normal 0.32143946530316536 0.9469301294951045 2.272719110793331e-20
    outer loop
      vertex -0.07411809548974792 1.196592585609139 5
      vertex -0.061731656763491 1.1923879562313608 15
      vertex -0.061731656763491 1.1923879562313608 5
    endloop
  endfacet
  facet normal 0.9469301294951055 0.3214394653031622 0
    outer loop
      vertex -0.003407417371093152 1.1258819074904842 5
      vertex -0.0076120467488713095 1.1382683462167411 5
      vertex -0.003407417371093152 1.1258819074904842 15
    endloop
  endfacet
  facet normal 0.8968727415326896 0.442288690218999 6.634441455301531e-22
    outer loop
      vertex -0.013397459621556113 1.1500000029802322 5
      vertex -0.0076120467488713095 1.1382683462167411 15
      vertex -0.0076120467488713095 1.1382683462167411 5
    endloop
  endfacet
  facet normal 0.8314696123025411 0.5555702330196084 0
    outer loop
      vertex -0.013397459621556113 1.1500000029802322 5
      vertex -0.020664665970876475 1.160876145881104 5
      vertex -0.013397459621556113 1.1500000029802322 15
    endloop
  endfacet
  facet normal 0.7518398074789843 0.6593458151000611 -3.42113742793567e-20
    outer loop
      vertex -0.029289321881345226 1.170710681098887 5
      vertex -0.020664665970876475 1.160876145881104 15
      vertex -0.020664665970876475 1.160876145881104 5
    endloop
  endfacet
  facet normal 0.9967462894559155 0.08060294322085515 0
    outer loop
      vertex -0.0008555138626189507 1.1130526222022372 5
      vertex -0.0008555138626189507 1.1130526222022372 15
      vertex 0 1.1024732285216985 15
    endloop
  endfacet
  facet normal 0.65934581510006 0.751839807478985 0
    outer loop
      vertex -0.039123857099127926 1.1793353370093556 5
      vertex -0.039123857099127926 1.1793353370093556 15
      vertex -0.029289321881345226 1.170710681098887 15
    endloop
  endfacet
  facet normal 0.08060294322086134 0.9967462894559149 -5.242180967842567e-21
    outer loop
      vertex -0.08694738077799483 1.1991444891176133 15
      vertex -0.09752677445853274 1.2000000029802322 5
      vertex -0.09752677445853274 1.2000000029802322 15
    endloop
  endfacet
  facet normal 0.1950903220161296 0.9807852804032301 0
    outer loop
      vertex -0.08694738077799483 1.1991444891176133 5
      vertex -0.08694738077799483 1.1991444891176133 15
      vertex -0.07411809548974792 1.196592585609139 15
    endloop
  endfacet
  facet normal 0.5555702330196072 0.8314696123025419 0
    outer loop
      vertex -0.049999999999999975 1.186602543358676 5
      vertex -0.049999999999999975 1.186602543358676 15
      vertex -0.039123857099127926 1.1793353370093556 15
    endloop
  endfacet
  facet normal 0.44228869021900413 0.896872741532687 0
    outer loop
      vertex -0.061731656763491 1.1923879562313608 5
      vertex -0.061731656763491 1.1923879562313608 15
      vertex -0.049999999999999975 1.186602543358676 15
    endloop
  endfacet
  facet normal 0.32143946530316536 0.9469301294951045 0
    outer loop
      vertex -0.07411809548974792 1.196592585609139 5
      vertex -0.07411809548974792 1.196592585609139 15
      vertex -0.061731656763491 1.1923879562313608 15
    endloop
  endfacet
  facet normal 0.9807852804032309 0.19509032201612617 0
    outer loop
      vertex -0.003407417371093152 1.1258819074904842 5
      vertex -0.003407417371093152 1.1258819074904842 15
      vertex -0.0008555138626189507 1.1130526222022372 15
    endloop
  endfacet
  facet normal 0.9469301294951055 0.3214394653031622 0
    outer loop
      vertex -0.0076120467488713095 1.1382683462167411 5
      vertex -0.0076120467488713095 1.1382683462167411 15
      vertex -0.003407417371093152 1.1258819074904842 15
    endloop
  endfacet
  facet normal 0.8968727415326896 0.442288690218999 0
    outer loop
      vertex -0.013397459621556113 1.1500000029802322 5
      vertex -0.013397459621556113 1.1500000029802322 15
      vertex -0.0076120467488713095 1.1382683462167411 15
    endloop
  endfacet
  facet normal 0.8314696123025411 0.5555702330196084 7.780940268221446e-21
    outer loop
      vertex -0.013397459621556113 1.1500000029802322 15
      vertex -0.020664665970876475 1.160876145881104 5
      vertex -0.020664665970876475 1.160876145881104 15
    endloop
  endfacet
  facet normal 0.7518398074789843 0.6593458151000611 0
    outer loop
      vertex -0.029289321881345226 1.170710681098887 5
      vertex -0.029289321881345226 1.170710681098887 15
      vertex -0.020664665970876475 1.160876145881104 15
    endloop
  endfacet
  facet normal 0 -1 0
    outer loop
      vertex -8 -4 0
      vertex 12 -4 0
      vertex -8 -4 20
    endloop
  endfacet
  facet normal 0 0 -1
    outer loop
      vertex -8 -4 0
      vertex 0.9344565346837044 0 0
      vertex 12 -4 0
    endloop
  endfacet
  facet normal -1 0 0
    outer loop
      vertex -8 -4 0
      vertex -8 -4 20
      vertex -8 1.2000000029802322 20
    endloop
  endfacet
  facet normal 0 0 1
    outer loop
      vertex -8 -4 20
      vertex 12 -4 20
      vertex 0.9344565346837044 0 20
    endloop
  endfacet
  facet normal 0 0 -1
    outer loop
      vertex -8 -4 0
      vertex -8 1.2000000029802322 0
      vertex 0 0.9344565346837044 0
    endloop
  endfacet
  facet normal -1 0 0
    outer loop
      vertex -8 -4 0
      vertex -8 1.2000000029802322 20
      vertex -8 1.2000000029802322 0
    endloop
  endfacet
  facet normal 0 0 -1
    outer loop
      vertex -8 -4 0
      vertex 0.3392394483089447 0.24654699116945267 0
      vertex 0.44323769956827164 0.1667463257908821 0
    endloop
  endfacet
  facet normal 0 0 -1
    outer loop
      vertex -8 -4 0
      vertex 0.24654699116945267 0.3392394483089447 0
      vertex 0.3392394483089447 0.24654699116945267 0
    endloop
  endfacet
  facet normal 0 0 -1
    outer loop
      vertex -8 -4 0
      vertex 0.8044910803437233 0.017110280692577362 0
      vertex 0.9344565346837044 0 0
    endloop
  endfacet
  facet normal 0 0 -1
    outer loop
      vertex -8 -4 0
      vertex 0.5567623004317284 0.10120286792516708 0
      vertex 0.6778708323836327 0.051038071513175964 0
    endloop
  endfacet
  facet normal 0 0 -1
    outer loop
      vertex -8 -4 0
      vertex 0.44323769956827164 0.1667463257908821 0
      vertex 0.5567623004317284 0.10120286792516708 0
    endloop
  endfacet
  facet normal 0 0 -1
    outer loop
      vertex -8 -4 0
      vertex 0.6778708323836327 0.051038071513175964 0
      vertex 0.8044910803437233 0.017110280692577362 0
    endloop
  endfacet
  facet normal 0 0 -1
    outer loop
      vertex -8 -4 0
      vertex 0.10120286792516708 0.5567623004317284 0
      vertex 0.1667463257908821 0.44323769956827164 0
    endloop
  endfacet
  facet normal 0 0 -1
    outer loop
      vertex -8 -4 0
      vertex 0.1667463257908821 0.44323769956827164 0
      vertex 0.24654699116945267 0.3392394483089447 0
    endloop
  endfacet
  facet normal 0 0 -1
    outer loop
      vertex -8 -4 0
      vertex 0.051038071513175964 0.6778708323836327 0
      vertex 0.10120286792516708 0.5567623004317284 0
    endloop
  endfacet
  facet normal 0 0 -1
    outer loop
      vertex -8 -4 0
      vertex 0.017110280692577362 0.8044910803437233 0
      vertex 0.051038071513175964 0.6778708323836327 0
    endloop
  endfacet
  facet normal 0 0 -1
    outer loop
      vertex -8 -4 0
      vertex 0 0.9344565346837044 0
      vertex 0.017110280692577362 0.8044910803437233 0
    endloop
  endfacet
  facet normal 0 0 -1
    outer loop
      vertex -8 1.2000000029802322 0
      vertex 0 1.2000000029802322 0
      vertex 0 0.9344565346837044 0
    endloop
  endfacet
  facet normal 0 1 0
    outer loop
      vertex -8 1.2000000029802322 0
      vertex -0.09752677445853274 1.2000000029802322 5
      vertex 0 1.2000000029802322 0
    endloop
  endfacet
  facet normal 1 0 0
    outer loop
      vertex 0 0.9344565346837044 0
      vertex 0 1.2000000029802322 0
      vertex 0 1.1024732285216985 5
    endloop
  endfacet
  facet normal 0 1 0
    outer loop
      vertex 0 1.2000000029802322 0
      vertex -0.09752677445853274 1.2000000029802322 5
      vertex 0 1.2000000029802322 5
    endloop
  endfacet
  facet normal 1 0 0
    outer loop
      vertex 0 1.2000000029802322 0
      vertex 0 1.2000000029802322 5
      vertex 0 1.1024732285216985 5
    endloop
  endfacet
  facet normal 0 1 0
    outer loop
      vertex -8 1.2000000029802322 0
      vertex -0.09752677445853274 1.2000000029802322 15
      vertex -0.09752677445853274 1.2000000029802322 5
    endloop
  endfacet
  facet normal 0.6087614313358576 0.7933533385055602 0
    outer loop
      vertex 0.44323769956827164 0.1667463257908821 0
      vertex 0.3392394483089447 0.24654699116945267 0
      vertex 0.44323769956827164 0.1667463257908821 20
    endloop
  endfacet
  facet normal 0.4999999942646076 0.8660254070957689 0
    outer loop
      vertex 0.5567623004317284 0.10120286792516708 0
      vertex 0.44323769956827164 0.1667463257908821 0
      vertex 0.5567623004317284 0.10120286792516708 20
    endloop
  endfacet
  facet normal 0.38268343209432837 0.9238795326234398 0
    outer loop
      vertex 0.6778708323836327 0.051038071513175964 0
      vertex 0.5567623004317284 0.10120286792516708 0
      vertex 0.6778708323836327 0.051038071513175964 20
    endloop
  endfacet
  facet normal 0.7071067811865476 0.7071067811865476 0
    outer loop
      vertex 0.3392394483089447 0.24654699116945267 0
      vertex 0.24654699116945267 0.3392394483089447 0
      vertex 0.3392394483089447 0.24654699116945267 20
    endloop
  endfacet
  facet normal 0.7933533385055602 0.6087614313358576 0
    outer loop
      vertex 0.24654699116945267 0.3392394483089447 0
      vertex 0.1667463257908821 0.44323769956827164 0
      vertex 0.24654699116945267 0.3392394483089447 20
    endloop
  endfacet
  facet normal 0.8660254070957689 0.4999999942646076 0
    outer loop
      vertex 0.1667463257908821 0.44323769956827164 0
      vertex 0.10120286792516708 0.5567623004317284 0
      vertex 0.1667463257908821 0.44323769956827164 20
    endloop
  endfacet
  facet normal 0.1305262224290296 0.9914448573967226 0
    outer loop
      vertex 0.8044910803437233 0.017110280692577362 0
      vertex 0.9344565346837044 0 20
      vertex 0.9344565346837044 0 0
    endloop
  endfacet
  facet normal 0.25881902826436615 0.965925830800838 0
    outer loop
      vertex 0.6778708323836327 0.051038071513175964 0
      vertex 0.8044910803437233 0.017110280692577362 20
      vertex 0.8044910803437233 0.017110280692577362 0
    endloop
  endfacet
  facet normal 0.9238795326234398 0.38268343209432837 0
    outer loop
      vertex 0.10120286792516708 0.5567623004317284 0
      vertex 0.051038071513175964 0.6778708323836327 0
      vertex 0.10120286792516708 0.5567623004317284 20
    endloop
  endfacet
  facet normal 0.965925830800838 0.25881902826436615 0
    outer loop
      vertex 0.051038071513175964 0.6778708323836327 0
      vertex 0.017110280692577362 0.8044910803437233 0
      vertex 0.051038071513175964 0.6778708323836327 20
    endloop
  endfacet
  facet normal 0.9914448573967226 0.1305262224290296 0
    outer loop
      vertex 0.017110280692577362 0.8044910803437233 0
      vertex 0 0.9344565346837044 0
      vertex 0.017110280692577362 0.8044910803437233 20
    endloop
  endfacet
  facet normal 1 0 0
    outer loop
      vertex 0 0.9344565346837044 0
      vertex 0 1.1024732285216985 5
      vertex 0 0.9344565346837044 20
    endloop
  endfacet
  facet normal 0 0 1
    outer loop
      vertex -8 -4 20
      vertex 0 0.9344565346837044 20
      vertex -8 1.2000000029802322 20
    endloop
  endfacet
  facet normal 0 1 0
    outer loop
      vertex -8 1.2000000029802322 0
      vertex -8 1.2000000029802322 20
      vertex 0 1.2000000029802322 20
    endloop
  endfacet
  facet normal 0 0 1
    outer loop
      vertex -8 -4 20
      vertex 0.44323769956827164 0.1667463257908821 20
      vertex 0.3392394483089447 0.24654699116945267 20
    endloop
  endfacet
  facet normal 0 0 1
    outer loop
      vertex -8 -4 20
      vertex 0.3392394483089447 0.24654699116945267 20
      vertex 0.24654699116945267 0.3392394483089447 20
    endloop
  endfacet
  facet normal 0 0 1
    outer loop
      vertex -8 -4 20
      vertex 0.9344565346837044 0 20
      vertex 0.8044910803437233 0.017110280692577362 20
    endloop
  endfacet
  facet normal 0 0 1
    outer loop
      vertex -8 -4 20
      vertex 0.6778708323836327 0.051038071513175964 20
      vertex 0.5567623004317284 0.10120286792516708 20
    endloop
  endfacet
  facet normal 0 0 1
    outer loop
      vertex -8 -4 20
      vertex 0.5567623004317284 0.10120286792516708 20
      vertex 0.44323769956827164 0.1667463257908821 20
    endloop
  endfacet
  facet normal 0 0 1
    outer loop
      vertex -8 -4 20
      vertex 0.8044910803437233 0.017110280692577362 20
      vertex 0.6778708323836327 0.051038071513175964 20
    endloop
  endfacet
  facet normal 0 0 1
    outer loop
      vertex -8 -4 20
      vertex 0.1667463257908821 0.44323769956827164 20
      vertex 0.10120286792516708 0.5567623004317284 20
    endloop
  endfacet
  facet normal 0 0 1
    outer loop
      vertex -8 -4 20
      vertex 0.24654699116945267 0.3392394483089447 20
      vertex 0.1667463257908821 0.44323769956827164 20
    endloop
  endfacet
  facet normal 0 0 1
    outer loop
      vertex -8 -4 20
      vertex 0.10120286792516708 0.5567623004317284 20
      vertex 0.051038071513175964 0.6778708323836327 20
    endloop
  endfacet
  facet normal 0 0 1
    outer loop
      vertex -8 -4 20
      vertex 0.051038071513175964 0.6778708323836327 20
      vertex 0.017110280692577362 0.8044910803437233 20
    endloop
  endfacet
  facet normal 0 0 1
    outer loop
      vertex -8 -4 20
      vertex 0.017110280692577362 0.8044910803437233 20
      vertex 0 0.9344565346837044 20
    endloop
  endfacet
  facet normal 0 1 0
    outer loop
      vertex -8 1.2000000029802322 0
      vertex 0 1.2000000029802322 20
      vertex -0.09752677445853274 1.2000000029802322 15
    endloop
  endfacet
  facet normal 0.25881902826436615 0.965925830800838 0
    outer loop
      vertex 0.6778708323836327 0.051038071513175964 0
      vertex 0.6778708323836327 0.051038071513175964 20
      vertex 0.8044910803437233 0.017110280692577362 20
    endloop
  endfacet
  facet normal 0.6087614313358576 0.7933533385055602 0
    outer loop
      vertex 0.3392394483089447 0.24654699116945267 0
      vertex 0.3392394483089447 0.24654699116945267 20
      vertex 0.44323769956827164 0.1667463257908821 20
    endloop
  endfacet
  facet normal 0.38268343209432837 0.9238795326234398 0
    outer loop
      vertex 0.5567623004317284 0.10120286792516708 0
      vertex 0.5567623004317284 0.10120286792516708 20
      vertex 0.6778708323836327 0.051038071513175964 20
    endloop
  endfacet
  facet normal 0.4999999942646076 0.8660254070957689 0
    outer loop
      vertex 0.44323769956827164 0.1667463257908821 0
      vertex 0.44323769956827164 0.1667463257908821 20
      vertex 0.5567623004317284 0.10120286792516708 20
    endloop
  endfacet
  facet normal 0.8660254070957689 0.4999999942646076 0
    outer loop
      vertex 0.10120286792516708 0.5567623004317284 0
      vertex 0.10120286792516708 0.5567623004317284 20
      vertex 0.1667463257908821 0.44323769956827164 20
    endloop
  endfacet
  facet normal 0.7071067811865476 0.7071067811865476 0
    outer loop
      vertex 0.24654699116945267 0.3392394483089447 0
      vertex 0.24654699116945267 0.3392394483089447 20
      vertex 0.3392394483089447 0.24654699116945267 20
    endloop
  endfacet
  facet normal 0.7933533385055602 0.6087614313358576 0
    outer loop
      vertex 0.1667463257908821 0.44323769956827164 0
      vertex 0.1667463257908821 0.44323769956827164 20
      vertex 0.24654699116945267 0.3392394483089447 20
    endloop
  endfacet
  facet normal 0.1305262224290296 0.9914448573967226 0
    outer loop
      vertex 0.8044910803437233 0.017110280692577362 0
      vertex 0.8044910803437233 0.017110280692577362 20
      vertex 0.9344565346837044 0 20
    endloop
  endfacet
  facet normal 0.9238795326234398 0.38268343209432837 0
    outer loop
      vertex 0.051038071513175964 0.6778708323836327 0
      vertex 0.051038071513175964 0.6778708323836327 20
      vertex 0.10120286792516708 0.5567623004317284 20
    endloop
  endfacet
  facet normal 0.965925830800838 0.25881902826436615 0
    outer loop
      vertex 0.017110280692577362 0.8044910803437233 0
      vertex 0.017110280692577362 0.8044910803437233 20
      vertex 0.051038071513175964 0.6778708323836327 20
    endloop
  endfacet
  facet normal 0.9914448573967226 0.1305262224290296 0
    outer loop
      vertex 0 0.9344565346837044 0
      vertex 0 0.9344565346837044 20
      vertex 0.017110280692577362 0.8044910803437233 20
    endloop
  endfacet
  facet normal 1 0 0
    outer loop
      vertex 0 0.9344565346837044 20
      vertex 0 1.1024732285216985 5
      vertex 0 1.1024732285216985 15
    endloop
  endfacet
  facet normal 0 0 1
    outer loop
      vertex -8 1.2000000029802322 20
      vertex 0 0.9344565346837044 20
      vertex 0 1.2000000029802322 20
    endloop
  endfacet
  facet normal 0 1 0
    outer loop
      vertex 0 1.2000000029802322 20
      vertex 0 1.2000000029802322 15
      vertex -0.09752677445853274 1.2000000029802322 15
    endloop
  endfacet
  facet normal 1 0 0
    outer loop
      vertex 0 1.2000000029802322 20
      vertex 0 1.1024732285216985 15
      vertex 0 1.2000000029802322 15
    endloop
  endfacet
  facet normal 1 0 0
    outer loop
      vertex 0 0.9344565346837044 20
      vertex 0 1.1024732285216985 15
      vertex 0 1.2000000029802322 20
    endloop
  endfacet
  facet normal 1 0 0
    outer loop
      vertex 12 -4 0
      vertex 12 0 0
      vertex 12 -4 20
    endloop
  endfacet
  facet normal 0 -1 0
    outer loop
      vertex -8 -4 20
      vertex 12 -4 0
      vertex 12 -4 20
    endloop
  endfacet
  facet normal 0 0 -1
    outer loop
      vertex 0.9344565346837044 0 0
      vertex 12 0 0
      vertex 12 -4 0
    endloop
  endfacet
  facet normal 0 1 0
    outer loop
      vertex 0.9344565346837044 0 0
      vertex 12 0 20
      vertex 12 0 0
    endloop
  endfacet
  facet normal 0 1 0
    outer loop
      vertex 0.9344565346837044 0 0
      vertex 0.9344565346837044 0 20
      vertex 12 0 20
    endloop
  endfacet
  facet normal 1 0 0
    outer loop
      vertex 12 -4 20
      vertex 12 0 0
      vertex 12 0 20
    endloop
  endfacet
  facet normal 0 0 1
    outer loop
      vertex 0.9344565346837044 0 20
      vertex 12 -4 20
      vertex 12 0 20
    endloop
  endfacet
endsolid OpenSCAD_Model
