solid OpenSCAD_Model
  facet normal 0 0 1
    outer loop
      vertex -0.0017110277252379014 1.0261052414242426 5
      vertex 0 1.0049464540631654 5
      vertex 0 1.2000000029802322 5
    endloop
  endfacet
  facet normal 0 0 1
    outer loop
      vertex -0.0017110277252379014 1.0261052414242426 5
      vertex 0 1.2000000029802322 5
      vertex -0.006814834742186304 1.0517638120007364 5
    endloop
  endfacet
  facet normal 0 0 1
    outer loop
      vertex -0.006814834742186304 1.0517638120007364 5
      vertex 0 1.2000000029802322 5
      vertex -0.015224093497742619 1.0765366894532502 5
    endloop
  endfacet
  facet normal 0 0 1
    outer loop
      vertex -0.05857864376269045 1.1414213592175417 5
      vertex -0.04132933194175295 1.1217522887819764 5
      vertex 0 1.2000000029802322 5
    endloop
  endfacet
  facet normal 0 0 1
    outer loop
      vertex -0.17389476155598965 1.1982889752549943 5
      vertex 0 1.2000000029802322 5
      vertex -0.19505354891706791 1.2000000029802322 5
    endloop
  endfacet
  facet normal 0 0 1
    outer loop
      vertex -0.05857864376269045 1.1414213592175417 5
      vertex 0 1.2000000029802322 5
      vertex -0.07824771419825585 1.1586706710384793 5
    endloop
  endfacet
  facet normal 0 0 1
    outer loop
      vertex -0.09999999999999995 1.17320508373712 5
      vertex -0.07824771419825585 1.1586706710384793 5
      vertex 0 1.2000000029802322 5
    endloop
  endfacet
  facet normal 0 0 1
    outer loop
      vertex -0.123463313526982 1.1847759094824897 5
      vertex -0.09999999999999995 1.17320508373712 5
      vertex 0 1.2000000029802322 5
    endloop
  endfacet
  facet normal 0 0 1
    outer loop
      vertex -0.14823619097949584 1.1931851682380459 5
      vertex -0.123463313526982 1.1847759094824897 5
      vertex 0 1.2000000029802322 5
    endloop
  endfacet
  facet normal 0 0 1
    outer loop
      vertex -0.17389476155598965 1.1982889752549943 5
      vertex -0.14823619097949584 1.1931851682380459 5
      vertex 0 1.2000000029802322 5
    endloop
  endfacet
  facet normal 0 0 1
    outer loop
      vertex -0.026794919243112225 1.1000000029802324 5
      vertex -0.015224093497742619 1.0765366894532502 5
      vertex 0 1.2000000029802322 5
    endloop
  endfacet
  facet normal 0 0 1
    outer loop
      vertex -0.026794919243112225 1.1000000029802324 5
      vertex 0 1.2000000029802322 5
      vertex -0.04132933194175295 1.1217522887819764 5
    endloop
  endfacet
  facet normal 0 0 -1
    outer loop
      vertex -0.0017110277252379014 1.0261052414242426 15
      vertex 0 1.2000000029802322 15
      vertex 0 1.0049464540631654 15
    endloop
  endfacet
  facet normal 0 0 -1
    outer loop
      vertex -0.0017110277252379014 1.0261052414242426 15
      vertex -0.006814834742186304 1.0517638120007364 15
      vertex 0 1.2000000029802322 15
    endloop
  endfacet
  facet normal 0 0 -1
    outer loop
      vertex -0.006814834742186304 1.0517638120007364 15
      vertex -0.015224093497742619 1.0765366894532502 15
      vertex 0 1.2000000029802322 15
    endloop
  endfacet
  facet normal 0 0 -1
    outer loop
      vertex -0.05857864376269045 1.1414213592175417 15
      vertex 0 1.2000000029802322 15
      vertex -0.04132933194175295 1.1217522887819764 15
    endloop
  endfacet
  facet normal 0 0 -1
    outer loop
      vertex -0.17389476155598965 1.1982889752549943 15
      vertex -0.19505354891706791 1.2000000029802322 15
      vertex 0 1.2000000029802322 15
    endloop
  endfacet
  facet normal 0 0 -1
    outer loop
      vertex -0.05857864376269045 1.1414213592175417 15
      vertex -0.07824771419825585 1.1586706710384793 15
      vertex 0 1.2000000029802322 15
    endloop
  endfacet
  facet normal 0 0 -1
    outer loop
      vertex -0.09999999999999995 1.17320508373712 15
      vertex 0 1.2000000029802322 15
      vertex -0.07824771419825585 1.1586706710384793 15
    endloop
  endfacet
  facet normal 0 0 -1
    outer loop
      vertex -0.123463313526982 1.1847759094824897 15
      vertex 0 1.2000000029802322 15
      vertex -0.09999999999999995 1.17320508373712 15
    endloop
  endfacet
  facet normal 0 0 -1
    outer loop
      vertex -0.14823619097949584 1.1931851682380459 15
      vertex 0 1.2000000029802322 15
      vertex -0.123463313526982 1.1847759094824897 15
    endloop
  endfacet
  facet normal 0 0 -1
    outer loop
      vertex -0.17389476155598965 1.1982889752549943 15
      vertex 0 1.2000000029802322 15
      vertex -0.14823619097949584 1.1931851682380459 15
    endloop
  endfacet
  facet normal 0 0 -1
    outer loop
      vertex -0.026794919243112225 1.1000000029802324 15
      vertex 0 1.2000000029802322 15
      vertex -0.015224093497742619 1.0765366894532502 15
    endloop
  endfacet
  facet normal 0 0 -1
    outer loop
      vertex -0.026794919243112225 1.1000000029802324 15
      vertex -0.04132933194175295 1.1217522887819764 15
      vertex 0 1.2000000029802322 15
    endloop
  endfacet
  facet normal 0.9967462894559155 0.08060294322085598 7.811555433411411e-21
    outer loop
      vertex -0.0017110277252379014 1.0261052414242426 5
      vertex 0 1.0049464540631654 15
      vertex 0 1.0049464540631654 5
    endloop
  endfacet
  facet normal 0.9807852804032307 0.1950903220161278 0
    outer loop
      vertex -0.0017110277252379014 1.0261052414242426 5
      vertex -0.006814834742186304 1.0517638120007364 5
      vertex -0.0017110277252379014 1.0261052414242426 15
    endloop
  endfacet
  facet normal 0.8314696123025438 0.5555702330196045 0
    outer loop
      vertex -0.026794919243112225 1.1000000029802324 5
      vertex -0.04132933194175295 1.1217522887819764 5
      vertex -0.026794919243112225 1.1000000029802324 15
    endloop
  endfacet
  facet normal 0.9469301294951055 0.3214394653031622 0
    outer loop
      vertex -0.006814834742186304 1.0517638120007364 5
      vertex -0.015224093497742619 1.0765366894532502 5
      vertex -0.006814834742186304 1.0517638120007364 15
    endloop
  endfacet
  facet normal 0.8968727415326896 0.442288690218999 1.3268882910603063e-21
    outer loop
      vertex -0.026794919243112225 1.1000000029802324 5
      vertex -0.015224093497742619 1.0765366894532502 15
      vertex -0.015224093497742619 1.0765366894532502 5
    endloop
  endfacet
  facet normal 0.7518398074789769 0.6593458151000695 -4.939773087337872e-21
    outer loop
      vertex -0.05857864376269045 1.1414213592175417 5
      vertex -0.04132933194175295 1.1217522887819764 15
      vertex -0.04132933194175295 1.1217522887819764 5
    endloop
  endfacet
  facet normal 0.6593458151000697 0.7518398074789767 0
    outer loop
      vertex -0.05857864376269045 1.1414213592175417 5
      vertex -0.07824771419825585 1.1586706710384793 5
      vertex -0.05857864376269045 1.1414213592175417 15
    endloop
  endfacet
  facet normal 0.0806029432208521 0.9967462894559157 0
    outer loop
      vertex -0.17389476155598965 1.1982889752549943 5
      vertex -0.19505354891706791 1.2000000029802322 5
      vertex -0.17389476155598965 1.1982889752549943 15
    endloop
  endfacet
  facet normal 0.1950903220161296 0.9807852804032301 4.698877106932969e-20
    outer loop
      vertex -0.17389476155598965 1.1982889752549943 5
      vertex -0.14823619097949584 1.1931851682380459 15
      vertex -0.14823619097949584 1.1931851682380459 5
    endloop
  endfacet
  facet normal 0.32143946530315776 0.946930129495107 3.917701221990424e-20
    outer loop
      vertex -0.14823619097949584 1.1931851682380459 5
      vertex -0.123463313526982 1.1847759094824897 15
      vertex -0.123463313526982 1.1847759094824897 5
    endloop
  endfacet
  facet normal 0.5555702330196014 0.8314696123025459 1.4591693340270273e-20
    outer loop
      vertex -0.09999999999999995 1.17320508373712 5
      vertex -0.07824771419825585 1.1586706710384793 15
      vertex -0.07824771419825585 1.1586706710384793 5
    endloop
  endfacet
  facet normal 0.44228869021900413 0.896872741532687 -7.240340858613365e-20
    outer loop
      vertex -0.123463313526982 1.1847759094824897 5
      vertex -0.09999999999999995 1.17320508373712 15
      vertex -0.09999999999999995 1.17320508373712 5
    endloop
  endfacet
  facet normal 0.9967462894559155 0.08060294322085598 0
    outer loop
      vertex -0.0017110277252379014 1.0261052414242426 5
      vertex -0.0017110277252379014 1.0261052414242426 15
      vertex 0 1.0049464540631654 15
    endloop
  endfacet
  facet normal 0.0806029432208521 0.9967462894559157 -2.073716682276786e-21
    outer loop
      vertex -0.17389476155598965 1.1982889752549943 15
      vertex -0.19505354891706791 1.2000000029802322 5
      vertex -0.19505354891706791 1.2000000029802322 15
    endloop
  endfacet
  facet normal 0.8314696123025438 0.5555702330196045 -9.487441278346605e-20
    outer loop
      vertex -0.026794919243112225 1.1000000029802324 15
      vertex -0.04132933194175295 1.1217522887819764 5
      vertex -0.04132933194175295 1.1217522887819764 15
    endloop
  endfacet
  facet normal 0.9807852804032307 0.1950903220161278 0
    outer loop
      vertex -0.006814834742186304 1.0517638120007364 5
      vertex -0.006814834742186304 1.0517638120007364 15
      vertex -0.0017110277252379014 1.0261052414242426 15
    endloop
  endfacet
  facet normal 0.9469301294951055 0.3214394653031622 0
    outer loop
      vertex -0.015224093497742619 1.0765366894532502 5
      vertex -0.015224093497742619 1.0765366894532502 15
      vertex -0.006814834742186304 1.0517638120007364 15
    endloop
  endfacet
  facet normal 0.8968727415326896 0.442288690218999 0
    outer loop
      vertex -0.026794919243112225 1.1000000029802324 5
      vertex -0.026794919243112225 1.1000000029802324 15
      vertex -0.015224093497742619 1.0765366894532502 15
    endloop
  endfacet
  facet normal 0.7518398074789769 0.6593458151000695 0
    outer loop
      vertex -0.05857864376269045 1.1414213592175417 5
      vertex -0.05857864376269045 1.1414213592175417 15
      vertex -0.04132933194175295 1.1217522887819764 15
    endloop
  endfacet
  facet normal 0.6593458151000697 0.7518398074789767 0
    outer loop
      vertex -0.07824771419825585 1.1586706710384793 5
      vertex -0.07824771419825585 1.1586706710384793 15
      vertex -0.05857864376269045 1.1414213592175417 15
    endloop
  endfacet
  facet normal 0.1950903220161296 0.9807852804032301 0
    outer loop
      vertex -0.17389476155598965 1.1982889752549943 5
      vertex -0.17389476155598965 1.1982889752549943 15
      vertex -0.14823619097949584 1.1931851682380459 15
    endloop
  endfacet
  facet normal 0.44228869021900413 0.896872741532687 0
    outer loop
      vertex -0.123463313526982 1.1847759094824897 5
      vertex -0.123463313526982 1.1847759094824897 15
      vertex -0.09999999999999995 1.17320508373712 15
    endloop
  endfacet
  facet normal 0.32143946530315776 0.946930129495107 0
    outer loop
      vertex -0.14823619097949584 1.1931851682380459 5
      vertex -0.14823619097949584 1.1931851682380459 15
      vertex -0.123463313526982 1.1847759094824897 15
    endloop
  endfacet
  facet normal 0.5555702330196014 0.8314696123025459 0
    outer loop
      vertex -0.09999999999999995 1.17320508373712 5
      vertex -0.09999999999999995 1.17320508373712 15
      vertex -0.07824771419825585 1.1586706710384793 15
    endloop
  endfacet
  facet normal 0 -1 0
    outer loop
      vertex -8 -4 0
      vertex 12 -4 0
      vertex -8 -4 20
    endloop
  endfacet
  facet normal 0 0 -1
    outer loop
      vertex -8 -4 0
      vertex 0.9344565346837044 0 0
      vertex 12 -4 0
    endloop
  endfacet
  facet normal -1 0 0
    outer loop
      vertex -8 -4 0
      vertex -8 -4 20
      vertex -8 1.2000000029802322 20
    endloop
  endfacet
  facet normal 0 0 1
    outer loop
      vertex -8 -4 20
      vertex 12 -4 20
      vertex 0.9344565346837044 0 20
    endloop
  endfacet
  facet normal 0 0 -1
    outer loop
      vertex -8 -4 0
      vertex -8 1.2000000029802322 0
      vertex 0 0.9344565346837044 0
    endloop
  endfacet
  facet normal -1 0 0
    outer loop
      vertex -8 -4 0
      vertex -8 1.2000000029802322 20
      vertex -8 1.2000000029802322 0
    endloop
  endfacet
  facet normal 0 0 -1
    outer loop
      vertex -8 -4 0
      vertex 0.3392394483089447 0.24654699116945267 0
      vertex 0.44323769956827164 0.1667463257908821 0
    endloop
  endfacet
  facet normal 0 0 -1
    outer loop
      vertex -8 -4 0
      vertex 0.24654699116945267 0.3392394483089447 0
      vertex 0.3392394483089447 0.24654699116945267 0
    endloop
  endfacet
  facet normal 0 0 -1
    outer loop
      vertex -8 -4 0
      vertex 0.8044910803437233 0.017110280692577362 0
      vertex 0.9344565346837044 0 0
    endloop
  endfacet
  facet normal 0 0 -1
    outer loop
      vertex -8 -4 0
      vertex 0.5567623004317284 0.10120286792516708 0
      vertex 0.6778708323836327 0.051038071513175964 0
    endloop
  endfacet
  facet normal 0 0 -1
    outer loop
      vertex -8 -4 0
      vertex 0.44323769956827164 0.1667463257908821 0
      vertex 0.5567623004317284 0.10120286792516708 0
    endloop
  endfacet
  facet normal 0 0 -1
    outer loop
      vertex -8 -4 0
      vertex 0.6778708323836327 0.051038071513175964 0
      vertex 0.8044910803437233 0.017110280692577362 0
    endloop
  endfacet
  facet normal 0 0 -1
    outer loop
      vertex -8 -4 0
      vertex 0.10120286792516708 0.5567623004317284 0
      vertex 0.1667463257908821 0.44323769956827164 0
    endloop
  endfacet
  facet normal 0 0 -1
    outer loop
      vertex -8 -4 0
      vertex 0.1667463257908821 0.44323769956827164 0
      vertex 0.24654699116945267 0.3392394483089447 0
    endloop
  endfacet
  facet normal 0 0 -1
    outer loop
      vertex -8 -4 0
      vertex 0.051038071513175964 0.6778708323836327 0
      vertex 0.10120286792516708 0.5567623004317284 0
    endloop
  endfacet
  facet normal 0 0 -1
    outer loop
      vertex -8 -4 0
      vertex 0.017110280692577362 0.8044910803437233 0
      vertex 0.051038071513175964 0.6778708323836327 0
    endloop
  endfacet
  facet normal 0 0 -1
    outer loop
      vertex -8 -4 0
      vertex 0 0.9344565346837044 0
      vertex 0.017110280692577362 0.8044910803437233 0
    endloop
  endfacet
  facet normal 0 0 -1
    outer loop
      vertex -8 1.2000000029802322 0
      vertex 0 1.2000000029802322 0
      vertex 0 0.9344565346837044 0
    endloop
  endfacet
  facet normal 0 1 0
    outer loop
      vertex -8 1.2000000029802322 0
      vertex -0.19505354891706791 1.2000000029802322 5
      vertex 0 1.2000000029802322 0
    endloop
  endfacet
  facet normal 1 0 0
    outer loop
      vertex 0 0.9344565346837044 0
      vertex 0 1.2000000029802322 0
      vertex 0 1.0049464540631654 5
    endloop
  endfacet
  facet normal 0 1 0
    outer loop
      vertex 0 1.2000000029802322 0
      vertex -0.19505354891706791 1.2000000029802322 5
      vertex 0 1.2000000029802322 5
    endloop
  endfacet
  facet normal 1 0 0
    outer loop
      vertex 0 1.2000000029802322 0
      vertex 0 1.2000000029802322 5
      vertex 0 1.0049464540631654 5
    endloop
  endfacet
  facet normal 0 1 0
    outer loop
      vertex -8 1.2000000029802322 0
      vertex -0.19505354891706791 1.2000000029802322 15
      vertex -0.19505354891706791 1.2000000029802322 5
    endloop
  endfacet
  facet normal 0.6087614313358576 0.7933533385055602 0
    outer loop
      vertex 0.44323769956827164 0.1667463257908821 0
      vertex 0.3392394483089447 0.24654699116945267 0
      vertex 0.44323769956827164 0.1667463257908821 20
    endloop
  endfacet
  facet normal 0.4999999942646076 0.8660254070957689 0
    outer loop
      vertex 0.5567623004317284 0.10120286792516708 0
      vertex 0.44323769956827164 0.1667463257908821 0
      vertex 0.5567623004317284 0.10120286792516708 20
    endloop
  endfacet
  facet normal 0.38268343209432837 0.9238795326234398 0
    outer loop
      vertex 0.6778708323836327 0.051038071513175964 0
      vertex 0.5567623004317284 0.10120286792516708 0
      vertex 0.6778708323836327 0.051038071513175964 20
    endloop
  endfacet
  facet normal 0.7071067811865476 0.7071067811865476 0
    outer loop
      vertex 0.3392394483089447 0.24654699116945267 0
      vertex 0.24654699116945267 0.3392394483089447 0
      vertex 0.3392394483089447 0.24654699116945267 20
    endloop
  endfacet
  facet normal 0.7933533385055602 0.6087614313358576 0
    outer loop
      vertex 0.24654699116945267 0.3392394483089447 0
      vertex 0.1667463257908821 0.44323769956827164 0
      vertex 0.24654699116945267 0.3392394483089447 20
    endloop
  endfacet
  facet normal 0.8660254070957689 0.4999999942646076 0
    outer loop
      vertex 0.1667463257908821 0.44323769956827164 0
      vertex 0.10120286792516708 0.5567623004317284 0
      vertex 0.1667463257908821 0.44323769956827164 20
    endloop
  endfacet
  facet normal 0.1305262224290296 0.9914448573967226 0
    outer loop
      vertex 0.8044910803437233 0.017110280692577362 0
      vertex 0.9344565346837044 0 20
      vertex 0.9344565346837044 0 0
    endloop
  endfacet
  facet normal 0.25881902826436615 0.965925830800838 0
    outer loop
      vertex 0.6778708323836327 0.051038071513175964 0
      vertex 0.8044910803437233 0.017110280692577362 20
      vertex 0.8044910803437233 0.017110280692577362 0
    endloop
  endfacet
  facet normal 0.9238795326234398 0.38268343209432837 0
    outer loop
      vertex 0.10120286792516708 0.5567623004317284 0
      vertex 0.051038071513175964 0.6778708323836327 0
      vertex 0.10120286792516708 0.5567623004317284 20
    endloop
  endfacet
  facet normal 0.965925830800838 0.25881902826436615 0
    outer loop
      vertex 0.051038071513175964 0.6778708323836327 0
      vertex 0.017110280692577362 0.8044910803437233 0
      vertex 0.051038071513175964 0.6778708323836327 20
    endloop
  endfacet
  facet normal 0.9914448573967226 0.1305262224290296 0
    outer loop
      vertex 0.017110280692577362 0.8044910803437233 0
      vertex 0 0.9344565346837044 0
      vertex 0.017110280692577362 0.8044910803437233 20
    endloop
  endfacet
  facet normal 1 0 0
    outer loop
      vertex 0 0.9344565346837044 0
      vertex 0 1.0049464540631654 5
      vertex 0 1.0049464540631654 15
    endloop
  endfacet
  facet normal 0 0 1
    outer loop
      vertex -8 -4 20
      vertex 0 0.9344565346837044 20
      vertex -8 1.2000000029802322 20
    endloop
  endfacet
  facet normal 0 1 0
    outer loop
      vertex -8 1.2000000029802322 0
      vertex -8 1.2000000029802322 20
      vertex 0 1.2000000029802322 20
    endloop
  endfacet
  facet normal 0 0 1
    outer loop
      vertex -8 -4 20
      vertex 0.44323769956827164 0.1667463257908821 20
      vertex 0.3392394483089447 0.24654699116945267 20
    endloop
  endfacet
  facet normal 0 0 1
    outer loop
      vertex -8 -4 20
      vertex 0.3392394483089447 0.24654699116945267 20
      vertex 0.24654699116945267 0.3392394483089447 20
    endloop
  endfacet
  facet normal 0 0 1
    outer loop
      vertex -8 -4 20
      vertex 0.9344565346837044 0 20
      vertex 0.8044910803437233 0.017110280692577362 20
    endloop
  endfacet
  facet normal 0 0 1
    outer loop
      vertex -8 -4 20
      vertex 0.6778708323836327 0.051038071513175964 20
      vertex 0.5567623004317284 0.10120286792516708 20
    endloop
  endfacet
  facet normal 0 0 1
    outer loop
      vertex -8 -4 20
      vertex 0.5567623004317284 0.10120286792516708 20
      vertex 0.44323769956827164 0.1667463257908821 20
    endloop
  endfacet
  facet normal 0 0 1
    outer loop
      vertex -8 -4 20
      vertex 0.8044910803437233 0.017110280692577362 20
      vertex 0.6778708323836327 0.051038071513175964 20
    endloop
  endfacet
  facet normal 0 0 1
    outer loop
      vertex -8 -4 20
      vertex 0.1667463257908821 0.44323769956827164 20
      vertex 0.10120286792516708 0.5567623004317284 20
    endloop
  endfacet
  facet normal 0 0 1
    outer loop
      vertex -8 -4 20
      vertex 0.24654699116945267 0.3392394483089447 20
      vertex 0.1667463257908821 0.44323769956827164 20
    endloop
  endfacet
  facet normal 0 0 1
    outer loop
      vertex -8 -4 20
      vertex 0.10120286792516708 0.5567623004317284 20
      vertex 0.051038071513175964 0.6778708323836327 20
    endloop
  endfacet
  facet normal 0 0 1
    outer loop
      vertex -8 -4 20
      vertex 0.051038071513175964 0.6778708323836327 20
      vertex 0.017110280692577362 0.8044910803437233 20
    endloop
  endfacet
  facet normal 0 0 1
    outer loop
      vertex -8 -4 20
      vertex 0.017110280692577362 0.8044910803437233 20
      vertex 0 0.9344565346837044 20
    endloop
  endfacet
  facet normal 0 1 0
    outer loop
      vertex -8 1.2000000029802322 0
      vertex 0 1.2000000029802322 20
      vertex -0.19505354891706791 1.2000000029802322 15
    endloop
  endfacet
  facet normal 0.25881902826436615 0.965925830800838 0
    outer loop
      vertex 0.6778708323836327 0.051038071513175964 0
      vertex 0.6778708323836327 0.051038071513175964 20
      vertex 0.8044910803437233 0.017110280692577362 20
    endloop
  endfacet
  facet normal 0.6087614313358576 0.7933533385055602 0
    outer loop
      vertex 0.3392394483089447 0.24654699116945267 0
      vertex 0.3392394483089447 0.24654699116945267 20
      vertex 0.44323769956827164 0.1667463257908821 20
    endloop
  endfacet
  facet normal 0.38268343209432837 0.9238795326234398 0
    outer loop
      vertex 0.5567623004317284 0.10120286792516708 0
      vertex 0.5567623004317284 0.10120286792516708 20
      vertex 0.6778708323836327 0.051038071513175964 20
    endloop
  endfacet
  facet normal 0.4999999942646076 0.8660254070957689 0
    outer loop
      vertex 0.44323769956827164 0.1667463257908821 0
      vertex 0.44323769956827164 0.1667463257908821 20
      vertex 0.5567623004317284 0.10120286792516708 20
    endloop
  endfacet
  facet normal 0.8660254070957689 0.4999999942646076 0
    outer loop
      vertex 0.10120286792516708 0.5567623004317284 0
      vertex 0.10120286792516708 0.5567623004317284 20
      vertex 0.1667463257908821 0.44323769956827164 20
    endloop
  endfacet
  facet normal 0.7071067811865476 0.7071067811865476 0
    outer loop
      vertex 0.24654699116945267 0.3392394483089447 0
      vertex 0.24654699116945267 0.3392394483089447 20
      vertex 0.3392394483089447 0.24654699116945267 20
    endloop
  endfacet
  facet normal 0.7933533385055602 0.6087614313358576 0
    outer loop
      vertex 0.1667463257908821 0.44323769956827164 0
      vertex 0.1667463257908821 0.44323769956827164 20
      vertex 0.24654699116945267 0.3392394483089447 20
    endloop
  endfacet
  facet normal 0.1305262224290296 0.9914448573967226 0
    outer loop
      vertex 0.8044910803437233 0.017110280692577362 0
      vertex 0.8044910803437233 0.017110280692577362 20
      vertex 0.9344565346837044 0 20
    endloop
  endfacet
  facet normal 1 0 0
    outer loop
      vertex 0 0.9344565346837044 0
      vertex 0 1.0049464540631654 15
      vertex 0 0.9344565346837044 20
    endloop
  endfacet
  facet normal 0.9238795326234398 0.38268343209432837 0
    outer loop
      vertex 0.051038071513175964 0.6778708323836327 0
      vertex 0.051038071513175964 0.6778708323836327 20
      vertex 0.10120286792516708 0.5567623004317284 20
    endloop
  endfacet
  facet normal 0.965925830800838 0.25881902826436615 0
    outer loop
      vertex 0.017110280692577362 0.8044910803437233 0
      vertex 0.017110280692577362 0.8044910803437233 20
      vertex 0.051038071513175964 0.6778708323836327 20
    endloop
  endfacet
  facet normal 0.9914448573967226 0.1305262224290296 0
    outer loop
      vertex 0 0.9344565346837044 0
      vertex 0 0.9344565346837044 20
      vertex 0.017110280692577362 0.8044910803437233 20
    endloop
  endfacet
  facet normal 0 0 1
    outer loop
      vertex -8 1.2000000029802322 20
      vertex 0 0.9344565346837044 20
      vertex 0 1.2000000029802322 20
    endloop
  endfacet
  facet normal 0 1 0
    outer loop
      vertex 0 1.2000000029802322 20
      vertex 0 1.2000000029802322 15
      vertex -0.19505354891706791 1.2000000029802322 15
    endloop
  endfacet
  facet normal 1 0 0
    outer loop
      vertex 0 1.2000000029802322 20
      vertex 0 1.0049464540631654 15
      vertex 0 1.2000000029802322 15
    endloop
  endfacet
  facet normal 1 0 0
    outer loop
      vertex 0 0.9344565346837044 20
      vertex 0 1.0049464540631654 15
      vertex 0 1.2000000029802322 20
    endloop
  endfacet
  facet normal 1 0 0
    outer loop
      vertex 12 -4 0
      vertex 12 0 0
      vertex 12 -4 20
    endloop
  endfacet
  facet normal 0 -1 0
    outer loop
      vertex -8 -4 20
      vertex 12 -4 0
      vertex 12 -4 20
    endloop
  endfacet
  facet normal 0 0 -1
    outer loop
      vertex 0.9344565346837044 0 0
      vertex 12 0 0
      vertex 12 -4 0
    endloop
  endfacet
  facet normal 0 1 0
    outer loop
      vertex 0.9344565346837044 0 0
      vertex 12 0 20
      vertex 12 0 0
    endloop
  endfacet
  facet normal 0 1 0
    outer loop
      vertex 0.9344565346837044 0 0
      vertex 0.9344565346837044 0 20
      vertex 12 0 20
    endloop
  endfacet
  facet normal 1 0 0
    outer loop
      vertex 12 -4 20
      vertex 12 0 0
      vertex 12 0 20
    endloop
  endfacet
  facet normal 0 0 1
    outer loop
      vertex 0.9344565346837044 0 20
      vertex 12 -4 20
      vertex 12 0 20
    endloop
  endfacet
endsolid OpenSCAD_Model
