solid OpenSCAD_Model
  facet normal -1 0 0
    outer loop
      vertex 0 6.666666666666666 1.9999999999999998
      vertex 0 1.9999999999999998 1.9999999999999998
      vertex 0 1.9999999999999998 6
    endloop
  endfacet
  facet normal -1 0 0
    outer loop
      vertex 0 6.666666666666666 1.9999999999999998
      vertex 0 1.9999999999999998 6
      vertex 0 1.9999999999999998 14
    endloop
  endfacet
  facet normal -1 0 0
    outer loop
      vertex 0 6.666666666666666 1.9999999999999998
      vertex 0 1.9999999999999998 14
      vertex 0 1.9999999999999998 22
    endloop
  endfacet
  facet normal -1 0 0
    outer loop
      vertex 0 6.666666666666666 1.9999999999999998
      vertex 0 1.9999999999999998 22
      vertex 0 1.9999999999999998 28
    endloop
  endfacet
  facet normal -1 0 0
    outer loop
      vertex 0 6.666666666666666 1.9999999999999998
      vertex 0 1.9999999999999998 28
      vertex 0 6.666666666666666 28
    endloop
  endfacet
  facet normal -1 0 0
    outer loop
      vertex 0 6.666666666666666 1.9999999999999998
      vertex 0 6.666666666666666 28
      vertex 0 13.333333333333332 28
    endloop
  endfacet
  facet normal -1 0 0
    outer loop
      vertex 0 6.666666666666666 1.9999999999999998
      vertex 0 13.333333333333332 28
      vertex 0 18 28
    endloop
  endfacet
  facet normal -1 0 0
    outer loop
      vertex 0 6.666666666666666 1.9999999999999998
      vertex 0 18 28
      vertex 0 18 22
    endloop
  endfacet
  facet normal -1 0 0
    outer loop
      vertex 0 6.666666666666666 1.9999999999999998
      vertex 0 18 22
      vertex 0 18 14
    endloop
  endfacet
  facet normal -1 0 0
    outer loop
      vertex 0 6.666666666666666 1.9999999999999998
      vertex 0 18 14
      vertex 0 18 6
    endloop
  endfacet
  facet normal -1 0 0
    outer loop
      vertex 0 18 6
      vertex 0 18 1.9999999999999998
      vertex 0 13.333333333333332 1.9999999999999998
    endloop
  endfacet
  facet normal -1 0 0
    outer loop
      vertex 0 18 6
      vertex 0 13.333333333333332 1.9999999999999998
      vertex 0 6.666666666666666 1.9999999999999998
    endloop
  endfacet
  facet normal 0 -1 0
    outer loop
      vertex 38 0 4
      vertex 32.400000000000006 0 4
      vertex 1.9999999999999998 0 1.9999999999999998
    endloop
  endfacet
  facet normal 0 -1 0
    outer loop
      vertex 32.400000000000006 0 4
      vertex 24.8 0 4
      vertex 1.9999999999999998 0 1.9999999999999998
    endloop
  endfacet
  facet normal 0 -1 0
    outer loop
      vertex 24.8 0 4
      vertex 17.200000000000003 0 4
      vertex 1.9999999999999998 0 1.9999999999999998
    endloop
  endfacet
  facet normal 0 -1 0
    outer loop
      vertex 17.200000000000003 0 4
      vertex 9.600000000000001 0 4
      vertex 1.9999999999999998 0 1.9999999999999998
    endloop
  endfacet
  facet normal 0 -1 0
    outer loop
      vertex 1.9999999999999998 0 1.9999999999999998
      vertex 9.600000000000001 0 4
      vertex 4 0 4
    endloop
  endfacet
  facet normal 0 -1 0
    outer loop
      vertex 4 0 4
      vertex 2.220446049250313e-16 0 4
      vertex 1.9999999999999998 0 1.9999999999999998
    endloop
  endfacet
  facet normal 0 -1 0
    outer loop
      vertex 1.9999999999999998 0 1.9999999999999998
      vertex 8 0 1.9999999999999998
      vertex 38 0 4
    endloop
  endfacet
  facet normal 0 -1 0
    outer loop
      vertex 8 0 1.9999999999999998
      vertex 16 0 1.9999999999999998
      vertex 38 0 4
    endloop
  endfacet
  facet normal 0 -1 0
    outer loop
      vertex 16 0 1.9999999999999998
      vertex 24 0 1.9999999999999998
      vertex 38 0 4
    endloop
  endfacet
  facet normal 0 -1 0
    outer loop
      vertex 24 0 1.9999999999999998
      vertex 32 0 1.9999999999999998
      vertex 38 0 4
    endloop
  endfacet
  facet normal 0 -1 0
    outer loop
      vertex 32 0 1.9999999999999998
      vertex 38 0 1.9999999999999998
      vertex 38 0 4
    endloop
  endfacet
  facet normal 0 1 0
    outer loop
      vertex 1.9999999999999998 0 6
      vertex 1.9999999999999998 0 1.9999999999999998
      vertex 2.220446049250313e-16 0 4
    endloop
  endfacet
  facet normal 0 1 0
    outer loop
      vertex 1.9999999999999998 0 6
      vertex 2.220446049250313e-16 0 4
      vertex 2.220446049250313e-16 0 8
    endloop
  endfacet
  facet normal 0 1 0
    outer loop
      vertex 2.220446049250313e-16 0 8
      vertex 2.220446049250313e-16 0 14
      vertex 1.9999999999999998 0 6
    endloop
  endfacet
  facet normal 0 1 0
    outer loop
      vertex 2.220446049250313e-16 0 14
      vertex 2.220446049250313e-16 0 22
      vertex 1.9999999999999998 0 6
    endloop
  endfacet
  facet normal 0 1 0
    outer loop
      vertex 2.220446049250313e-16 0 22
      vertex 2.220446049250313e-16 0 28
      vertex 1.9999999999999998 0 6
    endloop
  endfacet
  facet normal 0 1 0
    outer loop
      vertex 1.9999999999999998 0 28
      vertex 1.9999999999999998 0 22
      vertex 2.220446049250313e-16 0 28
    endloop
  endfacet
  facet normal 0 1 0
    outer loop
      vertex 1.9999999999999998 0 22
      vertex 1.9999999999999998 0 14
      vertex 2.220446049250313e-16 0 28
    endloop
  endfacet
  facet normal 0 1 0
    outer loop
      vertex 1.9999999999999998 0 14
      vertex 1.9999999999999998 0 6
      vertex 2.220446049250313e-16 0 28
    endloop
  endfacet
  facet normal 0 0 -1
    outer loop
      vertex 8 1.9999999999999998 0
      vertex 1.9999999999999998 1.9999999999999998 0
      vertex 1.9999999999999998 6.666666666666666 0
    endloop
  endfacet
  facet normal 0 0 -1
    outer loop
      vertex 8 1.9999999999999998 0
      vertex 1.9999999999999998 6.666666666666666 0
      vertex 1.9999999999999998 13.333333333333332 0
    endloop
  endfacet
  facet normal 0 0 -1
    outer loop
      vertex 8 1.9999999999999998 0
      vertex 1.9999999999999998 13.333333333333332 0
      vertex 1.9999999999999998 18 0
    endloop
  endfacet
  facet normal 0 0 -1
    outer loop
      vertex 8 1.9999999999999998 0
      vertex 1.9999999999999998 18 0
      vertex 9.600000000000001 18 0
    endloop
  endfacet
  facet normal 0 0 -1
    outer loop
      vertex 8 1.9999999999999998 0
      vertex 9.600000000000001 18 0
      vertex 17.200000000000003 18 0
    endloop
  endfacet
  facet normal 0 0 -1
    outer loop
      vertex 8 1.9999999999999998 0
      vertex 17.200000000000003 18 0
      vertex 24.8 18 0
    endloop
  endfacet
  facet normal 0 0 -1
    outer loop
      vertex 8 1.9999999999999998 0
      vertex 24.8 18 0
      vertex 32.400000000000006 18 0
    endloop
  endfacet
  facet normal 0 0 -1
    outer loop
      vertex 8 1.9999999999999998 0
      vertex 32.400000000000006 18 0
      vertex 38 18 0
    endloop
  endfacet
  facet normal 0 0 -1
    outer loop
      vertex 8 1.9999999999999998 0
      vertex 38 18 0
      vertex 38 13.333333333333332 0
    endloop
  endfacet
  facet normal 0 0 -1
    outer loop
      vertex 8 1.9999999999999998 0
      vertex 38 13.333333333333332 0
      vertex 38 6.666666666666666 0
    endloop
  endfacet
  facet normal 0 0 -1
    outer loop
      vertex 38 6.666666666666666 0
      vertex 38 1.9999999999999998 0
      vertex 32 1.9999999999999998 0
    endloop
  endfacet
  facet normal 0 0 -1
    outer loop
      vertex 38 6.666666666666666 0
      vertex 32 1.9999999999999998 0
      vertex 24 1.9999999999999998 0
    endloop
  endfacet
  facet normal 0 0 -1
    outer loop
      vertex 38 6.666666666666666 0
      vertex 24 1.9999999999999998 0
      vertex 16 1.9999999999999998 0
    endloop
  endfacet
  facet normal 0 0 -1
    outer loop
      vertex 38 6.666666666666666 0
      vertex 16 1.9999999999999998 0
      vertex 8 1.9999999999999998 0
    endloop
  endfacet
  facet normal 0 0 1
    outer loop
      vertex 4 6.666666666666666 6
      vertex 4 1.9999999999999998 6
      vertex 9.600000000000001 1.9999999999999998 6
    endloop
  endfacet
  facet normal 0 0 1
    outer loop
      vertex 4 6.666666666666666 6
      vertex 9.600000000000001 1.9999999999999998 6
      vertex 17.200000000000003 1.9999999999999998 6
    endloop
  endfacet
  facet normal 0 0 1
    outer loop
      vertex 4 6.666666666666666 6
      vertex 17.200000000000003 1.9999999999999998 6
      vertex 24.8 1.9999999999999998 6
    endloop
  endfacet
  facet normal 0 0 1
    outer loop
      vertex 4 6.666666666666666 6
      vertex 24.8 1.9999999999999998 6
      vertex 32.400000000000006 1.9999999999999998 6
    endloop
  endfacet
  facet normal 0 0 1
    outer loop
      vertex 4 6.666666666666666 6
      vertex 32.400000000000006 1.9999999999999998 6
      vertex 38 1.9999999999999998 6
    endloop
  endfacet
  facet normal 0 0 1
    outer loop
      vertex 4 6.666666666666666 6
      vertex 38 1.9999999999999998 6
      vertex 38 6.666666666666666 6
    endloop
  endfacet
  facet normal 0 0 1
    outer loop
      vertex 4 6.666666666666666 6
      vertex 38 6.666666666666666 6
      vertex 38 13.333333333333332 6
    endloop
  endfacet
  facet normal 0 0 1
    outer loop
      vertex 4 6.666666666666666 6
      vertex 38 13.333333333333332 6
      vertex 38 18 6
    endloop
  endfacet
  facet normal 0 0 1
    outer loop
      vertex 4 6.666666666666666 6
      vertex 38 18 6
      vertex 32.400000000000006 18 6
    endloop
  endfacet
  facet normal 0 0 1
    outer loop
      vertex 4 6.666666666666666 6
      vertex 32.400000000000006 18 6
      vertex 24.8 18 6
    endloop
  endfacet
  facet normal 0 0 1
    outer loop
      vertex 4 6.666666666666666 6
      vertex 24.8 18 6
      vertex 17.200000000000003 18 6
    endloop
  endfacet
  facet normal 0 0 1
    outer loop
      vertex 4 6.666666666666666 6
      vertex 17.200000000000003 18 6
      vertex 9.600000000000001 18 6
    endloop
  endfacet
  facet normal 0 0 1
    outer loop
      vertex 9.600000000000001 18 6
      vertex 4 18 6
      vertex 4 13.333333333333332 6
    endloop
  endfacet
  facet normal 0 0 1
    outer loop
      vertex 9.600000000000001 18 6
      vertex 4 13.333333333333332 6
      vertex 4 6.666666666666666 6
    endloop
  endfacet
  facet normal 1 0 0
    outer loop
      vertex 40 1.9999999999999998 4
      vertex 40 1.9999999999999998 1.9999999999999998
      vertex 40 6.666666666666666 1.9999999999999998
    endloop
  endfacet
  facet normal 1 0 0
    outer loop
      vertex 40 1.9999999999999998 4
      vertex 40 6.666666666666666 1.9999999999999998
      vertex 40 13.333333333333332 1.9999999999999998
    endloop
  endfacet
  facet normal 1 0 0
    outer loop
      vertex 40 1.9999999999999998 4
      vertex 40 13.333333333333332 1.9999999999999998
      vertex 40 18 1.9999999999999998
    endloop
  endfacet
  facet normal 1 0 0
    outer loop
      vertex 40 18 1.9999999999999998
      vertex 40 18 4
      vertex 40 13.333333333333332 4
    endloop
  endfacet
  facet normal 1 0 0
    outer loop
      vertex 40 18 1.9999999999999998
      vertex 40 13.333333333333332 4
      vertex 40 6.666666666666666 4
    endloop
  endfacet
  facet normal 1 0 0
    outer loop
      vertex 40 18 1.9999999999999998
      vertex 40 6.666666666666666 4
      vertex 40 1.9999999999999998 4
    endloop
  endfacet
  facet normal 0 1 0
    outer loop
      vertex 38 20 1.9999999999999998
      vertex 2.220446049250313e-16 20 4
      vertex 4 20 4
    endloop
  endfacet
  facet normal 0 1 0
    outer loop
      vertex 4 20 4
      vertex 9.600000000000001 20 4
      vertex 38 20 1.9999999999999998
    endloop
  endfacet
  facet normal 0 1 0
    outer loop
      vertex 9.600000000000001 20 4
      vertex 17.200000000000003 20 4
      vertex 38 20 1.9999999999999998
    endloop
  endfacet
  facet normal 0 1 0
    outer loop
      vertex 17.200000000000003 20 4
      vertex 24.8 20 4
      vertex 38 20 1.9999999999999998
    endloop
  endfacet
  facet normal 0 1 0
    outer loop
      vertex 24.8 20 4
      vertex 32.400000000000006 20 4
      vertex 38 20 1.9999999999999998
    endloop
  endfacet
  facet normal 0 1 0
    outer loop
      vertex 32.400000000000006 20 4
      vertex 38 20 4
      vertex 38 20 1.9999999999999998
    endloop
  endfacet
  facet normal 0 1 0
    outer loop
      vertex 38 20 1.9999999999999998
      vertex 32.400000000000006 20 1.9999999999999998
      vertex 2.220446049250313e-16 20 4
    endloop
  endfacet
  facet normal 0 1 0
    outer loop
      vertex 32.400000000000006 20 1.9999999999999998
      vertex 24.8 20 1.9999999999999998
      vertex 2.220446049250313e-16 20 4
    endloop
  endfacet
  facet normal 0 1 0
    outer loop
      vertex 24.8 20 1.9999999999999998
      vertex 17.200000000000003 20 1.9999999999999998
      vertex 2.220446049250313e-16 20 4
    endloop
  endfacet
  facet normal 0 1 0
    outer loop
      vertex 17.200000000000003 20 1.9999999999999998
      vertex 9.600000000000001 20 1.9999999999999998
      vertex 2.220446049250313e-16 20 4
    endloop
  endfacet
  facet normal 0 1 0
    outer loop
      vertex 9.600000000000001 20 1.9999999999999998
      vertex 2 20 1.9999999999999998
      vertex 2.220446049250313e-16 20 4
    endloop
  endfacet
  facet normal 0 -1 0
    outer loop
      vertex 2.220446049250313e-16 20 4
      vertex 2 20 1.9999999999999998
      vertex 1.9999999999999998 20 6
    endloop
  endfacet
  facet normal 0 -1 0
    outer loop
      vertex 1.9999999999999998 20 6
      vertex 1.9999999999999998 20 14
      vertex 2.220446049250313e-16 20 4
    endloop
  endfacet
  facet normal 0 -1 0
    outer loop
      vertex 1.9999999999999998 20 14
      vertex 1.9999999999999998 20 22
      vertex 2.220446049250313e-16 20 4
    endloop
  endfacet
  facet normal 0 -1 0
    outer loop
      vertex 1.9999999999999998 20 22
      vertex 1.9999999999999998 20 28
      vertex 2.220446049250313e-16 20 4
    endloop
  endfacet
  facet normal 0 -1 0
    outer loop
      vertex 2.220446049250313e-16 20 28
      vertex 2.220446049250313e-16 20 22
      vertex 1.9999999999999998 20 28
    endloop
  endfacet
  facet normal 0 -1 0
    outer loop
      vertex 2.220446049250313e-16 20 22
      vertex 2.220446049250313e-16 20 14
      vertex 1.9999999999999998 20 28
    endloop
  endfacet
  facet normal 0 -1 0
    outer loop
      vertex 1.9999999999999998 20 28
      vertex 2.220446049250313e-16 20 14
      vertex 2.220446049250313e-16 20 8
    endloop
  endfacet
  facet normal 0 -1 0
    outer loop
      vertex 2.220446049250313e-16 20 8
      vertex 2.220446049250313e-16 20 4
      vertex 1.9999999999999998 20 28
    endloop
  endfacet
  facet normal 1 0 0
    outer loop
      vertex 2 1.9999999999999998 14
      vertex 2 1.9999999999999998 8
      vertex 2 6.666666666666666 8
    endloop
  endfacet
  facet normal 1 0 0
    outer loop
      vertex 2 1.9999999999999998 14
      vertex 2 6.666666666666666 8
      vertex 2 13.333333333333332 8
    endloop
  endfacet
  facet normal 1 0 0
    outer loop
      vertex 2 1.9999999999999998 14
      vertex 2 13.333333333333332 8
      vertex 2 18 8
    endloop
  endfacet
  facet normal 1 0 0
    outer loop
      vertex 2 1.9999999999999998 14
      vertex 2 18 8
      vertex 2 18 14
    endloop
  endfacet
  facet normal 1 0 0
    outer loop
      vertex 2 1.9999999999999998 14
      vertex 2 18 14
      vertex 2 18 22
    endloop
  endfacet
  facet normal 1 0 0
    outer loop
      vertex 2 1.9999999999999998 14
      vertex 2 18 22
      vertex 2 18 28
    endloop
  endfacet
  facet normal 1 0 0
    outer loop
      vertex 2 1.9999999999999998 14
      vertex 2 18 28
      vertex 2 13.333333333333332 28
    endloop
  endfacet
  facet normal 1 0 0
    outer loop
      vertex 2 1.9999999999999998 14
      vertex 2 13.333333333333332 28
      vertex 2 6.666666666666666 28
    endloop
  endfacet
  facet normal 1 0 0
    outer loop
      vertex 2 6.666666666666666 28
      vertex 2 1.9999999999999998 28
      vertex 2 1.9999999999999998 22
    endloop
  endfacet
  facet normal 1 0 0
    outer loop
      vertex 2 6.666666666666666 28
      vertex 2 1.9999999999999998 22
      vertex 2 1.9999999999999998 14
    endloop
  endfacet
  facet normal 0 0 -1
    outer loop
      vertex 1.9999999999999998 18 30
      vertex 1.9999999999999998 13.333333333333332 30
      vertex 2.220446049250313e-16 1.9999999999999998 30
    endloop
  endfacet
  facet normal 0 0 -1
    outer loop
      vertex 1.9999999999999998 13.333333333333332 30
      vertex 1.9999999999999998 6.666666666666666 30
      vertex 2.220446049250313e-16 1.9999999999999998 30
    endloop
  endfacet
  facet normal 0 0 -1
    outer loop
      vertex 1.9999999999999998 6.666666666666666 30
      vertex 1.9999999999999998 1.9999999999999998 30
      vertex 2.220446049250313e-16 1.9999999999999998 30
    endloop
  endfacet
  facet normal 0 0 -1
    outer loop
      vertex 2.220446049250313e-16 1.9999999999999998 30
      vertex 2.220446049250313e-16 6.666666666666666 30
      vertex 1.9999999999999998 18 30
    endloop
  endfacet
  facet normal 0 0 -1
    outer loop
      vertex 2.220446049250313e-16 6.666666666666666 30
      vertex 2.220446049250313e-16 13.333333333333332 30
      vertex 1.9999999999999998 18 30
    endloop
  endfacet
  facet normal 0 0 -1
    outer loop
      vertex 2.220446049250313e-16 13.333333333333332 30
      vertex 2.220446049250313e-16 18 30
      vertex 1.9999999999999998 18 30
    endloop
  endfacet
  facet normal -0.9238795325112867 -0.3826834323650898 0
    outer loop
      vertex 0 1.9999999999999998 1.9999999999999998
      vertex 0.5857864376269049 0.5857864376269049 6
      vertex 0 1.9999999999999998 6
    endloop
  endfacet
  facet normal -0.9238795325112867 -0.3826834323650898 -6.628544313285996e-18
    outer loop
      vertex 0 1.9999999999999998 1.9999999999999998
      vertex 0.5857864376269049 0.5857864376269049 1.9999999999999998
      vertex 0.5857864376269049 0.5857864376269049 6
    endloop
  endfacet
  facet normal -0.3826834323650898 -0.9238795325112867 0
    outer loop
      vertex 0.5857864376269049 0.5857864376269049 1.9999999999999998
      vertex 1.9999999999999998 0 6
      vertex 0.5857864376269049 0.5857864376269049 6
    endloop
  endfacet
  facet normal -0.3826834323650898 -0.9238795325112867 -6.628544313285996e-18
    outer loop
      vertex 0.5857864376269049 0.5857864376269049 1.9999999999999998
      vertex 1.9999999999999998 0 1.9999999999999998
      vertex 1.9999999999999998 0 6
    endloop
  endfacet
  facet normal -0.9238795325112867 0 -0.3826834323650897
    outer loop
      vertex 0 1.9999999999999998 1.9999999999999998
      vertex 0 6.666666666666666 1.9999999999999998
      vertex 0.5857864376269049 6.666666666666666 0.5857864376269049
    endloop
  endfacet
  facet normal -0.9238795325112867 -5.681609411387997e-18 -0.3826834323650897
    outer loop
      vertex 0 1.9999999999999998 1.9999999999999998
      vertex 0.5857864376269049 6.666666666666666 0.5857864376269049
      vertex 0.5857864376269049 1.9999999999999998 0.5857864376269049
    endloop
  endfacet
  facet normal -0.3826834323650897 0 -0.9238795325112867
    outer loop
      vertex 0.5857864376269049 1.9999999999999998 0.5857864376269049
      vertex 0.5857864376269049 6.666666666666666 0.5857864376269049
      vertex 1.9999999999999998 6.666666666666666 0
    endloop
  endfacet
  facet normal -0.3826834323650897 -5.681609411387997e-18 -0.9238795325112867
    outer loop
      vertex 0.5857864376269049 1.9999999999999998 0.5857864376269049
      vertex 1.9999999999999998 6.666666666666666 0
      vertex 1.9999999999999998 1.9999999999999998 0
    endloop
  endfacet
  facet normal 0 -0.3826834323650898 -0.9238795325112868
    outer loop
      vertex 1.9999999999999998 1.9999999999999998 0
      vertex 8 1.9999999999999998 0
      vertex 8 0.5857864376269049 0.5857864376269049
    endloop
  endfacet
  facet normal -4.419029542190664e-18 -0.3826834323650898 -0.9238795325112868
    outer loop
      vertex 1.9999999999999998 1.9999999999999998 0
      vertex 8 0.5857864376269049 0.5857864376269049
      vertex 1.9999999999999998 0.5857864376269049 0.5857864376269049
    endloop
  endfacet
  facet normal 0 -0.9238795325112868 -0.3826834323650898
    outer loop
      vertex 1.9999999999999998 0.5857864376269049 0.5857864376269049
      vertex 8 0.5857864376269049 0.5857864376269049
      vertex 8 0 1.9999999999999998
    endloop
  endfacet
  facet normal -4.419029542190664e-18 -0.9238795325112868 -0.3826834323650898
    outer loop
      vertex 1.9999999999999998 0.5857864376269049 0.5857864376269049
      vertex 8 0 1.9999999999999998
      vertex 1.9999999999999998 0 1.9999999999999998
    endloop
  endfacet
  facet normal -0.9238795325112867 -0.3826834323650898 0
    outer loop
      vertex 0 1.9999999999999998 6
      vertex 0.5857864376269049 0.5857864376269049 14
      vertex 0 1.9999999999999998 14
    endloop
  endfacet
  facet normal -0.9238795325112867 -0.3826834323650898 -3.314272156642998e-18
    outer loop
      vertex 0 1.9999999999999998 6
      vertex 0.5857864376269049 0.5857864376269049 6
      vertex 0.5857864376269049 0.5857864376269049 14
    endloop
  endfacet
  facet normal -0.3826834323650898 -0.9238795325112867 0
    outer loop
      vertex 0.5857864376269049 0.5857864376269049 6
      vertex 1.9999999999999998 0 14
      vertex 0.5857864376269049 0.5857864376269049 14
    endloop
  endfacet
  facet normal -0.3826834323650898 -0.9238795325112867 -3.314272156642998e-18
    outer loop
      vertex 0.5857864376269049 0.5857864376269049 6
      vertex 1.9999999999999998 0 6
      vertex 1.9999999999999998 0 14
    endloop
  endfacet
  facet normal 0.9238795325112867 -0.38268343236508984 0
    outer loop
      vertex 2 1.9999999999999998 8
      vertex 2 1.9999999999999998 14
      vertex 1.414213562373095 0.5857864376269049 14
    endloop
  endfacet
  facet normal 0.9238795325112867 -0.38268343236508984 2.3450333397826352e-18
    outer loop
      vertex 2 1.9999999999999998 8
      vertex 1.414213562373095 0.5857864376269049 14
      vertex 1.414213562373095 0.5857864376269049 8
    endloop
  endfacet
  facet normal 0.3826834323650899 -0.9238795325112868 0
    outer loop
      vertex 1.414213562373095 0.5857864376269049 8
      vertex 1.414213562373095 0.5857864376269049 14
      vertex 2.220446049250313e-16 0 14
    endloop
  endfacet
  facet normal 0.3826834323650899 -0.9238795325112868 2.3450333397826414e-18
    outer loop
      vertex 1.414213562373095 0.5857864376269049 8
      vertex 2.220446049250313e-16 0 14
      vertex 2.220446049250313e-16 0 8
    endloop
  endfacet
  facet normal 0.38268343236508984 0 0.9238795325112866
    outer loop
      vertex 4 1.9999999999999998 6
      vertex 4 6.666666666666666 6
      vertex 2.585786437626905 6.666666666666666 6.585786437626905
    endloop
  endfacet
  facet normal 0.38268343236508984 -3.0150428654348167e-18 0.9238795325112866
    outer loop
      vertex 4 1.9999999999999998 6
      vertex 2.585786437626905 6.666666666666666 6.585786437626905
      vertex 2.585786437626905 1.9999999999999998 6.585786437626905
    endloop
  endfacet
  facet normal 0.9238795325112866 0 0.38268343236508984
    outer loop
      vertex 2.585786437626905 1.9999999999999998 6.585786437626905
      vertex 2.585786437626905 6.666666666666666 6.585786437626905
      vertex 2 6.666666666666666 8
    endloop
  endfacet
  facet normal 0.9238795325112866 -3.0150428654348167e-18 0.38268343236508984
    outer loop
      vertex 2.585786437626905 1.9999999999999998 6.585786437626905
      vertex 2 6.666666666666666 8
      vertex 2 1.9999999999999998 8
    endloop
  endfacet
  facet normal 0 -0.9238795325112867 0.3826834323650897
    outer loop
      vertex 4 0 4
      vertex 9.600000000000001 0 4
      vertex 9.600000000000001 0.5857864376269049 5.414213562373095
    endloop
  endfacet
  facet normal 4.734674509489995e-18 -0.9238795325112867 0.3826834323650897
    outer loop
      vertex 4 0 4
      vertex 9.600000000000001 0.5857864376269049 5.414213562373095
      vertex 4 0.5857864376269049 5.414213562373095
    endloop
  endfacet
  facet normal 0 -0.3826834323650899 0.9238795325112867
    outer loop
      vertex 4 0.5857864376269049 5.414213562373095
      vertex 9.600000000000001 0.5857864376269049 5.414213562373095
      vertex 9.600000000000001 1.9999999999999998 6
    endloop
  endfacet
  facet normal 2.51253572119568e-18 -0.3826834323650899 0.9238795325112867
    outer loop
      vertex 4 0.5857864376269049 5.414213562373095
      vertex 9.600000000000001 1.9999999999999998 6
      vertex 4 1.9999999999999998 6
    endloop
  endfacet
  facet normal 0 0.38268343236508934 -0.923879532511287
    outer loop
      vertex 1.9999999999999998 1.9999999999999998 30
      vertex 2.220446049250313e-16 0.5857864376269049 29.414213562373096
      vertex 2.220446049250313e-16 1.9999999999999998 30
    endloop
  endfacet
  facet normal -4.341352719962329e-18 0.38268343236508934 -0.923879532511287
    outer loop
      vertex 1.9999999999999998 1.9999999999999998 30
      vertex 1.9999999999999998 0.5857864376269049 29.414213562373096
      vertex 2.220446049250313e-16 0.5857864376269049 29.414213562373096
    endloop
  endfacet
  facet normal 0 0.923879532511287 -0.38268343236508956
    outer loop
      vertex 1.9999999999999998 0.5857864376269049 29.414213562373096
      vertex 2.220446049250313e-16 0 28
      vertex 2.220446049250313e-16 0.5857864376269049 29.414213562373096
    endloop
  endfacet
  facet normal 1.880635887261693e-18 0.923879532511287 -0.38268343236508956
    outer loop
      vertex 1.9999999999999998 0.5857864376269049 29.414213562373096
      vertex 1.9999999999999998 0 28
      vertex 2.220446049250313e-16 0 28
    endloop
  endfacet
  facet normal -0.9238795325112868 -0.3826834323650898 0
    outer loop
      vertex 0 1.9999999999999998 28
      vertex 0 1.9999999999999998 22
      vertex 0.5857864376269049 0.5857864376269049 22
    endloop
  endfacet
  facet normal -0.9238795325112868 -0.3826834323650898 -4.419029542190664e-18
    outer loop
      vertex 0 1.9999999999999998 28
      vertex 0.5857864376269049 0.5857864376269049 22
      vertex 0.5857864376269049 0.5857864376269049 28
    endloop
  endfacet
  facet normal -0.3826834323650898 -0.9238795325112868 0
    outer loop
      vertex 0.5857864376269049 0.5857864376269049 28
      vertex 0.5857864376269049 0.5857864376269049 22
      vertex 1.9999999999999998 0 22
    endloop
  endfacet
  facet normal -0.3826834323650898 -0.9238795325112868 -4.419029542190664e-18
    outer loop
      vertex 0.5857864376269049 0.5857864376269049 28
      vertex 1.9999999999999998 0 22
      vertex 1.9999999999999998 0 28
    endloop
  endfacet
  facet normal -0.38268343236508934 0 0.9238795325112868
    outer loop
      vertex 1.9999999999999998 1.9999999999999998 30
      vertex 1.9999999999999998 6.666666666666666 30
      vertex 0.5857864376269049 6.666666666666666 29.414213562373096
    endloop
  endfacet
  facet normal -0.38268343236508934 -1.8605797371267124e-18 0.9238795325112868
    outer loop
      vertex 1.9999999999999998 1.9999999999999998 30
      vertex 0.5857864376269049 6.666666666666666 29.414213562373096
      vertex 0.5857864376269049 1.9999999999999998 29.414213562373096
    endloop
  endfacet
  facet normal -0.9238795325112868 0 0.38268343236508956
    outer loop
      vertex 0.5857864376269049 1.9999999999999998 29.414213562373096
      vertex 0.5857864376269049 6.666666666666666 29.414213562373096
      vertex 0 6.666666666666666 28
    endloop
  endfacet
  facet normal -0.9238795325112868 8.059868088264397e-19 0.38268343236508956
    outer loop
      vertex 0.5857864376269049 1.9999999999999998 29.414213562373096
      vertex 0 6.666666666666666 28
      vertex 0 1.9999999999999998 28
    endloop
  endfacet
  facet normal 0.9238795325112867 -0.38268343236508984 0
    outer loop
      vertex 2 1.9999999999999998 28
      vertex 1.414213562373095 0.5857864376269049 22
      vertex 2 1.9999999999999998 22
    endloop
  endfacet
  facet normal 0.9238795325112867 -0.38268343236508984 2.3450333397826352e-18
    outer loop
      vertex 2 1.9999999999999998 28
      vertex 1.414213562373095 0.5857864376269049 28
      vertex 1.414213562373095 0.5857864376269049 22
    endloop
  endfacet
  facet normal 0.3826834323650899 -0.9238795325112868 0
    outer loop
      vertex 1.414213562373095 0.5857864376269049 28
      vertex 2.220446049250313e-16 0 22
      vertex 1.414213562373095 0.5857864376269049 22
    endloop
  endfacet
  facet normal 0.3826834323650899 -0.9238795325112868 2.3450333397826414e-18
    outer loop
      vertex 1.414213562373095 0.5857864376269049 28
      vertex 2.220446049250313e-16 0 28
      vertex 2.220446049250313e-16 0 22
    endloop
  endfacet
  facet normal 0.923879532511287 0 0.38268343236508945
    outer loop
      vertex 2 1.9999999999999998 28
      vertex 2 6.666666666666666 28
      vertex 1.4142135623730954 6.666666666666666 29.414213562373096
    endloop
  endfacet
  facet normal 0.923879532511287 -3.472553354779591e-18 0.38268343236508945
    outer loop
      vertex 2 1.9999999999999998 28
      vertex 1.4142135623730954 6.666666666666666 29.414213562373096
      vertex 1.4142135623730954 1.9999999999999998 29.414213562373096
    endloop
  endfacet
  facet normal 0.3826834323650893 0 0.9238795325112868
    outer loop
      vertex 1.4142135623730954 1.9999999999999998 29.414213562373096
      vertex 1.4142135623730954 6.666666666666666 29.414213562373096
      vertex 2.220446049250313e-16 6.666666666666666 30
    endloop
  endfacet
  facet normal 0.3826834323650893 -8.059868088264402e-19 0.9238795325112868
    outer loop
      vertex 1.4142135623730954 1.9999999999999998 29.414213562373096
      vertex 2.220446049250313e-16 6.666666666666666 30
      vertex 2.220446049250313e-16 1.9999999999999998 30
    endloop
  endfacet
  facet normal -0.9238795325112868 0.38268343236508956 0
    outer loop
      vertex 0 18 1.9999999999999998
      vertex 0 18 6
      vertex 0.5857864376269049 19.414213562373096 6
    endloop
  endfacet
  facet normal -0.9238795325112868 0.38268343236508956 9.403179436308462e-19
    outer loop
      vertex 0 18 1.9999999999999998
      vertex 0.5857864376269049 19.414213562373096 6
      vertex 0.5857864376269049 19.414213562373096 1.9999999999999998
    endloop
  endfacet
  facet normal -0.3826834323650894 0.923879532511287 0
    outer loop
      vertex 0.5857864376269049 19.414213562373096 1.9999999999999998
      vertex 0.5857864376269049 19.414213562373096 6
      vertex 1.9999999999999998 20 6
    endloop
  endfacet
  facet normal -0.38268343236508934 0.923879532511287 -2.0302879944084452e-17
    outer loop
      vertex 0.5857864376269049 19.414213562373096 1.9999999999999998
      vertex 1.9999999999999998 20 6
      vertex 2 20 1.9999999999999998
    endloop
  endfacet
  facet normal -0.9238795325112867 0 -0.3826834323650897
    outer loop
      vertex 0 18 1.9999999999999998
      vertex 0.5857864376269049 13.333333333333332 0.5857864376269049
      vertex 0 13.333333333333332 1.9999999999999998
    endloop
  endfacet
  facet normal -0.9238795325112867 -5.681609411387994e-18 -0.3826834323650897
    outer loop
      vertex 0 18 1.9999999999999998
      vertex 0.5857864376269049 18 0.5857864376269049
      vertex 0.5857864376269049 13.333333333333332 0.5857864376269049
    endloop
  endfacet
  facet normal -0.3826834323650897 0 -0.9238795325112867
    outer loop
      vertex 0.5857864376269049 18 0.5857864376269049
      vertex 1.9999999999999998 13.333333333333332 0
      vertex 0.5857864376269049 13.333333333333332 0.5857864376269049
    endloop
  endfacet
  facet normal -0.3826834323650897 -5.681609411387994e-18 -0.9238795325112867
    outer loop
      vertex 0.5857864376269049 18 0.5857864376269049
      vertex 1.9999999999999998 18 0
      vertex 1.9999999999999998 13.333333333333332 0
    endloop
  endfacet
  facet normal 0 0.38268343236508956 -0.923879532511287
    outer loop
      vertex 1.9999999999999998 18 0
      vertex 9.600000000000001 19.414213562373096 0.5857864376269049
      vertex 9.600000000000001 18 0
    endloop
  endfacet
  facet normal 4.949041808583401e-19 0.38268343236508956 -0.923879532511287
    outer loop
      vertex 1.9999999999999998 18 0
      vertex 1.9999999999999998 19.414213562373096 0.5857864376269049
      vertex 9.600000000000001 19.414213562373096 0.5857864376269049
    endloop
  endfacet
  facet normal 0 0.9238795325112868 -0.3826834323650893
    outer loop
      vertex 1.9999999999999998 19.414213562373096 0.5857864376269049
      vertex 9.600000000000001 20 1.9999999999999998
      vertex 9.600000000000001 19.414213562373096 0.5857864376269049
    endloop
  endfacet
  facet normal -1.1424612420953496e-18 0.923879532511287 -0.3826834323650894
    outer loop
      vertex 1.9999999999999998 19.414213562373096 0.5857864376269049
      vertex 2 20 1.9999999999999998
      vertex 9.600000000000001 20 1.9999999999999998
    endloop
  endfacet
  facet normal -0.9238795325112868 0.38268343236508956 0
    outer loop
      vertex 0 18 6
      vertex 0 18 14
      vertex 0.5857864376269049 19.414213562373096 14
    endloop
  endfacet
  facet normal -0.9238795325112868 0.38268343236508956 4.701589718154231e-19
    outer loop
      vertex 0 18 6
      vertex 0.5857864376269049 19.414213562373096 14
      vertex 0.5857864376269049 19.414213562373096 6
    endloop
  endfacet
  facet normal -0.3826834323650894 0.923879532511287 0
    outer loop
      vertex 0.5857864376269049 19.414213562373096 6
      vertex 0.5857864376269049 19.414213562373096 14
      vertex 1.9999999999999998 20 14
    endloop
  endfacet
  facet normal -0.3826834323650894 0.923879532511287 -1.0853381799905821e-18
    outer loop
      vertex 0.5857864376269049 19.414213562373096 6
      vertex 1.9999999999999998 20 14
      vertex 1.9999999999999998 20 6
    endloop
  endfacet
  facet normal 0.38268343236508984 0 0.9238795325112867
    outer loop
      vertex 4 18 6
      vertex 2.585786437626905 13.333333333333332 6.585786437626905
      vertex 4 13.333333333333332 6
    endloop
  endfacet
  facet normal 0.38268343236508984 -3.0150428654348156e-18 0.9238795325112867
    outer loop
      vertex 4 18 6
      vertex 2.585786437626905 18 6.585786437626905
      vertex 2.585786437626905 13.333333333333332 6.585786437626905
    endloop
  endfacet
  facet normal 0.9238795325112867 0 0.38268343236508984
    outer loop
      vertex 2.585786437626905 18 6.585786437626905
      vertex 2 13.333333333333332 8
      vertex 2.585786437626905 13.333333333333332 6.585786437626905
    endloop
  endfacet
  facet normal 0.9238795325112867 -3.0150428654348156e-18 0.38268343236508984
    outer loop
      vertex 2.585786437626905 18 6.585786437626905
      vertex 2 18 8
      vertex 2 13.333333333333332 8
    endloop
  endfacet
  facet normal 0.923879532511287 0.38268343236508945 0
    outer loop
      vertex 2 18 8
      vertex 1.4142135623730954 19.414213562373096 14
      vertex 2 18 14
    endloop
  endfacet
  facet normal 0.923879532511287 0.38268343236508945 -2.700874831495237e-18
    outer loop
      vertex 2 18 8
      vertex 1.4142135623730954 19.414213562373096 8
      vertex 1.4142135623730954 19.414213562373096 14
    endloop
  endfacet
  facet normal 0.38268343236508934 0.9238795325112871 0
    outer loop
      vertex 1.4142135623730954 19.414213562373096 8
      vertex 2.220446049250313e-16 20 14
      vertex 1.4142135623730954 19.414213562373096 14
    endloop
  endfacet
  facet normal 0.38268343236508934 0.9238795325112871 -6.268786290872312e-19
    outer loop
      vertex 1.4142135623730954 19.414213562373096 8
      vertex 2.220446049250313e-16 20 8
      vertex 2.220446049250313e-16 20 14
    endloop
  endfacet
  facet normal 0 0.3826834323650896 0.9238795325112867
    outer loop
      vertex 4 18 6
      vertex 9.600000000000001 18 6
      vertex 9.600000000000001 19.414213562373096 5.414213562373095
    endloop
  endfacet
  facet normal 1.5504831142722585e-18 0.3826834323650896 0.9238795325112867
    outer loop
      vertex 4 18 6
      vertex 9.600000000000001 19.414213562373096 5.414213562373095
      vertex 4 19.414213562373096 5.414213562373095
    endloop
  endfacet
  facet normal 0 0.9238795325112868 0.3826834323650894
    outer loop
      vertex 4 19.414213562373096 5.414213562373095
      vertex 9.600000000000001 19.414213562373096 5.414213562373095
      vertex 9.600000000000001 20 4
    endloop
  endfacet
  facet normal 1.5504831142722599e-18 0.9238795325112868 0.3826834323650894
    outer loop
      vertex 4 19.414213562373096 5.414213562373095
      vertex 9.600000000000001 20 4
      vertex 4 20 4
    endloop
  endfacet
  facet normal 0 -0.3826834323650891 -0.923879532511287
    outer loop
      vertex 1.9999999999999998 18 30
      vertex 2.220446049250313e-16 18 30
      vertex 2.220446049250313e-16 19.414213562373096 29.414213562373096
    endloop
  endfacet
  facet normal 1.5717805459272816e-17 -0.3826834323650891 -0.923879532511287
    outer loop
      vertex 1.9999999999999998 18 30
      vertex 2.220446049250313e-16 19.414213562373096 29.414213562373096
      vertex 1.9999999999999998 19.414213562373096 29.414213562373096
    endloop
  endfacet
  facet normal 0 -0.923879532511287 -0.3826834323650891
    outer loop
      vertex 1.9999999999999998 19.414213562373096 29.414213562373096
      vertex 2.220446049250313e-16 19.414213562373096 29.414213562373096
      vertex 2.220446049250313e-16 20 28
    endloop
  endfacet
  facet normal 1.5717805459272816e-17 -0.923879532511287 -0.3826834323650891
    outer loop
      vertex 1.9999999999999998 19.414213562373096 29.414213562373096
      vertex 2.220446049250313e-16 20 28
      vertex 1.9999999999999998 20 28
    endloop
  endfacet
  facet normal -0.3826834323650894 0 0.923879532511287
    outer loop
      vertex 1.9999999999999998 18 30
      vertex 0.5857864376269049 13.333333333333332 29.414213562373096
      vertex 1.9999999999999998 13.333333333333332 30
    endloop
  endfacet
  facet normal -0.3826834323650894 -1.8605797371267116e-18 0.923879532511287
    outer loop
      vertex 1.9999999999999998 18 30
      vertex 0.5857864376269049 18 29.414213562373096
      vertex 0.5857864376269049 13.333333333333332 29.414213562373096
    endloop
  endfacet
  facet normal -0.9238795325112868 0 0.38268343236508956
    outer loop
      vertex 0.5857864376269049 18 29.414213562373096
      vertex 0 13.333333333333332 28
      vertex 0.5857864376269049 13.333333333333332 29.414213562373096
    endloop
  endfacet
  facet normal -0.9238795325112868 8.059868088264394e-19 0.38268343236508956
    outer loop
      vertex 0.5857864376269049 18 29.414213562373096
      vertex 0 18 28
      vertex 0 13.333333333333332 28
    endloop
  endfacet
  facet normal -0.923879532511287 0.38268343236508956 0
    outer loop
      vertex 0 18 28
      vertex 0.5857864376269049 19.414213562373096 22
      vertex 0 18 22
    endloop
  endfacet
  facet normal -0.923879532511287 0.38268343236508956 6.268786290872308e-19
    outer loop
      vertex 0 18 28
      vertex 0.5857864376269049 19.414213562373096 28
      vertex 0.5857864376269049 19.414213562373096 22
    endloop
  endfacet
  facet normal -0.38268343236508945 0.9238795325112871 0
    outer loop
      vertex 0.5857864376269049 19.414213562373096 28
      vertex 1.9999999999999998 20 22
      vertex 0.5857864376269049 19.414213562373096 22
    endloop
  endfacet
  facet normal -0.38268343236508945 0.9238795325112871 -1.4471175733207763e-18
    outer loop
      vertex 0.5857864376269049 19.414213562373096 28
      vertex 1.9999999999999998 20 28
      vertex 1.9999999999999998 20 22
    endloop
  endfacet
  facet normal 0.923879532511287 0 0.38268343236508945
    outer loop
      vertex 2 18 28
      vertex 1.4142135623730954 13.333333333333332 29.414213562373096
      vertex 2 13.333333333333332 28
    endloop
  endfacet
  facet normal 0.923879532511287 -3.47255335477959e-18 0.38268343236508945
    outer loop
      vertex 2 18 28
      vertex 1.4142135623730954 18 29.414213562373096
      vertex 1.4142135623730954 13.333333333333332 29.414213562373096
    endloop
  endfacet
  facet normal 0.38268343236508934 0 0.923879532511287
    outer loop
      vertex 1.4142135623730954 18 29.414213562373096
      vertex 2.220446049250313e-16 13.333333333333332 30
      vertex 1.4142135623730954 13.333333333333332 29.414213562373096
    endloop
  endfacet
  facet normal 0.38268343236508934 -8.059868088264399e-19 0.923879532511287
    outer loop
      vertex 1.4142135623730954 18 29.414213562373096
      vertex 2.220446049250313e-16 18 30
      vertex 2.220446049250313e-16 13.333333333333332 30
    endloop
  endfacet
  facet normal 0.923879532511287 0.38268343236508945 0
    outer loop
      vertex 2 18 28
      vertex 2 18 22
      vertex 1.4142135623730954 19.414213562373096 22
    endloop
  endfacet
  facet normal 0.923879532511287 0.38268343236508945 -2.700874831495237e-18
    outer loop
      vertex 2 18 28
      vertex 1.4142135623730954 19.414213562373096 22
      vertex 1.4142135623730954 19.414213562373096 28
    endloop
  endfacet
  facet normal 0.38268343236508934 0.9238795325112871 0
    outer loop
      vertex 1.4142135623730954 19.414213562373096 28
      vertex 1.4142135623730954 19.414213562373096 22
      vertex 2.220446049250313e-16 20 22
    endloop
  endfacet
  facet normal 0.38268343236508934 0.9238795325112871 -6.268786290872312e-19
    outer loop
      vertex 1.4142135623730954 19.414213562373096 28
      vertex 2.220446049250313e-16 20 22
      vertex 2.220446049250313e-16 20 28
    endloop
  endfacet
  facet normal 0.3826834323650904 -0.9238795325112865 0
    outer loop
      vertex 38 0 1.9999999999999998
      vertex 39.41421356237309 0.5857864376269049 4
      vertex 38 0 4
    endloop
  endfacet
  facet normal 0.3826834323650904 -0.9238795325112865 1.1122039676296328e-17
    outer loop
      vertex 38 0 1.9999999999999998
      vertex 39.41421356237309 0.5857864376269049 1.9999999999999998
      vertex 39.41421356237309 0.5857864376269049 4
    endloop
  endfacet
  facet normal 0.9238795325112861 -0.38268343236509134 0
    outer loop
      vertex 39.41421356237309 0.5857864376269049 1.9999999999999998
      vertex 40 1.9999999999999998 4
      vertex 39.41421356237309 0.5857864376269049 4
    endloop
  endfacet
  facet normal 0.9238795325112861 -0.38268343236509134 4.9000510690720275e-18
    outer loop
      vertex 39.41421356237309 0.5857864376269049 1.9999999999999998
      vertex 40 1.9999999999999998 1.9999999999999998
      vertex 40 1.9999999999999998 4
    endloop
  endfacet
  facet normal 0 -0.3826834323650898 -0.9238795325112868
    outer loop
      vertex 38 1.9999999999999998 0
      vertex 32 0.5857864376269049 0.5857864376269049
      vertex 32 1.9999999999999998 0
    endloop
  endfacet
  facet normal -4.419029542190664e-18 -0.3826834323650898 -0.9238795325112868
    outer loop
      vertex 38 1.9999999999999998 0
      vertex 38 0.5857864376269049 0.5857864376269049
      vertex 32 0.5857864376269049 0.5857864376269049
    endloop
  endfacet
  facet normal 0 -0.9238795325112868 -0.3826834323650898
    outer loop
      vertex 38 0.5857864376269049 0.5857864376269049
      vertex 32 0 1.9999999999999998
      vertex 32 0.5857864376269049 0.5857864376269049
    endloop
  endfacet
  facet normal -4.419029542190664e-18 -0.9238795325112868 -0.3826834323650898
    outer loop
      vertex 38 0.5857864376269049 0.5857864376269049
      vertex 38 0 1.9999999999999998
      vertex 32 0 1.9999999999999998
    endloop
  endfacet
  facet normal 0.9238795325112861 0 -0.3826834323650914
    outer loop
      vertex 40 1.9999999999999998 1.9999999999999998
      vertex 39.41421356237309 6.666666666666666 0.5857864376269049
      vertex 40 6.666666666666666 1.9999999999999998
    endloop
  endfacet
  facet normal 0.9238795325112861 2.100021886745155e-18 -0.3826834323650914
    outer loop
      vertex 40 1.9999999999999998 1.9999999999999998
      vertex 39.41421356237309 1.9999999999999998 0.5857864376269049
      vertex 39.41421356237309 6.666666666666666 0.5857864376269049
    endloop
  endfacet
  facet normal 0.38268343236509034 0 -0.9238795325112865
    outer loop
      vertex 39.41421356237309 1.9999999999999998 0.5857864376269049
      vertex 38 6.666666666666666 0
      vertex 39.41421356237309 6.666666666666666 0.5857864376269049
    endloop
  endfacet
  facet normal 0.38268343236509034 4.7665884326984266e-18 -0.9238795325112865
    outer loop
      vertex 39.41421356237309 1.9999999999999998 0.5857864376269049
      vertex 38 1.9999999999999998 0
      vertex 38 6.666666666666666 0
    endloop
  endfacet
  facet normal 0 -0.9238795325112867 0.3826834323650897
    outer loop
      vertex 38 0 4
      vertex 32.400000000000006 0.5857864376269049 5.414213562373095
      vertex 32.400000000000006 0 4
    endloop
  endfacet
  facet normal 4.734674509490001e-18 -0.9238795325112867 0.3826834323650897
    outer loop
      vertex 38 0 4
      vertex 38 0.5857864376269049 5.414213562373095
      vertex 32.400000000000006 0.5857864376269049 5.414213562373095
    endloop
  endfacet
  facet normal 0 -0.3826834323650899 0.9238795325112867
    outer loop
      vertex 38 0.5857864376269049 5.414213562373095
      vertex 32.400000000000006 1.9999999999999998 6
      vertex 32.400000000000006 0.5857864376269049 5.414213562373095
    endloop
  endfacet
  facet normal 2.512535721195683e-18 -0.3826834323650899 0.9238795325112867
    outer loop
      vertex 38 0.5857864376269049 5.414213562373095
      vertex 38 1.9999999999999998 6
      vertex 32.400000000000006 1.9999999999999998 6
    endloop
  endfacet
  facet normal 0.3826834323650905 0 0.9238795325112865
    outer loop
      vertex 38 1.9999999999999998 6
      vertex 39.41421356237309 6.666666666666666 5.414213562373095
      vertex 38 6.666666666666666 6
    endloop
  endfacet
  facet normal 0.3826834323650905 -2.1000218867451596e-18 0.9238795325112865
    outer loop
      vertex 38 1.9999999999999998 6
      vertex 39.41421356237309 1.9999999999999998 5.414213562373095
      vertex 39.41421356237309 6.666666666666666 5.414213562373095
    endloop
  endfacet
  facet normal 0.9238795325112861 0 0.3826834323650914
    outer loop
      vertex 39.41421356237309 1.9999999999999998 5.414213562373095
      vertex 40 6.666666666666666 4
      vertex 39.41421356237309 6.666666666666666 5.414213562373095
    endloop
  endfacet
  facet normal 0.9238795325112861 -2.100021886745155e-18 0.3826834323650914
    outer loop
      vertex 39.41421356237309 1.9999999999999998 5.414213562373095
      vertex 40 1.9999999999999998 4
      vertex 40 6.666666666666666 4
    endloop
  endfacet
  facet normal 0.38268343236509 0.9238795325112866 0
    outer loop
      vertex 38 20 1.9999999999999998
      vertex 38 20 4
      vertex 39.41421356237309 19.414213562373096 4
    endloop
  endfacet
  facet normal 0.38268343236509 0.9238795325112866 6.476401670237441e-18
    outer loop
      vertex 38 20 1.9999999999999998
      vertex 39.41421356237309 19.414213562373096 4
      vertex 39.41421356237309 19.414213562373096 1.9999999999999998
    endloop
  endfacet
  facet normal 0.9238795325112862 0.3826834323650911 0
    outer loop
      vertex 39.41421356237309 19.414213562373096 1.9999999999999998
      vertex 39.41421356237309 19.414213562373096 4
      vertex 40 18 4
    endloop
  endfacet
  facet normal 0.9238795325112862 0.3826834323650911 6.476401670237421e-18
    outer loop
      vertex 39.41421356237309 19.414213562373096 1.9999999999999998
      vertex 40 18 4
      vertex 40 18 1.9999999999999998
    endloop
  endfacet
  facet normal 0 0.38268343236508956 -0.9238795325112868
    outer loop
      vertex 38 18 0
      vertex 32.400000000000006 18 0
      vertex 32.400000000000006 19.414213562373096 0.5857864376269049
    endloop
  endfacet
  facet normal 6.716556740220337e-19 0.38268343236508956 -0.9238795325112868
    outer loop
      vertex 38 18 0
      vertex 32.400000000000006 19.414213562373096 0.5857864376269049
      vertex 38 19.414213562373096 0.5857864376269049
    endloop
  endfacet
  facet normal 0 0.923879532511287 -0.38268343236508934
    outer loop
      vertex 38 19.414213562373096 0.5857864376269049
      vertex 32.400000000000006 19.414213562373096 0.5857864376269049
      vertex 32.400000000000006 20 1.9999999999999998
    endloop
  endfacet
  facet normal -1.5504831142722618e-18 0.923879532511287 -0.38268343236508934
    outer loop
      vertex 38 19.414213562373096 0.5857864376269049
      vertex 32.400000000000006 20 1.9999999999999998
      vertex 38 20 1.9999999999999998
    endloop
  endfacet
  facet normal 0.9238795325112861 0 -0.38268343236509134
    outer loop
      vertex 40 18 1.9999999999999998
      vertex 40 13.333333333333332 1.9999999999999998
      vertex 39.41421356237309 13.333333333333332 0.5857864376269049
    endloop
  endfacet
  facet normal 0.9238795325112861 2.1000218867451543e-18 -0.38268343236509134
    outer loop
      vertex 40 18 1.9999999999999998
      vertex 39.41421356237309 13.333333333333332 0.5857864376269049
      vertex 39.41421356237309 18 0.5857864376269049
    endloop
  endfacet
  facet normal 0.3826834323650904 0 -0.9238795325112865
    outer loop
      vertex 39.41421356237309 18 0.5857864376269049
      vertex 39.41421356237309 13.333333333333332 0.5857864376269049
      vertex 38 13.333333333333332 0
    endloop
  endfacet
  facet normal 0.3826834323650904 4.766588432698425e-18 -0.9238795325112865
    outer loop
      vertex 39.41421356237309 18 0.5857864376269049
      vertex 38 13.333333333333332 0
      vertex 38 18 0
    endloop
  endfacet
  facet normal 0 0.3826834323650897 0.9238795325112868
    outer loop
      vertex 38 18 6
      vertex 32.400000000000006 19.414213562373096 5.414213562373095
      vertex 32.400000000000006 18 6
    endloop
  endfacet
  facet normal 1.5504831142722608e-18 0.3826834323650897 0.9238795325112868
    outer loop
      vertex 38 18 6
      vertex 38 19.414213562373096 5.414213562373095
      vertex 32.400000000000006 19.414213562373096 5.414213562373095
    endloop
  endfacet
  facet normal 0 0.923879532511287 0.38268343236508934
    outer loop
      vertex 38 19.414213562373096 5.414213562373095
      vertex 32.400000000000006 20 4
      vertex 32.400000000000006 19.414213562373096 5.414213562373095
    endloop
  endfacet
  facet normal 1.5504831142722618e-18 0.923879532511287 0.38268343236508934
    outer loop
      vertex 38 19.414213562373096 5.414213562373095
      vertex 38 20 4
      vertex 32.400000000000006 20 4
    endloop
  endfacet
  facet normal 0.38268343236509045 0 0.9238795325112864
    outer loop
      vertex 38 18 6
      vertex 38 13.333333333333332 6
      vertex 39.41421356237309 13.333333333333332 5.414213562373095
    endloop
  endfacet
  facet normal 0.38268343236509045 -2.100021886745159e-18 0.9238795325112864
    outer loop
      vertex 38 18 6
      vertex 39.41421356237309 13.333333333333332 5.414213562373095
      vertex 39.41421356237309 18 5.414213562373095
    endloop
  endfacet
  facet normal 0.9238795325112861 0 0.38268343236509134
    outer loop
      vertex 39.41421356237309 18 5.414213562373095
      vertex 39.41421356237309 13.333333333333332 5.414213562373095
      vertex 40 13.333333333333332 4
    endloop
  endfacet
  facet normal 0.9238795325112861 -2.1000218867451543e-18 0.38268343236509134
    outer loop
      vertex 39.41421356237309 18 5.414213562373095
      vertex 40 13.333333333333332 4
      vertex 40 18 4
    endloop
  endfacet
  facet normal -0.9238795325112867 0 -0.3826834323650897
    outer loop
      vertex 0 6.666666666666666 1.9999999999999998
      vertex 0 13.333333333333332 1.9999999999999998
      vertex 0.5857864376269049 13.333333333333332 0.5857864376269049
    endloop
  endfacet
  facet normal -0.9238795325112867 -3.9771265879715976e-18 -0.3826834323650897
    outer loop
      vertex 0 6.666666666666666 1.9999999999999998
      vertex 0.5857864376269049 13.333333333333332 0.5857864376269049
      vertex 0.5857864376269049 6.666666666666666 0.5857864376269049
    endloop
  endfacet
  facet normal -0.3826834323650897 0 -0.9238795325112867
    outer loop
      vertex 0.5857864376269049 6.666666666666666 0.5857864376269049
      vertex 0.5857864376269049 13.333333333333332 0.5857864376269049
      vertex 1.9999999999999998 13.333333333333332 0
    endloop
  endfacet
  facet normal -0.3826834323650897 -3.9771265879715976e-18 -0.9238795325112867
    outer loop
      vertex 0.5857864376269049 6.666666666666666 0.5857864376269049
      vertex 1.9999999999999998 13.333333333333332 0
      vertex 1.9999999999999998 6.666666666666666 0
    endloop
  endfacet
  facet normal 0 -0.3826834323650898 -0.9238795325112867
    outer loop
      vertex 8 1.9999999999999998 0
      vertex 16 1.9999999999999998 0
      vertex 16 0.5857864376269049 0.5857864376269049
    endloop
  endfacet
  facet normal -3.314272156642998e-18 -0.3826834323650898 -0.9238795325112867
    outer loop
      vertex 8 1.9999999999999998 0
      vertex 16 0.5857864376269049 0.5857864376269049
      vertex 8 0.5857864376269049 0.5857864376269049
    endloop
  endfacet
  facet normal 0 -0.9238795325112867 -0.3826834323650898
    outer loop
      vertex 8 0.5857864376269049 0.5857864376269049
      vertex 16 0.5857864376269049 0.5857864376269049
      vertex 16 0 1.9999999999999998
    endloop
  endfacet
  facet normal -3.314272156642998e-18 -0.9238795325112867 -0.3826834323650898
    outer loop
      vertex 8 0.5857864376269049 0.5857864376269049
      vertex 16 0 1.9999999999999998
      vertex 8 0 1.9999999999999998
    endloop
  endfacet
  facet normal 0 -0.3826834323650898 -0.9238795325112867
    outer loop
      vertex 16 1.9999999999999998 0
      vertex 24 1.9999999999999998 0
      vertex 24 0.5857864376269049 0.5857864376269049
    endloop
  endfacet
  facet normal -3.314272156642998e-18 -0.3826834323650898 -0.9238795325112867
    outer loop
      vertex 16 1.9999999999999998 0
      vertex 24 0.5857864376269049 0.5857864376269049
      vertex 16 0.5857864376269049 0.5857864376269049
    endloop
  endfacet
  facet normal 0 -0.9238795325112867 -0.3826834323650898
    outer loop
      vertex 16 0.5857864376269049 0.5857864376269049
      vertex 24 0.5857864376269049 0.5857864376269049
      vertex 24 0 1.9999999999999998
    endloop
  endfacet
  facet normal -3.314272156642998e-18 -0.9238795325112867 -0.3826834323650898
    outer loop
      vertex 16 0.5857864376269049 0.5857864376269049
      vertex 24 0 1.9999999999999998
      vertex 16 0 1.9999999999999998
    endloop
  endfacet
  facet normal 0 -0.3826834323650898 -0.9238795325112867
    outer loop
      vertex 24 1.9999999999999998 0
      vertex 32 1.9999999999999998 0
      vertex 32 0.5857864376269049 0.5857864376269049
    endloop
  endfacet
  facet normal -3.314272156642998e-18 -0.3826834323650898 -0.9238795325112867
    outer loop
      vertex 24 1.9999999999999998 0
      vertex 32 0.5857864376269049 0.5857864376269049
      vertex 24 0.5857864376269049 0.5857864376269049
    endloop
  endfacet
  facet normal 0 -0.9238795325112867 -0.3826834323650898
    outer loop
      vertex 24 0.5857864376269049 0.5857864376269049
      vertex 32 0.5857864376269049 0.5857864376269049
      vertex 32 0 1.9999999999999998
    endloop
  endfacet
  facet normal -3.314272156642998e-18 -0.9238795325112867 -0.3826834323650898
    outer loop
      vertex 24 0.5857864376269049 0.5857864376269049
      vertex 32 0 1.9999999999999998
      vertex 24 0 1.9999999999999998
    endloop
  endfacet
  facet normal -0.9238795325112867 -0.3826834323650898 0
    outer loop
      vertex 0 1.9999999999999998 14
      vertex 0.5857864376269049 0.5857864376269049 22
      vertex 0 1.9999999999999998 22
    endloop
  endfacet
  facet normal -0.9238795325112867 -0.3826834323650898 -3.314272156642998e-18
    outer loop
      vertex 0 1.9999999999999998 14
      vertex 0.5857864376269049 0.5857864376269049 14
      vertex 0.5857864376269049 0.5857864376269049 22
    endloop
  endfacet
  facet normal -0.3826834323650898 -0.9238795325112867 0
    outer loop
      vertex 0.5857864376269049 0.5857864376269049 14
      vertex 1.9999999999999998 0 22
      vertex 0.5857864376269049 0.5857864376269049 22
    endloop
  endfacet
  facet normal -0.3826834323650898 -0.9238795325112867 -3.314272156642998e-18
    outer loop
      vertex 0.5857864376269049 0.5857864376269049 14
      vertex 1.9999999999999998 0 14
      vertex 1.9999999999999998 0 22
    endloop
  endfacet
  facet normal 0.9238795325112867 -0.3826834323650899 0
    outer loop
      vertex 2 1.9999999999999998 14
      vertex 2 1.9999999999999998 22
      vertex 1.414213562373095 0.5857864376269049 22
    endloop
  endfacet
  facet normal 0.9238795325112867 -0.3826834323650899 1.7587750048369766e-18
    outer loop
      vertex 2 1.9999999999999998 14
      vertex 1.414213562373095 0.5857864376269049 22
      vertex 1.414213562373095 0.5857864376269049 14
    endloop
  endfacet
  facet normal 0.3826834323650898 -0.9238795325112866 0
    outer loop
      vertex 1.414213562373095 0.5857864376269049 14
      vertex 1.414213562373095 0.5857864376269049 22
      vertex 2.220446049250313e-16 0 22
    endloop
  endfacet
  facet normal 0.3826834323650898 -0.9238795325112866 1.7587750048369805e-18
    outer loop
      vertex 1.414213562373095 0.5857864376269049 14
      vertex 2.220446049250313e-16 0 22
      vertex 2.220446049250313e-16 0 14
    endloop
  endfacet
  facet normal 0.3826834323650899 0 0.9238795325112867
    outer loop
      vertex 4 6.666666666666666 6
      vertex 4 13.333333333333332 6
      vertex 2.585786437626905 13.333333333333332 6.585786437626905
    endloop
  endfacet
  facet normal 0.3826834323650899 -2.110530005804372e-18 0.9238795325112867
    outer loop
      vertex 4 6.666666666666666 6
      vertex 2.585786437626905 13.333333333333332 6.585786437626905
      vertex 2.585786437626905 6.666666666666666 6.585786437626905
    endloop
  endfacet
  facet normal 0.9238795325112867 0 0.3826834323650899
    outer loop
      vertex 2.585786437626905 6.666666666666666 6.585786437626905
      vertex 2.585786437626905 13.333333333333332 6.585786437626905
      vertex 2 13.333333333333332 8
    endloop
  endfacet
  facet normal 0.9238795325112867 -2.110530005804372e-18 0.3826834323650899
    outer loop
      vertex 2.585786437626905 6.666666666666666 6.585786437626905
      vertex 2 13.333333333333332 8
      vertex 2 6.666666666666666 8
    endloop
  endfacet
  facet normal 0 -0.9238795325112868 0.3826834323650898
    outer loop
      vertex 9.600000000000001 0 4
      vertex 17.200000000000003 0 4
      vertex 17.200000000000003 0.5857864376269049 5.414213562373095
    endloop
  endfacet
  facet normal 3.488707533308418e-18 -0.9238795325112868 0.3826834323650898
    outer loop
      vertex 9.600000000000001 0 4
      vertex 17.200000000000003 0.5857864376269049 5.414213562373095
      vertex 9.600000000000001 0.5857864376269049 5.414213562373095
    endloop
  endfacet
  facet normal 0 -0.38268343236508984 0.9238795325112867
    outer loop
      vertex 9.600000000000001 0.5857864376269049 5.414213562373095
      vertex 17.200000000000003 0.5857864376269049 5.414213562373095
      vertex 17.200000000000003 1.9999999999999998 6
    endloop
  endfacet
  facet normal 1.8513421103547118e-18 -0.38268343236508984 0.9238795325112867
    outer loop
      vertex 9.600000000000001 0.5857864376269049 5.414213562373095
      vertex 17.200000000000003 1.9999999999999998 6
      vertex 9.600000000000001 1.9999999999999998 6
    endloop
  endfacet
  facet normal 0 -0.9238795325112867 0.3826834323650897
    outer loop
      vertex 17.200000000000003 0 4
      vertex 24.8 0 4
      vertex 24.8 0.5857864376269049 5.414213562373095
    endloop
  endfacet
  facet normal 3.488707533308419e-18 -0.9238795325112867 0.3826834323650897
    outer loop
      vertex 17.200000000000003 0 4
      vertex 24.8 0.5857864376269049 5.414213562373095
      vertex 17.200000000000003 0.5857864376269049 5.414213562373095
    endloop
  endfacet
  facet normal 0 -0.3826834323650899 0.9238795325112867
    outer loop
      vertex 17.200000000000003 0.5857864376269049 5.414213562373095
      vertex 24.8 0.5857864376269049 5.414213562373095
      vertex 24.8 1.9999999999999998 6
    endloop
  endfacet
  facet normal 1.8513421103547125e-18 -0.3826834323650899 0.9238795325112867
    outer loop
      vertex 17.200000000000003 0.5857864376269049 5.414213562373095
      vertex 24.8 1.9999999999999998 6
      vertex 17.200000000000003 1.9999999999999998 6
    endloop
  endfacet
  facet normal 0 -0.9238795325112867 0.3826834323650897
    outer loop
      vertex 24.8 0 4
      vertex 32.400000000000006 0 4
      vertex 32.400000000000006 0.5857864376269049 5.414213562373095
    endloop
  endfacet
  facet normal 3.488707533308417e-18 -0.9238795325112867 0.3826834323650897
    outer loop
      vertex 24.8 0 4
      vertex 32.400000000000006 0.5857864376269049 5.414213562373095
      vertex 24.8 0.5857864376269049 5.414213562373095
    endloop
  endfacet
  facet normal 0 -0.38268343236508984 0.9238795325112866
    outer loop
      vertex 24.8 0.5857864376269049 5.414213562373095
      vertex 32.400000000000006 0.5857864376269049 5.414213562373095
      vertex 32.400000000000006 1.9999999999999998 6
    endloop
  endfacet
  facet normal 1.8513421103547106e-18 -0.38268343236508984 0.9238795325112866
    outer loop
      vertex 24.8 0.5857864376269049 5.414213562373095
      vertex 32.400000000000006 1.9999999999999998 6
      vertex 24.8 1.9999999999999998 6
    endloop
  endfacet
  facet normal -0.38268343236508934 0 0.923879532511287
    outer loop
      vertex 1.9999999999999998 6.666666666666666 30
      vertex 1.9999999999999998 13.333333333333332 30
      vertex 0.5857864376269049 13.333333333333332 29.414213562373096
    endloop
  endfacet
  facet normal -0.38268343236508934 -1.3024058159886987e-18 0.923879532511287
    outer loop
      vertex 1.9999999999999998 6.666666666666666 30
      vertex 0.5857864376269049 13.333333333333332 29.414213562373096
      vertex 0.5857864376269049 6.666666666666666 29.414213562373096
    endloop
  endfacet
  facet normal -0.9238795325112868 0 0.38268343236508956
    outer loop
      vertex 0.5857864376269049 6.666666666666666 29.414213562373096
      vertex 0.5857864376269049 13.333333333333332 29.414213562373096
      vertex 0 13.333333333333332 28
    endloop
  endfacet
  facet normal -0.9238795325112868 5.641907661785078e-19 0.38268343236508956
    outer loop
      vertex 0.5857864376269049 6.666666666666666 29.414213562373096
      vertex 0 13.333333333333332 28
      vertex 0 6.666666666666666 28
    endloop
  endfacet
  facet normal 0.923879532511287 0 0.38268343236508945
    outer loop
      vertex 2 6.666666666666666 28
      vertex 2 13.333333333333332 28
      vertex 1.4142135623730954 13.333333333333332 29.414213562373096
    endloop
  endfacet
  facet normal 0.923879532511287 -2.430787348345714e-18 0.38268343236508945
    outer loop
      vertex 2 6.666666666666666 28
      vertex 1.4142135623730954 13.333333333333332 29.414213562373096
      vertex 1.4142135623730954 6.666666666666666 29.414213562373096
    endloop
  endfacet
  facet normal 0.3826834323650893 0 0.923879532511287
    outer loop
      vertex 1.4142135623730954 6.666666666666666 29.414213562373096
      vertex 1.4142135623730954 13.333333333333332 29.414213562373096
      vertex 2.220446049250313e-16 13.333333333333332 30
    endloop
  endfacet
  facet normal 0.3826834323650893 -5.641907661785081e-19 0.923879532511287
    outer loop
      vertex 1.4142135623730954 6.666666666666666 29.414213562373096
      vertex 2.220446049250313e-16 13.333333333333332 30
      vertex 2.220446049250313e-16 6.666666666666666 30
    endloop
  endfacet
  facet normal 0 0.38268343236508956 -0.923879532511287
    outer loop
      vertex 9.600000000000001 18 0
      vertex 17.200000000000003 19.414213562373096 0.5857864376269049
      vertex 17.200000000000003 18 0
    endloop
  endfacet
  facet normal 4.949041808583401e-19 0.38268343236508956 -0.923879532511287
    outer loop
      vertex 9.600000000000001 18 0
      vertex 9.600000000000001 19.414213562373096 0.5857864376269049
      vertex 17.200000000000003 19.414213562373096 0.5857864376269049
    endloop
  endfacet
  facet normal 0 0.9238795325112868 -0.3826834323650893
    outer loop
      vertex 9.600000000000001 19.414213562373096 0.5857864376269049
      vertex 17.200000000000003 20 1.9999999999999998
      vertex 17.200000000000003 19.414213562373096 0.5857864376269049
    endloop
  endfacet
  facet normal -1.1424612420953492e-18 0.9238795325112868 -0.3826834323650893
    outer loop
      vertex 9.600000000000001 19.414213562373096 0.5857864376269049
      vertex 9.600000000000001 20 1.9999999999999998
      vertex 17.200000000000003 20 1.9999999999999998
    endloop
  endfacet
  facet normal 0 0.38268343236508956 -0.9238795325112868
    outer loop
      vertex 17.200000000000003 18 0
      vertex 24.8 19.414213562373096 0.5857864376269049
      vertex 24.8 18 0
    endloop
  endfacet
  facet normal 4.949041808583402e-19 0.38268343236508956 -0.9238795325112868
    outer loop
      vertex 17.200000000000003 18 0
      vertex 17.200000000000003 19.414213562373096 0.5857864376269049
      vertex 24.8 19.414213562373096 0.5857864376269049
    endloop
  endfacet
  facet normal 0 0.923879532511287 -0.3826834323650894
    outer loop
      vertex 17.200000000000003 19.414213562373096 0.5857864376269049
      vertex 24.8 20 1.9999999999999998
      vertex 24.8 19.414213562373096 0.5857864376269049
    endloop
  endfacet
  facet normal -1.14246124209535e-18 0.923879532511287 -0.3826834323650894
    outer loop
      vertex 17.200000000000003 19.414213562373096 0.5857864376269049
      vertex 17.200000000000003 20 1.9999999999999998
      vertex 24.8 20 1.9999999999999998
    endloop
  endfacet
  facet normal 0 0.38268343236508956 -0.923879532511287
    outer loop
      vertex 24.8 18 0
      vertex 32.400000000000006 19.414213562373096 0.5857864376269049
      vertex 32.400000000000006 18 0
    endloop
  endfacet
  facet normal 4.949041808583398e-19 0.38268343236508956 -0.923879532511287
    outer loop
      vertex 24.8 18 0
      vertex 24.8 19.414213562373096 0.5857864376269049
      vertex 32.400000000000006 19.414213562373096 0.5857864376269049
    endloop
  endfacet
  facet normal 0 0.9238795325112868 -0.3826834323650894
    outer loop
      vertex 24.8 19.414213562373096 0.5857864376269049
      vertex 32.400000000000006 20 1.9999999999999998
      vertex 32.400000000000006 19.414213562373096 0.5857864376269049
    endloop
  endfacet
  facet normal -1.1424612420953488e-18 0.9238795325112868 -0.3826834323650894
    outer loop
      vertex 24.8 19.414213562373096 0.5857864376269049
      vertex 24.8 20 1.9999999999999998
      vertex 32.400000000000006 20 1.9999999999999998
    endloop
  endfacet
  facet normal -0.9238795325112868 0.38268343236508956 0
    outer loop
      vertex 0 18 14
      vertex 0 18 22
      vertex 0.5857864376269049 19.414213562373096 22
    endloop
  endfacet
  facet normal -0.9238795325112868 0.38268343236508956 4.701589718154231e-19
    outer loop
      vertex 0 18 14
      vertex 0.5857864376269049 19.414213562373096 22
      vertex 0.5857864376269049 19.414213562373096 14
    endloop
  endfacet
  facet normal -0.3826834323650894 0.923879532511287 0
    outer loop
      vertex 0.5857864376269049 19.414213562373096 14
      vertex 0.5857864376269049 19.414213562373096 22
      vertex 1.9999999999999998 20 22
    endloop
  endfacet
  facet normal -0.3826834323650894 0.923879532511287 -1.0853381799905821e-18
    outer loop
      vertex 0.5857864376269049 19.414213562373096 14
      vertex 1.9999999999999998 20 22
      vertex 1.9999999999999998 20 14
    endloop
  endfacet
  facet normal 0.9238795325112868 0.3826834323650894 0
    outer loop
      vertex 2 18 14
      vertex 1.4142135623730954 19.414213562373096 22
      vertex 2 18 22
    endloop
  endfacet
  facet normal 0.9238795325112868 0.3826834323650894 -2.0256561236214274e-18
    outer loop
      vertex 2 18 14
      vertex 1.4142135623730954 19.414213562373096 14
      vertex 1.4142135623730954 19.414213562373096 22
    endloop
  endfacet
  facet normal 0.38268343236508934 0.923879532511287 0
    outer loop
      vertex 1.4142135623730954 19.414213562373096 14
      vertex 2.220446049250313e-16 20 22
      vertex 1.4142135623730954 19.414213562373096 22
    endloop
  endfacet
  facet normal 0.38268343236508934 0.923879532511287 -4.701589718154234e-19
    outer loop
      vertex 1.4142135623730954 19.414213562373096 14
      vertex 2.220446049250313e-16 20 14
      vertex 2.220446049250313e-16 20 22
    endloop
  endfacet
  facet normal 0 0.38268343236508967 0.9238795325112867
    outer loop
      vertex 9.600000000000001 18 6
      vertex 17.200000000000003 18 6
      vertex 17.200000000000003 19.414213562373096 5.414213562373095
    endloop
  endfacet
  facet normal 1.1424612420953485e-18 0.38268343236508967 0.9238795325112867
    outer loop
      vertex 9.600000000000001 18 6
      vertex 17.200000000000003 19.414213562373096 5.414213562373095
      vertex 9.600000000000001 19.414213562373096 5.414213562373095
    endloop
  endfacet
  facet normal 0 0.9238795325112868 0.3826834323650893
    outer loop
      vertex 9.600000000000001 19.414213562373096 5.414213562373095
      vertex 17.200000000000003 19.414213562373096 5.414213562373095
      vertex 17.200000000000003 20 4
    endloop
  endfacet
  facet normal 1.1424612420953492e-18 0.9238795325112868 0.3826834323650893
    outer loop
      vertex 9.600000000000001 19.414213562373096 5.414213562373095
      vertex 17.200000000000003 20 4
      vertex 9.600000000000001 20 4
    endloop
  endfacet
  facet normal 0 0.3826834323650896 0.9238795325112867
    outer loop
      vertex 17.200000000000003 18 6
      vertex 24.8 18 6
      vertex 24.8 19.414213562373096 5.414213562373095
    endloop
  endfacet
  facet normal 1.1424612420953488e-18 0.3826834323650896 0.9238795325112867
    outer loop
      vertex 17.200000000000003 18 6
      vertex 24.8 19.414213562373096 5.414213562373095
      vertex 17.200000000000003 19.414213562373096 5.414213562373095
    endloop
  endfacet
  facet normal 0 0.923879532511287 0.3826834323650894
    outer loop
      vertex 17.200000000000003 19.414213562373096 5.414213562373095
      vertex 24.8 19.414213562373096 5.414213562373095
      vertex 24.8 20 4
    endloop
  endfacet
  facet normal 1.14246124209535e-18 0.923879532511287 0.3826834323650894
    outer loop
      vertex 17.200000000000003 19.414213562373096 5.414213562373095
      vertex 24.8 20 4
      vertex 17.200000000000003 20 4
    endloop
  endfacet
  facet normal 0 0.38268343236508967 0.9238795325112868
    outer loop
      vertex 24.8 18 6
      vertex 32.400000000000006 18 6
      vertex 32.400000000000006 19.414213562373096 5.414213562373095
    endloop
  endfacet
  facet normal 1.142461242095348e-18 0.38268343236508967 0.9238795325112868
    outer loop
      vertex 24.8 18 6
      vertex 32.400000000000006 19.414213562373096 5.414213562373095
      vertex 24.8 19.414213562373096 5.414213562373095
    endloop
  endfacet
  facet normal 0 0.9238795325112868 0.3826834323650894
    outer loop
      vertex 24.8 19.414213562373096 5.414213562373095
      vertex 32.400000000000006 19.414213562373096 5.414213562373095
      vertex 32.400000000000006 20 4
    endloop
  endfacet
  facet normal 1.1424612420953488e-18 0.9238795325112868 0.3826834323650894
    outer loop
      vertex 24.8 19.414213562373096 5.414213562373095
      vertex 32.400000000000006 20 4
      vertex 24.8 20 4
    endloop
  endfacet
  facet normal 0.9238795325112862 0 -0.3826834323650914
    outer loop
      vertex 40 6.666666666666666 1.9999999999999998
      vertex 39.41421356237309 13.333333333333332 0.5857864376269049
      vertex 40 13.333333333333332 1.9999999999999998
    endloop
  endfacet
  facet normal 0.9238795325112862 1.4700153207216085e-18 -0.3826834323650914
    outer loop
      vertex 40 6.666666666666666 1.9999999999999998
      vertex 39.41421356237309 6.666666666666666 0.5857864376269049
      vertex 39.41421356237309 13.333333333333332 0.5857864376269049
    endloop
  endfacet
  facet normal 0.38268343236509034 0 -0.9238795325112865
    outer loop
      vertex 39.41421356237309 6.666666666666666 0.5857864376269049
      vertex 38 13.333333333333332 0
      vertex 39.41421356237309 13.333333333333332 0.5857864376269049
    endloop
  endfacet
  facet normal 0.38268343236509034 3.3366119028888987e-18 -0.9238795325112865
    outer loop
      vertex 39.41421356237309 6.666666666666666 0.5857864376269049
      vertex 38 6.666666666666666 0
      vertex 38 13.333333333333332 0
    endloop
  endfacet
  facet normal 0.3826834323650905 0 0.9238795325112865
    outer loop
      vertex 38 6.666666666666666 6
      vertex 39.41421356237309 13.333333333333332 5.414213562373095
      vertex 38 13.333333333333332 6
    endloop
  endfacet
  facet normal 0.3826834323650905 -1.4700153207216118e-18 0.9238795325112865
    outer loop
      vertex 38 6.666666666666666 6
      vertex 39.41421356237309 6.666666666666666 5.414213562373095
      vertex 39.41421356237309 13.333333333333332 5.414213562373095
    endloop
  endfacet
  facet normal 0.9238795325112862 0 0.3826834323650914
    outer loop
      vertex 39.41421356237309 6.666666666666666 5.414213562373095
      vertex 40 13.333333333333332 4
      vertex 39.41421356237309 13.333333333333332 5.414213562373095
    endloop
  endfacet
  facet normal 0.9238795325112862 -1.4700153207216085e-18 0.3826834323650914
    outer loop
      vertex 39.41421356237309 6.666666666666666 5.414213562373095
      vertex 40 6.666666666666666 4
      vertex 40 13.333333333333332 4
    endloop
  endfacet
  facet normal -0.8628562094610169 -0.35740674433659325 -0.35740674433659325
    outer loop
      vertex 0 1.9999999999999998 1.9999999999999998
      vertex 0.5857864376269049 1.9999999999999998 0.5857864376269049
      vertex 0.5857864376269049 0.5857864376269049 1.9999999999999998
    endloop
  endfacet
  facet normal -0.5773502691896257 -0.5773502691896257 -0.5773502691896257
    outer loop
      vertex 0.5857864376269049 1.9999999999999998 0.5857864376269049
      vertex 1.9999999999999998 0.5857864376269049 0.5857864376269049
      vertex 0.5857864376269049 0.5857864376269049 1.9999999999999998
    endloop
  endfacet
  facet normal -0.35740674433659325 -0.8628562094610169 -0.35740674433659325
    outer loop
      vertex 0.5857864376269049 0.5857864376269049 1.9999999999999998
      vertex 1.9999999999999998 0.5857864376269049 0.5857864376269049
      vertex 1.9999999999999998 0 1.9999999999999998
    endloop
  endfacet
  facet normal -0.3574067443365932 -0.3574067443365932 -0.8628562094610168
    outer loop
      vertex 0.5857864376269049 1.9999999999999998 0.5857864376269049
      vertex 1.9999999999999998 1.9999999999999998 0
      vertex 1.9999999999999998 0.5857864376269049 0.5857864376269049
    endloop
  endfacet
  facet normal 0.8628562094610168 -0.3574067443365932 0.35740674433659336
    outer loop
      vertex 2 1.9999999999999998 8
      vertex 2.17157287525381 0.5857864376269049 6.17157287525381
      vertex 2.585786437626905 1.9999999999999998 6.585786437626905
    endloop
  endfacet
  facet normal 0.8628562094610167 -0.35740674433659336 0.3574067443365935
    outer loop
      vertex 2 1.9999999999999998 8
      vertex 1.414213562373095 0.5857864376269049 8
      vertex 2.17157287525381 0.5857864376269049 6.17157287525381
    endloop
  endfacet
  facet normal 0.3779644730092272 -0.912486956834076 0.15655801081562165
    outer loop
      vertex 1.414213562373095 0.5857864376269049 8
      vertex 1.1715728752538102 -2.220446049250313e-16 5.17157287525381
      vertex 2.17157287525381 0.5857864376269049 6.17157287525381
    endloop
  endfacet
  facet normal 0.37796447300922725 -0.912486956834076 0.15655801081562165
    outer loop
      vertex 1.414213562373095 0.5857864376269049 8
      vertex 2.220446049250313e-16 0 8
      vertex 1.1715728752538102 -2.220446049250313e-16 5.17157287525381
    endloop
  endfacet
  facet normal 0.35740674433659336 -0.35740674433659336 0.8628562094610168
    outer loop
      vertex 2.585786437626905 1.9999999999999998 6.585786437626905
      vertex 4 0.5857864376269049 5.414213562373095
      vertex 4 1.9999999999999998 6
    endloop
  endfacet
  facet normal 0.3574067443365935 -0.35740674433659325 0.8628562094610167
    outer loop
      vertex 2.585786437626905 1.9999999999999998 6.585786437626905
      vertex 2.17157287525381 0.5857864376269049 6.17157287525381
      vertex 4 0.5857864376269049 5.414213562373095
    endloop
  endfacet
  facet normal 0.15655801081562165 -0.9124869568340761 0.3779644730092272
    outer loop
      vertex 2.17157287525381 0.5857864376269049 6.17157287525381
      vertex 4 0 4
      vertex 4 0.5857864376269049 5.414213562373095
    endloop
  endfacet
  facet normal 0.15655801081562165 -0.912486956834076 0.3779644730092272
    outer loop
      vertex 2.17157287525381 0.5857864376269049 6.17157287525381
      vertex 1.1715728752538102 -2.220446049250313e-16 5.17157287525381
      vertex 4 0 4
    endloop
  endfacet
  facet normal -1.895269253967044e-16 -1 0
    outer loop
      vertex 2.220446049250313e-16 0 4
      vertex 1.1715728752538102 -2.220446049250313e-16 5.17157287525381
      vertex 2.220446049250313e-16 0 8
    endloop
  endfacet
  facet normal 0 -1 -1.8952692539670438e-16
    outer loop
      vertex 1.1715728752538102 -2.220446049250313e-16 5.17157287525381
      vertex 2.220446049250313e-16 0 4
      vertex 4 0 4
    endloop
  endfacet
  facet normal -0.8628562094610168 -0.35740674433659325 0.35740674433659303
    outer loop
      vertex 0 1.9999999999999998 28
      vertex 0.5857864376269049 0.5857864376269049 28
      vertex 0.5857864376269049 1.9999999999999998 29.414213562373096
    endloop
  endfacet
  facet normal -0.577350269189626 -0.577350269189626 0.5773502691896255
    outer loop
      vertex 0.5857864376269049 1.9999999999999998 29.414213562373096
      vertex 0.5857864376269049 0.5857864376269049 28
      vertex 1.9999999999999998 0.5857864376269049 29.414213562373096
    endloop
  endfacet
  facet normal -0.35740674433659325 -0.8628562094610168 0.35740674433659303
    outer loop
      vertex 0.5857864376269049 0.5857864376269049 28
      vertex 1.9999999999999998 0 28
      vertex 1.9999999999999998 0.5857864376269049 29.414213562373096
    endloop
  endfacet
  facet normal -0.357406744336593 -0.357406744336593 0.8628562094610172
    outer loop
      vertex 0.5857864376269049 1.9999999999999998 29.414213562373096
      vertex 1.9999999999999998 0.5857864376269049 29.414213562373096
      vertex 1.9999999999999998 1.9999999999999998 30
    endloop
  endfacet
  facet normal 0.8628562094610168 -0.35740674433659336 0.3574067443365929
    outer loop
      vertex 2 1.9999999999999998 28
      vertex 1.4142135623730954 1.9999999999999998 29.414213562373096
      vertex 1.414213562373095 0.5857864376269049 28
    endloop
  endfacet
  facet normal 0.5773502691896258 -0.577350269189626 0.5773502691896254
    outer loop
      vertex 1.414213562373095 0.5857864376269049 28
      vertex 1.4142135623730954 1.9999999999999998 29.414213562373096
      vertex 2.220446049250313e-16 0.5857864376269049 29.414213562373096
    endloop
  endfacet
  facet normal 0.3574067443365929 -0.3574067443365929 0.8628562094610172
    outer loop
      vertex 1.4142135623730954 1.9999999999999998 29.414213562373096
      vertex 2.220446049250313e-16 1.9999999999999998 30
      vertex 2.220446049250313e-16 0.5857864376269049 29.414213562373096
    endloop
  endfacet
  facet normal 0.3574067443365933 -0.8628562094610168 0.35740674433659303
    outer loop
      vertex 1.414213562373095 0.5857864376269049 28
      vertex 2.220446049250313e-16 0.5857864376269049 29.414213562373096
      vertex 2.220446049250313e-16 0 28
    endloop
  endfacet
  facet normal -0.8628562094610168 0.35740674433659303 -0.35740674433659325
    outer loop
      vertex 0 18 1.9999999999999998
      vertex 0.5857864376269049 19.414213562373096 1.9999999999999998
      vertex 0.5857864376269049 18 0.5857864376269049
    endloop
  endfacet
  facet normal -0.577350269189626 0.5773502691896255 -0.577350269189626
    outer loop
      vertex 0.5857864376269049 19.414213562373096 1.9999999999999998
      vertex 1.9999999999999998 19.414213562373096 0.5857864376269049
      vertex 0.5857864376269049 18 0.5857864376269049
    endloop
  endfacet
  facet normal -0.35740674433659325 0.35740674433659303 -0.8628562094610168
    outer loop
      vertex 0.5857864376269049 18 0.5857864376269049
      vertex 1.9999999999999998 19.414213562373096 0.5857864376269049
      vertex 1.9999999999999998 18 0
    endloop
  endfacet
  facet normal -0.3574067443365929 0.8628562094610172 -0.3574067443365929
    outer loop
      vertex 0.5857864376269049 19.414213562373096 1.9999999999999998
      vertex 2 20 1.9999999999999998
      vertex 1.9999999999999998 19.414213562373096 0.5857864376269049
    endloop
  endfacet
  facet normal 0.35740674433659336 0.35740674433659303 0.8628562094610168
    outer loop
      vertex 4 18 6
      vertex 2.17157287525381 19.414213562373096 6.17157287525381
      vertex 2.585786437626905 18 6.585786437626905
    endloop
  endfacet
  facet normal 0.3574067443365935 0.3574067443365931 0.8628562094610167
    outer loop
      vertex 4 18 6
      vertex 4 19.414213562373096 5.414213562373095
      vertex 2.17157287525381 19.414213562373096 6.17157287525381
    endloop
  endfacet
  facet normal 0.15655801081562143 0.9124869568340762 0.3779644730092267
    outer loop
      vertex 4 19.414213562373096 5.414213562373095
      vertex 1.1715728752538097 20 5.17157287525381
      vertex 2.17157287525381 19.414213562373096 6.17157287525381
    endloop
  endfacet
  facet normal 0.1565580108156214 0.9124869568340761 0.3779644730092268
    outer loop
      vertex 4 19.414213562373096 5.414213562373095
      vertex 4 20 4
      vertex 1.1715728752538097 20 5.17157287525381
    endloop
  endfacet
  facet normal 0.8628562094610168 0.35740674433659286 0.35740674433659336
    outer loop
      vertex 2.585786437626905 18 6.585786437626905
      vertex 1.4142135623730954 19.414213562373096 8
      vertex 2 18 8
    endloop
  endfacet
  facet normal 0.8628562094610169 0.35740674433659303 0.35740674433659336
    outer loop
      vertex 2.585786437626905 18 6.585786437626905
      vertex 2.17157287525381 19.414213562373096 6.17157287525381
      vertex 1.4142135623730954 19.414213562373096 8
    endloop
  endfacet
  facet normal 0.37796447300922675 0.9124869568340762 0.15655801081562135
    outer loop
      vertex 2.17157287525381 19.414213562373096 6.17157287525381
      vertex 2.220446049250313e-16 20 8
      vertex 1.4142135623730954 19.414213562373096 8
    endloop
  endfacet
  facet normal 0.3779644730092267 0.9124869568340762 0.15655801081562132
    outer loop
      vertex 2.17157287525381 19.414213562373096 6.17157287525381
      vertex 1.1715728752538097 20 5.17157287525381
      vertex 2.220446049250313e-16 20 8
    endloop
  endfacet
  facet normal 0 1 0
    outer loop
      vertex 2.220446049250313e-16 20 4
      vertex 1.1715728752538097 20 5.17157287525381
      vertex 4 20 4
    endloop
  endfacet
  facet normal 0 1 0
    outer loop
      vertex 1.1715728752538097 20 5.17157287525381
      vertex 2.220446049250313e-16 20 4
      vertex 2.220446049250313e-16 20 8
    endloop
  endfacet
  facet normal -0.357406744336593 0.35740674433659275 0.8628562094610172
    outer loop
      vertex 1.9999999999999998 18 30
      vertex 1.9999999999999998 19.414213562373096 29.414213562373096
      vertex 0.5857864376269049 18 29.414213562373096
    endloop
  endfacet
  facet normal -0.577350269189626 0.5773502691896256 0.5773502691896256
    outer loop
      vertex 1.9999999999999998 19.414213562373096 29.414213562373096
      vertex 0.5857864376269049 19.414213562373096 28
      vertex 0.5857864376269049 18 29.414213562373096
    endloop
  endfacet
  facet normal -0.8628562094610169 0.35740674433659303 0.35740674433659303
    outer loop
      vertex 0.5857864376269049 18 29.414213562373096
      vertex 0.5857864376269049 19.414213562373096 28
      vertex 0 18 28
    endloop
  endfacet
  facet normal -0.357406744336593 0.8628562094610172 0.35740674433659275
    outer loop
      vertex 1.9999999999999998 19.414213562373096 29.414213562373096
      vertex 1.9999999999999998 20 28
      vertex 0.5857864376269049 19.414213562373096 28
    endloop
  endfacet
  facet normal 0.862856209461017 0.357406744336593 0.357406744336593
    outer loop
      vertex 2 18 28
      vertex 1.4142135623730954 19.414213562373096 28
      vertex 1.4142135623730954 18 29.414213562373096
    endloop
  endfacet
  facet normal 0.577350269189626 0.5773502691896256 0.5773502691896256
    outer loop
      vertex 1.4142135623730954 19.414213562373096 28
      vertex 2.220446049250313e-16 19.414213562373096 29.414213562373096
      vertex 1.4142135623730954 18 29.414213562373096
    endloop
  endfacet
  facet normal 0.3574067443365929 0.35740674433659275 0.8628562094610172
    outer loop
      vertex 1.4142135623730954 18 29.414213562373096
      vertex 2.220446049250313e-16 19.414213562373096 29.414213562373096
      vertex 2.220446049250313e-16 18 30
    endloop
  endfacet
  facet normal 0.3574067443365929 0.8628562094610172 0.35740674433659275
    outer loop
      vertex 1.4142135623730954 19.414213562373096 28
      vertex 2.220446049250313e-16 20 28
      vertex 2.220446049250313e-16 19.414213562373096 29.414213562373096
    endloop
  endfacet
  facet normal 0.3574067443365938 -0.35740674433659314 -0.8628562094610166
    outer loop
      vertex 38 1.9999999999999998 0
      vertex 39.41421356237309 1.9999999999999998 0.5857864376269049
      vertex 38 0.5857864376269049 0.5857864376269049
    endloop
  endfacet
  facet normal 0.5773502691896265 -0.5773502691896254 -0.5773502691896254
    outer loop
      vertex 39.41421356237309 1.9999999999999998 0.5857864376269049
      vertex 39.41421356237309 0.5857864376269049 1.9999999999999998
      vertex 38 0.5857864376269049 0.5857864376269049
    endloop
  endfacet
  facet normal 0.3574067443365938 -0.8628562094610166 -0.35740674433659314
    outer loop
      vertex 38 0.5857864376269049 0.5857864376269049
      vertex 39.41421356237309 0.5857864376269049 1.9999999999999998
      vertex 38 0 1.9999999999999998
    endloop
  endfacet
  facet normal 0.8628562094610158 -0.3574067443365946 -0.3574067443365946
    outer loop
      vertex 39.41421356237309 1.9999999999999998 0.5857864376269049
      vertex 40 1.9999999999999998 1.9999999999999998
      vertex 39.41421356237309 0.5857864376269049 1.9999999999999998
    endloop
  endfacet
  facet normal 0.3574067443365938 -0.8628562094610166 0.35740674433659314
    outer loop
      vertex 38 0 4
      vertex 39.41421356237309 0.5857864376269049 4
      vertex 38 0.5857864376269049 5.414213562373095
    endloop
  endfacet
  facet normal 0.5773502691896265 -0.5773502691896254 0.5773502691896254
    outer loop
      vertex 39.41421356237309 0.5857864376269049 4
      vertex 39.41421356237309 1.9999999999999998 5.414213562373095
      vertex 38 0.5857864376269049 5.414213562373095
    endloop
  endfacet
  facet normal 0.3574067443365939 -0.35740674433659325 0.8628562094610165
    outer loop
      vertex 38 0.5857864376269049 5.414213562373095
      vertex 39.41421356237309 1.9999999999999998 5.414213562373095
      vertex 38 1.9999999999999998 6
    endloop
  endfacet
  facet normal 0.8628562094610158 -0.3574067443365946 0.3574067443365946
    outer loop
      vertex 39.41421356237309 0.5857864376269049 4
      vertex 40 1.9999999999999998 4
      vertex 39.41421356237309 1.9999999999999998 5.414213562373095
    endloop
  endfacet
  facet normal 0.8628562094610158 0.35740674433659436 -0.3574067443365946
    outer loop
      vertex 40 18 1.9999999999999998
      vertex 39.41421356237309 18 0.5857864376269049
      vertex 39.41421356237309 19.414213562373096 1.9999999999999998
    endloop
  endfacet
  facet normal 0.5773502691896266 0.5773502691896252 -0.5773502691896255
    outer loop
      vertex 39.41421356237309 19.414213562373096 1.9999999999999998
      vertex 39.41421356237309 18 0.5857864376269049
      vertex 38 19.414213562373096 0.5857864376269049
    endloop
  endfacet
  facet normal 0.35740674433659386 0.357406744336593 -0.8628562094610167
    outer loop
      vertex 39.41421356237309 18 0.5857864376269049
      vertex 38 18 0
      vertex 38 19.414213562373096 0.5857864376269049
    endloop
  endfacet
  facet normal 0.35740674433659353 0.8628562094610168 -0.35740674433659286
    outer loop
      vertex 39.41421356237309 19.414213562373096 1.9999999999999998
      vertex 38 19.414213562373096 0.5857864376269049
      vertex 38 20 1.9999999999999998
    endloop
  endfacet
  facet normal 0.3574067443365939 0.35740674433659303 0.8628562094610166
    outer loop
      vertex 38 18 6
      vertex 39.41421356237309 18 5.414213562373095
      vertex 38 19.414213562373096 5.414213562373095
    endloop
  endfacet
  facet normal 0.5773502691896266 0.5773502691896252 0.5773502691896255
    outer loop
      vertex 39.41421356237309 18 5.414213562373095
      vertex 39.41421356237309 19.414213562373096 4
      vertex 38 19.414213562373096 5.414213562373095
    endloop
  endfacet
  facet normal 0.35740674433659353 0.8628562094610168 0.35740674433659286
    outer loop
      vertex 38 19.414213562373096 5.414213562373095
      vertex 39.41421356237309 19.414213562373096 4
      vertex 38 20 4
    endloop
  endfacet
  facet normal 0.8628562094610158 0.35740674433659436 0.3574067443365946
    outer loop
      vertex 39.41421356237309 18 5.414213562373095
      vertex 40 18 4
      vertex 39.41421356237309 19.414213562373096 4
    endloop
  endfacet
endsolid OpenSCAD_Model
