solid OpenSCAD_Model
  facet normal -1 0 0
    outer loop
      vertex 0 19 0.9999999999999999
      vertex 0 0.9999999999999999 0.9999999999999999
      vertex 0 0.9999999999999999 6
    endloop
  endfacet
  facet normal -1 0 0
    outer loop
      vertex 0 19 0.9999999999999999
      vertex 0 0.9999999999999999 6
      vertex 0 0.9999999999999999 29
    endloop
  endfacet
  facet normal -1 0 0
    outer loop
      vertex 0 0.9999999999999999 29
      vertex 0 19 29
      vertex 0 19 6
    endloop
  endfacet
  facet normal -1 0 0
    outer loop
      vertex 0 0.9999999999999999 29
      vertex 0 19 6
      vertex 0 19 0.9999999999999999
    endloop
  endfacet
  facet normal 0 -1 0
    outer loop
      vertex 39 0 5
      vertex 1 0 5
      vertex 0.9999999999999999 0 0.9999999999999999
    endloop
  endfacet
  facet normal 0 -1 0
    outer loop
      vertex 0.9999999999999999 0 0.9999999999999999
      vertex 39 0 0.9999999999999999
      vertex 39 0 5
    endloop
  endfacet
  facet normal 0 -1 0
    outer loop
      vertex 0.9999999999999999 0 6
      vertex 0.9999999999999999 0 0.9999999999999999
      vertex 1 0 5
    endloop
  endfacet
  facet normal 0 -1 0
    outer loop
      vertex 0.9999999999999999 0 6
      vertex 1 0 5
      vertex 1 0 29
    endloop
  endfacet
  facet normal 0 0 -1
    outer loop
      vertex 39 0.9999999999999999 0
      vertex 0.9999999999999999 0.9999999999999999 0
      vertex 0.9999999999999999 19 0
    endloop
  endfacet
  facet normal 0 0 -1
    outer loop
      vertex 39 0.9999999999999999 0
      vertex 0.9999999999999999 19 0
      vertex 2 19 0
    endloop
  endfacet
  facet normal 0 0 -1
    outer loop
      vertex 2 19 0
      vertex 39 19 0
      vertex 39 0.9999999999999999 0
    endloop
  endfacet
  facet normal 0 0 1
    outer loop
      vertex 3 19 6
      vertex 3 0.9999999999999999 6
      vertex 39 0.9999999999999999 6
    endloop
  endfacet
  facet normal 0 0 1
    outer loop
      vertex 39 0.9999999999999999 6
      vertex 39 19 6
      vertex 3 19 6
    endloop
  endfacet
  facet normal 1 0 0
    outer loop
      vertex 40 0.9999999999999999 5
      vertex 40 0.9999999999999999 0.9999999999999999
      vertex 40 19 0.9999999999999999
    endloop
  endfacet
  facet normal 1 0 0
    outer loop
      vertex 40 19 0.9999999999999999
      vertex 40 19 5
      vertex 40 0.9999999999999999 5
    endloop
  endfacet
  facet normal 0 1 0
    outer loop
      vertex 39 20 0.9999999999999999
      vertex 1 20 5
      vertex 39 20 5
    endloop
  endfacet
  facet normal 0 1 0
    outer loop
      vertex 0.9999999999999999 20 6
      vertex 1 20 5
      vertex 0.9999999999999999 20 0.9999999999999999
    endloop
  endfacet
  facet normal 0 1 0
    outer loop
      vertex 1 20 5
      vertex 39 20 0.9999999999999999
      vertex 2 20 0.9999999999999999
    endloop
  endfacet
  facet normal 0 1 0
    outer loop
      vertex 1 20 5
      vertex 2 20 0.9999999999999999
      vertex 0.9999999999999999 20 0.9999999999999999
    endloop
  endfacet
  facet normal 0 1 0
    outer loop
      vertex 1 20 5
      vertex 0.9999999999999999 20 6
      vertex 0.9999999999999999 20 29
    endloop
  endfacet
  facet normal 1 0 0
    outer loop
      vertex 2 0.9999999999999999 29
      vertex 2 0.9999999999999999 7
      vertex 2 19 7
    endloop
  endfacet
  facet normal 1 0 0
    outer loop
      vertex 2 19 7
      vertex 2 19 29
      vertex 2 0.9999999999999999 29
    endloop
  endfacet
  facet normal -0.9238795325112867 -0.3826834323650898 0
    outer loop
      vertex 0 0.9999999999999999 0.9999999999999999
      vertex 0.2928932188134524 0.2928932188134524 6
      vertex 0 0.9999999999999999 6
    endloop
  endfacet
  facet normal -0.9238795325112867 -0.3826834323650898 -2.651417725314398e-18
    outer loop
      vertex 0 0.9999999999999999 0.9999999999999999
      vertex 0.2928932188134524 0.2928932188134524 0.9999999999999999
      vertex 0.2928932188134524 0.2928932188134524 6
    endloop
  endfacet
  facet normal -0.3826834323650898 -0.9238795325112867 0
    outer loop
      vertex 0.2928932188134524 0.2928932188134524 0.9999999999999999
      vertex 0.9999999999999999 0 6
      vertex 0.2928932188134524 0.2928932188134524 6
    endloop
  endfacet
  facet normal -0.3826834323650898 -0.9238795325112867 -2.651417725314398e-18
    outer loop
      vertex 0.2928932188134524 0.2928932188134524 0.9999999999999999
      vertex 0.9999999999999999 0 0.9999999999999999
      vertex 0.9999999999999999 0 6
    endloop
  endfacet
  facet normal -0.9238795325112867 0 -0.3826834323650897
    outer loop
      vertex 0 0.9999999999999999 0.9999999999999999
      vertex 0 19 0.9999999999999999
      vertex 0.2928932188134524 19 0.2928932188134524
    endloop
  endfacet
  facet normal -0.9238795325112867 -7.36504923698444e-19 -0.3826834323650897
    outer loop
      vertex 0 0.9999999999999999 0.9999999999999999
      vertex 0.2928932188134524 19 0.2928932188134524
      vertex 0.2928932188134524 0.9999999999999999 0.2928932188134524
    endloop
  endfacet
  facet normal -0.3826834323650897 0 -0.9238795325112867
    outer loop
      vertex 0.2928932188134524 0.9999999999999999 0.2928932188134524
      vertex 0.2928932188134524 19 0.2928932188134524
      vertex 0.9999999999999999 19 0
    endloop
  endfacet
  facet normal -0.3826834323650897 -7.36504923698444e-19 -0.9238795325112867
    outer loop
      vertex 0.2928932188134524 0.9999999999999999 0.2928932188134524
      vertex 0.9999999999999999 19 0
      vertex 0.9999999999999999 0.9999999999999999 0
    endloop
  endfacet
  facet normal 0 -0.3826834323650898 -0.9238795325112868
    outer loop
      vertex 0.9999999999999999 0.9999999999999999 0
      vertex 39 0.9999999999999999 0
      vertex 39 0.2928932188134524 0.2928932188134524
    endloop
  endfacet
  facet normal -3.488707533308419e-19 -0.3826834323650898 -0.9238795325112868
    outer loop
      vertex 0.9999999999999999 0.9999999999999999 0
      vertex 39 0.2928932188134524 0.2928932188134524
      vertex 0.9999999999999999 0.2928932188134524 0.2928932188134524
    endloop
  endfacet
  facet normal 0 -0.9238795325112868 -0.3826834323650898
    outer loop
      vertex 0.9999999999999999 0.2928932188134524 0.2928932188134524
      vertex 39 0.2928932188134524 0.2928932188134524
      vertex 39 0 0.9999999999999999
    endloop
  endfacet
  facet normal -3.488707533308419e-19 -0.9238795325112868 -0.3826834323650898
    outer loop
      vertex 0.9999999999999999 0.2928932188134524 0.2928932188134524
      vertex 39 0 0.9999999999999999
      vertex 0.9999999999999999 0 0.9999999999999999
    endloop
  endfacet
  facet normal -0.9238795325112867 -0.3826834323650897 0
    outer loop
      vertex 0 0.9999999999999999 6
      vertex 0.2928932188134524 0.2928932188134524 29
      vertex 0 0.9999999999999999 29
    endloop
  endfacet
  facet normal -0.9238795325112867 -0.3826834323650897 -5.763951576770431e-19
    outer loop
      vertex 0 0.9999999999999999 6
      vertex 0.2928932188134524 0.2928932188134524 6
      vertex 0.2928932188134524 0.2928932188134524 29
    endloop
  endfacet
  facet normal -0.3826834323650897 -0.9238795325112867 0
    outer loop
      vertex 0.2928932188134524 0.2928932188134524 6
      vertex 1 0 29
      vertex 0.2928932188134524 0.2928932188134524 29
    endloop
  endfacet
  facet normal -0.3826834323650897 -0.9238795325112867 2.5770315526017893e-18
    outer loop
      vertex 0.2928932188134524 0.2928932188134524 6
      vertex 0.9999999999999999 0 6
      vertex 1 0 29
    endloop
  endfacet
  facet normal 0.9238795325112868 -0.38268343236508995 0
    outer loop
      vertex 2 0.9999999999999999 7
      vertex 2 0.9999999999999999 29
      vertex 1.7071067811865475 0.2928932188134524 29
    endloop
  endfacet
  facet normal 0.9998336638441768 -0.012896601178799146 0.012896601178799141
    outer loop
      vertex 2 0.9999999999999999 7
      vertex 1.7071067811865475 0.2928932188134524 29
      vertex 2 2.220446049250313e-16 6
    endloop
  endfacet
  facet normal 0.382630472953157 -0.9237516771807432 0.01663610751970247
    outer loop
      vertex 2 2.220446049250313e-16 6
      vertex 1.7071067811865475 0.2928932188134524 29
      vertex 1 0 29
    endloop
  endfacet
  facet normal 2.220446049250313e-16 -1 0
    outer loop
      vertex 2 2.220446049250313e-16 6
      vertex 1 0 29
      vertex 1 0 5
    endloop
  endfacet
  facet normal 0.38268343236508934 0 0.9238795325112868
    outer loop
      vertex 3 0.9999999999999999 6
      vertex 3 19 6
      vertex 2.2928932188134525 19 6.292893218813452
    endloop
  endfacet
  facet normal 0.38268343236508934 2.4118626222012934e-19 0.9238795325112868
    outer loop
      vertex 3 0.9999999999999999 6
      vertex 2.2928932188134525 19 6.292893218813452
      vertex 2.2928932188134525 0.9999999999999999 6.292893218813452
    endloop
  endfacet
  facet normal 0.9238795325112868 0 0.38268343236508967
    outer loop
      vertex 2.2928932188134525 0.9999999999999999 6.292893218813452
      vertex 2.2928932188134525 19 6.292893218813452
      vertex 2 19 7
    endloop
  endfacet
  facet normal 0.9238795325112868 2.411862622201292e-19 0.38268343236508967
    outer loop
      vertex 2.2928932188134525 0.9999999999999999 6.292893218813452
      vertex 2 19 7
      vertex 2 0.9999999999999999 7
    endloop
  endfacet
  facet normal 0 -0.9238795325112868 0.3826834323650895
    outer loop
      vertex 1 0 5
      vertex 39 0 5
      vertex 39 0.2928932188134524 5.707106781186548
    endloop
  endfacet
  facet normal 0.007853377108416817 -0.9999383225659401 -0.007853377108416595
    outer loop
      vertex 1 0 5
      vertex 39 0.2928932188134524 5.707106781186548
      vertex 2 2.220446049250313e-16 6
    endloop
  endfacet
  facet normal 0.010342242311614082 -0.3826629655297212 0.9238301211997622
    outer loop
      vertex 2 2.220446049250313e-16 6
      vertex 39 0.2928932188134524 5.707106781186548
      vertex 39 0.9999999999999999 6
    endloop
  endfacet
  facet normal 0 0 1
    outer loop
      vertex 2 2.220446049250313e-16 6
      vertex 39 0.9999999999999999 6
      vertex 3 0.9999999999999999 6
    endloop
  endfacet
  facet normal -0.3826834323650913 0 0.9238795325112861
    outer loop
      vertex 0.9999999999999999 0.9999999999999999 30
      vertex 0.9999999999999999 19 30
      vertex 0.2928932188134524 19 29.707106781186546
    endloop
  endfacet
  facet normal -0.3826834323650913 2.722250593928904e-19 0.9238795325112861
    outer loop
      vertex 0.9999999999999999 0.9999999999999999 30
      vertex 0.2928932188134524 19 29.707106781186546
      vertex 0.2928932188134524 0.9999999999999999 29.707106781186546
    endloop
  endfacet
  facet normal -0.9238795325112865 0 0.3826834323650904
    outer loop
      vertex 0.2928932188134524 0.9999999999999999 29.707106781186546
      vertex 0.2928932188134524 19 29.707106781186546
      vertex 0 19 29
    endloop
  endfacet
  facet normal -0.9238795325112865 6.178910931275738e-19 0.3826834323650904
    outer loop
      vertex 0.2928932188134524 0.9999999999999999 29.707106781186546
      vertex 0 19 29
      vertex 0 0.9999999999999999 29
    endloop
  endfacet
  facet normal 0.9238795325112864 0 0.38268343236509045
    outer loop
      vertex 2 0.9999999999999999 29
      vertex 2 19 29
      vertex 1.7071067811865475 19 29.707106781186546
    endloop
  endfacet
  facet normal 0.9238795325112864 -2.7222505939289104e-19 0.38268343236509045
    outer loop
      vertex 2 0.9999999999999999 29
      vertex 1.7071067811865475 19 29.707106781186546
      vertex 1.7071067811865475 0.9999999999999999 29.707106781186546
    endloop
  endfacet
  facet normal 0.3826834323650913 0 0.9238795325112862
    outer loop
      vertex 1.7071067811865475 0.9999999999999999 29.707106781186546
      vertex 1.7071067811865475 19 29.707106781186546
      vertex 0.9999999999999999 19 30
    endloop
  endfacet
  facet normal 0.3826834323650913 -6.178910931275722e-19 0.9238795325112862
    outer loop
      vertex 1.7071067811865475 0.9999999999999999 29.707106781186546
      vertex 0.9999999999999999 19 30
      vertex 0.9999999999999999 0.9999999999999999 30
    endloop
  endfacet
  facet normal 0 0.3826834323650904 -0.9238795325112865
    outer loop
      vertex 0.9999999999999999 19 0
      vertex 2 19.707106781186546 0.2928932188134524
      vertex 2 19 0
    endloop
  endfacet
  facet normal 1.1122039676296328e-17 0.3826834323650904 -0.9238795325112865
    outer loop
      vertex 0.9999999999999999 19 0
      vertex 0.9999999999999999 19.707106781186546 0.2928932188134524
      vertex 2 19.707106781186546 0.2928932188134524
    endloop
  endfacet
  facet normal 0 0.9238795325112861 -0.38268343236509134
    outer loop
      vertex 0.9999999999999999 19.707106781186546 0.2928932188134524
      vertex 2 20 0.9999999999999999
      vertex 2 19.707106781186546 0.2928932188134524
    endloop
  endfacet
  facet normal 4.9000510690720275e-18 0.9238795325112861 -0.38268343236509134
    outer loop
      vertex 0.9999999999999999 19.707106781186546 0.2928932188134524
      vertex 0.9999999999999999 20 0.9999999999999999
      vertex 2 20 0.9999999999999999
    endloop
  endfacet
  facet normal -0.9238795325112865 0.3826834323650904 0
    outer loop
      vertex 0 19 0.9999999999999999
      vertex 0 19 6
      vertex 0.2928932188134524 19.707106781186546 6
    endloop
  endfacet
  facet normal -0.9238795325112865 0.3826834323650904 2.2244079352592654e-18
    outer loop
      vertex 0 19 0.9999999999999999
      vertex 0.2928932188134524 19.707106781186546 6
      vertex 0.2928932188134524 19.707106781186546 0.9999999999999999
    endloop
  endfacet
  facet normal -0.38268343236509134 0.9238795325112861 0
    outer loop
      vertex 0.2928932188134524 19.707106781186546 0.9999999999999999
      vertex 0.2928932188134524 19.707106781186546 6
      vertex 0.9999999999999999 20 6
    endloop
  endfacet
  facet normal -0.38268343236509134 0.9238795325112861 9.800102138144054e-19
    outer loop
      vertex 0.2928932188134524 19.707106781186546 0.9999999999999999
      vertex 0.9999999999999999 20 6
      vertex 0.9999999999999999 20 0.9999999999999999
    endloop
  endfacet
  facet normal 0 0.3826834323650904 -0.9238795325112866
    outer loop
      vertex 2 19 0
      vertex 39 19.707106781186546 0.2928932188134524
      vertex 39 19 0
    endloop
  endfacet
  facet normal 3.0059566692692783e-19 0.3826834323650904 -0.9238795325112866
    outer loop
      vertex 2 19 0
      vertex 2 19.707106781186546 0.2928932188134524
      vertex 39 19.707106781186546 0.2928932188134524
    endloop
  endfacet
  facet normal 0 0.9238795325112862 -0.3826834323650914
    outer loop
      vertex 2 19.707106781186546 0.2928932188134524
      vertex 39 20 0.9999999999999999
      vertex 39 19.707106781186546 0.2928932188134524
    endloop
  endfacet
  facet normal 1.3243381267762238e-19 0.9238795325112862 -0.3826834323650914
    outer loop
      vertex 2 19.707106781186546 0.2928932188134524
      vertex 2 20 0.9999999999999999
      vertex 39 20 0.9999999999999999
    endloop
  endfacet
  facet normal -0.9238795325112864 0.38268343236509034 0
    outer loop
      vertex 0 19 6
      vertex 0 19 29
      vertex 0.2928932188134524 19.707106781186546 29
    endloop
  endfacet
  facet normal -0.9238795325112864 0.38268343236509034 4.835669424476664e-19
    outer loop
      vertex 0 19 6
      vertex 0.2928932188134524 19.707106781186546 29
      vertex 0.2928932188134524 19.707106781186546 6
    endloop
  endfacet
  facet normal -0.3826834323650913 0.923879532511286 0
    outer loop
      vertex 0.2928932188134524 19.707106781186546 6
      vertex 0.2928932188134524 19.707106781186546 29
      vertex 0.9999999999999999 20 29
    endloop
  endfacet
  facet normal -0.3826834323650913 0.923879532511286 2.1304569865530551e-19
    outer loop
      vertex 0.2928932188134524 19.707106781186546 6
      vertex 0.9999999999999999 20 29
      vertex 0.9999999999999999 20 6
    endloop
  endfacet
  facet normal 0.9238795325112865 0.3826834323650905 0
    outer loop
      vertex 2 19 7
      vertex 1.7071067811865475 19.707106781186546 29
      vertex 2 19 29
    endloop
  endfacet
  facet normal 0.9998336638441766 0.012896601178799141 0.012896601178799141
    outer loop
      vertex 2 19 7
      vertex 2 20 6
      vertex 1.7071067811865475 19.707106781186546 29
    endloop
  endfacet
  facet normal 0.38263047295315855 0.9237516771807427 0.016636107519702546
    outer loop
      vertex 2 20 6
      vertex 0.9999999999999999 20 29
      vertex 1.7071067811865475 19.707106781186546 29
    endloop
  endfacet
  facet normal 0 1 0
    outer loop
      vertex 2 20 6
      vertex 1 20 5
      vertex 0.9999999999999999 20 29
    endloop
  endfacet
  facet normal 0 0.38268343236508995 0.9238795325112866
    outer loop
      vertex 3 19 6
      vertex 39 19 6
      vertex 39 19.707106781186546 5.707106781186548
    endloop
  endfacet
  facet normal 0.007978688555826254 0.007978688555826254 0.9999363385025359
    outer loop
      vertex 3 19 6
      vertex 39 19.707106781186546 5.707106781186548
      vertex 2 20 6
    endloop
  endfacet
  facet normal 0.010342242311614135 0.9238301211997614 0.38266296552972295
    outer loop
      vertex 2 20 6
      vertex 39 19.707106781186546 5.707106781186548
      vertex 39 20 5
    endloop
  endfacet
  facet normal 0 1 0
    outer loop
      vertex 2 20 6
      vertex 39 20 5
      vertex 1 20 5
    endloop
  endfacet
  facet normal 0.3826834323650904 -0.9238795325112865 0
    outer loop
      vertex 39 0 0.9999999999999999
      vertex 39.707106781186546 0.2928932188134524 5
      vertex 39 0 5
    endloop
  endfacet
  facet normal 0.3826834323650904 -0.9238795325112865 2.780509919074082e-18
    outer loop
      vertex 39 0 0.9999999999999999
      vertex 39.707106781186546 0.2928932188134524 0.9999999999999999
      vertex 39.707106781186546 0.2928932188134524 5
    endloop
  endfacet
  facet normal 0.9238795325112861 -0.38268343236509134 0
    outer loop
      vertex 39.707106781186546 0.2928932188134524 0.9999999999999999
      vertex 40 0.9999999999999999 5
      vertex 39.707106781186546 0.2928932188134524 5
    endloop
  endfacet
  facet normal 0.9238795325112861 -0.38268343236509134 1.2250127672680069e-18
    outer loop
      vertex 39.707106781186546 0.2928932188134524 0.9999999999999999
      vertex 40 0.9999999999999999 0.9999999999999999
      vertex 40 0.9999999999999999 5
    endloop
  endfacet
  facet normal 0.9238795325112861 0 -0.3826834323650913
    outer loop
      vertex 40 0.9999999999999999 0.9999999999999999
      vertex 39.707106781186546 19 0.2928932188134524
      vertex 40 19 0.9999999999999999
    endloop
  endfacet
  facet normal 0.9238795325112861 2.722250593928904e-19 -0.3826834323650913
    outer loop
      vertex 40 0.9999999999999999 0.9999999999999999
      vertex 39.707106781186546 0.9999999999999999 0.2928932188134524
      vertex 39.707106781186546 19 0.2928932188134524
    endloop
  endfacet
  facet normal 0.3826834323650904 0 -0.9238795325112865
    outer loop
      vertex 39.707106781186546 0.9999999999999999 0.2928932188134524
      vertex 39 19 0
      vertex 39.707106781186546 19 0.2928932188134524
    endloop
  endfacet
  facet normal 0.3826834323650904 6.178910931275738e-19 -0.9238795325112865
    outer loop
      vertex 39.707106781186546 0.9999999999999999 0.2928932188134524
      vertex 39 0.9999999999999999 0
      vertex 39 19 0
    endloop
  endfacet
  facet normal 0.38268343236508995 0 0.9238795325112866
    outer loop
      vertex 39 0.9999999999999999 6
      vertex 39.707106781186546 19 5.707106781186548
      vertex 39 19 6
    endloop
  endfacet
  facet normal 0.38268343236508995 3.5980009279096894e-19 0.9238795325112866
    outer loop
      vertex 39 0.9999999999999999 6
      vertex 39.707106781186546 0.9999999999999999 5.707106781186548
      vertex 39.707106781186546 19 5.707106781186548
    endloop
  endfacet
  facet normal 0.9238795325112862 0 0.38268343236509117
    outer loop
      vertex 39.707106781186546 0.9999999999999999 5.707106781186548
      vertex 40 19 5
      vertex 39.707106781186546 19 5.707106781186548
    endloop
  endfacet
  facet normal 0.9238795325112862 3.598000927909679e-19 0.38268343236509117
    outer loop
      vertex 39.707106781186546 0.9999999999999999 5.707106781186548
      vertex 40 0.9999999999999999 5
      vertex 40 19 5
    endloop
  endfacet
  facet normal 0.38268343236509195 0.9238795325112859 0
    outer loop
      vertex 39 20 0.9999999999999999
      vertex 39 20 5
      vertex 39.707106781186546 19.707106781186546 5
    endloop
  endfacet
  facet normal 0.38268343236509195 0.9238795325112859 -6.912505296984599e-19
    outer loop
      vertex 39 20 0.9999999999999999
      vertex 39.707106781186546 19.707106781186546 5
      vertex 39.707106781186546 19.707106781186546 0.9999999999999999
    endloop
  endfacet
  facet normal 0.9238795325112859 0.38268343236509195 0
    outer loop
      vertex 39.707106781186546 19.707106781186546 0.9999999999999999
      vertex 39.707106781186546 19.707106781186546 5
      vertex 40 19 5
    endloop
  endfacet
  facet normal 0.9238795325112859 0.38268343236509195 -6.912505296984599e-19
    outer loop
      vertex 39.707106781186546 19.707106781186546 0.9999999999999999
      vertex 40 19 5
      vertex 40 19 0.9999999999999999
    endloop
  endfacet
  facet normal -0.8628562094610169 -0.35740674433659325 -0.35740674433659325
    outer loop
      vertex 0 0.9999999999999999 0.9999999999999999
      vertex 0.2928932188134524 0.9999999999999999 0.2928932188134524
      vertex 0.2928932188134524 0.2928932188134524 0.9999999999999999
    endloop
  endfacet
  facet normal -0.5773502691896257 -0.5773502691896257 -0.5773502691896257
    outer loop
      vertex 0.2928932188134524 0.9999999999999999 0.2928932188134524
      vertex 0.9999999999999999 0.2928932188134524 0.2928932188134524
      vertex 0.2928932188134524 0.2928932188134524 0.9999999999999999
    endloop
  endfacet
  facet normal -0.35740674433659325 -0.8628562094610169 -0.35740674433659325
    outer loop
      vertex 0.2928932188134524 0.2928932188134524 0.9999999999999999
      vertex 0.9999999999999999 0.2928932188134524 0.2928932188134524
      vertex 0.9999999999999999 0 0.9999999999999999
    endloop
  endfacet
  facet normal -0.3574067443365932 -0.3574067443365932 -0.8628562094610168
    outer loop
      vertex 0.2928932188134524 0.9999999999999999 0.2928932188134524
      vertex 0.9999999999999999 0.9999999999999999 0
      vertex 0.9999999999999999 0.2928932188134524 0.2928932188134524
    endloop
  endfacet
  facet normal 0.8628562094610168 -0.35740674433659325 0.35740674433659314
    outer loop
      vertex 2 2.220446049250313e-16 6
      vertex 2.2928932188134525 0.9999999999999999 6.292893218813452
      vertex 2 0.9999999999999999 7
    endloop
  endfacet
  facet normal 0.35740674433659286 -0.35740674433659303 0.862856209461017
    outer loop
      vertex 2 2.220446049250313e-16 6
      vertex 3 0.9999999999999999 6
      vertex 2.2928932188134525 0.9999999999999999 6.292893218813452
    endloop
  endfacet
  facet normal -0.8628562094610166 -0.35740674433659314 0.3574067443365938
    outer loop
      vertex 0 0.9999999999999999 29
      vertex 0.2928932188134524 0.2928932188134524 29
      vertex 0.2928932188134524 0.9999999999999999 29.707106781186546
    endloop
  endfacet
  facet normal -0.5773502691896254 -0.5773502691896254 0.5773502691896265
    outer loop
      vertex 0.2928932188134524 0.2928932188134524 29
      vertex 0.9999999999999999 0.2928932188134524 29.707106781186546
      vertex 0.2928932188134524 0.9999999999999999 29.707106781186546
    endloop
  endfacet
  facet normal -0.3574067443365946 -0.3574067443365946 0.8628562094610158
    outer loop
      vertex 0.2928932188134524 0.9999999999999999 29.707106781186546
      vertex 0.9999999999999999 0.2928932188134524 29.707106781186546
      vertex 0.9999999999999999 0.9999999999999999 30
    endloop
  endfacet
  facet normal -0.3574067443365931 -0.8628562094610167 0.35740674433659375
    outer loop
      vertex 0.2928932188134524 0.2928932188134524 29
      vertex 1 0 29
      vertex 0.9999999999999999 0.2928932188134524 29.707106781186546
    endloop
  endfacet
  facet normal 0.8628562094610165 -0.35740674433659325 0.3574067443365939
    outer loop
      vertex 2 0.9999999999999999 29
      vertex 1.7071067811865475 0.9999999999999999 29.707106781186546
      vertex 1.7071067811865475 0.2928932188134524 29
    endloop
  endfacet
  facet normal 0.5773502691896253 -0.5773502691896254 0.5773502691896265
    outer loop
      vertex 1.7071067811865475 0.9999999999999999 29.707106781186546
      vertex 0.9999999999999999 0.2928932188134524 29.707106781186546
      vertex 1.7071067811865475 0.2928932188134524 29
    endloop
  endfacet
  facet normal 0.35740674433659314 -0.8628562094610166 0.3574067443365939
    outer loop
      vertex 1.7071067811865475 0.2928932188134524 29
      vertex 0.9999999999999999 0.2928932188134524 29.707106781186546
      vertex 1 0 29
    endloop
  endfacet
  facet normal 0.35740674433659453 -0.35740674433659453 0.8628562094610158
    outer loop
      vertex 1.7071067811865475 0.9999999999999999 29.707106781186546
      vertex 0.9999999999999999 0.9999999999999999 30
      vertex 0.9999999999999999 0.2928932188134524 29.707106781186546
    endloop
  endfacet
  facet normal -0.8628562094610166 0.3574067443365938 -0.35740674433659314
    outer loop
      vertex 0 19 0.9999999999999999
      vertex 0.2928932188134524 19.707106781186546 0.9999999999999999
      vertex 0.2928932188134524 19 0.2928932188134524
    endloop
  endfacet
  facet normal -0.5773502691896254 0.5773502691896265 -0.5773502691896254
    outer loop
      vertex 0.2928932188134524 19.707106781186546 0.9999999999999999
      vertex 0.9999999999999999 19.707106781186546 0.2928932188134524
      vertex 0.2928932188134524 19 0.2928932188134524
    endloop
  endfacet
  facet normal -0.35740674433659314 0.3574067443365938 -0.8628562094610166
    outer loop
      vertex 0.2928932188134524 19 0.2928932188134524
      vertex 0.9999999999999999 19.707106781186546 0.2928932188134524
      vertex 0.9999999999999999 19 0
    endloop
  endfacet
  facet normal -0.3574067443365946 0.8628562094610158 -0.3574067443365946
    outer loop
      vertex 0.2928932188134524 19.707106781186546 0.9999999999999999
      vertex 0.9999999999999999 20 0.9999999999999999
      vertex 0.9999999999999999 19.707106781186546 0.2928932188134524
    endloop
  endfacet
  facet normal 0.3816142463920412 -0.07469959306650113 0.921298289234455
    outer loop
      vertex 3 19 6
      vertex 2.30047574028593 19.132254566224375 6.300475740285929
      vertex 2.2928932188134525 19 6.292893218813452
    endloop
  endfacet
  facet normal 0.3886853172061676 0.7031675726329146 0.5953814651010524
    outer loop
      vertex 3 19 6
      vertex 2.6268685594867116 19.13783403119021 6.08080582617584
      vertex 2.30047574028593 19.132254566224375 6.300475740285929
    endloop
  endfacet
  facet normal 0.8282107338425323 0.44314724407897965 0.3430561184605505
    outer loop
      vertex 2.2928932188134525 19 6.292893218813452
      vertex 2.080805826175841 19.13783403119021 6.626868559486711
      vertex 2 19 7
    endloop
  endfacet
  facet normal 0.8263642801850226 -0.07934184559825994 0.5575185628939644
    outer loop
      vertex 2.2928932188134525 19 6.292893218813452
      vertex 2.30047574028593 19.132254566224375 6.300475740285929
      vertex 2.080805826175841 19.13783403119021 6.626868559486711
    endloop
  endfacet
  facet normal 0.39502266909594325 0.6495987572726402 0.6495987572726402
    outer loop
      vertex 2 19 7
      vertex 2.1754542413553777 19.655365778169767 6.237940048006074
      vertex 2 20 6
    endloop
  endfacet
  facet normal 0.9790183415007757 -0.027290510966466633 0.20193641329948306
    outer loop
      vertex 2 19 7
      vertex 2.080805826175841 19.13783403119021 6.626868559486711
      vertex 2.1754542413553777 19.655365778169767 6.237940048006074
    endloop
  endfacet
  facet normal 0.3089145311862434 0.3089145311862434 0.8995241102071512
    outer loop
      vertex 2 20 6
      vertex 2.6268685594867116 19.13783403119021 6.08080582617584
      vertex 3 19 6
    endloop
  endfacet
  facet normal 0.7640324128379589 0.5816770673310484 0.279116931543319
    outer loop
      vertex 2 20 6
      vertex 2.1754542413553777 19.655365778169767 6.237940048006074
      vertex 2.6268685594867116 19.13783403119021 6.08080582617584
    endloop
  endfacet
  facet normal 0.5412141334702709 0.22616788545823904 0.8098983574000954
    outer loop
      vertex 2.1754542413553777 19.655365778169767 6.237940048006074
      vertex 2.30047574028593 19.132254566224375 6.300475740285929
      vertex 2.6268685594867116 19.13783403119021 6.08080582617584
    endloop
  endfacet
  facet normal 0.8039227564910252 0.2562918208278325 0.5366774675469672
    outer loop
      vertex 2.30047574028593 19.132254566224375 6.300475740285929
      vertex 2.1754542413553777 19.655365778169767 6.237940048006074
      vertex 2.080805826175841 19.13783403119021 6.626868559486711
    endloop
  endfacet
  facet normal -0.3574067443365945 0.35740674433659514 0.8628562094610155
    outer loop
      vertex 0.9999999999999999 19 30
      vertex 0.9999999999999999 19.707106781186546 29.707106781186546
      vertex 0.2928932188134524 19 29.707106781186546
    endloop
  endfacet
  facet normal -0.5773502691896251 0.5773502691896262 0.5773502691896262
    outer loop
      vertex 0.9999999999999999 19.707106781186546 29.707106781186546
      vertex 0.2928932188134524 19.707106781186546 29
      vertex 0.2928932188134524 19 29.707106781186546
    endloop
  endfacet
  facet normal -0.8628562094610164 0.3574067443365937 0.3574067443365937
    outer loop
      vertex 0.2928932188134524 19 29.707106781186546
      vertex 0.2928932188134524 19.707106781186546 29
      vertex 0 19 29
    endloop
  endfacet
  facet normal -0.3574067443365945 0.8628562094610155 0.35740674433659514
    outer loop
      vertex 0.9999999999999999 19.707106781186546 29.707106781186546
      vertex 0.9999999999999999 20 29
      vertex 0.2928932188134524 19.707106781186546 29
    endloop
  endfacet
  facet normal 0.8628562094610164 0.35740674433659386 0.35740674433659386
    outer loop
      vertex 2 19 29
      vertex 1.7071067811865475 19.707106781186546 29
      vertex 1.7071067811865475 19 29.707106781186546
    endloop
  endfacet
  facet normal 0.577350269189625 0.5773502691896262 0.5773502691896262
    outer loop
      vertex 1.7071067811865475 19.707106781186546 29
      vertex 0.9999999999999999 19.707106781186546 29.707106781186546
      vertex 1.7071067811865475 19 29.707106781186546
    endloop
  endfacet
  facet normal 0.3574067443365945 0.35740674433659514 0.8628562094610157
    outer loop
      vertex 1.7071067811865475 19 29.707106781186546
      vertex 0.9999999999999999 19.707106781186546 29.707106781186546
      vertex 0.9999999999999999 19 30
    endloop
  endfacet
  facet normal 0.3574067443365945 0.8628562094610157 0.35740674433659514
    outer loop
      vertex 1.7071067811865475 19.707106781186546 29
      vertex 0.9999999999999999 20 29
      vertex 0.9999999999999999 19.707106781186546 29.707106781186546
    endloop
  endfacet
  facet normal 0.3574067443365938 -0.35740674433659314 -0.8628562094610166
    outer loop
      vertex 39 0.9999999999999999 0
      vertex 39.707106781186546 0.9999999999999999 0.2928932188134524
      vertex 39 0.2928932188134524 0.2928932188134524
    endloop
  endfacet
  facet normal 0.5773502691896265 -0.5773502691896254 -0.5773502691896254
    outer loop
      vertex 39.707106781186546 0.9999999999999999 0.2928932188134524
      vertex 39.707106781186546 0.2928932188134524 0.9999999999999999
      vertex 39 0.2928932188134524 0.2928932188134524
    endloop
  endfacet
  facet normal 0.3574067443365938 -0.8628562094610166 -0.35740674433659314
    outer loop
      vertex 39 0.2928932188134524 0.2928932188134524
      vertex 39.707106781186546 0.2928932188134524 0.9999999999999999
      vertex 39 0 0.9999999999999999
    endloop
  endfacet
  facet normal 0.8628562094610158 -0.3574067443365946 -0.3574067443365946
    outer loop
      vertex 39.707106781186546 0.9999999999999999 0.2928932188134524
      vertex 40 0.9999999999999999 0.9999999999999999
      vertex 39.707106781186546 0.2928932188134524 0.9999999999999999
    endloop
  endfacet
  facet normal 0.35740674433659386 -0.8628562094610167 0.357406744336593
    outer loop
      vertex 39 0 5
      vertex 39.707106781186546 0.2928932188134524 5
      vertex 39 0.2928932188134524 5.707106781186548
    endloop
  endfacet
  facet normal 0.5773502691896266 -0.5773502691896255 0.5773502691896252
    outer loop
      vertex 39.707106781186546 0.2928932188134524 5
      vertex 39.707106781186546 0.9999999999999999 5.707106781186548
      vertex 39 0.2928932188134524 5.707106781186548
    endloop
  endfacet
  facet normal 0.35740674433659353 -0.35740674433659286 0.8628562094610168
    outer loop
      vertex 39 0.2928932188134524 5.707106781186548
      vertex 39.707106781186546 0.9999999999999999 5.707106781186548
      vertex 39 0.9999999999999999 6
    endloop
  endfacet
  facet normal 0.8628562094610158 -0.3574067443365946 0.35740674433659436
    outer loop
      vertex 39.707106781186546 0.2928932188134524 5
      vertex 40 0.9999999999999999 5
      vertex 39.707106781186546 0.9999999999999999 5.707106781186548
    endloop
  endfacet
  facet normal 0.8628562094610155 0.35740674433659514 -0.3574067443365945
    outer loop
      vertex 40 19 0.9999999999999999
      vertex 39.707106781186546 19 0.2928932188134524
      vertex 39.707106781186546 19.707106781186546 0.9999999999999999
    endloop
  endfacet
  facet normal 0.5773502691896262 0.5773502691896262 -0.5773502691896251
    outer loop
      vertex 39.707106781186546 19.707106781186546 0.9999999999999999
      vertex 39.707106781186546 19 0.2928932188134524
      vertex 39 19.707106781186546 0.2928932188134524
    endloop
  endfacet
  facet normal 0.35740674433659375 0.35740674433659375 -0.8628562094610165
    outer loop
      vertex 39.707106781186546 19 0.2928932188134524
      vertex 39 19 0
      vertex 39 19.707106781186546 0.2928932188134524
    endloop
  endfacet
  facet normal 0.35740674433659514 0.8628562094610155 -0.3574067443365945
    outer loop
      vertex 39.707106781186546 19.707106781186546 0.9999999999999999
      vertex 39 19.707106781186546 0.2928932188134524
      vertex 39 20 0.9999999999999999
    endloop
  endfacet
  facet normal 0.3574067443365935 0.3574067443365935 0.8628562094610167
    outer loop
      vertex 39 19 6
      vertex 39.707106781186546 19 5.707106781186548
      vertex 39 19.707106781186546 5.707106781186548
    endloop
  endfacet
  facet normal 0.5773502691896262 0.5773502691896262 0.5773502691896247
    outer loop
      vertex 39.707106781186546 19 5.707106781186548
      vertex 39.707106781186546 19.707106781186546 5
      vertex 39 19.707106781186546 5.707106781186548
    endloop
  endfacet
  facet normal 0.35740674433659514 0.8628562094610156 0.35740674433659425
    outer loop
      vertex 39 19.707106781186546 5.707106781186548
      vertex 39.707106781186546 19.707106781186546 5
      vertex 39 20 5
    endloop
  endfacet
  facet normal 0.8628562094610156 0.35740674433659514 0.35740674433659425
    outer loop
      vertex 39.707106781186546 19 5.707106781186548
      vertex 40 19 5
      vertex 39.707106781186546 19.707106781186546 5
    endloop
  endfacet
endsolid OpenSCAD_Model
