solid OpenSCAD_Model
  facet normal 0 0 -1
    outer loop
      vertex 8 1.4999999999999998 0
      vertex 1.4999999999999998 1.4999999999999998 0
      vertex 1.4999999999999998 22.5 0
    endloop
  endfacet
  facet normal 0 0 -1
    outer loop
      vertex 8 1.4999999999999998 0
      vertex 1.4999999999999998 22.5 0
      vertex 8 22.5 0
    endloop
  endfacet
  facet normal 0 0 -1
    outer loop
      vertex 8 1.4999999999999998 0
      vertex 8 22.5 0
      vertex 38.5 22.5 0
    endloop
  endfacet
  facet normal 0 0 -1
    outer loop
      vertex 38.5 22.5 0
      vertex 38.5 1.4999999999999998 0
      vertex 8 1.4999999999999998 0
    endloop
  endfacet
  facet normal 0 0 1
    outer loop
      vertex 9.5 22.5 3
      vertex 9.5 1.4999999999999998 3
      vertex 38.5 1.4999999999999998 3
    endloop
  endfacet
  facet normal 0 0 1
    outer loop
      vertex 38.5 1.4999999999999998 3
      vertex 38.5 22.5 3
      vertex 9.5 22.5 3
    endloop
  endfacet
  facet normal -1 0 0
    outer loop
      vertex 0 22.5 1.4999999999999998
      vertex 0 1.4999999999999998 1.4999999999999998
      vertex 0 1.4999999999999998 24.5
    endloop
  endfacet
  facet normal -1 0 0
    outer loop
      vertex 0 1.4999999999999998 24.5
      vertex 0 22.5 24.5
      vertex 0 22.5 1.4999999999999998
    endloop
  endfacet
  facet normal 1 0 0
    outer loop
      vertex 8 1.4999999999999998 24.5
      vertex 8 1.4999999999999998 4.5
      vertex 8 22.5 4.5
    endloop
  endfacet
  facet normal 1 0 0
    outer loop
      vertex 8 22.5 4.5
      vertex 8 22.5 24.5
      vertex 8 1.4999999999999998 24.5
    endloop
  endfacet
  facet normal 0 0 1
    outer loop
      vertex 1.4999999999999998 22.5 26
      vertex 1.4999999999999998 1.4999999999999998 26
      vertex 6.5 1.4999999999999998 26
    endloop
  endfacet
  facet normal 0 0 1
    outer loop
      vertex 6.5 1.4999999999999998 26
      vertex 6.5 22.5 26
      vertex 1.4999999999999998 22.5 26
    endloop
  endfacet
  facet normal 0 1 0
    outer loop
      vertex 1.4999999999999998 24 24.5
      vertex 6.5 24 24.5
      vertex 6.5 24 1.5000000000000002
    endloop
  endfacet
  facet normal 0 1 0
    outer loop
      vertex 1.4999999999999998 24 1.4999999999999998
      vertex 1.4999999999999998 24 24.5
      vertex 6.5 24 1.5000000000000002
    endloop
  endfacet
  facet normal 0 1 0
    outer loop
      vertex 8 24 1.4999999999999998
      vertex 1.4999999999999998 24 1.4999999999999998
      vertex 6.5 24 1.5000000000000002
    endloop
  endfacet
  facet normal 0 1 0
    outer loop
      vertex 8 24 1.4999999999999998
      vertex 6.5 24 1.5000000000000002
      vertex 38.5 24 1.5000000000000002
    endloop
  endfacet
  facet normal 0 -1 0
    outer loop
      vertex 6.5 0 1.5000000000000002
      vertex 6.5 0 24.5
      vertex 1.4999999999999998 0 24.5
    endloop
  endfacet
  facet normal 0 -1 0
    outer loop
      vertex 6.5 0 1.5000000000000002
      vertex 1.4999999999999998 0 24.5
      vertex 1.4999999999999998 0 1.4999999999999998
    endloop
  endfacet
  facet normal 0 -1 0
    outer loop
      vertex 6.5 0 1.5000000000000002
      vertex 1.4999999999999998 0 1.4999999999999998
      vertex 8 0 1.4999999999999998
    endloop
  endfacet
  facet normal 0 -1 0
    outer loop
      vertex 6.5 0 1.5000000000000002
      vertex 8 0 1.4999999999999998
      vertex 38.5 0 1.4999999999999998
    endloop
  endfacet
  facet normal 0 -0.3826834323650898 -0.9238795325112868
    outer loop
      vertex 1.4999999999999998 1.4999999999999998 0
      vertex 8 1.4999999999999998 0
      vertex 8 0.4393398282201786 0.4393398282201786
    endloop
  endfacet
  facet normal -2.6080860587849643e-18 -0.3826834323650898 -0.9238795325112868
    outer loop
      vertex 1.4999999999999998 1.4999999999999998 0
      vertex 8 0.4393398282201786 0.4393398282201786
      vertex 1.4999999999999998 0.4393398282201786 0.4393398282201786
    endloop
  endfacet
  facet normal 0 -0.9238795325112868 -0.3826834323650898
    outer loop
      vertex 1.4999999999999998 0.4393398282201786 0.4393398282201786
      vertex 8 0.4393398282201786 0.4393398282201786
      vertex 8 0 1.4999999999999998
    endloop
  endfacet
  facet normal -2.6080860587849643e-18 -0.9238795325112868 -0.3826834323650898
    outer loop
      vertex 1.4999999999999998 0.4393398282201786 0.4393398282201786
      vertex 8 0 1.4999999999999998
      vertex 1.4999999999999998 0 1.4999999999999998
    endloop
  endfacet
  facet normal -0.9238795325112868 -0.3826834323650897 0
    outer loop
      vertex 0 1.4999999999999998 1.4999999999999998
      vertex 0.4393398282201786 0.4393398282201786 24.5
      vertex 0 1.4999999999999998 24.5
    endloop
  endfacet
  facet normal -0.9238795325112868 -0.3826834323650897 -7.370677992218378e-19
    outer loop
      vertex 0 1.4999999999999998 1.4999999999999998
      vertex 0.4393398282201786 0.4393398282201786 1.4999999999999998
      vertex 0.4393398282201786 0.4393398282201786 24.5
    endloop
  endfacet
  facet normal -0.3826834323650897 -0.9238795325112868 0
    outer loop
      vertex 0.4393398282201786 0.4393398282201786 1.4999999999999998
      vertex 1.4999999999999998 0 24.5
      vertex 0.4393398282201786 0.4393398282201786 24.5
    endloop
  endfacet
  facet normal -0.3826834323650897 -0.9238795325112868 -7.370677992218378e-19
    outer loop
      vertex 0.4393398282201786 0.4393398282201786 1.4999999999999998
      vertex 1.4999999999999998 0 1.4999999999999998
      vertex 1.4999999999999998 0 24.5
    endloop
  endfacet
  facet normal -0.3826834323650897 0 -0.9238795325112868
    outer loop
      vertex 1.4999999999999998 1.4999999999999998 0
      vertex 0.4393398282201786 22.5 0.4393398282201786
      vertex 1.4999999999999998 22.5 0
    endloop
  endfacet
  facet normal -0.3826834323650897 -8.072647324810604e-19 -0.9238795325112868
    outer loop
      vertex 1.4999999999999998 1.4999999999999998 0
      vertex 0.4393398282201786 1.4999999999999998 0.4393398282201786
      vertex 0.4393398282201786 22.5 0.4393398282201786
    endloop
  endfacet
  facet normal -0.9238795325112868 0 -0.3826834323650897
    outer loop
      vertex 0.4393398282201786 1.4999999999999998 0.4393398282201786
      vertex 0 22.5 1.4999999999999998
      vertex 0.4393398282201786 22.5 0.4393398282201786
    endloop
  endfacet
  facet normal -0.9238795325112868 -8.072647324810604e-19 -0.3826834323650897
    outer loop
      vertex 0.4393398282201786 1.4999999999999998 0.4393398282201786
      vertex 0 1.4999999999999998 1.4999999999999998
      vertex 0 22.5 1.4999999999999998
    endloop
  endfacet
  facet normal 0 -0.3826834323650896 -0.9238795325112866
    outer loop
      vertex 8 1.4999999999999998 0
      vertex 38.5 1.4999999999999998 0
      vertex 38.5 0.4393398282201786 0.4393398282201786
    endloop
  endfacet
  facet normal -5.558216190853202e-19 -0.3826834323650896 -0.9238795325112866
    outer loop
      vertex 8 1.4999999999999998 0
      vertex 38.5 0.4393398282201786 0.4393398282201786
      vertex 8 0.4393398282201786 0.4393398282201786
    endloop
  endfacet
  facet normal 0 -0.9238795325112866 -0.3826834323650896
    outer loop
      vertex 8 0.4393398282201786 0.4393398282201786
      vertex 38.5 0.4393398282201786 0.4393398282201786
      vertex 38.5 0 1.4999999999999998
    endloop
  endfacet
  facet normal -5.558216190853202e-19 -0.9238795325112866 -0.3826834323650896
    outer loop
      vertex 8 0.4393398282201786 0.4393398282201786
      vertex 38.5 0 1.4999999999999998
      vertex 8 0 1.4999999999999998
    endloop
  endfacet
  facet normal 0.9238795325112867 -0.38268343236509006 0
    outer loop
      vertex 8 1.4999999999999998 4.5
      vertex 8 1.4999999999999998 24.5
      vertex 7.560660171779821 0.4393398282201786 24.5
    endloop
  endfacet
  facet normal 0.9995651156121707 -0.020851614460612712 0.020851614460612716
    outer loop
      vertex 8 1.4999999999999998 4.5
      vertex 7.560660171779821 0.4393398282201786 24.5
      vertex 8 0 3.0000000000000004
    endloop
  endfacet
  facet normal 0.38254711145489667 -0.9235504247210635 0.026689333357318375
    outer loop
      vertex 8 0 3.0000000000000004
      vertex 7.560660171779821 0.4393398282201786 24.5
      vertex 6.5 0 24.5
    endloop
  endfacet
  facet normal 0 -1 0
    outer loop
      vertex 8 0 3.0000000000000004
      vertex 6.5 0 24.5
      vertex 6.5 0 1.5000000000000002
    endloop
  endfacet
  facet normal 0.3826834323650897 0 0.9238795325112867
    outer loop
      vertex 9.5 1.4999999999999998 3
      vertex 9.5 22.5 3
      vertex 8.439339828220179 22.5 3.4393398282201786
    endloop
  endfacet
  facet normal 0.3826834323650897 9.365566322769958e-19 0.9238795325112867
    outer loop
      vertex 9.5 1.4999999999999998 3
      vertex 8.439339828220179 22.5 3.4393398282201786
      vertex 8.439339828220179 1.4999999999999998 3.4393398282201786
    endloop
  endfacet
  facet normal 0.9238795325112867 0 0.38268343236509
    outer loop
      vertex 8.439339828220179 1.4999999999999998 3.4393398282201786
      vertex 8.439339828220179 22.5 3.4393398282201786
      vertex 8 22.5 4.5
    endloop
  endfacet
  facet normal 0.9238795325112867 9.365566322769956e-19 0.38268343236509
    outer loop
      vertex 8.439339828220179 1.4999999999999998 3.4393398282201786
      vertex 8 22.5 4.5
      vertex 8 1.4999999999999998 4.5
    endloop
  endfacet
  facet normal 0 -0.38268343236508967 0.9238795325112866
    outer loop
      vertex 9.5 1.4999999999999998 3
      vertex 38.5 0.4393398282201786 2.5606601717798214
      vertex 38.5 1.4999999999999998 3
    endloop
  endfacet
  facet normal 0.014611988298277779 -0.014611988298277485 0.9997864669997999
    outer loop
      vertex 9.5 1.4999999999999998 3
      vertex 8 0 3.0000000000000004
      vertex 38.5 0.4393398282201786 2.5606601717798214
    endloop
  endfacet
  facet normal 0.01881716434455974 -0.9237159517761377 0.3826156750060479
    outer loop
      vertex 8 0 3.0000000000000004
      vertex 38.5 0 1.4999999999999998
      vertex 38.5 0.4393398282201786 2.5606601717798214
    endloop
  endfacet
  facet normal 0 -1 0
    outer loop
      vertex 8 0 3.0000000000000004
      vertex 6.5 0 1.5000000000000002
      vertex 38.5 0 1.4999999999999998
    endloop
  endfacet
  facet normal 0 -0.3826834323650887 0.9238795325112872
    outer loop
      vertex 1.4999999999999998 1.4999999999999998 26
      vertex 6.5 0.4393398282201786 25.560660171779823
      vertex 6.5 1.4999999999999998 26
    endloop
  endfacet
  facet normal -1.017732622618582e-18 -0.3826834323650887 0.9238795325112872
    outer loop
      vertex 1.4999999999999998 1.4999999999999998 26
      vertex 1.4999999999999998 0.4393398282201786 25.560660171779823
      vertex 6.5 0.4393398282201786 25.560660171779823
    endloop
  endfacet
  facet normal 0 -0.923879532511287 0.3826834323650892
    outer loop
      vertex 1.4999999999999998 0.4393398282201786 25.560660171779823
      vertex 6.5 0 24.5
      vertex 6.5 0.4393398282201786 25.560660171779823
    endloop
  endfacet
  facet normal -3.3641914688232137e-18 -0.923879532511287 0.3826834323650892
    outer loop
      vertex 1.4999999999999998 0.4393398282201786 25.560660171779823
      vertex 1.4999999999999998 0 24.5
      vertex 6.5 0 24.5
    endloop
  endfacet
  facet normal -0.923879532511287 0 0.3826834323650892
    outer loop
      vertex 0 1.4999999999999998 24.5
      vertex 0.4393398282201786 22.5 25.560660171779823
      vertex 0 22.5 24.5
    endloop
  endfacet
  facet normal -0.923879532511287 -8.009979687674318e-19 0.3826834323650892
    outer loop
      vertex 0 1.4999999999999998 24.5
      vertex 0.4393398282201786 1.4999999999999998 25.560660171779823
      vertex 0.4393398282201786 22.5 25.560660171779823
    endloop
  endfacet
  facet normal -0.38268343236508867 0 0.9238795325112872
    outer loop
      vertex 0.4393398282201786 1.4999999999999998 25.560660171779823
      vertex 1.4999999999999998 22.5 26
      vertex 0.4393398282201786 22.5 25.560660171779823
    endloop
  endfacet
  facet normal -0.38268343236508867 -2.423172910996624e-19 0.9238795325112872
    outer loop
      vertex 0.4393398282201786 1.4999999999999998 25.560660171779823
      vertex 1.4999999999999998 1.4999999999999998 26
      vertex 1.4999999999999998 22.5 26
    endloop
  endfacet
  facet normal 0.9238795325112868 0 0.38268343236508956
    outer loop
      vertex 8 1.4999999999999998 24.5
      vertex 8 22.5 24.5
      vertex 7.560660171779821 22.5 25.560660171779823
    endloop
  endfacet
  facet normal 0.9238795325112868 -3.1636338656810777e-19 0.38268343236508956
    outer loop
      vertex 8 1.4999999999999998 24.5
      vertex 7.560660171779821 22.5 25.560660171779823
      vertex 7.560660171779821 1.4999999999999998 25.560660171779823
    endloop
  endfacet
  facet normal 0.3826834323650887 0 0.9238795325112872
    outer loop
      vertex 7.560660171779821 1.4999999999999998 25.560660171779823
      vertex 7.560660171779821 22.5 25.560660171779823
      vertex 6.5 22.5 26
    endloop
  endfacet
  facet normal 0.3826834323650887 -3.1636338656810835e-19 0.9238795325112872
    outer loop
      vertex 7.560660171779821 1.4999999999999998 25.560660171779823
      vertex 6.5 22.5 26
      vertex 6.5 1.4999999999999998 26
    endloop
  endfacet
  facet normal 0 0.3826834323650892 -0.923879532511287
    outer loop
      vertex 1.4999999999999998 22.5 0
      vertex 8 23.560660171779823 0.4393398282201786
      vertex 8 22.5 0
    endloop
  endfacet
  facet normal -2.587839591402472e-18 0.3826834323650892 -0.923879532511287
    outer loop
      vertex 1.4999999999999998 22.5 0
      vertex 1.4999999999999998 23.560660171779823 0.4393398282201786
      vertex 8 23.560660171779823 0.4393398282201786
    endloop
  endfacet
  facet normal 0 0.9238795325112872 -0.3826834323650887
    outer loop
      vertex 1.4999999999999998 23.560660171779823 0.4393398282201786
      vertex 8 24 1.4999999999999998
      vertex 8 23.560660171779823 0.4393398282201786
    endloop
  endfacet
  facet normal -7.8287124816814e-19 0.9238795325112872 -0.3826834323650887
    outer loop
      vertex 1.4999999999999998 23.560660171779823 0.4393398282201786
      vertex 1.4999999999999998 24 1.4999999999999998
      vertex 8 24 1.4999999999999998
    endloop
  endfacet
  facet normal -0.923879532511287 0.3826834323650892 0
    outer loop
      vertex 0 22.5 1.4999999999999998
      vertex 0 22.5 24.5
      vertex 0.4393398282201786 23.560660171779823 24.5
    endloop
  endfacet
  facet normal -0.923879532511287 0.3826834323650892 -7.313459714833073e-19
    outer loop
      vertex 0 22.5 1.4999999999999998
      vertex 0.4393398282201786 23.560660171779823 24.5
      vertex 0.4393398282201786 23.560660171779823 1.4999999999999998
    endloop
  endfacet
  facet normal -0.3826834323650887 0.9238795325112873 0
    outer loop
      vertex 0.4393398282201786 23.560660171779823 1.4999999999999998
      vertex 0.4393398282201786 23.560660171779823 24.5
      vertex 1.4999999999999998 24 24.5
    endloop
  endfacet
  facet normal -0.3826834323650887 0.9238795325112873 -2.2124622230838745e-19
    outer loop
      vertex 0.4393398282201786 23.560660171779823 1.4999999999999998
      vertex 1.4999999999999998 24 24.5
      vertex 1.4999999999999998 24 1.4999999999999998
    endloop
  endfacet
  facet normal 0 0.38268343236508917 -0.923879532511287
    outer loop
      vertex 8 22.5 0
      vertex 38.5 23.560660171779823 0.4393398282201786
      vertex 38.5 22.5 0
    endloop
  endfacet
  facet normal -5.515067981677399e-19 0.38268343236508917 -0.923879532511287
    outer loop
      vertex 8 22.5 0
      vertex 8 23.560660171779823 0.4393398282201786
      vertex 38.5 23.560660171779823 0.4393398282201786
    endloop
  endfacet
  facet normal 0 0.9238795325112872 -0.38268343236508856
    outer loop
      vertex 8 23.560660171779823 0.4393398282201786
      vertex 38.5 24 1.5000000000000002
      vertex 38.5 23.560660171779823 0.4393398282201786
    endloop
  endfacet
  facet normal 5.405144917659974e-18 0.9238795325112872 -0.3826834323650887
    outer loop
      vertex 8 23.560660171779823 0.4393398282201786
      vertex 8 24 1.4999999999999998
      vertex 38.5 24 1.5000000000000002
    endloop
  endfacet
  facet normal 0.9238795325112868 0.38268343236508956 0
    outer loop
      vertex 8 22.5 4.5
      vertex 7.560660171779821 23.560660171779823 24.5
      vertex 8 22.5 24.5
    endloop
  endfacet
  facet normal 0.9995651156121707 0.020851614460612716 0.020851614460612716
    outer loop
      vertex 8 22.5 4.5
      vertex 8 24 3
      vertex 7.560660171779821 23.560660171779823 24.5
    endloop
  endfacet
  facet normal 0.38254711145489567 0.923550424721064 0.026689333357318306
    outer loop
      vertex 8 24 3
      vertex 6.5 24 24.5
      vertex 7.560660171779821 23.560660171779823 24.5
    endloop
  endfacet
  facet normal 0 1 0
    outer loop
      vertex 8 24 3
      vertex 6.5 24 1.5000000000000002
      vertex 6.5 24 24.5
    endloop
  endfacet
  facet normal 0 0.3826834323650893 0.9238795325112871
    outer loop
      vertex 9.5 22.5 3
      vertex 38.5 22.5 3
      vertex 38.5 23.560660171779823 2.5606601717798214
    endloop
  endfacet
  facet normal 0.014611988298277768 0.014611988298277768 0.9997864669997999
    outer loop
      vertex 9.5 22.5 3
      vertex 38.5 23.560660171779823 2.5606601717798214
      vertex 8 24 3
    endloop
  endfacet
  facet normal 0.018817164344559687 0.9237159517761382 0.382615675006047
    outer loop
      vertex 8 24 3
      vertex 38.5 23.560660171779823 2.5606601717798214
      vertex 38.5 24 1.5000000000000002
    endloop
  endfacet
  facet normal 0 1 0
    outer loop
      vertex 8 24 3
      vertex 38.5 24 1.5000000000000002
      vertex 6.5 24 1.5000000000000002
    endloop
  endfacet
  facet normal 0 0.3826834323650882 0.9238795325112874
    outer loop
      vertex 1.4999999999999998 22.5 26
      vertex 6.5 22.5 26
      vertex 6.5 23.560660171779823 25.560660171779823
    endloop
  endfacet
  facet normal -1.898072610325805e-18 0.3826834323650882 0.9238795325112874
    outer loop
      vertex 1.4999999999999998 22.5 26
      vertex 6.5 23.560660171779823 25.560660171779823
      vertex 1.4999999999999998 23.560660171779823 25.560660171779823
    endloop
  endfacet
  facet normal 0 0.9238795325112874 0.3826834323650882
    outer loop
      vertex 1.4999999999999998 23.560660171779823 25.560660171779823
      vertex 6.5 23.560660171779823 25.560660171779823
      vertex 6.5 24 24.5
    endloop
  endfacet
  facet normal -1.898072610325805e-18 0.9238795325112874 0.3826834323650882
    outer loop
      vertex 1.4999999999999998 23.560660171779823 25.560660171779823
      vertex 6.5 24 24.5
      vertex 1.4999999999999998 24 24.5
    endloop
  endfacet
  facet normal 0.3826834323650892 0 -0.923879532511287
    outer loop
      vertex 38.5 1.4999999999999998 0
      vertex 38.5 22.5 0
      vertex 39.56066017177982 22.5 0.4393398282201786
    endloop
  endfacet
  facet normal 0.3826834323650892 -8.009979687674318e-19 -0.923879532511287
    outer loop
      vertex 38.5 1.4999999999999998 0
      vertex 39.56066017177982 22.5 0.4393398282201786
      vertex 39.56066017177982 1.4999999999999998 0.4393398282201786
    endloop
  endfacet
  facet normal 0.9238795325112872 0 -0.38268343236508867
    outer loop
      vertex 39.56066017177982 1.4999999999999998 0.4393398282201786
      vertex 39.56066017177982 22.5 0.4393398282201786
      vertex 40 22.5 1.4999999999999998
    endloop
  endfacet
  facet normal 0.9238795325112872 -2.423172910996624e-19 -0.38268343236508867
    outer loop
      vertex 39.56066017177982 1.4999999999999998 0.4393398282201786
      vertex 40 22.5 1.4999999999999998
      vertex 40 1.4999999999999998 1.4999999999999998
    endloop
  endfacet
  facet normal 0.3826834323650892 0 0.923879532511287
    outer loop
      vertex 38.5 1.4999999999999998 3
      vertex 39.56066017177982 22.5 2.5606601717798214
      vertex 38.5 22.5 3
    endloop
  endfacet
  facet normal 0.3826834323650892 8.009979687674318e-19 0.923879532511287
    outer loop
      vertex 38.5 1.4999999999999998 3
      vertex 39.56066017177982 1.4999999999999998 2.5606601717798214
      vertex 39.56066017177982 22.5 2.5606601717798214
    endloop
  endfacet
  facet normal 0.9238795325112872 0 0.38268343236508856
    outer loop
      vertex 39.56066017177982 1.4999999999999998 2.5606601717798214
      vertex 40 22.5 1.4999999999999998
      vertex 39.56066017177982 22.5 2.5606601717798214
    endloop
  endfacet
  facet normal 0.9238795325112872 -9.428233959906111e-19 0.38268343236508856
    outer loop
      vertex 39.56066017177982 1.4999999999999998 2.5606601717798214
      vertex 40 1.4999999999999998 1.4999999999999998
      vertex 40 22.5 1.4999999999999998
    endloop
  endfacet
  facet normal -0.35740674433659314 -0.35740674433659314 -0.8628562094610168
    outer loop
      vertex 1.4999999999999998 1.4999999999999998 0
      vertex 1.4999999999999998 0.4393398282201786 0.4393398282201786
      vertex 0.4393398282201786 1.4999999999999998 0.4393398282201786
    endloop
  endfacet
  facet normal -0.5773502691896257 -0.5773502691896257 -0.5773502691896257
    outer loop
      vertex 1.4999999999999998 0.4393398282201786 0.4393398282201786
      vertex 0.4393398282201786 0.4393398282201786 1.4999999999999998
      vertex 0.4393398282201786 1.4999999999999998 0.4393398282201786
    endloop
  endfacet
  facet normal -0.8628562094610169 -0.3574067443365932 -0.3574067443365932
    outer loop
      vertex 0.4393398282201786 1.4999999999999998 0.4393398282201786
      vertex 0.4393398282201786 0.4393398282201786 1.4999999999999998
      vertex 0 1.4999999999999998 1.4999999999999998
    endloop
  endfacet
  facet normal -0.3574067443365932 -0.8628562094610169 -0.3574067443365932
    outer loop
      vertex 1.4999999999999998 0.4393398282201786 0.4393398282201786
      vertex 1.4999999999999998 0 1.4999999999999998
      vertex 0.4393398282201786 0.4393398282201786 1.4999999999999998
    endloop
  endfacet
  facet normal 0.3816142463920415 0.07469959306650688 0.9212982892344544
    outer loop
      vertex 9.5 1.4999999999999998 3
      vertex 8.439339828220179 1.4999999999999998 3.4393398282201786
      vertex 8.450713610428895 1.3016181506634341 3.4507136104288954
    endloop
  endfacet
  facet normal 0.3886853172061662 -0.7031675726329291 0.5953814651010361
    outer loop
      vertex 9.5 1.4999999999999998 3
      vertex 8.450713610428895 1.3016181506634341 3.4507136104288954
      vertex 8.940302839230068 1.293248953214689 3.121208739263761
    endloop
  endfacet
  facet normal 0.8282107338425294 -0.4431472440789861 0.3430561184605496
    outer loop
      vertex 8.439339828220179 1.4999999999999998 3.4393398282201786
      vertex 8 1.4999999999999998 4.5
      vertex 8.12120873926376 1.293248953214689 3.940302839230068
    endloop
  endfacet
  facet normal 0.8263642801850216 0.07934184559826363 0.5575185628939653
    outer loop
      vertex 8.439339828220179 1.4999999999999998 3.4393398282201786
      vertex 8.12120873926376 1.293248953214689 3.940302839230068
      vertex 8.450713610428895 1.3016181506634341 3.4507136104288954
    endloop
  endfacet
  facet normal 0.3950226690959429 -0.6495987572726403 0.6495987572726404
    outer loop
      vertex 8 1.4999999999999998 4.5
      vertex 8 0 3.0000000000000004
      vertex 8.263181362033066 0.5169513327453493 3.3569100720091107
    endloop
  endfacet
  facet normal 0.9790183415007759 0.027290510966466938 0.2019364132994825
    outer loop
      vertex 8 1.4999999999999998 4.5
      vertex 8.263181362033066 0.5169513327453493 3.3569100720091107
      vertex 8.12120873926376 1.293248953214689 3.940302839230068
    endloop
  endfacet
  facet normal 0.3089145311862422 -0.30891453118624196 0.8995241102071522
    outer loop
      vertex 8 0 3.0000000000000004
      vertex 9.5 1.4999999999999998 3
      vertex 8.940302839230068 1.293248953214689 3.121208739263761
    endloop
  endfacet
  facet normal 0.7640324128379599 -0.5816770673310478 0.27911693154331746
    outer loop
      vertex 8 0 3.0000000000000004
      vertex 8.940302839230068 1.293248953214689 3.121208739263761
      vertex 8.263181362033066 0.5169513327453493 3.3569100720091107
    endloop
  endfacet
  facet normal 0.5412141334702738 -0.22616788545824237 0.8098983574000925
    outer loop
      vertex 8.263181362033066 0.5169513327453493 3.3569100720091107
      vertex 8.940302839230068 1.293248953214689 3.121208739263761
      vertex 8.450713610428895 1.3016181506634341 3.4507136104288954
    endloop
  endfacet
  facet normal 0.8039227564910222 -0.25629182082783486 0.5366774675469704
    outer loop
      vertex 8.450713610428895 1.3016181506634341 3.4507136104288954
      vertex 8.12120873926376 1.293248953214689 3.940302839230068
      vertex 8.263181362033066 0.5169513327453493 3.3569100720091107
    endloop
  endfacet
  facet normal -0.8628562094610172 -0.3574067443365933 0.35740674433659275
    outer loop
      vertex 0 1.4999999999999998 24.5
      vertex 0.4393398282201786 0.4393398282201786 24.5
      vertex 0.4393398282201786 1.4999999999999998 25.560660171779823
    endloop
  endfacet
  facet normal -0.5773502691896261 -0.5773502691896261 0.5773502691896252
    outer loop
      vertex 0.4393398282201786 1.4999999999999998 25.560660171779823
      vertex 0.4393398282201786 0.4393398282201786 24.5
      vertex 1.4999999999999998 0.4393398282201786 25.560660171779823
    endloop
  endfacet
  facet normal -0.3574067443365933 -0.8628562094610172 0.35740674433659275
    outer loop
      vertex 0.4393398282201786 0.4393398282201786 24.5
      vertex 1.4999999999999998 0 24.5
      vertex 1.4999999999999998 0.4393398282201786 25.560660171779823
    endloop
  endfacet
  facet normal -0.3574067443365924 -0.3574067443365924 0.8628562094610175
    outer loop
      vertex 0.4393398282201786 1.4999999999999998 25.560660171779823
      vertex 1.4999999999999998 0.4393398282201786 25.560660171779823
      vertex 1.4999999999999998 1.4999999999999998 26
    endloop
  endfacet
  facet normal 0.8628562094610168 -0.35740674433659353 0.357406744336593
    outer loop
      vertex 8 1.4999999999999998 24.5
      vertex 7.560660171779821 1.4999999999999998 25.560660171779823
      vertex 7.560660171779821 0.4393398282201786 24.5
    endloop
  endfacet
  facet normal 0.5773502691896262 -0.577350269189626 0.5773502691896252
    outer loop
      vertex 7.560660171779821 1.4999999999999998 25.560660171779823
      vertex 6.5 0.4393398282201786 25.560660171779823
      vertex 7.560660171779821 0.4393398282201786 24.5
    endloop
  endfacet
  facet normal 0.3574067443365934 -0.862856209461017 0.3574067443365928
    outer loop
      vertex 7.560660171779821 0.4393398282201786 24.5
      vertex 6.5 0.4393398282201786 25.560660171779823
      vertex 6.5 0 24.5
    endloop
  endfacet
  facet normal 0.3574067443365925 -0.35740674433659236 0.8628562094610175
    outer loop
      vertex 7.560660171779821 1.4999999999999998 25.560660171779823
      vertex 6.5 1.4999999999999998 26
      vertex 6.5 0.4393398282201786 25.560660171779823
    endloop
  endfacet
  facet normal -0.35740674433659325 0.3574067443365927 -0.8628562094610169
    outer loop
      vertex 1.4999999999999998 22.5 0
      vertex 0.4393398282201786 22.5 0.4393398282201786
      vertex 1.4999999999999998 23.560660171779823 0.4393398282201786
    endloop
  endfacet
  facet normal -0.5773502691896261 0.5773502691896252 -0.5773502691896261
    outer loop
      vertex 0.4393398282201786 22.5 0.4393398282201786
      vertex 0.4393398282201786 23.560660171779823 1.4999999999999998
      vertex 1.4999999999999998 23.560660171779823 0.4393398282201786
    endloop
  endfacet
  facet normal -0.3574067443365924 0.8628562094610175 -0.3574067443365924
    outer loop
      vertex 1.4999999999999998 23.560660171779823 0.4393398282201786
      vertex 0.4393398282201786 23.560660171779823 1.4999999999999998
      vertex 1.4999999999999998 24 1.4999999999999998
    endloop
  endfacet
  facet normal -0.8628562094610172 0.35740674433659275 -0.3574067443365933
    outer loop
      vertex 0.4393398282201786 22.5 0.4393398282201786
      vertex 0 22.5 1.4999999999999998
      vertex 0.4393398282201786 23.560660171779823 1.4999999999999998
    endloop
  endfacet
  facet normal 0.3816142463920415 -0.0746995930665078 0.9212982892344544
    outer loop
      vertex 9.5 22.5 3
      vertex 8.450713610428895 22.698381849336563 3.4507136104288954
      vertex 8.439339828220179 22.5 3.4393398282201786
    endloop
  endfacet
  facet normal 0.3886853172061655 0.703167572632927 0.5953814651010392
    outer loop
      vertex 9.5 22.5 3
      vertex 8.940302839230068 22.70675104678531 3.121208739263761
      vertex 8.450713610428895 22.698381849336563 3.4507136104288954
    endloop
  endfacet
  facet normal 0.8282107338425291 0.44314724407898676 0.34305611846054945
    outer loop
      vertex 8.439339828220179 22.5 3.4393398282201786
      vertex 8.12120873926376 22.70675104678531 3.940302839230068
      vertex 8 22.5 4.5
    endloop
  endfacet
  facet normal 0.8263642801850215 -0.0793418455982646 0.5575185628939655
    outer loop
      vertex 8.439339828220179 22.5 3.4393398282201786
      vertex 8.450713610428895 22.698381849336563 3.4507136104288954
      vertex 8.12120873926376 22.70675104678531 3.940302839230068
    endloop
  endfacet
  facet normal 0.39502266909594475 0.6495987572726397 0.6495987572726397
    outer loop
      vertex 8 22.5 4.5
      vertex 8.263181362033066 23.48304866725465 3.3569100720091103
      vertex 8 24 3
    endloop
  endfacet
  facet normal 0.9790183415007758 -0.027290510966466744 0.2019364132994825
    outer loop
      vertex 8 22.5 4.5
      vertex 8.12120873926376 22.70675104678531 3.940302839230068
      vertex 8.263181362033066 23.48304866725465 3.3569100720091103
    endloop
  endfacet
  facet normal 0.3089145311862419 0.3089145311862419 0.8995241102071521
    outer loop
      vertex 8 24 3
      vertex 8.940302839230068 22.70675104678531 3.121208739263761
      vertex 9.5 22.5 3
    endloop
  endfacet
  facet normal 0.7640324128379598 0.5816770673310476 0.27911693154331857
    outer loop
      vertex 8 24 3
      vertex 8.263181362033066 23.48304866725465 3.3569100720091103
      vertex 8.940302839230068 22.70675104678531 3.121208739263761
    endloop
  endfacet
  facet normal 0.5412141334702731 0.22616788545824218 0.8098983574000929
    outer loop
      vertex 8.263181362033066 23.48304866725465 3.3569100720091103
      vertex 8.450713610428895 22.698381849336563 3.4507136104288954
      vertex 8.940302839230068 22.70675104678531 3.121208739263761
    endloop
  endfacet
  facet normal 0.8039227564910227 0.2562918208278346 0.5366774675469699
    outer loop
      vertex 8.450713610428895 22.698381849336563 3.4507136104288954
      vertex 8.263181362033066 23.48304866725465 3.3569100720091103
      vertex 8.12120873926376 22.70675104678531 3.940302839230068
    endloop
  endfacet
  facet normal -0.8628562094610172 0.3574067443365928 0.3574067443365928
    outer loop
      vertex 0 22.5 24.5
      vertex 0.4393398282201786 22.5 25.560660171779823
      vertex 0.4393398282201786 23.560660171779823 24.5
    endloop
  endfacet
  facet normal -0.5773502691896263 0.5773502691896255 0.5773502691896255
    outer loop
      vertex 0.4393398282201786 22.5 25.560660171779823
      vertex 1.4999999999999998 23.560660171779823 25.560660171779823
      vertex 0.4393398282201786 23.560660171779823 24.5
    endloop
  endfacet
  facet normal -0.3574067443365924 0.8628562094610177 0.3574067443365919
    outer loop
      vertex 0.4393398282201786 23.560660171779823 24.5
      vertex 1.4999999999999998 23.560660171779823 25.560660171779823
      vertex 1.4999999999999998 24 24.5
    endloop
  endfacet
  facet normal -0.3574067443365924 0.3574067443365919 0.8628562094610177
    outer loop
      vertex 0.4393398282201786 22.5 25.560660171779823
      vertex 1.4999999999999998 22.5 26
      vertex 1.4999999999999998 23.560660171779823 25.560660171779823
    endloop
  endfacet
  facet normal 0.8628562094610169 0.3574067443365931 0.3574067443365931
    outer loop
      vertex 8 22.5 24.5
      vertex 7.560660171779821 23.560660171779823 24.5
      vertex 7.560660171779821 22.5 25.560660171779823
    endloop
  endfacet
  facet normal 0.5773502691896264 0.5773502691896254 0.5773502691896254
    outer loop
      vertex 7.560660171779821 23.560660171779823 24.5
      vertex 6.5 23.560660171779823 25.560660171779823
      vertex 7.560660171779821 22.5 25.560660171779823
    endloop
  endfacet
  facet normal 0.35740674433659253 0.357406744336592 0.8628562094610176
    outer loop
      vertex 7.560660171779821 22.5 25.560660171779823
      vertex 6.5 23.560660171779823 25.560660171779823
      vertex 6.5 22.5 26
    endloop
  endfacet
  facet normal 0.35740674433659253 0.8628562094610176 0.357406744336592
    outer loop
      vertex 7.560660171779821 23.560660171779823 24.5
      vertex 6.5 24 24.5
      vertex 6.5 23.560660171779823 25.560660171779823
    endloop
  endfacet
  facet normal 0.3574067443365927 -0.35740674433659325 -0.8628562094610169
    outer loop
      vertex 38.5 1.4999999999999998 0
      vertex 39.56066017177982 1.4999999999999998 0.4393398282201786
      vertex 38.5 0.4393398282201786 0.4393398282201786
    endloop
  endfacet
  facet normal 0.5773502691896252 -0.5773502691896261 -0.5773502691896261
    outer loop
      vertex 39.56066017177982 1.4999999999999998 0.4393398282201786
      vertex 39.56066017177982 0.4393398282201786 1.4999999999999998
      vertex 38.5 0.4393398282201786 0.4393398282201786
    endloop
  endfacet
  facet normal 0.35740674433659275 -0.8628562094610172 -0.3574067443365933
    outer loop
      vertex 38.5 0.4393398282201786 0.4393398282201786
      vertex 39.56066017177982 0.4393398282201786 1.4999999999999998
      vertex 38.5 0 1.4999999999999998
    endloop
  endfacet
  facet normal 0.8628562094610175 -0.3574067443365924 -0.3574067443365924
    outer loop
      vertex 39.56066017177982 1.4999999999999998 0.4393398282201786
      vertex 40 1.4999999999999998 1.4999999999999998
      vertex 39.56066017177982 0.4393398282201786 1.4999999999999998
    endloop
  endfacet
  facet normal 0.3574067443365927 -0.35740674433659325 0.8628562094610169
    outer loop
      vertex 38.5 1.4999999999999998 3
      vertex 38.5 0.4393398282201786 2.5606601717798214
      vertex 39.56066017177982 1.4999999999999998 2.5606601717798214
    endloop
  endfacet
  facet normal 0.5773502691896252 -0.5773502691896261 0.5773502691896258
    outer loop
      vertex 38.5 0.4393398282201786 2.5606601717798214
      vertex 39.56066017177982 0.4393398282201786 1.4999999999999998
      vertex 39.56066017177982 1.4999999999999998 2.5606601717798214
    endloop
  endfacet
  facet normal 0.8628562094610176 -0.3574067443365924 0.35740674433659225
    outer loop
      vertex 39.56066017177982 1.4999999999999998 2.5606601717798214
      vertex 39.56066017177982 0.4393398282201786 1.4999999999999998
      vertex 40 1.4999999999999998 1.4999999999999998
    endloop
  endfacet
  facet normal 0.3574067443365928 -0.8628562094610172 0.35740674433659314
    outer loop
      vertex 38.5 0.4393398282201786 2.5606601717798214
      vertex 38.5 0 1.4999999999999998
      vertex 39.56066017177982 0.4393398282201786 1.4999999999999998
    endloop
  endfacet
  facet normal 0.3574067443365928 0.3574067443365928 -0.8628562094610172
    outer loop
      vertex 38.5 22.5 0
      vertex 38.5 23.560660171779823 0.4393398282201786
      vertex 39.56066017177982 22.5 0.4393398282201786
    endloop
  endfacet
  facet normal 0.5773502691896255 0.5773502691896255 -0.5773502691896263
    outer loop
      vertex 38.5 23.560660171779823 0.4393398282201786
      vertex 39.56066017177982 23.560660171779823 1.4999999999999998
      vertex 39.56066017177982 22.5 0.4393398282201786
    endloop
  endfacet
  facet normal 0.8628562094610177 0.3574067443365919 -0.3574067443365924
    outer loop
      vertex 39.56066017177982 22.5 0.4393398282201786
      vertex 39.56066017177982 23.560660171779823 1.4999999999999998
      vertex 40 22.5 1.4999999999999998
    endloop
  endfacet
  facet normal 0.3574067443365918 0.8628562094610177 -0.3574067443365923
    outer loop
      vertex 38.5 23.560660171779823 0.4393398282201786
      vertex 38.5 24 1.5000000000000002
      vertex 39.56066017177982 23.560660171779823 1.4999999999999998
    endloop
  endfacet
  facet normal 0.3574067443365928 0.3574067443365928 0.8628562094610172
    outer loop
      vertex 38.5 22.5 3
      vertex 39.56066017177982 22.5 2.5606601717798214
      vertex 38.5 23.560660171779823 2.5606601717798214
    endloop
  endfacet
  facet normal 0.5773502691896256 0.5773502691896256 0.5773502691896262
    outer loop
      vertex 39.56066017177982 22.5 2.5606601717798214
      vertex 39.56066017177982 23.560660171779823 1.4999999999999998
      vertex 38.5 23.560660171779823 2.5606601717798214
    endloop
  endfacet
  facet normal 0.35740674433659203 0.8628562094610177 0.3574067443365924
    outer loop
      vertex 38.5 23.560660171779823 2.5606601717798214
      vertex 39.56066017177982 23.560660171779823 1.4999999999999998
      vertex 38.5 24 1.5000000000000002
    endloop
  endfacet
  facet normal 0.8628562094610177 0.3574067443365919 0.3574067443365923
    outer loop
      vertex 39.56066017177982 22.5 2.5606601717798214
      vertex 40 22.5 1.4999999999999998
      vertex 39.56066017177982 23.560660171779823 1.4999999999999998
    endloop
  endfacet
endsolid OpenSCAD_Model
