solid OpenSCAD_Model
  facet normal 0 0 -1
    outer loop
      vertex 8 2.4999999999999996 0
      vertex 2.4999999999999996 2.4999999999999996 0
      vertex 2.4999999999999996 8 0
    endloop
  endfacet
  facet normal 0 0 -1
    outer loop
      vertex 8 2.4999999999999996 0
      vertex 2.4999999999999996 8 0
      vertex 2.4999999999999996 16 0
    endloop
  endfacet
  facet normal 0 0 -1
    outer loop
      vertex 8 2.4999999999999996 0
      vertex 2.4999999999999996 16 0
      vertex 2.4999999999999996 21.5 0
    endloop
  endfacet
  facet normal 0 0 -1
    outer loop
      vertex 8 2.4999999999999996 0
      vertex 2.4999999999999996 21.5 0
      vertex 8 21.5 0
    endloop
  endfacet
  facet normal 0 0 -1
    outer loop
      vertex 8 2.4999999999999996 0
      vertex 8 21.5 0
      vertex 16 21.5 0
    endloop
  endfacet
  facet normal 0 0 -1
    outer loop
      vertex 8 2.4999999999999996 0
      vertex 16 21.5 0
      vertex 24 21.5 0
    endloop
  endfacet
  facet normal 0 0 -1
    outer loop
      vertex 8 2.4999999999999996 0
      vertex 24 21.5 0
      vertex 32 21.5 0
    endloop
  endfacet
  facet normal 0 0 -1
    outer loop
      vertex 8 2.4999999999999996 0
      vertex 32 21.5 0
      vertex 37.5 21.5 0
    endloop
  endfacet
  facet normal 0 0 -1
    outer loop
      vertex 8 2.4999999999999996 0
      vertex 37.5 21.5 0
      vertex 37.5 16 0
    endloop
  endfacet
  facet normal 0 0 -1
    outer loop
      vertex 8 2.4999999999999996 0
      vertex 37.5 16 0
      vertex 37.5 8 0
    endloop
  endfacet
  facet normal 0 0 -1
    outer loop
      vertex 37.5 8 0
      vertex 37.5 2.4999999999999996 0
      vertex 32 2.4999999999999996 0
    endloop
  endfacet
  facet normal 0 0 -1
    outer loop
      vertex 37.5 8 0
      vertex 32 2.4999999999999996 0
      vertex 24 2.4999999999999996 0
    endloop
  endfacet
  facet normal 0 0 -1
    outer loop
      vertex 37.5 8 0
      vertex 24 2.4999999999999996 0
      vertex 16 2.4999999999999996 0
    endloop
  endfacet
  facet normal 0 0 -1
    outer loop
      vertex 37.5 8 0
      vertex 16 2.4999999999999996 0
      vertex 8 2.4999999999999996 0
    endloop
  endfacet
  facet normal 0 0 1
    outer loop
      vertex 10.5 8 3
      vertex 10.5 2.4999999999999996 3
      vertex 16 2.4999999999999996 3
    endloop
  endfacet
  facet normal 0 0 1
    outer loop
      vertex 10.5 8 3
      vertex 16 2.4999999999999996 3
      vertex 24 2.4999999999999996 3
    endloop
  endfacet
  facet normal 0 0 1
    outer loop
      vertex 10.5 8 3
      vertex 24 2.4999999999999996 3
      vertex 32 2.4999999999999996 3
    endloop
  endfacet
  facet normal 0 0 1
    outer loop
      vertex 10.5 8 3
      vertex 32 2.4999999999999996 3
      vertex 37.5 2.4999999999999996 3
    endloop
  endfacet
  facet normal 0 0 1
    outer loop
      vertex 10.5 8 3
      vertex 37.5 2.4999999999999996 3
      vertex 37.5 8 3
    endloop
  endfacet
  facet normal 0 0 1
    outer loop
      vertex 10.5 8 3
      vertex 37.5 8 3
      vertex 37.5 16 3
    endloop
  endfacet
  facet normal 0 0 1
    outer loop
      vertex 10.5 8 3
      vertex 37.5 16 3
      vertex 37.5 21.5 3
    endloop
  endfacet
  facet normal 0 0 1
    outer loop
      vertex 10.5 8 3
      vertex 37.5 21.5 3
      vertex 32 21.5 3
    endloop
  endfacet
  facet normal 0 0 1
    outer loop
      vertex 10.5 8 3
      vertex 32 21.5 3
      vertex 24 21.5 3
    endloop
  endfacet
  facet normal 0 0 1
    outer loop
      vertex 10.5 8 3
      vertex 24 21.5 3
      vertex 16 21.5 3
    endloop
  endfacet
  facet normal 0 0 1
    outer loop
      vertex 16 21.5 3
      vertex 10.5 21.5 3
      vertex 10.5 16 3
    endloop
  endfacet
  facet normal 0 0 1
    outer loop
      vertex 16 21.5 3
      vertex 10.5 16 3
      vertex 10.5 8 3
    endloop
  endfacet
  facet normal -1 0 0
    outer loop
      vertex 40 2.4999999999999996 2.4999999999999996
      vertex 40 8 2.4999999999999996
      vertex 40 2.4999999999999996 0.5000000000000004
    endloop
  endfacet
  facet normal -1 0 0
    outer loop
      vertex 40 8 2.4999999999999996
      vertex 40 16 2.4999999999999996
      vertex 40 2.4999999999999996 0.5000000000000004
    endloop
  endfacet
  facet normal -1 0 0
    outer loop
      vertex 40 16 2.4999999999999996
      vertex 40 21.5 2.4999999999999996
      vertex 40 2.4999999999999996 0.5000000000000004
    endloop
  endfacet
  facet normal -1 0 0
    outer loop
      vertex 40 21.5 0.5000000000000004
      vertex 40 16 0.5000000000000004
      vertex 40 21.5 2.4999999999999996
    endloop
  endfacet
  facet normal -1 0 0
    outer loop
      vertex 40 16 0.5000000000000004
      vertex 40 8 0.5000000000000004
      vertex 40 21.5 2.4999999999999996
    endloop
  endfacet
  facet normal -1 0 0
    outer loop
      vertex 40 8 0.5000000000000004
      vertex 40 2.4999999999999996 0.5000000000000004
      vertex 40 21.5 2.4999999999999996
    endloop
  endfacet
  facet normal -1 0 0
    outer loop
      vertex 0 8 2.4999999999999996
      vertex 0 2.4999999999999996 2.4999999999999996
      vertex 0 2.4999999999999996 8.666666666666666
    endloop
  endfacet
  facet normal -1 0 0
    outer loop
      vertex 0 8 2.4999999999999996
      vertex 0 2.4999999999999996 8.666666666666666
      vertex 0 2.4999999999999996 17.333333333333332
    endloop
  endfacet
  facet normal -1 0 0
    outer loop
      vertex 0 8 2.4999999999999996
      vertex 0 2.4999999999999996 17.333333333333332
      vertex 0 2.4999999999999996 23.5
    endloop
  endfacet
  facet normal -1 0 0
    outer loop
      vertex 0 8 2.4999999999999996
      vertex 0 2.4999999999999996 23.5
      vertex 0 8 23.5
    endloop
  endfacet
  facet normal -1 0 0
    outer loop
      vertex 0 8 2.4999999999999996
      vertex 0 8 23.5
      vertex 0 16 23.5
    endloop
  endfacet
  facet normal -1 0 0
    outer loop
      vertex 0 8 2.4999999999999996
      vertex 0 16 23.5
      vertex 0 21.5 23.5
    endloop
  endfacet
  facet normal -1 0 0
    outer loop
      vertex 0 8 2.4999999999999996
      vertex 0 21.5 23.5
      vertex 0 21.5 17.333333333333332
    endloop
  endfacet
  facet normal -1 0 0
    outer loop
      vertex 0 8 2.4999999999999996
      vertex 0 21.5 17.333333333333332
      vertex 0 21.5 8.666666666666666
    endloop
  endfacet
  facet normal -1 0 0
    outer loop
      vertex 0 21.5 8.666666666666666
      vertex 0 21.5 2.4999999999999996
      vertex 0 16 2.4999999999999996
    endloop
  endfacet
  facet normal -1 0 0
    outer loop
      vertex 0 21.5 8.666666666666666
      vertex 0 16 2.4999999999999996
      vertex 0 8 2.4999999999999996
    endloop
  endfacet
  facet normal 1 0 0
    outer loop
      vertex 8 2.4999999999999996 10.666666666666666
      vertex 8 2.4999999999999996 5.5
      vertex 8 8 5.5
    endloop
  endfacet
  facet normal 1 0 0
    outer loop
      vertex 8 2.4999999999999996 10.666666666666666
      vertex 8 8 5.5
      vertex 8 16 5.5
    endloop
  endfacet
  facet normal 1 0 0
    outer loop
      vertex 8 2.4999999999999996 10.666666666666666
      vertex 8 16 5.5
      vertex 8 21.5 5.5
    endloop
  endfacet
  facet normal 1 0 0
    outer loop
      vertex 8 2.4999999999999996 10.666666666666666
      vertex 8 21.5 5.5
      vertex 8 21.5 10.666666666666666
    endloop
  endfacet
  facet normal 1 0 0
    outer loop
      vertex 8 2.4999999999999996 10.666666666666666
      vertex 8 21.5 10.666666666666666
      vertex 8 21.5 18.333333333333332
    endloop
  endfacet
  facet normal 1 0 0
    outer loop
      vertex 8 2.4999999999999996 10.666666666666666
      vertex 8 21.5 18.333333333333332
      vertex 8 21.5 23.5
    endloop
  endfacet
  facet normal 1 0 0
    outer loop
      vertex 8 2.4999999999999996 10.666666666666666
      vertex 8 21.5 23.5
      vertex 8 16 23.5
    endloop
  endfacet
  facet normal 1 0 0
    outer loop
      vertex 8 2.4999999999999996 10.666666666666666
      vertex 8 16 23.5
      vertex 8 8 23.5
    endloop
  endfacet
  facet normal 1 0 0
    outer loop
      vertex 8 8 23.5
      vertex 8 2.4999999999999996 23.5
      vertex 8 2.4999999999999996 18.333333333333332
    endloop
  endfacet
  facet normal 1 0 0
    outer loop
      vertex 8 8 23.5
      vertex 8 2.4999999999999996 18.333333333333332
      vertex 8 2.4999999999999996 10.666666666666666
    endloop
  endfacet
  facet normal 0 0 1
    outer loop
      vertex 2.4999999999999996 8 26
      vertex 2.4999999999999996 2.4999999999999996 26
      vertex 5.5 2.4999999999999996 26
    endloop
  endfacet
  facet normal 0 0 1
    outer loop
      vertex 2.4999999999999996 8 26
      vertex 5.5 2.4999999999999996 26
      vertex 5.5 8 26
    endloop
  endfacet
  facet normal 0 0 1
    outer loop
      vertex 2.4999999999999996 8 26
      vertex 5.5 8 26
      vertex 5.5 16 26
    endloop
  endfacet
  facet normal 0 0 1
    outer loop
      vertex 2.4999999999999996 8 26
      vertex 5.5 16 26
      vertex 5.5 21.5 26
    endloop
  endfacet
  facet normal 0 0 1
    outer loop
      vertex 5.5 21.5 26
      vertex 2.4999999999999996 21.5 26
      vertex 2.4999999999999996 16 26
    endloop
  endfacet
  facet normal 0 0 1
    outer loop
      vertex 5.5 21.5 26
      vertex 2.4999999999999996 16 26
      vertex 2.4999999999999996 8 26
    endloop
  endfacet
  facet normal 0 1 0
    outer loop
      vertex 5.5 24 23.5
      vertex 5.5 24 18.333333333333332
      vertex 2.4999999999999996 24 23.5
    endloop
  endfacet
  facet normal 0 1 0
    outer loop
      vertex 5.5 24 18.333333333333332
      vertex 5.5 24 10.666666666666666
      vertex 2.4999999999999996 24 23.5
    endloop
  endfacet
  facet normal 0 1 0
    outer loop
      vertex 2.4999999999999996 24 23.5
      vertex 5.5 24 10.666666666666666
      vertex 5.5 24 5.5
    endloop
  endfacet
  facet normal 0 1 0
    outer loop
      vertex 5.5 24 5.5
      vertex 5.5 24 0.5000000000000004
      vertex 2.4999999999999996 24 23.5
    endloop
  endfacet
  facet normal 0 1 0
    outer loop
      vertex 2.4999999999999996 24 2.4999999999999996
      vertex 2.4999999999999996 24 8.666666666666666
      vertex 5.5 24 0.5000000000000004
    endloop
  endfacet
  facet normal 0 1 0
    outer loop
      vertex 2.4999999999999996 24 8.666666666666666
      vertex 2.4999999999999996 24 17.333333333333332
      vertex 5.5 24 0.5000000000000004
    endloop
  endfacet
  facet normal 0 1 0
    outer loop
      vertex 2.4999999999999996 24 17.333333333333332
      vertex 2.4999999999999996 24 23.5
      vertex 5.5 24 0.5000000000000004
    endloop
  endfacet
  facet normal 0 -1 0
    outer loop
      vertex 8 24 2.4999999999999996
      vertex 2.4999999999999996 24 2.4999999999999996
      vertex 5.5 24 0.5000000000000004
    endloop
  endfacet
  facet normal 0 -1 0
    outer loop
      vertex 8 24 2.4999999999999996
      vertex 5.5 24 0.5000000000000004
      vertex 10.5 24 0.5000000000000004
    endloop
  endfacet
  facet normal 0 -1 0
    outer loop
      vertex 10.5 24 0.5000000000000004
      vertex 16 24 0.5000000000000004
      vertex 8 24 2.4999999999999996
    endloop
  endfacet
  facet normal 0 -1 0
    outer loop
      vertex 16 24 0.5000000000000004
      vertex 24 24 0.5000000000000004
      vertex 8 24 2.4999999999999996
    endloop
  endfacet
  facet normal 0 -1 0
    outer loop
      vertex 24 24 0.5000000000000004
      vertex 32 24 0.5000000000000004
      vertex 8 24 2.4999999999999996
    endloop
  endfacet
  facet normal 0 -1 0
    outer loop
      vertex 32 24 0.5000000000000004
      vertex 37.5 24 0.5000000000000004
      vertex 8 24 2.4999999999999996
    endloop
  endfacet
  facet normal 0 -1 0
    outer loop
      vertex 37.5 24 2.4999999999999996
      vertex 32 24 2.4999999999999996
      vertex 37.5 24 0.5000000000000004
    endloop
  endfacet
  facet normal 0 -1 0
    outer loop
      vertex 32 24 2.4999999999999996
      vertex 24 24 2.4999999999999996
      vertex 37.5 24 0.5000000000000004
    endloop
  endfacet
  facet normal 0 -1 0
    outer loop
      vertex 24 24 2.4999999999999996
      vertex 16 24 2.4999999999999996
      vertex 37.5 24 0.5000000000000004
    endloop
  endfacet
  facet normal 0 -1 0
    outer loop
      vertex 16 24 2.4999999999999996
      vertex 8 24 2.4999999999999996
      vertex 37.5 24 0.5000000000000004
    endloop
  endfacet
  facet normal 0 -1 0
    outer loop
      vertex 2.4999999999999996 0 23.5
      vertex 5.5 0 0.5000000000000004
      vertex 5.5 0 5.5
    endloop
  endfacet
  facet normal 0 -1 0
    outer loop
      vertex 5.5 0 5.5
      vertex 5.5 0 10.666666666666666
      vertex 2.4999999999999996 0 23.5
    endloop
  endfacet
  facet normal 0 -1 0
    outer loop
      vertex 5.5 0 10.666666666666666
      vertex 5.5 0 18.333333333333332
      vertex 2.4999999999999996 0 23.5
    endloop
  endfacet
  facet normal 0 -1 0
    outer loop
      vertex 5.5 0 18.333333333333332
      vertex 5.5 0 23.5
      vertex 2.4999999999999996 0 23.5
    endloop
  endfacet
  facet normal 0 -1 0
    outer loop
      vertex 2.4999999999999996 0 23.5
      vertex 2.4999999999999996 0 17.333333333333332
      vertex 5.5 0 0.5000000000000004
    endloop
  endfacet
  facet normal 0 -1 0
    outer loop
      vertex 2.4999999999999996 0 17.333333333333332
      vertex 2.4999999999999996 0 8.666666666666666
      vertex 5.5 0 0.5000000000000004
    endloop
  endfacet
  facet normal 0 -1 0
    outer loop
      vertex 2.4999999999999996 0 8.666666666666666
      vertex 2.4999999999999996 0 2.4999999999999996
      vertex 5.5 0 0.5000000000000004
    endloop
  endfacet
  facet normal 0 1 0
    outer loop
      vertex 5.5 0 0.5000000000000004
      vertex 2.4999999999999996 0 2.4999999999999996
      vertex 8 0 2.4999999999999996
    endloop
  endfacet
  facet normal 0 1 0
    outer loop
      vertex 8 0 2.4999999999999996
      vertex 16 0 2.4999999999999996
      vertex 5.5 0 0.5000000000000004
    endloop
  endfacet
  facet normal 0 1 0
    outer loop
      vertex 16 0 2.4999999999999996
      vertex 24 0 2.4999999999999996
      vertex 5.5 0 0.5000000000000004
    endloop
  endfacet
  facet normal 0 1 0
    outer loop
      vertex 24 0 2.4999999999999996
      vertex 32 0 2.4999999999999996
      vertex 5.5 0 0.5000000000000004
    endloop
  endfacet
  facet normal 0 1 0
    outer loop
      vertex 32 0 2.4999999999999996
      vertex 37.5 0 2.4999999999999996
      vertex 5.5 0 0.5000000000000004
    endloop
  endfacet
  facet normal 0 1 0
    outer loop
      vertex 37.5 0 0.5000000000000004
      vertex 32 0 0.5000000000000004
      vertex 37.5 0 2.4999999999999996
    endloop
  endfacet
  facet normal 0 1 0
    outer loop
      vertex 32 0 0.5000000000000004
      vertex 24 0 0.5000000000000004
      vertex 37.5 0 2.4999999999999996
    endloop
  endfacet
  facet normal 0 1 0
    outer loop
      vertex 24 0 0.5000000000000004
      vertex 16 0 0.5000000000000004
      vertex 37.5 0 2.4999999999999996
    endloop
  endfacet
  facet normal 0 1 0
    outer loop
      vertex 37.5 0 2.4999999999999996
      vertex 16 0 0.5000000000000004
      vertex 10.5 0 0.5000000000000004
    endloop
  endfacet
  facet normal 0 1 0
    outer loop
      vertex 10.5 0 0.5000000000000004
      vertex 5.5 0 0.5000000000000004
      vertex 37.5 0 2.4999999999999996
    endloop
  endfacet
  facet normal 0 -0.38268343236508984 -0.9238795325112867
    outer loop
      vertex 2.4999999999999996 2.4999999999999996 0
      vertex 8 2.4999999999999996 0
      vertex 8 0.7322330470336313 0.7322330470336311
    endloop
  endfacet
  facet normal 4.998944294084415e-18 -0.38268343236508984 -0.9238795325112867
    outer loop
      vertex 2.4999999999999996 2.4999999999999996 0
      vertex 8 0.7322330470336313 0.7322330470336311
      vertex 2.4999999999999996 0.7322330470336313 0.7322330470336311
    endloop
  endfacet
  facet normal 0 -0.9238795325112867 -0.3826834323650899
    outer loop
      vertex 2.4999999999999996 0.7322330470336313 0.7322330470336311
      vertex 8 0.7322330470336313 0.7322330470336311
      vertex 8 0 2.4999999999999996
    endloop
  endfacet
  facet normal -5.550701427575673e-18 -0.9238795325112867 -0.3826834323650899
    outer loop
      vertex 2.4999999999999996 0.7322330470336313 0.7322330470336311
      vertex 8 0 2.4999999999999996
      vertex 2.4999999999999996 0 2.4999999999999996
    endloop
  endfacet
  facet normal -0.9238795325112867 -0.38268343236508984 0
    outer loop
      vertex 0 2.4999999999999996 2.4999999999999996
      vertex 0.7322330470336311 0.7322330470336313 8.666666666666666
      vertex 0 2.4999999999999996 8.666666666666666
    endloop
  endfacet
  facet normal -0.9238795325112867 -0.38268343236508984 4.458517883913127e-18
    outer loop
      vertex 0 2.4999999999999996 2.4999999999999996
      vertex 0.7322330470336311 0.7322330470336313 2.4999999999999996
      vertex 0.7322330470336311 0.7322330470336313 8.666666666666666
    endloop
  endfacet
  facet normal -0.38268343236508995 -0.9238795325112867 0
    outer loop
      vertex 0.7322330470336311 0.7322330470336313 2.4999999999999996
      vertex 2.4999999999999996 0 8.666666666666666
      vertex 0.7322330470336311 0.7322330470336313 8.666666666666666
    endloop
  endfacet
  facet normal -0.38268343236508995 -0.9238795325112867 -4.950625597567492e-18
    outer loop
      vertex 0.7322330470336311 0.7322330470336313 2.4999999999999996
      vertex 2.4999999999999996 0 2.4999999999999996
      vertex 2.4999999999999996 0 8.666666666666666
    endloop
  endfacet
  facet normal -0.38268343236508984 0 -0.9238795325112867
    outer loop
      vertex 2.4999999999999996 2.4999999999999996 0
      vertex 0.7322330470336313 8 0.7322330470336311
      vertex 2.4999999999999996 8 0
    endloop
  endfacet
  facet normal -0.38268343236508984 4.998944294084415e-18 -0.9238795325112867
    outer loop
      vertex 2.4999999999999996 2.4999999999999996 0
      vertex 0.7322330470336313 2.4999999999999996 0.7322330470336311
      vertex 0.7322330470336313 8 0.7322330470336311
    endloop
  endfacet
  facet normal -0.9238795325112867 0 -0.3826834323650899
    outer loop
      vertex 0.7322330470336313 2.4999999999999996 0.7322330470336311
      vertex 0 8 2.4999999999999996
      vertex 0.7322330470336313 8 0.7322330470336311
    endloop
  endfacet
  facet normal -0.9238795325112867 -5.550701427575673e-18 -0.3826834323650899
    outer loop
      vertex 0.7322330470336313 2.4999999999999996 0.7322330470336311
      vertex 0 2.4999999999999996 2.4999999999999996
      vertex 0 8 2.4999999999999996
    endloop
  endfacet
  facet normal 0 -0.38268343236508984 -0.9238795325112867
    outer loop
      vertex 8 2.4999999999999996 0
      vertex 16 2.4999999999999996 0
      vertex 16 0.7322330470336313 0.7322330470336311
    endloop
  endfacet
  facet normal 3.4367742021830348e-18 -0.38268343236508984 -0.9238795325112867
    outer loop
      vertex 8 2.4999999999999996 0
      vertex 16 0.7322330470336313 0.7322330470336311
      vertex 8 0.7322330470336313 0.7322330470336311
    endloop
  endfacet
  facet normal 0 -0.9238795325112867 -0.38268343236508995
    outer loop
      vertex 8 0.7322330470336313 0.7322330470336311
      vertex 16 0.7322330470336313 0.7322330470336311
      vertex 16 0 2.4999999999999996
    endloop
  endfacet
  facet normal -3.816107231458275e-18 -0.9238795325112867 -0.38268343236508995
    outer loop
      vertex 8 0.7322330470336313 0.7322330470336311
      vertex 16 0 2.4999999999999996
      vertex 8 0 2.4999999999999996
    endloop
  endfacet
  facet normal 0.9238795325112867 -0.38268343236508984 0
    outer loop
      vertex 8 2.4999999999999996 5.5
      vertex 8 2.4999999999999996 10.666666666666666
      vertex 7.267766952966369 0.7322330470336311 10.666666666666666
    endloop
  endfacet
  facet normal 0.9238795325112867 -0.38268343236508984 1.1124889922592976e-17
    outer loop
      vertex 8 2.4999999999999996 5.5
      vertex 7.267766952966369 0.7322330470336311 10.666666666666666
      vertex 7.267766952966369 0.7322330470336311 5.5
    endloop
  endfacet
  facet normal 0.3826834323650897 -0.9238795325112868 0
    outer loop
      vertex 7.267766952966369 0.7322330470336311 5.5
      vertex 7.267766952966369 0.7322330470336311 10.666666666666666
      vertex 5.5 0 10.666666666666666
    endloop
  endfacet
  facet normal 0.3826834323650897 -0.9238795325112868 -9.034886789811227e-19
    outer loop
      vertex 7.267766952966369 0.7322330470336311 5.5
      vertex 5.5 0 10.666666666666666
      vertex 5.5 0 5.5
    endloop
  endfacet
  facet normal 0.3826834323650897 0 0.9238795325112867
    outer loop
      vertex 10.5 2.4999999999999996 3
      vertex 10.5 8 3
      vertex 8.732233047033631 8 3.732233047033631
    endloop
  endfacet
  facet normal 0.3826834323650897 8.4873178934590305e-19 0.9238795325112867
    outer loop
      vertex 10.5 2.4999999999999996 3
      vertex 8.732233047033631 8 3.732233047033631
      vertex 8.732233047033631 2.4999999999999996 3.732233047033631
    endloop
  endfacet
  facet normal 0.9238795325112867 0 0.3826834323650897
    outer loop
      vertex 8.732233047033631 2.4999999999999996 3.732233047033631
      vertex 8.732233047033631 8 3.732233047033631
      vertex 8 8 5.5
    endloop
  endfacet
  facet normal 0.9238795325112867 8.4873178934590305e-19 0.3826834323650897
    outer loop
      vertex 8.732233047033631 2.4999999999999996 3.732233047033631
      vertex 8 8 5.5
      vertex 8 2.4999999999999996 5.5
    endloop
  endfacet
  facet normal 0 -0.3826834323650898 0.9238795325112867
    outer loop
      vertex 10.5 2.4999999999999996 3
      vertex 16 0.7322330470336311 2.267766952966369
      vertex 16 2.4999999999999996 3
    endloop
  endfacet
  facet normal 1.0450654169708551e-17 -0.3826834323650898 0.9238795325112867
    outer loop
      vertex 10.5 2.4999999999999996 3
      vertex 10.5 0.7322330470336311 2.267766952966369
      vertex 16 0.7322330470336311 2.267766952966369
    endloop
  endfacet
  facet normal 0 -0.9238795325112867 0.3826834323650898
    outer loop
      vertex 10.5 0.7322330470336311 2.267766952966369
      vertex 16 0 0.5000000000000004
      vertex 16 0.7322330470336311 2.267766952966369
    endloop
  endfacet
  facet normal 1.0450654169708551e-17 -0.9238795325112867 0.3826834323650898
    outer loop
      vertex 10.5 0.7322330470336311 2.267766952966369
      vertex 10.5 0 0.5000000000000004
      vertex 16 0 0.5000000000000004
    endloop
  endfacet
  facet normal 0 -0.38268343236508984 0.9238795325112867
    outer loop
      vertex 2.4999999999999996 2.4999999999999996 26
      vertex 5.5 0.7322330470336311 25.26776695296637
      vertex 5.5 2.4999999999999996 26
    endloop
  endfacet
  facet normal 1.9159532644465676e-17 -0.38268343236508984 0.9238795325112867
    outer loop
      vertex 2.4999999999999996 2.4999999999999996 26
      vertex 2.4999999999999996 0.7322330470336311 25.26776695296637
      vertex 5.5 0.7322330470336311 25.26776695296637
    endloop
  endfacet
  facet normal 0 -0.9238795325112867 0.3826834323650897
    outer loop
      vertex 2.4999999999999996 0.7322330470336311 25.26776695296637
      vertex 5.5 0 23.5
      vertex 5.5 0.7322330470336311 25.26776695296637
    endloop
  endfacet
  facet normal -1.5560082804674886e-18 -0.9238795325112867 0.3826834323650897
    outer loop
      vertex 2.4999999999999996 0.7322330470336311 25.26776695296637
      vertex 2.4999999999999996 0 23.5
      vertex 5.5 0 23.5
    endloop
  endfacet
  facet normal -0.9238795325112867 -0.3826834323650899 0
    outer loop
      vertex 0 2.4999999999999996 23.5
      vertex 0 2.4999999999999996 17.333333333333332
      vertex 0.7322330470336311 0.7322330470336313 17.333333333333332
    endloop
  endfacet
  facet normal -0.9238795325112867 -0.3826834323650899 4.458517883913125e-18
    outer loop
      vertex 0 2.4999999999999996 23.5
      vertex 0.7322330470336311 0.7322330470336313 17.333333333333332
      vertex 0.7322330470336311 0.7322330470336313 23.5
    endloop
  endfacet
  facet normal -0.3826834323650899 -0.9238795325112867 0
    outer loop
      vertex 0.7322330470336311 0.7322330470336313 23.5
      vertex 0.7322330470336311 0.7322330470336313 17.333333333333332
      vertex 2.4999999999999996 0 17.333333333333332
    endloop
  endfacet
  facet normal -0.3826834323650899 -0.9238795325112867 -4.95062559756749e-18
    outer loop
      vertex 0.7322330470336311 0.7322330470336313 23.5
      vertex 2.4999999999999996 0 17.333333333333332
      vertex 2.4999999999999996 0 23.5
    endloop
  endfacet
  facet normal -0.923879532511287 0 0.38268343236508956
    outer loop
      vertex 0 2.4999999999999996 23.5
      vertex 0.7322330470336307 8 25.26776695296637
      vertex 0 8 23.5
    endloop
  endfacet
  facet normal -0.923879532511287 8.951173694919834e-18 0.38268343236508956
    outer loop
      vertex 0 2.4999999999999996 23.5
      vertex 0.7322330470336307 2.4999999999999996 25.26776695296637
      vertex 0.7322330470336307 8 25.26776695296637
    endloop
  endfacet
  facet normal -0.3826834323650897 0 0.9238795325112867
    outer loop
      vertex 0.7322330470336307 2.4999999999999996 25.26776695296637
      vertex 2.4999999999999996 8 26
      vertex 0.7322330470336307 8 25.26776695296637
    endloop
  endfacet
  facet normal -0.3826834323650897 -8.4873178934590305e-19 0.9238795325112867
    outer loop
      vertex 0.7322330470336307 2.4999999999999996 25.26776695296637
      vertex 2.4999999999999996 2.4999999999999996 26
      vertex 2.4999999999999996 8 26
    endloop
  endfacet
  facet normal 0.9238795325112866 -0.3826834323650897 0
    outer loop
      vertex 8 2.4999999999999996 23.5
      vertex 7.267766952966369 0.7322330470336311 18.333333333333332
      vertex 8 2.4999999999999996 18.333333333333332
    endloop
  endfacet
  facet normal 0.9238795325112866 -0.3826834323650897 1.112488992259297e-17
    outer loop
      vertex 8 2.4999999999999996 23.5
      vertex 7.267766952966369 0.7322330470336311 23.5
      vertex 7.267766952966369 0.7322330470336311 18.333333333333332
    endloop
  endfacet
  facet normal 0.3826834323650897 -0.9238795325112868 0
    outer loop
      vertex 7.267766952966369 0.7322330470336311 23.5
      vertex 5.5 0 18.333333333333332
      vertex 7.267766952966369 0.7322330470336311 18.333333333333332
    endloop
  endfacet
  facet normal 0.3826834323650897 -0.9238795325112868 -9.034886789811226e-19
    outer loop
      vertex 7.267766952966369 0.7322330470336311 23.5
      vertex 5.5 0 23.5
      vertex 5.5 0 18.333333333333332
    endloop
  endfacet
  facet normal 0.9238795325112867 0 0.3826834323650897
    outer loop
      vertex 8 2.4999999999999996 23.5
      vertex 8 8 23.5
      vertex 7.267766952966369 8 25.26776695296637
    endloop
  endfacet
  facet normal 0.9238795325112867 8.4873178934590305e-19 0.3826834323650897
    outer loop
      vertex 8 2.4999999999999996 23.5
      vertex 7.267766952966369 8 25.26776695296637
      vertex 7.267766952966369 2.4999999999999996 25.26776695296637
    endloop
  endfacet
  facet normal 0.3826834323650897 0 0.9238795325112867
    outer loop
      vertex 7.267766952966369 2.4999999999999996 25.26776695296637
      vertex 7.267766952966369 8 25.26776695296637
      vertex 5.5 8 26
    endloop
  endfacet
  facet normal 0.3826834323650897 8.4873178934590305e-19 0.9238795325112867
    outer loop
      vertex 7.267766952966369 2.4999999999999996 25.26776695296637
      vertex 5.5 8 26
      vertex 5.5 2.4999999999999996 26
    endloop
  endfacet
  facet normal 0 0.38268343236508956 -0.923879532511287
    outer loop
      vertex 2.4999999999999996 21.5 0
      vertex 8 23.26776695296637 0.7322330470336307
      vertex 8 21.5 0
    endloop
  endfacet
  facet normal 8.951173694919834e-18 0.38268343236508956 -0.923879532511287
    outer loop
      vertex 2.4999999999999996 21.5 0
      vertex 2.4999999999999996 23.26776695296637 0.7322330470336307
      vertex 8 23.26776695296637 0.7322330470336307
    endloop
  endfacet
  facet normal 0 0.9238795325112867 -0.3826834323650897
    outer loop
      vertex 2.4999999999999996 23.26776695296637 0.7322330470336307
      vertex 8 24 2.4999999999999996
      vertex 8 23.26776695296637 0.7322330470336307
    endloop
  endfacet
  facet normal -8.4873178934590305e-19 0.9238795325112867 -0.3826834323650897
    outer loop
      vertex 2.4999999999999996 23.26776695296637 0.7322330470336307
      vertex 2.4999999999999996 24 2.4999999999999996
      vertex 8 24 2.4999999999999996
    endloop
  endfacet
  facet normal -0.38268343236508984 0 -0.9238795325112867
    outer loop
      vertex 2.4999999999999996 21.5 0
      vertex 2.4999999999999996 16 0
      vertex 0.7322330470336313 16 0.7322330470336311
    endloop
  endfacet
  facet normal -0.38268343236508984 4.998944294084415e-18 -0.9238795325112867
    outer loop
      vertex 2.4999999999999996 21.5 0
      vertex 0.7322330470336313 16 0.7322330470336311
      vertex 0.7322330470336313 21.5 0.7322330470336311
    endloop
  endfacet
  facet normal -0.9238795325112867 0 -0.3826834323650899
    outer loop
      vertex 0.7322330470336313 21.5 0.7322330470336311
      vertex 0.7322330470336313 16 0.7322330470336311
      vertex 0 16 2.4999999999999996
    endloop
  endfacet
  facet normal -0.9238795325112867 -5.550701427575673e-18 -0.3826834323650899
    outer loop
      vertex 0.7322330470336313 21.5 0.7322330470336311
      vertex 0 16 2.4999999999999996
      vertex 0 21.5 2.4999999999999996
    endloop
  endfacet
  facet normal -0.9238795325112868 0.38268343236508956 0
    outer loop
      vertex 0 21.5 2.4999999999999996
      vertex 0 21.5 8.666666666666666
      vertex 0.7322330470336307 23.26776695296637 8.666666666666666
    endloop
  endfacet
  facet normal -0.9238795325112868 0.38268343236508956 7.983479241414987e-18
    outer loop
      vertex 0 21.5 2.4999999999999996
      vertex 0.7322330470336307 23.26776695296637 8.666666666666666
      vertex 0.7322330470336307 23.26776695296637 2.4999999999999996
    endloop
  endfacet
  facet normal -0.3826834323650897 0.9238795325112867 0
    outer loop
      vertex 0.7322330470336307 23.26776695296637 2.4999999999999996
      vertex 0.7322330470336307 23.26776695296637 8.666666666666666
      vertex 2.4999999999999996 24 8.666666666666666
    endloop
  endfacet
  facet normal -0.3826834323650897 0.9238795325112867 -7.569770013085083e-19
    outer loop
      vertex 0.7322330470336307 23.26776695296637 2.4999999999999996
      vertex 2.4999999999999996 24 8.666666666666666
      vertex 2.4999999999999996 24 2.4999999999999996
    endloop
  endfacet
  facet normal 0 0.3826834323650895 -0.9238795325112868
    outer loop
      vertex 8 21.5 0
      vertex 16 23.26776695296637 0.7322330470336307
      vertex 16 21.5 0
    endloop
  endfacet
  facet normal 6.153931915257385e-18 0.3826834323650895 -0.9238795325112868
    outer loop
      vertex 8 21.5 0
      vertex 8 23.26776695296637 0.7322330470336307
      vertex 16 23.26776695296637 0.7322330470336307
    endloop
  endfacet
  facet normal 0 0.9238795325112867 -0.3826834323650897
    outer loop
      vertex 8 23.26776695296637 0.7322330470336307
      vertex 16 24 2.4999999999999996
      vertex 16 23.26776695296637 0.7322330470336307
    endloop
  endfacet
  facet normal -5.835031051753083e-19 0.9238795325112867 -0.3826834323650897
    outer loop
      vertex 8 23.26776695296637 0.7322330470336307
      vertex 8 24 2.4999999999999996
      vertex 16 24 2.4999999999999996
    endloop
  endfacet
  facet normal 0.3826834323650897 0 0.9238795325112867
    outer loop
      vertex 10.5 21.5 3
      vertex 8.732233047033631 16 3.732233047033631
      vertex 10.5 16 3
    endloop
  endfacet
  facet normal 0.3826834323650897 8.4873178934590305e-19 0.9238795325112867
    outer loop
      vertex 10.5 21.5 3
      vertex 8.732233047033631 21.5 3.732233047033631
      vertex 8.732233047033631 16 3.732233047033631
    endloop
  endfacet
  facet normal 0.9238795325112867 0 0.3826834323650897
    outer loop
      vertex 8.732233047033631 21.5 3.732233047033631
      vertex 8 16 5.5
      vertex 8.732233047033631 16 3.732233047033631
    endloop
  endfacet
  facet normal 0.9238795325112867 8.4873178934590305e-19 0.3826834323650897
    outer loop
      vertex 8.732233047033631 21.5 3.732233047033631
      vertex 8 21.5 5.5
      vertex 8 16 5.5
    endloop
  endfacet
  facet normal 0.9238795325112868 0.3826834323650897 0
    outer loop
      vertex 8 21.5 5.5
      vertex 7.267766952966369 23.26776695296637 10.666666666666666
      vertex 8 21.5 10.666666666666666
    endloop
  endfacet
  facet normal 0.9238795325112868 0.3826834323650897 9.034886789811227e-19
    outer loop
      vertex 8 21.5 5.5
      vertex 7.267766952966369 23.26776695296637 5.5
      vertex 7.267766952966369 23.26776695296637 10.666666666666666
    endloop
  endfacet
  facet normal 0.3826834323650897 0.9238795325112868 0
    outer loop
      vertex 7.267766952966369 23.26776695296637 5.5
      vertex 5.5 24 10.666666666666666
      vertex 7.267766952966369 23.26776695296637 10.666666666666666
    endloop
  endfacet
  facet normal 0.3826834323650897 0.9238795325112868 9.034886789811227e-19
    outer loop
      vertex 7.267766952966369 23.26776695296637 5.5
      vertex 5.5 24 5.5
      vertex 5.5 24 10.666666666666666
    endloop
  endfacet
  facet normal 0 0.3826834323650897 0.9238795325112867
    outer loop
      vertex 10.5 21.5 3
      vertex 16 21.5 3
      vertex 16 23.26776695296637 2.267766952966369
    endloop
  endfacet
  facet normal 8.4873178934590305e-19 0.3826834323650897 0.9238795325112867
    outer loop
      vertex 10.5 21.5 3
      vertex 16 23.26776695296637 2.267766952966369
      vertex 10.5 23.26776695296637 2.267766952966369
    endloop
  endfacet
  facet normal 0 0.9238795325112867 0.3826834323650898
    outer loop
      vertex 10.5 23.26776695296637 2.267766952966369
      vertex 16 23.26776695296637 2.267766952966369
      vertex 16 24 0.5000000000000004
    endloop
  endfacet
  facet normal -1.0450654169708551e-17 0.9238795325112867 0.3826834323650898
    outer loop
      vertex 10.5 23.26776695296637 2.267766952966369
      vertex 16 24 0.5000000000000004
      vertex 10.5 24 0.5000000000000004
    endloop
  endfacet
  facet normal 0 0.3826834323650897 0.9238795325112867
    outer loop
      vertex 2.4999999999999996 21.5 26
      vertex 5.5 21.5 26
      vertex 5.5 23.26776695296637 25.26776695296637
    endloop
  endfacet
  facet normal 1.5560082804674886e-18 0.3826834323650897 0.9238795325112867
    outer loop
      vertex 2.4999999999999996 21.5 26
      vertex 5.5 23.26776695296637 25.26776695296637
      vertex 2.4999999999999996 23.26776695296637 25.26776695296637
    endloop
  endfacet
  facet normal 0 0.9238795325112867 0.3826834323650897
    outer loop
      vertex 2.4999999999999996 23.26776695296637 25.26776695296637
      vertex 5.5 23.26776695296637 25.26776695296637
      vertex 5.5 24 23.5
    endloop
  endfacet
  facet normal 1.5560082804674886e-18 0.9238795325112867 0.3826834323650897
    outer loop
      vertex 2.4999999999999996 23.26776695296637 25.26776695296637
      vertex 5.5 24 23.5
      vertex 2.4999999999999996 24 23.5
    endloop
  endfacet
  facet normal -0.923879532511287 0 0.38268343236508956
    outer loop
      vertex 0 21.5 23.5
      vertex 0 16 23.5
      vertex 0.7322330470336307 16 25.26776695296637
    endloop
  endfacet
  facet normal -0.923879532511287 8.951173694919834e-18 0.38268343236508956
    outer loop
      vertex 0 21.5 23.5
      vertex 0.7322330470336307 16 25.26776695296637
      vertex 0.7322330470336307 21.5 25.26776695296637
    endloop
  endfacet
  facet normal -0.3826834323650897 0 0.9238795325112867
    outer loop
      vertex 0.7322330470336307 21.5 25.26776695296637
      vertex 0.7322330470336307 16 25.26776695296637
      vertex 2.4999999999999996 16 26
    endloop
  endfacet
  facet normal -0.3826834323650897 -8.4873178934590305e-19 0.9238795325112867
    outer loop
      vertex 0.7322330470336307 21.5 25.26776695296637
      vertex 2.4999999999999996 16 26
      vertex 2.4999999999999996 21.5 26
    endloop
  endfacet
  facet normal -0.9238795325112868 0.38268343236508956 0
    outer loop
      vertex 0 21.5 23.5
      vertex 0.7322330470336307 23.26776695296637 17.333333333333332
      vertex 0 21.5 17.333333333333332
    endloop
  endfacet
  facet normal -0.9238795325112868 0.38268343236508956 7.983479241414986e-18
    outer loop
      vertex 0 21.5 23.5
      vertex 0.7322330470336307 23.26776695296637 23.5
      vertex 0.7322330470336307 23.26776695296637 17.333333333333332
    endloop
  endfacet
  facet normal -0.3826834323650898 0.9238795325112867 0
    outer loop
      vertex 0.7322330470336307 23.26776695296637 23.5
      vertex 2.4999999999999996 24 17.333333333333332
      vertex 0.7322330470336307 23.26776695296637 17.333333333333332
    endloop
  endfacet
  facet normal -0.3826834323650898 0.9238795325112867 -7.56977001308508e-19
    outer loop
      vertex 0.7322330470336307 23.26776695296637 23.5
      vertex 2.4999999999999996 24 23.5
      vertex 2.4999999999999996 24 17.333333333333332
    endloop
  endfacet
  facet normal 0.9238795325112867 0 0.3826834323650897
    outer loop
      vertex 8 21.5 23.5
      vertex 7.267766952966369 16 25.26776695296637
      vertex 8 16 23.5
    endloop
  endfacet
  facet normal 0.9238795325112867 8.4873178934590305e-19 0.3826834323650897
    outer loop
      vertex 8 21.5 23.5
      vertex 7.267766952966369 21.5 25.26776695296637
      vertex 7.267766952966369 16 25.26776695296637
    endloop
  endfacet
  facet normal 0.3826834323650897 0 0.9238795325112867
    outer loop
      vertex 7.267766952966369 21.5 25.26776695296637
      vertex 5.5 16 26
      vertex 7.267766952966369 16 25.26776695296637
    endloop
  endfacet
  facet normal 0.3826834323650897 8.4873178934590305e-19 0.9238795325112867
    outer loop
      vertex 7.267766952966369 21.5 25.26776695296637
      vertex 5.5 21.5 26
      vertex 5.5 16 26
    endloop
  endfacet
  facet normal 0.9238795325112868 0.3826834323650897 0
    outer loop
      vertex 8 21.5 23.5
      vertex 8 21.5 18.333333333333332
      vertex 7.267766952966369 23.26776695296637 18.333333333333332
    endloop
  endfacet
  facet normal 0.9238795325112868 0.3826834323650897 9.034886789811226e-19
    outer loop
      vertex 8 21.5 23.5
      vertex 7.267766952966369 23.26776695296637 18.333333333333332
      vertex 7.267766952966369 23.26776695296637 23.5
    endloop
  endfacet
  facet normal 0.3826834323650897 0.9238795325112868 0
    outer loop
      vertex 7.267766952966369 23.26776695296637 23.5
      vertex 7.267766952966369 23.26776695296637 18.333333333333332
      vertex 5.5 24 18.333333333333332
    endloop
  endfacet
  facet normal 0.3826834323650897 0.9238795325112868 9.034886789811226e-19
    outer loop
      vertex 7.267766952966369 23.26776695296637 23.5
      vertex 5.5 24 18.333333333333332
      vertex 5.5 24 23.5
    endloop
  endfacet
  facet normal -0.9238795325112867 0.3826834323650898 0
    outer loop
      vertex 40 2.4999999999999996 2.4999999999999996
      vertex 40 2.4999999999999996 0.5000000000000004
      vertex 39.26776695296637 0.7322330470336311 0.5000000000000004
    endloop
  endfacet
  facet normal -0.9238795325112867 0.3826834323650898 2.873929896669853e-17
    outer loop
      vertex 40 2.4999999999999996 2.4999999999999996
      vertex 39.26776695296637 0.7322330470336311 0.5000000000000004
      vertex 39.26776695296637 0.7322330470336311 2.4999999999999996
    endloop
  endfacet
  facet normal -0.3826834323650898 0.9238795325112868 0
    outer loop
      vertex 39.26776695296637 0.7322330470336311 2.4999999999999996
      vertex 39.26776695296637 0.7322330470336311 0.5000000000000004
      vertex 37.5 0 0.5000000000000004
    endloop
  endfacet
  facet normal -0.3826834323650898 0.9238795325112868 -2.334012420701235e-18
    outer loop
      vertex 39.26776695296637 0.7322330470336311 2.4999999999999996
      vertex 37.5 0 0.5000000000000004
      vertex 37.5 0 2.4999999999999996
    endloop
  endfacet
  facet normal 0 -0.38268343236508984 -0.9238795325112867
    outer loop
      vertex 37.5 2.4999999999999996 0
      vertex 32 0.7322330470336313 0.7322330470336311
      vertex 32 2.4999999999999996 0
    endloop
  endfacet
  facet normal 4.998944294084415e-18 -0.38268343236508984 -0.9238795325112867
    outer loop
      vertex 37.5 2.4999999999999996 0
      vertex 37.5 0.7322330470336313 0.7322330470336311
      vertex 32 0.7322330470336313 0.7322330470336311
    endloop
  endfacet
  facet normal 0 -0.9238795325112867 -0.3826834323650899
    outer loop
      vertex 37.5 0.7322330470336313 0.7322330470336311
      vertex 32 0 2.4999999999999996
      vertex 32 0.7322330470336313 0.7322330470336311
    endloop
  endfacet
  facet normal -5.550701427575673e-18 -0.9238795325112867 -0.3826834323650899
    outer loop
      vertex 37.5 0.7322330470336313 0.7322330470336311
      vertex 37.5 0 2.4999999999999996
      vertex 32 0 2.4999999999999996
    endloop
  endfacet
  facet normal 0.38268343236508956 0 -0.923879532511287
    outer loop
      vertex 37.5 2.4999999999999996 0
      vertex 37.5 8 0
      vertex 39.26776695296637 8 0.7322330470336307
    endloop
  endfacet
  facet normal 0.38268343236508956 8.951173694919834e-18 -0.923879532511287
    outer loop
      vertex 37.5 2.4999999999999996 0
      vertex 39.26776695296637 8 0.7322330470336307
      vertex 39.26776695296637 2.4999999999999996 0.7322330470336307
    endloop
  endfacet
  facet normal 0.9238795325112867 0 -0.3826834323650897
    outer loop
      vertex 39.26776695296637 2.4999999999999996 0.7322330470336307
      vertex 39.26776695296637 8 0.7322330470336307
      vertex 40 8 2.4999999999999996
    endloop
  endfacet
  facet normal 0.9238795325112867 -8.4873178934590305e-19 -0.3826834323650897
    outer loop
      vertex 39.26776695296637 2.4999999999999996 0.7322330470336307
      vertex 40 8 2.4999999999999996
      vertex 40 2.4999999999999996 2.4999999999999996
    endloop
  endfacet
  facet normal 0 -0.3826834323650898 0.9238795325112867
    outer loop
      vertex 37.5 2.4999999999999996 3
      vertex 32 2.4999999999999996 3
      vertex 32 0.7322330470336311 2.267766952966369
    endloop
  endfacet
  facet normal 1.0450654169708551e-17 -0.3826834323650898 0.9238795325112867
    outer loop
      vertex 37.5 2.4999999999999996 3
      vertex 32 0.7322330470336311 2.267766952966369
      vertex 37.5 0.7322330470336311 2.267766952966369
    endloop
  endfacet
  facet normal 0 -0.9238795325112867 0.3826834323650898
    outer loop
      vertex 37.5 0.7322330470336311 2.267766952966369
      vertex 32 0.7322330470336311 2.267766952966369
      vertex 32 0 0.5000000000000004
    endloop
  endfacet
  facet normal 1.0450654169708551e-17 -0.9238795325112867 0.3826834323650898
    outer loop
      vertex 37.5 0.7322330470336311 2.267766952966369
      vertex 32 0 0.5000000000000004
      vertex 37.5 0 0.5000000000000004
    endloop
  endfacet
  facet normal 0.3826834323650897 0 0.9238795325112867
    outer loop
      vertex 37.5 2.4999999999999996 3
      vertex 39.26776695296637 8 2.267766952966369
      vertex 37.5 8 3
    endloop
  endfacet
  facet normal 0.3826834323650897 8.4873178934590305e-19 0.9238795325112867
    outer loop
      vertex 37.5 2.4999999999999996 3
      vertex 39.26776695296637 2.4999999999999996 2.267766952966369
      vertex 39.26776695296637 8 2.267766952966369
    endloop
  endfacet
  facet normal 0.9238795325112867 0 0.3826834323650898
    outer loop
      vertex 39.26776695296637 2.4999999999999996 2.267766952966369
      vertex 40 8 0.5000000000000004
      vertex 39.26776695296637 8 2.267766952966369
    endloop
  endfacet
  facet normal 0.9238795325112867 -1.0450654169708551e-17 0.3826834323650898
    outer loop
      vertex 39.26776695296637 2.4999999999999996 2.267766952966369
      vertex 40 2.4999999999999996 0.5000000000000004
      vertex 40 8 0.5000000000000004
    endloop
  endfacet
  facet normal -0.9238795325112868 -0.3826834323650898 0
    outer loop
      vertex 40 21.5 2.4999999999999996
      vertex 39.26776695296637 23.26776695296637 0.5000000000000004
      vertex 40 21.5 0.5000000000000004
    endloop
  endfacet
  facet normal -0.9238795325112868 -0.3826834323650898 2.334012420701235e-18
    outer loop
      vertex 40 21.5 2.4999999999999996
      vertex 39.26776695296637 23.26776695296637 2.4999999999999996
      vertex 39.26776695296637 23.26776695296637 0.5000000000000004
    endloop
  endfacet
  facet normal -0.3826834323650898 -0.9238795325112868 0
    outer loop
      vertex 39.26776695296637 23.26776695296637 2.4999999999999996
      vertex 37.5 24 0.5000000000000004
      vertex 39.26776695296637 23.26776695296637 0.5000000000000004
    endloop
  endfacet
  facet normal -0.3826834323650898 -0.9238795325112868 2.334012420701235e-18
    outer loop
      vertex 39.26776695296637 23.26776695296637 2.4999999999999996
      vertex 37.5 24 2.4999999999999996
      vertex 37.5 24 0.5000000000000004
    endloop
  endfacet
  facet normal 0 0.38268343236508956 -0.923879532511287
    outer loop
      vertex 37.5 21.5 0
      vertex 32 21.5 0
      vertex 32 23.26776695296637 0.7322330470336307
    endloop
  endfacet
  facet normal 8.951173694919834e-18 0.38268343236508956 -0.923879532511287
    outer loop
      vertex 37.5 21.5 0
      vertex 32 23.26776695296637 0.7322330470336307
      vertex 37.5 23.26776695296637 0.7322330470336307
    endloop
  endfacet
  facet normal 0 0.9238795325112867 -0.3826834323650897
    outer loop
      vertex 37.5 23.26776695296637 0.7322330470336307
      vertex 32 23.26776695296637 0.7322330470336307
      vertex 32 24 2.4999999999999996
    endloop
  endfacet
  facet normal -8.4873178934590305e-19 0.9238795325112867 -0.3826834323650897
    outer loop
      vertex 37.5 23.26776695296637 0.7322330470336307
      vertex 32 24 2.4999999999999996
      vertex 37.5 24 2.4999999999999996
    endloop
  endfacet
  facet normal 0.38268343236508956 0 -0.923879532511287
    outer loop
      vertex 37.5 21.5 0
      vertex 39.26776695296637 16 0.7322330470336307
      vertex 37.5 16 0
    endloop
  endfacet
  facet normal 0.38268343236508956 8.951173694919834e-18 -0.923879532511287
    outer loop
      vertex 37.5 21.5 0
      vertex 39.26776695296637 21.5 0.7322330470336307
      vertex 39.26776695296637 16 0.7322330470336307
    endloop
  endfacet
  facet normal 0.9238795325112867 0 -0.3826834323650897
    outer loop
      vertex 39.26776695296637 21.5 0.7322330470336307
      vertex 40 16 2.4999999999999996
      vertex 39.26776695296637 16 0.7322330470336307
    endloop
  endfacet
  facet normal 0.9238795325112867 -8.4873178934590305e-19 -0.3826834323650897
    outer loop
      vertex 39.26776695296637 21.5 0.7322330470336307
      vertex 40 21.5 2.4999999999999996
      vertex 40 16 2.4999999999999996
    endloop
  endfacet
  facet normal 0 0.3826834323650897 0.9238795325112867
    outer loop
      vertex 37.5 21.5 3
      vertex 32 23.26776695296637 2.267766952966369
      vertex 32 21.5 3
    endloop
  endfacet
  facet normal 8.4873178934590305e-19 0.3826834323650897 0.9238795325112867
    outer loop
      vertex 37.5 21.5 3
      vertex 37.5 23.26776695296637 2.267766952966369
      vertex 32 23.26776695296637 2.267766952966369
    endloop
  endfacet
  facet normal 0 0.9238795325112867 0.3826834323650898
    outer loop
      vertex 37.5 23.26776695296637 2.267766952966369
      vertex 32 24 0.5000000000000004
      vertex 32 23.26776695296637 2.267766952966369
    endloop
  endfacet
  facet normal -1.0450654169708551e-17 0.9238795325112867 0.3826834323650898
    outer loop
      vertex 37.5 23.26776695296637 2.267766952966369
      vertex 37.5 24 0.5000000000000004
      vertex 32 24 0.5000000000000004
    endloop
  endfacet
  facet normal 0.3826834323650897 0 0.9238795325112867
    outer loop
      vertex 37.5 21.5 3
      vertex 37.5 16 3
      vertex 39.26776695296637 16 2.267766952966369
    endloop
  endfacet
  facet normal 0.3826834323650897 8.4873178934590305e-19 0.9238795325112867
    outer loop
      vertex 37.5 21.5 3
      vertex 39.26776695296637 16 2.267766952966369
      vertex 39.26776695296637 21.5 2.267766952966369
    endloop
  endfacet
  facet normal 0.9238795325112867 0 0.3826834323650898
    outer loop
      vertex 39.26776695296637 21.5 2.267766952966369
      vertex 39.26776695296637 16 2.267766952966369
      vertex 40 16 0.5000000000000004
    endloop
  endfacet
  facet normal 0.9238795325112867 -1.0450654169708551e-17 0.3826834323650898
    outer loop
      vertex 39.26776695296637 21.5 2.267766952966369
      vertex 40 16 0.5000000000000004
      vertex 40 21.5 0.5000000000000004
    endloop
  endfacet
  facet normal -0.9238795325112866 -0.38268343236508984 0
    outer loop
      vertex 0 2.4999999999999996 8.666666666666666
      vertex 0.7322330470336311 0.7322330470336313 17.333333333333332
      vertex 0 2.4999999999999996 17.333333333333332
    endloop
  endfacet
  facet normal -0.9238795325112866 -0.38268343236508984 3.172406955861263e-18
    outer loop
      vertex 0 2.4999999999999996 8.666666666666666
      vertex 0.7322330470336311 0.7322330470336313 8.666666666666666
      vertex 0.7322330470336311 0.7322330470336313 17.333333333333332
    endloop
  endfacet
  facet normal -0.38268343236508984 -0.9238795325112866 0
    outer loop
      vertex 0.7322330470336311 0.7322330470336313 8.666666666666666
      vertex 2.4999999999999996 0 17.333333333333332
      vertex 0.7322330470336311 0.7322330470336313 17.333333333333332
    endloop
  endfacet
  facet normal -0.38268343236508984 -0.9238795325112866 -3.5225605213461e-18
    outer loop
      vertex 0.7322330470336311 0.7322330470336313 8.666666666666666
      vertex 2.4999999999999996 0 8.666666666666666
      vertex 2.4999999999999996 0 17.333333333333332
    endloop
  endfacet
  facet normal -0.38268343236508984 0 -0.9238795325112867
    outer loop
      vertex 2.4999999999999996 8 0
      vertex 0.7322330470336313 16 0.7322330470336311
      vertex 2.4999999999999996 16 0
    endloop
  endfacet
  facet normal -0.38268343236508984 3.4367742021830348e-18 -0.9238795325112867
    outer loop
      vertex 2.4999999999999996 8 0
      vertex 0.7322330470336313 8 0.7322330470336311
      vertex 0.7322330470336313 16 0.7322330470336311
    endloop
  endfacet
  facet normal -0.9238795325112867 0 -0.38268343236508995
    outer loop
      vertex 0.7322330470336313 8 0.7322330470336311
      vertex 0 16 2.4999999999999996
      vertex 0.7322330470336313 16 0.7322330470336311
    endloop
  endfacet
  facet normal -0.9238795325112867 -3.816107231458275e-18 -0.38268343236508995
    outer loop
      vertex 0.7322330470336313 8 0.7322330470336311
      vertex 0 8 2.4999999999999996
      vertex 0 16 2.4999999999999996
    endloop
  endfacet
  facet normal 0 -0.38268343236508984 -0.9238795325112867
    outer loop
      vertex 16 2.4999999999999996 0
      vertex 24 2.4999999999999996 0
      vertex 24 0.7322330470336313 0.7322330470336311
    endloop
  endfacet
  facet normal 3.4367742021830348e-18 -0.38268343236508984 -0.9238795325112867
    outer loop
      vertex 16 2.4999999999999996 0
      vertex 24 0.7322330470336313 0.7322330470336311
      vertex 16 0.7322330470336313 0.7322330470336311
    endloop
  endfacet
  facet normal 0 -0.9238795325112867 -0.38268343236508995
    outer loop
      vertex 16 0.7322330470336313 0.7322330470336311
      vertex 24 0.7322330470336313 0.7322330470336311
      vertex 24 0 2.4999999999999996
    endloop
  endfacet
  facet normal -3.816107231458275e-18 -0.9238795325112867 -0.38268343236508995
    outer loop
      vertex 16 0.7322330470336313 0.7322330470336311
      vertex 24 0 2.4999999999999996
      vertex 16 0 2.4999999999999996
    endloop
  endfacet
  facet normal 0 -0.38268343236508984 -0.9238795325112867
    outer loop
      vertex 24 2.4999999999999996 0
      vertex 32 2.4999999999999996 0
      vertex 32 0.7322330470336313 0.7322330470336311
    endloop
  endfacet
  facet normal 3.4367742021830348e-18 -0.38268343236508984 -0.9238795325112867
    outer loop
      vertex 24 2.4999999999999996 0
      vertex 32 0.7322330470336313 0.7322330470336311
      vertex 24 0.7322330470336313 0.7322330470336311
    endloop
  endfacet
  facet normal 0 -0.9238795325112867 -0.38268343236508995
    outer loop
      vertex 24 0.7322330470336313 0.7322330470336311
      vertex 32 0.7322330470336313 0.7322330470336311
      vertex 32 0 2.4999999999999996
    endloop
  endfacet
  facet normal -3.816107231458275e-18 -0.9238795325112867 -0.38268343236508995
    outer loop
      vertex 24 0.7322330470336313 0.7322330470336311
      vertex 32 0 2.4999999999999996
      vertex 24 0 2.4999999999999996
    endloop
  endfacet
  facet normal 0.9238795325112867 -0.38268343236508984 0
    outer loop
      vertex 8 2.4999999999999996 10.666666666666666
      vertex 8 2.4999999999999996 18.333333333333332
      vertex 7.267766952966369 0.7322330470336311 18.333333333333332
    endloop
  endfacet
  facet normal 0.9238795325112867 -0.38268343236508984 7.497208426095266e-18
    outer loop
      vertex 8 2.4999999999999996 10.666666666666666
      vertex 7.267766952966369 0.7322330470336311 18.333333333333332
      vertex 7.267766952966369 0.7322330470336311 10.666666666666666
    endloop
  endfacet
  facet normal 0.3826834323650897 -0.9238795325112867 0
    outer loop
      vertex 7.267766952966369 0.7322330470336311 10.666666666666666
      vertex 7.267766952966369 0.7322330470336311 18.333333333333332
      vertex 5.5 0 18.333333333333332
    endloop
  endfacet
  facet normal 0.3826834323650897 -0.9238795325112867 -6.088728054003218e-19
    outer loop
      vertex 7.267766952966369 0.7322330470336311 10.666666666666666
      vertex 5.5 0 18.333333333333332
      vertex 5.5 0 10.666666666666666
    endloop
  endfacet
  facet normal 0.3826834323650897 0 0.9238795325112867
    outer loop
      vertex 10.5 8 3
      vertex 10.5 16 3
      vertex 8.732233047033631 16 3.732233047033631
    endloop
  endfacet
  facet normal 0.3826834323650897 5.835031051753083e-19 0.9238795325112867
    outer loop
      vertex 10.5 8 3
      vertex 8.732233047033631 16 3.732233047033631
      vertex 8.732233047033631 8 3.732233047033631
    endloop
  endfacet
  facet normal 0.9238795325112867 0 0.3826834323650897
    outer loop
      vertex 8.732233047033631 8 3.732233047033631
      vertex 8.732233047033631 16 3.732233047033631
      vertex 8 16 5.5
    endloop
  endfacet
  facet normal 0.9238795325112867 5.835031051753083e-19 0.3826834323650897
    outer loop
      vertex 8.732233047033631 8 3.732233047033631
      vertex 8 16 5.5
      vertex 8 8 5.5
    endloop
  endfacet
  facet normal 0 -0.3826834323650898 0.9238795325112867
    outer loop
      vertex 16 2.4999999999999996 3
      vertex 24 0.7322330470336311 2.267766952966369
      vertex 24 2.4999999999999996 3
    endloop
  endfacet
  facet normal 7.184824741674629e-18 -0.3826834323650898 0.9238795325112867
    outer loop
      vertex 16 2.4999999999999996 3
      vertex 16 0.7322330470336311 2.267766952966369
      vertex 24 0.7322330470336311 2.267766952966369
    endloop
  endfacet
  facet normal 0 -0.9238795325112867 0.3826834323650898
    outer loop
      vertex 16 0.7322330470336311 2.267766952966369
      vertex 24 0 0.5000000000000004
      vertex 24 0.7322330470336311 2.267766952966369
    endloop
  endfacet
  facet normal 7.184824741674629e-18 -0.9238795325112867 0.3826834323650898
    outer loop
      vertex 16 0.7322330470336311 2.267766952966369
      vertex 16 0 0.5000000000000004
      vertex 24 0 0.5000000000000004
    endloop
  endfacet
  facet normal 0 -0.3826834323650898 0.9238795325112867
    outer loop
      vertex 24 2.4999999999999996 3
      vertex 32 0.7322330470336311 2.267766952966369
      vertex 32 2.4999999999999996 3
    endloop
  endfacet
  facet normal 7.184824741674629e-18 -0.3826834323650898 0.9238795325112867
    outer loop
      vertex 24 2.4999999999999996 3
      vertex 24 0.7322330470336311 2.267766952966369
      vertex 32 0.7322330470336311 2.267766952966369
    endloop
  endfacet
  facet normal 0 -0.9238795325112867 0.3826834323650898
    outer loop
      vertex 24 0.7322330470336311 2.267766952966369
      vertex 32 0 0.5000000000000004
      vertex 32 0.7322330470336311 2.267766952966369
    endloop
  endfacet
  facet normal 7.184824741674629e-18 -0.9238795325112867 0.3826834323650898
    outer loop
      vertex 24 0.7322330470336311 2.267766952966369
      vertex 24 0 0.5000000000000004
      vertex 32 0 0.5000000000000004
    endloop
  endfacet
  facet normal -0.9238795325112868 0 0.3826834323650895
    outer loop
      vertex 0 8 23.5
      vertex 0.7322330470336307 16 25.26776695296637
      vertex 0 16 23.5
    endloop
  endfacet
  facet normal -0.9238795325112868 6.153931915257385e-18 0.3826834323650895
    outer loop
      vertex 0 8 23.5
      vertex 0.7322330470336307 8 25.26776695296637
      vertex 0.7322330470336307 16 25.26776695296637
    endloop
  endfacet
  facet normal -0.3826834323650897 0 0.9238795325112867
    outer loop
      vertex 0.7322330470336307 8 25.26776695296637
      vertex 2.4999999999999996 16 26
      vertex 0.7322330470336307 16 25.26776695296637
    endloop
  endfacet
  facet normal -0.3826834323650897 -5.835031051753083e-19 0.9238795325112867
    outer loop
      vertex 0.7322330470336307 8 25.26776695296637
      vertex 2.4999999999999996 8 26
      vertex 2.4999999999999996 16 26
    endloop
  endfacet
  facet normal 0.9238795325112867 0 0.3826834323650897
    outer loop
      vertex 8 8 23.5
      vertex 8 16 23.5
      vertex 7.267766952966369 16 25.26776695296637
    endloop
  endfacet
  facet normal 0.9238795325112867 5.835031051753083e-19 0.3826834323650897
    outer loop
      vertex 8 8 23.5
      vertex 7.267766952966369 16 25.26776695296637
      vertex 7.267766952966369 8 25.26776695296637
    endloop
  endfacet
  facet normal 0.3826834323650897 0 0.9238795325112867
    outer loop
      vertex 7.267766952966369 8 25.26776695296637
      vertex 7.267766952966369 16 25.26776695296637
      vertex 5.5 16 26
    endloop
  endfacet
  facet normal 0.3826834323650897 5.835031051753083e-19 0.9238795325112867
    outer loop
      vertex 7.267766952966369 8 25.26776695296637
      vertex 5.5 16 26
      vertex 5.5 8 26
    endloop
  endfacet
  facet normal -0.9238795325112868 0.38268343236508956 0
    outer loop
      vertex 0 21.5 8.666666666666666
      vertex 0 21.5 17.333333333333332
      vertex 0.7322330470336307 23.26776695296637 17.333333333333332
    endloop
  endfacet
  facet normal -0.9238795325112868 0.38268343236508956 5.680552537160664e-18
    outer loop
      vertex 0 21.5 8.666666666666666
      vertex 0.7322330470336307 23.26776695296637 17.333333333333332
      vertex 0.7322330470336307 23.26776695296637 8.666666666666666
    endloop
  endfacet
  facet normal -0.3826834323650897 0.9238795325112868 0
    outer loop
      vertex 0.7322330470336307 23.26776695296637 8.666666666666666
      vertex 0.7322330470336307 23.26776695296637 17.333333333333332
      vertex 2.4999999999999996 24 17.333333333333332
    endloop
  endfacet
  facet normal -0.3826834323650897 0.9238795325112868 -5.38618250931054e-19
    outer loop
      vertex 0.7322330470336307 23.26776695296637 8.666666666666666
      vertex 2.4999999999999996 24 17.333333333333332
      vertex 2.4999999999999996 24 8.666666666666666
    endloop
  endfacet
  facet normal 0 0.3826834323650895 -0.9238795325112868
    outer loop
      vertex 16 21.5 0
      vertex 24 23.26776695296637 0.7322330470336307
      vertex 24 21.5 0
    endloop
  endfacet
  facet normal 6.153931915257385e-18 0.3826834323650895 -0.9238795325112868
    outer loop
      vertex 16 21.5 0
      vertex 16 23.26776695296637 0.7322330470336307
      vertex 24 23.26776695296637 0.7322330470336307
    endloop
  endfacet
  facet normal 0 0.9238795325112867 -0.3826834323650897
    outer loop
      vertex 16 23.26776695296637 0.7322330470336307
      vertex 24 24 2.4999999999999996
      vertex 24 23.26776695296637 0.7322330470336307
    endloop
  endfacet
  facet normal -5.835031051753083e-19 0.9238795325112867 -0.3826834323650897
    outer loop
      vertex 16 23.26776695296637 0.7322330470336307
      vertex 16 24 2.4999999999999996
      vertex 24 24 2.4999999999999996
    endloop
  endfacet
  facet normal 0 0.3826834323650895 -0.9238795325112868
    outer loop
      vertex 24 21.5 0
      vertex 32 23.26776695296637 0.7322330470336307
      vertex 32 21.5 0
    endloop
  endfacet
  facet normal 6.153931915257385e-18 0.3826834323650895 -0.9238795325112868
    outer loop
      vertex 24 21.5 0
      vertex 24 23.26776695296637 0.7322330470336307
      vertex 32 23.26776695296637 0.7322330470336307
    endloop
  endfacet
  facet normal 0 0.9238795325112867 -0.3826834323650897
    outer loop
      vertex 24 23.26776695296637 0.7322330470336307
      vertex 32 24 2.4999999999999996
      vertex 32 23.26776695296637 0.7322330470336307
    endloop
  endfacet
  facet normal -5.835031051753083e-19 0.9238795325112867 -0.3826834323650897
    outer loop
      vertex 24 23.26776695296637 0.7322330470336307
      vertex 24 24 2.4999999999999996
      vertex 32 24 2.4999999999999996
    endloop
  endfacet
  facet normal 0.9238795325112867 0.3826834323650897 0
    outer loop
      vertex 8 21.5 10.666666666666666
      vertex 7.267766952966369 23.26776695296637 18.333333333333332
      vertex 8 21.5 18.333333333333332
    endloop
  endfacet
  facet normal 0.9238795325112867 0.3826834323650897 6.088728054003218e-19
    outer loop
      vertex 8 21.5 10.666666666666666
      vertex 7.267766952966369 23.26776695296637 10.666666666666666
      vertex 7.267766952966369 23.26776695296637 18.333333333333332
    endloop
  endfacet
  facet normal 0.3826834323650897 0.9238795325112867 0
    outer loop
      vertex 7.267766952966369 23.26776695296637 10.666666666666666
      vertex 5.5 24 18.333333333333332
      vertex 7.267766952966369 23.26776695296637 18.333333333333332
    endloop
  endfacet
  facet normal 0.3826834323650897 0.9238795325112867 6.088728054003218e-19
    outer loop
      vertex 7.267766952966369 23.26776695296637 10.666666666666666
      vertex 5.5 24 10.666666666666666
      vertex 5.5 24 18.333333333333332
    endloop
  endfacet
  facet normal 0 0.3826834323650897 0.9238795325112867
    outer loop
      vertex 16 21.5 3
      vertex 24 21.5 3
      vertex 24 23.26776695296637 2.267766952966369
    endloop
  endfacet
  facet normal 5.835031051753083e-19 0.3826834323650897 0.9238795325112867
    outer loop
      vertex 16 21.5 3
      vertex 24 23.26776695296637 2.267766952966369
      vertex 16 23.26776695296637 2.267766952966369
    endloop
  endfacet
  facet normal 0 0.9238795325112867 0.3826834323650898
    outer loop
      vertex 16 23.26776695296637 2.267766952966369
      vertex 24 23.26776695296637 2.267766952966369
      vertex 24 24 0.5000000000000004
    endloop
  endfacet
  facet normal -7.184824741674629e-18 0.9238795325112867 0.3826834323650898
    outer loop
      vertex 16 23.26776695296637 2.267766952966369
      vertex 24 24 0.5000000000000004
      vertex 16 24 0.5000000000000004
    endloop
  endfacet
  facet normal 0 0.3826834323650897 0.9238795325112867
    outer loop
      vertex 24 21.5 3
      vertex 32 21.5 3
      vertex 32 23.26776695296637 2.267766952966369
    endloop
  endfacet
  facet normal 5.835031051753083e-19 0.3826834323650897 0.9238795325112867
    outer loop
      vertex 24 21.5 3
      vertex 32 23.26776695296637 2.267766952966369
      vertex 24 23.26776695296637 2.267766952966369
    endloop
  endfacet
  facet normal 0 0.9238795325112867 0.3826834323650898
    outer loop
      vertex 24 23.26776695296637 2.267766952966369
      vertex 32 23.26776695296637 2.267766952966369
      vertex 32 24 0.5000000000000004
    endloop
  endfacet
  facet normal -7.184824741674629e-18 0.9238795325112867 0.3826834323650898
    outer loop
      vertex 24 23.26776695296637 2.267766952966369
      vertex 32 24 0.5000000000000004
      vertex 24 24 0.5000000000000004
    endloop
  endfacet
  facet normal 0.3826834323650895 0 -0.9238795325112868
    outer loop
      vertex 37.5 8 0
      vertex 37.5 16 0
      vertex 39.26776695296637 16 0.7322330470336307
    endloop
  endfacet
  facet normal 0.3826834323650895 6.153931915257385e-18 -0.9238795325112868
    outer loop
      vertex 37.5 8 0
      vertex 39.26776695296637 16 0.7322330470336307
      vertex 39.26776695296637 8 0.7322330470336307
    endloop
  endfacet
  facet normal 0.9238795325112867 0 -0.3826834323650897
    outer loop
      vertex 39.26776695296637 8 0.7322330470336307
      vertex 39.26776695296637 16 0.7322330470336307
      vertex 40 16 2.4999999999999996
    endloop
  endfacet
  facet normal 0.9238795325112867 -5.835031051753083e-19 -0.3826834323650897
    outer loop
      vertex 39.26776695296637 8 0.7322330470336307
      vertex 40 16 2.4999999999999996
      vertex 40 8 2.4999999999999996
    endloop
  endfacet
  facet normal 0.3826834323650897 0 0.9238795325112867
    outer loop
      vertex 37.5 8 3
      vertex 39.26776695296637 16 2.267766952966369
      vertex 37.5 16 3
    endloop
  endfacet
  facet normal 0.3826834323650897 5.835031051753083e-19 0.9238795325112867
    outer loop
      vertex 37.5 8 3
      vertex 39.26776695296637 8 2.267766952966369
      vertex 39.26776695296637 16 2.267766952966369
    endloop
  endfacet
  facet normal 0.9238795325112867 0 0.3826834323650898
    outer loop
      vertex 39.26776695296637 8 2.267766952966369
      vertex 40 16 0.5000000000000004
      vertex 39.26776695296637 16 2.267766952966369
    endloop
  endfacet
  facet normal 0.9238795325112867 -7.184824741674629e-18 0.3826834323650898
    outer loop
      vertex 39.26776695296637 8 2.267766952966369
      vertex 40 8 0.5000000000000004
      vertex 40 16 0.5000000000000004
    endloop
  endfacet
  facet normal -0.3574067443365933 -0.3574067443365933 -0.8628562094610167
    outer loop
      vertex 2.4999999999999996 2.4999999999999996 0
      vertex 2.4999999999999996 0.7322330470336313 0.7322330470336311
      vertex 0.7322330470336313 2.4999999999999996 0.7322330470336311
    endloop
  endfacet
  facet normal -0.5773502691896257 -0.5773502691896257 -0.5773502691896257
    outer loop
      vertex 2.4999999999999996 0.7322330470336313 0.7322330470336311
      vertex 0.7322330470336311 0.7322330470336313 2.4999999999999996
      vertex 0.7322330470336313 2.4999999999999996 0.7322330470336311
    endloop
  endfacet
  facet normal -0.8628562094610167 -0.3574067443365933 -0.3574067443365934
    outer loop
      vertex 0.7322330470336313 2.4999999999999996 0.7322330470336311
      vertex 0.7322330470336311 0.7322330470336313 2.4999999999999996
      vertex 0 2.4999999999999996 2.4999999999999996
    endloop
  endfacet
  facet normal -0.35740674433659336 -0.8628562094610167 -0.35740674433659336
    outer loop
      vertex 2.4999999999999996 0.7322330470336313 0.7322330470336311
      vertex 2.4999999999999996 0 2.4999999999999996
      vertex 0.7322330470336311 0.7322330470336313 2.4999999999999996
    endloop
  endfacet
  facet normal 0.8628562094610168 -0.3574067443365933 0.3574067443365932
    outer loop
      vertex 8 2.4999999999999996 5.5
      vertex 8.214466094067262 0.7322330470336309 3.2144660940672622
      vertex 8.732233047033631 2.4999999999999996 3.732233047033631
    endloop
  endfacet
  facet normal 0.8628562094610168 -0.35740674433659336 0.35740674433659325
    outer loop
      vertex 8 2.4999999999999996 5.5
      vertex 7.267766952966369 0.7322330470336311 5.5
      vertex 8.214466094067262 0.7322330470336309 3.2144660940672622
    endloop
  endfacet
  facet normal 0.37796447300922725 -0.912486956834076 0.15655801081562162
    outer loop
      vertex 7.267766952966369 0.7322330470336311 5.5
      vertex 6.964466094067262 -4.440892098500626e-16 1.9644660940672622
      vertex 8.214466094067262 0.7322330470336309 3.2144660940672622
    endloop
  endfacet
  facet normal 0.37796447300922714 -0.9124869568340759 0.1565580108156216
    outer loop
      vertex 7.267766952966369 0.7322330470336311 5.5
      vertex 5.5 0 5.5
      vertex 6.964466094067262 -4.440892098500626e-16 1.9644660940672622
    endloop
  endfacet
  facet normal 0.3574067443365932 -0.3574067443365933 0.8628562094610169
    outer loop
      vertex 8.732233047033631 2.4999999999999996 3.732233047033631
      vertex 10.5 0.7322330470336311 2.267766952966369
      vertex 10.5 2.4999999999999996 3
    endloop
  endfacet
  facet normal 0.3574067443365932 -0.3574067443365933 0.8628562094610169
    outer loop
      vertex 8.732233047033631 2.4999999999999996 3.732233047033631
      vertex 8.214466094067262 0.7322330470336309 3.2144660940672622
      vertex 10.5 0.7322330470336311 2.267766952966369
    endloop
  endfacet
  facet normal 0.15655801081562162 -0.912486956834076 0.3779644730092273
    outer loop
      vertex 8.214466094067262 0.7322330470336309 3.2144660940672622
      vertex 10.5 0 0.5000000000000004
      vertex 10.5 0.7322330470336311 2.267766952966369
    endloop
  endfacet
  facet normal 0.15655801081562157 -0.9124869568340759 0.37796447300922714
    outer loop
      vertex 8.214466094067262 0.7322330470336309 3.2144660940672622
      vertex 6.964466094067262 -4.440892098500626e-16 1.9644660940672622
      vertex 10.5 0 0.5000000000000004
    endloop
  endfacet
  facet normal -3.0324308063472706e-16 -1 0
    outer loop
      vertex 5.5 0 0.5000000000000004
      vertex 6.964466094067262 -4.440892098500626e-16 1.9644660940672622
      vertex 5.5 0 5.5
    endloop
  endfacet
  facet normal 0 -1 -3.0324308063472716e-16
    outer loop
      vertex 6.964466094067262 -4.440892098500626e-16 1.9644660940672622
      vertex 5.5 0 0.5000000000000004
      vertex 10.5 0 0.5000000000000004
    endloop
  endfacet
  facet normal -0.8628562094610168 -0.35740674433659336 0.357406744336593
    outer loop
      vertex 0 2.4999999999999996 23.5
      vertex 0.7322330470336311 0.7322330470336313 23.5
      vertex 0.7322330470336307 2.4999999999999996 25.26776695296637
    endloop
  endfacet
  facet normal -0.5773502691896258 -0.577350269189626 0.5773502691896255
    outer loop
      vertex 0.7322330470336311 0.7322330470336313 23.5
      vertex 2.4999999999999996 0.7322330470336311 25.26776695296637
      vertex 0.7322330470336307 2.4999999999999996 25.26776695296637
    endloop
  endfacet
  facet normal -0.3574067443365932 -0.3574067443365933 0.8628562094610169
    outer loop
      vertex 0.7322330470336307 2.4999999999999996 25.26776695296637
      vertex 2.4999999999999996 0.7322330470336311 25.26776695296637
      vertex 2.4999999999999996 2.4999999999999996 26
    endloop
  endfacet
  facet normal -0.3574067443365934 -0.8628562094610168 0.35740674433659314
    outer loop
      vertex 0.7322330470336311 0.7322330470336313 23.5
      vertex 2.4999999999999996 0 23.5
      vertex 2.4999999999999996 0.7322330470336311 25.26776695296637
    endloop
  endfacet
  facet normal 0.8628562094610168 -0.35740674433659325 0.35740674433659314
    outer loop
      vertex 8 2.4999999999999996 23.5
      vertex 7.267766952966369 2.4999999999999996 25.26776695296637
      vertex 7.267766952966369 0.7322330470336311 23.5
    endloop
  endfacet
  facet normal 0.5773502691896257 -0.5773502691896258 0.5773502691896257
    outer loop
      vertex 7.267766952966369 0.7322330470336311 23.5
      vertex 7.267766952966369 2.4999999999999996 25.26776695296637
      vertex 5.5 0.7322330470336311 25.26776695296637
    endloop
  endfacet
  facet normal 0.3574067443365932 -0.3574067443365933 0.8628562094610169
    outer loop
      vertex 7.267766952966369 2.4999999999999996 25.26776695296637
      vertex 5.5 2.4999999999999996 26
      vertex 5.5 0.7322330470336311 25.26776695296637
    endloop
  endfacet
  facet normal 0.3574067443365932 -0.8628562094610168 0.3574067443365932
    outer loop
      vertex 7.267766952966369 0.7322330470336311 23.5
      vertex 5.5 0.7322330470336311 25.26776695296637
      vertex 5.5 0 23.5
    endloop
  endfacet
  facet normal -0.35740674433659336 0.357406744336593 -0.8628562094610168
    outer loop
      vertex 2.4999999999999996 21.5 0
      vertex 0.7322330470336313 21.5 0.7322330470336311
      vertex 2.4999999999999996 23.26776695296637 0.7322330470336307
    endloop
  endfacet
  facet normal -0.5773502691896258 0.5773502691896254 -0.5773502691896258
    outer loop
      vertex 2.4999999999999996 23.26776695296637 0.7322330470336307
      vertex 0.7322330470336313 21.5 0.7322330470336311
      vertex 0.7322330470336307 23.26776695296637 2.4999999999999996
    endloop
  endfacet
  facet normal -0.8628562094610169 0.35740674433659303 -0.3574067443365934
    outer loop
      vertex 0.7322330470336313 21.5 0.7322330470336311
      vertex 0 21.5 2.4999999999999996
      vertex 0.7322330470336307 23.26776695296637 2.4999999999999996
    endloop
  endfacet
  facet normal -0.3574067443365932 0.8628562094610168 -0.3574067443365932
    outer loop
      vertex 2.4999999999999996 23.26776695296637 0.7322330470336307
      vertex 0.7322330470336307 23.26776695296637 2.4999999999999996
      vertex 2.4999999999999996 24 2.4999999999999996
    endloop
  endfacet
  facet normal 0.3574067443365932 0.35740674433659325 0.8628562094610168
    outer loop
      vertex 10.5 21.5 3
      vertex 8.214466094067262 23.26776695296637 3.2144660940672622
      vertex 8.732233047033631 21.5 3.732233047033631
    endloop
  endfacet
  facet normal 0.3574067443365932 0.3574067443365932 0.8628562094610169
    outer loop
      vertex 10.5 21.5 3
      vertex 10.5 23.26776695296637 2.267766952966369
      vertex 8.214466094067262 23.26776695296637 3.2144660940672622
    endloop
  endfacet
  facet normal 0.15655801081562148 0.912486956834076 0.37796447300922725
    outer loop
      vertex 10.5 23.26776695296637 2.267766952966369
      vertex 6.964466094067262 24 1.9644660940672622
      vertex 8.214466094067262 23.26776695296637 3.2144660940672622
    endloop
  endfacet
  facet normal 0.15655801081562148 0.9124869568340761 0.3779644730092273
    outer loop
      vertex 10.5 23.26776695296637 2.267766952966369
      vertex 10.5 24 0.5000000000000004
      vertex 6.964466094067262 24 1.9644660940672622
    endloop
  endfacet
  facet normal 0.8628562094610168 0.3574067443365932 0.3574067443365932
    outer loop
      vertex 8.732233047033631 21.5 3.732233047033631
      vertex 7.267766952966369 23.26776695296637 5.5
      vertex 8 21.5 5.5
    endloop
  endfacet
  facet normal 0.8628562094610167 0.3574067443365932 0.3574067443365931
    outer loop
      vertex 8.732233047033631 21.5 3.732233047033631
      vertex 8.214466094067262 23.26776695296637 3.2144660940672622
      vertex 7.267766952966369 23.26776695296637 5.5
    endloop
  endfacet
  facet normal 0.37796447300922714 0.912486956834076 0.15655801081562146
    outer loop
      vertex 8.214466094067262 23.26776695296637 3.2144660940672622
      vertex 5.5 24 5.5
      vertex 7.267766952966369 23.26776695296637 5.5
    endloop
  endfacet
  facet normal 0.3779644730092272 0.912486956834076 0.1565580108156215
    outer loop
      vertex 8.214466094067262 23.26776695296637 3.2144660940672622
      vertex 6.964466094067262 24 1.9644660940672622
      vertex 5.5 24 5.5
    endloop
  endfacet
  facet normal 0 1 0
    outer loop
      vertex 5.5 24 0.5000000000000004
      vertex 6.964466094067262 24 1.9644660940672622
      vertex 10.5 24 0.5000000000000004
    endloop
  endfacet
  facet normal 0 1 0
    outer loop
      vertex 6.964466094067262 24 1.9644660940672622
      vertex 5.5 24 0.5000000000000004
      vertex 5.5 24 5.5
    endloop
  endfacet
  facet normal -0.862856209461017 0.35740674433659303 0.35740674433659303
    outer loop
      vertex 0 21.5 23.5
      vertex 0.7322330470336307 21.5 25.26776695296637
      vertex 0.7322330470336307 23.26776695296637 23.5
    endloop
  endfacet
  facet normal -0.5773502691896257 0.5773502691896257 0.5773502691896257
    outer loop
      vertex 0.7322330470336307 21.5 25.26776695296637
      vertex 2.4999999999999996 23.26776695296637 25.26776695296637
      vertex 0.7322330470336307 23.26776695296637 23.5
    endloop
  endfacet
  facet normal -0.3574067443365932 0.8628562094610168 0.3574067443365932
    outer loop
      vertex 0.7322330470336307 23.26776695296637 23.5
      vertex 2.4999999999999996 23.26776695296637 25.26776695296637
      vertex 2.4999999999999996 24 23.5
    endloop
  endfacet
  facet normal -0.3574067443365932 0.3574067443365932 0.8628562094610168
    outer loop
      vertex 0.7322330470336307 21.5 25.26776695296637
      vertex 2.4999999999999996 21.5 26
      vertex 2.4999999999999996 23.26776695296637 25.26776695296637
    endloop
  endfacet
  facet normal 0.8628562094610168 0.3574067443365932 0.3574067443365932
    outer loop
      vertex 8 21.5 23.5
      vertex 7.267766952966369 23.26776695296637 23.5
      vertex 7.267766952966369 21.5 25.26776695296637
    endloop
  endfacet
  facet normal 0.5773502691896257 0.5773502691896257 0.5773502691896257
    outer loop
      vertex 7.267766952966369 23.26776695296637 23.5
      vertex 5.5 23.26776695296637 25.26776695296637
      vertex 7.267766952966369 21.5 25.26776695296637
    endloop
  endfacet
  facet normal 0.3574067443365932 0.3574067443365932 0.8628562094610168
    outer loop
      vertex 7.267766952966369 21.5 25.26776695296637
      vertex 5.5 23.26776695296637 25.26776695296637
      vertex 5.5 21.5 26
    endloop
  endfacet
  facet normal 0.3574067443365932 0.8628562094610168 0.3574067443365932
    outer loop
      vertex 7.267766952966369 23.26776695296637 23.5
      vertex 5.5 24 23.5
      vertex 5.5 23.26776695296637 25.26776695296637
    endloop
  endfacet
  facet normal 0.357406744336593 -0.35740674433659336 -0.8628562094610168
    outer loop
      vertex 37.5 2.4999999999999996 0
      vertex 39.26776695296637 2.4999999999999996 0.7322330470336307
      vertex 37.5 0.7322330470336313 0.7322330470336311
    endloop
  endfacet
  facet normal 0.5773502691896255 -0.577350269189626 -0.5773502691896258
    outer loop
      vertex 39.26776695296637 2.4999999999999996 0.7322330470336307
      vertex 39.26776695296637 0.7322330470336311 2.4999999999999996
      vertex 37.5 0.7322330470336313 0.7322330470336311
    endloop
  endfacet
  facet normal 0.35740674433659314 -0.8628562094610168 -0.3574067443365934
    outer loop
      vertex 37.5 0.7322330470336313 0.7322330470336311
      vertex 39.26776695296637 0.7322330470336311 2.4999999999999996
      vertex 37.5 0 2.4999999999999996
    endloop
  endfacet
  facet normal 0.8628562094610168 -0.35740674433659325 -0.35740674433659314
    outer loop
      vertex 39.26776695296637 2.4999999999999996 0.7322330470336307
      vertex 40 2.4999999999999996 2.4999999999999996
      vertex 39.26776695296637 0.7322330470336311 2.4999999999999996
    endloop
  endfacet
  facet normal 0.3574067443365932 -0.3574067443365933 0.8628562094610169
    outer loop
      vertex 37.5 2.4999999999999996 3
      vertex 37.5 0.7322330470336311 2.267766952966369
      vertex 39.26776695296637 2.4999999999999996 2.267766952966369
    endloop
  endfacet
  facet normal 0.5773502691896257 -0.5773502691896258 0.5773502691896258
    outer loop
      vertex 37.5 0.7322330470336311 2.267766952966369
      vertex 39.26776695296637 0.7322330470336311 0.5000000000000004
      vertex 39.26776695296637 2.4999999999999996 2.267766952966369
    endloop
  endfacet
  facet normal 0.8628562094610168 -0.3574067443365933 0.3574067443365933
    outer loop
      vertex 39.26776695296637 2.4999999999999996 2.267766952966369
      vertex 39.26776695296637 0.7322330470336311 0.5000000000000004
      vertex 40 2.4999999999999996 0.5000000000000004
    endloop
  endfacet
  facet normal 0.3574067443365932 -0.8628562094610169 0.3574067443365933
    outer loop
      vertex 37.5 0.7322330470336311 2.267766952966369
      vertex 37.5 0 0.5000000000000004
      vertex 39.26776695296637 0.7322330470336311 0.5000000000000004
    endloop
  endfacet
  facet normal 0.35740674433659303 0.35740674433659303 -0.862856209461017
    outer loop
      vertex 37.5 21.5 0
      vertex 37.5 23.26776695296637 0.7322330470336307
      vertex 39.26776695296637 21.5 0.7322330470336307
    endloop
  endfacet
  facet normal 0.5773502691896257 0.5773502691896257 -0.5773502691896257
    outer loop
      vertex 39.26776695296637 21.5 0.7322330470336307
      vertex 37.5 23.26776695296637 0.7322330470336307
      vertex 39.26776695296637 23.26776695296637 2.4999999999999996
    endloop
  endfacet
  facet normal 0.3574067443365932 0.8628562094610168 -0.3574067443365932
    outer loop
      vertex 37.5 23.26776695296637 0.7322330470336307
      vertex 37.5 24 2.4999999999999996
      vertex 39.26776695296637 23.26776695296637 2.4999999999999996
    endloop
  endfacet
  facet normal 0.8628562094610168 0.3574067443365932 -0.3574067443365932
    outer loop
      vertex 39.26776695296637 21.5 0.7322330470336307
      vertex 39.26776695296637 23.26776695296637 2.4999999999999996
      vertex 40 21.5 2.4999999999999996
    endloop
  endfacet
  facet normal 0.3574067443365932 0.3574067443365932 0.8628562094610168
    outer loop
      vertex 37.5 21.5 3
      vertex 39.26776695296637 21.5 2.267766952966369
      vertex 37.5 23.26776695296637 2.267766952966369
    endloop
  endfacet
  facet normal 0.5773502691896257 0.5773502691896257 0.5773502691896258
    outer loop
      vertex 39.26776695296637 21.5 2.267766952966369
      vertex 39.26776695296637 23.26776695296637 0.5000000000000004
      vertex 37.5 23.26776695296637 2.267766952966369
    endloop
  endfacet
  facet normal 0.3574067443365932 0.8628562094610169 0.3574067443365933
    outer loop
      vertex 37.5 23.26776695296637 2.267766952966369
      vertex 39.26776695296637 23.26776695296637 0.5000000000000004
      vertex 37.5 24 0.5000000000000004
    endloop
  endfacet
  facet normal 0.8628562094610169 0.3574067443365932 0.3574067443365933
    outer loop
      vertex 39.26776695296637 21.5 2.267766952966369
      vertex 40 21.5 0.5000000000000004
      vertex 39.26776695296637 23.26776695296637 0.5000000000000004
    endloop
  endfacet
endsolid OpenSCAD_Model
