solid OpenSCAD_Model
  facet normal 0 0 -1
    outer loop
      vertex 8 2.4999999999999996 0
      vertex 2.4999999999999996 2.4999999999999996 0
      vertex 2.4999999999999996 21.5 0
    endloop
  endfacet
  facet normal 0 0 -1
    outer loop
      vertex 8 2.4999999999999996 0
      vertex 2.4999999999999996 21.5 0
      vertex 8 21.5 0
    endloop
  endfacet
  facet normal 0 0 -1
    outer loop
      vertex 8 2.4999999999999996 0
      vertex 8 21.5 0
      vertex 37.5 21.5 0
    endloop
  endfacet
  facet normal 0 0 -1
    outer loop
      vertex 37.5 21.5 0
      vertex 37.5 2.4999999999999996 0
      vertex 8 2.4999999999999996 0
    endloop
  endfacet
  facet normal 0 0 1
    outer loop
      vertex 10.5 21.5 6
      vertex 10.5 2.4999999999999996 6
      vertex 37.5 2.4999999999999996 6
    endloop
  endfacet
  facet normal 0 0 1
    outer loop
      vertex 37.5 2.4999999999999996 6
      vertex 37.5 21.5 6
      vertex 10.5 21.5 6
    endloop
  endfacet
  facet normal 1 0 0
    outer loop
      vertex 40 2.4999999999999996 3.5000000000000004
      vertex 40 2.4999999999999996 2.4999999999999996
      vertex 40 21.5 2.4999999999999996
    endloop
  endfacet
  facet normal 1 0 0
    outer loop
      vertex 40 21.5 2.4999999999999996
      vertex 40 21.5 3.5000000000000004
      vertex 40 2.4999999999999996 3.5000000000000004
    endloop
  endfacet
  facet normal 0 -1 0
    outer loop
      vertex 8 0 2.4999999999999996
      vertex 37.5 0 2.4999999999999996
      vertex 37.5 0 3.5000000000000004
    endloop
  endfacet
  facet normal 0 -1 0
    outer loop
      vertex 2.4999999999999996 0 2.4999999999999996
      vertex 8 0 2.4999999999999996
      vertex 37.5 0 3.5000000000000004
    endloop
  endfacet
  facet normal 0 -1 0
    outer loop
      vertex 2.4999999999999996 0 2.4999999999999996
      vertex 37.5 0 3.5000000000000004
      vertex 5.5 0 3.5000000000000004
    endloop
  endfacet
  facet normal 0 -1 0
    outer loop
      vertex 2.4999999999999996 0 8.5
      vertex 2.4999999999999996 0 2.4999999999999996
      vertex 5.5 0 3.5000000000000004
    endloop
  endfacet
  facet normal 0 -1 0
    outer loop
      vertex 5.5 0 3.5000000000000004
      vertex 5.5 0 8.5
      vertex 2.4999999999999996 0 8.5
    endloop
  endfacet
  facet normal -1 0 0
    outer loop
      vertex 0 21.5 2.4999999999999996
      vertex 0 2.4999999999999996 2.4999999999999996
      vertex 0 2.4999999999999996 8.5
    endloop
  endfacet
  facet normal -1 0 0
    outer loop
      vertex 0 2.4999999999999996 8.5
      vertex 0 21.5 8.5
      vertex 0 21.5 2.4999999999999996
    endloop
  endfacet
  facet normal 0 0 1
    outer loop
      vertex 2.4999999999999996 21.5 11
      vertex 2.4999999999999996 2.4999999999999996 11
      vertex 5.5 2.4999999999999996 11
    endloop
  endfacet
  facet normal 0 0 1
    outer loop
      vertex 5.5 2.4999999999999996 11
      vertex 5.5 21.5 11
      vertex 2.4999999999999996 21.5 11
    endloop
  endfacet
  facet normal 0 1 0
    outer loop
      vertex 2.4999999999999996 24 2.4999999999999996
      vertex 2.4999999999999996 24 8.5
      vertex 5.5 24 8.5
    endloop
  endfacet
  facet normal 0 1 0
    outer loop
      vertex 2.4999999999999996 24 2.4999999999999996
      vertex 5.5 24 8.5
      vertex 5.5 24 3.5000000000000004
    endloop
  endfacet
  facet normal 0 1 0
    outer loop
      vertex 8 24 2.4999999999999996
      vertex 2.4999999999999996 24 2.4999999999999996
      vertex 5.5 24 3.5000000000000004
    endloop
  endfacet
  facet normal 0 1 0
    outer loop
      vertex 8 24 2.4999999999999996
      vertex 5.5 24 3.5000000000000004
      vertex 37.5 24 3.5000000000000004
    endloop
  endfacet
  facet normal 0 1 0
    outer loop
      vertex 37.5 24 3.5000000000000004
      vertex 37.5 24 2.4999999999999996
      vertex 8 24 2.4999999999999996
    endloop
  endfacet
  facet normal 0 -0.38268343236508984 -0.9238795325112867
    outer loop
      vertex 2.4999999999999996 2.4999999999999996 0
      vertex 8 2.4999999999999996 0
      vertex 8 0.7322330470336313 0.7322330470336311
    endloop
  endfacet
  facet normal 4.998944294084415e-18 -0.38268343236508984 -0.9238795325112867
    outer loop
      vertex 2.4999999999999996 2.4999999999999996 0
      vertex 8 0.7322330470336313 0.7322330470336311
      vertex 2.4999999999999996 0.7322330470336313 0.7322330470336311
    endloop
  endfacet
  facet normal 0 -0.9238795325112867 -0.3826834323650899
    outer loop
      vertex 2.4999999999999996 0.7322330470336313 0.7322330470336311
      vertex 8 0.7322330470336313 0.7322330470336311
      vertex 8 0 2.4999999999999996
    endloop
  endfacet
  facet normal -5.550701427575673e-18 -0.9238795325112867 -0.3826834323650899
    outer loop
      vertex 2.4999999999999996 0.7322330470336313 0.7322330470336311
      vertex 8 0 2.4999999999999996
      vertex 2.4999999999999996 0 2.4999999999999996
    endloop
  endfacet
  facet normal -0.38268343236508984 -0.9238795325112867 0
    outer loop
      vertex 2.4999999999999996 0 2.4999999999999996
      vertex 2.4999999999999996 0 8.5
      vertex 0.7322330470336313 0.7322330470336311 8.5
    endloop
  endfacet
  facet normal -0.38268343236508984 -0.9238795325112867 4.582365602910713e-18
    outer loop
      vertex 2.4999999999999996 0 2.4999999999999996
      vertex 0.7322330470336313 0.7322330470336311 8.5
      vertex 0.7322330470336313 0.7322330470336311 2.4999999999999996
    endloop
  endfacet
  facet normal -0.9238795325112867 -0.38268343236509 0
    outer loop
      vertex 0.7322330470336313 0.7322330470336311 2.4999999999999996
      vertex 0.7322330470336313 0.7322330470336311 8.5
      vertex 0 2.4999999999999996 8.5
    endloop
  endfacet
  facet normal -0.9238795325112867 -0.38268343236509 -5.0881429752777006e-18
    outer loop
      vertex 0.7322330470336313 0.7322330470336311 2.4999999999999996
      vertex 0 2.4999999999999996 8.5
      vertex 0 2.4999999999999996 2.4999999999999996
    endloop
  endfacet
  facet normal -0.3826834323650899 0 -0.9238795325112868
    outer loop
      vertex 2.4999999999999996 2.4999999999999996 0
      vertex 0.7322330470336313 21.5 0.7322330470336311
      vertex 2.4999999999999996 21.5 0
    endloop
  endfacet
  facet normal -0.3826834323650899 1.4470628219718043e-18 -0.9238795325112868
    outer loop
      vertex 2.4999999999999996 2.4999999999999996 0
      vertex 0.7322330470336313 2.4999999999999996 0.7322330470336311
      vertex 0.7322330470336313 21.5 0.7322330470336311
    endloop
  endfacet
  facet normal -0.9238795325112866 0 -0.38268343236508984
    outer loop
      vertex 0.7322330470336313 2.4999999999999996 0.7322330470336311
      vertex 0 21.5 2.4999999999999996
      vertex 0.7322330470336313 21.5 0.7322330470336311
    endloop
  endfacet
  facet normal -0.9238795325112866 -1.6067819921929577e-18 -0.38268343236508984
    outer loop
      vertex 0.7322330470336313 2.4999999999999996 0.7322330470336311
      vertex 0 2.4999999999999996 2.4999999999999996
      vertex 0 21.5 2.4999999999999996
    endloop
  endfacet
  facet normal 0 -0.38268343236508984 -0.9238795325112866
    outer loop
      vertex 8 2.4999999999999996 0
      vertex 37.5 2.4999999999999996 0
      vertex 37.5 0.7322330470336313 0.7322330470336311
    endloop
  endfacet
  facet normal 9.320065633038738e-19 -0.38268343236508984 -0.9238795325112866
    outer loop
      vertex 8 2.4999999999999996 0
      vertex 37.5 0.7322330470336313 0.7322330470336311
      vertex 8 0.7322330470336313 0.7322330470336311
    endloop
  endfacet
  facet normal 0 -0.9238795325112867 -0.38268343236508995
    outer loop
      vertex 8 0.7322330470336313 0.7322330470336311
      vertex 37.5 0.7322330470336313 0.7322330470336311
      vertex 37.5 0 2.4999999999999996
    endloop
  endfacet
  facet normal -1.034876537344617e-18 -0.9238795325112867 -0.38268343236508995
    outer loop
      vertex 8 0.7322330470336313 0.7322330470336311
      vertex 37.5 0 2.4999999999999996
      vertex 8 0 2.4999999999999996
    endloop
  endfacet
  facet normal 0.3826834323650895 -0.9238795325112868 0
    outer loop
      vertex 5.5 0 3.5000000000000004
      vertex 7.267766952966369 0.7322330470336307 8.5
      vertex 5.5 0 8.5
    endloop
  endfacet
  facet normal -0.2157394052722663 -0.9523198086911442 0.21573940527226632
    outer loop
      vertex 5.5 0 3.5000000000000004
      vertex 8 0 6
      vertex 7.267766952966369 0.7322330470336307 8.5
    endloop
  endfacet
  facet normal 0.8628562094610169 -0.35740674433659325 0.3574067443365932
    outer loop
      vertex 8 0 6
      vertex 8 2.4999999999999996 8.5
      vertex 7.267766952966369 0.7322330470336307 8.5
    endloop
  endfacet
  facet normal 0.3826834323650898 0 0.9238795325112868
    outer loop
      vertex 10.5 2.4999999999999996 6
      vertex 10.5 21.5 6
      vertex 8.732233047033631 21.5 6.732233047033631
    endloop
  endfacet
  facet normal 0.3826834323650898 2.456855179685509e-19 0.9238795325112868
    outer loop
      vertex 10.5 2.4999999999999996 6
      vertex 8.732233047033631 21.5 6.732233047033631
      vertex 8.732233047033631 2.4999999999999996 6.732233047033631
    endloop
  endfacet
  facet normal 0.9238795325112868 0 0.3826834323650898
    outer loop
      vertex 8.732233047033631 2.4999999999999996 6.732233047033631
      vertex 8.732233047033631 21.5 6.732233047033631
      vertex 8 21.5 8.5
    endloop
  endfacet
  facet normal 0.9238795325112868 2.456855179685509e-19 0.3826834323650898
    outer loop
      vertex 8.732233047033631 2.4999999999999996 6.732233047033631
      vertex 8 21.5 8.5
      vertex 8 2.4999999999999996 8.5
    endloop
  endfacet
  facet normal 0 -0.3826834323650899 0.9238795325112867
    outer loop
      vertex 10.5 2.4999999999999996 6
      vertex 37.5 0.7322330470336313 5.267766952966369
      vertex 37.5 2.4999999999999996 6
    endloop
  endfacet
  facet normal 0.0254367715987542 -0.025436771598754203 0.9993527611915952
    outer loop
      vertex 10.5 2.4999999999999996 6
      vertex 8 0 6
      vertex 37.5 0.7322330470336313 5.267766952966369
    endloop
  endfacet
  facet normal 0.03241375813819587 -0.9233940671556222 0.3824823460307114
    outer loop
      vertex 8 0 6
      vertex 37.5 0 3.5000000000000004
      vertex 37.5 0.7322330470336313 5.267766952966369
    endloop
  endfacet
  facet normal 0 -1 0
    outer loop
      vertex 8 0 6
      vertex 5.5 0 3.5000000000000004
      vertex 37.5 0 3.5000000000000004
    endloop
  endfacet
  facet normal 0 -0.9238795325112868 0.38268343236508956
    outer loop
      vertex 2.4999999999999996 0 8.5
      vertex 5.5 0 8.5
      vertex 5.5 0.7322330470336307 10.267766952966369
    endloop
  endfacet
  facet normal 1.6410485107353027e-17 -0.9238795325112868 0.38268343236508956
    outer loop
      vertex 2.4999999999999996 0 8.5
      vertex 5.5 0.7322330470336307 10.267766952966369
      vertex 2.4999999999999996 0.7322330470336307 10.267766952966369
    endloop
  endfacet
  facet normal 0 -0.3826834323650897 0.9238795325112867
    outer loop
      vertex 2.4999999999999996 0.7322330470336307 10.267766952966369
      vertex 5.5 0.7322330470336307 10.267766952966369
      vertex 5.5 2.4999999999999996 11
    endloop
  endfacet
  facet normal -1.5560082804674886e-18 -0.3826834323650897 0.9238795325112867
    outer loop
      vertex 2.4999999999999996 0.7322330470336307 10.267766952966369
      vertex 5.5 2.4999999999999996 11
      vertex 2.4999999999999996 2.4999999999999996 11
    endloop
  endfacet
  facet normal -0.9238795325112868 0 0.3826834323650895
    outer loop
      vertex 0 2.4999999999999996 8.5
      vertex 0.7322330470336307 21.5 10.267766952966369
      vertex 0 21.5 8.5
    endloop
  endfacet
  facet normal -0.9238795325112868 2.591129227476794e-18 0.3826834323650895
    outer loop
      vertex 0 2.4999999999999996 8.5
      vertex 0.7322330470336307 2.4999999999999996 10.267766952966369
      vertex 0.7322330470336307 21.5 10.267766952966369
    endloop
  endfacet
  facet normal -0.3826834323650898 0 0.9238795325112868
    outer loop
      vertex 0.7322330470336307 2.4999999999999996 10.267766952966369
      vertex 2.4999999999999996 21.5 11
      vertex 0.7322330470336307 21.5 10.267766952966369
    endloop
  endfacet
  facet normal -0.3826834323650898 -2.456855179685509e-19 0.9238795325112868
    outer loop
      vertex 0.7322330470336307 2.4999999999999996 10.267766952966369
      vertex 2.4999999999999996 2.4999999999999996 11
      vertex 2.4999999999999996 21.5 11
    endloop
  endfacet
  facet normal 0.9238795325112868 0 0.3826834323650898
    outer loop
      vertex 8 2.4999999999999996 8.5
      vertex 8 21.5 8.5
      vertex 7.267766952966369 21.5 10.267766952966369
    endloop
  endfacet
  facet normal 0.9238795325112868 2.456855179685509e-19 0.3826834323650898
    outer loop
      vertex 8 2.4999999999999996 8.5
      vertex 7.267766952966369 21.5 10.267766952966369
      vertex 7.267766952966369 2.4999999999999996 10.267766952966369
    endloop
  endfacet
  facet normal 0.3826834323650898 0 0.9238795325112868
    outer loop
      vertex 7.267766952966369 2.4999999999999996 10.267766952966369
      vertex 7.267766952966369 21.5 10.267766952966369
      vertex 5.5 21.5 11
    endloop
  endfacet
  facet normal 0.3826834323650898 2.456855179685509e-19 0.9238795325112868
    outer loop
      vertex 7.267766952966369 2.4999999999999996 10.267766952966369
      vertex 5.5 21.5 11
      vertex 5.5 2.4999999999999996 11
    endloop
  endfacet
  facet normal 0 0.38268343236508956 -0.923879532511287
    outer loop
      vertex 2.4999999999999996 21.5 0
      vertex 8 23.26776695296637 0.7322330470336307
      vertex 8 21.5 0
    endloop
  endfacet
  facet normal 8.951173694919834e-18 0.38268343236508956 -0.923879532511287
    outer loop
      vertex 2.4999999999999996 21.5 0
      vertex 2.4999999999999996 23.26776695296637 0.7322330470336307
      vertex 8 23.26776695296637 0.7322330470336307
    endloop
  endfacet
  facet normal 0 0.9238795325112867 -0.3826834323650897
    outer loop
      vertex 2.4999999999999996 23.26776695296637 0.7322330470336307
      vertex 8 24 2.4999999999999996
      vertex 8 23.26776695296637 0.7322330470336307
    endloop
  endfacet
  facet normal -8.4873178934590305e-19 0.9238795325112867 -0.3826834323650897
    outer loop
      vertex 2.4999999999999996 23.26776695296637 0.7322330470336307
      vertex 2.4999999999999996 24 2.4999999999999996
      vertex 8 24 2.4999999999999996
    endloop
  endfacet
  facet normal -0.9238795325112868 0.38268343236508956 0
    outer loop
      vertex 0 21.5 2.4999999999999996
      vertex 0 21.5 8.5
      vertex 0.7322330470336307 23.26776695296637 8.5
    endloop
  endfacet
  facet normal -0.9238795325112868 0.38268343236508956 8.205242553676514e-18
    outer loop
      vertex 0 21.5 2.4999999999999996
      vertex 0.7322330470336307 23.26776695296637 8.5
      vertex 0.7322330470336307 23.26776695296637 2.4999999999999996
    endloop
  endfacet
  facet normal -0.3826834323650897 0.9238795325112867 0
    outer loop
      vertex 0.7322330470336307 23.26776695296637 2.4999999999999996
      vertex 0.7322330470336307 23.26776695296637 8.5
      vertex 2.4999999999999996 24 8.5
    endloop
  endfacet
  facet normal -0.3826834323650897 0.9238795325112867 -7.780041402337445e-19
    outer loop
      vertex 0.7322330470336307 23.26776695296637 2.4999999999999996
      vertex 2.4999999999999996 24 8.5
      vertex 2.4999999999999996 24 2.4999999999999996
    endloop
  endfacet
  facet normal 0 0.3826834323650895 -0.9238795325112868
    outer loop
      vertex 8 21.5 0
      vertex 37.5 23.26776695296637 0.7322330470336307
      vertex 37.5 21.5 0
    endloop
  endfacet
  facet normal 1.6688628922731892e-18 0.3826834323650895 -0.9238795325112868
    outer loop
      vertex 8 21.5 0
      vertex 8 23.26776695296637 0.7322330470336307
      vertex 37.5 23.26776695296637 0.7322330470336307
    endloop
  endfacet
  facet normal 0 0.9238795325112867 -0.3826834323650897
    outer loop
      vertex 8 23.26776695296637 0.7322330470336307
      vertex 37.5 24 2.4999999999999996
      vertex 37.5 23.26776695296637 0.7322330470336307
    endloop
  endfacet
  facet normal -1.5823813021703277e-19 0.9238795325112867 -0.3826834323650897
    outer loop
      vertex 8 23.26776695296637 0.7322330470336307
      vertex 8 24 2.4999999999999996
      vertex 37.5 24 2.4999999999999996
    endloop
  endfacet
  facet normal 0.8628562094610167 0.3574067443365932 0.3574067443365933
    outer loop
      vertex 8 21.5 8.5
      vertex 8 24 6.000000000000001
      vertex 7.267766952966369 23.26776695296637 8.5
    endloop
  endfacet
  facet normal 0.3574067443365932 0.8628562094610169 0.3574067443365933
    outer loop
      vertex 8 24 6.000000000000001
      vertex 5.5 24 8.5
      vertex 7.267766952966369 23.26776695296637 8.5
    endloop
  endfacet
  facet normal 0 1 0
    outer loop
      vertex 8 24 6.000000000000001
      vertex 5.5 24 3.5000000000000004
      vertex 5.5 24 8.5
    endloop
  endfacet
  facet normal 0 0.3826834323650897 0.9238795325112868
    outer loop
      vertex 10.5 21.5 6
      vertex 37.5 21.5 6
      vertex 37.5 23.26776695296637 5.267766952966369
    endloop
  endfacet
  facet normal 0.025436771598754217 0.02543677159875386 0.9993527611915952
    outer loop
      vertex 10.5 21.5 6
      vertex 37.5 23.26776695296637 5.267766952966369
      vertex 8 24 6.000000000000001
    endloop
  endfacet
  facet normal 0.03241375813819588 0.9233940671556223 0.38248234603071135
    outer loop
      vertex 8 24 6.000000000000001
      vertex 37.5 23.26776695296637 5.267766952966369
      vertex 37.5 24 3.5000000000000004
    endloop
  endfacet
  facet normal 0 1 0
    outer loop
      vertex 8 24 6.000000000000001
      vertex 37.5 24 3.5000000000000004
      vertex 5.5 24 3.5000000000000004
    endloop
  endfacet
  facet normal 0 0.3826834323650897 0.9238795325112867
    outer loop
      vertex 2.4999999999999996 21.5 11
      vertex 5.5 21.5 11
      vertex 5.5 23.26776695296637 10.267766952966369
    endloop
  endfacet
  facet normal 1.5560082804674886e-18 0.3826834323650897 0.9238795325112867
    outer loop
      vertex 2.4999999999999996 21.5 11
      vertex 5.5 23.26776695296637 10.267766952966369
      vertex 2.4999999999999996 23.26776695296637 10.267766952966369
    endloop
  endfacet
  facet normal 0 0.9238795325112867 0.3826834323650897
    outer loop
      vertex 2.4999999999999996 23.26776695296637 10.267766952966369
      vertex 5.5 23.26776695296637 10.267766952966369
      vertex 5.5 24 8.5
    endloop
  endfacet
  facet normal 1.5560082804674886e-18 0.9238795325112867 0.3826834323650897
    outer loop
      vertex 2.4999999999999996 23.26776695296637 10.267766952966369
      vertex 5.5 24 8.5
      vertex 2.4999999999999996 24 8.5
    endloop
  endfacet
  facet normal 0.9238795325112867 -0.38268343236508984 0
    outer loop
      vertex 40 2.4999999999999996 2.4999999999999996
      vertex 40 2.4999999999999996 3.5000000000000004
      vertex 39.26776695296637 0.7322330470336311 3.5000000000000004
    endloop
  endfacet
  facet normal 0.9238795325112867 -0.38268343236508984 5.747859793339698e-17
    outer loop
      vertex 40 2.4999999999999996 2.4999999999999996
      vertex 39.26776695296637 0.7322330470336311 3.5000000000000004
      vertex 39.26776695296637 0.7322330470336311 2.4999999999999996
    endloop
  endfacet
  facet normal 0.3826834323650897 -0.9238795325112867 0
    outer loop
      vertex 39.26776695296637 0.7322330470336311 2.4999999999999996
      vertex 39.26776695296637 0.7322330470336311 3.5000000000000004
      vertex 37.5 0 3.5000000000000004
    endloop
  endfacet
  facet normal 0.3826834323650897 -0.9238795325112867 -4.668024841402463e-18
    outer loop
      vertex 39.26776695296637 0.7322330470336311 2.4999999999999996
      vertex 37.5 0 3.5000000000000004
      vertex 37.5 0 2.4999999999999996
    endloop
  endfacet
  facet normal 0.3826834323650895 0 -0.9238795325112868
    outer loop
      vertex 37.5 2.4999999999999996 0
      vertex 37.5 21.5 0
      vertex 39.26776695296637 21.5 0.7322330470336307
    endloop
  endfacet
  facet normal 0.3826834323650895 2.591129227476794e-18 -0.9238795325112868
    outer loop
      vertex 37.5 2.4999999999999996 0
      vertex 39.26776695296637 21.5 0.7322330470336307
      vertex 39.26776695296637 2.4999999999999996 0.7322330470336307
    endloop
  endfacet
  facet normal 0.9238795325112868 0 -0.3826834323650898
    outer loop
      vertex 39.26776695296637 2.4999999999999996 0.7322330470336307
      vertex 39.26776695296637 21.5 0.7322330470336307
      vertex 40 21.5 2.4999999999999996
    endloop
  endfacet
  facet normal 0.9238795325112868 -2.456855179685509e-19 -0.3826834323650898
    outer loop
      vertex 39.26776695296637 2.4999999999999996 0.7322330470336307
      vertex 40 21.5 2.4999999999999996
      vertex 40 2.4999999999999996 2.4999999999999996
    endloop
  endfacet
  facet normal 0.3826834323650898 0 0.9238795325112868
    outer loop
      vertex 37.5 2.4999999999999996 6
      vertex 39.26776695296637 21.5 5.267766952966369
      vertex 37.5 21.5 6
    endloop
  endfacet
  facet normal 0.3826834323650898 2.456855179685509e-19 0.9238795325112868
    outer loop
      vertex 37.5 2.4999999999999996 6
      vertex 39.26776695296637 2.4999999999999996 5.267766952966369
      vertex 39.26776695296637 21.5 5.267766952966369
    endloop
  endfacet
  facet normal 0.9238795325112868 0 0.38268343236508984
    outer loop
      vertex 39.26776695296637 2.4999999999999996 5.267766952966369
      vertex 40 21.5 3.5000000000000004
      vertex 39.26776695296637 21.5 5.267766952966369
    endloop
  endfacet
  facet normal 0.9238795325112868 -3.0251893649156335e-18 0.38268343236508984
    outer loop
      vertex 39.26776695296637 2.4999999999999996 5.267766952966369
      vertex 40 2.4999999999999996 3.5000000000000004
      vertex 40 21.5 3.5000000000000004
    endloop
  endfacet
  facet normal 0.9238795325112867 0.3826834323650897 0
    outer loop
      vertex 40 21.5 2.4999999999999996
      vertex 39.26776695296637 23.26776695296637 3.5000000000000004
      vertex 40 21.5 3.5000000000000004
    endloop
  endfacet
  facet normal 0.9238795325112867 0.3826834323650897 4.668024841402463e-18
    outer loop
      vertex 40 21.5 2.4999999999999996
      vertex 39.26776695296637 23.26776695296637 2.4999999999999996
      vertex 39.26776695296637 23.26776695296637 3.5000000000000004
    endloop
  endfacet
  facet normal 0.3826834323650897 0.9238795325112867 0
    outer loop
      vertex 39.26776695296637 23.26776695296637 2.4999999999999996
      vertex 37.5 24 3.5000000000000004
      vertex 39.26776695296637 23.26776695296637 3.5000000000000004
    endloop
  endfacet
  facet normal 0.3826834323650897 0.9238795325112867 4.668024841402463e-18
    outer loop
      vertex 39.26776695296637 23.26776695296637 2.4999999999999996
      vertex 37.5 24 2.4999999999999996
      vertex 37.5 24 3.5000000000000004
    endloop
  endfacet
  facet normal -0.3574067443365933 -0.3574067443365933 -0.8628562094610167
    outer loop
      vertex 2.4999999999999996 2.4999999999999996 0
      vertex 2.4999999999999996 0.7322330470336313 0.7322330470336311
      vertex 0.7322330470336313 2.4999999999999996 0.7322330470336311
    endloop
  endfacet
  facet normal -0.5773502691896257 -0.5773502691896257 -0.5773502691896257
    outer loop
      vertex 2.4999999999999996 0.7322330470336313 0.7322330470336311
      vertex 0.7322330470336313 0.7322330470336311 2.4999999999999996
      vertex 0.7322330470336313 2.4999999999999996 0.7322330470336311
    endloop
  endfacet
  facet normal -0.8628562094610167 -0.35740674433659336 -0.35740674433659336
    outer loop
      vertex 0.7322330470336313 2.4999999999999996 0.7322330470336311
      vertex 0.7322330470336313 0.7322330470336311 2.4999999999999996
      vertex 0 2.4999999999999996 2.4999999999999996
    endloop
  endfacet
  facet normal -0.3574067443365933 -0.8628562094610167 -0.3574067443365934
    outer loop
      vertex 2.4999999999999996 0.7322330470336313 0.7322330470336311
      vertex 2.4999999999999996 0 2.4999999999999996
      vertex 0.7322330470336313 0.7322330470336311 2.4999999999999996
    endloop
  endfacet
  facet normal 0.38161424639204156 0.07469959306650487 0.9212982892344547
    outer loop
      vertex 10.5 2.4999999999999996 6
      vertex 8.732233047033631 2.4999999999999996 6.732233047033631
      vertex 8.751189350714824 2.169363584439057 6.751189350714825
    endloop
  endfacet
  facet normal 0.3886853172061665 -0.7031675726329271 0.5953814651010385
    outer loop
      vertex 10.5 2.4999999999999996 6
      vertex 8.751189350714824 2.169363584439057 6.751189350714825
      vertex 9.56717139871678 2.1554149220244816 6.202014565439602
    endloop
  endfacet
  facet normal 0.8282107338425294 -0.44314724407898604 0.34305611846054934
    outer loop
      vertex 8.732233047033631 2.4999999999999996 6.732233047033631
      vertex 8 2.4999999999999996 8.5
      vertex 8.202014565439601 2.1554149220244816 7.56717139871678
    endloop
  endfacet
  facet normal 0.8263642801850224 0.0793418455982614 0.5575185628939645
    outer loop
      vertex 8.732233047033631 2.4999999999999996 6.732233047033631
      vertex 8.202014565439601 2.1554149220244816 7.56717139871678
      vertex 8.751189350714824 2.169363584439057 6.751189350714825
    endloop
  endfacet
  facet normal 0.3950226690959416 -0.6495987572726407 0.6495987572726406
    outer loop
      vertex 8 2.4999999999999996 8.5
      vertex 8 0 6
      vertex 8.438635603388445 0.8615855545755822 6.594850120015185
    endloop
  endfacet
  facet normal 0.9790183415007759 0.027290510966468368 0.2019364132994819
    outer loop
      vertex 8 2.4999999999999996 8.5
      vertex 8.438635603388445 0.8615855545755822 6.594850120015185
      vertex 8.202014565439601 2.1554149220244816 7.56717139871678
    endloop
  endfacet
  facet normal 0.3089145311862428 -0.3089145311862429 0.8995241102071514
    outer loop
      vertex 8 0 6
      vertex 10.5 2.4999999999999996 6
      vertex 9.56717139871678 2.1554149220244816 6.202014565439602
    endloop
  endfacet
  facet normal 0.76403241283796 -0.5816770673310483 0.2791169315433162
    outer loop
      vertex 8 0 6
      vertex 9.56717139871678 2.1554149220244816 6.202014565439602
      vertex 8.438635603388445 0.8615855545755822 6.594850120015185
    endloop
  endfacet
  facet normal 0.5412141334702727 -0.22616788545824107 0.8098983574000936
    outer loop
      vertex 8.438635603388445 0.8615855545755822 6.594850120015185
      vertex 9.56717139871678 2.1554149220244816 6.202014565439602
      vertex 8.751189350714824 2.169363584439057 6.751189350714825
    endloop
  endfacet
  facet normal 0.8039227564910231 -0.2562918208278334 0.53667746754697
    outer loop
      vertex 8.751189350714824 2.169363584439057 6.751189350714825
      vertex 8.202014565439601 2.1554149220244816 7.56717139871678
      vertex 8.438635603388445 0.8615855545755822 6.594850120015185
    endloop
  endfacet
  facet normal -0.35740674433659336 -0.8628562094610168 0.357406744336593
    outer loop
      vertex 2.4999999999999996 0 8.5
      vertex 2.4999999999999996 0.7322330470336307 10.267766952966369
      vertex 0.7322330470336313 0.7322330470336311 8.5
    endloop
  endfacet
  facet normal -0.5773502691896258 -0.5773502691896258 0.5773502691896254
    outer loop
      vertex 2.4999999999999996 0.7322330470336307 10.267766952966369
      vertex 0.7322330470336307 2.4999999999999996 10.267766952966369
      vertex 0.7322330470336313 0.7322330470336311 8.5
    endloop
  endfacet
  facet normal -0.8628562094610169 -0.3574067443365934 0.35740674433659303
    outer loop
      vertex 0.7322330470336313 0.7322330470336311 8.5
      vertex 0.7322330470336307 2.4999999999999996 10.267766952966369
      vertex 0 2.4999999999999996 8.5
    endloop
  endfacet
  facet normal -0.3574067443365932 -0.3574067443365932 0.8628562094610168
    outer loop
      vertex 2.4999999999999996 0.7322330470336307 10.267766952966369
      vertex 2.4999999999999996 2.4999999999999996 11
      vertex 0.7322330470336307 2.4999999999999996 10.267766952966369
    endloop
  endfacet
  facet normal 0.35740674433659303 -0.862856209461017 0.35740674433659303
    outer loop
      vertex 5.5 0 8.5
      vertex 7.267766952966369 0.7322330470336307 8.5
      vertex 5.5 0.7322330470336307 10.267766952966369
    endloop
  endfacet
  facet normal 0.5773502691896257 -0.5773502691896257 0.5773502691896257
    outer loop
      vertex 7.267766952966369 0.7322330470336307 8.5
      vertex 7.267766952966369 2.4999999999999996 10.267766952966369
      vertex 5.5 0.7322330470336307 10.267766952966369
    endloop
  endfacet
  facet normal 0.3574067443365932 -0.3574067443365932 0.8628562094610168
    outer loop
      vertex 5.5 0.7322330470336307 10.267766952966369
      vertex 7.267766952966369 2.4999999999999996 10.267766952966369
      vertex 5.5 2.4999999999999996 11
    endloop
  endfacet
  facet normal 0.8628562094610168 -0.3574067443365932 0.3574067443365932
    outer loop
      vertex 7.267766952966369 0.7322330470336307 8.5
      vertex 8 2.4999999999999996 8.5
      vertex 7.267766952966369 2.4999999999999996 10.267766952966369
    endloop
  endfacet
  facet normal -0.35740674433659336 0.357406744336593 -0.8628562094610168
    outer loop
      vertex 2.4999999999999996 21.5 0
      vertex 0.7322330470336313 21.5 0.7322330470336311
      vertex 2.4999999999999996 23.26776695296637 0.7322330470336307
    endloop
  endfacet
  facet normal -0.5773502691896258 0.5773502691896254 -0.5773502691896258
    outer loop
      vertex 0.7322330470336313 21.5 0.7322330470336311
      vertex 0.7322330470336307 23.26776695296637 2.4999999999999996
      vertex 2.4999999999999996 23.26776695296637 0.7322330470336307
    endloop
  endfacet
  facet normal -0.3574067443365932 0.8628562094610168 -0.3574067443365932
    outer loop
      vertex 2.4999999999999996 23.26776695296637 0.7322330470336307
      vertex 0.7322330470336307 23.26776695296637 2.4999999999999996
      vertex 2.4999999999999996 24 2.4999999999999996
    endloop
  endfacet
  facet normal -0.8628562094610169 0.35740674433659303 -0.3574067443365934
    outer loop
      vertex 0.7322330470336313 21.5 0.7322330470336311
      vertex 0 21.5 2.4999999999999996
      vertex 0.7322330470336307 23.26776695296637 2.4999999999999996
    endloop
  endfacet
  facet normal 0.3816142463920415 -0.07469959306650505 0.9212982892344546
    outer loop
      vertex 10.5 21.5 6
      vertex 8.751189350714824 21.830636415560942 6.751189350714825
      vertex 8.732233047033631 21.5 6.732233047033631
    endloop
  endfacet
  facet normal 0.3886853172061655 0.7031675726329301 0.5953814651010355
    outer loop
      vertex 10.5 21.5 6
      vertex 9.56717139871678 21.844585077975516 6.202014565439602
      vertex 8.751189350714824 21.830636415560942 6.751189350714825
    endloop
  endfacet
  facet normal 0.8282107338425286 0.44314724407898787 0.343056118460549
    outer loop
      vertex 8.732233047033631 21.5 6.732233047033631
      vertex 8.202014565439601 21.844585077975516 7.56717139871678
      vertex 8 21.5 8.5
    endloop
  endfacet
  facet normal 0.8263642801850224 -0.07934184559826152 0.5575185628939645
    outer loop
      vertex 8.732233047033631 21.5 6.732233047033631
      vertex 8.751189350714824 21.830636415560942 6.751189350714825
      vertex 8.202014565439601 21.844585077975516 7.56717139871678
    endloop
  endfacet
  facet normal 0.3950226690959437 0.6495987572726398 0.6495987572726402
    outer loop
      vertex 8 21.5 8.5
      vertex 8.438635603388445 23.138414445424416 6.594850120015185
      vertex 8 24 6.000000000000001
    endloop
  endfacet
  facet normal 0.9790183415007759 -0.027290510966468257 0.20193641329948198
    outer loop
      vertex 8 21.5 8.5
      vertex 8.202014565439601 21.844585077975516 7.56717139871678
      vertex 8.438635603388445 23.138414445424416 6.594850120015185
    endloop
  endfacet
  facet normal 0.30891453118624196 0.3089145311862417 0.8995241102071522
    outer loop
      vertex 8 24 6.000000000000001
      vertex 9.56717139871678 21.844585077975516 6.202014565439602
      vertex 10.5 21.5 6
    endloop
  endfacet
  facet normal 0.7640324128379602 0.5816770673310477 0.27911693154331696
    outer loop
      vertex 8 24 6.000000000000001
      vertex 8.438635603388445 23.138414445424416 6.594850120015185
      vertex 9.56717139871678 21.844585077975516 6.202014565439602
    endloop
  endfacet
  facet normal 0.5412141334702729 0.22616788545824118 0.8098983574000934
    outer loop
      vertex 8.438635603388445 23.138414445424416 6.594850120015185
      vertex 8.751189350714824 21.830636415560942 6.751189350714825
      vertex 9.56717139871678 21.844585077975516 6.202014565439602
    endloop
  endfacet
  facet normal 0.8039227564910228 0.25629182082783347 0.5366774675469703
    outer loop
      vertex 8.751189350714824 21.830636415560942 6.751189350714825
      vertex 8.438635603388445 23.138414445424416 6.594850120015185
      vertex 8.202014565439601 21.844585077975516 7.56717139871678
    endloop
  endfacet
  facet normal -0.862856209461017 0.35740674433659303 0.35740674433659303
    outer loop
      vertex 0 21.5 8.5
      vertex 0.7322330470336307 21.5 10.267766952966369
      vertex 0.7322330470336307 23.26776695296637 8.5
    endloop
  endfacet
  facet normal -0.5773502691896257 0.5773502691896257 0.5773502691896257
    outer loop
      vertex 0.7322330470336307 21.5 10.267766952966369
      vertex 2.4999999999999996 23.26776695296637 10.267766952966369
      vertex 0.7322330470336307 23.26776695296637 8.5
    endloop
  endfacet
  facet normal -0.3574067443365932 0.8628562094610168 0.3574067443365932
    outer loop
      vertex 0.7322330470336307 23.26776695296637 8.5
      vertex 2.4999999999999996 23.26776695296637 10.267766952966369
      vertex 2.4999999999999996 24 8.5
    endloop
  endfacet
  facet normal -0.3574067443365932 0.3574067443365932 0.8628562094610168
    outer loop
      vertex 0.7322330470336307 21.5 10.267766952966369
      vertex 2.4999999999999996 21.5 11
      vertex 2.4999999999999996 23.26776695296637 10.267766952966369
    endloop
  endfacet
  facet normal 0.8628562094610168 0.3574067443365932 0.3574067443365932
    outer loop
      vertex 8 21.5 8.5
      vertex 7.267766952966369 23.26776695296637 8.5
      vertex 7.267766952966369 21.5 10.267766952966369
    endloop
  endfacet
  facet normal 0.5773502691896257 0.5773502691896257 0.5773502691896257
    outer loop
      vertex 7.267766952966369 23.26776695296637 8.5
      vertex 5.5 23.26776695296637 10.267766952966369
      vertex 7.267766952966369 21.5 10.267766952966369
    endloop
  endfacet
  facet normal 0.3574067443365932 0.3574067443365932 0.8628562094610168
    outer loop
      vertex 7.267766952966369 21.5 10.267766952966369
      vertex 5.5 23.26776695296637 10.267766952966369
      vertex 5.5 21.5 11
    endloop
  endfacet
  facet normal 0.3574067443365932 0.8628562094610168 0.3574067443365932
    outer loop
      vertex 7.267766952966369 23.26776695296637 8.5
      vertex 5.5 24 8.5
      vertex 5.5 23.26776695296637 10.267766952966369
    endloop
  endfacet
  facet normal 0.357406744336593 -0.35740674433659336 -0.8628562094610168
    outer loop
      vertex 37.5 2.4999999999999996 0
      vertex 39.26776695296637 2.4999999999999996 0.7322330470336307
      vertex 37.5 0.7322330470336313 0.7322330470336311
    endloop
  endfacet
  facet normal 0.5773502691896255 -0.577350269189626 -0.5773502691896258
    outer loop
      vertex 39.26776695296637 2.4999999999999996 0.7322330470336307
      vertex 39.26776695296637 0.7322330470336311 2.4999999999999996
      vertex 37.5 0.7322330470336313 0.7322330470336311
    endloop
  endfacet
  facet normal 0.35740674433659314 -0.8628562094610168 -0.3574067443365934
    outer loop
      vertex 37.5 0.7322330470336313 0.7322330470336311
      vertex 39.26776695296637 0.7322330470336311 2.4999999999999996
      vertex 37.5 0 2.4999999999999996
    endloop
  endfacet
  facet normal 0.8628562094610168 -0.35740674433659325 -0.35740674433659314
    outer loop
      vertex 39.26776695296637 2.4999999999999996 0.7322330470336307
      vertex 40 2.4999999999999996 2.4999999999999996
      vertex 39.26776695296637 0.7322330470336311 2.4999999999999996
    endloop
  endfacet
  facet normal 0.8628562094610168 -0.3574067443365933 0.3574067443365933
    outer loop
      vertex 40 2.4999999999999996 3.5000000000000004
      vertex 39.26776695296637 2.4999999999999996 5.267766952966369
      vertex 39.26776695296637 0.7322330470336311 3.5000000000000004
    endloop
  endfacet
  facet normal 0.5773502691896256 -0.5773502691896258 0.5773502691896258
    outer loop
      vertex 39.26776695296637 2.4999999999999996 5.267766952966369
      vertex 37.5 0.7322330470336313 5.267766952966369
      vertex 39.26776695296637 0.7322330470336311 3.5000000000000004
    endloop
  endfacet
  facet normal 0.35740674433659314 -0.8628562094610168 0.3574067443365934
    outer loop
      vertex 39.26776695296637 0.7322330470336311 3.5000000000000004
      vertex 37.5 0.7322330470336313 5.267766952966369
      vertex 37.5 0 3.5000000000000004
    endloop
  endfacet
  facet normal 0.3574067443365932 -0.3574067443365933 0.8628562094610168
    outer loop
      vertex 39.26776695296637 2.4999999999999996 5.267766952966369
      vertex 37.5 2.4999999999999996 6
      vertex 37.5 0.7322330470336313 5.267766952966369
    endloop
  endfacet
  facet normal 0.35740674433659303 0.35740674433659303 -0.862856209461017
    outer loop
      vertex 37.5 21.5 0
      vertex 37.5 23.26776695296637 0.7322330470336307
      vertex 39.26776695296637 21.5 0.7322330470336307
    endloop
  endfacet
  facet normal 0.5773502691896257 0.5773502691896257 -0.5773502691896257
    outer loop
      vertex 37.5 23.26776695296637 0.7322330470336307
      vertex 39.26776695296637 23.26776695296637 2.4999999999999996
      vertex 39.26776695296637 21.5 0.7322330470336307
    endloop
  endfacet
  facet normal 0.8628562094610168 0.3574067443365932 -0.3574067443365932
    outer loop
      vertex 39.26776695296637 21.5 0.7322330470336307
      vertex 39.26776695296637 23.26776695296637 2.4999999999999996
      vertex 40 21.5 2.4999999999999996
    endloop
  endfacet
  facet normal 0.3574067443365932 0.8628562094610168 -0.3574067443365932
    outer loop
      vertex 37.5 23.26776695296637 0.7322330470336307
      vertex 37.5 24 2.4999999999999996
      vertex 39.26776695296637 23.26776695296637 2.4999999999999996
    endloop
  endfacet
  facet normal 0.3574067443365932 0.3574067443365932 0.8628562094610168
    outer loop
      vertex 37.5 21.5 6
      vertex 39.26776695296637 21.5 5.267766952966369
      vertex 37.5 23.26776695296637 5.267766952966369
    endloop
  endfacet
  facet normal 0.5773502691896257 0.5773502691896257 0.5773502691896258
    outer loop
      vertex 39.26776695296637 21.5 5.267766952966369
      vertex 39.26776695296637 23.26776695296637 3.5000000000000004
      vertex 37.5 23.26776695296637 5.267766952966369
    endloop
  endfacet
  facet normal 0.3574067443365932 0.8628562094610169 0.3574067443365933
    outer loop
      vertex 37.5 23.26776695296637 5.267766952966369
      vertex 39.26776695296637 23.26776695296637 3.5000000000000004
      vertex 37.5 24 3.5000000000000004
    endloop
  endfacet
  facet normal 0.8628562094610169 0.3574067443365932 0.3574067443365933
    outer loop
      vertex 39.26776695296637 21.5 5.267766952966369
      vertex 40 21.5 3.5000000000000004
      vertex 39.26776695296637 23.26776695296637 3.5000000000000004
    endloop
  endfacet
endsolid OpenSCAD_Model
