solid OpenSCAD_Model
  facet normal 0 0 -1
    outer loop
      vertex 8 2.9999999999999996 0
      vertex 2.9999999999999996 2.9999999999999996 0
      vertex 2.9999999999999996 21 0
    endloop
  endfacet
  facet normal 0 0 -1
    outer loop
      vertex 8 2.9999999999999996 0
      vertex 2.9999999999999996 21 0
      vertex 8 21 0
    endloop
  endfacet
  facet normal 0 0 -1
    outer loop
      vertex 8 2.9999999999999996 0
      vertex 8 21 0
      vertex 37 21 0
    endloop
  endfacet
  facet normal 0 0 -1
    outer loop
      vertex 37 21 0
      vertex 37 2.9999999999999996 0
      vertex 8 2.9999999999999996 0
    endloop
  endfacet
  facet normal 0 0 1
    outer loop
      vertex 11 21 6
      vertex 11 2.9999999999999996 6
      vertex 37 2.9999999999999996 6
    endloop
  endfacet
  facet normal 0 0 1
    outer loop
      vertex 37 2.9999999999999996 6
      vertex 37 21 6
      vertex 11 21 6
    endloop
  endfacet
  facet normal 0 -1 0
    outer loop
      vertex 2.9999999999999996 0 8
      vertex 2.9999999999999996 0 2.9999999999999996
      vertex 4.363636363636363 0 6
    endloop
  endfacet
  facet normal 0 -1 0
    outer loop
      vertex 5 0 8
      vertex 4.363636363636363 0 6
      vertex 5 0 3.0000000000000004
    endloop
  endfacet
  facet normal 0 -1 0
    outer loop
      vertex 2.9999999999999996 0 8
      vertex 4.363636363636363 0 6
      vertex 5 0 8
    endloop
  endfacet
  facet normal 0 -1 0
    outer loop
      vertex 8 0 2.9999999999999996
      vertex 5 0 3.0000000000000004
      vertex 2.9999999999999996 0 2.9999999999999996
    endloop
  endfacet
  facet normal 0 -1 0
    outer loop
      vertex 5 0 3.0000000000000004
      vertex 4.363636363636363 0 6
      vertex 2.9999999999999996 0 2.9999999999999996
    endloop
  endfacet
  facet normal 0 -1 0
    outer loop
      vertex 5 0 3.0000000000000004
      vertex 8 0 2.9999999999999996
      vertex 37 0 2.9999999999999996
    endloop
  endfacet
  facet normal -1 0 0
    outer loop
      vertex 0 21 2.9999999999999996
      vertex 0 2.9999999999999996 2.9999999999999996
      vertex 0 2.9999999999999996 8
    endloop
  endfacet
  facet normal -1 0 0
    outer loop
      vertex 0 2.9999999999999996 8
      vertex 0 21 8
      vertex 0 21 2.9999999999999996
    endloop
  endfacet
  facet normal 0 0 1
    outer loop
      vertex 2.9999999999999996 21 11
      vertex 2.9999999999999996 2.9999999999999996 11
      vertex 5 2.9999999999999996 11
    endloop
  endfacet
  facet normal 0 0 1
    outer loop
      vertex 5 2.9999999999999996 11
      vertex 5 21 11
      vertex 2.9999999999999996 21 11
    endloop
  endfacet
  facet normal -1 0 0
    outer loop
      vertex 8 2.9999999999999996 8
      vertex 8 2.9999999999999996 9
      vertex 8 21 8
    endloop
  endfacet
  facet normal -1 0 0
    outer loop
      vertex 8 21 8
      vertex 8 2.9999999999999996 9
      vertex 8 21 9
    endloop
  endfacet
  facet normal 0 1 0
    outer loop
      vertex 5.569620253164557 24 3.3417721518987342
      vertex 5 24 3.0000000000000004
      vertex 2.9999999999999996 24 2.9999999999999996
    endloop
  endfacet
  facet normal 0 1 0
    outer loop
      vertex 2.9999999999999996 24 2.9999999999999996
      vertex 2.9999999999999996 24 8
      vertex 5.569620253164557 24 3.3417721518987342
    endloop
  endfacet
  facet normal 0 1 0
    outer loop
      vertex 2.9999999999999996 24 8
      vertex 5 24 8
      vertex 5 24 3.0000000000000004
    endloop
  endfacet
  facet normal 0 -1 0
    outer loop
      vertex 5.569620253164557 24 3.3417721518987342
      vertex 2.9999999999999996 24 8
      vertex 5 24 3.0000000000000004
    endloop
  endfacet
  facet normal 0 1 0
    outer loop
      vertex 5 24 3.0000000000000004
      vertex 8 24 2.9999999999999996
      vertex 2.9999999999999996 24 2.9999999999999996
    endloop
  endfacet
  facet normal 0 1 0
    outer loop
      vertex 37 24 2.9999999999999996
      vertex 8 24 2.9999999999999996
      vertex 5 24 3.0000000000000004
    endloop
  endfacet
  facet normal 0 -0.2588190451025207 -0.9659258262890683
    outer loop
      vertex 2.9999999999999996 2.9999999999999996 0
      vertex 8 2.9999999999999996 0
      vertex 8 1.4999999999999996 0.401923788646684
    endloop
  endfacet
  facet normal 0 -0.2588190451025207 -0.9659258262890683
    outer loop
      vertex 2.9999999999999996 2.9999999999999996 0
      vertex 8 1.4999999999999996 0.401923788646684
      vertex 2.9999999999999996 1.4999999999999996 0.401923788646684
    endloop
  endfacet
  facet normal 0 -0.7071067811865477 -0.7071067811865474
    outer loop
      vertex 2.9999999999999996 1.4999999999999996 0.401923788646684
      vertex 8 1.4999999999999996 0.401923788646684
      vertex 8 0.401923788646684 1.5
    endloop
  endfacet
  facet normal -1.3654457794379565e-17 -0.7071067811865477 -0.7071067811865474
    outer loop
      vertex 2.9999999999999996 1.4999999999999996 0.401923788646684
      vertex 8 0.401923788646684 1.5
      vertex 2.9999999999999996 0.401923788646684 1.5
    endloop
  endfacet
  facet normal 0 -0.9659258262890683 -0.2588190451025208
    outer loop
      vertex 2.9999999999999996 0.401923788646684 1.5
      vertex 8 0.401923788646684 1.5
      vertex 8 0 2.9999999999999996
    endloop
  endfacet
  facet normal -5.6094000846201845e-18 -0.9659258262890683 -0.2588190451025208
    outer loop
      vertex 2.9999999999999996 0.401923788646684 1.5
      vertex 8 0 2.9999999999999996
      vertex 2.9999999999999996 0 2.9999999999999996
    endloop
  endfacet
  facet normal -0.2588190451025207 -0.9659258262890683 0
    outer loop
      vertex 2.9999999999999996 0 2.9999999999999996
      vertex 2.9999999999999996 0 8
      vertex 1.4999999999999996 0.401923788646684 8
    endloop
  endfacet
  facet normal -0.2588190451025207 -0.9659258262890683 0
    outer loop
      vertex 2.9999999999999996 0 2.9999999999999996
      vertex 1.4999999999999996 0.401923788646684 8
      vertex 1.4999999999999996 0.401923788646684 2.9999999999999996
    endloop
  endfacet
  facet normal -0.7071067811865477 -0.7071067811865474 0
    outer loop
      vertex 1.4999999999999996 0.401923788646684 2.9999999999999996
      vertex 1.4999999999999996 0.401923788646684 8
      vertex 0.401923788646684 1.5 8
    endloop
  endfacet
  facet normal -0.7071067811865477 -0.7071067811865474 -1.3654457794379565e-17
    outer loop
      vertex 1.4999999999999996 0.401923788646684 2.9999999999999996
      vertex 0.401923788646684 1.5 8
      vertex 0.401923788646684 1.5 2.9999999999999996
    endloop
  endfacet
  facet normal -0.9659258262890683 -0.2588190451025208 0
    outer loop
      vertex 0.401923788646684 1.5 2.9999999999999996
      vertex 0.401923788646684 1.5 8
      vertex 0 2.9999999999999996 8
    endloop
  endfacet
  facet normal -0.9659258262890683 -0.2588190451025208 -5.6094000846201845e-18
    outer loop
      vertex 0.401923788646684 1.5 2.9999999999999996
      vertex 0 2.9999999999999996 8
      vertex 0 2.9999999999999996 2.9999999999999996
    endloop
  endfacet
  facet normal -0.2588190451025207 0 -0.9659258262890682
    outer loop
      vertex 2.9999999999999996 2.9999999999999996 0
      vertex 1.4999999999999996 21 0.401923788646684
      vertex 2.9999999999999996 21 0
    endloop
  endfacet
  facet normal -0.2588190451025207 0 -0.9659258262890682
    outer loop
      vertex 2.9999999999999996 2.9999999999999996 0
      vertex 1.4999999999999996 2.9999999999999996 0.401923788646684
      vertex 1.4999999999999996 21 0.401923788646684
    endloop
  endfacet
  facet normal -0.7071067811865477 0 -0.7071067811865474
    outer loop
      vertex 1.4999999999999996 2.9999999999999996 0.401923788646684
      vertex 0.401923788646684 21 1.5
      vertex 1.4999999999999996 21 0.401923788646684
    endloop
  endfacet
  facet normal -0.7071067811865477 -3.7929049428832125e-18 -0.7071067811865474
    outer loop
      vertex 1.4999999999999996 2.9999999999999996 0.401923788646684
      vertex 0.401923788646684 2.9999999999999996 1.5
      vertex 0.401923788646684 21 1.5
    endloop
  endfacet
  facet normal -0.9659258262890682 0 -0.2588190451025208
    outer loop
      vertex 0.401923788646684 2.9999999999999996 1.5
      vertex 0 21 2.9999999999999996
      vertex 0.401923788646684 21 1.5
    endloop
  endfacet
  facet normal -0.9659258262890682 -1.5581666901722734e-18 -0.2588190451025208
    outer loop
      vertex 0.401923788646684 2.9999999999999996 1.5
      vertex 0 2.9999999999999996 2.9999999999999996
      vertex 0 21 2.9999999999999996
    endloop
  endfacet
  facet normal 0 -0.25881904510252074 -0.9659258262890683
    outer loop
      vertex 8 2.9999999999999996 0
      vertex 37 2.9999999999999996 0
      vertex 37 1.4999999999999996 0.401923788646684
    endloop
  endfacet
  facet normal 0 -0.25881904510252074 -0.9659258262890683
    outer loop
      vertex 8 2.9999999999999996 0
      vertex 37 1.4999999999999996 0.401923788646684
      vertex 8 1.4999999999999996 0.401923788646684
    endloop
  endfacet
  facet normal 0 -0.7071067811865477 -0.7071067811865474
    outer loop
      vertex 8 1.4999999999999996 0.401923788646684
      vertex 37 1.4999999999999996 0.401923788646684
      vertex 37 0.401923788646684 1.5
    endloop
  endfacet
  facet normal -2.354216861099925e-18 -0.7071067811865477 -0.7071067811865474
    outer loop
      vertex 8 1.4999999999999996 0.401923788646684
      vertex 37 0.401923788646684 1.5
      vertex 8 0.401923788646684 1.5
    endloop
  endfacet
  facet normal 0 -0.9659258262890682 -0.2588190451025208
    outer loop
      vertex 8 0.401923788646684 1.5
      vertex 37 0.401923788646684 1.5
      vertex 37 0 2.9999999999999996
    endloop
  endfacet
  facet normal -9.671379456241696e-19 -0.9659258262890682 -0.2588190451025208
    outer loop
      vertex 8 0.401923788646684 1.5
      vertex 37 0 2.9999999999999996
      vertex 8 0 2.9999999999999996
    endloop
  endfacet
  facet normal 0.2588190451025207 -0.9659258262890683 0
    outer loop
      vertex 5 0 3.0000000000000004
      vertex 6.5 0.401923788646684 8
      vertex 5 0 8
    endloop
  endfacet
  facet normal -0.08593866607642946 -0.9907074744667075 0.10541938013857824
    outer loop
      vertex 5 0 3.0000000000000004
      vertex 7.226681596905676 0 4.815207469095904
      vertex 6.5 0.401923788646684 8
    endloop
  endfacet
  facet normal 0.6859006732911761 -0.6859006732911763 0.24306487355729176
    outer loop
      vertex 7.226681596905676 0 4.815207469095904
      vertex 7.598076211353316 1.4999999999999996 8
      vertex 6.5 0.401923788646684 8
    endloop
  endfacet
  facet normal -0.5169405854809976 -0.7496136296716144 0.4133422761986862
    outer loop
      vertex 7.226681596905676 0 4.815207469095904
      vertex 8 0.773318403094323 7.184792530904095
      vertex 7.598076211353316 1.4999999999999996 8
    endloop
  endfacet
  facet normal 0.788734935618574 -0.21134088904121043 0.5772627044544231
    outer loop
      vertex 8 0.773318403094323 7.184792530904095
      vertex 8 2.9999999999999996 8
      vertex 7.598076211353316 1.4999999999999996 8
    endloop
  endfacet
  facet normal -1 0 0
    outer loop
      vertex 8 0.773318403094323 7.184792530904095
      vertex 8 2.9999999999999996 9
      vertex 8 2.9999999999999996 8
    endloop
  endfacet
  facet normal 0.2588190451025207 0 0.9659258262890682
    outer loop
      vertex 11 2.9999999999999996 6
      vertex 11 21 6
      vertex 9.5 21 6.401923788646684
    endloop
  endfacet
  facet normal 0.2588190451025207 0 0.9659258262890682
    outer loop
      vertex 11 2.9999999999999996 6
      vertex 9.5 21 6.401923788646684
      vertex 9.5 2.9999999999999996 6.401923788646684
    endloop
  endfacet
  facet normal 0.7071067811865476 0 0.7071067811865476
    outer loop
      vertex 9.5 2.9999999999999996 6.401923788646684
      vertex 9.5 21 6.401923788646684
      vertex 8.401923788646684 21 7.5
    endloop
  endfacet
  facet normal 0.7071067811865476 2.592580903434907e-18 0.7071067811865476
    outer loop
      vertex 9.5 2.9999999999999996 6.401923788646684
      vertex 8.401923788646684 21 7.5
      vertex 8.401923788646684 2.9999999999999996 7.5
    endloop
  endfacet
  facet normal 0.9659258262890682 0 0.2588190451025207
    outer loop
      vertex 8.401923788646684 2.9999999999999996 7.5
      vertex 8.401923788646684 21 7.5
      vertex 8 21 9
    endloop
  endfacet
  facet normal 0.9659258262890682 0 0.2588190451025207
    outer loop
      vertex 8.401923788646684 2.9999999999999996 7.5
      vertex 8 21 9
      vertex 8 2.9999999999999996 9
    endloop
  endfacet
  facet normal 0 -0.25881904510252074 0.9659258262890683
    outer loop
      vertex 11 2.9999999999999996 6
      vertex 37 1.4999999999999996 5.598076211353316
      vertex 37 2.9999999999999996 6
    endloop
  endfacet
  facet normal 0.014761550060114991 -0.012033725864438839 0.9998186265926646
    outer loop
      vertex 11 2.9999999999999996 6
      vertex 9.184792530904096 0.7733184030943221 6
      vertex 37 1.4999999999999996 5.598076211353316
    endloop
  endfacet
  facet normal 0.028679141139299324 -0.7068159261305282 0.7068159261305279
    outer loop
      vertex 9.184792530904096 0.7733184030943221 6
      vertex 37 0.401923788646684 4.5
      vertex 37 1.4999999999999996 5.598076211353316
    endloop
  endfacet
  facet normal 0.02595993190741246 -0.745521572152525 0.6659757258268427
    outer loop
      vertex 9.184792530904096 0.7733184030943221 6
      vertex 6.815207469095905 0 5.226681596905677
      vertex 37 0.401923788646684 4.5
    endloop
  endfacet
  facet normal 0.019089168570744944 -0.9657498203276428 0.2587718844472936
    outer loop
      vertex 6.815207469095905 0 5.226681596905677
      vertex 37 0 2.9999999999999996
      vertex 37 0.401923788646684 4.5
    endloop
  endfacet
  facet normal 0 -1 0
    outer loop
      vertex 6.815207469095905 0 5.226681596905677
      vertex 5 0 3.0000000000000004
      vertex 37 0 2.9999999999999996
    endloop
  endfacet
  facet normal 0 -0.9659258262890682 0.2588190451025207
    outer loop
      vertex 2.9999999999999996 0 8
      vertex 5 0 8
      vertex 5 0.401923788646684 9.5
    endloop
  endfacet
  facet normal 0 -0.9659258262890682 0.2588190451025207
    outer loop
      vertex 2.9999999999999996 0 8
      vertex 5 0.401923788646684 9.5
      vertex 2.9999999999999996 0.401923788646684 9.5
    endloop
  endfacet
  facet normal 0 -0.7071067811865477 0.7071067811865474
    outer loop
      vertex 2.9999999999999996 0.401923788646684 9.5
      vertex 5 0.401923788646684 9.5
      vertex 5 1.4999999999999996 10.598076211353316
    endloop
  endfacet
  facet normal 3.413614448594891e-17 -0.7071067811865477 0.7071067811865474
    outer loop
      vertex 2.9999999999999996 0.401923788646684 9.5
      vertex 5 1.4999999999999996 10.598076211353316
      vertex 2.9999999999999996 1.4999999999999996 10.598076211353316
    endloop
  endfacet
  facet normal 0 -0.2588190451025207 0.9659258262890682
    outer loop
      vertex 2.9999999999999996 1.4999999999999996 10.598076211353316
      vertex 5 1.4999999999999996 10.598076211353316
      vertex 5 2.9999999999999996 11
    endloop
  endfacet
  facet normal 0 -0.2588190451025207 0.9659258262890682
    outer loop
      vertex 2.9999999999999996 1.4999999999999996 10.598076211353316
      vertex 5 2.9999999999999996 11
      vertex 2.9999999999999996 2.9999999999999996 11
    endloop
  endfacet
  facet normal -0.9659258262890682 0 0.2588190451025207
    outer loop
      vertex 0 2.9999999999999996 8
      vertex 0.401923788646684 21 9.5
      vertex 0 21 8
    endloop
  endfacet
  facet normal -0.9659258262890682 0 0.2588190451025207
    outer loop
      vertex 0 2.9999999999999996 8
      vertex 0.401923788646684 2.9999999999999996 9.5
      vertex 0.401923788646684 21 9.5
    endloop
  endfacet
  facet normal -0.7071067811865477 0 0.7071067811865474
    outer loop
      vertex 0.401923788646684 2.9999999999999996 9.5
      vertex 1.4999999999999996 21 10.598076211353316
      vertex 0.401923788646684 21 9.5
    endloop
  endfacet
  facet normal -0.7071067811865477 3.7929049428832125e-18 0.7071067811865474
    outer loop
      vertex 0.401923788646684 2.9999999999999996 9.5
      vertex 1.4999999999999996 2.9999999999999996 10.598076211353316
      vertex 1.4999999999999996 21 10.598076211353316
    endloop
  endfacet
  facet normal -0.2588190451025207 0 0.9659258262890682
    outer loop
      vertex 1.4999999999999996 2.9999999999999996 10.598076211353316
      vertex 2.9999999999999996 21 11
      vertex 1.4999999999999996 21 10.598076211353316
    endloop
  endfacet
  facet normal -0.2588190451025207 0 0.9659258262890682
    outer loop
      vertex 1.4999999999999996 2.9999999999999996 10.598076211353316
      vertex 2.9999999999999996 2.9999999999999996 11
      vertex 2.9999999999999996 21 11
    endloop
  endfacet
  facet normal 0.9659258262890682 0 0.2588190451025207
    outer loop
      vertex 8 2.9999999999999996 8
      vertex 8 21 8
      vertex 7.598076211353316 21 9.5
    endloop
  endfacet
  facet normal 0.9659258262890682 0 0.2588190451025207
    outer loop
      vertex 8 2.9999999999999996 8
      vertex 7.598076211353316 21 9.5
      vertex 7.598076211353316 2.9999999999999996 9.5
    endloop
  endfacet
  facet normal 0.7071067811865476 0 0.7071067811865476
    outer loop
      vertex 7.598076211353316 2.9999999999999996 9.5
      vertex 7.598076211353316 21 9.5
      vertex 6.5 21 10.598076211353316
    endloop
  endfacet
  facet normal 0.7071067811865476 2.592580903434907e-18 0.7071067811865476
    outer loop
      vertex 7.598076211353316 2.9999999999999996 9.5
      vertex 6.5 21 10.598076211353316
      vertex 6.5 2.9999999999999996 10.598076211353316
    endloop
  endfacet
  facet normal 0.2588190451025207 0 0.9659258262890682
    outer loop
      vertex 6.5 2.9999999999999996 10.598076211353316
      vertex 6.5 21 10.598076211353316
      vertex 5 21 11
    endloop
  endfacet
  facet normal 0.2588190451025207 0 0.9659258262890682
    outer loop
      vertex 6.5 2.9999999999999996 10.598076211353316
      vertex 5 21 11
      vertex 5 2.9999999999999996 11
    endloop
  endfacet
  facet normal 0 0.2588190451025207 -0.9659258262890683
    outer loop
      vertex 2.9999999999999996 21 0
      vertex 8 22.5 0.401923788646684
      vertex 8 21 0
    endloop
  endfacet
  facet normal 0 0.2588190451025207 -0.9659258262890683
    outer loop
      vertex 2.9999999999999996 21 0
      vertex 2.9999999999999996 22.5 0.401923788646684
      vertex 8 22.5 0.401923788646684
    endloop
  endfacet
  facet normal 0 0.7071067811865474 -0.7071067811865477
    outer loop
      vertex 2.9999999999999996 22.5 0.401923788646684
      vertex 8 23.598076211353316 1.4999999999999996
      vertex 8 22.5 0.401923788646684
    endloop
  endfacet
  facet normal 1.3654457794379565e-17 0.7071067811865474 -0.7071067811865477
    outer loop
      vertex 2.9999999999999996 22.5 0.401923788646684
      vertex 2.9999999999999996 23.598076211353316 1.4999999999999996
      vertex 8 23.598076211353316 1.4999999999999996
    endloop
  endfacet
  facet normal 0 0.9659258262890683 -0.2588190451025207
    outer loop
      vertex 2.9999999999999996 23.598076211353316 1.4999999999999996
      vertex 8 24 2.9999999999999996
      vertex 8 23.598076211353316 1.4999999999999996
    endloop
  endfacet
  facet normal 0 0.9659258262890683 -0.2588190451025207
    outer loop
      vertex 2.9999999999999996 23.598076211353316 1.4999999999999996
      vertex 2.9999999999999996 24 2.9999999999999996
      vertex 8 24 2.9999999999999996
    endloop
  endfacet
  facet normal -0.9659258262890683 0.2588190451025207 0
    outer loop
      vertex 0 21 2.9999999999999996
      vertex 0 21 8
      vertex 0.401923788646684 22.5 8
    endloop
  endfacet
  facet normal -0.9659258262890683 0.2588190451025207 0
    outer loop
      vertex 0 21 2.9999999999999996
      vertex 0.401923788646684 22.5 8
      vertex 0.401923788646684 22.5 2.9999999999999996
    endloop
  endfacet
  facet normal -0.7071067811865477 0.7071067811865474 0
    outer loop
      vertex 0.401923788646684 22.5 2.9999999999999996
      vertex 0.401923788646684 22.5 8
      vertex 1.4999999999999996 23.598076211353316 8
    endloop
  endfacet
  facet normal -0.7071067811865477 0.7071067811865474 1.3654457794379565e-17
    outer loop
      vertex 0.401923788646684 22.5 2.9999999999999996
      vertex 1.4999999999999996 23.598076211353316 8
      vertex 1.4999999999999996 23.598076211353316 2.9999999999999996
    endloop
  endfacet
  facet normal -0.2588190451025207 0.9659258262890683 0
    outer loop
      vertex 1.4999999999999996 23.598076211353316 2.9999999999999996
      vertex 1.4999999999999996 23.598076211353316 8
      vertex 2.9999999999999996 24 8
    endloop
  endfacet
  facet normal -0.2588190451025207 0.9659258262890683 0
    outer loop
      vertex 1.4999999999999996 23.598076211353316 2.9999999999999996
      vertex 2.9999999999999996 24 8
      vertex 2.9999999999999996 24 2.9999999999999996
    endloop
  endfacet
  facet normal 0 0.25881904510252074 -0.9659258262890683
    outer loop
      vertex 8 21 0
      vertex 37 22.5 0.401923788646684
      vertex 37 21 0
    endloop
  endfacet
  facet normal 0 0.25881904510252074 -0.9659258262890683
    outer loop
      vertex 8 21 0
      vertex 8 22.5 0.401923788646684
      vertex 37 22.5 0.401923788646684
    endloop
  endfacet
  facet normal 0 0.7071067811865474 -0.7071067811865477
    outer loop
      vertex 8 22.5 0.401923788646684
      vertex 37 23.598076211353316 1.4999999999999996
      vertex 37 22.5 0.401923788646684
    endloop
  endfacet
  facet normal 2.354216861099925e-18 0.7071067811865474 -0.7071067811865477
    outer loop
      vertex 8 22.5 0.401923788646684
      vertex 8 23.598076211353316 1.4999999999999996
      vertex 37 23.598076211353316 1.4999999999999996
    endloop
  endfacet
  facet normal 0 0.9659258262890683 -0.25881904510252074
    outer loop
      vertex 8 23.598076211353316 1.4999999999999996
      vertex 37 24 2.9999999999999996
      vertex 37 23.598076211353316 1.4999999999999996
    endloop
  endfacet
  facet normal 0 0.9659258262890683 -0.25881904510252074
    outer loop
      vertex 8 23.598076211353316 1.4999999999999996
      vertex 8 24 2.9999999999999996
      vertex 37 24 2.9999999999999996
    endloop
  endfacet
  facet normal -0.9659258262890682 -0.2588190451025207 0
    outer loop
      vertex 8 21 9
      vertex 7.598076211353316 22.5 8
      vertex 8 21 8
    endloop
  endfacet
  facet normal 0.39477809310548684 0.5805342964809925 0.7121307378658182
    outer loop
      vertex 8 21 9
      vertex 8 23.226681596905678 7.184792530904096
      vertex 7.598076211353316 22.5 8
    endloop
  endfacet
  facet normal 0.5052907693246225 0.5052907693246225 0.699544478121772
    outer loop
      vertex 8 23.226681596905678 7.184792530904096
      vertex 6.5 23.598076211353316 8
      vertex 7.598076211353316 22.5 8
    endloop
  endfacet
  facet normal 0.33315364040192696 0.9230123701279385 0.19250147136515305
    outer loop
      vertex 8 23.226681596905678 7.184792530904096
      vertex 7.226681596905676 24 4.815207469095904
      vertex 6.5 23.598076211353316 8
    endloop
  endfacet
  facet normal 0.25468282448843105 0.950489240805972 0.17806420758446098
    outer loop
      vertex 7.226681596905676 24 4.815207469095904
      vertex 5 24 8
      vertex 6.5 23.598076211353316 8
    endloop
  endfacet
  facet normal 0 1 0
    outer loop
      vertex 7.226681596905676 24 4.815207469095904
      vertex 5 24 3.0000000000000004
      vertex 5 24 8
    endloop
  endfacet
  facet normal 0 0.25881904510252074 0.9659258262890683
    outer loop
      vertex 11 21 6
      vertex 37 21 6
      vertex 37 22.5 5.598076211353316
    endloop
  endfacet
  facet normal 0.01476155006011499 0.012033725864438835 0.9998186265926646
    outer loop
      vertex 11 21 6
      vertex 37 22.5 5.598076211353316
      vertex 9.184792530904096 23.226681596905678 6
    endloop
  endfacet
  facet normal 0.028679141139299327 0.706815926130528 0.706815926130528
    outer loop
      vertex 9.184792530904096 23.226681596905678 6
      vertex 37 22.5 5.598076211353316
      vertex 37 23.598076211353316 4.5
    endloop
  endfacet
  facet normal 0.025959931907412432 0.7455215721525253 0.6659757258268423
    outer loop
      vertex 9.184792530904096 23.226681596905678 6
      vertex 37 23.598076211353316 4.5
      vertex 6.815207469095904 24 5.226681596905676
    endloop
  endfacet
  facet normal 0.01908916857074493 0.9657498203276428 0.2587718844472936
    outer loop
      vertex 6.815207469095904 24 5.226681596905676
      vertex 37 23.598076211353316 4.5
      vertex 37 24 2.9999999999999996
    endloop
  endfacet
  facet normal 0 1 0
    outer loop
      vertex 6.815207469095904 24 5.226681596905676
      vertex 37 24 2.9999999999999996
      vertex 5 24 3.0000000000000004
    endloop
  endfacet
  facet normal 0 0.2588190451025207 0.9659258262890682
    outer loop
      vertex 2.9999999999999996 21 11
      vertex 5 21 11
      vertex 5 22.5 10.598076211353316
    endloop
  endfacet
  facet normal 0 0.2588190451025207 0.9659258262890682
    outer loop
      vertex 2.9999999999999996 21 11
      vertex 5 22.5 10.598076211353316
      vertex 2.9999999999999996 22.5 10.598076211353316
    endloop
  endfacet
  facet normal 0 0.7071067811865475 0.7071067811865475
    outer loop
      vertex 2.9999999999999996 22.5 10.598076211353316
      vertex 5 22.5 10.598076211353316
      vertex 5 23.598076211353316 9.5
    endloop
  endfacet
  facet normal 2.3333228130914154e-17 0.7071067811865475 0.7071067811865475
    outer loop
      vertex 2.9999999999999996 22.5 10.598076211353316
      vertex 5 23.598076211353316 9.5
      vertex 2.9999999999999996 23.598076211353316 9.5
    endloop
  endfacet
  facet normal 0 0.9659258262890682 0.2588190451025207
    outer loop
      vertex 2.9999999999999996 23.598076211353316 9.5
      vertex 5 23.598076211353316 9.5
      vertex 5 24 8
    endloop
  endfacet
  facet normal 0 0.9659258262890682 0.2588190451025207
    outer loop
      vertex 2.9999999999999996 23.598076211353316 9.5
      vertex 5 24 8
      vertex 2.9999999999999996 24 8
    endloop
  endfacet
  facet normal 0.2588190451025207 0 -0.9659258262890682
    outer loop
      vertex 37 2.9999999999999996 0
      vertex 37 21 0
      vertex 38.5 21 0.401923788646684
    endloop
  endfacet
  facet normal 0.2588190451025207 0 -0.9659258262890682
    outer loop
      vertex 37 2.9999999999999996 0
      vertex 38.5 21 0.401923788646684
      vertex 38.5 2.9999999999999996 0.401923788646684
    endloop
  endfacet
  facet normal 0.7071067811865474 0 -0.7071067811865477
    outer loop
      vertex 38.5 2.9999999999999996 0.401923788646684
      vertex 38.5 21 0.401923788646684
      vertex 39.598076211353316 21 1.4999999999999996
    endloop
  endfacet
  facet normal 0.7071067811865474 3.7929049428832125e-18 -0.7071067811865477
    outer loop
      vertex 38.5 2.9999999999999996 0.401923788646684
      vertex 39.598076211353316 21 1.4999999999999996
      vertex 39.598076211353316 2.9999999999999996 1.4999999999999996
    endloop
  endfacet
  facet normal 0.9659258262890682 0 -0.2588190451025207
    outer loop
      vertex 39.598076211353316 2.9999999999999996 1.4999999999999996
      vertex 39.598076211353316 21 1.4999999999999996
      vertex 40 21 2.9999999999999996
    endloop
  endfacet
  facet normal 0.9659258262890682 0 -0.2588190451025207
    outer loop
      vertex 39.598076211353316 2.9999999999999996 1.4999999999999996
      vertex 40 21 2.9999999999999996
      vertex 40 2.9999999999999996 2.9999999999999996
    endloop
  endfacet
  facet normal 0.2588190451025207 0 0.9659258262890682
    outer loop
      vertex 37 2.9999999999999996 6
      vertex 38.5 21 5.598076211353316
      vertex 37 21 6
    endloop
  endfacet
  facet normal 0.2588190451025207 0 0.9659258262890682
    outer loop
      vertex 37 2.9999999999999996 6
      vertex 38.5 2.9999999999999996 5.598076211353316
      vertex 38.5 21 5.598076211353316
    endloop
  endfacet
  facet normal 0.7071067811865476 0 0.7071067811865476
    outer loop
      vertex 38.5 2.9999999999999996 5.598076211353316
      vertex 39.598076211353316 21 4.5
      vertex 38.5 21 5.598076211353316
    endloop
  endfacet
  facet normal 0.7071067811865476 2.592580903434907e-18 0.7071067811865476
    outer loop
      vertex 38.5 2.9999999999999996 5.598076211353316
      vertex 39.598076211353316 2.9999999999999996 4.5
      vertex 39.598076211353316 21 4.5
    endloop
  endfacet
  facet normal 0.9659258262890684 0 0.2588190451025207
    outer loop
      vertex 39.598076211353316 2.9999999999999996 4.5
      vertex 40 21 2.9999999999999996
      vertex 39.598076211353316 21 4.5
    endloop
  endfacet
  facet normal 0.9659258262890684 1.5581666901722728e-18 0.2588190451025207
    outer loop
      vertex 39.598076211353316 2.9999999999999996 4.5
      vertex 40 2.9999999999999996 2.9999999999999996
      vertex 40 21 2.9999999999999996
    endloop
  endfacet
  facet normal -0.25056280708573153 -0.25056280708573153 -0.9351131265310294
    outer loop
      vertex 2.9999999999999996 2.9999999999999996 0
      vertex 2.9999999999999996 1.4999999999999996 0.401923788646684
      vertex 1.4999999999999996 2.9999999999999996 0.401923788646684
    endloop
  endfacet
  facet normal -0.374146452762368 -0.374146452762368 -0.8485451453933811
    outer loop
      vertex 2.9999999999999996 1.4999999999999996 0.401923788646684
      vertex 1.2679491924311228 1.2679491924311228 1.2679491924311228
      vertex 1.4999999999999996 2.9999999999999996 0.401923788646684
    endloop
  endfacet
  facet normal -0.6845503194452979 -0.25056280708573186 -0.6845503194452977
    outer loop
      vertex 1.4999999999999996 2.9999999999999996 0.401923788646684
      vertex 1.2679491924311228 1.2679491924311228 1.2679491924311228
      vertex 0.401923788646684 2.9999999999999996 1.5
    endloop
  endfacet
  facet normal -0.8485451453933811 -0.3741464527623679 -0.3741464527623679
    outer loop
      vertex 1.2679491924311228 1.2679491924311228 1.2679491924311228
      vertex 0.401923788646684 1.5 2.9999999999999996
      vertex 0.401923788646684 2.9999999999999996 1.5
    endloop
  endfacet
  facet normal -0.9351131265310294 -0.2505628070857316 -0.2505628070857316
    outer loop
      vertex 0.401923788646684 2.9999999999999996 1.5
      vertex 0.401923788646684 1.5 2.9999999999999996
      vertex 0 2.9999999999999996 2.9999999999999996
    endloop
  endfacet
  facet normal -0.25056280708573186 -0.6845503194452979 -0.6845503194452977
    outer loop
      vertex 2.9999999999999996 1.4999999999999996 0.401923788646684
      vertex 2.9999999999999996 0.401923788646684 1.5
      vertex 1.2679491924311228 1.2679491924311228 1.2679491924311228
    endloop
  endfacet
  facet normal -0.3741464527623679 -0.8485451453933811 -0.374146452762368
    outer loop
      vertex 2.9999999999999996 0.401923788646684 1.5
      vertex 1.4999999999999996 0.401923788646684 2.9999999999999996
      vertex 1.2679491924311228 1.2679491924311228 1.2679491924311228
    endloop
  endfacet
  facet normal -0.6845503194452979 -0.6845503194452977 -0.25056280708573186
    outer loop
      vertex 1.2679491924311228 1.2679491924311228 1.2679491924311228
      vertex 1.4999999999999996 0.401923788646684 2.9999999999999996
      vertex 0.401923788646684 1.5 2.9999999999999996
    endloop
  endfacet
  facet normal -0.25056280708573153 -0.9351131265310292 -0.2505628070857316
    outer loop
      vertex 2.9999999999999996 0.401923788646684 1.5
      vertex 2.9999999999999996 0 2.9999999999999996
      vertex 1.4999999999999996 0.401923788646684 2.9999999999999996
    endloop
  endfacet
  facet normal 0.7239232937412022 -0.25682057648841045 0.6402954445184267
    outer loop
      vertex 9.5 2.9999999999999996 6.401923788646684
      vertex 9.134577819280093 2.1494157679865036 6.473906333969734
      vertex 8.985165992520436 1.2732813854332472 6.291417708668353
    endloop
  endfacet
  facet normal 0.2563548748290653 -0.13766262961557155 0.9567294176300319
    outer loop
      vertex 9.5 2.9999999999999996 6.401923788646684
      vertex 8.985165992520436 1.2732813854332472 6.291417708668353
      vertex 11 2.9999999999999996 6
    endloop
  endfacet
  facet normal 0.40804489549097633 -0.33264124653070165 0.850205365997098
    outer loop
      vertex 11 2.9999999999999996 6
      vertex 8.985165992520436 1.2732813854332472 6.291417708668353
      vertex 9.184792530904096 0.7733184030943221 6
    endloop
  endfacet
  facet normal -0.3271713050310156 0.21836242752965732 0.9193893557180534
    outer loop
      vertex 9.134577819280093 2.1494157679865036 6.473906333969734
      vertex 9.5 2.9999999999999996 6.401923788646684
      vertex 8.718875311726869 1.9847451868910981 6.365086209560089
    endloop
  endfacet
  facet normal -0.1860525764179218 -0.16984234594555112 0.9677489428214143
    outer loop
      vertex 9.134577819280093 2.1494157679865036 6.473906333969734
      vertex 8.718875311726869 1.9847451868910981 6.365086209560089
      vertex 8.985165992520436 1.2732813854332472 6.291417708668353
    endloop
  endfacet
  facet normal -0.2099823231543499 -0.17813532671236917 0.961340329612661
    outer loop
      vertex 8.985165992520436 1.2732813854332472 6.291417708668353
      vertex 8.718875311726869 1.9847451868910981 6.365086209560089
      vertex 7.627186519234393 0.7720916892214761 5.901928925828103
    endloop
  endfacet
  facet normal -0.05331836772772419 -0.5186666225189065 0.8533124201297443
    outer loop
      vertex 8.985165992520436 1.2732813854332472 6.291417708668353
      vertex 7.627186519234393 0.7720916892214761 5.901928925828103
      vertex 9.184792530904096 0.7733184030943221 6
    endloop
  endfacet
  facet normal -0.04839727901725691 -0.6282261711650188 0.7765240377780114
    outer loop
      vertex 9.184792530904096 0.7733184030943221 6
      vertex 7.627186519234393 0.7720916892214761 5.901928925828103
      vertex 6.815207469095905 0 5.226681596905677
    endloop
  endfacet
  facet normal -0.7432943793808414 0.5585220782791184 0.3681936360878933
    outer loop
      vertex 8.718875311726869 1.9847451868910981 6.365086209560089
      vertex 9.5 2.9999999999999996 6.401923788646684
      vertex 8.450783344541932 1.909376900818258 5.938201045921741
    endloop
  endfacet
  facet normal -0.7549675677051129 0.5346194070363984 0.3797447318047686
    outer loop
      vertex 8.718875311726869 1.9847451868910981 6.365086209560089
      vertex 8.450783344541932 1.909376900818258 5.938201045921741
      vertex 7.627186519234393 0.7720916892214761 5.901928925828103
    endloop
  endfacet
  facet normal -0.7294328216204884 0.5138375319339596 0.4515514915475198
    outer loop
      vertex 7.627186519234393 0.7720916892214761 5.901928925828103
      vertex 8.450783344541932 1.909376900818258 5.938201045921741
      vertex 6.686599226742033 0.6227982967159119 4.552398017812397
    endloop
  endfacet
  facet normal -0.7778387730250935 0.3807256678417603 0.5000148088059617
    outer loop
      vertex 7.627186519234393 0.7720916892214761 5.901928925828103
      vertex 6.686599226742033 0.6227982967159119 4.552398017812397
      vertex 6.815207469095905 0 5.226681596905677
    endloop
  endfacet
  facet normal -0.6865321612582224 0.46416311463885973 0.5596661456322574
    outer loop
      vertex 6.815207469095905 0 5.226681596905677
      vertex 6.686599226742033 0.6227982967159119 4.552398017812397
      vertex 5 0 3.0000000000000004
    endloop
  endfacet
  facet normal 0.5456497025710346 -0.17662202495131835 -0.8191892714057217
    outer loop
      vertex 8.450783344541932 1.909376900818258 5.938201045921741
      vertex 9.5 2.9999999999999996 6.401923788646684
      vertex 8.877668508180278 1.9847451868910981 6.206293013106679
    endloop
  endfacet
  facet normal 0.48566727714319063 0.23955635076291681 -0.8406783277339042
    outer loop
      vertex 8.450783344541932 1.909376900818258 5.938201045921741
      vertex 8.877668508180278 1.9847451868910981 6.206293013106679
      vertex 6.686599226742033 0.6227982967159119 4.552398017812397
    endloop
  endfacet
  facet normal 0.5622883264149858 0.09320890974650714 -0.8216714289308724
    outer loop
      vertex 6.686599226742033 0.6227982967159119 4.552398017812397
      vertex 8.877668508180278 1.9847451868910981 6.206293013106679
      vertex 8.036211607210051 0.772091689221476 5.492903837852444
    endloop
  endfacet
  facet normal 0.41405745774066605 0.5952416658860407 -0.6886536000650456
    outer loop
      vertex 6.686599226742033 0.6227982967159119 4.552398017812397
      vertex 8.036211607210051 0.772091689221476 5.492903837852444
      vertex 5 0 3.0000000000000004
    endloop
  endfacet
  facet normal 0.6317554229778506 0.01782750477621804 -0.7749627511122914
    outer loop
      vertex 5 0 3.0000000000000004
      vertex 8.036211607210051 0.772091689221476 5.492903837852444
      vertex 7.226681596905676 0 4.815207469095904
    endloop
  endfacet
  facet normal 0.8539420564457207 -0.5200729014283948 -0.017525451010014292
    outer loop
      vertex 8.877668508180278 1.9847451868910981 6.206293013106679
      vertex 9.5 2.9999999999999996 6.401923788646684
      vertex 8.986488632589923 2.1494157679865036 6.621995520659902
    endloop
  endfacet
  facet normal 0.8176346657185489 -0.5755680819054011 0.013961966446536899
    outer loop
      vertex 8.877668508180278 1.9847451868910981 6.206293013106679
      vertex 8.986488632589923 2.1494157679865036 6.621995520659902
      vertex 8.036211607210051 0.772091689221476 5.492903837852444
    endloop
  endfacet
  facet normal 0.8369337545516022 -0.5459551401200148 -0.038404107445602645
    outer loop
      vertex 8.036211607210051 0.772091689221476 5.492903837852444
      vertex 8.986488632589923 2.1494157679865036 6.621995520659902
      vertex 8.425516135939658 1.2733629121781012 6.850844526880693
    endloop
  endfacet
  facet normal 0.6439441696759343 -0.7590766896777686 0.09559542629337452
    outer loop
      vertex 8.036211607210051 0.772091689221476 5.492903837852444
      vertex 8.425516135939658 1.2733629121781012 6.850844526880693
      vertex 7.226681596905676 0 4.815207469095904
    endloop
  endfacet
  facet normal 0.7512588159366439 -0.6593254385783498 -0.030002625234113404
    outer loop
      vertex 7.226681596905676 0 4.815207469095904
      vertex 8.425516135939658 1.2733629121781012 6.850844526880693
      vertex 8 0.773318403094323 7.184792530904095
    endloop
  endfacet
  facet normal 0.6869623744551826 -0.236992388413204 0.6869623744551826
    outer loop
      vertex 9.5 2.9999999999999996 6.401923788646684
      vertex 8.401923788646684 2.9999999999999996 7.5
      vertex 8.986488632589923 2.1494157679865036 6.621995520659902
    endloop
  endfacet
  facet normal 0.6869623744551833 -0.23699238841320297 0.6869623744551822
    outer loop
      vertex 8.986488632589923 2.1494157679865036 6.621995520659902
      vertex 8.401923788646684 2.9999999999999996 7.5
      vertex 8.473906333969735 2.1494157679865036 7.134577819280091
    endloop
  endfacet
  facet normal 0.6829914297284561 -0.25893129172612683 0.6829914297284548
    outer loop
      vertex 8.986488632589923 2.1494157679865036 6.621995520659902
      vertex 8.473906333969735 2.1494157679865036 7.134577819280091
      vertex 8.425516135939658 1.2733629121781012 6.850844526880693
    endloop
  endfacet
  facet normal 0.6836679715484819 -0.2587692385695992 0.6823756925982152
    outer loop
      vertex 8.425516135939658 1.2733629121781012 6.850844526880693
      vertex 8.473906333969735 2.1494157679865036 7.134577819280091
      vertex 8.291417708668352 1.2732813854332479 6.985165992520436
    endloop
  endfacet
  facet normal 0.7017887280614742 -0.129342188970155 0.7005449159891656
    outer loop
      vertex 8.425516135939658 1.2733629121781012 6.850844526880693
      vertex 8.291417708668352 1.2732813854332479 6.985165992520436
      vertex 8 0.773318403094323 7.184792530904095
    endloop
  endfacet
  facet normal 0.6402954445184268 -0.25682057648841117 0.7239232937412018
    outer loop
      vertex 8.473906333969735 2.1494157679865036 7.134577819280091
      vertex 8.401923788646684 2.9999999999999996 7.5
      vertex 8.291417708668352 1.2732813854332479 6.985165992520436
    endloop
  endfacet
  facet normal 0.7820144601554537 -0.2235158718134945 0.5818024055942256
    outer loop
      vertex 8.291417708668352 1.2732813854332479 6.985165992520436
      vertex 8.401923788646684 2.9999999999999996 7.5
      vertex 8 0.773318403094323 7.184792530904095
    endloop
  endfacet
  facet normal 0.9451178390857452 -0.20644604302704464 0.2532435617352731
    outer loop
      vertex 8 0.773318403094323 7.184792530904095
      vertex 8.401923788646684 2.9999999999999996 7.5
      vertex 8 2.9999999999999996 9
    endloop
  endfacet
  facet normal -0.25056280708573153 -0.9351131265310294 0.25056280708573153
    outer loop
      vertex 2.9999999999999996 0 8
      vertex 2.9999999999999996 0.401923788646684 9.5
      vertex 1.4999999999999996 0.401923788646684 8
    endloop
  endfacet
  facet normal -0.3741464527623678 -0.8485451453933813 0.3741464527623678
    outer loop
      vertex 2.9999999999999996 0.401923788646684 9.5
      vertex 1.2679491924311224 1.2679491924311224 9.732050807568877
      vertex 1.4999999999999996 0.401923788646684 8
    endloop
  endfacet
  facet normal -0.6845503194452979 -0.6845503194452977 0.25056280708573153
    outer loop
      vertex 1.4999999999999996 0.401923788646684 8
      vertex 1.2679491924311224 1.2679491924311224 9.732050807568877
      vertex 0.401923788646684 1.5 8
    endloop
  endfacet
  facet normal -0.8485451453933813 -0.37414645276236785 0.37414645276236774
    outer loop
      vertex 1.2679491924311224 1.2679491924311224 9.732050807568877
      vertex 0.401923788646684 2.9999999999999996 9.5
      vertex 0.401923788646684 1.5 8
    endloop
  endfacet
  facet normal -0.9351131265310292 -0.2505628070857316 0.25056280708573153
    outer loop
      vertex 0.401923788646684 1.5 8
      vertex 0.401923788646684 2.9999999999999996 9.5
      vertex 0 2.9999999999999996 8
    endloop
  endfacet
  facet normal -0.2505628070857318 -0.6845503194452979 0.6845503194452977
    outer loop
      vertex 2.9999999999999996 0.401923788646684 9.5
      vertex 2.9999999999999996 1.4999999999999996 10.598076211353316
      vertex 1.2679491924311224 1.2679491924311224 9.732050807568877
    endloop
  endfacet
  facet normal -0.37414645276236796 -0.37414645276236796 0.8485451453933811
    outer loop
      vertex 2.9999999999999996 1.4999999999999996 10.598076211353316
      vertex 1.4999999999999996 2.9999999999999996 10.598076211353316
      vertex 1.2679491924311224 1.2679491924311224 9.732050807568877
    endloop
  endfacet
  facet normal -0.6845503194452979 -0.2505628070857318 0.6845503194452975
    outer loop
      vertex 1.2679491924311224 1.2679491924311224 9.732050807568877
      vertex 1.4999999999999996 2.9999999999999996 10.598076211353316
      vertex 0.401923788646684 2.9999999999999996 9.5
    endloop
  endfacet
  facet normal -0.25056280708573153 -0.25056280708573153 0.9351131265310294
    outer loop
      vertex 2.9999999999999996 1.4999999999999996 10.598076211353316
      vertex 2.9999999999999996 2.9999999999999996 11
      vertex 1.4999999999999996 2.9999999999999996 10.598076211353316
    endloop
  endfacet
  facet normal 0.25056280708573153 -0.9351131265310294 0.25056280708573153
    outer loop
      vertex 5 0 8
      vertex 6.5 0.401923788646684 8
      vertex 5 0.401923788646684 9.5
    endloop
  endfacet
  facet normal 0.3741464527623679 -0.8485451453933813 0.3741464527623679
    outer loop
      vertex 6.5 0.401923788646684 8
      vertex 6.732050807568877 1.2679491924311224 9.732050807568877
      vertex 5 0.401923788646684 9.5
    endloop
  endfacet
  facet normal 0.25056280708573186 -0.6845503194452979 0.6845503194452977
    outer loop
      vertex 5 0.401923788646684 9.5
      vertex 6.732050807568877 1.2679491924311224 9.732050807568877
      vertex 5 1.4999999999999996 10.598076211353316
    endloop
  endfacet
  facet normal 0.37414645276236813 -0.37414645276236813 0.848545145393381
    outer loop
      vertex 6.732050807568877 1.2679491924311224 9.732050807568877
      vertex 6.5 2.9999999999999996 10.598076211353316
      vertex 5 1.4999999999999996 10.598076211353316
    endloop
  endfacet
  facet normal 0.25056280708573153 -0.25056280708573153 0.9351131265310294
    outer loop
      vertex 5 1.4999999999999996 10.598076211353316
      vertex 6.5 2.9999999999999996 10.598076211353316
      vertex 5 2.9999999999999996 11
    endloop
  endfacet
  facet normal 0.6845503194452977 -0.6845503194452979 0.25056280708573186
    outer loop
      vertex 6.5 0.401923788646684 8
      vertex 7.598076211353316 1.4999999999999996 8
      vertex 6.732050807568877 1.2679491924311224 9.732050807568877
    endloop
  endfacet
  facet normal 0.848545145393381 -0.3741464527623681 0.3741464527623681
    outer loop
      vertex 7.598076211353316 1.4999999999999996 8
      vertex 7.598076211353316 2.9999999999999996 9.5
      vertex 6.732050807568877 1.2679491924311224 9.732050807568877
    endloop
  endfacet
  facet normal 0.6845503194452978 -0.2505628070857321 0.6845503194452978
    outer loop
      vertex 6.732050807568877 1.2679491924311224 9.732050807568877
      vertex 7.598076211353316 2.9999999999999996 9.5
      vertex 6.5 2.9999999999999996 10.598076211353316
    endloop
  endfacet
  facet normal 0.9351131265310294 -0.25056280708573153 0.25056280708573153
    outer loop
      vertex 7.598076211353316 1.4999999999999996 8
      vertex 8 2.9999999999999996 8
      vertex 7.598076211353316 2.9999999999999996 9.5
    endloop
  endfacet
  facet normal -0.25056280708573153 0.25056280708573153 -0.9351131265310294
    outer loop
      vertex 2.9999999999999996 21 0
      vertex 1.4999999999999996 21 0.401923788646684
      vertex 2.9999999999999996 22.5 0.401923788646684
    endloop
  endfacet
  facet normal -0.374146452762368 0.374146452762368 -0.848545145393381
    outer loop
      vertex 1.4999999999999996 21 0.401923788646684
      vertex 1.2679491924311224 22.732050807568875 1.2679491924311224
      vertex 2.9999999999999996 22.5 0.401923788646684
    endloop
  endfacet
  facet normal -0.2505628070857324 0.6845503194452975 -0.6845503194452978
    outer loop
      vertex 2.9999999999999996 22.5 0.401923788646684
      vertex 1.2679491924311224 22.732050807568875 1.2679491924311224
      vertex 2.9999999999999996 23.598076211353316 1.4999999999999996
    endloop
  endfacet
  facet normal -0.3741464527623686 0.8485451453933806 -0.3741464527623686
    outer loop
      vertex 1.2679491924311224 22.732050807568875 1.2679491924311224
      vertex 1.4999999999999996 23.598076211353316 2.9999999999999996
      vertex 2.9999999999999996 23.598076211353316 1.4999999999999996
    endloop
  endfacet
  facet normal -0.25056280708573153 0.9351131265310294 -0.25056280708573153
    outer loop
      vertex 2.9999999999999996 23.598076211353316 1.4999999999999996
      vertex 1.4999999999999996 23.598076211353316 2.9999999999999996
      vertex 2.9999999999999996 24 2.9999999999999996
    endloop
  endfacet
  facet normal -0.6845503194452979 0.25056280708573175 -0.6845503194452975
    outer loop
      vertex 1.4999999999999996 21 0.401923788646684
      vertex 0.401923788646684 21 1.5
      vertex 1.2679491924311224 22.732050807568875 1.2679491924311224
    endloop
  endfacet
  facet normal -0.8485451453933811 0.37414645276236796 -0.37414645276236813
    outer loop
      vertex 0.401923788646684 21 1.5
      vertex 0.401923788646684 22.5 2.9999999999999996
      vertex 1.2679491924311224 22.732050807568875 1.2679491924311224
    endloop
  endfacet
  facet normal -0.6845503194452979 0.6845503194452975 -0.2505628070857325
    outer loop
      vertex 1.2679491924311224 22.732050807568875 1.2679491924311224
      vertex 0.401923788646684 22.5 2.9999999999999996
      vertex 1.4999999999999996 23.598076211353316 2.9999999999999996
    endloop
  endfacet
  facet normal -0.9351131265310292 0.25056280708573153 -0.2505628070857316
    outer loop
      vertex 0.401923788646684 21 1.5
      vertex 0 21 2.9999999999999996
      vertex 0.401923788646684 22.5 2.9999999999999996
    endloop
  endfacet
  facet normal 0.7239232937412019 0.25682057648841033 0.640295444518427
    outer loop
      vertex 9.5 21 6.401923788646684
      vertex 8.985165992520436 22.726718614566753 6.291417708668353
      vertex 9.134577819280093 21.850584232013496 6.473906333969734
    endloop
  endfacet
  facet normal 0.2563548748290653 0.13766262961557155 0.9567294176300319
    outer loop
      vertex 9.5 21 6.401923788646684
      vertex 11 21 6
      vertex 8.985165992520436 22.726718614566753 6.291417708668353
    endloop
  endfacet
  facet normal 0.40804489549097633 0.3326412465307016 0.8502053659970978
    outer loop
      vertex 11 21 6
      vertex 9.184792530904096 23.226681596905678 6
      vertex 8.985165992520436 22.726718614566753 6.291417708668353
    endloop
  endfacet
  facet normal -0.32717130503101666 -0.21836242752965768 0.9193893557180528
    outer loop
      vertex 9.134577819280093 21.850584232013496 6.473906333969734
      vertex 8.718875311726869 22.015254813108903 6.365086209560089
      vertex 9.5 21 6.401923788646684
    endloop
  endfacet
  facet normal -0.186052576417921 0.16984234594555112 0.9677489428214145
    outer loop
      vertex 9.134577819280093 21.850584232013496 6.473906333969734
      vertex 8.985165992520436 22.726718614566753 6.291417708668353
      vertex 8.718875311726869 22.015254813108903 6.365086209560089
    endloop
  endfacet
  facet normal -0.20998232315435064 0.17813532671236978 0.9613403296126607
    outer loop
      vertex 8.985165992520436 22.726718614566753 6.291417708668353
      vertex 7.627186519234393 23.22790831077852 5.901928925828102
      vertex 8.718875311726869 22.015254813108903 6.365086209560089
    endloop
  endfacet
  facet normal -0.05331836772772578 0.5186666225189072 0.853312420129744
    outer loop
      vertex 8.985165992520436 22.726718614566753 6.291417708668353
      vertex 9.184792530904096 23.226681596905678 6
      vertex 7.627186519234393 23.22790831077852 5.901928925828102
    endloop
  endfacet
  facet normal -0.04839727901725889 0.6282261711650158 0.7765240377780136
    outer loop
      vertex 9.184792530904096 23.226681596905678 6
      vertex 6.815207469095904 24 5.226681596905676
      vertex 7.627186519234393 23.22790831077852 5.901928925828102
    endloop
  endfacet
  facet normal -0.7432943793808422 -0.5585220782791178 0.3681936360878927
    outer loop
      vertex 8.718875311726869 22.015254813108903 6.365086209560089
      vertex 8.450783344541932 22.090623099181744 5.938201045921741
      vertex 9.5 21 6.401923788646684
    endloop
  endfacet
  facet normal -0.7549675677051123 -0.5346194070364004 0.37974473180476676
    outer loop
      vertex 8.718875311726869 22.015254813108903 6.365086209560089
      vertex 7.627186519234393 23.22790831077852 5.901928925828102
      vertex 8.450783344541932 22.090623099181744 5.938201045921741
    endloop
  endfacet
  facet normal -0.7294328216204877 -0.5138375319339615 0.4515514915475188
    outer loop
      vertex 7.627186519234393 23.22790831077852 5.901928925828102
      vertex 6.686599226742033 23.377201703284086 4.552398017812397
      vertex 8.450783344541932 22.090623099181744 5.938201045921741
    endloop
  endfacet
  facet normal -0.7778387730250939 -0.38072566784175965 0.5000148088059618
    outer loop
      vertex 7.627186519234393 23.22790831077852 5.901928925828102
      vertex 6.815207469095904 24 5.226681596905676
      vertex 6.686599226742033 23.377201703284086 4.552398017812397
    endloop
  endfacet
  facet normal -0.6865321612582228 -0.4641631146388588 0.5596661456322576
    outer loop
      vertex 6.815207469095904 24 5.226681596905676
      vertex 5 24 3.0000000000000004
      vertex 6.686599226742033 23.377201703284086 4.552398017812397
    endloop
  endfacet
  facet normal 0.545649702571035 0.1766220249513182 -0.8191892714057215
    outer loop
      vertex 8.450783344541932 22.090623099181744 5.938201045921741
      vertex 8.877668508180278 22.015254813108903 6.206293013106679
      vertex 9.5 21 6.401923788646684
    endloop
  endfacet
  facet normal 0.4856672771431898 -0.23955635076291856 -0.8406783277339042
    outer loop
      vertex 8.450783344541932 22.090623099181744 5.938201045921741
      vertex 6.686599226742033 23.377201703284086 4.552398017812397
      vertex 8.877668508180278 22.015254813108903 6.206293013106679
    endloop
  endfacet
  facet normal 0.5622883264149856 -0.09320890974650745 -0.8216714289308725
    outer loop
      vertex 6.686599226742033 23.377201703284086 4.552398017812397
      vertex 8.036211607210051 23.22790831077852 5.492903837852444
      vertex 8.877668508180278 22.015254813108903 6.206293013106679
    endloop
  endfacet
  facet normal 0.4140574577406651 -0.5952416658860415 -0.6886536000650454
    outer loop
      vertex 6.686599226742033 23.377201703284086 4.552398017812397
      vertex 5 24 3.0000000000000004
      vertex 8.036211607210051 23.22790831077852 5.492903837852444
    endloop
  endfacet
  facet normal 0.6317554229778505 -0.017827504776217945 -0.7749627511122912
    outer loop
      vertex 5 24 3.0000000000000004
      vertex 7.226681596905676 24 4.815207469095904
      vertex 8.036211607210051 23.22790831077852 5.492903837852444
    endloop
  endfacet
  facet normal 0.8539420564457213 0.5200729014283945 -0.01752545101001202
    outer loop
      vertex 8.877668508180278 22.015254813108903 6.206293013106679
      vertex 8.986488632589923 21.850584232013496 6.621995520659902
      vertex 9.5 21 6.401923788646684
    endloop
  endfacet
  facet normal 0.8176346657185465 0.5755680819054045 0.01396196644654176
    outer loop
      vertex 8.877668508180278 22.015254813108903 6.206293013106679
      vertex 8.036211607210051 23.22790831077852 5.492903837852444
      vertex 8.986488632589923 21.850584232013496 6.621995520659902
    endloop
  endfacet
  facet normal 0.8369337545516022 0.5459551401200146 -0.038404107445604296
    outer loop
      vertex 8.036211607210051 23.22790831077852 5.492903837852444
      vertex 8.425516135939658 22.7266370878219 6.850844526880693
      vertex 8.986488632589923 21.850584232013496 6.621995520659902
    endloop
  endfacet
  facet normal 0.6439441696759386 0.7590766896777656 0.09559542629336992
    outer loop
      vertex 8.036211607210051 23.22790831077852 5.492903837852444
      vertex 7.226681596905676 24 4.815207469095904
      vertex 8.425516135939658 22.7266370878219 6.850844526880693
    endloop
  endfacet
  facet normal 0.751258815936644 0.6593254385783496 -0.03000262523411371
    outer loop
      vertex 7.226681596905676 24 4.815207469095904
      vertex 8 23.226681596905678 7.184792530904096
      vertex 8.425516135939658 22.7266370878219 6.850844526880693
    endloop
  endfacet
  facet normal 0.6869623744551826 0.23699238841320397 0.6869623744551826
    outer loop
      vertex 9.5 21 6.401923788646684
      vertex 8.986488632589923 21.850584232013496 6.621995520659902
      vertex 8.401923788646684 21 7.5
    endloop
  endfacet
  facet normal 0.6869623744551833 0.23699238841320303 0.6869623744551822
    outer loop
      vertex 8.986488632589923 21.850584232013496 6.621995520659902
      vertex 8.473906333969735 21.850584232013496 7.134577819280091
      vertex 8.401923788646684 21 7.5
    endloop
  endfacet
  facet normal 0.6829914297284561 0.25893129172612656 0.682991429728455
    outer loop
      vertex 8.986488632589923 21.850584232013496 6.621995520659902
      vertex 8.425516135939658 22.7266370878219 6.850844526880693
      vertex 8.473906333969735 21.850584232013496 7.134577819280091
    endloop
  endfacet
  facet normal 0.6836679715484872 0.2587692385695977 0.6823756925982106
    outer loop
      vertex 8.425516135939658 22.7266370878219 6.850844526880693
      vertex 8.291417708668353 22.726718614566753 6.985165992520436
      vertex 8.473906333969735 21.850584232013496 7.134577819280091
    endloop
  endfacet
  facet normal 0.7017887280614785 0.12934218897016092 0.7005449159891601
    outer loop
      vertex 8.425516135939658 22.7266370878219 6.850844526880693
      vertex 8 23.226681596905678 7.184792530904096
      vertex 8.291417708668353 22.726718614566753 6.985165992520436
    endloop
  endfacet
  facet normal 0.6402954445184302 0.25682057648840967 0.7239232937411991
    outer loop
      vertex 8.473906333969735 21.850584232013496 7.134577819280091
      vertex 8.291417708668353 22.726718614566753 6.985165992520436
      vertex 8.401923788646684 21 7.5
    endloop
  endfacet
  facet normal 0.7820144601554518 0.2235158718134942 0.5818024055942281
    outer loop
      vertex 8.291417708668353 22.726718614566753 6.985165992520436
      vertex 8 23.226681596905678 7.184792530904096
      vertex 8.401923788646684 21 7.5
    endloop
  endfacet
  facet normal 0.9451178390857453 0.20644604302704445 0.2532435617352732
    outer loop
      vertex 8 23.226681596905678 7.184792530904096
      vertex 8 21 9
      vertex 8.401923788646684 21 7.5
    endloop
  endfacet
  facet normal -0.9351131265310294 0.25056280708573153 0.25056280708573153
    outer loop
      vertex 0 21 8
      vertex 0.401923788646684 21 9.5
      vertex 0.401923788646684 22.5 8
    endloop
  endfacet
  facet normal -0.8485451453933811 0.37414645276236813 0.37414645276236813
    outer loop
      vertex 0.401923788646684 21 9.5
      vertex 1.2679491924311224 22.732050807568875 9.732050807568877
      vertex 0.401923788646684 22.5 8
    endloop
  endfacet
  facet normal -0.6845503194452978 0.6845503194452975 0.25056280708573253
    outer loop
      vertex 0.401923788646684 22.5 8
      vertex 1.2679491924311224 22.732050807568875 9.732050807568877
      vertex 1.4999999999999996 23.598076211353316 8
    endloop
  endfacet
  facet normal -0.3741464527623687 0.8485451453933806 0.3741464527623687
    outer loop
      vertex 1.2679491924311224 22.732050807568875 9.732050807568877
      vertex 2.9999999999999996 23.598076211353316 9.5
      vertex 1.4999999999999996 23.598076211353316 8
    endloop
  endfacet
  facet normal -0.25056280708573153 0.9351131265310294 0.25056280708573153
    outer loop
      vertex 1.4999999999999996 23.598076211353316 8
      vertex 2.9999999999999996 23.598076211353316 9.5
      vertex 2.9999999999999996 24 8
    endloop
  endfacet
  facet normal -0.6845503194452979 0.2505628070857321 0.6845503194452975
    outer loop
      vertex 0.401923788646684 21 9.5
      vertex 1.4999999999999996 21 10.598076211353316
      vertex 1.2679491924311224 22.732050807568875 9.732050807568877
    endloop
  endfacet
  facet normal -0.3741464527623683 0.3741464527623683 0.8485451453933808
    outer loop
      vertex 1.4999999999999996 21 10.598076211353316
      vertex 2.9999999999999996 22.5 10.598076211353316
      vertex 1.2679491924311224 22.732050807568875 9.732050807568877
    endloop
  endfacet
  facet normal -0.25056280708573264 0.6845503194452975 0.6845503194452975
    outer loop
      vertex 1.2679491924311224 22.732050807568875 9.732050807568877
      vertex 2.9999999999999996 22.5 10.598076211353316
      vertex 2.9999999999999996 23.598076211353316 9.5
    endloop
  endfacet
  facet normal -0.25056280708573153 0.25056280708573153 0.9351131265310294
    outer loop
      vertex 1.4999999999999996 21 10.598076211353316
      vertex 2.9999999999999996 21 11
      vertex 2.9999999999999996 22.5 10.598076211353316
    endloop
  endfacet
  facet normal 0.9351131265310294 0.25056280708573153 0.25056280708573153
    outer loop
      vertex 8 21 8
      vertex 7.598076211353316 22.5 8
      vertex 7.598076211353316 21 9.5
    endloop
  endfacet
  facet normal 0.8485451453933812 0.3741464527623679 0.3741464527623679
    outer loop
      vertex 7.598076211353316 22.5 8
      vertex 6.732050807568877 22.73205080756888 9.732050807568877
      vertex 7.598076211353316 21 9.5
    endloop
  endfacet
  facet normal 0.6845503194452978 0.25056280708573186 0.6845503194452978
    outer loop
      vertex 7.598076211353316 21 9.5
      vertex 6.732050807568877 22.73205080756888 9.732050807568877
      vertex 6.5 21 10.598076211353316
    endloop
  endfacet
  facet normal 0.37414645276236785 0.37414645276236785 0.8485451453933811
    outer loop
      vertex 6.732050807568877 22.73205080756888 9.732050807568877
      vertex 5 22.5 10.598076211353316
      vertex 6.5 21 10.598076211353316
    endloop
  endfacet
  facet normal 0.25056280708573153 0.25056280708573153 0.9351131265310294
    outer loop
      vertex 6.5 21 10.598076211353316
      vertex 5 22.5 10.598076211353316
      vertex 5 21 11
    endloop
  endfacet
  facet normal 0.6845503194452978 0.6845503194452978 0.2505628070857314
    outer loop
      vertex 7.598076211353316 22.5 8
      vertex 6.5 23.598076211353316 8
      vertex 6.732050807568877 22.73205080756888 9.732050807568877
    endloop
  endfacet
  facet normal 0.3741464527623676 0.8485451453933814 0.3741464527623676
    outer loop
      vertex 6.5 23.598076211353316 8
      vertex 5 23.598076211353316 9.5
      vertex 6.732050807568877 22.73205080756888 9.732050807568877
    endloop
  endfacet
  facet normal 0.2505628070857314 0.6845503194452979 0.6845503194452978
    outer loop
      vertex 6.732050807568877 22.73205080756888 9.732050807568877
      vertex 5 23.598076211353316 9.5
      vertex 5 22.5 10.598076211353316
    endloop
  endfacet
  facet normal 0.25056280708573153 0.9351131265310294 0.25056280708573153
    outer loop
      vertex 6.5 23.598076211353316 8
      vertex 5 24 8
      vertex 5 23.598076211353316 9.5
    endloop
  endfacet
  facet normal 0.25056280708573153 -0.25056280708573153 -0.9351131265310294
    outer loop
      vertex 37 2.9999999999999996 0
      vertex 38.5 2.9999999999999996 0.401923788646684
      vertex 37 1.4999999999999996 0.401923788646684
    endloop
  endfacet
  facet normal 0.374146452762368 -0.374146452762368 -0.848545145393381
    outer loop
      vertex 38.5 2.9999999999999996 0.401923788646684
      vertex 38.732050807568875 1.2679491924311224 1.2679491924311224
      vertex 37 1.4999999999999996 0.401923788646684
    endloop
  endfacet
  facet normal 0.25056280708573175 -0.6845503194452979 -0.6845503194452975
    outer loop
      vertex 37 1.4999999999999996 0.401923788646684
      vertex 38.732050807568875 1.2679491924311224 1.2679491924311224
      vertex 37 0.401923788646684 1.5
    endloop
  endfacet
  facet normal 0.37414645276236796 -0.8485451453933811 -0.37414645276236813
    outer loop
      vertex 38.732050807568875 1.2679491924311224 1.2679491924311224
      vertex 38.5 0.401923788646684 2.9999999999999996
      vertex 37 0.401923788646684 1.5
    endloop
  endfacet
  facet normal 0.25056280708573153 -0.9351131265310292 -0.2505628070857316
    outer loop
      vertex 37 0.401923788646684 1.5
      vertex 38.5 0.401923788646684 2.9999999999999996
      vertex 37 0 2.9999999999999996
    endloop
  endfacet
  facet normal 0.6845503194452975 -0.2505628070857324 -0.6845503194452978
    outer loop
      vertex 38.5 2.9999999999999996 0.401923788646684
      vertex 39.598076211353316 2.9999999999999996 1.4999999999999996
      vertex 38.732050807568875 1.2679491924311224 1.2679491924311224
    endloop
  endfacet
  facet normal 0.8485451453933807 -0.3741464527623685 -0.3741464527623685
    outer loop
      vertex 39.598076211353316 2.9999999999999996 1.4999999999999996
      vertex 39.598076211353316 1.4999999999999996 2.9999999999999996
      vertex 38.732050807568875 1.2679491924311224 1.2679491924311224
    endloop
  endfacet
  facet normal 0.6845503194452975 -0.6845503194452979 -0.2505628070857325
    outer loop
      vertex 38.732050807568875 1.2679491924311224 1.2679491924311224
      vertex 39.598076211353316 1.4999999999999996 2.9999999999999996
      vertex 38.5 0.401923788646684 2.9999999999999996
    endloop
  endfacet
  facet normal 0.9351131265310294 -0.25056280708573153 -0.25056280708573153
    outer loop
      vertex 39.598076211353316 2.9999999999999996 1.4999999999999996
      vertex 40 2.9999999999999996 2.9999999999999996
      vertex 39.598076211353316 1.4999999999999996 2.9999999999999996
    endloop
  endfacet
  facet normal 0.9351131265310294 -0.25056280708573153 0.2505628070857315
    outer loop
      vertex 40 2.9999999999999996 2.9999999999999996
      vertex 39.598076211353316 2.9999999999999996 4.5
      vertex 39.598076211353316 1.4999999999999996 2.9999999999999996
    endloop
  endfacet
  facet normal 0.8485451453933807 -0.3741464527623687 0.3741464527623685
    outer loop
      vertex 39.598076211353316 2.9999999999999996 4.5
      vertex 38.732050807568875 1.2679491924311221 4.732050807568877
      vertex 39.598076211353316 1.4999999999999996 2.9999999999999996
    endloop
  endfacet
  facet normal 0.6845503194452975 -0.6845503194452978 0.25056280708573236
    outer loop
      vertex 39.598076211353316 1.4999999999999996 2.9999999999999996
      vertex 38.732050807568875 1.2679491924311221 4.732050807568877
      vertex 38.5 0.401923788646684 2.9999999999999996
    endloop
  endfacet
  facet normal 0.3741464527623681 -0.8485451453933811 0.3741464527623679
    outer loop
      vertex 38.732050807568875 1.2679491924311221 4.732050807568877
      vertex 37 0.401923788646684 4.5
      vertex 38.5 0.401923788646684 2.9999999999999996
    endloop
  endfacet
  facet normal 0.25056280708573153 -0.9351131265310294 0.2505628070857315
    outer loop
      vertex 38.5 0.401923788646684 2.9999999999999996
      vertex 37 0.401923788646684 4.5
      vertex 37 0 2.9999999999999996
    endloop
  endfacet
  facet normal 0.6845503194452975 -0.25056280708573264 0.6845503194452975
    outer loop
      vertex 39.598076211353316 2.9999999999999996 4.5
      vertex 38.5 2.9999999999999996 5.598076211353316
      vertex 38.732050807568875 1.2679491924311221 4.732050807568877
    endloop
  endfacet
  facet normal 0.3741464527623683 -0.3741464527623683 0.8485451453933808
    outer loop
      vertex 38.5 2.9999999999999996 5.598076211353316
      vertex 37 1.4999999999999996 5.598076211353316
      vertex 38.732050807568875 1.2679491924311221 4.732050807568877
    endloop
  endfacet
  facet normal 0.250562807085732 -0.6845503194452978 0.6845503194452974
    outer loop
      vertex 38.732050807568875 1.2679491924311221 4.732050807568877
      vertex 37 1.4999999999999996 5.598076211353316
      vertex 37 0.401923788646684 4.5
    endloop
  endfacet
  facet normal 0.25056280708573153 -0.25056280708573153 0.9351131265310294
    outer loop
      vertex 38.5 2.9999999999999996 5.598076211353316
      vertex 37 2.9999999999999996 6
      vertex 37 1.4999999999999996 5.598076211353316
    endloop
  endfacet
  facet normal 0.25056280708573153 0.25056280708573153 -0.9351131265310294
    outer loop
      vertex 37 21 0
      vertex 37 22.5 0.401923788646684
      vertex 38.5 21 0.401923788646684
    endloop
  endfacet
  facet normal 0.37414645276236835 0.37414645276236835 -0.8485451453933808
    outer loop
      vertex 37 22.5 0.401923788646684
      vertex 38.732050807568875 22.732050807568875 1.2679491924311224
      vertex 38.5 21 0.401923788646684
    endloop
  endfacet
  facet normal 0.6845503194452974 0.25056280708573275 -0.6845503194452978
    outer loop
      vertex 38.5 21 0.401923788646684
      vertex 38.732050807568875 22.732050807568875 1.2679491924311224
      vertex 39.598076211353316 21 1.4999999999999996
    endloop
  endfacet
  facet normal 0.8485451453933803 0.37414645276236885 -0.37414645276236885
    outer loop
      vertex 38.732050807568875 22.732050807568875 1.2679491924311224
      vertex 39.598076211353316 22.5 2.9999999999999996
      vertex 39.598076211353316 21 1.4999999999999996
    endloop
  endfacet
  facet normal 0.9351131265310294 0.25056280708573153 -0.25056280708573153
    outer loop
      vertex 39.598076211353316 21 1.4999999999999996
      vertex 39.598076211353316 22.5 2.9999999999999996
      vertex 40 21 2.9999999999999996
    endloop
  endfacet
  facet normal 0.25056280708573275 0.6845503194452974 -0.6845503194452978
    outer loop
      vertex 37 22.5 0.401923788646684
      vertex 37 23.598076211353316 1.4999999999999996
      vertex 38.732050807568875 22.732050807568875 1.2679491924311224
    endloop
  endfacet
  facet normal 0.37414645276236885 0.8485451453933803 -0.37414645276236885
    outer loop
      vertex 37 23.598076211353316 1.4999999999999996
      vertex 38.5 23.598076211353316 2.9999999999999996
      vertex 38.732050807568875 22.732050807568875 1.2679491924311224
    endloop
  endfacet
  facet normal 0.6845503194452975 0.6845503194452975 -0.25056280708573336
    outer loop
      vertex 38.732050807568875 22.732050807568875 1.2679491924311224
      vertex 38.5 23.598076211353316 2.9999999999999996
      vertex 39.598076211353316 22.5 2.9999999999999996
    endloop
  endfacet
  facet normal 0.25056280708573153 0.9351131265310294 -0.25056280708573153
    outer loop
      vertex 37 23.598076211353316 1.4999999999999996
      vertex 37 24 2.9999999999999996
      vertex 38.5 23.598076211353316 2.9999999999999996
    endloop
  endfacet
  facet normal 0.25056280708573153 0.25056280708573153 0.9351131265310294
    outer loop
      vertex 37 21 6
      vertex 38.5 21 5.598076211353316
      vertex 37 22.5 5.598076211353316
    endloop
  endfacet
  facet normal 0.37414645276236813 0.37414645276236813 0.848545145393381
    outer loop
      vertex 38.5 21 5.598076211353316
      vertex 38.732050807568875 22.73205080756888 4.732050807568877
      vertex 37 22.5 5.598076211353316
    endloop
  endfacet
  facet normal 0.25056280708573164 0.6845503194452978 0.6845503194452978
    outer loop
      vertex 37 22.5 5.598076211353316
      vertex 38.732050807568875 22.73205080756888 4.732050807568877
      vertex 37 23.598076211353316 4.5
    endloop
  endfacet
  facet normal 0.3741464527623679 0.8485451453933813 0.37414645276236774
    outer loop
      vertex 38.732050807568875 22.73205080756888 4.732050807568877
      vertex 38.5 23.598076211353316 2.9999999999999996
      vertex 37 23.598076211353316 4.5
    endloop
  endfacet
  facet normal 0.25056280708573153 0.9351131265310294 0.2505628070857315
    outer loop
      vertex 37 23.598076211353316 4.5
      vertex 38.5 23.598076211353316 2.9999999999999996
      vertex 37 24 2.9999999999999996
    endloop
  endfacet
  facet normal 0.6845503194452977 0.2505628070857325 0.6845503194452977
    outer loop
      vertex 38.5 21 5.598076211353316
      vertex 39.598076211353316 21 4.5
      vertex 38.732050807568875 22.73205080756888 4.732050807568877
    endloop
  endfacet
  facet normal 0.8485451453933807 0.37414645276236846 0.37414645276236835
    outer loop
      vertex 39.598076211353316 21 4.5
      vertex 39.598076211353316 22.5 2.9999999999999996
      vertex 38.732050807568875 22.73205080756888 4.732050807568877
    endloop
  endfacet
  facet normal 0.6845503194452977 0.6845503194452977 0.25056280708573203
    outer loop
      vertex 38.732050807568875 22.73205080756888 4.732050807568877
      vertex 39.598076211353316 22.5 2.9999999999999996
      vertex 38.5 23.598076211353316 2.9999999999999996
    endloop
  endfacet
  facet normal 0.9351131265310294 0.25056280708573153 0.2505628070857315
    outer loop
      vertex 39.598076211353316 21 4.5
      vertex 40 21 2.9999999999999996
      vertex 39.598076211353316 22.5 2.9999999999999996
    endloop
  endfacet
endsolid OpenSCAD_Model
