solid OpenSCAD_Model
  facet normal 0 -1 0
    outer loop
      vertex 28.5 0 1.4999999999999998
      vertex 28.5 0 14.5
      vertex 18 0 14.5
    endloop
  endfacet
  facet normal 0 -1 0
    outer loop
      vertex 28.5 0 1.4999999999999998
      vertex 18 0 14.5
      vertex 18 0 6.5
    endloop
  endfacet
  facet normal 0 -1 0
    outer loop
      vertex 1.4999999999999998 0 1.4999999999999998
      vertex 28.5 0 1.4999999999999998
      vertex 18 0 6.5
    endloop
  endfacet
  facet normal 0 -1 0
    outer loop
      vertex 1.4999999999999998 0 1.4999999999999998
      vertex 18 0 6.5
      vertex 12 0 6.5
    endloop
  endfacet
  facet normal 0 -1 0
    outer loop
      vertex 1.4999999999999998 0 14.5
      vertex 1.4999999999999998 0 1.4999999999999998
      vertex 12 0 6.5
    endloop
  endfacet
  facet normal 0 -1 0
    outer loop
      vertex 12 0 6.5
      vertex 12 0 14.5
      vertex 1.4999999999999998 0 14.5
    endloop
  endfacet
  facet normal -1 0 0
    outer loop
      vertex 0 22.5 1.4999999999999998
      vertex 0 1.4999999999999998 1.4999999999999998
      vertex 0 1.4999999999999998 14.5
    endloop
  endfacet
  facet normal -1 0 0
    outer loop
      vertex 0 1.4999999999999998 14.5
      vertex 0 22.5 14.5
      vertex 0 22.5 1.4999999999999998
    endloop
  endfacet
  facet normal 0 0 1
    outer loop
      vertex 1.4999999999999998 22.5 16
      vertex 1.4999999999999998 1.4999999999999998 16
      vertex 12 1.4999999999999998 16
    endloop
  endfacet
  facet normal 0 0 1
    outer loop
      vertex 12 1.4999999999999998 16
      vertex 12 22.5 16
      vertex 1.4999999999999998 22.5 16
    endloop
  endfacet
  facet normal 0 0 -1
    outer loop
      vertex 28.5 1.4999999999999998 0
      vertex 1.4999999999999998 1.4999999999999998 0
      vertex 1.4999999999999998 22.5 0
    endloop
  endfacet
  facet normal 0 0 -1
    outer loop
      vertex 1.4999999999999998 22.5 0
      vertex 28.5 22.5 0
      vertex 28.5 1.4999999999999998 0
    endloop
  endfacet
  facet normal 0 1 0
    outer loop
      vertex 1.4999999999999998 24 1.4999999999999998
      vertex 1.4999999999999998 24 14.5
      vertex 12 24 14.5
    endloop
  endfacet
  facet normal 0 1 0
    outer loop
      vertex 1.4999999999999998 24 1.4999999999999998
      vertex 12 24 14.5
      vertex 12 24 6.5
    endloop
  endfacet
  facet normal 0 1 0
    outer loop
      vertex 28.5 24 1.4999999999999998
      vertex 1.4999999999999998 24 1.4999999999999998
      vertex 12 24 6.5
    endloop
  endfacet
  facet normal 0 1 0
    outer loop
      vertex 28.5 24 1.4999999999999998
      vertex 12 24 6.5
      vertex 18 24 6.5
    endloop
  endfacet
  facet normal 0 1 0
    outer loop
      vertex 28.5 24 1.4999999999999998
      vertex 18 24 6.5
      vertex 18 24 14.5
    endloop
  endfacet
  facet normal 0 1 0
    outer loop
      vertex 18 24 14.5
      vertex 28.5 24 14.5
      vertex 28.5 24 1.4999999999999998
    endloop
  endfacet
  facet normal 1 0 0
    outer loop
      vertex 30 1.4999999999999998 14.5
      vertex 30 1.4999999999999998 1.4999999999999998
      vertex 30 22.5 1.4999999999999998
    endloop
  endfacet
  facet normal 1 0 0
    outer loop
      vertex 30 22.5 1.4999999999999998
      vertex 30 22.5 14.5
      vertex 30 1.4999999999999998 14.5
    endloop
  endfacet
  facet normal 0 0 1
    outer loop
      vertex 18 22.5 16
      vertex 18 1.4999999999999998 16
      vertex 28.5 1.4999999999999998 16
    endloop
  endfacet
  facet normal 0 0 1
    outer loop
      vertex 28.5 1.4999999999999998 16
      vertex 28.5 22.5 16
      vertex 18 22.5 16
    endloop
  endfacet
  facet normal 1 0 0
    outer loop
      vertex 13.5 1.4999999999999998 14.5
      vertex 13.5 1.4999999999999998 9.5
      vertex 13.5 22.5 9.5
    endloop
  endfacet
  facet normal 1 0 0
    outer loop
      vertex 13.5 22.5 9.5
      vertex 13.5 22.5 14.5
      vertex 13.5 1.4999999999999998 14.5
    endloop
  endfacet
  facet normal -1 0 0
    outer loop
      vertex 16.5 22.5 9.5
      vertex 16.5 1.4999999999999998 9.5
      vertex 16.5 1.4999999999999998 14.5
    endloop
  endfacet
  facet normal -1 0 0
    outer loop
      vertex 16.5 1.4999999999999998 14.5
      vertex 16.5 22.5 14.5
      vertex 16.5 22.5 9.5
    endloop
  endfacet
  facet normal -0.3826834323650898 -0.9238795325112868 0
    outer loop
      vertex 1.4999999999999998 0 1.4999999999999998
      vertex 1.4999999999999998 0 14.5
      vertex 0.4393398282201786 0.4393398282201786 14.5
    endloop
  endfacet
  facet normal -0.3826834323650898 -0.9238795325112868 -1.3040430293924822e-18
    outer loop
      vertex 1.4999999999999998 0 1.4999999999999998
      vertex 0.4393398282201786 0.4393398282201786 14.5
      vertex 0.4393398282201786 0.4393398282201786 1.4999999999999998
    endloop
  endfacet
  facet normal -0.9238795325112868 -0.3826834323650898 0
    outer loop
      vertex 0.4393398282201786 0.4393398282201786 1.4999999999999998
      vertex 0.4393398282201786 0.4393398282201786 14.5
      vertex 0 1.4999999999999998 14.5
    endloop
  endfacet
  facet normal -0.9238795325112868 -0.3826834323650898 -1.3040430293924822e-18
    outer loop
      vertex 0.4393398282201786 0.4393398282201786 1.4999999999999998
      vertex 0 1.4999999999999998 14.5
      vertex 0 1.4999999999999998 1.4999999999999998
    endloop
  endfacet
  facet normal -0.9238795325112868 0 -0.3826834323650897
    outer loop
      vertex 0 1.4999999999999998 1.4999999999999998
      vertex 0 22.5 1.4999999999999998
      vertex 0.4393398282201786 22.5 0.4393398282201786
    endloop
  endfacet
  facet normal -0.9238795325112868 -8.072647324810604e-19 -0.3826834323650897
    outer loop
      vertex 0 1.4999999999999998 1.4999999999999998
      vertex 0.4393398282201786 22.5 0.4393398282201786
      vertex 0.4393398282201786 1.4999999999999998 0.4393398282201786
    endloop
  endfacet
  facet normal -0.3826834323650897 0 -0.9238795325112868
    outer loop
      vertex 0.4393398282201786 1.4999999999999998 0.4393398282201786
      vertex 0.4393398282201786 22.5 0.4393398282201786
      vertex 1.4999999999999998 22.5 0
    endloop
  endfacet
  facet normal -0.3826834323650897 -8.072647324810604e-19 -0.9238795325112868
    outer loop
      vertex 0.4393398282201786 1.4999999999999998 0.4393398282201786
      vertex 1.4999999999999998 22.5 0
      vertex 1.4999999999999998 1.4999999999999998 0
    endloop
  endfacet
  facet normal 0 -0.9238795325112868 -0.3826834323650897
    outer loop
      vertex 1.4999999999999998 0 1.4999999999999998
      vertex 28.5 0.4393398282201786 0.4393398282201786
      vertex 28.5 0 1.4999999999999998
    endloop
  endfacet
  facet normal -6.278725697074915e-19 -0.9238795325112868 -0.3826834323650897
    outer loop
      vertex 1.4999999999999998 0 1.4999999999999998
      vertex 1.4999999999999998 0.4393398282201786 0.4393398282201786
      vertex 28.5 0.4393398282201786 0.4393398282201786
    endloop
  endfacet
  facet normal 0 -0.3826834323650897 -0.9238795325112868
    outer loop
      vertex 1.4999999999999998 0.4393398282201786 0.4393398282201786
      vertex 28.5 1.4999999999999998 0
      vertex 28.5 0.4393398282201786 0.4393398282201786
    endloop
  endfacet
  facet normal -6.278725697074915e-19 -0.3826834323650897 -0.9238795325112868
    outer loop
      vertex 1.4999999999999998 0.4393398282201786 0.4393398282201786
      vertex 1.4999999999999998 1.4999999999999998 0
      vertex 28.5 1.4999999999999998 0
    endloop
  endfacet
  facet normal 0 -0.9238795325112867 0.3826834323650897
    outer loop
      vertex 1.4999999999999998 0 14.5
      vertex 12 0 14.5
      vertex 12 0.4393398282201786 15.560660171779821
    endloop
  endfacet
  facet normal -1.8731132645539916e-18 -0.9238795325112867 0.3826834323650897
    outer loop
      vertex 1.4999999999999998 0 14.5
      vertex 12 0.4393398282201786 15.560660171779821
      vertex 1.4999999999999998 0.4393398282201786 15.560660171779821
    endloop
  endfacet
  facet normal 0 -0.38268343236509 0.9238795325112866
    outer loop
      vertex 1.4999999999999998 0.4393398282201786 15.560660171779821
      vertex 12 0.4393398282201786 15.560660171779821
      vertex 12 1.4999999999999998 16
    endloop
  endfacet
  facet normal -7.557519092184832e-19 -0.38268343236509 0.9238795325112866
    outer loop
      vertex 1.4999999999999998 0.4393398282201786 15.560660171779821
      vertex 12 1.4999999999999998 16
      vertex 1.4999999999999998 1.4999999999999998 16
    endloop
  endfacet
  facet normal -0.9238795325112867 0 0.3826834323650897
    outer loop
      vertex 0 1.4999999999999998 14.5
      vertex 0.4393398282201786 22.5 15.560660171779821
      vertex 0 22.5 14.5
    endloop
  endfacet
  facet normal -0.9238795325112867 -9.365566322769958e-19 0.3826834323650897
    outer loop
      vertex 0 1.4999999999999998 14.5
      vertex 0.4393398282201786 1.4999999999999998 15.560660171779821
      vertex 0.4393398282201786 22.5 15.560660171779821
    endloop
  endfacet
  facet normal -0.38268343236509 0 0.9238795325112866
    outer loop
      vertex 0.4393398282201786 1.4999999999999998 15.560660171779821
      vertex 1.4999999999999998 22.5 16
      vertex 0.4393398282201786 22.5 15.560660171779821
    endloop
  endfacet
  facet normal -0.38268343236509 -3.778759546092416e-19 0.9238795325112866
    outer loop
      vertex 0.4393398282201786 1.4999999999999998 15.560660171779821
      vertex 1.4999999999999998 1.4999999999999998 16
      vertex 1.4999999999999998 22.5 16
    endloop
  endfacet
  facet normal 0.38268343236508984 -0.9238795325112868 0
    outer loop
      vertex 12 0 6.5
      vertex 13.060660171779821 0.4393398282201786 14.5
      vertex 12 0 14.5
    endloop
  endfacet
  facet normal -0.06305921491426861 -0.9960155976834861 0.06305921491426876
    outer loop
      vertex 12 0 6.5
      vertex 13.5 2.220446049250313e-16 8
      vertex 13.060660171779821 0.4393398282201786 14.5
    endloop
  endfacet
  facet normal 0.920297832264242 -0.381199843546409 0.0879691946645559
    outer loop
      vertex 13.5 2.220446049250313e-16 8
      vertex 13.5 1.4999999999999998 14.5
      vertex 13.060660171779821 0.4393398282201786 14.5
    endloop
  endfacet
  facet normal 1 0 0
    outer loop
      vertex 13.5 2.220446049250313e-16 8
      vertex 13.5 1.4999999999999998 9.5
      vertex 13.5 1.4999999999999998 14.5
    endloop
  endfacet
  facet normal 0.9238795325112867 0 0.3826834323650901
    outer loop
      vertex 13.5 1.4999999999999998 9.5
      vertex 13.939339828220179 22.5 8.439339828220179
      vertex 13.5 22.5 9.5
    endloop
  endfacet
  facet normal 0.9238795325112867 -1.8080472305851248e-19 0.3826834323650901
    outer loop
      vertex 13.5 1.4999999999999998 9.5
      vertex 13.939339828220179 1.4999999999999998 8.439339828220179
      vertex 13.939339828220179 22.5 8.439339828220179
    endloop
  endfacet
  facet normal 0.3826834323650901 0 0.9238795325112867
    outer loop
      vertex 13.939339828220179 1.4999999999999998 8.439339828220179
      vertex 15 22.5 8
      vertex 13.939339828220179 22.5 8.439339828220179
    endloop
  endfacet
  facet normal 0.3826834323650901 -1.8080472305851248e-19 0.9238795325112867
    outer loop
      vertex 13.939339828220179 1.4999999999999998 8.439339828220179
      vertex 15 1.4999999999999998 8
      vertex 15 22.5 8
    endloop
  endfacet
  facet normal 0 -1 0
    outer loop
      vertex 12 0 6.5
      vertex 18 0 6.5
      vertex 16.5 0 8
    endloop
  endfacet
  facet normal -7.401486830834377e-17 -1 2.220446049250313e-16
    outer loop
      vertex 12 0 6.5
      vertex 16.5 0 8
      vertex 13.5 2.220446049250313e-16 8
    endloop
  endfacet
  facet normal 0 0 1
    outer loop
      vertex 13.5 2.220446049250313e-16 8
      vertex 16.5 0 8
      vertex 15 1.4999999999999998 8
    endloop
  endfacet
  facet normal 0.3826834323650901 0 0.9238795325112867
    outer loop
      vertex 12 1.4999999999999998 16
      vertex 13.060660171779821 22.5 15.560660171779821
      vertex 12 22.5 16
    endloop
  endfacet
  facet normal 0.3826834323650901 -1.8080472305851248e-19 0.9238795325112867
    outer loop
      vertex 12 1.4999999999999998 16
      vertex 13.060660171779821 1.4999999999999998 15.560660171779821
      vertex 13.060660171779821 22.5 15.560660171779821
    endloop
  endfacet
  facet normal 0.9238795325112867 0 0.3826834323650901
    outer loop
      vertex 13.060660171779821 1.4999999999999998 15.560660171779821
      vertex 13.5 22.5 14.5
      vertex 13.060660171779821 22.5 15.560660171779821
    endloop
  endfacet
  facet normal 0.9238795325112867 -1.8080472305851248e-19 0.3826834323650901
    outer loop
      vertex 13.060660171779821 1.4999999999999998 15.560660171779821
      vertex 13.5 1.4999999999999998 14.5
      vertex 13.5 22.5 14.5
    endloop
  endfacet
  facet normal -0.923879532511287 0.3826834323650892 0
    outer loop
      vertex 0 22.5 1.4999999999999998
      vertex 0 22.5 14.5
      vertex 0.4393398282201786 23.560660171779823 14.5
    endloop
  endfacet
  facet normal -0.923879532511287 0.3826834323650892 -1.293919795701236e-18
    outer loop
      vertex 0 22.5 1.4999999999999998
      vertex 0.4393398282201786 23.560660171779823 14.5
      vertex 0.4393398282201786 23.560660171779823 1.4999999999999998
    endloop
  endfacet
  facet normal -0.3826834323650887 0.9238795325112872 0
    outer loop
      vertex 0.4393398282201786 23.560660171779823 1.4999999999999998
      vertex 0.4393398282201786 23.560660171779823 14.5
      vertex 1.4999999999999998 24 14.5
    endloop
  endfacet
  facet normal -0.3826834323650887 0.9238795325112872 -3.9143562408407e-19
    outer loop
      vertex 0.4393398282201786 23.560660171779823 1.4999999999999998
      vertex 1.4999999999999998 24 14.5
      vertex 1.4999999999999998 24 1.4999999999999998
    endloop
  endfacet
  facet normal 0 0.3826834323650892 -0.923879532511287
    outer loop
      vertex 1.4999999999999998 22.5 0
      vertex 28.5 23.560660171779823 0.4393398282201786
      vertex 28.5 22.5 0
    endloop
  endfacet
  facet normal -6.22998420152447e-19 0.3826834323650892 -0.923879532511287
    outer loop
      vertex 1.4999999999999998 22.5 0
      vertex 1.4999999999999998 23.560660171779823 0.4393398282201786
      vertex 28.5 23.560660171779823 0.4393398282201786
    endloop
  endfacet
  facet normal 0 0.9238795325112872 -0.3826834323650887
    outer loop
      vertex 1.4999999999999998 23.560660171779823 0.4393398282201786
      vertex 28.5 24 1.4999999999999998
      vertex 28.5 23.560660171779823 0.4393398282201786
    endloop
  endfacet
  facet normal -1.8846900418862633e-19 0.9238795325112872 -0.3826834323650887
    outer loop
      vertex 1.4999999999999998 23.560660171779823 0.4393398282201786
      vertex 1.4999999999999998 24 1.4999999999999998
      vertex 28.5 24 1.4999999999999998
    endloop
  endfacet
  facet normal 0 0.38268343236508956 0.9238795325112868
    outer loop
      vertex 1.4999999999999998 22.5 16
      vertex 12 22.5 16
      vertex 12 23.560660171779823 15.560660171779821
    endloop
  endfacet
  facet normal -6.327267731362155e-19 0.38268343236508956 0.9238795325112868
    outer loop
      vertex 1.4999999999999998 22.5 16
      vertex 12 23.560660171779823 15.560660171779821
      vertex 1.4999999999999998 23.560660171779823 15.560660171779821
    endloop
  endfacet
  facet normal 0 0.9238795325112872 0.3826834323650887
    outer loop
      vertex 1.4999999999999998 23.560660171779823 15.560660171779821
      vertex 12 23.560660171779823 15.560660171779821
      vertex 12 24 14.5
    endloop
  endfacet
  facet normal -6.327267731362167e-19 0.9238795325112872 0.3826834323650887
    outer loop
      vertex 1.4999999999999998 23.560660171779823 15.560660171779821
      vertex 12 24 14.5
      vertex 1.4999999999999998 24 14.5
    endloop
  endfacet
  facet normal 0.3826834323650888 0.9238795325112872 0
    outer loop
      vertex 12 24 6.5
      vertex 12 24 14.5
      vertex 13.060660171779821 23.560660171779823 14.5
    endloop
  endfacet
  facet normal -0.0630592149142686 0.9960155976834861 0.0630592149142686
    outer loop
      vertex 12 24 6.5
      vertex 13.060660171779821 23.560660171779823 14.5
      vertex 13.5 24 8
    endloop
  endfacet
  facet normal 0.9202978322642421 0.38119984354640857 0.08796919466455583
    outer loop
      vertex 13.5 24 8
      vertex 13.060660171779821 23.560660171779823 14.5
      vertex 13.5 22.5 14.5
    endloop
  endfacet
  facet normal 1 0 0
    outer loop
      vertex 13.5 24 8
      vertex 13.5 22.5 14.5
      vertex 13.5 22.5 9.5
    endloop
  endfacet
  facet normal 0 1 0
    outer loop
      vertex 12 24 6.5
      vertex 16.5 24 8
      vertex 18 24 6.5
    endloop
  endfacet
  facet normal 0 1 0
    outer loop
      vertex 12 24 6.5
      vertex 13.5 24 8
      vertex 16.5 24 8
    endloop
  endfacet
  facet normal 0 0 1
    outer loop
      vertex 13.5 24 8
      vertex 15 22.5 8
      vertex 16.5 24 8
    endloop
  endfacet
  facet normal 0.9238795325112872 -0.3826834323650887 0
    outer loop
      vertex 30 1.4999999999999998 1.4999999999999998
      vertex 30 1.4999999999999998 14.5
      vertex 29.560660171779823 0.4393398282201786 14.5
    endloop
  endfacet
  facet normal 0.9238795325112872 -0.3826834323650887 -3.9143562408407e-19
    outer loop
      vertex 30 1.4999999999999998 1.4999999999999998
      vertex 29.560660171779823 0.4393398282201786 14.5
      vertex 29.560660171779823 0.4393398282201786 1.4999999999999998
    endloop
  endfacet
  facet normal 0.3826834323650892 -0.923879532511287 0
    outer loop
      vertex 29.560660171779823 0.4393398282201786 1.4999999999999998
      vertex 29.560660171779823 0.4393398282201786 14.5
      vertex 28.5 0 14.5
    endloop
  endfacet
  facet normal 0.3826834323650892 -0.923879532511287 -1.293919795701236e-18
    outer loop
      vertex 29.560660171779823 0.4393398282201786 1.4999999999999998
      vertex 28.5 0 14.5
      vertex 28.5 0 1.4999999999999998
    endloop
  endfacet
  facet normal 0.3826834323650892 0 -0.923879532511287
    outer loop
      vertex 28.5 1.4999999999999998 0
      vertex 28.5 22.5 0
      vertex 29.560660171779823 22.5 0.4393398282201786
    endloop
  endfacet
  facet normal 0.3826834323650892 -8.009979687674318e-19 -0.923879532511287
    outer loop
      vertex 28.5 1.4999999999999998 0
      vertex 29.560660171779823 22.5 0.4393398282201786
      vertex 29.560660171779823 1.4999999999999998 0.4393398282201786
    endloop
  endfacet
  facet normal 0.9238795325112872 0 -0.38268343236508867
    outer loop
      vertex 29.560660171779823 1.4999999999999998 0.4393398282201786
      vertex 29.560660171779823 22.5 0.4393398282201786
      vertex 30 22.5 1.4999999999999998
    endloop
  endfacet
  facet normal 0.9238795325112872 -2.423172910996624e-19 -0.38268343236508867
    outer loop
      vertex 29.560660171779823 1.4999999999999998 0.4393398282201786
      vertex 30 22.5 1.4999999999999998
      vertex 30 1.4999999999999998 1.4999999999999998
    endloop
  endfacet
  facet normal -0.3826834323650892 -0.923879532511287 0
    outer loop
      vertex 18 0 6.5
      vertex 18 0 14.5
      vertex 16.939339828220177 0.4393398282201786 14.5
    endloop
  endfacet
  facet normal 0.0630592149142688 -0.9960155976834861 0.0630592149142688
    outer loop
      vertex 18 0 6.5
      vertex 16.939339828220177 0.4393398282201786 14.5
      vertex 16.5 0 8
    endloop
  endfacet
  facet normal -0.9202978322642424 -0.3811998435464078 0.08796919466455562
    outer loop
      vertex 16.5 0 8
      vertex 16.939339828220177 0.4393398282201786 14.5
      vertex 16.5 1.4999999999999998 14.5
    endloop
  endfacet
  facet normal -1 0 0
    outer loop
      vertex 16.5 0 8
      vertex 16.5 1.4999999999999998 14.5
      vertex 16.5 1.4999999999999998 9.5
    endloop
  endfacet
  facet normal -0.38268343236508956 0 0.9238795325112868
    outer loop
      vertex 15 1.4999999999999998 8
      vertex 16.060660171779823 22.5 8.439339828220179
      vertex 15 22.5 8
    endloop
  endfacet
  facet normal -0.38268343236508956 3.1636338656810777e-19 0.9238795325112868
    outer loop
      vertex 15 1.4999999999999998 8
      vertex 16.060660171779823 1.4999999999999998 8.439339828220179
      vertex 16.060660171779823 22.5 8.439339828220179
    endloop
  endfacet
  facet normal -0.9238795325112872 0 0.3826834323650887
    outer loop
      vertex 16.060660171779823 1.4999999999999998 8.439339828220179
      vertex 16.5 22.5 9.5
      vertex 16.060660171779823 22.5 8.439339828220179
    endloop
  endfacet
  facet normal -0.9238795325112872 3.1636338656810835e-19 0.3826834323650887
    outer loop
      vertex 16.060660171779823 1.4999999999999998 8.439339828220179
      vertex 16.5 1.4999999999999998 9.5
      vertex 16.5 22.5 9.5
    endloop
  endfacet
  facet normal 0 -0.9238795325112867 0.3826834323650897
    outer loop
      vertex 18 0 14.5
      vertex 28.5 0 14.5
      vertex 28.5 0.4393398282201786 15.560660171779821
    endloop
  endfacet
  facet normal -1.8731132645539916e-18 -0.9238795325112867 0.3826834323650897
    outer loop
      vertex 18 0 14.5
      vertex 28.5 0.4393398282201786 15.560660171779821
      vertex 18 0.4393398282201786 15.560660171779821
    endloop
  endfacet
  facet normal 0 -0.38268343236509 0.9238795325112866
    outer loop
      vertex 18 0.4393398282201786 15.560660171779821
      vertex 28.5 0.4393398282201786 15.560660171779821
      vertex 28.5 1.4999999999999998 16
    endloop
  endfacet
  facet normal -7.557519092184832e-19 -0.38268343236509 0.9238795325112866
    outer loop
      vertex 18 0.4393398282201786 15.560660171779821
      vertex 28.5 1.4999999999999998 16
      vertex 18 1.4999999999999998 16
    endloop
  endfacet
  facet normal -0.38268343236508956 0 0.9238795325112868
    outer loop
      vertex 18 1.4999999999999998 16
      vertex 18 22.5 16
      vertex 16.939339828220177 22.5 15.560660171779821
    endloop
  endfacet
  facet normal -0.38268343236508956 3.1636338656810777e-19 0.9238795325112868
    outer loop
      vertex 18 1.4999999999999998 16
      vertex 16.939339828220177 22.5 15.560660171779821
      vertex 16.939339828220177 1.4999999999999998 15.560660171779821
    endloop
  endfacet
  facet normal -0.9238795325112872 0 0.3826834323650887
    outer loop
      vertex 16.939339828220177 1.4999999999999998 15.560660171779821
      vertex 16.939339828220177 22.5 15.560660171779821
      vertex 16.5 22.5 14.5
    endloop
  endfacet
  facet normal -0.9238795325112872 3.1636338656810835e-19 0.3826834323650887
    outer loop
      vertex 16.939339828220177 1.4999999999999998 15.560660171779821
      vertex 16.5 22.5 14.5
      vertex 16.5 1.4999999999999998 14.5
    endloop
  endfacet
  facet normal 0.38268343236508956 0 0.9238795325112868
    outer loop
      vertex 28.5 1.4999999999999998 16
      vertex 29.560660171779823 22.5 15.560660171779821
      vertex 28.5 22.5 16
    endloop
  endfacet
  facet normal 0.38268343236508956 -3.1636338656810777e-19 0.9238795325112868
    outer loop
      vertex 28.5 1.4999999999999998 16
      vertex 29.560660171779823 1.4999999999999998 15.560660171779821
      vertex 29.560660171779823 22.5 15.560660171779821
    endloop
  endfacet
  facet normal 0.9238795325112872 0 0.3826834323650887
    outer loop
      vertex 29.560660171779823 1.4999999999999998 15.560660171779821
      vertex 30 22.5 14.5
      vertex 29.560660171779823 22.5 15.560660171779821
    endloop
  endfacet
  facet normal 0.9238795325112872 -3.1636338656810835e-19 0.3826834323650887
    outer loop
      vertex 29.560660171779823 1.4999999999999998 15.560660171779821
      vertex 30 1.4999999999999998 14.5
      vertex 30 22.5 14.5
    endloop
  endfacet
  facet normal 0.9238795325112874 0.3826834323650882 0
    outer loop
      vertex 30 22.5 1.4999999999999998
      vertex 29.560660171779823 23.560660171779823 14.5
      vertex 30 22.5 14.5
    endloop
  endfacet
  facet normal 0.9238795325112874 0.3826834323650882 -7.300279270483867e-19
    outer loop
      vertex 30 22.5 1.4999999999999998
      vertex 29.560660171779823 23.560660171779823 1.4999999999999998
      vertex 29.560660171779823 23.560660171779823 14.5
    endloop
  endfacet
  facet normal 0.3826834323650882 0.9238795325112874 0
    outer loop
      vertex 29.560660171779823 23.560660171779823 1.4999999999999998
      vertex 28.5 24 14.5
      vertex 29.560660171779823 23.560660171779823 14.5
    endloop
  endfacet
  facet normal 0.3826834323650882 0.9238795325112874 -7.300279270483867e-19
    outer loop
      vertex 29.560660171779823 23.560660171779823 1.4999999999999998
      vertex 28.5 24 1.4999999999999998
      vertex 28.5 24 14.5
    endloop
  endfacet
  facet normal -0.3826834323650882 0.9238795325112873 0
    outer loop
      vertex 18 24 6.5
      vertex 16.939339828220177 23.560660171779823 14.5
      vertex 18 24 14.5
    endloop
  endfacet
  facet normal 0.06305921491426861 0.9960155976834861 0.06305921491426861
    outer loop
      vertex 18 24 6.5
      vertex 16.5 24 8
      vertex 16.939339828220177 23.560660171779823 14.5
    endloop
  endfacet
  facet normal -0.9202978322642427 0.3811998435464073 0.08796919466455552
    outer loop
      vertex 16.5 24 8
      vertex 16.5 22.5 14.5
      vertex 16.939339828220177 23.560660171779823 14.5
    endloop
  endfacet
  facet normal -1 0 0
    outer loop
      vertex 16.5 24 8
      vertex 16.5 22.5 9.5
      vertex 16.5 22.5 14.5
    endloop
  endfacet
  facet normal 0 0.38268343236508956 0.9238795325112868
    outer loop
      vertex 18 22.5 16
      vertex 28.5 22.5 16
      vertex 28.5 23.560660171779823 15.560660171779821
    endloop
  endfacet
  facet normal -6.327267731362155e-19 0.38268343236508956 0.9238795325112868
    outer loop
      vertex 18 22.5 16
      vertex 28.5 23.560660171779823 15.560660171779821
      vertex 18 23.560660171779823 15.560660171779821
    endloop
  endfacet
  facet normal 0 0.9238795325112872 0.3826834323650887
    outer loop
      vertex 18 23.560660171779823 15.560660171779821
      vertex 28.5 23.560660171779823 15.560660171779821
      vertex 28.5 24 14.5
    endloop
  endfacet
  facet normal -6.327267731362167e-19 0.9238795325112872 0.3826834323650887
    outer loop
      vertex 18 23.560660171779823 15.560660171779821
      vertex 28.5 24 14.5
      vertex 18 24 14.5
    endloop
  endfacet
  facet normal -0.3574067443365932 -0.8628562094610169 -0.3574067443365932
    outer loop
      vertex 1.4999999999999998 0 1.4999999999999998
      vertex 0.4393398282201786 0.4393398282201786 1.4999999999999998
      vertex 1.4999999999999998 0.4393398282201786 0.4393398282201786
    endloop
  endfacet
  facet normal -0.5773502691896257 -0.5773502691896257 -0.5773502691896257
    outer loop
      vertex 0.4393398282201786 0.4393398282201786 1.4999999999999998
      vertex 0.4393398282201786 1.4999999999999998 0.4393398282201786
      vertex 1.4999999999999998 0.4393398282201786 0.4393398282201786
    endloop
  endfacet
  facet normal -0.35740674433659314 -0.35740674433659314 -0.8628562094610168
    outer loop
      vertex 1.4999999999999998 0.4393398282201786 0.4393398282201786
      vertex 0.4393398282201786 1.4999999999999998 0.4393398282201786
      vertex 1.4999999999999998 1.4999999999999998 0
    endloop
  endfacet
  facet normal -0.8628562094610169 -0.3574067443365932 -0.3574067443365932
    outer loop
      vertex 0.4393398282201786 0.4393398282201786 1.4999999999999998
      vertex 0 1.4999999999999998 1.4999999999999998
      vertex 0.4393398282201786 1.4999999999999998 0.4393398282201786
    endloop
  endfacet
  facet normal -0.35740674433659325 -0.8628562094610169 0.3574067443365933
    outer loop
      vertex 1.4999999999999998 0 14.5
      vertex 1.4999999999999998 0.4393398282201786 15.560660171779821
      vertex 0.4393398282201786 0.4393398282201786 14.5
    endloop
  endfacet
  facet normal -0.5773502691896257 -0.5773502691896257 0.5773502691896258
    outer loop
      vertex 1.4999999999999998 0.4393398282201786 15.560660171779821
      vertex 0.4393398282201786 1.4999999999999998 15.560660171779821
      vertex 0.4393398282201786 0.4393398282201786 14.5
    endloop
  endfacet
  facet normal -0.8628562094610169 -0.35740674433659325 0.3574067443365933
    outer loop
      vertex 0.4393398282201786 0.4393398282201786 14.5
      vertex 0.4393398282201786 1.4999999999999998 15.560660171779821
      vertex 0 1.4999999999999998 14.5
    endloop
  endfacet
  facet normal -0.3574067443365935 -0.3574067443365935 0.8628562094610166
    outer loop
      vertex 1.4999999999999998 0.4393398282201786 15.560660171779821
      vertex 1.4999999999999998 1.4999999999999998 16
      vertex 0.4393398282201786 1.4999999999999998 15.560660171779821
    endloop
  endfacet
  facet normal 0.3574067443365935 -0.3574067443365936 0.8628562094610165
    outer loop
      vertex 13.5 2.220446049250313e-16 8
      vertex 15 1.4999999999999998 8
      vertex 13.939339828220179 1.4999999999999998 8.439339828220179
    endloop
  endfacet
  facet normal 0.8628562094610165 -0.3574067443365936 0.3574067443365935
    outer loop
      vertex 13.5 2.220446049250313e-16 8
      vertex 13.939339828220179 1.4999999999999998 8.439339828220179
      vertex 13.5 1.4999999999999998 9.5
    endloop
  endfacet
  facet normal 0.3574067443365933 -0.8628562094610168 0.3574067443365933
    outer loop
      vertex 12 0 14.5
      vertex 13.060660171779821 0.4393398282201786 14.5
      vertex 12 0.4393398282201786 15.560660171779821
    endloop
  endfacet
  facet normal 0.5773502691896257 -0.5773502691896256 0.5773502691896257
    outer loop
      vertex 13.060660171779821 0.4393398282201786 14.5
      vertex 13.060660171779821 1.4999999999999998 15.560660171779821
      vertex 12 0.4393398282201786 15.560660171779821
    endloop
  endfacet
  facet normal 0.35740674433659353 -0.3574067443365935 0.8628562094610166
    outer loop
      vertex 12 0.4393398282201786 15.560660171779821
      vertex 13.060660171779821 1.4999999999999998 15.560660171779821
      vertex 12 1.4999999999999998 16
    endloop
  endfacet
  facet normal 0.8628562094610166 -0.3574067443365935 0.35740674433659353
    outer loop
      vertex 13.060660171779821 0.4393398282201786 14.5
      vertex 13.5 1.4999999999999998 14.5
      vertex 13.060660171779821 1.4999999999999998 15.560660171779821
    endloop
  endfacet
  facet normal -0.8628562094610172 0.35740674433659275 -0.3574067443365933
    outer loop
      vertex 0 22.5 1.4999999999999998
      vertex 0.4393398282201786 23.560660171779823 1.4999999999999998
      vertex 0.4393398282201786 22.5 0.4393398282201786
    endloop
  endfacet
  facet normal -0.5773502691896261 0.5773502691896252 -0.5773502691896261
    outer loop
      vertex 0.4393398282201786 23.560660171779823 1.4999999999999998
      vertex 1.4999999999999998 23.560660171779823 0.4393398282201786
      vertex 0.4393398282201786 22.5 0.4393398282201786
    endloop
  endfacet
  facet normal -0.35740674433659325 0.3574067443365927 -0.8628562094610169
    outer loop
      vertex 0.4393398282201786 22.5 0.4393398282201786
      vertex 1.4999999999999998 23.560660171779823 0.4393398282201786
      vertex 1.4999999999999998 22.5 0
    endloop
  endfacet
  facet normal -0.3574067443365924 0.8628562094610175 -0.3574067443365924
    outer loop
      vertex 0.4393398282201786 23.560660171779823 1.4999999999999998
      vertex 1.4999999999999998 24 1.4999999999999998
      vertex 1.4999999999999998 23.560660171779823 0.4393398282201786
    endloop
  endfacet
  facet normal -0.862856209461017 0.3574067443365928 0.3574067443365934
    outer loop
      vertex 0 22.5 14.5
      vertex 0.4393398282201786 22.5 15.560660171779821
      vertex 0.4393398282201786 23.560660171779823 14.5
    endloop
  endfacet
  facet normal -0.577350269189626 0.5773502691896252 0.5773502691896262
    outer loop
      vertex 0.4393398282201786 22.5 15.560660171779821
      vertex 1.4999999999999998 23.560660171779823 15.560660171779821
      vertex 0.4393398282201786 23.560660171779823 14.5
    endloop
  endfacet
  facet normal -0.35740674433659236 0.8628562094610175 0.3574067443365925
    outer loop
      vertex 0.4393398282201786 23.560660171779823 14.5
      vertex 1.4999999999999998 23.560660171779823 15.560660171779821
      vertex 1.4999999999999998 24 14.5
    endloop
  endfacet
  facet normal -0.35740674433659353 0.357406744336593 0.8628562094610168
    outer loop
      vertex 0.4393398282201786 22.5 15.560660171779821
      vertex 1.4999999999999998 22.5 16
      vertex 1.4999999999999998 23.560660171779823 15.560660171779821
    endloop
  endfacet
  facet normal 0.35740674433659353 0.35740674433659353 0.8628562094610166
    outer loop
      vertex 13.5 24 8
      vertex 13.939339828220179 22.5 8.439339828220179
      vertex 15 22.5 8
    endloop
  endfacet
  facet normal 0.8628562094610166 0.35740674433659353 0.35740674433659353
    outer loop
      vertex 13.5 24 8
      vertex 13.5 22.5 9.5
      vertex 13.939339828220179 22.5 8.439339828220179
    endloop
  endfacet
  facet normal 0.35740674433659364 0.35740674433659303 0.8628562094610168
    outer loop
      vertex 12 22.5 16
      vertex 13.060660171779821 22.5 15.560660171779821
      vertex 12 23.560660171779823 15.560660171779821
    endloop
  endfacet
  facet normal 0.5773502691896261 0.5773502691896252 0.5773502691896261
    outer loop
      vertex 13.060660171779821 22.5 15.560660171779821
      vertex 13.060660171779821 23.560660171779823 14.5
      vertex 12 23.560660171779823 15.560660171779821
    endloop
  endfacet
  facet normal 0.3574067443365924 0.8628562094610175 0.3574067443365924
    outer loop
      vertex 12 23.560660171779823 15.560660171779821
      vertex 13.060660171779821 23.560660171779823 14.5
      vertex 12 24 14.5
    endloop
  endfacet
  facet normal 0.8628562094610168 0.35740674433659303 0.35740674433659364
    outer loop
      vertex 13.060660171779821 22.5 15.560660171779821
      vertex 13.5 22.5 14.5
      vertex 13.060660171779821 23.560660171779823 14.5
    endloop
  endfacet
  facet normal 0.35740674433659275 -0.8628562094610172 -0.3574067443365933
    outer loop
      vertex 28.5 0 1.4999999999999998
      vertex 28.5 0.4393398282201786 0.4393398282201786
      vertex 29.560660171779823 0.4393398282201786 1.4999999999999998
    endloop
  endfacet
  facet normal 0.5773502691896252 -0.5773502691896261 -0.5773502691896261
    outer loop
      vertex 29.560660171779823 0.4393398282201786 1.4999999999999998
      vertex 28.5 0.4393398282201786 0.4393398282201786
      vertex 29.560660171779823 1.4999999999999998 0.4393398282201786
    endloop
  endfacet
  facet normal 0.3574067443365927 -0.35740674433659325 -0.8628562094610169
    outer loop
      vertex 28.5 0.4393398282201786 0.4393398282201786
      vertex 28.5 1.4999999999999998 0
      vertex 29.560660171779823 1.4999999999999998 0.4393398282201786
    endloop
  endfacet
  facet normal 0.8628562094610175 -0.3574067443365924 -0.3574067443365924
    outer loop
      vertex 29.560660171779823 0.4393398282201786 1.4999999999999998
      vertex 29.560660171779823 1.4999999999999998 0.4393398282201786
      vertex 30 1.4999999999999998 1.4999999999999998
    endloop
  endfacet
  facet normal -0.3574067443365931 -0.35740674433659314 0.8628562094610169
    outer loop
      vertex 16.5 0 8
      vertex 16.060660171779823 1.4999999999999998 8.439339828220179
      vertex 15 1.4999999999999998 8
    endloop
  endfacet
  facet normal -0.8628562094610175 -0.35740674433659253 0.3574067443365925
    outer loop
      vertex 16.5 0 8
      vertex 16.5 1.4999999999999998 9.5
      vertex 16.060660171779823 1.4999999999999998 8.439339828220179
    endloop
  endfacet
  facet normal -0.3574067443365928 -0.862856209461017 0.3574067443365934
    outer loop
      vertex 18 0 14.5
      vertex 18 0.4393398282201786 15.560660171779821
      vertex 16.939339828220177 0.4393398282201786 14.5
    endloop
  endfacet
  facet normal -0.5773502691896252 -0.577350269189626 0.5773502691896262
    outer loop
      vertex 16.939339828220177 0.4393398282201786 14.5
      vertex 18 0.4393398282201786 15.560660171779821
      vertex 16.939339828220177 1.4999999999999998 15.560660171779821
    endloop
  endfacet
  facet normal -0.357406744336593 -0.35740674433659353 0.8628562094610168
    outer loop
      vertex 18 0.4393398282201786 15.560660171779821
      vertex 18 1.4999999999999998 16
      vertex 16.939339828220177 1.4999999999999998 15.560660171779821
    endloop
  endfacet
  facet normal -0.8628562094610175 -0.35740674433659236 0.3574067443365925
    outer loop
      vertex 16.939339828220177 0.4393398282201786 14.5
      vertex 16.939339828220177 1.4999999999999998 15.560660171779821
      vertex 16.5 1.4999999999999998 14.5
    endloop
  endfacet
  facet normal 0.8628562094610175 -0.35740674433659236 0.3574067443365925
    outer loop
      vertex 30 1.4999999999999998 14.5
      vertex 29.560660171779823 1.4999999999999998 15.560660171779821
      vertex 29.560660171779823 0.4393398282201786 14.5
    endloop
  endfacet
  facet normal 0.5773502691896252 -0.577350269189626 0.5773502691896262
    outer loop
      vertex 29.560660171779823 1.4999999999999998 15.560660171779821
      vertex 28.5 0.4393398282201786 15.560660171779821
      vertex 29.560660171779823 0.4393398282201786 14.5
    endloop
  endfacet
  facet normal 0.3574067443365928 -0.862856209461017 0.3574067443365934
    outer loop
      vertex 29.560660171779823 0.4393398282201786 14.5
      vertex 28.5 0.4393398282201786 15.560660171779821
      vertex 28.5 0 14.5
    endloop
  endfacet
  facet normal 0.357406744336593 -0.35740674433659353 0.8628562094610168
    outer loop
      vertex 29.560660171779823 1.4999999999999998 15.560660171779821
      vertex 28.5 1.4999999999999998 16
      vertex 28.5 0.4393398282201786 15.560660171779821
    endloop
  endfacet
  facet normal 0.3574067443365928 0.3574067443365928 -0.8628562094610172
    outer loop
      vertex 28.5 22.5 0
      vertex 28.5 23.560660171779823 0.4393398282201786
      vertex 29.560660171779823 22.5 0.4393398282201786
    endloop
  endfacet
  facet normal 0.5773502691896255 0.5773502691896255 -0.5773502691896263
    outer loop
      vertex 28.5 23.560660171779823 0.4393398282201786
      vertex 29.560660171779823 23.560660171779823 1.4999999999999998
      vertex 29.560660171779823 22.5 0.4393398282201786
    endloop
  endfacet
  facet normal 0.8628562094610177 0.3574067443365919 -0.3574067443365924
    outer loop
      vertex 29.560660171779823 22.5 0.4393398282201786
      vertex 29.560660171779823 23.560660171779823 1.4999999999999998
      vertex 30 22.5 1.4999999999999998
    endloop
  endfacet
  facet normal 0.3574067443365919 0.8628562094610177 -0.3574067443365924
    outer loop
      vertex 28.5 23.560660171779823 0.4393398282201786
      vertex 28.5 24 1.4999999999999998
      vertex 29.560660171779823 23.560660171779823 1.4999999999999998
    endloop
  endfacet
  facet normal -0.3574067443365931 0.3574067443365931 0.8628562094610169
    outer loop
      vertex 16.5 24 8
      vertex 15 22.5 8
      vertex 16.060660171779823 22.5 8.439339828220179
    endloop
  endfacet
  facet normal -0.8628562094610174 0.3574067443365924 0.3574067443365924
    outer loop
      vertex 16.5 24 8
      vertex 16.060660171779823 22.5 8.439339828220179
      vertex 16.5 22.5 9.5
    endloop
  endfacet
  facet normal -0.3574067443365931 0.3574067443365931 0.8628562094610169
    outer loop
      vertex 18 22.5 16
      vertex 18 23.560660171779823 15.560660171779821
      vertex 16.939339828220177 22.5 15.560660171779821
    endloop
  endfacet
  facet normal -0.5773502691896254 0.5773502691896254 0.5773502691896264
    outer loop
      vertex 16.939339828220177 22.5 15.560660171779821
      vertex 18 23.560660171779823 15.560660171779821
      vertex 16.939339828220177 23.560660171779823 14.5
    endloop
  endfacet
  facet normal -0.357406744336592 0.8628562094610176 0.35740674433659253
    outer loop
      vertex 18 23.560660171779823 15.560660171779821
      vertex 18 24 14.5
      vertex 16.939339828220177 23.560660171779823 14.5
    endloop
  endfacet
  facet normal -0.8628562094610176 0.357406744336592 0.35740674433659253
    outer loop
      vertex 16.939339828220177 22.5 15.560660171779821
      vertex 16.939339828220177 23.560660171779823 14.5
      vertex 16.5 22.5 14.5
    endloop
  endfacet
  facet normal 0.3574067443365931 0.3574067443365931 0.8628562094610169
    outer loop
      vertex 28.5 22.5 16
      vertex 29.560660171779823 22.5 15.560660171779821
      vertex 28.5 23.560660171779823 15.560660171779821
    endloop
  endfacet
  facet normal 0.5773502691896254 0.5773502691896254 0.5773502691896264
    outer loop
      vertex 28.5 23.560660171779823 15.560660171779821
      vertex 29.560660171779823 22.5 15.560660171779821
      vertex 29.560660171779823 23.560660171779823 14.5
    endloop
  endfacet
  facet normal 0.8628562094610176 0.357406744336592 0.35740674433659253
    outer loop
      vertex 29.560660171779823 22.5 15.560660171779821
      vertex 30 22.5 14.5
      vertex 29.560660171779823 23.560660171779823 14.5
    endloop
  endfacet
  facet normal 0.357406744336592 0.8628562094610176 0.35740674433659253
    outer loop
      vertex 28.5 23.560660171779823 15.560660171779821
      vertex 29.560660171779823 23.560660171779823 14.5
      vertex 28.5 24 14.5
    endloop
  endfacet
endsolid OpenSCAD_Model
