solid OpenSCAD_Model
  facet normal -0.9351131265310295 -0.25056280708573125 -0.25056280708573125
    outer loop
      vertex 0 3.0000000000000004 3.0000000000000004
      vertex 0.401923788646684 2.9999999999999996 1.4999999999999996
      vertex 0.401923788646684 1.4999999999999996 2.9999999999999996
    endloop
  endfacet
  facet normal -0.8485451453933811 -0.37414645276236813 -0.37414645276236813
    outer loop
      vertex 0.401923788646684 1.4999999999999996 2.9999999999999996
      vertex 0.401923788646684 2.9999999999999996 1.4999999999999996
      vertex 1.2679491924311228 1.2679491924311233 1.2679491924311228
    endloop
  endfacet
  facet normal -0.6845503194452977 -0.2505628070857319 -0.6845503194452979
    outer loop
      vertex 0.401923788646684 2.9999999999999996 1.4999999999999996
      vertex 1.5 2.9999999999999996 0.401923788646684
      vertex 1.2679491924311228 1.2679491924311233 1.2679491924311228
    endloop
  endfacet
  facet normal -0.37414645276236796 -0.37414645276236796 -0.8485451453933811
    outer loop
      vertex 1.2679491924311228 1.2679491924311233 1.2679491924311228
      vertex 1.5 2.9999999999999996 0.401923788646684
      vertex 2.9999999999999996 1.5 0.401923788646684
    endloop
  endfacet
  facet normal -0.2505628070857313 -0.2505628070857313 -0.9351131265310294
    outer loop
      vertex 1.5 2.9999999999999996 0.401923788646684
      vertex 3.0000000000000004 3.0000000000000004 0
      vertex 2.9999999999999996 1.5 0.401923788646684
    endloop
  endfacet
  facet normal -0.6845503194452975 -0.6845503194452978 -0.250562807085732
    outer loop
      vertex 0.401923788646684 1.4999999999999996 2.9999999999999996
      vertex 1.2679491924311228 1.2679491924311233 1.2679491924311228
      vertex 1.5 0.401923788646684 2.9999999999999996
    endloop
  endfacet
  facet normal -0.37414645276236813 -0.848545145393381 -0.374146452762368
    outer loop
      vertex 1.5 0.401923788646684 2.9999999999999996
      vertex 1.2679491924311228 1.2679491924311233 1.2679491924311228
      vertex 2.9999999999999996 0.401923788646684 1.4999999999999996
    endloop
  endfacet
  facet normal -0.25056280708573203 -0.6845503194452977 -0.6845503194452979
    outer loop
      vertex 1.2679491924311228 1.2679491924311233 1.2679491924311228
      vertex 2.9999999999999996 1.5 0.401923788646684
      vertex 2.9999999999999996 0.401923788646684 1.4999999999999996
    endloop
  endfacet
  facet normal -0.2505628070857316 -0.9351131265310292 -0.25056280708573153
    outer loop
      vertex 1.5 0.401923788646684 2.9999999999999996
      vertex 2.9999999999999996 0.401923788646684 1.4999999999999996
      vertex 2.9999999999999996 0 2.9999999999999996
    endloop
  endfacet
  facet normal -0.9351131265310294 -0.25056280708573153 0.2505628070857315
    outer loop
      vertex 0 3.0000000000000004 3.0000000000000004
      vertex 0.401923788646684 1.4999999999999996 2.9999999999999996
      vertex 0.401923788646684 2.9999999999999996 4.5
    endloop
  endfacet
  facet normal -0.8485451453933811 -0.374146452762368 0.3741464527623679
    outer loop
      vertex 0.401923788646684 1.4999999999999996 2.9999999999999996
      vertex 1.2679491924311228 1.2679491924311228 4.732050807568877
      vertex 0.401923788646684 2.9999999999999996 4.5
    endloop
  endfacet
  facet normal -0.6845503194452977 -0.2505628070857319 0.6845503194452977
    outer loop
      vertex 0.401923788646684 2.9999999999999996 4.5
      vertex 1.2679491924311228 1.2679491924311228 4.732050807568877
      vertex 1.5 2.9999999999999996 5.598076211353316
    endloop
  endfacet
  facet normal -0.3741464527623681 -0.3741464527623681 0.848545145393381
    outer loop
      vertex 1.2679491924311228 1.2679491924311228 4.732050807568877
      vertex 2.9999999999999996 1.5 5.598076211353316
      vertex 1.5 2.9999999999999996 5.598076211353316
    endloop
  endfacet
  facet normal -0.2505628070857315 -0.2505628070857315 0.9351131265310294
    outer loop
      vertex 1.5 2.9999999999999996 5.598076211353316
      vertex 2.9999999999999996 1.5 5.598076211353316
      vertex 3.0000000000000004 2.9999999999999996 6
    endloop
  endfacet
  facet normal -0.6845503194452977 -0.6845503194452979 0.2505628070857318
    outer loop
      vertex 0.401923788646684 1.4999999999999996 2.9999999999999996
      vertex 1.5 0.401923788646684 2.9999999999999996
      vertex 1.2679491924311228 1.2679491924311228 4.732050807568877
    endloop
  endfacet
  facet normal -0.374146452762368 -0.8485451453933811 0.3741464527623678
    outer loop
      vertex 1.5 0.401923788646684 2.9999999999999996
      vertex 2.9999999999999996 0.401923788646684 4.5
      vertex 1.2679491924311228 1.2679491924311228 4.732050807568877
    endloop
  endfacet
  facet normal -0.2505628070857319 -0.6845503194452978 0.6845503194452977
    outer loop
      vertex 1.2679491924311228 1.2679491924311228 4.732050807568877
      vertex 2.9999999999999996 0.401923788646684 4.5
      vertex 2.9999999999999996 1.5 5.598076211353316
    endloop
  endfacet
  facet normal -0.25056280708573164 -0.9351131265310294 0.2505628070857315
    outer loop
      vertex 1.5 0.401923788646684 2.9999999999999996
      vertex 2.9999999999999996 0 2.9999999999999996
      vertex 2.9999999999999996 0.401923788646684 4.5
    endloop
  endfacet
  facet normal -0.9351131265310294 0.2505628070857315 -0.25056280708573153
    outer loop
      vertex 0 3.0000000000000004 3.0000000000000004
      vertex 0.401923788646684 4.5 2.9999999999999996
      vertex 0.401923788646684 2.9999999999999996 1.4999999999999996
    endloop
  endfacet
  facet normal -0.8485451453933811 0.37414645276236785 -0.374146452762368
    outer loop
      vertex 0.401923788646684 4.5 2.9999999999999996
      vertex 1.2679491924311228 4.732050807568878 1.2679491924311233
      vertex 0.401923788646684 2.9999999999999996 1.4999999999999996
    endloop
  endfacet
  facet normal -0.6845503194452975 0.2505628070857318 -0.6845503194452979
    outer loop
      vertex 0.401923788646684 2.9999999999999996 1.4999999999999996
      vertex 1.2679491924311228 4.732050807568878 1.2679491924311233
      vertex 1.5 2.9999999999999996 0.401923788646684
    endloop
  endfacet
  facet normal -0.3741464527623681 0.3741464527623679 -0.8485451453933811
    outer loop
      vertex 1.2679491924311228 4.732050807568878 1.2679491924311233
      vertex 2.9999999999999996 4.5 0.401923788646684
      vertex 1.5 2.9999999999999996 0.401923788646684
    endloop
  endfacet
  facet normal -0.25056280708573164 0.2505628070857315 -0.9351131265310294
    outer loop
      vertex 1.5 2.9999999999999996 0.401923788646684
      vertex 2.9999999999999996 4.5 0.401923788646684
      vertex 3.0000000000000004 3.0000000000000004 0
    endloop
  endfacet
  facet normal -0.6845503194452978 0.6845503194452978 -0.25056280708573164
    outer loop
      vertex 0.401923788646684 4.5 2.9999999999999996
      vertex 1.5 5.598076211353316 2.9999999999999996
      vertex 1.2679491924311228 4.732050807568878 1.2679491924311233
    endloop
  endfacet
  facet normal -0.37414645276236785 0.8485451453933811 -0.37414645276236785
    outer loop
      vertex 1.5 5.598076211353316 2.9999999999999996
      vertex 2.9999999999999996 5.598076211353316 1.5
      vertex 1.2679491924311228 4.732050807568878 1.2679491924311233
    endloop
  endfacet
  facet normal -0.25056280708573175 0.6845503194452978 -0.6845503194452977
    outer loop
      vertex 1.2679491924311228 4.732050807568878 1.2679491924311233
      vertex 2.9999999999999996 5.598076211353316 1.5
      vertex 2.9999999999999996 4.5 0.401923788646684
    endloop
  endfacet
  facet normal -0.2505628070857315 0.9351131265310294 -0.2505628070857315
    outer loop
      vertex 1.5 5.598076211353316 2.9999999999999996
      vertex 2.9999999999999996 6 3.0000000000000004
      vertex 2.9999999999999996 5.598076211353316 1.5
    endloop
  endfacet
  facet normal -0.9351131265310294 0.2505628070857318 0.2505628070857318
    outer loop
      vertex 0 3.0000000000000004 3.0000000000000004
      vertex 0.401923788646684 2.9999999999999996 4.5
      vertex 0.401923788646684 4.5 2.9999999999999996
    endloop
  endfacet
  facet normal -0.8485451453933811 0.374146452762368 0.374146452762368
    outer loop
      vertex 0.401923788646684 2.9999999999999996 4.5
      vertex 1.2679491924311233 4.732050807568877 4.732050807568878
      vertex 0.401923788646684 4.5 2.9999999999999996
    endloop
  endfacet
  facet normal -0.6845503194452978 0.6845503194452978 0.2505628070857319
    outer loop
      vertex 0.401923788646684 4.5 2.9999999999999996
      vertex 1.2679491924311233 4.732050807568877 4.732050807568878
      vertex 1.5 5.598076211353316 2.9999999999999996
    endloop
  endfacet
  facet normal -0.37414645276236813 0.848545145393381 0.3741464527623679
    outer loop
      vertex 1.2679491924311233 4.732050807568877 4.732050807568878
      vertex 2.9999999999999996 5.598076211353316 4.5
      vertex 1.5 5.598076211353316 2.9999999999999996
    endloop
  endfacet
  facet normal -0.2505628070857318 0.9351131265310294 0.2505628070857316
    outer loop
      vertex 1.5 5.598076211353316 2.9999999999999996
      vertex 2.9999999999999996 5.598076211353316 4.5
      vertex 2.9999999999999996 6 3.0000000000000004
    endloop
  endfacet
  facet normal -0.6845503194452979 0.25056280708573175 0.6845503194452979
    outer loop
      vertex 0.401923788646684 2.9999999999999996 4.5
      vertex 1.5 2.9999999999999996 5.598076211353316
      vertex 1.2679491924311233 4.732050807568877 4.732050807568878
    endloop
  endfacet
  facet normal -0.374146452762368 0.37414645276236774 0.8485451453933812
    outer loop
      vertex 1.5 2.9999999999999996 5.598076211353316
      vertex 2.9999999999999996 4.5 5.598076211353316
      vertex 1.2679491924311233 4.732050807568877 4.732050807568878
    endloop
  endfacet
  facet normal -0.2505628070857318 0.6845503194452978 0.6845503194452978
    outer loop
      vertex 1.2679491924311233 4.732050807568877 4.732050807568878
      vertex 2.9999999999999996 4.5 5.598076211353316
      vertex 2.9999999999999996 5.598076211353316 4.5
    endloop
  endfacet
  facet normal -0.25056280708573153 0.2505628070857313 0.9351131265310294
    outer loop
      vertex 1.5 2.9999999999999996 5.598076211353316
      vertex 3.0000000000000004 2.9999999999999996 6
      vertex 2.9999999999999996 4.5 5.598076211353316
    endloop
  endfacet
  facet normal 0.2505628070857315 -0.9351131265310294 -0.25056280708573153
    outer loop
      vertex 2.9999999999999996 0 2.9999999999999996
      vertex 2.9999999999999996 0.401923788646684 1.4999999999999996
      vertex 4.5 0.401923788646684 2.9999999999999996
    endloop
  endfacet
  facet normal 0.37414645276236796 -0.8485451453933811 -0.3741464527623681
    outer loop
      vertex 2.9999999999999996 0.401923788646684 1.4999999999999996
      vertex 4.732050807568877 1.2679491924311233 1.2679491924311221
      vertex 4.5 0.401923788646684 2.9999999999999996
    endloop
  endfacet
  facet normal 0.6845503194452977 -0.6845503194452977 -0.25056280708573203
    outer loop
      vertex 4.5 0.401923788646684 2.9999999999999996
      vertex 4.732050807568877 1.2679491924311233 1.2679491924311221
      vertex 5.598076211353316 1.5 2.9999999999999996
    endloop
  endfacet
  facet normal 0.848545145393381 -0.374146452762368 -0.374146452762368
    outer loop
      vertex 4.732050807568877 1.2679491924311233 1.2679491924311221
      vertex 5.598076211353316 2.9999999999999996 1.5
      vertex 5.598076211353316 1.5 2.9999999999999996
    endloop
  endfacet
  facet normal 0.9351131265310294 -0.2505628070857315 -0.2505628070857315
    outer loop
      vertex 5.598076211353316 1.5 2.9999999999999996
      vertex 5.598076211353316 2.9999999999999996 1.5
      vertex 6 3.0000000000000004 2.9999999999999996
    endloop
  endfacet
  facet normal 0.2505628070857317 -0.6845503194452977 -0.6845503194452979
    outer loop
      vertex 2.9999999999999996 0.401923788646684 1.4999999999999996
      vertex 2.9999999999999996 1.5 0.401923788646684
      vertex 4.732050807568877 1.2679491924311233 1.2679491924311221
    endloop
  endfacet
  facet normal 0.37414645276236774 -0.3741464527623679 -0.8485451453933813
    outer loop
      vertex 2.9999999999999996 1.5 0.401923788646684
      vertex 4.5 2.9999999999999996 0.401923788646684
      vertex 4.732050807568877 1.2679491924311233 1.2679491924311221
    endloop
  endfacet
  facet normal 0.6845503194452978 -0.25056280708573175 -0.6845503194452978
    outer loop
      vertex 4.732050807568877 1.2679491924311233 1.2679491924311221
      vertex 4.5 2.9999999999999996 0.401923788646684
      vertex 5.598076211353316 2.9999999999999996 1.5
    endloop
  endfacet
  facet normal 0.2505628070857315 -0.25056280708573164 -0.9351131265310294
    outer loop
      vertex 2.9999999999999996 1.5 0.401923788646684
      vertex 3.0000000000000004 3.0000000000000004 0
      vertex 4.5 2.9999999999999996 0.401923788646684
    endloop
  endfacet
  facet normal 0.25056280708573153 -0.9351131265310294 0.25056280708573153
    outer loop
      vertex 2.9999999999999996 0 2.9999999999999996
      vertex 4.5 0.401923788646684 2.9999999999999996
      vertex 2.9999999999999996 0.401923788646684 4.5
    endloop
  endfacet
  facet normal 0.374146452762368 -0.8485451453933811 0.374146452762368
    outer loop
      vertex 2.9999999999999996 0.401923788646684 4.5
      vertex 4.5 0.401923788646684 2.9999999999999996
      vertex 4.732050807568877 1.2679491924311228 4.732050807568877
    endloop
  endfacet
  facet normal 0.6845503194452978 -0.6845503194452978 0.25056280708573186
    outer loop
      vertex 4.5 0.401923788646684 2.9999999999999996
      vertex 5.598076211353316 1.5 2.9999999999999996
      vertex 4.732050807568877 1.2679491924311228 4.732050807568877
    endloop
  endfacet
  facet normal 0.848545145393381 -0.37414645276236824 0.37414645276236796
    outer loop
      vertex 4.732050807568877 1.2679491924311228 4.732050807568877
      vertex 5.598076211353316 1.5 2.9999999999999996
      vertex 5.598076211353316 2.9999999999999996 4.5
    endloop
  endfacet
  facet normal 0.9351131265310294 -0.25056280708573153 0.2505628070857313
    outer loop
      vertex 5.598076211353316 1.5 2.9999999999999996
      vertex 6 3.0000000000000004 2.9999999999999996
      vertex 5.598076211353316 2.9999999999999996 4.5
    endloop
  endfacet
  facet normal 0.25056280708573186 -0.6845503194452978 0.6845503194452978
    outer loop
      vertex 2.9999999999999996 0.401923788646684 4.5
      vertex 4.732050807568877 1.2679491924311228 4.732050807568877
      vertex 2.9999999999999996 1.5 5.598076211353316
    endloop
  endfacet
  facet normal 0.3741464527623679 -0.3741464527623682 0.848545145393381
    outer loop
      vertex 2.9999999999999996 1.5 5.598076211353316
      vertex 4.732050807568877 1.2679491924311228 4.732050807568877
      vertex 4.5 2.9999999999999996 5.598076211353316
    endloop
  endfacet
  facet normal 0.6845503194452977 -0.2505628070857321 0.6845503194452977
    outer loop
      vertex 4.732050807568877 1.2679491924311228 4.732050807568877
      vertex 5.598076211353316 2.9999999999999996 4.5
      vertex 4.5 2.9999999999999996 5.598076211353316
    endloop
  endfacet
  facet normal 0.2505628070857316 -0.2505628070857318 0.9351131265310294
    outer loop
      vertex 2.9999999999999996 1.5 5.598076211353316
      vertex 4.5 2.9999999999999996 5.598076211353316
      vertex 3.0000000000000004 2.9999999999999996 6
    endloop
  endfacet
  facet normal 0.25056280708573175 0.25056280708573175 -0.9351131265310292
    outer loop
      vertex 3.0000000000000004 3.0000000000000004 0
      vertex 2.9999999999999996 4.5 0.401923788646684
      vertex 4.5 2.9999999999999996 0.401923788646684
    endloop
  endfacet
  facet normal 0.374146452762368 0.374146452762368 -0.8485451453933811
    outer loop
      vertex 2.9999999999999996 4.5 0.401923788646684
      vertex 4.732050807568877 4.732050807568878 1.2679491924311233
      vertex 4.5 2.9999999999999996 0.401923788646684
    endloop
  endfacet
  facet normal 0.6845503194452978 0.2505628070857319 -0.6845503194452978
    outer loop
      vertex 4.5 2.9999999999999996 0.401923788646684
      vertex 4.732050807568877 4.732050807568878 1.2679491924311233
      vertex 5.598076211353316 2.9999999999999996 1.5
    endloop
  endfacet
  facet normal 0.848545145393381 0.3741464527623679 -0.37414645276236813
    outer loop
      vertex 4.732050807568877 4.732050807568878 1.2679491924311233
      vertex 5.598076211353316 4.5 2.9999999999999996
      vertex 5.598076211353316 2.9999999999999996 1.5
    endloop
  endfacet
  facet normal 0.9351131265310294 0.2505628070857316 -0.2505628070857318
    outer loop
      vertex 5.598076211353316 2.9999999999999996 1.5
      vertex 5.598076211353316 4.5 2.9999999999999996
      vertex 6 3.0000000000000004 2.9999999999999996
    endloop
  endfacet
  facet normal 0.25056280708573175 0.6845503194452979 -0.6845503194452979
    outer loop
      vertex 2.9999999999999996 4.5 0.401923788646684
      vertex 2.9999999999999996 5.598076211353316 1.5
      vertex 4.732050807568877 4.732050807568878 1.2679491924311233
    endloop
  endfacet
  facet normal 0.37414645276236774 0.8485451453933812 -0.374146452762368
    outer loop
      vertex 2.9999999999999996 5.598076211353316 1.5
      vertex 4.5 5.598076211353316 2.9999999999999996
      vertex 4.732050807568877 4.732050807568878 1.2679491924311233
    endloop
  endfacet
  facet normal 0.6845503194452978 0.6845503194452978 -0.2505628070857318
    outer loop
      vertex 4.732050807568877 4.732050807568878 1.2679491924311233
      vertex 4.5 5.598076211353316 2.9999999999999996
      vertex 5.598076211353316 4.5 2.9999999999999996
    endloop
  endfacet
  facet normal 0.2505628070857313 0.9351131265310294 -0.25056280708573153
    outer loop
      vertex 2.9999999999999996 5.598076211353316 1.5
      vertex 2.9999999999999996 6 3.0000000000000004
      vertex 4.5 5.598076211353316 2.9999999999999996
    endloop
  endfacet
  facet normal 0.25056280708573164 0.2505628070857316 0.9351131265310294
    outer loop
      vertex 3.0000000000000004 2.9999999999999996 6
      vertex 4.5 2.9999999999999996 5.598076211353316
      vertex 2.9999999999999996 4.5 5.598076211353316
    endloop
  endfacet
  facet normal 0.37414645276236813 0.37414645276236813 0.848545145393381
    outer loop
      vertex 4.5 2.9999999999999996 5.598076211353316
      vertex 4.732050807568877 4.732050807568877 4.732050807568877
      vertex 2.9999999999999996 4.5 5.598076211353316
    endloop
  endfacet
  facet normal 0.2505628070857321 0.6845503194452978 0.6845503194452978
    outer loop
      vertex 2.9999999999999996 4.5 5.598076211353316
      vertex 4.732050807568877 4.732050807568877 4.732050807568877
      vertex 2.9999999999999996 5.598076211353316 4.5
    endloop
  endfacet
  facet normal 0.3741464527623681 0.848545145393381 0.3741464527623681
    outer loop
      vertex 4.732050807568877 4.732050807568877 4.732050807568877
      vertex 4.5 5.598076211353316 2.9999999999999996
      vertex 2.9999999999999996 5.598076211353316 4.5
    endloop
  endfacet
  facet normal 0.25056280708573164 0.9351131265310294 0.25056280708573164
    outer loop
      vertex 2.9999999999999996 5.598076211353316 4.5
      vertex 4.5 5.598076211353316 2.9999999999999996
      vertex 2.9999999999999996 6 3.0000000000000004
    endloop
  endfacet
  facet normal 0.6845503194452978 0.2505628070857321 0.6845503194452978
    outer loop
      vertex 4.5 2.9999999999999996 5.598076211353316
      vertex 5.598076211353316 2.9999999999999996 4.5
      vertex 4.732050807568877 4.732050807568877 4.732050807568877
    endloop
  endfacet
  facet normal 0.848545145393381 0.37414645276236813 0.37414645276236813
    outer loop
      vertex 5.598076211353316 2.9999999999999996 4.5
      vertex 5.598076211353316 4.5 2.9999999999999996
      vertex 4.732050807568877 4.732050807568877 4.732050807568877
    endloop
  endfacet
  facet normal 0.6845503194452977 0.6845503194452977 0.25056280708573203
    outer loop
      vertex 4.732050807568877 4.732050807568877 4.732050807568877
      vertex 5.598076211353316 4.5 2.9999999999999996
      vertex 4.5 5.598076211353316 2.9999999999999996
    endloop
  endfacet
  facet normal 0.9351131265310294 0.25056280708573164 0.25056280708573164
    outer loop
      vertex 5.598076211353316 2.9999999999999996 4.5
      vertex 6 3.0000000000000004 2.9999999999999996
      vertex 5.598076211353316 4.5 2.9999999999999996
    endloop
  endfacet
endsolid OpenSCAD_Model
