solid OpenSCAD_Model
  facet normal -1 0 0
    outer loop
      vertex 0 3.5000000000000004 2.4999999999999996
      vertex 0 2.4999999999999996 2.4999999999999996
      vertex 0 2.4999999999999996 3.5000000000000004
    endloop
  endfacet
  facet normal -1 0 0
    outer loop
      vertex 0 2.4999999999999996 3.5000000000000004
      vertex 0 3.5000000000000004 3.5000000000000004
      vertex 0 3.5000000000000004 2.4999999999999996
    endloop
  endfacet
  facet normal 0 -1 0
    outer loop
      vertex 2.4999999999999996 0 3.5000000000000004
      vertex 2.4999999999999996 0 2.4999999999999996
      vertex 3.5000000000000004 0 2.4999999999999996
    endloop
  endfacet
  facet normal 0 -1 0
    outer loop
      vertex 3.5000000000000004 0 2.4999999999999996
      vertex 3.5000000000000004 0 3.5000000000000004
      vertex 2.4999999999999996 0 3.5000000000000004
    endloop
  endfacet
  facet normal 0 0 1
    outer loop
      vertex 2.4999999999999996 3.5000000000000004 6
      vertex 2.4999999999999996 2.4999999999999996 6
      vertex 3.5000000000000004 2.4999999999999996 6
    endloop
  endfacet
  facet normal 0 0 1
    outer loop
      vertex 3.5000000000000004 2.4999999999999996 6
      vertex 3.5000000000000004 3.5000000000000004 6
      vertex 2.4999999999999996 3.5000000000000004 6
    endloop
  endfacet
  facet normal 0 0 -1
    outer loop
      vertex 3.5000000000000004 2.4999999999999996 0
      vertex 2.4999999999999996 2.4999999999999996 0
      vertex 2.4999999999999996 3.5000000000000004 0
    endloop
  endfacet
  facet normal 0 0 -1
    outer loop
      vertex 2.4999999999999996 3.5000000000000004 0
      vertex 3.5000000000000004 3.5000000000000004 0
      vertex 3.5000000000000004 2.4999999999999996 0
    endloop
  endfacet
  facet normal 0 1 0
    outer loop
      vertex 3.5000000000000004 6 2.4999999999999996
      vertex 2.4999999999999996 6 2.4999999999999996
      vertex 2.4999999999999996 6 3.5000000000000004
    endloop
  endfacet
  facet normal 0 1 0
    outer loop
      vertex 2.4999999999999996 6 3.5000000000000004
      vertex 3.5000000000000004 6 3.5000000000000004
      vertex 3.5000000000000004 6 2.4999999999999996
    endloop
  endfacet
  facet normal 1 0 0
    outer loop
      vertex 6 2.4999999999999996 3.5000000000000004
      vertex 6 2.4999999999999996 2.4999999999999996
      vertex 6 3.5000000000000004 2.4999999999999996
    endloop
  endfacet
  facet normal 1 0 0
    outer loop
      vertex 6 3.5000000000000004 2.4999999999999996
      vertex 6 3.5000000000000004 3.5000000000000004
      vertex 6 2.4999999999999996 3.5000000000000004
    endloop
  endfacet
  facet normal -0.9238795325112866 -0.38268343236508984 0
    outer loop
      vertex 0 2.4999999999999996 2.4999999999999996
      vertex 0.7322330470336311 0.7322330470336313 3.5000000000000004
      vertex 0 2.4999999999999996 3.5000000000000004
    endloop
  endfacet
  facet normal -0.9238795325112866 -0.38268343236508984 2.7494193617464254e-17
    outer loop
      vertex 0 2.4999999999999996 2.4999999999999996
      vertex 0.7322330470336311 0.7322330470336313 2.4999999999999996
      vertex 0.7322330470336311 0.7322330470336313 3.5000000000000004
    endloop
  endfacet
  facet normal -0.38268343236508995 -0.9238795325112867 0
    outer loop
      vertex 0.7322330470336311 0.7322330470336313 2.4999999999999996
      vertex 2.4999999999999996 0 3.5000000000000004
      vertex 0.7322330470336311 0.7322330470336313 3.5000000000000004
    endloop
  endfacet
  facet normal -0.38268343236508995 -0.9238795325112867 -3.0528857851666176e-17
    outer loop
      vertex 0.7322330470336311 0.7322330470336313 2.4999999999999996
      vertex 2.4999999999999996 0 2.4999999999999996
      vertex 2.4999999999999996 0 3.5000000000000004
    endloop
  endfacet
  facet normal -0.9238795325112866 0 -0.38268343236508984
    outer loop
      vertex 0 2.4999999999999996 2.4999999999999996
      vertex 0 3.5000000000000004 2.4999999999999996
      vertex 0.7322330470336311 3.5000000000000004 0.7322330470336313
    endloop
  endfacet
  facet normal -0.9238795325112866 2.7494193617464254e-17 -0.38268343236508984
    outer loop
      vertex 0 2.4999999999999996 2.4999999999999996
      vertex 0.7322330470336311 3.5000000000000004 0.7322330470336313
      vertex 0.7322330470336311 2.4999999999999996 0.7322330470336313
    endloop
  endfacet
  facet normal -0.38268343236508995 0 -0.9238795325112867
    outer loop
      vertex 0.7322330470336311 2.4999999999999996 0.7322330470336313
      vertex 0.7322330470336311 3.5000000000000004 0.7322330470336313
      vertex 2.4999999999999996 3.5000000000000004 0
    endloop
  endfacet
  facet normal -0.38268343236508995 -3.0528857851666176e-17 -0.9238795325112867
    outer loop
      vertex 0.7322330470336311 2.4999999999999996 0.7322330470336313
      vertex 2.4999999999999996 3.5000000000000004 0
      vertex 2.4999999999999996 2.4999999999999996 0
    endloop
  endfacet
  facet normal 0 -0.9238795325112866 -0.38268343236508984
    outer loop
      vertex 2.4999999999999996 0 2.4999999999999996
      vertex 3.5000000000000004 0.7322330470336311 0.7322330470336313
      vertex 3.5000000000000004 0 2.4999999999999996
    endloop
  endfacet
  facet normal 2.7494193617464254e-17 -0.9238795325112866 -0.38268343236508984
    outer loop
      vertex 2.4999999999999996 0 2.4999999999999996
      vertex 2.4999999999999996 0.7322330470336311 0.7322330470336313
      vertex 3.5000000000000004 0.7322330470336311 0.7322330470336313
    endloop
  endfacet
  facet normal 0 -0.38268343236508995 -0.9238795325112867
    outer loop
      vertex 2.4999999999999996 0.7322330470336311 0.7322330470336313
      vertex 3.5000000000000004 2.4999999999999996 0
      vertex 3.5000000000000004 0.7322330470336311 0.7322330470336313
    endloop
  endfacet
  facet normal -3.0528857851666176e-17 -0.38268343236508995 -0.9238795325112867
    outer loop
      vertex 2.4999999999999996 0.7322330470336311 0.7322330470336313
      vertex 2.4999999999999996 2.4999999999999996 0
      vertex 3.5000000000000004 2.4999999999999996 0
    endloop
  endfacet
  facet normal -0.9238795325112867 0 0.38268343236508984
    outer loop
      vertex 0 2.4999999999999996 3.5000000000000004
      vertex 0.7322330470336311 3.5000000000000004 5.267766952966369
      vertex 0 3.5000000000000004 3.5000000000000004
    endloop
  endfacet
  facet normal -0.9238795325112867 5.747859793339698e-17 0.38268343236508984
    outer loop
      vertex 0 2.4999999999999996 3.5000000000000004
      vertex 0.7322330470336311 2.4999999999999996 5.267766952966369
      vertex 0.7322330470336311 3.5000000000000004 5.267766952966369
    endloop
  endfacet
  facet normal -0.38268343236508984 0 0.9238795325112867
    outer loop
      vertex 0.7322330470336311 2.4999999999999996 5.267766952966369
      vertex 2.4999999999999996 3.5000000000000004 6
      vertex 0.7322330470336311 3.5000000000000004 5.267766952966369
    endloop
  endfacet
  facet normal -0.38268343236508984 5.747859793339698e-17 0.9238795325112867
    outer loop
      vertex 0.7322330470336311 2.4999999999999996 5.267766952966369
      vertex 2.4999999999999996 2.4999999999999996 6
      vertex 2.4999999999999996 3.5000000000000004 6
    endloop
  endfacet
  facet normal 0 -0.9238795325112867 0.38268343236508984
    outer loop
      vertex 2.4999999999999996 0 3.5000000000000004
      vertex 3.5000000000000004 0 3.5000000000000004
      vertex 3.5000000000000004 0.7322330470336311 5.267766952966369
    endloop
  endfacet
  facet normal 5.747859793339698e-17 -0.9238795325112867 0.38268343236508984
    outer loop
      vertex 2.4999999999999996 0 3.5000000000000004
      vertex 3.5000000000000004 0.7322330470336311 5.267766952966369
      vertex 2.4999999999999996 0.7322330470336311 5.267766952966369
    endloop
  endfacet
  facet normal 0 -0.38268343236508984 0.9238795325112867
    outer loop
      vertex 2.4999999999999996 0.7322330470336311 5.267766952966369
      vertex 3.5000000000000004 0.7322330470336311 5.267766952966369
      vertex 3.5000000000000004 2.4999999999999996 6
    endloop
  endfacet
  facet normal 5.747859793339698e-17 -0.38268343236508984 0.9238795325112867
    outer loop
      vertex 2.4999999999999996 0.7322330470336311 5.267766952966369
      vertex 3.5000000000000004 2.4999999999999996 6
      vertex 2.4999999999999996 2.4999999999999996 6
    endloop
  endfacet
  facet normal -0.9238795325112867 0.38268343236508984 0
    outer loop
      vertex 0 3.5000000000000004 2.4999999999999996
      vertex 0 3.5000000000000004 3.5000000000000004
      vertex 0.7322330470336311 5.267766952966369 3.5000000000000004
    endloop
  endfacet
  facet normal -0.9238795325112867 0.38268343236508984 5.747859793339698e-17
    outer loop
      vertex 0 3.5000000000000004 2.4999999999999996
      vertex 0.7322330470336311 5.267766952966369 3.5000000000000004
      vertex 0.7322330470336311 5.267766952966369 2.4999999999999996
    endloop
  endfacet
  facet normal -0.38268343236508984 0.9238795325112867 0
    outer loop
      vertex 0.7322330470336311 5.267766952966369 2.4999999999999996
      vertex 0.7322330470336311 5.267766952966369 3.5000000000000004
      vertex 2.4999999999999996 6 3.5000000000000004
    endloop
  endfacet
  facet normal -0.38268343236508984 0.9238795325112867 5.747859793339698e-17
    outer loop
      vertex 0.7322330470336311 5.267766952966369 2.4999999999999996
      vertex 2.4999999999999996 6 3.5000000000000004
      vertex 2.4999999999999996 6 2.4999999999999996
    endloop
  endfacet
  facet normal 0 0.38268343236508984 -0.9238795325112867
    outer loop
      vertex 2.4999999999999996 3.5000000000000004 0
      vertex 3.5000000000000004 5.267766952966369 0.7322330470336311
      vertex 3.5000000000000004 3.5000000000000004 0
    endloop
  endfacet
  facet normal 5.747859793339698e-17 0.38268343236508984 -0.9238795325112867
    outer loop
      vertex 2.4999999999999996 3.5000000000000004 0
      vertex 2.4999999999999996 5.267766952966369 0.7322330470336311
      vertex 3.5000000000000004 5.267766952966369 0.7322330470336311
    endloop
  endfacet
  facet normal 0 0.9238795325112867 -0.38268343236508984
    outer loop
      vertex 2.4999999999999996 5.267766952966369 0.7322330470336311
      vertex 3.5000000000000004 6 2.4999999999999996
      vertex 3.5000000000000004 5.267766952966369 0.7322330470336311
    endloop
  endfacet
  facet normal 5.747859793339698e-17 0.9238795325112867 -0.38268343236508984
    outer loop
      vertex 2.4999999999999996 5.267766952966369 0.7322330470336311
      vertex 2.4999999999999996 6 2.4999999999999996
      vertex 3.5000000000000004 6 2.4999999999999996
    endloop
  endfacet
  facet normal 0 0.38268343236508984 0.9238795325112867
    outer loop
      vertex 2.4999999999999996 3.5000000000000004 6
      vertex 3.5000000000000004 3.5000000000000004 6
      vertex 3.5000000000000004 5.267766952966369 5.267766952966369
    endloop
  endfacet
  facet normal -5.747859793339698e-17 0.38268343236508984 0.9238795325112867
    outer loop
      vertex 2.4999999999999996 3.5000000000000004 6
      vertex 3.5000000000000004 5.267766952966369 5.267766952966369
      vertex 2.4999999999999996 5.267766952966369 5.267766952966369
    endloop
  endfacet
  facet normal 0 0.9238795325112867 0.38268343236508984
    outer loop
      vertex 2.4999999999999996 5.267766952966369 5.267766952966369
      vertex 3.5000000000000004 5.267766952966369 5.267766952966369
      vertex 3.5000000000000004 6 3.5000000000000004
    endloop
  endfacet
  facet normal -5.747859793339698e-17 0.9238795325112867 0.38268343236508984
    outer loop
      vertex 2.4999999999999996 5.267766952966369 5.267766952966369
      vertex 3.5000000000000004 6 3.5000000000000004
      vertex 2.4999999999999996 6 3.5000000000000004
    endloop
  endfacet
  facet normal 0.38268343236508984 -0.9238795325112867 0
    outer loop
      vertex 3.5000000000000004 0 2.4999999999999996
      vertex 5.267766952966369 0.7322330470336311 3.5000000000000004
      vertex 3.5000000000000004 0 3.5000000000000004
    endloop
  endfacet
  facet normal 0.38268343236508984 -0.9238795325112867 5.747859793339698e-17
    outer loop
      vertex 3.5000000000000004 0 2.4999999999999996
      vertex 5.267766952966369 0.7322330470336311 2.4999999999999996
      vertex 5.267766952966369 0.7322330470336311 3.5000000000000004
    endloop
  endfacet
  facet normal 0.9238795325112867 -0.38268343236508984 0
    outer loop
      vertex 5.267766952966369 0.7322330470336311 2.4999999999999996
      vertex 6 2.4999999999999996 3.5000000000000004
      vertex 5.267766952966369 0.7322330470336311 3.5000000000000004
    endloop
  endfacet
  facet normal 0.9238795325112867 -0.38268343236508984 5.747859793339698e-17
    outer loop
      vertex 5.267766952966369 0.7322330470336311 2.4999999999999996
      vertex 6 2.4999999999999996 2.4999999999999996
      vertex 6 2.4999999999999996 3.5000000000000004
    endloop
  endfacet
  facet normal 0.38268343236508984 0 -0.9238795325112867
    outer loop
      vertex 3.5000000000000004 2.4999999999999996 0
      vertex 3.5000000000000004 3.5000000000000004 0
      vertex 5.267766952966369 3.5000000000000004 0.7322330470336311
    endloop
  endfacet
  facet normal 0.38268343236508984 5.747859793339698e-17 -0.9238795325112867
    outer loop
      vertex 3.5000000000000004 2.4999999999999996 0
      vertex 5.267766952966369 3.5000000000000004 0.7322330470336311
      vertex 5.267766952966369 2.4999999999999996 0.7322330470336311
    endloop
  endfacet
  facet normal 0.9238795325112867 0 -0.38268343236508984
    outer loop
      vertex 5.267766952966369 2.4999999999999996 0.7322330470336311
      vertex 5.267766952966369 3.5000000000000004 0.7322330470336311
      vertex 6 3.5000000000000004 2.4999999999999996
    endloop
  endfacet
  facet normal 0.9238795325112867 5.747859793339698e-17 -0.38268343236508984
    outer loop
      vertex 5.267766952966369 2.4999999999999996 0.7322330470336311
      vertex 6 3.5000000000000004 2.4999999999999996
      vertex 6 2.4999999999999996 2.4999999999999996
    endloop
  endfacet
  facet normal 0.38268343236508984 0 0.9238795325112867
    outer loop
      vertex 3.5000000000000004 2.4999999999999996 6
      vertex 5.267766952966369 3.5000000000000004 5.267766952966369
      vertex 3.5000000000000004 3.5000000000000004 6
    endloop
  endfacet
  facet normal 0.38268343236508984 -5.747859793339698e-17 0.9238795325112867
    outer loop
      vertex 3.5000000000000004 2.4999999999999996 6
      vertex 5.267766952966369 2.4999999999999996 5.267766952966369
      vertex 5.267766952966369 3.5000000000000004 5.267766952966369
    endloop
  endfacet
  facet normal 0.9238795325112867 0 0.38268343236508984
    outer loop
      vertex 5.267766952966369 2.4999999999999996 5.267766952966369
      vertex 6 3.5000000000000004 3.5000000000000004
      vertex 5.267766952966369 3.5000000000000004 5.267766952966369
    endloop
  endfacet
  facet normal 0.9238795325112867 -5.747859793339698e-17 0.38268343236508984
    outer loop
      vertex 5.267766952966369 2.4999999999999996 5.267766952966369
      vertex 6 2.4999999999999996 3.5000000000000004
      vertex 6 3.5000000000000004 3.5000000000000004
    endloop
  endfacet
  facet normal 0.38268343236508984 0.9238795325112867 0
    outer loop
      vertex 3.5000000000000004 6 2.4999999999999996
      vertex 3.5000000000000004 6 3.5000000000000004
      vertex 5.267766952966369 5.267766952966369 3.5000000000000004
    endloop
  endfacet
  facet normal 0.38268343236508984 0.9238795325112867 -5.747859793339698e-17
    outer loop
      vertex 3.5000000000000004 6 2.4999999999999996
      vertex 5.267766952966369 5.267766952966369 3.5000000000000004
      vertex 5.267766952966369 5.267766952966369 2.4999999999999996
    endloop
  endfacet
  facet normal 0.9238795325112867 0.38268343236508984 0
    outer loop
      vertex 5.267766952966369 5.267766952966369 2.4999999999999996
      vertex 5.267766952966369 5.267766952966369 3.5000000000000004
      vertex 6 3.5000000000000004 3.5000000000000004
    endloop
  endfacet
  facet normal 0.9238795325112867 0.38268343236508984 -5.747859793339698e-17
    outer loop
      vertex 5.267766952966369 5.267766952966369 2.4999999999999996
      vertex 6 3.5000000000000004 3.5000000000000004
      vertex 6 3.5000000000000004 2.4999999999999996
    endloop
  endfacet
  facet normal -0.8628562094610167 -0.3574067443365933 -0.3574067443365933
    outer loop
      vertex 0 2.4999999999999996 2.4999999999999996
      vertex 0.7322330470336311 2.4999999999999996 0.7322330470336313
      vertex 0.7322330470336311 0.7322330470336313 2.4999999999999996
    endloop
  endfacet
  facet normal -0.5773502691896257 -0.5773502691896257 -0.5773502691896257
    outer loop
      vertex 0.7322330470336311 0.7322330470336313 2.4999999999999996
      vertex 0.7322330470336311 2.4999999999999996 0.7322330470336313
      vertex 2.4999999999999996 0.7322330470336311 0.7322330470336313
    endloop
  endfacet
  facet normal -0.35740674433659336 -0.35740674433659336 -0.8628562094610167
    outer loop
      vertex 0.7322330470336311 2.4999999999999996 0.7322330470336313
      vertex 2.4999999999999996 2.4999999999999996 0
      vertex 2.4999999999999996 0.7322330470336311 0.7322330470336313
    endloop
  endfacet
  facet normal -0.3574067443365934 -0.8628562094610167 -0.3574067443365933
    outer loop
      vertex 0.7322330470336311 0.7322330470336313 2.4999999999999996
      vertex 2.4999999999999996 0.7322330470336311 0.7322330470336313
      vertex 2.4999999999999996 0 2.4999999999999996
    endloop
  endfacet
  facet normal -0.8628562094610167 -0.3574067443365933 0.3574067443365933
    outer loop
      vertex 0 2.4999999999999996 3.5000000000000004
      vertex 0.7322330470336311 0.7322330470336313 3.5000000000000004
      vertex 0.7322330470336311 2.4999999999999996 5.267766952966369
    endloop
  endfacet
  facet normal -0.5773502691896258 -0.5773502691896258 0.5773502691896257
    outer loop
      vertex 0.7322330470336311 0.7322330470336313 3.5000000000000004
      vertex 2.4999999999999996 0.7322330470336311 5.267766952966369
      vertex 0.7322330470336311 2.4999999999999996 5.267766952966369
    endloop
  endfacet
  facet normal -0.3574067443365933 -0.3574067443365933 0.8628562094610168
    outer loop
      vertex 0.7322330470336311 2.4999999999999996 5.267766952966369
      vertex 2.4999999999999996 0.7322330470336311 5.267766952966369
      vertex 2.4999999999999996 2.4999999999999996 6
    endloop
  endfacet
  facet normal -0.3574067443365934 -0.8628562094610168 0.3574067443365933
    outer loop
      vertex 0.7322330470336311 0.7322330470336313 3.5000000000000004
      vertex 2.4999999999999996 0 3.5000000000000004
      vertex 2.4999999999999996 0.7322330470336311 5.267766952966369
    endloop
  endfacet
  facet normal -0.8628562094610167 0.3574067443365933 -0.3574067443365933
    outer loop
      vertex 0 3.5000000000000004 2.4999999999999996
      vertex 0.7322330470336311 5.267766952966369 2.4999999999999996
      vertex 0.7322330470336311 3.5000000000000004 0.7322330470336313
    endloop
  endfacet
  facet normal -0.5773502691896258 0.5773502691896257 -0.5773502691896258
    outer loop
      vertex 0.7322330470336311 5.267766952966369 2.4999999999999996
      vertex 2.4999999999999996 5.267766952966369 0.7322330470336311
      vertex 0.7322330470336311 3.5000000000000004 0.7322330470336313
    endloop
  endfacet
  facet normal -0.35740674433659336 0.35740674433659325 -0.8628562094610167
    outer loop
      vertex 0.7322330470336311 3.5000000000000004 0.7322330470336313
      vertex 2.4999999999999996 5.267766952966369 0.7322330470336311
      vertex 2.4999999999999996 3.5000000000000004 0
    endloop
  endfacet
  facet normal -0.3574067443365933 0.8628562094610168 -0.3574067443365933
    outer loop
      vertex 0.7322330470336311 5.267766952966369 2.4999999999999996
      vertex 2.4999999999999996 6 2.4999999999999996
      vertex 2.4999999999999996 5.267766952966369 0.7322330470336311
    endloop
  endfacet
  facet normal -0.8628562094610168 0.3574067443365933 0.3574067443365933
    outer loop
      vertex 0 3.5000000000000004 3.5000000000000004
      vertex 0.7322330470336311 3.5000000000000004 5.267766952966369
      vertex 0.7322330470336311 5.267766952966369 3.5000000000000004
    endloop
  endfacet
  facet normal -0.5773502691896258 0.5773502691896258 0.5773502691896258
    outer loop
      vertex 0.7322330470336311 3.5000000000000004 5.267766952966369
      vertex 2.4999999999999996 5.267766952966369 5.267766952966369
      vertex 0.7322330470336311 5.267766952966369 3.5000000000000004
    endloop
  endfacet
  facet normal -0.3574067443365933 0.8628562094610168 0.3574067443365933
    outer loop
      vertex 0.7322330470336311 5.267766952966369 3.5000000000000004
      vertex 2.4999999999999996 5.267766952966369 5.267766952966369
      vertex 2.4999999999999996 6 3.5000000000000004
    endloop
  endfacet
  facet normal -0.3574067443365933 0.3574067443365933 0.8628562094610168
    outer loop
      vertex 0.7322330470336311 3.5000000000000004 5.267766952966369
      vertex 2.4999999999999996 3.5000000000000004 6
      vertex 2.4999999999999996 5.267766952966369 5.267766952966369
    endloop
  endfacet
  facet normal 0.3574067443365933 -0.8628562094610167 -0.3574067443365933
    outer loop
      vertex 3.5000000000000004 0 2.4999999999999996
      vertex 3.5000000000000004 0.7322330470336311 0.7322330470336313
      vertex 5.267766952966369 0.7322330470336311 2.4999999999999996
    endloop
  endfacet
  facet normal 0.5773502691896257 -0.5773502691896258 -0.5773502691896258
    outer loop
      vertex 3.5000000000000004 0.7322330470336311 0.7322330470336313
      vertex 5.267766952966369 2.4999999999999996 0.7322330470336311
      vertex 5.267766952966369 0.7322330470336311 2.4999999999999996
    endloop
  endfacet
  facet normal 0.8628562094610168 -0.3574067443365933 -0.3574067443365933
    outer loop
      vertex 5.267766952966369 0.7322330470336311 2.4999999999999996
      vertex 5.267766952966369 2.4999999999999996 0.7322330470336311
      vertex 6 2.4999999999999996 2.4999999999999996
    endloop
  endfacet
  facet normal 0.35740674433659325 -0.35740674433659336 -0.8628562094610167
    outer loop
      vertex 3.5000000000000004 0.7322330470336311 0.7322330470336313
      vertex 3.5000000000000004 2.4999999999999996 0
      vertex 5.267766952966369 2.4999999999999996 0.7322330470336311
    endloop
  endfacet
  facet normal 0.3574067443365933 -0.8628562094610168 0.3574067443365933
    outer loop
      vertex 3.5000000000000004 0 3.5000000000000004
      vertex 5.267766952966369 0.7322330470336311 3.5000000000000004
      vertex 3.5000000000000004 0.7322330470336311 5.267766952966369
    endloop
  endfacet
  facet normal 0.5773502691896258 -0.5773502691896258 0.5773502691896258
    outer loop
      vertex 3.5000000000000004 0.7322330470336311 5.267766952966369
      vertex 5.267766952966369 0.7322330470336311 3.5000000000000004
      vertex 5.267766952966369 2.4999999999999996 5.267766952966369
    endloop
  endfacet
  facet normal 0.8628562094610168 -0.3574067443365933 0.3574067443365933
    outer loop
      vertex 5.267766952966369 0.7322330470336311 3.5000000000000004
      vertex 6 2.4999999999999996 3.5000000000000004
      vertex 5.267766952966369 2.4999999999999996 5.267766952966369
    endloop
  endfacet
  facet normal 0.3574067443365933 -0.3574067443365933 0.8628562094610168
    outer loop
      vertex 3.5000000000000004 0.7322330470336311 5.267766952966369
      vertex 5.267766952966369 2.4999999999999996 5.267766952966369
      vertex 3.5000000000000004 2.4999999999999996 6
    endloop
  endfacet
  facet normal 0.3574067443365933 0.3574067443365933 -0.8628562094610168
    outer loop
      vertex 3.5000000000000004 3.5000000000000004 0
      vertex 3.5000000000000004 5.267766952966369 0.7322330470336311
      vertex 5.267766952966369 3.5000000000000004 0.7322330470336311
    endloop
  endfacet
  facet normal 0.5773502691896258 0.5773502691896258 -0.5773502691896258
    outer loop
      vertex 3.5000000000000004 5.267766952966369 0.7322330470336311
      vertex 5.267766952966369 5.267766952966369 2.4999999999999996
      vertex 5.267766952966369 3.5000000000000004 0.7322330470336311
    endloop
  endfacet
  facet normal 0.8628562094610168 0.3574067443365933 -0.3574067443365933
    outer loop
      vertex 5.267766952966369 3.5000000000000004 0.7322330470336311
      vertex 5.267766952966369 5.267766952966369 2.4999999999999996
      vertex 6 3.5000000000000004 2.4999999999999996
    endloop
  endfacet
  facet normal 0.3574067443365933 0.8628562094610168 -0.3574067443365933
    outer loop
      vertex 3.5000000000000004 5.267766952966369 0.7322330470336311
      vertex 3.5000000000000004 6 2.4999999999999996
      vertex 5.267766952966369 5.267766952966369 2.4999999999999996
    endloop
  endfacet
  facet normal 0.3574067443365933 0.3574067443365933 0.8628562094610168
    outer loop
      vertex 3.5000000000000004 3.5000000000000004 6
      vertex 5.267766952966369 3.5000000000000004 5.267766952966369
      vertex 3.5000000000000004 5.267766952966369 5.267766952966369
    endloop
  endfacet
  facet normal 0.5773502691896258 0.5773502691896258 0.5773502691896258
    outer loop
      vertex 5.267766952966369 3.5000000000000004 5.267766952966369
      vertex 5.267766952966369 5.267766952966369 3.5000000000000004
      vertex 3.5000000000000004 5.267766952966369 5.267766952966369
    endloop
  endfacet
  facet normal 0.3574067443365933 0.8628562094610168 0.3574067443365933
    outer loop
      vertex 3.5000000000000004 5.267766952966369 5.267766952966369
      vertex 5.267766952966369 5.267766952966369 3.5000000000000004
      vertex 3.5000000000000004 6 3.5000000000000004
    endloop
  endfacet
  facet normal 0.8628562094610168 0.3574067443365933 0.3574067443365933
    outer loop
      vertex 5.267766952966369 3.5000000000000004 5.267766952966369
      vertex 6 3.5000000000000004 3.5000000000000004
      vertex 5.267766952966369 5.267766952966369 3.5000000000000004
    endloop
  endfacet
endsolid OpenSCAD_Model
