solid OpenSCAD_Model
  facet normal -1 0 0
    outer loop
      vertex 0 2.5000000000000004 3.4999999999999996
      vertex 0 3.4999999999999996 3.4999999999999996
      vertex 0 3.4999999999999996 2.5000000000000004
    endloop
  endfacet
  facet normal -1 0 0
    outer loop
      vertex 0 3.4999999999999996 2.5000000000000004
      vertex 0 2.5000000000000004 2.5000000000000004
      vertex 0 2.5000000000000004 3.4999999999999996
    endloop
  endfacet
  facet normal 0 -1 0
    outer loop
      vertex 3.4999999999999996 0 2.5000000000000004
      vertex 3.4999999999999996 0 3.4999999999999996
      vertex 2.5000000000000004 0 3.4999999999999996
    endloop
  endfacet
  facet normal 0 -1 0
    outer loop
      vertex 2.5000000000000004 0 3.4999999999999996
      vertex 2.5000000000000004 0 2.5000000000000004
      vertex 3.4999999999999996 0 2.5000000000000004
    endloop
  endfacet
  facet normal 0 0 1
    outer loop
      vertex 3.4999999999999996 2.5000000000000004 6
      vertex 3.4999999999999996 3.4999999999999996 6
      vertex 2.5000000000000004 3.4999999999999996 6
    endloop
  endfacet
  facet normal 0 0 1
    outer loop
      vertex 2.5000000000000004 3.4999999999999996 6
      vertex 2.5000000000000004 2.5000000000000004 6
      vertex 3.4999999999999996 2.5000000000000004 6
    endloop
  endfacet
  facet normal 0 0 -1
    outer loop
      vertex 2.5000000000000004 3.4999999999999996 0
      vertex 3.4999999999999996 3.4999999999999996 0
      vertex 3.4999999999999996 2.5000000000000004 0
    endloop
  endfacet
  facet normal 0 0 -1
    outer loop
      vertex 3.4999999999999996 2.5000000000000004 0
      vertex 2.5000000000000004 2.5000000000000004 0
      vertex 2.5000000000000004 3.4999999999999996 0
    endloop
  endfacet
  facet normal 0 1 0
    outer loop
      vertex 2.5000000000000004 6 3.4999999999999996
      vertex 3.4999999999999996 6 3.4999999999999996
      vertex 3.4999999999999996 6 2.5000000000000004
    endloop
  endfacet
  facet normal 0 1 0
    outer loop
      vertex 3.4999999999999996 6 2.5000000000000004
      vertex 2.5000000000000004 6 2.5000000000000004
      vertex 2.5000000000000004 6 3.4999999999999996
    endloop
  endfacet
  facet normal 1 0 0
    outer loop
      vertex 6 3.4999999999999996 2.5000000000000004
      vertex 6 3.4999999999999996 3.4999999999999996
      vertex 6 2.5000000000000004 3.4999999999999996
    endloop
  endfacet
  facet normal 1 0 0
    outer loop
      vertex 6 2.5000000000000004 3.4999999999999996
      vertex 6 2.5000000000000004 2.5000000000000004
      vertex 6 3.4999999999999996 2.5000000000000004
    endloop
  endfacet
  facet normal 0.9659258262890683 0.25881904510252085 0
    outer loop
      vertex 0 3.4999999999999996 3.4999999999999996
      vertex 0.4689110867544648 1.75 2.5000000000000004
      vertex 0 3.4999999999999996 2.5000000000000004
    endloop
  endfacet
  facet normal 0.9659258262890683 0.25881904510252085 -7.620465329268452e-18
    outer loop
      vertex 0 3.4999999999999996 3.4999999999999996
      vertex 0.4689110867544648 1.75 3.4999999999999996
      vertex 0.4689110867544648 1.75 2.5000000000000004
    endloop
  endfacet
  facet normal 0.7071067811865476 0.7071067811865474 0
    outer loop
      vertex 0.4689110867544648 1.75 3.4999999999999996
      vertex 1.75 0.46891108675446436 2.5000000000000004
      vertex 0.4689110867544648 1.75 2.5000000000000004
    endloop
  endfacet
  facet normal 0.7071067811865476 0.7071067811865474 2.4668663737267014e-17
    outer loop
      vertex 0.4689110867544648 1.75 3.4999999999999996
      vertex 1.75 0.46891108675446436 3.4999999999999996
      vertex 1.75 0.46891108675446436 2.5000000000000004
    endloop
  endfacet
  facet normal 0.25881904510252063 0.9659258262890683 0
    outer loop
      vertex 1.75 0.46891108675446436 3.4999999999999996
      vertex 3.4999999999999996 0 2.5000000000000004
      vertex 1.75 0.46891108675446436 2.5000000000000004
    endloop
  endfacet
  facet normal 0.25881904510252063 0.9659258262890683 -7.62046532926856e-18
    outer loop
      vertex 1.75 0.46891108675446436 3.4999999999999996
      vertex 3.4999999999999996 0 3.4999999999999996
      vertex 3.4999999999999996 0 2.5000000000000004
    endloop
  endfacet
  facet normal 0.9659258262890683 0 0.25881904510252085
    outer loop
      vertex 0 3.4999999999999996 3.4999999999999996
      vertex 0 2.5000000000000004 3.4999999999999996
      vertex 0.4689110867544648 2.5000000000000004 1.75
    endloop
  endfacet
  facet normal 0.9659258262890683 -7.620465329268452e-18 0.25881904510252085
    outer loop
      vertex 0 3.4999999999999996 3.4999999999999996
      vertex 0.4689110867544648 2.5000000000000004 1.75
      vertex 0.4689110867544648 3.4999999999999996 1.75
    endloop
  endfacet
  facet normal 0.7071067811865476 0 0.7071067811865474
    outer loop
      vertex 0.4689110867544648 3.4999999999999996 1.75
      vertex 0.4689110867544648 2.5000000000000004 1.75
      vertex 1.75 2.5000000000000004 0.46891108675446436
    endloop
  endfacet
  facet normal 0.7071067811865476 2.4668663737267014e-17 0.7071067811865474
    outer loop
      vertex 0.4689110867544648 3.4999999999999996 1.75
      vertex 1.75 2.5000000000000004 0.46891108675446436
      vertex 1.75 3.4999999999999996 0.46891108675446436
    endloop
  endfacet
  facet normal 0.25881904510252063 0 0.9659258262890683
    outer loop
      vertex 1.75 3.4999999999999996 0.46891108675446436
      vertex 1.75 2.5000000000000004 0.46891108675446436
      vertex 3.4999999999999996 2.5000000000000004 0
    endloop
  endfacet
  facet normal 0.25881904510252063 -7.62046532926856e-18 0.9659258262890683
    outer loop
      vertex 1.75 3.4999999999999996 0.46891108675446436
      vertex 3.4999999999999996 2.5000000000000004 0
      vertex 3.4999999999999996 3.4999999999999996 0
    endloop
  endfacet
  facet normal 0 0.9659258262890683 0.25881904510252085
    outer loop
      vertex 3.4999999999999996 0 3.4999999999999996
      vertex 2.5000000000000004 0.4689110867544648 1.75
      vertex 2.5000000000000004 0 3.4999999999999996
    endloop
  endfacet
  facet normal -7.620465329268452e-18 0.9659258262890683 0.25881904510252085
    outer loop
      vertex 3.4999999999999996 0 3.4999999999999996
      vertex 3.4999999999999996 0.4689110867544648 1.75
      vertex 2.5000000000000004 0.4689110867544648 1.75
    endloop
  endfacet
  facet normal 0 0.7071067811865476 0.7071067811865474
    outer loop
      vertex 3.4999999999999996 0.4689110867544648 1.75
      vertex 2.5000000000000004 1.75 0.46891108675446436
      vertex 2.5000000000000004 0.4689110867544648 1.75
    endloop
  endfacet
  facet normal 2.4668663737267014e-17 0.7071067811865476 0.7071067811865474
    outer loop
      vertex 3.4999999999999996 0.4689110867544648 1.75
      vertex 3.4999999999999996 1.75 0.46891108675446436
      vertex 2.5000000000000004 1.75 0.46891108675446436
    endloop
  endfacet
  facet normal 0 0.25881904510252063 0.9659258262890683
    outer loop
      vertex 3.4999999999999996 1.75 0.46891108675446436
      vertex 2.5000000000000004 3.4999999999999996 0
      vertex 2.5000000000000004 1.75 0.46891108675446436
    endloop
  endfacet
  facet normal -7.62046532926856e-18 0.25881904510252063 0.9659258262890683
    outer loop
      vertex 3.4999999999999996 1.75 0.46891108675446436
      vertex 3.4999999999999996 3.4999999999999996 0
      vertex 2.5000000000000004 3.4999999999999996 0
    endloop
  endfacet
  facet normal 0.9659258262890683 0 -0.25881904510252085
    outer loop
      vertex 0 3.4999999999999996 2.5000000000000004
      vertex 0.4689110867544648 2.5000000000000004 4.25
      vertex 0 2.5000000000000004 2.5000000000000004
    endloop
  endfacet
  facet normal 0.9659258262890683 7.620465329268452e-18 -0.25881904510252085
    outer loop
      vertex 0 3.4999999999999996 2.5000000000000004
      vertex 0.4689110867544648 3.4999999999999996 4.25
      vertex 0.4689110867544648 2.5000000000000004 4.25
    endloop
  endfacet
  facet normal 0.7071067811865476 0 -0.7071067811865474
    outer loop
      vertex 0.4689110867544648 3.4999999999999996 4.25
      vertex 1.75 2.5000000000000004 5.531088913245536
      vertex 0.4689110867544648 2.5000000000000004 4.25
    endloop
  endfacet
  facet normal 0.7071067811865476 -2.4668663737267014e-17 -0.7071067811865474
    outer loop
      vertex 0.4689110867544648 3.4999999999999996 4.25
      vertex 1.75 3.4999999999999996 5.531088913245536
      vertex 1.75 2.5000000000000004 5.531088913245536
    endloop
  endfacet
  facet normal 0.25881904510252063 0 -0.9659258262890683
    outer loop
      vertex 1.75 3.4999999999999996 5.531088913245536
      vertex 3.4999999999999996 2.5000000000000004 6
      vertex 1.75 2.5000000000000004 5.531088913245536
    endloop
  endfacet
  facet normal 0.25881904510252063 7.62046532926856e-18 -0.9659258262890683
    outer loop
      vertex 1.75 3.4999999999999996 5.531088913245536
      vertex 3.4999999999999996 3.4999999999999996 6
      vertex 3.4999999999999996 2.5000000000000004 6
    endloop
  endfacet
  facet normal 0 0.9659258262890683 -0.25881904510252085
    outer loop
      vertex 3.4999999999999996 0 2.5000000000000004
      vertex 2.5000000000000004 0 2.5000000000000004
      vertex 2.5000000000000004 0.4689110867544648 4.25
    endloop
  endfacet
  facet normal 7.620465329268452e-18 0.9659258262890683 -0.25881904510252085
    outer loop
      vertex 3.4999999999999996 0 2.5000000000000004
      vertex 2.5000000000000004 0.4689110867544648 4.25
      vertex 3.4999999999999996 0.4689110867544648 4.25
    endloop
  endfacet
  facet normal 0 0.7071067811865476 -0.7071067811865474
    outer loop
      vertex 3.4999999999999996 0.4689110867544648 4.25
      vertex 2.5000000000000004 0.4689110867544648 4.25
      vertex 2.5000000000000004 1.75 5.531088913245536
    endloop
  endfacet
  facet normal -2.4668663737267014e-17 0.7071067811865476 -0.7071067811865474
    outer loop
      vertex 3.4999999999999996 0.4689110867544648 4.25
      vertex 2.5000000000000004 1.75 5.531088913245536
      vertex 3.4999999999999996 1.75 5.531088913245536
    endloop
  endfacet
  facet normal 0 0.25881904510252063 -0.9659258262890683
    outer loop
      vertex 3.4999999999999996 1.75 5.531088913245536
      vertex 2.5000000000000004 1.75 5.531088913245536
      vertex 2.5000000000000004 3.4999999999999996 6
    endloop
  endfacet
  facet normal 7.62046532926856e-18 0.25881904510252063 -0.9659258262890683
    outer loop
      vertex 3.4999999999999996 1.75 5.531088913245536
      vertex 2.5000000000000004 3.4999999999999996 6
      vertex 3.4999999999999996 3.4999999999999996 6
    endloop
  endfacet
  facet normal 0.9659258262890683 -0.25881904510252085 0
    outer loop
      vertex 0 2.5000000000000004 3.4999999999999996
      vertex 0 2.5000000000000004 2.5000000000000004
      vertex 0.4689110867544648 4.25 2.5000000000000004
    endloop
  endfacet
  facet normal 0.9659258262890683 -0.25881904510252085 7.620465329268452e-18
    outer loop
      vertex 0 2.5000000000000004 3.4999999999999996
      vertex 0.4689110867544648 4.25 2.5000000000000004
      vertex 0.4689110867544648 4.25 3.4999999999999996
    endloop
  endfacet
  facet normal 0.7071067811865476 -0.7071067811865474 0
    outer loop
      vertex 0.4689110867544648 4.25 3.4999999999999996
      vertex 0.4689110867544648 4.25 2.5000000000000004
      vertex 1.75 5.531088913245536 2.5000000000000004
    endloop
  endfacet
  facet normal 0.7071067811865476 -0.7071067811865474 -2.4668663737267014e-17
    outer loop
      vertex 0.4689110867544648 4.25 3.4999999999999996
      vertex 1.75 5.531088913245536 2.5000000000000004
      vertex 1.75 5.531088913245536 3.4999999999999996
    endloop
  endfacet
  facet normal 0.25881904510252063 -0.9659258262890683 0
    outer loop
      vertex 1.75 5.531088913245536 3.4999999999999996
      vertex 1.75 5.531088913245536 2.5000000000000004
      vertex 3.4999999999999996 6 2.5000000000000004
    endloop
  endfacet
  facet normal 0.25881904510252063 -0.9659258262890683 7.62046532926856e-18
    outer loop
      vertex 1.75 5.531088913245536 3.4999999999999996
      vertex 3.4999999999999996 6 2.5000000000000004
      vertex 3.4999999999999996 6 3.4999999999999996
    endloop
  endfacet
  facet normal 0 -0.25881904510252085 0.9659258262890683
    outer loop
      vertex 3.4999999999999996 2.5000000000000004 0
      vertex 2.5000000000000004 4.25 0.4689110867544648
      vertex 2.5000000000000004 2.5000000000000004 0
    endloop
  endfacet
  facet normal 7.620465329268452e-18 -0.25881904510252085 0.9659258262890683
    outer loop
      vertex 3.4999999999999996 2.5000000000000004 0
      vertex 3.4999999999999996 4.25 0.4689110867544648
      vertex 2.5000000000000004 4.25 0.4689110867544648
    endloop
  endfacet
  facet normal 0 -0.7071067811865474 0.7071067811865476
    outer loop
      vertex 3.4999999999999996 4.25 0.4689110867544648
      vertex 2.5000000000000004 5.531088913245536 1.75
      vertex 2.5000000000000004 4.25 0.4689110867544648
    endloop
  endfacet
  facet normal -2.4668663737267014e-17 -0.7071067811865474 0.7071067811865476
    outer loop
      vertex 3.4999999999999996 4.25 0.4689110867544648
      vertex 3.4999999999999996 5.531088913245536 1.75
      vertex 2.5000000000000004 5.531088913245536 1.75
    endloop
  endfacet
  facet normal 0 -0.9659258262890683 0.25881904510252063
    outer loop
      vertex 3.4999999999999996 5.531088913245536 1.75
      vertex 2.5000000000000004 6 3.4999999999999996
      vertex 2.5000000000000004 5.531088913245536 1.75
    endloop
  endfacet
  facet normal 7.62046532926856e-18 -0.9659258262890683 0.25881904510252063
    outer loop
      vertex 3.4999999999999996 5.531088913245536 1.75
      vertex 3.4999999999999996 6 3.4999999999999996
      vertex 2.5000000000000004 6 3.4999999999999996
    endloop
  endfacet
  facet normal 0 -0.2588190451025211 -0.9659258262890682
    outer loop
      vertex 3.4999999999999996 2.5000000000000004 6
      vertex 2.5000000000000004 2.5000000000000004 6
      vertex 2.5000000000000004 4.25 5.531088913245535
    endloop
  endfacet
  facet normal -7.62046532926834e-18 -0.2588190451025211 -0.9659258262890682
    outer loop
      vertex 3.4999999999999996 2.5000000000000004 6
      vertex 2.5000000000000004 4.25 5.531088913245535
      vertex 3.4999999999999996 4.25 5.531088913245535
    endloop
  endfacet
  facet normal 0 -0.7071067811865474 -0.7071067811865478
    outer loop
      vertex 3.4999999999999996 4.25 5.531088913245535
      vertex 2.5000000000000004 4.25 5.531088913245535
      vertex 2.5000000000000004 5.531088913245536 4.25
    endloop
  endfacet
  facet normal -2.899047621496179e-17 -0.7071067811865474 -0.7071067811865478
    outer loop
      vertex 3.4999999999999996 4.25 5.531088913245535
      vertex 2.5000000000000004 5.531088913245536 4.25
      vertex 3.4999999999999996 5.531088913245536 4.25
    endloop
  endfacet
  facet normal 0 -0.9659258262890683 -0.25881904510252063
    outer loop
      vertex 3.4999999999999996 5.531088913245536 4.25
      vertex 2.5000000000000004 5.531088913245536 4.25
      vertex 2.5000000000000004 6 2.5000000000000004
    endloop
  endfacet
  facet normal -7.62046532926856e-18 -0.9659258262890683 -0.25881904510252063
    outer loop
      vertex 3.4999999999999996 5.531088913245536 4.25
      vertex 2.5000000000000004 6 2.5000000000000004
      vertex 3.4999999999999996 6 2.5000000000000004
    endloop
  endfacet
  facet normal -0.25881904510252085 0.9659258262890683 0
    outer loop
      vertex 2.5000000000000004 0 3.4999999999999996
      vertex 4.25 0.4689110867544648 2.5000000000000004
      vertex 2.5000000000000004 0 2.5000000000000004
    endloop
  endfacet
  facet normal -0.25881904510252085 0.9659258262890683 7.620465329268452e-18
    outer loop
      vertex 2.5000000000000004 0 3.4999999999999996
      vertex 4.25 0.4689110867544648 3.4999999999999996
      vertex 4.25 0.4689110867544648 2.5000000000000004
    endloop
  endfacet
  facet normal -0.7071067811865474 0.7071067811865476 0
    outer loop
      vertex 4.25 0.4689110867544648 3.4999999999999996
      vertex 5.531088913245536 1.75 2.5000000000000004
      vertex 4.25 0.4689110867544648 2.5000000000000004
    endloop
  endfacet
  facet normal -0.7071067811865474 0.7071067811865476 -2.4668663737267014e-17
    outer loop
      vertex 4.25 0.4689110867544648 3.4999999999999996
      vertex 5.531088913245536 1.75 3.4999999999999996
      vertex 5.531088913245536 1.75 2.5000000000000004
    endloop
  endfacet
  facet normal -0.9659258262890683 0.25881904510252063 0
    outer loop
      vertex 5.531088913245536 1.75 3.4999999999999996
      vertex 6 3.4999999999999996 2.5000000000000004
      vertex 5.531088913245536 1.75 2.5000000000000004
    endloop
  endfacet
  facet normal -0.9659258262890683 0.25881904510252063 7.62046532926856e-18
    outer loop
      vertex 5.531088913245536 1.75 3.4999999999999996
      vertex 6 3.4999999999999996 3.4999999999999996
      vertex 6 3.4999999999999996 2.5000000000000004
    endloop
  endfacet
  facet normal -0.25881904510252085 0 0.9659258262890683
    outer loop
      vertex 2.5000000000000004 3.4999999999999996 0
      vertex 2.5000000000000004 2.5000000000000004 0
      vertex 4.25 2.5000000000000004 0.4689110867544648
    endloop
  endfacet
  facet normal -0.25881904510252085 7.620465329268452e-18 0.9659258262890683
    outer loop
      vertex 2.5000000000000004 3.4999999999999996 0
      vertex 4.25 2.5000000000000004 0.4689110867544648
      vertex 4.25 3.4999999999999996 0.4689110867544648
    endloop
  endfacet
  facet normal -0.7071067811865474 0 0.7071067811865476
    outer loop
      vertex 4.25 3.4999999999999996 0.4689110867544648
      vertex 4.25 2.5000000000000004 0.4689110867544648
      vertex 5.531088913245536 2.5000000000000004 1.75
    endloop
  endfacet
  facet normal -0.7071067811865474 -2.4668663737267014e-17 0.7071067811865476
    outer loop
      vertex 4.25 3.4999999999999996 0.4689110867544648
      vertex 5.531088913245536 2.5000000000000004 1.75
      vertex 5.531088913245536 3.4999999999999996 1.75
    endloop
  endfacet
  facet normal -0.9659258262890683 0 0.25881904510252063
    outer loop
      vertex 5.531088913245536 3.4999999999999996 1.75
      vertex 5.531088913245536 2.5000000000000004 1.75
      vertex 6 2.5000000000000004 3.4999999999999996
    endloop
  endfacet
  facet normal -0.9659258262890683 7.62046532926856e-18 0.25881904510252063
    outer loop
      vertex 5.531088913245536 3.4999999999999996 1.75
      vertex 6 2.5000000000000004 3.4999999999999996
      vertex 6 3.4999999999999996 3.4999999999999996
    endloop
  endfacet
  facet normal -0.2588190451025211 0 -0.9659258262890682
    outer loop
      vertex 2.5000000000000004 3.4999999999999996 6
      vertex 4.25 2.5000000000000004 5.531088913245535
      vertex 2.5000000000000004 2.5000000000000004 6
    endloop
  endfacet
  facet normal -0.2588190451025211 -7.62046532926834e-18 -0.9659258262890682
    outer loop
      vertex 2.5000000000000004 3.4999999999999996 6
      vertex 4.25 3.4999999999999996 5.531088913245535
      vertex 4.25 2.5000000000000004 5.531088913245535
    endloop
  endfacet
  facet normal -0.7071067811865474 0 -0.7071067811865478
    outer loop
      vertex 4.25 3.4999999999999996 5.531088913245535
      vertex 5.531088913245536 2.5000000000000004 4.25
      vertex 4.25 2.5000000000000004 5.531088913245535
    endloop
  endfacet
  facet normal -0.7071067811865474 -2.899047621496179e-17 -0.7071067811865478
    outer loop
      vertex 4.25 3.4999999999999996 5.531088913245535
      vertex 5.531088913245536 3.4999999999999996 4.25
      vertex 5.531088913245536 2.5000000000000004 4.25
    endloop
  endfacet
  facet normal -0.9659258262890683 0 -0.25881904510252063
    outer loop
      vertex 5.531088913245536 3.4999999999999996 4.25
      vertex 6 2.5000000000000004 2.5000000000000004
      vertex 5.531088913245536 2.5000000000000004 4.25
    endloop
  endfacet
  facet normal -0.9659258262890683 -7.62046532926856e-18 -0.25881904510252063
    outer loop
      vertex 5.531088913245536 3.4999999999999996 4.25
      vertex 6 3.4999999999999996 2.5000000000000004
      vertex 6 2.5000000000000004 2.5000000000000004
    endloop
  endfacet
  facet normal -0.2588190451025211 -0.9659258262890682 0
    outer loop
      vertex 2.5000000000000004 6 3.4999999999999996
      vertex 2.5000000000000004 6 2.5000000000000004
      vertex 4.25 5.531088913245535 2.5000000000000004
    endloop
  endfacet
  facet normal -0.2588190451025211 -0.9659258262890682 -7.62046532926834e-18
    outer loop
      vertex 2.5000000000000004 6 3.4999999999999996
      vertex 4.25 5.531088913245535 2.5000000000000004
      vertex 4.25 5.531088913245535 3.4999999999999996
    endloop
  endfacet
  facet normal -0.7071067811865474 -0.7071067811865478 0
    outer loop
      vertex 4.25 5.531088913245535 3.4999999999999996
      vertex 4.25 5.531088913245535 2.5000000000000004
      vertex 5.531088913245536 4.25 2.5000000000000004
    endloop
  endfacet
  facet normal -0.7071067811865474 -0.7071067811865478 -2.899047621496179e-17
    outer loop
      vertex 4.25 5.531088913245535 3.4999999999999996
      vertex 5.531088913245536 4.25 2.5000000000000004
      vertex 5.531088913245536 4.25 3.4999999999999996
    endloop
  endfacet
  facet normal -0.9659258262890683 -0.25881904510252063 0
    outer loop
      vertex 5.531088913245536 4.25 3.4999999999999996
      vertex 5.531088913245536 4.25 2.5000000000000004
      vertex 6 2.5000000000000004 2.5000000000000004
    endloop
  endfacet
  facet normal -0.9659258262890683 -0.25881904510252063 -7.62046532926856e-18
    outer loop
      vertex 5.531088913245536 4.25 3.4999999999999996
      vertex 6 2.5000000000000004 2.5000000000000004
      vertex 6 2.5000000000000004 3.4999999999999996
    endloop
  endfacet
  facet normal -0.9351131265310292 -0.25056280708573164 -0.25056280708573164
    outer loop
      vertex 0 3.4999999999999996 3.4999999999999996
      vertex 0.4689110867544648 3.4999999999999996 1.75
      vertex 0.4689110867544648 1.75 3.4999999999999996
    endloop
  endfacet
  facet normal -0.848545145393381 -0.37414645276236796 -0.37414645276236796
    outer loop
      vertex 0.4689110867544648 1.75 3.4999999999999996
      vertex 0.4689110867544648 3.4999999999999996 1.75
      vertex 1.4792740578363102 1.4792740578363102 1.4792740578363102
    endloop
  endfacet
  facet normal -0.6845503194452978 -0.2505628070857319 -0.6845503194452975
    outer loop
      vertex 0.4689110867544648 3.4999999999999996 1.75
      vertex 1.75 3.4999999999999996 0.46891108675446436
      vertex 1.4792740578363102 1.4792740578363102 1.4792740578363102
    endloop
  endfacet
  facet normal -0.37414645276236813 -0.37414645276236813 -0.848545145393381
    outer loop
      vertex 1.4792740578363102 1.4792740578363102 1.4792740578363102
      vertex 1.75 3.4999999999999996 0.46891108675446436
      vertex 3.4999999999999996 1.75 0.46891108675446436
    endloop
  endfacet
  facet normal -0.2505628070857315 -0.2505628070857315 -0.9351131265310295
    outer loop
      vertex 1.75 3.4999999999999996 0.46891108675446436
      vertex 3.4999999999999996 3.4999999999999996 0
      vertex 3.4999999999999996 1.75 0.46891108675446436
    endloop
  endfacet
  facet normal -0.6845503194452979 -0.6845503194452977 -0.250562807085732
    outer loop
      vertex 0.4689110867544648 1.75 3.4999999999999996
      vertex 1.4792740578363102 1.4792740578363102 1.4792740578363102
      vertex 1.75 0.46891108675446436 3.4999999999999996
    endloop
  endfacet
  facet normal -0.37414645276236796 -0.848545145393381 -0.3741464527623682
    outer loop
      vertex 1.75 0.46891108675446436 3.4999999999999996
      vertex 1.4792740578363102 1.4792740578363102 1.4792740578363102
      vertex 3.4999999999999996 0.4689110867544648 1.75
    endloop
  endfacet
  facet normal -0.250562807085732 -0.6845503194452978 -0.6845503194452975
    outer loop
      vertex 1.4792740578363102 1.4792740578363102 1.4792740578363102
      vertex 3.4999999999999996 1.75 0.46891108675446436
      vertex 3.4999999999999996 0.4689110867544648 1.75
    endloop
  endfacet
  facet normal -0.2505628070857314 -0.9351131265310294 -0.25056280708573164
    outer loop
      vertex 1.75 0.46891108675446436 3.4999999999999996
      vertex 3.4999999999999996 0.4689110867544648 1.75
      vertex 3.4999999999999996 0 3.4999999999999996
    endloop
  endfacet
  facet normal -0.9351131265310292 -0.25056280708573164 0.25056280708573164
    outer loop
      vertex 0 3.4999999999999996 2.5000000000000004
      vertex 0.4689110867544648 1.75 2.5000000000000004
      vertex 0.4689110867544648 3.4999999999999996 4.25
    endloop
  endfacet
  facet normal -0.848545145393381 -0.37414645276236796 0.37414645276236796
    outer loop
      vertex 0.4689110867544648 1.75 2.5000000000000004
      vertex 1.4792740578363102 1.4792740578363102 4.52072594216369
      vertex 0.4689110867544648 3.4999999999999996 4.25
    endloop
  endfacet
  facet normal -0.6845503194452978 -0.2505628070857319 0.6845503194452975
    outer loop
      vertex 0.4689110867544648 3.4999999999999996 4.25
      vertex 1.4792740578363102 1.4792740578363102 4.52072594216369
      vertex 1.75 3.4999999999999996 5.531088913245536
    endloop
  endfacet
  facet normal -0.37414645276236813 -0.37414645276236813 0.848545145393381
    outer loop
      vertex 1.4792740578363102 1.4792740578363102 4.52072594216369
      vertex 3.4999999999999996 1.75 5.531088913245536
      vertex 1.75 3.4999999999999996 5.531088913245536
    endloop
  endfacet
  facet normal -0.2505628070857315 -0.2505628070857315 0.9351131265310295
    outer loop
      vertex 1.75 3.4999999999999996 5.531088913245536
      vertex 3.4999999999999996 1.75 5.531088913245536
      vertex 3.4999999999999996 3.4999999999999996 6
    endloop
  endfacet
  facet normal -0.6845503194452979 -0.6845503194452977 0.250562807085732
    outer loop
      vertex 0.4689110867544648 1.75 2.5000000000000004
      vertex 1.75 0.46891108675446436 2.5000000000000004
      vertex 1.4792740578363102 1.4792740578363102 4.52072594216369
    endloop
  endfacet
  facet normal -0.37414645276236796 -0.848545145393381 0.3741464527623682
    outer loop
      vertex 1.75 0.46891108675446436 2.5000000000000004
      vertex 3.4999999999999996 0.4689110867544648 4.25
      vertex 1.4792740578363102 1.4792740578363102 4.52072594216369
    endloop
  endfacet
  facet normal -0.2505628070857319 -0.6845503194452978 0.6845503194452975
    outer loop
      vertex 1.4792740578363102 1.4792740578363102 4.52072594216369
      vertex 3.4999999999999996 0.4689110867544648 4.25
      vertex 3.4999999999999996 1.75 5.531088913245536
    endloop
  endfacet
  facet normal -0.2505628070857314 -0.9351131265310294 0.25056280708573164
    outer loop
      vertex 1.75 0.46891108675446436 2.5000000000000004
      vertex 3.4999999999999996 0 2.5000000000000004
      vertex 3.4999999999999996 0.4689110867544648 4.25
    endloop
  endfacet
  facet normal -0.9351131265310292 0.25056280708573164 -0.25056280708573164
    outer loop
      vertex 0 2.5000000000000004 3.4999999999999996
      vertex 0.4689110867544648 4.25 3.4999999999999996
      vertex 0.4689110867544648 2.5000000000000004 1.75
    endloop
  endfacet
  facet normal -0.848545145393381 0.37414645276236796 -0.37414645276236796
    outer loop
      vertex 0.4689110867544648 4.25 3.4999999999999996
      vertex 1.4792740578363102 4.52072594216369 1.4792740578363102
      vertex 0.4689110867544648 2.5000000000000004 1.75
    endloop
  endfacet
  facet normal -0.6845503194452978 0.2505628070857319 -0.6845503194452975
    outer loop
      vertex 0.4689110867544648 2.5000000000000004 1.75
      vertex 1.4792740578363102 4.52072594216369 1.4792740578363102
      vertex 1.75 2.5000000000000004 0.46891108675446436
    endloop
  endfacet
  facet normal -0.37414645276236796 0.3741464527623682 -0.848545145393381
    outer loop
      vertex 1.4792740578363102 4.52072594216369 1.4792740578363102
      vertex 3.4999999999999996 4.25 0.4689110867544648
      vertex 1.75 2.5000000000000004 0.46891108675446436
    endloop
  endfacet
  facet normal -0.2505628070857314 0.25056280708573164 -0.9351131265310294
    outer loop
      vertex 1.75 2.5000000000000004 0.46891108675446436
      vertex 3.4999999999999996 4.25 0.4689110867544648
      vertex 3.4999999999999996 2.5000000000000004 0
    endloop
  endfacet
  facet normal -0.6845503194452979 0.6845503194452977 -0.250562807085732
    outer loop
      vertex 0.4689110867544648 4.25 3.4999999999999996
      vertex 1.75 5.531088913245536 3.4999999999999996
      vertex 1.4792740578363102 4.52072594216369 1.4792740578363102
    endloop
  endfacet
  facet normal -0.37414645276236813 0.848545145393381 -0.37414645276236813
    outer loop
      vertex 1.75 5.531088913245536 3.4999999999999996
      vertex 3.4999999999999996 5.531088913245536 1.75
      vertex 1.4792740578363102 4.52072594216369 1.4792740578363102
    endloop
  endfacet
  facet normal -0.2505628070857319 0.6845503194452975 -0.6845503194452978
    outer loop
      vertex 1.4792740578363102 4.52072594216369 1.4792740578363102
      vertex 3.4999999999999996 5.531088913245536 1.75
      vertex 3.4999999999999996 4.25 0.4689110867544648
    endloop
  endfacet
  facet normal -0.2505628070857315 0.9351131265310295 -0.2505628070857315
    outer loop
      vertex 1.75 5.531088913245536 3.4999999999999996
      vertex 3.4999999999999996 6 3.4999999999999996
      vertex 3.4999999999999996 5.531088913245536 1.75
    endloop
  endfacet
  facet normal -0.9351131265310292 0.25056280708573164 0.25056280708573164
    outer loop
      vertex 0 2.5000000000000004 2.5000000000000004
      vertex 0.4689110867544648 2.5000000000000004 4.25
      vertex 0.4689110867544648 4.25 2.5000000000000004
    endloop
  endfacet
  facet normal -0.848545145393381 0.37414645276236796 0.37414645276236796
    outer loop
      vertex 0.4689110867544648 2.5000000000000004 4.25
      vertex 1.4792740578363102 4.52072594216369 4.52072594216369
      vertex 0.4689110867544648 4.25 2.5000000000000004
    endloop
  endfacet
  facet normal -0.6845503194452979 0.6845503194452977 0.250562807085732
    outer loop
      vertex 0.4689110867544648 4.25 2.5000000000000004
      vertex 1.4792740578363102 4.52072594216369 4.52072594216369
      vertex 1.75 5.531088913245536 2.5000000000000004
    endloop
  endfacet
  facet normal -0.37414645276236813 0.848545145393381 0.37414645276236813
    outer loop
      vertex 1.4792740578363102 4.52072594216369 4.52072594216369
      vertex 3.4999999999999996 5.531088913245536 4.25
      vertex 1.75 5.531088913245536 2.5000000000000004
    endloop
  endfacet
  facet normal -0.2505628070857315 0.9351131265310295 0.2505628070857315
    outer loop
      vertex 1.75 5.531088913245536 2.5000000000000004
      vertex 3.4999999999999996 5.531088913245536 4.25
      vertex 3.4999999999999996 6 2.5000000000000004
    endloop
  endfacet
  facet normal -0.6845503194452978 0.2505628070857319 0.6845503194452975
    outer loop
      vertex 0.4689110867544648 2.5000000000000004 4.25
      vertex 1.75 2.5000000000000004 5.531088913245536
      vertex 1.4792740578363102 4.52072594216369 4.52072594216369
    endloop
  endfacet
  facet normal -0.3741464527623678 0.3741464527623682 0.848545145393381
    outer loop
      vertex 1.75 2.5000000000000004 5.531088913245536
      vertex 3.4999999999999996 4.25 5.531088913245535
      vertex 1.4792740578363102 4.52072594216369 4.52072594216369
    endloop
  endfacet
  facet normal -0.2505628070857319 0.6845503194452975 0.684550319445298
    outer loop
      vertex 1.4792740578363102 4.52072594216369 4.52072594216369
      vertex 3.4999999999999996 4.25 5.531088913245535
      vertex 3.4999999999999996 5.531088913245536 4.25
    endloop
  endfacet
  facet normal -0.2505628070857314 0.2505628070857319 0.9351131265310294
    outer loop
      vertex 1.75 2.5000000000000004 5.531088913245536
      vertex 3.4999999999999996 2.5000000000000004 6
      vertex 3.4999999999999996 4.25 5.531088913245535
    endloop
  endfacet
  facet normal 0.25056280708573164 -0.9351131265310292 -0.25056280708573164
    outer loop
      vertex 2.5000000000000004 0 3.4999999999999996
      vertex 2.5000000000000004 0.4689110867544648 1.75
      vertex 4.25 0.4689110867544648 3.4999999999999996
    endloop
  endfacet
  facet normal 0.37414645276236796 -0.848545145393381 -0.37414645276236796
    outer loop
      vertex 2.5000000000000004 0.4689110867544648 1.75
      vertex 4.52072594216369 1.4792740578363102 1.4792740578363102
      vertex 4.25 0.4689110867544648 3.4999999999999996
    endloop
  endfacet
  facet normal 0.6845503194452977 -0.6845503194452979 -0.250562807085732
    outer loop
      vertex 4.25 0.4689110867544648 3.4999999999999996
      vertex 4.52072594216369 1.4792740578363102 1.4792740578363102
      vertex 5.531088913245536 1.75 3.4999999999999996
    endloop
  endfacet
  facet normal 0.848545145393381 -0.37414645276236813 -0.37414645276236813
    outer loop
      vertex 4.52072594216369 1.4792740578363102 1.4792740578363102
      vertex 5.531088913245536 3.4999999999999996 1.75
      vertex 5.531088913245536 1.75 3.4999999999999996
    endloop
  endfacet
  facet normal 0.9351131265310295 -0.2505628070857315 -0.2505628070857315
    outer loop
      vertex 5.531088913245536 1.75 3.4999999999999996
      vertex 5.531088913245536 3.4999999999999996 1.75
      vertex 6 3.4999999999999996 3.4999999999999996
    endloop
  endfacet
  facet normal 0.2505628070857319 -0.6845503194452978 -0.6845503194452975
    outer loop
      vertex 2.5000000000000004 0.4689110867544648 1.75
      vertex 2.5000000000000004 1.75 0.46891108675446436
      vertex 4.52072594216369 1.4792740578363102 1.4792740578363102
    endloop
  endfacet
  facet normal 0.3741464527623682 -0.37414645276236796 -0.848545145393381
    outer loop
      vertex 2.5000000000000004 1.75 0.46891108675446436
      vertex 4.25 3.4999999999999996 0.4689110867544648
      vertex 4.52072594216369 1.4792740578363102 1.4792740578363102
    endloop
  endfacet
  facet normal 0.6845503194452975 -0.2505628070857319 -0.6845503194452978
    outer loop
      vertex 4.52072594216369 1.4792740578363102 1.4792740578363102
      vertex 4.25 3.4999999999999996 0.4689110867544648
      vertex 5.531088913245536 3.4999999999999996 1.75
    endloop
  endfacet
  facet normal 0.25056280708573164 -0.2505628070857314 -0.9351131265310294
    outer loop
      vertex 2.5000000000000004 1.75 0.46891108675446436
      vertex 2.5000000000000004 3.4999999999999996 0
      vertex 4.25 3.4999999999999996 0.4689110867544648
    endloop
  endfacet
  facet normal 0.25056280708573164 -0.9351131265310292 0.25056280708573164
    outer loop
      vertex 2.5000000000000004 0 2.5000000000000004
      vertex 4.25 0.4689110867544648 2.5000000000000004
      vertex 2.5000000000000004 0.4689110867544648 4.25
    endloop
  endfacet
  facet normal 0.37414645276236796 -0.848545145393381 0.37414645276236796
    outer loop
      vertex 2.5000000000000004 0.4689110867544648 4.25
      vertex 4.25 0.4689110867544648 2.5000000000000004
      vertex 4.52072594216369 1.4792740578363102 4.52072594216369
    endloop
  endfacet
  facet normal 0.6845503194452977 -0.6845503194452979 0.250562807085732
    outer loop
      vertex 4.25 0.4689110867544648 2.5000000000000004
      vertex 5.531088913245536 1.75 2.5000000000000004
      vertex 4.52072594216369 1.4792740578363102 4.52072594216369
    endloop
  endfacet
  facet normal 0.848545145393381 -0.37414645276236813 0.37414645276236813
    outer loop
      vertex 4.52072594216369 1.4792740578363102 4.52072594216369
      vertex 5.531088913245536 1.75 2.5000000000000004
      vertex 5.531088913245536 3.4999999999999996 4.25
    endloop
  endfacet
  facet normal 0.9351131265310295 -0.2505628070857315 0.2505628070857315
    outer loop
      vertex 5.531088913245536 1.75 2.5000000000000004
      vertex 6 3.4999999999999996 2.5000000000000004
      vertex 5.531088913245536 3.4999999999999996 4.25
    endloop
  endfacet
  facet normal 0.2505628070857319 -0.6845503194452978 0.6845503194452975
    outer loop
      vertex 2.5000000000000004 0.4689110867544648 4.25
      vertex 4.52072594216369 1.4792740578363102 4.52072594216369
      vertex 2.5000000000000004 1.75 5.531088913245536
    endloop
  endfacet
  facet normal 0.3741464527623682 -0.3741464527623678 0.848545145393381
    outer loop
      vertex 2.5000000000000004 1.75 5.531088913245536
      vertex 4.52072594216369 1.4792740578363102 4.52072594216369
      vertex 4.25 3.4999999999999996 5.531088913245535
    endloop
  endfacet
  facet normal 0.6845503194452975 -0.2505628070857319 0.684550319445298
    outer loop
      vertex 4.52072594216369 1.4792740578363102 4.52072594216369
      vertex 5.531088913245536 3.4999999999999996 4.25
      vertex 4.25 3.4999999999999996 5.531088913245535
    endloop
  endfacet
  facet normal 0.2505628070857319 -0.2505628070857314 0.9351131265310294
    outer loop
      vertex 2.5000000000000004 1.75 5.531088913245536
      vertex 4.25 3.4999999999999996 5.531088913245535
      vertex 2.5000000000000004 3.4999999999999996 6
    endloop
  endfacet
  facet normal 0.25056280708573164 0.25056280708573164 -0.9351131265310294
    outer loop
      vertex 2.5000000000000004 2.5000000000000004 0
      vertex 2.5000000000000004 4.25 0.4689110867544648
      vertex 4.25 2.5000000000000004 0.4689110867544648
    endloop
  endfacet
  facet normal 0.37414645276236796 0.37414645276236796 -0.848545145393381
    outer loop
      vertex 2.5000000000000004 4.25 0.4689110867544648
      vertex 4.52072594216369 4.52072594216369 1.4792740578363102
      vertex 4.25 2.5000000000000004 0.4689110867544648
    endloop
  endfacet
  facet normal 0.6845503194452975 0.2505628070857319 -0.6845503194452978
    outer loop
      vertex 4.25 2.5000000000000004 0.4689110867544648
      vertex 4.52072594216369 4.52072594216369 1.4792740578363102
      vertex 5.531088913245536 2.5000000000000004 1.75
    endloop
  endfacet
  facet normal 0.848545145393381 0.37414645276236813 -0.37414645276236813
    outer loop
      vertex 4.52072594216369 4.52072594216369 1.4792740578363102
      vertex 5.531088913245536 4.25 3.4999999999999996
      vertex 5.531088913245536 2.5000000000000004 1.75
    endloop
  endfacet
  facet normal 0.9351131265310295 0.2505628070857315 -0.2505628070857315
    outer loop
      vertex 5.531088913245536 2.5000000000000004 1.75
      vertex 5.531088913245536 4.25 3.4999999999999996
      vertex 6 2.5000000000000004 3.4999999999999996
    endloop
  endfacet
  facet normal 0.2505628070857319 0.6845503194452975 -0.6845503194452978
    outer loop
      vertex 2.5000000000000004 4.25 0.4689110867544648
      vertex 2.5000000000000004 5.531088913245536 1.75
      vertex 4.52072594216369 4.52072594216369 1.4792740578363102
    endloop
  endfacet
  facet normal 0.3741464527623682 0.848545145393381 -0.3741464527623678
    outer loop
      vertex 2.5000000000000004 5.531088913245536 1.75
      vertex 4.25 5.531088913245535 3.4999999999999996
      vertex 4.52072594216369 4.52072594216369 1.4792740578363102
    endloop
  endfacet
  facet normal 0.6845503194452975 0.684550319445298 -0.2505628070857319
    outer loop
      vertex 4.52072594216369 4.52072594216369 1.4792740578363102
      vertex 4.25 5.531088913245535 3.4999999999999996
      vertex 5.531088913245536 4.25 3.4999999999999996
    endloop
  endfacet
  facet normal 0.2505628070857319 0.9351131265310294 -0.2505628070857314
    outer loop
      vertex 2.5000000000000004 5.531088913245536 1.75
      vertex 2.5000000000000004 6 3.4999999999999996
      vertex 4.25 5.531088913245535 3.4999999999999996
    endloop
  endfacet
  facet normal 0.25056280708573186 0.25056280708573186 0.9351131265310292
    outer loop
      vertex 2.5000000000000004 2.5000000000000004 6
      vertex 4.25 2.5000000000000004 5.531088913245535
      vertex 2.5000000000000004 4.25 5.531088913245535
    endloop
  endfacet
  facet normal 0.3741464527623679 0.3741464527623679 0.8485451453933812
    outer loop
      vertex 4.25 2.5000000000000004 5.531088913245535
      vertex 4.52072594216369 4.52072594216369 4.52072594216369
      vertex 2.5000000000000004 4.25 5.531088913245535
    endloop
  endfacet
  facet normal 0.25056280708573186 0.6845503194452975 0.684550319445298
    outer loop
      vertex 2.5000000000000004 4.25 5.531088913245535
      vertex 4.52072594216369 4.52072594216369 4.52072594216369
      vertex 2.5000000000000004 5.531088913245536 4.25
    endloop
  endfacet
  facet normal 0.3741464527623682 0.848545145393381 0.3741464527623678
    outer loop
      vertex 4.52072594216369 4.52072594216369 4.52072594216369
      vertex 4.25 5.531088913245535 2.5000000000000004
      vertex 2.5000000000000004 5.531088913245536 4.25
    endloop
  endfacet
  facet normal 0.2505628070857319 0.9351131265310294 0.2505628070857314
    outer loop
      vertex 2.5000000000000004 5.531088913245536 4.25
      vertex 4.25 5.531088913245535 2.5000000000000004
      vertex 2.5000000000000004 6 2.5000000000000004
    endloop
  endfacet
  facet normal 0.6845503194452975 0.25056280708573186 0.684550319445298
    outer loop
      vertex 4.25 2.5000000000000004 5.531088913245535
      vertex 5.531088913245536 2.5000000000000004 4.25
      vertex 4.52072594216369 4.52072594216369 4.52072594216369
    endloop
  endfacet
  facet normal 0.848545145393381 0.37414645276236813 0.37414645276236813
    outer loop
      vertex 5.531088913245536 2.5000000000000004 4.25
      vertex 5.531088913245536 4.25 2.5000000000000004
      vertex 4.52072594216369 4.52072594216369 4.52072594216369
    endloop
  endfacet
  facet normal 0.6845503194452975 0.684550319445298 0.25056280708573186
    outer loop
      vertex 4.52072594216369 4.52072594216369 4.52072594216369
      vertex 5.531088913245536 4.25 2.5000000000000004
      vertex 4.25 5.531088913245535 2.5000000000000004
    endloop
  endfacet
  facet normal 0.9351131265310295 0.2505628070857315 0.2505628070857315
    outer loop
      vertex 5.531088913245536 2.5000000000000004 4.25
      vertex 6 2.5000000000000004 2.5000000000000004
      vertex 5.531088913245536 4.25 2.5000000000000004
    endloop
  endfacet
endsolid OpenSCAD_Model
