solid OpenSCAD_Model
  facet normal -1 0 0
    outer loop
      vertex 0 3 0.9999999999999999
      vertex 0 0.9999999999999999 0.9999999999999999
      vertex 0 0.9999999999999999 3
    endloop
  endfacet
  facet normal -1 0 0
    outer loop
      vertex 0 3 0.9999999999999999
      vertex 0 0.9999999999999999 3
      vertex 0 0.9999999999999999 5
    endloop
  endfacet
  facet normal -1 0 0
    outer loop
      vertex 0 3 0.9999999999999999
      vertex 0 0.9999999999999999 5
      vertex 0 3 5
    endloop
  endfacet
  facet normal -1 0 0
    outer loop
      vertex 0 3 0.9999999999999999
      vertex 0 3 5
      vertex 0 5 5
    endloop
  endfacet
  facet normal -1 0 0
    outer loop
      vertex 0 3 0.9999999999999999
      vertex 0 5 5
      vertex 0 5 3
    endloop
  endfacet
  facet normal -1 0 0
    outer loop
      vertex 0 5 3
      vertex 0 5 0.9999999999999999
      vertex 0 3 0.9999999999999999
    endloop
  endfacet
  facet normal 0 -1 0
    outer loop
      vertex 0.9999999999999999 0 3
      vertex 0.9999999999999999 0 0.9999999999999999
      vertex 3 0 0.9999999999999999
    endloop
  endfacet
  facet normal 0 -1 0
    outer loop
      vertex 0.9999999999999999 0 3
      vertex 3 0 0.9999999999999999
      vertex 5 0 0.9999999999999999
    endloop
  endfacet
  facet normal 0 -1 0
    outer loop
      vertex 0.9999999999999999 0 3
      vertex 5 0 0.9999999999999999
      vertex 5 0 3
    endloop
  endfacet
  facet normal 0 -1 0
    outer loop
      vertex 0.9999999999999999 0 3
      vertex 5 0 3
      vertex 5 0 5
    endloop
  endfacet
  facet normal 0 -1 0
    outer loop
      vertex 0.9999999999999999 0 3
      vertex 5 0 5
      vertex 3 0 5
    endloop
  endfacet
  facet normal 0 -1 0
    outer loop
      vertex 3 0 5
      vertex 0.9999999999999999 0 5
      vertex 0.9999999999999999 0 3
    endloop
  endfacet
  facet normal 0 0 1
    outer loop
      vertex 0.9999999999999999 3 6
      vertex 0.9999999999999999 0.9999999999999999 6
      vertex 3 0.9999999999999999 6
    endloop
  endfacet
  facet normal 0 0 1
    outer loop
      vertex 0.9999999999999999 3 6
      vertex 3 0.9999999999999999 6
      vertex 5 0.9999999999999999 6
    endloop
  endfacet
  facet normal 0 0 1
    outer loop
      vertex 0.9999999999999999 3 6
      vertex 5 0.9999999999999999 6
      vertex 5 3 6
    endloop
  endfacet
  facet normal 0 0 1
    outer loop
      vertex 0.9999999999999999 3 6
      vertex 5 3 6
      vertex 5 5 6
    endloop
  endfacet
  facet normal 0 0 1
    outer loop
      vertex 0.9999999999999999 3 6
      vertex 5 5 6
      vertex 3 5 6
    endloop
  endfacet
  facet normal 0 0 1
    outer loop
      vertex 3 5 6
      vertex 0.9999999999999999 5 6
      vertex 0.9999999999999999 3 6
    endloop
  endfacet
  facet normal 0 0 -1
    outer loop
      vertex 3 0.9999999999999999 0
      vertex 0.9999999999999999 0.9999999999999999 0
      vertex 0.9999999999999999 3 0
    endloop
  endfacet
  facet normal 0 0 -1
    outer loop
      vertex 3 0.9999999999999999 0
      vertex 0.9999999999999999 3 0
      vertex 0.9999999999999999 5 0
    endloop
  endfacet
  facet normal 0 0 -1
    outer loop
      vertex 3 0.9999999999999999 0
      vertex 0.9999999999999999 5 0
      vertex 3 5 0
    endloop
  endfacet
  facet normal 0 0 -1
    outer loop
      vertex 3 0.9999999999999999 0
      vertex 3 5 0
      vertex 5 5 0
    endloop
  endfacet
  facet normal 0 0 -1
    outer loop
      vertex 3 0.9999999999999999 0
      vertex 5 5 0
      vertex 5 3 0
    endloop
  endfacet
  facet normal 0 0 -1
    outer loop
      vertex 5 3 0
      vertex 5 0.9999999999999999 0
      vertex 3 0.9999999999999999 0
    endloop
  endfacet
  facet normal 0 1 0
    outer loop
      vertex 3 6 0.9999999999999999
      vertex 0.9999999999999999 6 0.9999999999999999
      vertex 0.9999999999999999 6 3
    endloop
  endfacet
  facet normal 0 1 0
    outer loop
      vertex 3 6 0.9999999999999999
      vertex 0.9999999999999999 6 3
      vertex 0.9999999999999999 6 5
    endloop
  endfacet
  facet normal 0 1 0
    outer loop
      vertex 3 6 0.9999999999999999
      vertex 0.9999999999999999 6 5
      vertex 3 6 5
    endloop
  endfacet
  facet normal 0 1 0
    outer loop
      vertex 3 6 0.9999999999999999
      vertex 3 6 5
      vertex 5 6 5
    endloop
  endfacet
  facet normal 0 1 0
    outer loop
      vertex 3 6 0.9999999999999999
      vertex 5 6 5
      vertex 5 6 3
    endloop
  endfacet
  facet normal 0 1 0
    outer loop
      vertex 5 6 3
      vertex 5 6 0.9999999999999999
      vertex 3 6 0.9999999999999999
    endloop
  endfacet
  facet normal 1 0 0
    outer loop
      vertex 6 0.9999999999999999 3
      vertex 6 0.9999999999999999 0.9999999999999999
      vertex 6 3 0.9999999999999999
    endloop
  endfacet
  facet normal 1 0 0
    outer loop
      vertex 6 0.9999999999999999 3
      vertex 6 3 0.9999999999999999
      vertex 6 5 0.9999999999999999
    endloop
  endfacet
  facet normal 1 0 0
    outer loop
      vertex 6 0.9999999999999999 3
      vertex 6 5 0.9999999999999999
      vertex 6 5 3
    endloop
  endfacet
  facet normal 1 0 0
    outer loop
      vertex 6 0.9999999999999999 3
      vertex 6 5 3
      vertex 6 5 5
    endloop
  endfacet
  facet normal 1 0 0
    outer loop
      vertex 6 0.9999999999999999 3
      vertex 6 5 5
      vertex 6 3 5
    endloop
  endfacet
  facet normal 1 0 0
    outer loop
      vertex 6 3 5
      vertex 6 0.9999999999999999 5
      vertex 6 0.9999999999999999 3
    endloop
  endfacet
  facet normal -0.9238795325112867 -0.3826834323650898 0
    outer loop
      vertex 0 0.9999999999999999 0.9999999999999999
      vertex 0.2928932188134524 0.2928932188134524 3
      vertex 0 0.9999999999999999 3
    endloop
  endfacet
  facet normal -0.9238795325112867 -0.3826834323650898 -6.628544313285996e-18
    outer loop
      vertex 0 0.9999999999999999 0.9999999999999999
      vertex 0.2928932188134524 0.2928932188134524 0.9999999999999999
      vertex 0.2928932188134524 0.2928932188134524 3
    endloop
  endfacet
  facet normal -0.3826834323650898 -0.9238795325112867 0
    outer loop
      vertex 0.2928932188134524 0.2928932188134524 0.9999999999999999
      vertex 0.9999999999999999 0 3
      vertex 0.2928932188134524 0.2928932188134524 3
    endloop
  endfacet
  facet normal -0.3826834323650898 -0.9238795325112867 -6.628544313285996e-18
    outer loop
      vertex 0.2928932188134524 0.2928932188134524 0.9999999999999999
      vertex 0.9999999999999999 0 0.9999999999999999
      vertex 0.9999999999999999 0 3
    endloop
  endfacet
  facet normal -0.9238795325112867 0 -0.3826834323650898
    outer loop
      vertex 0 0.9999999999999999 0.9999999999999999
      vertex 0 3 0.9999999999999999
      vertex 0.2928932188134524 3 0.2928932188134524
    endloop
  endfacet
  facet normal -0.9238795325112867 -6.628544313285996e-18 -0.3826834323650898
    outer loop
      vertex 0 0.9999999999999999 0.9999999999999999
      vertex 0.2928932188134524 3 0.2928932188134524
      vertex 0.2928932188134524 0.9999999999999999 0.2928932188134524
    endloop
  endfacet
  facet normal -0.3826834323650898 0 -0.9238795325112867
    outer loop
      vertex 0.2928932188134524 0.9999999999999999 0.2928932188134524
      vertex 0.2928932188134524 3 0.2928932188134524
      vertex 0.9999999999999999 3 0
    endloop
  endfacet
  facet normal -0.3826834323650898 -6.628544313285996e-18 -0.9238795325112867
    outer loop
      vertex 0.2928932188134524 0.9999999999999999 0.2928932188134524
      vertex 0.9999999999999999 3 0
      vertex 0.9999999999999999 0.9999999999999999 0
    endloop
  endfacet
  facet normal 0 -0.9238795325112867 -0.3826834323650898
    outer loop
      vertex 0.9999999999999999 0 0.9999999999999999
      vertex 3 0.2928932188134524 0.2928932188134524
      vertex 3 0 0.9999999999999999
    endloop
  endfacet
  facet normal -6.628544313285996e-18 -0.9238795325112867 -0.3826834323650898
    outer loop
      vertex 0.9999999999999999 0 0.9999999999999999
      vertex 0.9999999999999999 0.2928932188134524 0.2928932188134524
      vertex 3 0.2928932188134524 0.2928932188134524
    endloop
  endfacet
  facet normal 0 -0.3826834323650898 -0.9238795325112867
    outer loop
      vertex 0.9999999999999999 0.2928932188134524 0.2928932188134524
      vertex 3 0.9999999999999999 0
      vertex 3 0.2928932188134524 0.2928932188134524
    endloop
  endfacet
  facet normal -6.628544313285996e-18 -0.3826834323650898 -0.9238795325112867
    outer loop
      vertex 0.9999999999999999 0.2928932188134524 0.2928932188134524
      vertex 0.9999999999999999 0.9999999999999999 0
      vertex 3 0.9999999999999999 0
    endloop
  endfacet
  facet normal -0.9238795325112867 -0.3826834323650898 0
    outer loop
      vertex 0 0.9999999999999999 5
      vertex 0 0.9999999999999999 3
      vertex 0.2928932188134524 0.2928932188134524 3
    endloop
  endfacet
  facet normal -0.9238795325112867 -0.3826834323650898 -6.628544313285996e-18
    outer loop
      vertex 0 0.9999999999999999 5
      vertex 0.2928932188134524 0.2928932188134524 3
      vertex 0.2928932188134524 0.2928932188134524 5
    endloop
  endfacet
  facet normal -0.3826834323650898 -0.9238795325112867 0
    outer loop
      vertex 0.2928932188134524 0.2928932188134524 5
      vertex 0.2928932188134524 0.2928932188134524 3
      vertex 0.9999999999999999 0 3
    endloop
  endfacet
  facet normal -0.3826834323650898 -0.9238795325112867 -6.628544313285996e-18
    outer loop
      vertex 0.2928932188134524 0.2928932188134524 5
      vertex 0.9999999999999999 0 3
      vertex 0.9999999999999999 0 5
    endloop
  endfacet
  facet normal -0.9238795325112868 0 0.38268343236508956
    outer loop
      vertex 0 0.9999999999999999 5
      vertex 0.2928932188134524 3 5.707106781186548
      vertex 0 3 5
    endloop
  endfacet
  facet normal -0.9238795325112868 9.403179436308462e-19 0.38268343236508956
    outer loop
      vertex 0 0.9999999999999999 5
      vertex 0.2928932188134524 0.9999999999999999 5.707106781186548
      vertex 0.2928932188134524 3 5.707106781186548
    endloop
  endfacet
  facet normal -0.3826834323650894 0 0.923879532511287
    outer loop
      vertex 0.2928932188134524 0.9999999999999999 5.707106781186548
      vertex 0.9999999999999999 3 6
      vertex 0.2928932188134524 3 5.707106781186548
    endloop
  endfacet
  facet normal -0.3826834323650894 -2.1706763599811643e-18 0.923879532511287
    outer loop
      vertex 0.2928932188134524 0.9999999999999999 5.707106781186548
      vertex 0.9999999999999999 0.9999999999999999 6
      vertex 0.9999999999999999 3 6
    endloop
  endfacet
  facet normal 0 -0.9238795325112868 0.38268343236508956
    outer loop
      vertex 0.9999999999999999 0 5
      vertex 3 0 5
      vertex 3 0.2928932188134524 5.707106781186548
    endloop
  endfacet
  facet normal 9.403179436308462e-19 -0.9238795325112868 0.38268343236508956
    outer loop
      vertex 0.9999999999999999 0 5
      vertex 3 0.2928932188134524 5.707106781186548
      vertex 0.9999999999999999 0.2928932188134524 5.707106781186548
    endloop
  endfacet
  facet normal 0 -0.3826834323650894 0.923879532511287
    outer loop
      vertex 0.9999999999999999 0.2928932188134524 5.707106781186548
      vertex 3 0.2928932188134524 5.707106781186548
      vertex 3 0.9999999999999999 6
    endloop
  endfacet
  facet normal -2.1706763599811643e-18 -0.3826834323650894 0.923879532511287
    outer loop
      vertex 0.9999999999999999 0.2928932188134524 5.707106781186548
      vertex 3 0.9999999999999999 6
      vertex 0.9999999999999999 0.9999999999999999 6
    endloop
  endfacet
  facet normal -0.9238795325112867 0 -0.3826834323650898
    outer loop
      vertex 0 5 0.9999999999999999
      vertex 0.2928932188134524 3 0.2928932188134524
      vertex 0 3 0.9999999999999999
    endloop
  endfacet
  facet normal -0.9238795325112867 -6.628544313285996e-18 -0.3826834323650898
    outer loop
      vertex 0 5 0.9999999999999999
      vertex 0.2928932188134524 5 0.2928932188134524
      vertex 0.2928932188134524 3 0.2928932188134524
    endloop
  endfacet
  facet normal -0.3826834323650898 0 -0.9238795325112867
    outer loop
      vertex 0.2928932188134524 5 0.2928932188134524
      vertex 0.9999999999999999 3 0
      vertex 0.2928932188134524 3 0.2928932188134524
    endloop
  endfacet
  facet normal -0.3826834323650898 -6.628544313285996e-18 -0.9238795325112867
    outer loop
      vertex 0.2928932188134524 5 0.2928932188134524
      vertex 0.9999999999999999 5 0
      vertex 0.9999999999999999 3 0
    endloop
  endfacet
  facet normal -0.9238795325112868 0.38268343236508956 0
    outer loop
      vertex 0 5 0.9999999999999999
      vertex 0 5 3
      vertex 0.2928932188134524 5.707106781186548 3
    endloop
  endfacet
  facet normal -0.9238795325112868 0.38268343236508956 9.403179436308462e-19
    outer loop
      vertex 0 5 0.9999999999999999
      vertex 0.2928932188134524 5.707106781186548 3
      vertex 0.2928932188134524 5.707106781186548 0.9999999999999999
    endloop
  endfacet
  facet normal -0.3826834323650894 0.923879532511287 0
    outer loop
      vertex 0.2928932188134524 5.707106781186548 0.9999999999999999
      vertex 0.2928932188134524 5.707106781186548 3
      vertex 0.9999999999999999 6 3
    endloop
  endfacet
  facet normal -0.3826834323650894 0.923879532511287 -2.1706763599811643e-18
    outer loop
      vertex 0.2928932188134524 5.707106781186548 0.9999999999999999
      vertex 0.9999999999999999 6 3
      vertex 0.9999999999999999 6 0.9999999999999999
    endloop
  endfacet
  facet normal 0 0.38268343236508956 -0.9238795325112868
    outer loop
      vertex 0.9999999999999999 5 0
      vertex 3 5.707106781186548 0.2928932188134524
      vertex 3 5 0
    endloop
  endfacet
  facet normal 9.403179436308462e-19 0.38268343236508956 -0.9238795325112868
    outer loop
      vertex 0.9999999999999999 5 0
      vertex 0.9999999999999999 5.707106781186548 0.2928932188134524
      vertex 3 5.707106781186548 0.2928932188134524
    endloop
  endfacet
  facet normal 0 0.923879532511287 -0.3826834323650894
    outer loop
      vertex 0.9999999999999999 5.707106781186548 0.2928932188134524
      vertex 3 6 0.9999999999999999
      vertex 3 5.707106781186548 0.2928932188134524
    endloop
  endfacet
  facet normal -2.1706763599811643e-18 0.923879532511287 -0.3826834323650894
    outer loop
      vertex 0.9999999999999999 5.707106781186548 0.2928932188134524
      vertex 0.9999999999999999 6 0.9999999999999999
      vertex 3 6 0.9999999999999999
    endloop
  endfacet
  facet normal -0.9238795325112868 0 0.38268343236508956
    outer loop
      vertex 0 5 5
      vertex 0 3 5
      vertex 0.2928932188134524 3 5.707106781186548
    endloop
  endfacet
  facet normal -0.9238795325112868 9.403179436308462e-19 0.38268343236508956
    outer loop
      vertex 0 5 5
      vertex 0.2928932188134524 3 5.707106781186548
      vertex 0.2928932188134524 5 5.707106781186548
    endloop
  endfacet
  facet normal -0.3826834323650894 0 0.923879532511287
    outer loop
      vertex 0.2928932188134524 5 5.707106781186548
      vertex 0.2928932188134524 3 5.707106781186548
      vertex 0.9999999999999999 3 6
    endloop
  endfacet
  facet normal -0.3826834323650894 -2.1706763599811643e-18 0.923879532511287
    outer loop
      vertex 0.2928932188134524 5 5.707106781186548
      vertex 0.9999999999999999 3 6
      vertex 0.9999999999999999 5 6
    endloop
  endfacet
  facet normal -0.9238795325112868 0.38268343236508956 0
    outer loop
      vertex 0 5 5
      vertex 0.2928932188134524 5.707106781186548 3
      vertex 0 5 3
    endloop
  endfacet
  facet normal -0.9238795325112868 0.38268343236508956 9.403179436308462e-19
    outer loop
      vertex 0 5 5
      vertex 0.2928932188134524 5.707106781186548 5
      vertex 0.2928932188134524 5.707106781186548 3
    endloop
  endfacet
  facet normal -0.3826834323650894 0.923879532511287 0
    outer loop
      vertex 0.2928932188134524 5.707106781186548 5
      vertex 0.9999999999999999 6 3
      vertex 0.2928932188134524 5.707106781186548 3
    endloop
  endfacet
  facet normal -0.3826834323650894 0.923879532511287 -2.1706763599811643e-18
    outer loop
      vertex 0.2928932188134524 5.707106781186548 5
      vertex 0.9999999999999999 6 5
      vertex 0.9999999999999999 6 3
    endloop
  endfacet
  facet normal 0 0.38268343236508917 0.923879532511287
    outer loop
      vertex 0.9999999999999999 5 6
      vertex 3 5 6
      vertex 3 5.707106781186548 5.707106781186548
    endloop
  endfacet
  facet normal 7.858902729636407e-18 0.38268343236508917 0.923879532511287
    outer loop
      vertex 0.9999999999999999 5 6
      vertex 3 5.707106781186548 5.707106781186548
      vertex 0.9999999999999999 5.707106781186548 5.707106781186548
    endloop
  endfacet
  facet normal 0 0.923879532511287 0.38268343236508917
    outer loop
      vertex 0.9999999999999999 5.707106781186548 5.707106781186548
      vertex 3 5.707106781186548 5.707106781186548
      vertex 3 6 5
    endloop
  endfacet
  facet normal 7.858902729636407e-18 0.923879532511287 0.38268343236508917
    outer loop
      vertex 0.9999999999999999 5.707106781186548 5.707106781186548
      vertex 3 6 5
      vertex 0.9999999999999999 6 5
    endloop
  endfacet
  facet normal 0 -0.9238795325112867 -0.3826834323650898
    outer loop
      vertex 5 0 0.9999999999999999
      vertex 3 0 0.9999999999999999
      vertex 3 0.2928932188134524 0.2928932188134524
    endloop
  endfacet
  facet normal -6.628544313285996e-18 -0.9238795325112867 -0.3826834323650898
    outer loop
      vertex 5 0 0.9999999999999999
      vertex 3 0.2928932188134524 0.2928932188134524
      vertex 5 0.2928932188134524 0.2928932188134524
    endloop
  endfacet
  facet normal 0 -0.3826834323650898 -0.9238795325112867
    outer loop
      vertex 5 0.2928932188134524 0.2928932188134524
      vertex 3 0.2928932188134524 0.2928932188134524
      vertex 3 0.9999999999999999 0
    endloop
  endfacet
  facet normal -6.628544313285996e-18 -0.3826834323650898 -0.9238795325112867
    outer loop
      vertex 5 0.2928932188134524 0.2928932188134524
      vertex 3 0.9999999999999999 0
      vertex 5 0.9999999999999999 0
    endloop
  endfacet
  facet normal 0.38268343236508956 -0.9238795325112868 0
    outer loop
      vertex 5 0 0.9999999999999999
      vertex 5.707106781186548 0.2928932188134524 3
      vertex 5 0 3
    endloop
  endfacet
  facet normal 0.38268343236508956 -0.9238795325112868 9.403179436308462e-19
    outer loop
      vertex 5 0 0.9999999999999999
      vertex 5.707106781186548 0.2928932188134524 0.9999999999999999
      vertex 5.707106781186548 0.2928932188134524 3
    endloop
  endfacet
  facet normal 0.923879532511287 -0.3826834323650894 0
    outer loop
      vertex 5.707106781186548 0.2928932188134524 0.9999999999999999
      vertex 6 0.9999999999999999 3
      vertex 5.707106781186548 0.2928932188134524 3
    endloop
  endfacet
  facet normal 0.923879532511287 -0.3826834323650894 -2.1706763599811643e-18
    outer loop
      vertex 5.707106781186548 0.2928932188134524 0.9999999999999999
      vertex 6 0.9999999999999999 0.9999999999999999
      vertex 6 0.9999999999999999 3
    endloop
  endfacet
  facet normal 0.38268343236508956 0 -0.9238795325112868
    outer loop
      vertex 5 0.9999999999999999 0
      vertex 5 3 0
      vertex 5.707106781186548 3 0.2928932188134524
    endloop
  endfacet
  facet normal 0.38268343236508956 9.403179436308462e-19 -0.9238795325112868
    outer loop
      vertex 5 0.9999999999999999 0
      vertex 5.707106781186548 3 0.2928932188134524
      vertex 5.707106781186548 0.9999999999999999 0.2928932188134524
    endloop
  endfacet
  facet normal 0.923879532511287 0 -0.3826834323650894
    outer loop
      vertex 5.707106781186548 0.9999999999999999 0.2928932188134524
      vertex 5.707106781186548 3 0.2928932188134524
      vertex 6 3 0.9999999999999999
    endloop
  endfacet
  facet normal 0.923879532511287 -2.1706763599811643e-18 -0.3826834323650894
    outer loop
      vertex 5.707106781186548 0.9999999999999999 0.2928932188134524
      vertex 6 3 0.9999999999999999
      vertex 6 0.9999999999999999 0.9999999999999999
    endloop
  endfacet
  facet normal 0 -0.9238795325112868 0.38268343236508956
    outer loop
      vertex 5 0 5
      vertex 3 0.2928932188134524 5.707106781186548
      vertex 3 0 5
    endloop
  endfacet
  facet normal 9.403179436308462e-19 -0.9238795325112868 0.38268343236508956
    outer loop
      vertex 5 0 5
      vertex 5 0.2928932188134524 5.707106781186548
      vertex 3 0.2928932188134524 5.707106781186548
    endloop
  endfacet
  facet normal 0 -0.3826834323650894 0.923879532511287
    outer loop
      vertex 5 0.2928932188134524 5.707106781186548
      vertex 3 0.9999999999999999 6
      vertex 3 0.2928932188134524 5.707106781186548
    endloop
  endfacet
  facet normal -2.1706763599811643e-18 -0.3826834323650894 0.923879532511287
    outer loop
      vertex 5 0.2928932188134524 5.707106781186548
      vertex 5 0.9999999999999999 6
      vertex 3 0.9999999999999999 6
    endloop
  endfacet
  facet normal 0.38268343236508956 -0.9238795325112868 0
    outer loop
      vertex 5 0 5
      vertex 5 0 3
      vertex 5.707106781186548 0.2928932188134524 3
    endloop
  endfacet
  facet normal 0.38268343236508956 -0.9238795325112868 9.403179436308462e-19
    outer loop
      vertex 5 0 5
      vertex 5.707106781186548 0.2928932188134524 3
      vertex 5.707106781186548 0.2928932188134524 5
    endloop
  endfacet
  facet normal 0.923879532511287 -0.3826834323650894 0
    outer loop
      vertex 5.707106781186548 0.2928932188134524 5
      vertex 5.707106781186548 0.2928932188134524 3
      vertex 6 0.9999999999999999 3
    endloop
  endfacet
  facet normal 0.923879532511287 -0.3826834323650894 -2.1706763599811643e-18
    outer loop
      vertex 5.707106781186548 0.2928932188134524 5
      vertex 6 0.9999999999999999 3
      vertex 6 0.9999999999999999 5
    endloop
  endfacet
  facet normal 0.38268343236508917 0 0.923879532511287
    outer loop
      vertex 5 0.9999999999999999 6
      vertex 5.707106781186548 3 5.707106781186548
      vertex 5 3 6
    endloop
  endfacet
  facet normal 0.38268343236508917 7.858902729636407e-18 0.923879532511287
    outer loop
      vertex 5 0.9999999999999999 6
      vertex 5.707106781186548 0.9999999999999999 5.707106781186548
      vertex 5.707106781186548 3 5.707106781186548
    endloop
  endfacet
  facet normal 0.923879532511287 0 0.38268343236508917
    outer loop
      vertex 5.707106781186548 0.9999999999999999 5.707106781186548
      vertex 6 3 5
      vertex 5.707106781186548 3 5.707106781186548
    endloop
  endfacet
  facet normal 0.923879532511287 7.858902729636407e-18 0.38268343236508917
    outer loop
      vertex 5.707106781186548 0.9999999999999999 5.707106781186548
      vertex 6 0.9999999999999999 5
      vertex 6 3 5
    endloop
  endfacet
  facet normal 0 0.38268343236508956 -0.9238795325112868
    outer loop
      vertex 5 5 0
      vertex 3 5 0
      vertex 3 5.707106781186548 0.2928932188134524
    endloop
  endfacet
  facet normal 9.403179436308462e-19 0.38268343236508956 -0.9238795325112868
    outer loop
      vertex 5 5 0
      vertex 3 5.707106781186548 0.2928932188134524
      vertex 5 5.707106781186548 0.2928932188134524
    endloop
  endfacet
  facet normal 0 0.923879532511287 -0.3826834323650894
    outer loop
      vertex 5 5.707106781186548 0.2928932188134524
      vertex 3 5.707106781186548 0.2928932188134524
      vertex 3 6 0.9999999999999999
    endloop
  endfacet
  facet normal -2.1706763599811643e-18 0.923879532511287 -0.3826834323650894
    outer loop
      vertex 5 5.707106781186548 0.2928932188134524
      vertex 3 6 0.9999999999999999
      vertex 5 6 0.9999999999999999
    endloop
  endfacet
  facet normal 0.38268343236508956 0 -0.9238795325112868
    outer loop
      vertex 5 5 0
      vertex 5.707106781186548 3 0.2928932188134524
      vertex 5 3 0
    endloop
  endfacet
  facet normal 0.38268343236508956 9.403179436308462e-19 -0.9238795325112868
    outer loop
      vertex 5 5 0
      vertex 5.707106781186548 5 0.2928932188134524
      vertex 5.707106781186548 3 0.2928932188134524
    endloop
  endfacet
  facet normal 0.923879532511287 0 -0.3826834323650894
    outer loop
      vertex 5.707106781186548 5 0.2928932188134524
      vertex 6 3 0.9999999999999999
      vertex 5.707106781186548 3 0.2928932188134524
    endloop
  endfacet
  facet normal 0.923879532511287 -2.1706763599811643e-18 -0.3826834323650894
    outer loop
      vertex 5.707106781186548 5 0.2928932188134524
      vertex 6 5 0.9999999999999999
      vertex 6 3 0.9999999999999999
    endloop
  endfacet
  facet normal 0.38268343236508917 0.923879532511287 0
    outer loop
      vertex 5 6 0.9999999999999999
      vertex 5 6 3
      vertex 5.707106781186548 5.707106781186548 3
    endloop
  endfacet
  facet normal 0.38268343236508917 0.923879532511287 7.858902729636407e-18
    outer loop
      vertex 5 6 0.9999999999999999
      vertex 5.707106781186548 5.707106781186548 3
      vertex 5.707106781186548 5.707106781186548 0.9999999999999999
    endloop
  endfacet
  facet normal 0.923879532511287 0.38268343236508917 0
    outer loop
      vertex 5.707106781186548 5.707106781186548 0.9999999999999999
      vertex 5.707106781186548 5.707106781186548 3
      vertex 6 5 3
    endloop
  endfacet
  facet normal 0.923879532511287 0.38268343236508917 7.858902729636407e-18
    outer loop
      vertex 5.707106781186548 5.707106781186548 0.9999999999999999
      vertex 6 5 3
      vertex 6 5 0.9999999999999999
    endloop
  endfacet
  facet normal 0 0.38268343236508917 0.923879532511287
    outer loop
      vertex 5 5 6
      vertex 3 5.707106781186548 5.707106781186548
      vertex 3 5 6
    endloop
  endfacet
  facet normal 7.858902729636407e-18 0.38268343236508917 0.923879532511287
    outer loop
      vertex 5 5 6
      vertex 5 5.707106781186548 5.707106781186548
      vertex 3 5.707106781186548 5.707106781186548
    endloop
  endfacet
  facet normal 0 0.923879532511287 0.38268343236508917
    outer loop
      vertex 5 5.707106781186548 5.707106781186548
      vertex 3 6 5
      vertex 3 5.707106781186548 5.707106781186548
    endloop
  endfacet
  facet normal 7.858902729636407e-18 0.923879532511287 0.38268343236508917
    outer loop
      vertex 5 5.707106781186548 5.707106781186548
      vertex 5 6 5
      vertex 3 6 5
    endloop
  endfacet
  facet normal 0.38268343236508917 0 0.923879532511287
    outer loop
      vertex 5 5 6
      vertex 5 3 6
      vertex 5.707106781186548 3 5.707106781186548
    endloop
  endfacet
  facet normal 0.38268343236508917 7.858902729636407e-18 0.923879532511287
    outer loop
      vertex 5 5 6
      vertex 5.707106781186548 3 5.707106781186548
      vertex 5.707106781186548 5 5.707106781186548
    endloop
  endfacet
  facet normal 0.923879532511287 0 0.38268343236508917
    outer loop
      vertex 5.707106781186548 5 5.707106781186548
      vertex 5.707106781186548 3 5.707106781186548
      vertex 6 3 5
    endloop
  endfacet
  facet normal 0.923879532511287 7.858902729636407e-18 0.38268343236508917
    outer loop
      vertex 5.707106781186548 5 5.707106781186548
      vertex 6 3 5
      vertex 6 5 5
    endloop
  endfacet
  facet normal 0.38268343236508917 0.923879532511287 0
    outer loop
      vertex 5 6 5
      vertex 5.707106781186548 5.707106781186548 3
      vertex 5 6 3
    endloop
  endfacet
  facet normal 0.38268343236508917 0.923879532511287 7.858902729636407e-18
    outer loop
      vertex 5 6 5
      vertex 5.707106781186548 5.707106781186548 5
      vertex 5.707106781186548 5.707106781186548 3
    endloop
  endfacet
  facet normal 0.923879532511287 0.38268343236508917 0
    outer loop
      vertex 5.707106781186548 5.707106781186548 5
      vertex 6 5 3
      vertex 5.707106781186548 5.707106781186548 3
    endloop
  endfacet
  facet normal 0.923879532511287 0.38268343236508917 7.858902729636407e-18
    outer loop
      vertex 5.707106781186548 5.707106781186548 5
      vertex 6 5 5
      vertex 6 5 3
    endloop
  endfacet
  facet normal -0.8628562094610169 -0.35740674433659325 -0.35740674433659325
    outer loop
      vertex 0 0.9999999999999999 0.9999999999999999
      vertex 0.2928932188134524 0.9999999999999999 0.2928932188134524
      vertex 0.2928932188134524 0.2928932188134524 0.9999999999999999
    endloop
  endfacet
  facet normal -0.5773502691896257 -0.5773502691896257 -0.5773502691896257
    outer loop
      vertex 0.2928932188134524 0.9999999999999999 0.2928932188134524
      vertex 0.9999999999999999 0.2928932188134524 0.2928932188134524
      vertex 0.2928932188134524 0.2928932188134524 0.9999999999999999
    endloop
  endfacet
  facet normal -0.35740674433659325 -0.8628562094610169 -0.35740674433659325
    outer loop
      vertex 0.2928932188134524 0.2928932188134524 0.9999999999999999
      vertex 0.9999999999999999 0.2928932188134524 0.2928932188134524
      vertex 0.9999999999999999 0 0.9999999999999999
    endloop
  endfacet
  facet normal -0.3574067443365932 -0.3574067443365932 -0.8628562094610168
    outer loop
      vertex 0.2928932188134524 0.9999999999999999 0.2928932188134524
      vertex 0.9999999999999999 0.9999999999999999 0
      vertex 0.9999999999999999 0.2928932188134524 0.2928932188134524
    endloop
  endfacet
  facet normal -0.8628562094610168 -0.35740674433659325 0.35740674433659303
    outer loop
      vertex 0 0.9999999999999999 5
      vertex 0.2928932188134524 0.2928932188134524 5
      vertex 0.2928932188134524 0.9999999999999999 5.707106781186548
    endloop
  endfacet
  facet normal -0.577350269189626 -0.577350269189626 0.5773502691896255
    outer loop
      vertex 0.2928932188134524 0.2928932188134524 5
      vertex 0.9999999999999999 0.2928932188134524 5.707106781186548
      vertex 0.2928932188134524 0.9999999999999999 5.707106781186548
    endloop
  endfacet
  facet normal -0.357406744336593 -0.357406744336593 0.8628562094610172
    outer loop
      vertex 0.2928932188134524 0.9999999999999999 5.707106781186548
      vertex 0.9999999999999999 0.2928932188134524 5.707106781186548
      vertex 0.9999999999999999 0.9999999999999999 6
    endloop
  endfacet
  facet normal -0.35740674433659325 -0.8628562094610168 0.35740674433659303
    outer loop
      vertex 0.2928932188134524 0.2928932188134524 5
      vertex 0.9999999999999999 0 5
      vertex 0.9999999999999999 0.2928932188134524 5.707106781186548
    endloop
  endfacet
  facet normal -0.8628562094610168 0.35740674433659303 -0.35740674433659325
    outer loop
      vertex 0 5 0.9999999999999999
      vertex 0.2928932188134524 5.707106781186548 0.9999999999999999
      vertex 0.2928932188134524 5 0.2928932188134524
    endloop
  endfacet
  facet normal -0.577350269189626 0.5773502691896255 -0.577350269189626
    outer loop
      vertex 0.2928932188134524 5 0.2928932188134524
      vertex 0.2928932188134524 5.707106781186548 0.9999999999999999
      vertex 0.9999999999999999 5.707106781186548 0.2928932188134524
    endloop
  endfacet
  facet normal -0.357406744336593 0.8628562094610172 -0.357406744336593
    outer loop
      vertex 0.2928932188134524 5.707106781186548 0.9999999999999999
      vertex 0.9999999999999999 6 0.9999999999999999
      vertex 0.9999999999999999 5.707106781186548 0.2928932188134524
    endloop
  endfacet
  facet normal -0.35740674433659325 0.35740674433659303 -0.8628562094610168
    outer loop
      vertex 0.2928932188134524 5 0.2928932188134524
      vertex 0.9999999999999999 5.707106781186548 0.2928932188134524
      vertex 0.9999999999999999 5 0
    endloop
  endfacet
  facet normal -0.8628562094610169 0.35740674433659303 0.35740674433659303
    outer loop
      vertex 0 5 5
      vertex 0.2928932188134524 5 5.707106781186548
      vertex 0.2928932188134524 5.707106781186548 5
    endloop
  endfacet
  facet normal -0.577350269189626 0.5773502691896256 0.5773502691896256
    outer loop
      vertex 0.2928932188134524 5 5.707106781186548
      vertex 0.9999999999999999 5.707106781186548 5.707106781186548
      vertex 0.2928932188134524 5.707106781186548 5
    endloop
  endfacet
  facet normal -0.357406744336593 0.8628562094610172 0.35740674433659275
    outer loop
      vertex 0.2928932188134524 5.707106781186548 5
      vertex 0.9999999999999999 5.707106781186548 5.707106781186548
      vertex 0.9999999999999999 6 5
    endloop
  endfacet
  facet normal -0.357406744336593 0.35740674433659275 0.8628562094610172
    outer loop
      vertex 0.2928932188134524 5 5.707106781186548
      vertex 0.9999999999999999 5 6
      vertex 0.9999999999999999 5.707106781186548 5.707106781186548
    endloop
  endfacet
  facet normal 0.35740674433659303 -0.8628562094610168 -0.35740674433659325
    outer loop
      vertex 5 0 0.9999999999999999
      vertex 5 0.2928932188134524 0.2928932188134524
      vertex 5.707106781186548 0.2928932188134524 0.9999999999999999
    endloop
  endfacet
  facet normal 0.5773502691896255 -0.577350269189626 -0.577350269189626
    outer loop
      vertex 5 0.2928932188134524 0.2928932188134524
      vertex 5.707106781186548 0.9999999999999999 0.2928932188134524
      vertex 5.707106781186548 0.2928932188134524 0.9999999999999999
    endloop
  endfacet
  facet normal 0.8628562094610172 -0.357406744336593 -0.357406744336593
    outer loop
      vertex 5.707106781186548 0.2928932188134524 0.9999999999999999
      vertex 5.707106781186548 0.9999999999999999 0.2928932188134524
      vertex 6 0.9999999999999999 0.9999999999999999
    endloop
  endfacet
  facet normal 0.35740674433659303 -0.35740674433659325 -0.8628562094610168
    outer loop
      vertex 5 0.2928932188134524 0.2928932188134524
      vertex 5 0.9999999999999999 0
      vertex 5.707106781186548 0.9999999999999999 0.2928932188134524
    endloop
  endfacet
  facet normal 0.35740674433659303 -0.8628562094610169 0.35740674433659303
    outer loop
      vertex 5 0 5
      vertex 5.707106781186548 0.2928932188134524 5
      vertex 5 0.2928932188134524 5.707106781186548
    endloop
  endfacet
  facet normal 0.5773502691896256 -0.577350269189626 0.5773502691896256
    outer loop
      vertex 5.707106781186548 0.2928932188134524 5
      vertex 5.707106781186548 0.9999999999999999 5.707106781186548
      vertex 5 0.2928932188134524 5.707106781186548
    endloop
  endfacet
  facet normal 0.35740674433659275 -0.357406744336593 0.8628562094610172
    outer loop
      vertex 5 0.2928932188134524 5.707106781186548
      vertex 5.707106781186548 0.9999999999999999 5.707106781186548
      vertex 5 0.9999999999999999 6
    endloop
  endfacet
  facet normal 0.8628562094610172 -0.357406744336593 0.35740674433659275
    outer loop
      vertex 5.707106781186548 0.2928932188134524 5
      vertex 6 0.9999999999999999 5
      vertex 5.707106781186548 0.9999999999999999 5.707106781186548
    endloop
  endfacet
  facet normal 0.35740674433659303 0.35740674433659303 -0.8628562094610169
    outer loop
      vertex 5 5 0
      vertex 5 5.707106781186548 0.2928932188134524
      vertex 5.707106781186548 5 0.2928932188134524
    endloop
  endfacet
  facet normal 0.5773502691896256 0.5773502691896256 -0.577350269189626
    outer loop
      vertex 5 5.707106781186548 0.2928932188134524
      vertex 5.707106781186548 5.707106781186548 0.9999999999999999
      vertex 5.707106781186548 5 0.2928932188134524
    endloop
  endfacet
  facet normal 0.8628562094610172 0.35740674433659275 -0.357406744336593
    outer loop
      vertex 5.707106781186548 5 0.2928932188134524
      vertex 5.707106781186548 5.707106781186548 0.9999999999999999
      vertex 6 5 0.9999999999999999
    endloop
  endfacet
  facet normal 0.35740674433659275 0.8628562094610172 -0.357406744336593
    outer loop
      vertex 5 5.707106781186548 0.2928932188134524
      vertex 5 6 0.9999999999999999
      vertex 5.707106781186548 5.707106781186548 0.9999999999999999
    endloop
  endfacet
  facet normal 0.3574067443365928 0.3574067443365928 0.8628562094610173
    outer loop
      vertex 5 5 6
      vertex 5.707106781186548 5 5.707106781186548
      vertex 5 5.707106781186548 5.707106781186548
    endloop
  endfacet
  facet normal 0.5773502691896257 0.5773502691896257 0.5773502691896257
    outer loop
      vertex 5 5.707106781186548 5.707106781186548
      vertex 5.707106781186548 5 5.707106781186548
      vertex 5.707106781186548 5.707106781186548 5
    endloop
  endfacet
  facet normal 0.8628562094610173 0.3574067443365928 0.3574067443365928
    outer loop
      vertex 5.707106781186548 5 5.707106781186548
      vertex 6 5 5
      vertex 5.707106781186548 5.707106781186548 5
    endloop
  endfacet
  facet normal 0.3574067443365928 0.8628562094610173 0.3574067443365928
    outer loop
      vertex 5 5.707106781186548 5.707106781186548
      vertex 5.707106781186548 5.707106781186548 5
      vertex 5 6 5
    endloop
  endfacet
endsolid OpenSCAD_Model
