solid OpenSCAD_Model
  facet normal -1 0 0
    outer loop
      vertex 0 4 1.9999999999999998
      vertex 0 1.9999999999999998 1.9999999999999998
      vertex 0 1.9999999999999998 4
    endloop
  endfacet
  facet normal -1 0 0
    outer loop
      vertex 0 1.9999999999999998 4
      vertex 0 4 4
      vertex 0 4 1.9999999999999998
    endloop
  endfacet
  facet normal 0 -1 0
    outer loop
      vertex 1.9999999999999998 0 4
      vertex 1.9999999999999998 0 1.9999999999999998
      vertex 4 0 1.9999999999999998
    endloop
  endfacet
  facet normal 0 -1 0
    outer loop
      vertex 4 0 1.9999999999999998
      vertex 4 0 4
      vertex 1.9999999999999998 0 4
    endloop
  endfacet
  facet normal 0 0 1
    outer loop
      vertex 1.9999999999999998 4 6
      vertex 1.9999999999999998 1.9999999999999998 6
      vertex 4 1.9999999999999998 6
    endloop
  endfacet
  facet normal 0 0 1
    outer loop
      vertex 4 1.9999999999999998 6
      vertex 4 4 6
      vertex 1.9999999999999998 4 6
    endloop
  endfacet
  facet normal 0 0 -1
    outer loop
      vertex 4 1.9999999999999998 0
      vertex 1.9999999999999998 1.9999999999999998 0
      vertex 1.9999999999999998 4 0
    endloop
  endfacet
  facet normal 0 0 -1
    outer loop
      vertex 1.9999999999999998 4 0
      vertex 4 4 0
      vertex 4 1.9999999999999998 0
    endloop
  endfacet
  facet normal 0 1 0
    outer loop
      vertex 4 6 1.9999999999999998
      vertex 1.9999999999999998 6 1.9999999999999998
      vertex 1.9999999999999998 6 4
    endloop
  endfacet
  facet normal 0 1 0
    outer loop
      vertex 1.9999999999999998 6 4
      vertex 4 6 4
      vertex 4 6 1.9999999999999998
    endloop
  endfacet
  facet normal 1 0 0
    outer loop
      vertex 6 1.9999999999999998 4
      vertex 6 1.9999999999999998 1.9999999999999998
      vertex 6 4 1.9999999999999998
    endloop
  endfacet
  facet normal 1 0 0
    outer loop
      vertex 6 4 1.9999999999999998
      vertex 6 4 4
      vertex 6 1.9999999999999998 4
    endloop
  endfacet
  facet normal -0.9238795325112867 -0.3826834323650898 0
    outer loop
      vertex 0 1.9999999999999998 1.9999999999999998
      vertex 0.5857864376269049 0.5857864376269049 4
      vertex 0 1.9999999999999998 4
    endloop
  endfacet
  facet normal -0.9238795325112867 -0.3826834323650898 -1.3257088626571991e-17
    outer loop
      vertex 0 1.9999999999999998 1.9999999999999998
      vertex 0.5857864376269049 0.5857864376269049 1.9999999999999998
      vertex 0.5857864376269049 0.5857864376269049 4
    endloop
  endfacet
  facet normal -0.3826834323650898 -0.9238795325112867 0
    outer loop
      vertex 0.5857864376269049 0.5857864376269049 1.9999999999999998
      vertex 1.9999999999999998 0 4
      vertex 0.5857864376269049 0.5857864376269049 4
    endloop
  endfacet
  facet normal -0.3826834323650898 -0.9238795325112867 -1.3257088626571991e-17
    outer loop
      vertex 0.5857864376269049 0.5857864376269049 1.9999999999999998
      vertex 1.9999999999999998 0 1.9999999999999998
      vertex 1.9999999999999998 0 4
    endloop
  endfacet
  facet normal -0.9238795325112867 0 -0.3826834323650898
    outer loop
      vertex 0 1.9999999999999998 1.9999999999999998
      vertex 0 4 1.9999999999999998
      vertex 0.5857864376269049 4 0.5857864376269049
    endloop
  endfacet
  facet normal -0.9238795325112867 -1.3257088626571991e-17 -0.3826834323650898
    outer loop
      vertex 0 1.9999999999999998 1.9999999999999998
      vertex 0.5857864376269049 4 0.5857864376269049
      vertex 0.5857864376269049 1.9999999999999998 0.5857864376269049
    endloop
  endfacet
  facet normal -0.3826834323650898 0 -0.9238795325112867
    outer loop
      vertex 0.5857864376269049 1.9999999999999998 0.5857864376269049
      vertex 0.5857864376269049 4 0.5857864376269049
      vertex 1.9999999999999998 4 0
    endloop
  endfacet
  facet normal -0.3826834323650898 -1.3257088626571991e-17 -0.9238795325112867
    outer loop
      vertex 0.5857864376269049 1.9999999999999998 0.5857864376269049
      vertex 1.9999999999999998 4 0
      vertex 1.9999999999999998 1.9999999999999998 0
    endloop
  endfacet
  facet normal 0 -0.9238795325112867 -0.3826834323650898
    outer loop
      vertex 1.9999999999999998 0 1.9999999999999998
      vertex 4 0.5857864376269049 0.5857864376269049
      vertex 4 0 1.9999999999999998
    endloop
  endfacet
  facet normal -1.3257088626571991e-17 -0.9238795325112867 -0.3826834323650898
    outer loop
      vertex 1.9999999999999998 0 1.9999999999999998
      vertex 1.9999999999999998 0.5857864376269049 0.5857864376269049
      vertex 4 0.5857864376269049 0.5857864376269049
    endloop
  endfacet
  facet normal 0 -0.3826834323650898 -0.9238795325112867
    outer loop
      vertex 1.9999999999999998 0.5857864376269049 0.5857864376269049
      vertex 4 1.9999999999999998 0
      vertex 4 0.5857864376269049 0.5857864376269049
    endloop
  endfacet
  facet normal -1.3257088626571991e-17 -0.3826834323650898 -0.9238795325112867
    outer loop
      vertex 1.9999999999999998 0.5857864376269049 0.5857864376269049
      vertex 1.9999999999999998 1.9999999999999998 0
      vertex 4 1.9999999999999998 0
    endloop
  endfacet
  facet normal -0.9238795325112867 0 0.3826834323650898
    outer loop
      vertex 0 1.9999999999999998 4
      vertex 0.5857864376269049 4 5.414213562373095
      vertex 0 4 4
    endloop
  endfacet
  facet normal -0.9238795325112867 1.3257088626571991e-17 0.3826834323650898
    outer loop
      vertex 0 1.9999999999999998 4
      vertex 0.5857864376269049 1.9999999999999998 5.414213562373095
      vertex 0.5857864376269049 4 5.414213562373095
    endloop
  endfacet
  facet normal -0.3826834323650899 0 0.9238795325112867
    outer loop
      vertex 0.5857864376269049 1.9999999999999998 5.414213562373095
      vertex 1.9999999999999998 4 6
      vertex 0.5857864376269049 4 5.414213562373095
    endloop
  endfacet
  facet normal -0.3826834323650899 7.035100019347907e-18 0.9238795325112867
    outer loop
      vertex 0.5857864376269049 1.9999999999999998 5.414213562373095
      vertex 1.9999999999999998 1.9999999999999998 6
      vertex 1.9999999999999998 4 6
    endloop
  endfacet
  facet normal 0 -0.9238795325112867 0.3826834323650898
    outer loop
      vertex 1.9999999999999998 0 4
      vertex 4 0 4
      vertex 4 0.5857864376269049 5.414213562373095
    endloop
  endfacet
  facet normal 1.3257088626571991e-17 -0.9238795325112867 0.3826834323650898
    outer loop
      vertex 1.9999999999999998 0 4
      vertex 4 0.5857864376269049 5.414213562373095
      vertex 1.9999999999999998 0.5857864376269049 5.414213562373095
    endloop
  endfacet
  facet normal 0 -0.3826834323650899 0.9238795325112867
    outer loop
      vertex 1.9999999999999998 0.5857864376269049 5.414213562373095
      vertex 4 0.5857864376269049 5.414213562373095
      vertex 4 1.9999999999999998 6
    endloop
  endfacet
  facet normal 7.035100019347907e-18 -0.3826834323650899 0.9238795325112867
    outer loop
      vertex 1.9999999999999998 0.5857864376269049 5.414213562373095
      vertex 4 1.9999999999999998 6
      vertex 1.9999999999999998 1.9999999999999998 6
    endloop
  endfacet
  facet normal -0.9238795325112867 0.3826834323650898 0
    outer loop
      vertex 0 4 1.9999999999999998
      vertex 0 4 4
      vertex 0.5857864376269049 5.414213562373095 4
    endloop
  endfacet
  facet normal -0.9238795325112867 0.3826834323650898 1.3257088626571991e-17
    outer loop
      vertex 0 4 1.9999999999999998
      vertex 0.5857864376269049 5.414213562373095 4
      vertex 0.5857864376269049 5.414213562373095 1.9999999999999998
    endloop
  endfacet
  facet normal -0.3826834323650899 0.9238795325112867 0
    outer loop
      vertex 0.5857864376269049 5.414213562373095 1.9999999999999998
      vertex 0.5857864376269049 5.414213562373095 4
      vertex 1.9999999999999998 6 4
    endloop
  endfacet
  facet normal -0.3826834323650899 0.9238795325112867 7.035100019347907e-18
    outer loop
      vertex 0.5857864376269049 5.414213562373095 1.9999999999999998
      vertex 1.9999999999999998 6 4
      vertex 1.9999999999999998 6 1.9999999999999998
    endloop
  endfacet
  facet normal 0 0.3826834323650898 -0.9238795325112867
    outer loop
      vertex 1.9999999999999998 4 0
      vertex 4 5.414213562373095 0.5857864376269049
      vertex 4 4 0
    endloop
  endfacet
  facet normal 1.3257088626571991e-17 0.3826834323650898 -0.9238795325112867
    outer loop
      vertex 1.9999999999999998 4 0
      vertex 1.9999999999999998 5.414213562373095 0.5857864376269049
      vertex 4 5.414213562373095 0.5857864376269049
    endloop
  endfacet
  facet normal 0 0.9238795325112867 -0.3826834323650899
    outer loop
      vertex 1.9999999999999998 5.414213562373095 0.5857864376269049
      vertex 4 6 1.9999999999999998
      vertex 4 5.414213562373095 0.5857864376269049
    endloop
  endfacet
  facet normal 7.035100019347907e-18 0.9238795325112867 -0.3826834323650899
    outer loop
      vertex 1.9999999999999998 5.414213562373095 0.5857864376269049
      vertex 1.9999999999999998 6 1.9999999999999998
      vertex 4 6 1.9999999999999998
    endloop
  endfacet
  facet normal 0 0.3826834323650899 0.9238795325112867
    outer loop
      vertex 1.9999999999999998 4 6
      vertex 4 4 6
      vertex 4 5.414213562373095 5.414213562373095
    endloop
  endfacet
  facet normal -7.035100019347907e-18 0.3826834323650899 0.9238795325112867
    outer loop
      vertex 1.9999999999999998 4 6
      vertex 4 5.414213562373095 5.414213562373095
      vertex 1.9999999999999998 5.414213562373095 5.414213562373095
    endloop
  endfacet
  facet normal 0 0.9238795325112867 0.3826834323650899
    outer loop
      vertex 1.9999999999999998 5.414213562373095 5.414213562373095
      vertex 4 5.414213562373095 5.414213562373095
      vertex 4 6 4
    endloop
  endfacet
  facet normal -7.035100019347907e-18 0.9238795325112867 0.3826834323650899
    outer loop
      vertex 1.9999999999999998 5.414213562373095 5.414213562373095
      vertex 4 6 4
      vertex 1.9999999999999998 6 4
    endloop
  endfacet
  facet normal 0.3826834323650898 -0.9238795325112867 0
    outer loop
      vertex 4 0 1.9999999999999998
      vertex 5.414213562373095 0.5857864376269049 4
      vertex 4 0 4
    endloop
  endfacet
  facet normal 0.3826834323650898 -0.9238795325112867 1.3257088626571991e-17
    outer loop
      vertex 4 0 1.9999999999999998
      vertex 5.414213562373095 0.5857864376269049 1.9999999999999998
      vertex 5.414213562373095 0.5857864376269049 4
    endloop
  endfacet
  facet normal 0.9238795325112867 -0.3826834323650899 0
    outer loop
      vertex 5.414213562373095 0.5857864376269049 1.9999999999999998
      vertex 6 1.9999999999999998 4
      vertex 5.414213562373095 0.5857864376269049 4
    endloop
  endfacet
  facet normal 0.9238795325112867 -0.3826834323650899 7.035100019347907e-18
    outer loop
      vertex 5.414213562373095 0.5857864376269049 1.9999999999999998
      vertex 6 1.9999999999999998 1.9999999999999998
      vertex 6 1.9999999999999998 4
    endloop
  endfacet
  facet normal 0.3826834323650898 0 -0.9238795325112867
    outer loop
      vertex 4 1.9999999999999998 0
      vertex 4 4 0
      vertex 5.414213562373095 4 0.5857864376269049
    endloop
  endfacet
  facet normal 0.3826834323650898 1.3257088626571991e-17 -0.9238795325112867
    outer loop
      vertex 4 1.9999999999999998 0
      vertex 5.414213562373095 4 0.5857864376269049
      vertex 5.414213562373095 1.9999999999999998 0.5857864376269049
    endloop
  endfacet
  facet normal 0.9238795325112867 0 -0.3826834323650899
    outer loop
      vertex 5.414213562373095 1.9999999999999998 0.5857864376269049
      vertex 5.414213562373095 4 0.5857864376269049
      vertex 6 4 1.9999999999999998
    endloop
  endfacet
  facet normal 0.9238795325112867 7.035100019347907e-18 -0.3826834323650899
    outer loop
      vertex 5.414213562373095 1.9999999999999998 0.5857864376269049
      vertex 6 4 1.9999999999999998
      vertex 6 1.9999999999999998 1.9999999999999998
    endloop
  endfacet
  facet normal 0.3826834323650899 0 0.9238795325112867
    outer loop
      vertex 4 1.9999999999999998 6
      vertex 5.414213562373095 4 5.414213562373095
      vertex 4 4 6
    endloop
  endfacet
  facet normal 0.3826834323650899 -7.035100019347907e-18 0.9238795325112867
    outer loop
      vertex 4 1.9999999999999998 6
      vertex 5.414213562373095 1.9999999999999998 5.414213562373095
      vertex 5.414213562373095 4 5.414213562373095
    endloop
  endfacet
  facet normal 0.9238795325112867 0 0.3826834323650899
    outer loop
      vertex 5.414213562373095 1.9999999999999998 5.414213562373095
      vertex 6 4 4
      vertex 5.414213562373095 4 5.414213562373095
    endloop
  endfacet
  facet normal 0.9238795325112867 -7.035100019347907e-18 0.3826834323650899
    outer loop
      vertex 5.414213562373095 1.9999999999999998 5.414213562373095
      vertex 6 1.9999999999999998 4
      vertex 6 4 4
    endloop
  endfacet
  facet normal 0.3826834323650899 0.9238795325112867 0
    outer loop
      vertex 4 6 1.9999999999999998
      vertex 4 6 4
      vertex 5.414213562373095 5.414213562373095 4
    endloop
  endfacet
  facet normal 0.3826834323650899 0.9238795325112867 -7.035100019347907e-18
    outer loop
      vertex 4 6 1.9999999999999998
      vertex 5.414213562373095 5.414213562373095 4
      vertex 5.414213562373095 5.414213562373095 1.9999999999999998
    endloop
  endfacet
  facet normal 0.9238795325112867 0.3826834323650899 0
    outer loop
      vertex 5.414213562373095 5.414213562373095 1.9999999999999998
      vertex 5.414213562373095 5.414213562373095 4
      vertex 6 4 4
    endloop
  endfacet
  facet normal 0.9238795325112867 0.3826834323650899 -7.035100019347907e-18
    outer loop
      vertex 5.414213562373095 5.414213562373095 1.9999999999999998
      vertex 6 4 4
      vertex 6 4 1.9999999999999998
    endloop
  endfacet
  facet normal -0.8628562094610169 -0.35740674433659325 -0.35740674433659325
    outer loop
      vertex 0 1.9999999999999998 1.9999999999999998
      vertex 0.5857864376269049 1.9999999999999998 0.5857864376269049
      vertex 0.5857864376269049 0.5857864376269049 1.9999999999999998
    endloop
  endfacet
  facet normal -0.5773502691896257 -0.5773502691896257 -0.5773502691896257
    outer loop
      vertex 0.5857864376269049 0.5857864376269049 1.9999999999999998
      vertex 0.5857864376269049 1.9999999999999998 0.5857864376269049
      vertex 1.9999999999999998 0.5857864376269049 0.5857864376269049
    endloop
  endfacet
  facet normal -0.3574067443365932 -0.3574067443365932 -0.8628562094610168
    outer loop
      vertex 0.5857864376269049 1.9999999999999998 0.5857864376269049
      vertex 1.9999999999999998 1.9999999999999998 0
      vertex 1.9999999999999998 0.5857864376269049 0.5857864376269049
    endloop
  endfacet
  facet normal -0.35740674433659325 -0.8628562094610169 -0.35740674433659325
    outer loop
      vertex 0.5857864376269049 0.5857864376269049 1.9999999999999998
      vertex 1.9999999999999998 0.5857864376269049 0.5857864376269049
      vertex 1.9999999999999998 0 1.9999999999999998
    endloop
  endfacet
  facet normal -0.8628562094610169 -0.35740674433659325 0.35740674433659325
    outer loop
      vertex 0 1.9999999999999998 4
      vertex 0.5857864376269049 0.5857864376269049 4
      vertex 0.5857864376269049 1.9999999999999998 5.414213562373095
    endloop
  endfacet
  facet normal -0.5773502691896257 -0.5773502691896257 0.5773502691896257
    outer loop
      vertex 0.5857864376269049 0.5857864376269049 4
      vertex 1.9999999999999998 0.5857864376269049 5.414213562373095
      vertex 0.5857864376269049 1.9999999999999998 5.414213562373095
    endloop
  endfacet
  facet normal -0.35740674433659336 -0.35740674433659336 0.8628562094610168
    outer loop
      vertex 0.5857864376269049 1.9999999999999998 5.414213562373095
      vertex 1.9999999999999998 0.5857864376269049 5.414213562373095
      vertex 1.9999999999999998 1.9999999999999998 6
    endloop
  endfacet
  facet normal -0.35740674433659325 -0.8628562094610169 0.35740674433659325
    outer loop
      vertex 0.5857864376269049 0.5857864376269049 4
      vertex 1.9999999999999998 0 4
      vertex 1.9999999999999998 0.5857864376269049 5.414213562373095
    endloop
  endfacet
  facet normal -0.8628562094610169 0.35740674433659325 -0.35740674433659325
    outer loop
      vertex 0 4 1.9999999999999998
      vertex 0.5857864376269049 5.414213562373095 1.9999999999999998
      vertex 0.5857864376269049 4 0.5857864376269049
    endloop
  endfacet
  facet normal -0.5773502691896257 0.5773502691896257 -0.5773502691896257
    outer loop
      vertex 0.5857864376269049 5.414213562373095 1.9999999999999998
      vertex 1.9999999999999998 5.414213562373095 0.5857864376269049
      vertex 0.5857864376269049 4 0.5857864376269049
    endloop
  endfacet
  facet normal -0.3574067443365932 0.3574067443365932 -0.8628562094610168
    outer loop
      vertex 0.5857864376269049 4 0.5857864376269049
      vertex 1.9999999999999998 5.414213562373095 0.5857864376269049
      vertex 1.9999999999999998 4 0
    endloop
  endfacet
  facet normal -0.35740674433659336 0.8628562094610168 -0.35740674433659336
    outer loop
      vertex 0.5857864376269049 5.414213562373095 1.9999999999999998
      vertex 1.9999999999999998 6 1.9999999999999998
      vertex 1.9999999999999998 5.414213562373095 0.5857864376269049
    endloop
  endfacet
  facet normal -0.8628562094610169 0.35740674433659325 0.35740674433659325
    outer loop
      vertex 0 4 4
      vertex 0.5857864376269049 4 5.414213562373095
      vertex 0.5857864376269049 5.414213562373095 4
    endloop
  endfacet
  facet normal -0.5773502691896257 0.5773502691896257 0.5773502691896257
    outer loop
      vertex 0.5857864376269049 4 5.414213562373095
      vertex 1.9999999999999998 5.414213562373095 5.414213562373095
      vertex 0.5857864376269049 5.414213562373095 4
    endloop
  endfacet
  facet normal -0.35740674433659336 0.8628562094610168 0.35740674433659336
    outer loop
      vertex 0.5857864376269049 5.414213562373095 4
      vertex 1.9999999999999998 5.414213562373095 5.414213562373095
      vertex 1.9999999999999998 6 4
    endloop
  endfacet
  facet normal -0.35740674433659336 0.35740674433659336 0.8628562094610168
    outer loop
      vertex 0.5857864376269049 4 5.414213562373095
      vertex 1.9999999999999998 4 6
      vertex 1.9999999999999998 5.414213562373095 5.414213562373095
    endloop
  endfacet
  facet normal 0.35740674433659325 -0.8628562094610169 -0.35740674433659325
    outer loop
      vertex 4 0 1.9999999999999998
      vertex 4 0.5857864376269049 0.5857864376269049
      vertex 5.414213562373095 0.5857864376269049 1.9999999999999998
    endloop
  endfacet
  facet normal 0.5773502691896257 -0.5773502691896257 -0.5773502691896257
    outer loop
      vertex 4 0.5857864376269049 0.5857864376269049
      vertex 5.414213562373095 1.9999999999999998 0.5857864376269049
      vertex 5.414213562373095 0.5857864376269049 1.9999999999999998
    endloop
  endfacet
  facet normal 0.8628562094610168 -0.35740674433659336 -0.35740674433659336
    outer loop
      vertex 5.414213562373095 0.5857864376269049 1.9999999999999998
      vertex 5.414213562373095 1.9999999999999998 0.5857864376269049
      vertex 6 1.9999999999999998 1.9999999999999998
    endloop
  endfacet
  facet normal 0.3574067443365932 -0.3574067443365932 -0.8628562094610168
    outer loop
      vertex 4 0.5857864376269049 0.5857864376269049
      vertex 4 1.9999999999999998 0
      vertex 5.414213562373095 1.9999999999999998 0.5857864376269049
    endloop
  endfacet
  facet normal 0.35740674433659325 -0.8628562094610169 0.35740674433659325
    outer loop
      vertex 4 0 4
      vertex 5.414213562373095 0.5857864376269049 4
      vertex 4 0.5857864376269049 5.414213562373095
    endloop
  endfacet
  facet normal 0.5773502691896257 -0.5773502691896257 0.5773502691896257
    outer loop
      vertex 4 0.5857864376269049 5.414213562373095
      vertex 5.414213562373095 0.5857864376269049 4
      vertex 5.414213562373095 1.9999999999999998 5.414213562373095
    endloop
  endfacet
  facet normal 0.8628562094610168 -0.35740674433659336 0.35740674433659336
    outer loop
      vertex 5.414213562373095 0.5857864376269049 4
      vertex 6 1.9999999999999998 4
      vertex 5.414213562373095 1.9999999999999998 5.414213562373095
    endloop
  endfacet
  facet normal 0.35740674433659336 -0.35740674433659336 0.8628562094610168
    outer loop
      vertex 4 0.5857864376269049 5.414213562373095
      vertex 5.414213562373095 1.9999999999999998 5.414213562373095
      vertex 4 1.9999999999999998 6
    endloop
  endfacet
  facet normal 0.3574067443365932 0.3574067443365932 -0.8628562094610168
    outer loop
      vertex 4 4 0
      vertex 4 5.414213562373095 0.5857864376269049
      vertex 5.414213562373095 4 0.5857864376269049
    endloop
  endfacet
  facet normal 0.5773502691896257 0.5773502691896257 -0.5773502691896257
    outer loop
      vertex 4 5.414213562373095 0.5857864376269049
      vertex 5.414213562373095 5.414213562373095 1.9999999999999998
      vertex 5.414213562373095 4 0.5857864376269049
    endloop
  endfacet
  facet normal 0.8628562094610168 0.35740674433659336 -0.35740674433659336
    outer loop
      vertex 5.414213562373095 4 0.5857864376269049
      vertex 5.414213562373095 5.414213562373095 1.9999999999999998
      vertex 6 4 1.9999999999999998
    endloop
  endfacet
  facet normal 0.35740674433659336 0.8628562094610168 -0.35740674433659336
    outer loop
      vertex 4 5.414213562373095 0.5857864376269049
      vertex 4 6 1.9999999999999998
      vertex 5.414213562373095 5.414213562373095 1.9999999999999998
    endloop
  endfacet
  facet normal 0.35740674433659336 0.35740674433659336 0.8628562094610168
    outer loop
      vertex 4 4 6
      vertex 5.414213562373095 4 5.414213562373095
      vertex 4 5.414213562373095 5.414213562373095
    endloop
  endfacet
  facet normal 0.5773502691896257 0.5773502691896257 0.5773502691896257
    outer loop
      vertex 5.414213562373095 4 5.414213562373095
      vertex 5.414213562373095 5.414213562373095 4
      vertex 4 5.414213562373095 5.414213562373095
    endloop
  endfacet
  facet normal 0.35740674433659336 0.8628562094610168 0.35740674433659336
    outer loop
      vertex 4 5.414213562373095 5.414213562373095
      vertex 5.414213562373095 5.414213562373095 4
      vertex 4 6 4
    endloop
  endfacet
  facet normal 0.8628562094610168 0.35740674433659336 0.35740674433659336
    outer loop
      vertex 5.414213562373095 4 5.414213562373095
      vertex 6 4 4
      vertex 5.414213562373095 5.414213562373095 4
    endloop
  endfacet
endsolid OpenSCAD_Model
