solid OpenSCAD_Model
  facet normal -1 0 0
    outer loop
      vertex 0 2.0000000000000004 3.9999999999999996
      vertex 0 3.9999999999999996 3.9999999999999996
      vertex 0 3.9999999999999996 2.0000000000000004
    endloop
  endfacet
  facet normal -1 0 0
    outer loop
      vertex 0 3.9999999999999996 2.0000000000000004
      vertex 0 2.0000000000000004 2.0000000000000004
      vertex 0 2.0000000000000004 3.9999999999999996
    endloop
  endfacet
  facet normal 0 -1 0
    outer loop
      vertex 3.9999999999999996 0 2.0000000000000004
      vertex 3.9999999999999996 0 3.9999999999999996
      vertex 2.0000000000000004 0 3.9999999999999996
    endloop
  endfacet
  facet normal 0 -1 0
    outer loop
      vertex 2.0000000000000004 0 3.9999999999999996
      vertex 2.0000000000000004 0 2.0000000000000004
      vertex 3.9999999999999996 0 2.0000000000000004
    endloop
  endfacet
  facet normal 0 0 1
    outer loop
      vertex 3.9999999999999996 2.0000000000000004 6
      vertex 3.9999999999999996 3.9999999999999996 6
      vertex 2.0000000000000004 3.9999999999999996 6
    endloop
  endfacet
  facet normal 0 0 1
    outer loop
      vertex 2.0000000000000004 3.9999999999999996 6
      vertex 2.0000000000000004 2.0000000000000004 6
      vertex 3.9999999999999996 2.0000000000000004 6
    endloop
  endfacet
  facet normal 0 0 -1
    outer loop
      vertex 2.0000000000000004 3.9999999999999996 0
      vertex 3.9999999999999996 3.9999999999999996 0
      vertex 3.9999999999999996 2.0000000000000004 0
    endloop
  endfacet
  facet normal 0 0 -1
    outer loop
      vertex 3.9999999999999996 2.0000000000000004 0
      vertex 2.0000000000000004 2.0000000000000004 0
      vertex 2.0000000000000004 3.9999999999999996 0
    endloop
  endfacet
  facet normal 0 1 0
    outer loop
      vertex 2.0000000000000004 6 3.9999999999999996
      vertex 3.9999999999999996 6 3.9999999999999996
      vertex 3.9999999999999996 6 2.0000000000000004
    endloop
  endfacet
  facet normal 0 1 0
    outer loop
      vertex 3.9999999999999996 6 2.0000000000000004
      vertex 2.0000000000000004 6 2.0000000000000004
      vertex 2.0000000000000004 6 3.9999999999999996
    endloop
  endfacet
  facet normal 1 0 0
    outer loop
      vertex 6 3.9999999999999996 2.0000000000000004
      vertex 6 3.9999999999999996 3.9999999999999996
      vertex 6 2.0000000000000004 3.9999999999999996
    endloop
  endfacet
  facet normal 1 0 0
    outer loop
      vertex 6 2.0000000000000004 3.9999999999999996
      vertex 6 2.0000000000000004 2.0000000000000004
      vertex 6 3.9999999999999996 2.0000000000000004
    endloop
  endfacet
  facet normal 0.9807852804032304 0.19509032201612833 0
    outer loop
      vertex 0 3.9999999999999996 3.9999999999999996
      vertex 0.30448186995485305 2.4692662705396407 2.0000000000000004
      vertex 0 3.9999999999999996 2.0000000000000004
    endloop
  endfacet
  facet normal 0.9807852804032304 0.19509032201612833 -3.189688906890171e-19
    outer loop
      vertex 0 3.9999999999999996 3.9999999999999996
      vertex 0.30448186995485305 2.4692662705396407 3.9999999999999996
      vertex 0.30448186995485305 2.4692662705396407 2.0000000000000004
    endloop
  endfacet
  facet normal 0.8314696123025453 0.5555702330196022 0
    outer loop
      vertex 0.30448186995485305 2.4692662705396407 3.9999999999999996
      vertex 1.1715728752538097 1.1715728752538097 2.0000000000000004
      vertex 0.30448186995485305 2.4692662705396407 2.0000000000000004
    endloop
  endfacet
  facet normal 0.8314696123025453 0.5555702330196022 -1.4329460976077592e-17
    outer loop
      vertex 0.30448186995485305 2.4692662705396407 3.9999999999999996
      vertex 1.1715728752538097 1.1715728752538097 3.9999999999999996
      vertex 1.1715728752538097 1.1715728752538097 2.0000000000000004
    endloop
  endfacet
  facet normal 0.555570233019602 0.8314696123025455 0
    outer loop
      vertex 1.1715728752538097 1.1715728752538097 3.9999999999999996
      vertex 2.4692662705396407 0.3044818699548535 2.0000000000000004
      vertex 1.1715728752538097 1.1715728752538097 2.0000000000000004
    endloop
  endfacet
  facet normal 0.555570233019602 0.8314696123025455 2.8023493582304426e-17
    outer loop
      vertex 1.1715728752538097 1.1715728752538097 3.9999999999999996
      vertex 2.4692662705396407 0.3044818699548535 3.9999999999999996
      vertex 2.4692662705396407 0.3044818699548535 2.0000000000000004
    endloop
  endfacet
  facet normal 0.19509032201612864 0.9807852804032304 0
    outer loop
      vertex 2.4692662705396407 0.3044818699548535 3.9999999999999996
      vertex 3.9999999999999996 0 2.0000000000000004
      vertex 2.4692662705396407 0.3044818699548535 2.0000000000000004
    endloop
  endfacet
  facet normal 0.19509032201612864 0.9807852804032304 -4.691468475351926e-18
    outer loop
      vertex 2.4692662705396407 0.3044818699548535 3.9999999999999996
      vertex 3.9999999999999996 0 3.9999999999999996
      vertex 3.9999999999999996 0 2.0000000000000004
    endloop
  endfacet
  facet normal 0.9807852804032304 0 0.19509032201612833
    outer loop
      vertex 0 3.9999999999999996 3.9999999999999996
      vertex 0 2.0000000000000004 3.9999999999999996
      vertex 0.30448186995485305 2.0000000000000004 2.4692662705396407
    endloop
  endfacet
  facet normal 0.9807852804032304 -3.189688906890171e-19 0.19509032201612833
    outer loop
      vertex 0 3.9999999999999996 3.9999999999999996
      vertex 0.30448186995485305 2.0000000000000004 2.4692662705396407
      vertex 0.30448186995485305 3.9999999999999996 2.4692662705396407
    endloop
  endfacet
  facet normal 0.8314696123025453 0 0.5555702330196022
    outer loop
      vertex 0.30448186995485305 3.9999999999999996 2.4692662705396407
      vertex 0.30448186995485305 2.0000000000000004 2.4692662705396407
      vertex 1.1715728752538097 2.0000000000000004 1.1715728752538097
    endloop
  endfacet
  facet normal 0.8314696123025453 -1.4329460976077592e-17 0.5555702330196022
    outer loop
      vertex 0.30448186995485305 3.9999999999999996 2.4692662705396407
      vertex 1.1715728752538097 2.0000000000000004 1.1715728752538097
      vertex 1.1715728752538097 3.9999999999999996 1.1715728752538097
    endloop
  endfacet
  facet normal 0.555570233019602 0 0.8314696123025455
    outer loop
      vertex 1.1715728752538097 3.9999999999999996 1.1715728752538097
      vertex 1.1715728752538097 2.0000000000000004 1.1715728752538097
      vertex 2.4692662705396407 2.0000000000000004 0.3044818699548535
    endloop
  endfacet
  facet normal 0.555570233019602 2.8023493582304426e-17 0.8314696123025455
    outer loop
      vertex 1.1715728752538097 3.9999999999999996 1.1715728752538097
      vertex 2.4692662705396407 2.0000000000000004 0.3044818699548535
      vertex 2.4692662705396407 3.9999999999999996 0.3044818699548535
    endloop
  endfacet
  facet normal 0.19509032201612864 0 0.9807852804032304
    outer loop
      vertex 2.4692662705396407 3.9999999999999996 0.3044818699548535
      vertex 2.4692662705396407 2.0000000000000004 0.3044818699548535
      vertex 3.9999999999999996 2.0000000000000004 0
    endloop
  endfacet
  facet normal 0.19509032201612864 -4.691468475351926e-18 0.9807852804032304
    outer loop
      vertex 2.4692662705396407 3.9999999999999996 0.3044818699548535
      vertex 3.9999999999999996 2.0000000000000004 0
      vertex 3.9999999999999996 3.9999999999999996 0
    endloop
  endfacet
  facet normal 0 0.9807852804032304 0.19509032201612833
    outer loop
      vertex 3.9999999999999996 0 3.9999999999999996
      vertex 2.0000000000000004 0.30448186995485305 2.4692662705396407
      vertex 2.0000000000000004 0 3.9999999999999996
    endloop
  endfacet
  facet normal -3.189688906890171e-19 0.9807852804032304 0.19509032201612833
    outer loop
      vertex 3.9999999999999996 0 3.9999999999999996
      vertex 3.9999999999999996 0.30448186995485305 2.4692662705396407
      vertex 2.0000000000000004 0.30448186995485305 2.4692662705396407
    endloop
  endfacet
  facet normal 0 0.8314696123025453 0.5555702330196022
    outer loop
      vertex 3.9999999999999996 0.30448186995485305 2.4692662705396407
      vertex 2.0000000000000004 1.1715728752538097 1.1715728752538097
      vertex 2.0000000000000004 0.30448186995485305 2.4692662705396407
    endloop
  endfacet
  facet normal -1.4329460976077592e-17 0.8314696123025453 0.5555702330196022
    outer loop
      vertex 3.9999999999999996 0.30448186995485305 2.4692662705396407
      vertex 3.9999999999999996 1.1715728752538097 1.1715728752538097
      vertex 2.0000000000000004 1.1715728752538097 1.1715728752538097
    endloop
  endfacet
  facet normal 0 0.555570233019602 0.8314696123025455
    outer loop
      vertex 3.9999999999999996 1.1715728752538097 1.1715728752538097
      vertex 2.0000000000000004 2.4692662705396407 0.3044818699548535
      vertex 2.0000000000000004 1.1715728752538097 1.1715728752538097
    endloop
  endfacet
  facet normal 2.8023493582304426e-17 0.555570233019602 0.8314696123025455
    outer loop
      vertex 3.9999999999999996 1.1715728752538097 1.1715728752538097
      vertex 3.9999999999999996 2.4692662705396407 0.3044818699548535
      vertex 2.0000000000000004 2.4692662705396407 0.3044818699548535
    endloop
  endfacet
  facet normal 0 0.19509032201612864 0.9807852804032304
    outer loop
      vertex 3.9999999999999996 2.4692662705396407 0.3044818699548535
      vertex 2.0000000000000004 3.9999999999999996 0
      vertex 2.0000000000000004 2.4692662705396407 0.3044818699548535
    endloop
  endfacet
  facet normal -4.691468475351926e-18 0.19509032201612864 0.9807852804032304
    outer loop
      vertex 3.9999999999999996 2.4692662705396407 0.3044818699548535
      vertex 3.9999999999999996 3.9999999999999996 0
      vertex 2.0000000000000004 3.9999999999999996 0
    endloop
  endfacet
  facet normal 0.9807852804032304 0 -0.19509032201612833
    outer loop
      vertex 0 3.9999999999999996 2.0000000000000004
      vertex 0.30448186995485305 2.0000000000000004 3.5307337294603593
      vertex 0 2.0000000000000004 2.0000000000000004
    endloop
  endfacet
  facet normal 0.9807852804032304 3.189688906890171e-19 -0.19509032201612833
    outer loop
      vertex 0 3.9999999999999996 2.0000000000000004
      vertex 0.30448186995485305 3.9999999999999996 3.5307337294603593
      vertex 0.30448186995485305 2.0000000000000004 3.5307337294603593
    endloop
  endfacet
  facet normal 0.8314696123025451 0 -0.5555702330196023
    outer loop
      vertex 0.30448186995485305 3.9999999999999996 3.5307337294603593
      vertex 1.1715728752538097 2.0000000000000004 4.82842712474619
      vertex 0.30448186995485305 2.0000000000000004 3.5307337294603593
    endloop
  endfacet
  facet normal 0.8314696123025451 3.32384750896381e-17 -0.5555702330196023
    outer loop
      vertex 0.30448186995485305 3.9999999999999996 3.5307337294603593
      vertex 1.1715728752538097 3.9999999999999996 4.82842712474619
      vertex 1.1715728752538097 2.0000000000000004 4.82842712474619
    endloop
  endfacet
  facet normal 0.555570233019602 0 -0.8314696123025455
    outer loop
      vertex 1.1715728752538097 3.9999999999999996 4.82842712474619
      vertex 2.4692662705396407 2.0000000000000004 5.695518130045146
      vertex 1.1715728752538097 2.0000000000000004 4.82842712474619
    endloop
  endfacet
  facet normal 0.555570233019602 -2.8023493582304426e-17 -0.8314696123025455
    outer loop
      vertex 1.1715728752538097 3.9999999999999996 4.82842712474619
      vertex 2.4692662705396407 3.9999999999999996 5.695518130045146
      vertex 2.4692662705396407 2.0000000000000004 5.695518130045146
    endloop
  endfacet
  facet normal 0.1950903220161289 0 -0.9807852804032303
    outer loop
      vertex 2.4692662705396407 3.9999999999999996 5.695518130045146
      vertex 3.9999999999999996 2.0000000000000004 6
      vertex 2.4692662705396407 2.0000000000000004 5.695518130045146
    endloop
  endfacet
  facet normal 0.1950903220161289 -8.719830316548375e-18 -0.9807852804032303
    outer loop
      vertex 2.4692662705396407 3.9999999999999996 5.695518130045146
      vertex 3.9999999999999996 3.9999999999999996 6
      vertex 3.9999999999999996 2.0000000000000004 6
    endloop
  endfacet
  facet normal 0 0.9807852804032304 -0.19509032201612833
    outer loop
      vertex 3.9999999999999996 0 2.0000000000000004
      vertex 2.0000000000000004 0 2.0000000000000004
      vertex 2.0000000000000004 0.30448186995485305 3.5307337294603593
    endloop
  endfacet
  facet normal 3.189688906890171e-19 0.9807852804032304 -0.19509032201612833
    outer loop
      vertex 3.9999999999999996 0 2.0000000000000004
      vertex 2.0000000000000004 0.30448186995485305 3.5307337294603593
      vertex 3.9999999999999996 0.30448186995485305 3.5307337294603593
    endloop
  endfacet
  facet normal 0 0.8314696123025451 -0.5555702330196023
    outer loop
      vertex 3.9999999999999996 0.30448186995485305 3.5307337294603593
      vertex 2.0000000000000004 0.30448186995485305 3.5307337294603593
      vertex 2.0000000000000004 1.1715728752538097 4.82842712474619
    endloop
  endfacet
  facet normal 3.32384750896381e-17 0.8314696123025451 -0.5555702330196023
    outer loop
      vertex 3.9999999999999996 0.30448186995485305 3.5307337294603593
      vertex 2.0000000000000004 1.1715728752538097 4.82842712474619
      vertex 3.9999999999999996 1.1715728752538097 4.82842712474619
    endloop
  endfacet
  facet normal 0 0.555570233019602 -0.8314696123025455
    outer loop
      vertex 3.9999999999999996 1.1715728752538097 4.82842712474619
      vertex 2.0000000000000004 1.1715728752538097 4.82842712474619
      vertex 2.0000000000000004 2.4692662705396407 5.695518130045146
    endloop
  endfacet
  facet normal -2.8023493582304426e-17 0.555570233019602 -0.8314696123025455
    outer loop
      vertex 3.9999999999999996 1.1715728752538097 4.82842712474619
      vertex 2.0000000000000004 2.4692662705396407 5.695518130045146
      vertex 3.9999999999999996 2.4692662705396407 5.695518130045146
    endloop
  endfacet
  facet normal 0 0.1950903220161289 -0.9807852804032303
    outer loop
      vertex 3.9999999999999996 2.4692662705396407 5.695518130045146
      vertex 2.0000000000000004 2.4692662705396407 5.695518130045146
      vertex 2.0000000000000004 3.9999999999999996 6
    endloop
  endfacet
  facet normal -8.719830316548375e-18 0.1950903220161289 -0.9807852804032303
    outer loop
      vertex 3.9999999999999996 2.4692662705396407 5.695518130045146
      vertex 2.0000000000000004 3.9999999999999996 6
      vertex 3.9999999999999996 3.9999999999999996 6
    endloop
  endfacet
  facet normal 0.9807852804032304 -0.19509032201612833 0
    outer loop
      vertex 0 2.0000000000000004 3.9999999999999996
      vertex 0 2.0000000000000004 2.0000000000000004
      vertex 0.30448186995485305 3.5307337294603593 2.0000000000000004
    endloop
  endfacet
  facet normal 0.9807852804032304 -0.19509032201612833 3.189688906890171e-19
    outer loop
      vertex 0 2.0000000000000004 3.9999999999999996
      vertex 0.30448186995485305 3.5307337294603593 2.0000000000000004
      vertex 0.30448186995485305 3.5307337294603593 3.9999999999999996
    endloop
  endfacet
  facet normal 0.8314696123025451 -0.5555702330196023 0
    outer loop
      vertex 0.30448186995485305 3.5307337294603593 3.9999999999999996
      vertex 0.30448186995485305 3.5307337294603593 2.0000000000000004
      vertex 1.1715728752538097 4.82842712474619 2.0000000000000004
    endloop
  endfacet
  facet normal 0.8314696123025451 -0.5555702330196023 3.32384750896381e-17
    outer loop
      vertex 0.30448186995485305 3.5307337294603593 3.9999999999999996
      vertex 1.1715728752538097 4.82842712474619 2.0000000000000004
      vertex 1.1715728752538097 4.82842712474619 3.9999999999999996
    endloop
  endfacet
  facet normal 0.555570233019602 -0.8314696123025455 0
    outer loop
      vertex 1.1715728752538097 4.82842712474619 3.9999999999999996
      vertex 1.1715728752538097 4.82842712474619 2.0000000000000004
      vertex 2.4692662705396407 5.695518130045146 2.0000000000000004
    endloop
  endfacet
  facet normal 0.555570233019602 -0.8314696123025455 -2.8023493582304426e-17
    outer loop
      vertex 1.1715728752538097 4.82842712474619 3.9999999999999996
      vertex 2.4692662705396407 5.695518130045146 2.0000000000000004
      vertex 2.4692662705396407 5.695518130045146 3.9999999999999996
    endloop
  endfacet
  facet normal 0.1950903220161289 -0.9807852804032303 0
    outer loop
      vertex 2.4692662705396407 5.695518130045146 3.9999999999999996
      vertex 2.4692662705396407 5.695518130045146 2.0000000000000004
      vertex 3.9999999999999996 6 2.0000000000000004
    endloop
  endfacet
  facet normal 0.1950903220161289 -0.9807852804032303 -8.719830316548375e-18
    outer loop
      vertex 2.4692662705396407 5.695518130045146 3.9999999999999996
      vertex 3.9999999999999996 6 2.0000000000000004
      vertex 3.9999999999999996 6 3.9999999999999996
    endloop
  endfacet
  facet normal 0 -0.19509032201612833 0.9807852804032304
    outer loop
      vertex 3.9999999999999996 2.0000000000000004 0
      vertex 2.0000000000000004 3.5307337294603593 0.30448186995485305
      vertex 2.0000000000000004 2.0000000000000004 0
    endloop
  endfacet
  facet normal 3.189688906890171e-19 -0.19509032201612833 0.9807852804032304
    outer loop
      vertex 3.9999999999999996 2.0000000000000004 0
      vertex 3.9999999999999996 3.5307337294603593 0.30448186995485305
      vertex 2.0000000000000004 3.5307337294603593 0.30448186995485305
    endloop
  endfacet
  facet normal 0 -0.5555702330196023 0.8314696123025451
    outer loop
      vertex 3.9999999999999996 3.5307337294603593 0.30448186995485305
      vertex 2.0000000000000004 4.82842712474619 1.1715728752538097
      vertex 2.0000000000000004 3.5307337294603593 0.30448186995485305
    endloop
  endfacet
  facet normal 3.32384750896381e-17 -0.5555702330196023 0.8314696123025451
    outer loop
      vertex 3.9999999999999996 3.5307337294603593 0.30448186995485305
      vertex 3.9999999999999996 4.82842712474619 1.1715728752538097
      vertex 2.0000000000000004 4.82842712474619 1.1715728752538097
    endloop
  endfacet
  facet normal 0 -0.8314696123025455 0.555570233019602
    outer loop
      vertex 3.9999999999999996 4.82842712474619 1.1715728752538097
      vertex 2.0000000000000004 5.695518130045146 2.4692662705396407
      vertex 2.0000000000000004 4.82842712474619 1.1715728752538097
    endloop
  endfacet
  facet normal -2.8023493582304426e-17 -0.8314696123025455 0.555570233019602
    outer loop
      vertex 3.9999999999999996 4.82842712474619 1.1715728752538097
      vertex 3.9999999999999996 5.695518130045146 2.4692662705396407
      vertex 2.0000000000000004 5.695518130045146 2.4692662705396407
    endloop
  endfacet
  facet normal 0 -0.9807852804032303 0.1950903220161289
    outer loop
      vertex 3.9999999999999996 5.695518130045146 2.4692662705396407
      vertex 2.0000000000000004 6 3.9999999999999996
      vertex 2.0000000000000004 5.695518130045146 2.4692662705396407
    endloop
  endfacet
  facet normal -8.719830316548375e-18 -0.9807852804032303 0.1950903220161289
    outer loop
      vertex 3.9999999999999996 5.695518130045146 2.4692662705396407
      vertex 3.9999999999999996 6 3.9999999999999996
      vertex 2.0000000000000004 6 3.9999999999999996
    endloop
  endfacet
  facet normal 0 -0.19509032201612833 -0.9807852804032304
    outer loop
      vertex 3.9999999999999996 2.0000000000000004 6
      vertex 2.0000000000000004 2.0000000000000004 6
      vertex 2.0000000000000004 3.5307337294603593 5.695518130045147
    endloop
  endfacet
  facet normal -3.189688906890171e-19 -0.19509032201612833 -0.9807852804032304
    outer loop
      vertex 3.9999999999999996 2.0000000000000004 6
      vertex 2.0000000000000004 3.5307337294603593 5.695518130045147
      vertex 3.9999999999999996 3.5307337294603593 5.695518130045147
    endloop
  endfacet
  facet normal 0 -0.5555702330196025 -0.831469612302545
    outer loop
      vertex 3.9999999999999996 3.5307337294603593 5.695518130045147
      vertex 2.0000000000000004 3.5307337294603593 5.695518130045147
      vertex 2.0000000000000004 4.82842712474619 4.82842712474619
    endloop
  endfacet
  facet normal -4.45623614176719e-18 -0.5555702330196025 -0.831469612302545
    outer loop
      vertex 3.9999999999999996 3.5307337294603593 5.695518130045147
      vertex 2.0000000000000004 4.82842712474619 4.82842712474619
      vertex 3.9999999999999996 4.82842712474619 4.82842712474619
    endloop
  endfacet
  facet normal 0 -0.8314696123025452 -0.5555702330196021
    outer loop
      vertex 3.9999999999999996 4.82842712474619 4.82842712474619
      vertex 2.0000000000000004 4.82842712474619 4.82842712474619
      vertex 2.0000000000000004 5.695518130045146 3.5307337294603593
    endloop
  endfacet
  facet normal 9.114479468743854e-18 -0.8314696123025452 -0.5555702330196021
    outer loop
      vertex 3.9999999999999996 4.82842712474619 4.82842712474619
      vertex 2.0000000000000004 5.695518130045146 3.5307337294603593
      vertex 3.9999999999999996 5.695518130045146 3.5307337294603593
    endloop
  endfacet
  facet normal 0 -0.9807852804032303 -0.1950903220161289
    outer loop
      vertex 3.9999999999999996 5.695518130045146 3.5307337294603593
      vertex 2.0000000000000004 5.695518130045146 3.5307337294603593
      vertex 2.0000000000000004 6 2.0000000000000004
    endloop
  endfacet
  facet normal 8.719830316548375e-18 -0.9807852804032303 -0.1950903220161289
    outer loop
      vertex 3.9999999999999996 5.695518130045146 3.5307337294603593
      vertex 2.0000000000000004 6 2.0000000000000004
      vertex 3.9999999999999996 6 2.0000000000000004
    endloop
  endfacet
  facet normal -0.19509032201612833 0.9807852804032304 0
    outer loop
      vertex 2.0000000000000004 0 3.9999999999999996
      vertex 3.5307337294603593 0.30448186995485305 2.0000000000000004
      vertex 2.0000000000000004 0 2.0000000000000004
    endloop
  endfacet
  facet normal -0.19509032201612833 0.9807852804032304 3.189688906890171e-19
    outer loop
      vertex 2.0000000000000004 0 3.9999999999999996
      vertex 3.5307337294603593 0.30448186995485305 3.9999999999999996
      vertex 3.5307337294603593 0.30448186995485305 2.0000000000000004
    endloop
  endfacet
  facet normal -0.5555702330196023 0.8314696123025451 0
    outer loop
      vertex 3.5307337294603593 0.30448186995485305 3.9999999999999996
      vertex 4.82842712474619 1.1715728752538097 2.0000000000000004
      vertex 3.5307337294603593 0.30448186995485305 2.0000000000000004
    endloop
  endfacet
  facet normal -0.5555702330196023 0.8314696123025451 3.32384750896381e-17
    outer loop
      vertex 3.5307337294603593 0.30448186995485305 3.9999999999999996
      vertex 4.82842712474619 1.1715728752538097 3.9999999999999996
      vertex 4.82842712474619 1.1715728752538097 2.0000000000000004
    endloop
  endfacet
  facet normal -0.8314696123025455 0.555570233019602 0
    outer loop
      vertex 4.82842712474619 1.1715728752538097 3.9999999999999996
      vertex 5.695518130045146 2.4692662705396407 2.0000000000000004
      vertex 4.82842712474619 1.1715728752538097 2.0000000000000004
    endloop
  endfacet
  facet normal -0.8314696123025455 0.555570233019602 -2.8023493582304426e-17
    outer loop
      vertex 4.82842712474619 1.1715728752538097 3.9999999999999996
      vertex 5.695518130045146 2.4692662705396407 3.9999999999999996
      vertex 5.695518130045146 2.4692662705396407 2.0000000000000004
    endloop
  endfacet
  facet normal -0.9807852804032303 0.1950903220161289 0
    outer loop
      vertex 5.695518130045146 2.4692662705396407 3.9999999999999996
      vertex 6 3.9999999999999996 2.0000000000000004
      vertex 5.695518130045146 2.4692662705396407 2.0000000000000004
    endloop
  endfacet
  facet normal -0.9807852804032303 0.1950903220161289 -8.719830316548375e-18
    outer loop
      vertex 5.695518130045146 2.4692662705396407 3.9999999999999996
      vertex 6 3.9999999999999996 3.9999999999999996
      vertex 6 3.9999999999999996 2.0000000000000004
    endloop
  endfacet
  facet normal -0.19509032201612833 0 0.9807852804032304
    outer loop
      vertex 2.0000000000000004 3.9999999999999996 0
      vertex 2.0000000000000004 2.0000000000000004 0
      vertex 3.5307337294603593 2.0000000000000004 0.30448186995485305
    endloop
  endfacet
  facet normal -0.19509032201612833 3.189688906890171e-19 0.9807852804032304
    outer loop
      vertex 2.0000000000000004 3.9999999999999996 0
      vertex 3.5307337294603593 2.0000000000000004 0.30448186995485305
      vertex 3.5307337294603593 3.9999999999999996 0.30448186995485305
    endloop
  endfacet
  facet normal -0.5555702330196023 0 0.8314696123025451
    outer loop
      vertex 3.5307337294603593 3.9999999999999996 0.30448186995485305
      vertex 3.5307337294603593 2.0000000000000004 0.30448186995485305
      vertex 4.82842712474619 2.0000000000000004 1.1715728752538097
    endloop
  endfacet
  facet normal -0.5555702330196023 3.32384750896381e-17 0.8314696123025451
    outer loop
      vertex 3.5307337294603593 3.9999999999999996 0.30448186995485305
      vertex 4.82842712474619 2.0000000000000004 1.1715728752538097
      vertex 4.82842712474619 3.9999999999999996 1.1715728752538097
    endloop
  endfacet
  facet normal -0.8314696123025455 0 0.555570233019602
    outer loop
      vertex 4.82842712474619 3.9999999999999996 1.1715728752538097
      vertex 4.82842712474619 2.0000000000000004 1.1715728752538097
      vertex 5.695518130045146 2.0000000000000004 2.4692662705396407
    endloop
  endfacet
  facet normal -0.8314696123025455 -2.8023493582304426e-17 0.555570233019602
    outer loop
      vertex 4.82842712474619 3.9999999999999996 1.1715728752538097
      vertex 5.695518130045146 2.0000000000000004 2.4692662705396407
      vertex 5.695518130045146 3.9999999999999996 2.4692662705396407
    endloop
  endfacet
  facet normal -0.9807852804032303 0 0.1950903220161289
    outer loop
      vertex 5.695518130045146 3.9999999999999996 2.4692662705396407
      vertex 5.695518130045146 2.0000000000000004 2.4692662705396407
      vertex 6 2.0000000000000004 3.9999999999999996
    endloop
  endfacet
  facet normal -0.9807852804032303 -8.719830316548375e-18 0.1950903220161289
    outer loop
      vertex 5.695518130045146 3.9999999999999996 2.4692662705396407
      vertex 6 2.0000000000000004 3.9999999999999996
      vertex 6 3.9999999999999996 3.9999999999999996
    endloop
  endfacet
  facet normal -0.19509032201612833 0 -0.9807852804032304
    outer loop
      vertex 2.0000000000000004 3.9999999999999996 6
      vertex 3.5307337294603593 2.0000000000000004 5.695518130045147
      vertex 2.0000000000000004 2.0000000000000004 6
    endloop
  endfacet
  facet normal -0.19509032201612833 -3.189688906890171e-19 -0.9807852804032304
    outer loop
      vertex 2.0000000000000004 3.9999999999999996 6
      vertex 3.5307337294603593 3.9999999999999996 5.695518130045147
      vertex 3.5307337294603593 2.0000000000000004 5.695518130045147
    endloop
  endfacet
  facet normal -0.5555702330196025 0 -0.831469612302545
    outer loop
      vertex 3.5307337294603593 3.9999999999999996 5.695518130045147
      vertex 4.82842712474619 2.0000000000000004 4.82842712474619
      vertex 3.5307337294603593 2.0000000000000004 5.695518130045147
    endloop
  endfacet
  facet normal -0.5555702330196025 -4.45623614176719e-18 -0.831469612302545
    outer loop
      vertex 3.5307337294603593 3.9999999999999996 5.695518130045147
      vertex 4.82842712474619 3.9999999999999996 4.82842712474619
      vertex 4.82842712474619 2.0000000000000004 4.82842712474619
    endloop
  endfacet
  facet normal -0.8314696123025452 0 -0.5555702330196021
    outer loop
      vertex 4.82842712474619 3.9999999999999996 4.82842712474619
      vertex 5.695518130045146 2.0000000000000004 3.5307337294603593
      vertex 4.82842712474619 2.0000000000000004 4.82842712474619
    endloop
  endfacet
  facet normal -0.8314696123025452 9.114479468743854e-18 -0.5555702330196021
    outer loop
      vertex 4.82842712474619 3.9999999999999996 4.82842712474619
      vertex 5.695518130045146 3.9999999999999996 3.5307337294603593
      vertex 5.695518130045146 2.0000000000000004 3.5307337294603593
    endloop
  endfacet
  facet normal -0.9807852804032303 0 -0.1950903220161289
    outer loop
      vertex 5.695518130045146 3.9999999999999996 3.5307337294603593
      vertex 6 2.0000000000000004 2.0000000000000004
      vertex 5.695518130045146 2.0000000000000004 3.5307337294603593
    endloop
  endfacet
  facet normal -0.9807852804032303 8.719830316548375e-18 -0.1950903220161289
    outer loop
      vertex 5.695518130045146 3.9999999999999996 3.5307337294603593
      vertex 6 3.9999999999999996 2.0000000000000004
      vertex 6 2.0000000000000004 2.0000000000000004
    endloop
  endfacet
  facet normal -0.19509032201612833 -0.9807852804032304 0
    outer loop
      vertex 2.0000000000000004 6 3.9999999999999996
      vertex 2.0000000000000004 6 2.0000000000000004
      vertex 3.5307337294603593 5.695518130045147 2.0000000000000004
    endloop
  endfacet
  facet normal -0.19509032201612833 -0.9807852804032304 -3.189688906890171e-19
    outer loop
      vertex 2.0000000000000004 6 3.9999999999999996
      vertex 3.5307337294603593 5.695518130045147 2.0000000000000004
      vertex 3.5307337294603593 5.695518130045147 3.9999999999999996
    endloop
  endfacet
  facet normal -0.5555702330196025 -0.831469612302545 0
    outer loop
      vertex 3.5307337294603593 5.695518130045147 3.9999999999999996
      vertex 3.5307337294603593 5.695518130045147 2.0000000000000004
      vertex 4.82842712474619 4.82842712474619 2.0000000000000004
    endloop
  endfacet
  facet normal -0.5555702330196025 -0.831469612302545 -4.45623614176719e-18
    outer loop
      vertex 3.5307337294603593 5.695518130045147 3.9999999999999996
      vertex 4.82842712474619 4.82842712474619 2.0000000000000004
      vertex 4.82842712474619 4.82842712474619 3.9999999999999996
    endloop
  endfacet
  facet normal -0.8314696123025452 -0.5555702330196021 0
    outer loop
      vertex 4.82842712474619 4.82842712474619 3.9999999999999996
      vertex 4.82842712474619 4.82842712474619 2.0000000000000004
      vertex 5.695518130045146 3.5307337294603593 2.0000000000000004
    endloop
  endfacet
  facet normal -0.8314696123025452 -0.5555702330196021 9.114479468743854e-18
    outer loop
      vertex 4.82842712474619 4.82842712474619 3.9999999999999996
      vertex 5.695518130045146 3.5307337294603593 2.0000000000000004
      vertex 5.695518130045146 3.5307337294603593 3.9999999999999996
    endloop
  endfacet
  facet normal -0.9807852804032303 -0.1950903220161289 0
    outer loop
      vertex 5.695518130045146 3.5307337294603593 3.9999999999999996
      vertex 5.695518130045146 3.5307337294603593 2.0000000000000004
      vertex 6 2.0000000000000004 2.0000000000000004
    endloop
  endfacet
  facet normal -0.9807852804032303 -0.1950903220161289 8.719830316548375e-18
    outer loop
      vertex 5.695518130045146 3.5307337294603593 3.9999999999999996
      vertex 6 2.0000000000000004 2.0000000000000004
      vertex 6 2.0000000000000004 3.9999999999999996
    endloop
  endfacet
  facet normal -0.9626372481397792 -0.19148045395532284 -0.19148045395532284
    outer loop
      vertex 0 3.9999999999999996 3.9999999999999996
      vertex 0.30448186995485305 3.9999999999999996 2.4692662705396407
      vertex 0.30448186995485305 2.4692662705396407 3.9999999999999996
    endloop
  endfacet
  facet normal -0.9438394790631647 -0.23363115990998895 -0.23363115990998895
    outer loop
      vertex 0.30448186995485305 2.4692662705396407 3.9999999999999996
      vertex 0.30448186995485305 3.9999999999999996 2.4692662705396407
      vertex 0.7340136762890963 2.3670068381445475 2.3670068381445475
    endloop
  endfacet
  facet normal -0.8177546063521859 -0.1808803835956945 -0.546406159024636
    outer loop
      vertex 0.30448186995485305 3.9999999999999996 2.4692662705396407
      vertex 1.1715728752538097 3.9999999999999996 1.1715728752538097
      vertex 0.7340136762890963 2.3670068381445475 2.3670068381445475
    endloop
  endfacet
  facet normal -0.6718539489884743 -0.31180850286222966 -0.6718539489884743
    outer loop
      vertex 0.7340136762890963 2.3670068381445475 2.3670068381445475
      vertex 1.1715728752538097 3.9999999999999996 1.1715728752538097
      vertex 2.3670068381445475 2.3670068381445475 0.7340136762890963
    endloop
  endfacet
  facet normal -0.5464061590246357 -0.1808803835956943 -0.8177546063521861
    outer loop
      vertex 1.1715728752538097 3.9999999999999996 1.1715728752538097
      vertex 2.4692662705396407 3.9999999999999996 0.3044818699548535
      vertex 2.3670068381445475 2.3670068381445475 0.7340136762890963
    endloop
  endfacet
  facet normal -0.23363115990998876 -0.23363115990998876 -0.9438394790631649
    outer loop
      vertex 2.3670068381445475 2.3670068381445475 0.7340136762890963
      vertex 2.4692662705396407 3.9999999999999996 0.3044818699548535
      vertex 3.9999999999999996 2.4692662705396407 0.3044818699548535
    endloop
  endfacet
  facet normal -0.19148045395532312 -0.19148045395532312 -0.9626372481397792
    outer loop
      vertex 2.4692662705396407 3.9999999999999996 0.3044818699548535
      vertex 3.9999999999999996 3.9999999999999996 0
      vertex 3.9999999999999996 2.4692662705396407 0.3044818699548535
    endloop
  endfacet
  facet normal -0.8177546063521859 -0.546406159024636 -0.1808803835956945
    outer loop
      vertex 0.30448186995485305 2.4692662705396407 3.9999999999999996
      vertex 0.7340136762890963 2.3670068381445475 2.3670068381445475
      vertex 1.1715728752538097 1.1715728752538097 3.9999999999999996
    endloop
  endfacet
  facet normal -0.6718539489884743 -0.6718539489884743 -0.3118085028622297
    outer loop
      vertex 1.1715728752538097 1.1715728752538097 3.9999999999999996
      vertex 0.7340136762890963 2.3670068381445475 2.3670068381445475
      vertex 2.3670068381445475 0.7340136762890963 2.3670068381445475
    endloop
  endfacet
  facet normal -0.5773502691896257 -0.5773502691896257 -0.5773502691896257
    outer loop
      vertex 0.7340136762890963 2.3670068381445475 2.3670068381445475
      vertex 2.3670068381445475 2.3670068381445475 0.7340136762890963
      vertex 2.3670068381445475 0.7340136762890963 2.3670068381445475
    endloop
  endfacet
  facet normal -0.31180850286222966 -0.6718539489884743 -0.6718539489884743
    outer loop
      vertex 2.3670068381445475 0.7340136762890963 2.3670068381445475
      vertex 2.3670068381445475 2.3670068381445475 0.7340136762890963
      vertex 3.9999999999999996 1.1715728752538097 1.1715728752538097
    endloop
  endfacet
  facet normal -0.1808803835956943 -0.5464061590246357 -0.8177546063521861
    outer loop
      vertex 2.3670068381445475 2.3670068381445475 0.7340136762890963
      vertex 3.9999999999999996 2.4692662705396407 0.3044818699548535
      vertex 3.9999999999999996 1.1715728752538097 1.1715728752538097
    endloop
  endfacet
  facet normal -0.5464061590246359 -0.8177546063521862 -0.18088038359569433
    outer loop
      vertex 1.1715728752538097 1.1715728752538097 3.9999999999999996
      vertex 2.3670068381445475 0.7340136762890963 2.3670068381445475
      vertex 2.4692662705396407 0.3044818699548535 3.9999999999999996
    endloop
  endfacet
  facet normal -0.23363115990998903 -0.9438394790631649 -0.23363115990998876
    outer loop
      vertex 2.4692662705396407 0.3044818699548535 3.9999999999999996
      vertex 2.3670068381445475 0.7340136762890963 2.3670068381445475
      vertex 3.9999999999999996 0.30448186995485305 2.4692662705396407
    endloop
  endfacet
  facet normal -0.1808803835956945 -0.8177546063521859 -0.546406159024636
    outer loop
      vertex 2.3670068381445475 0.7340136762890963 2.3670068381445475
      vertex 3.9999999999999996 1.1715728752538097 1.1715728752538097
      vertex 3.9999999999999996 0.30448186995485305 2.4692662705396407
    endloop
  endfacet
  facet normal -0.19148045395532312 -0.9626372481397792 -0.19148045395532284
    outer loop
      vertex 2.4692662705396407 0.3044818699548535 3.9999999999999996
      vertex 3.9999999999999996 0.30448186995485305 2.4692662705396407
      vertex 3.9999999999999996 0 3.9999999999999996
    endloop
  endfacet
  facet normal -0.9626372481397792 -0.19148045395532284 0.19148045395532284
    outer loop
      vertex 0 3.9999999999999996 2.0000000000000004
      vertex 0.30448186995485305 2.4692662705396407 2.0000000000000004
      vertex 0.30448186995485305 3.9999999999999996 3.5307337294603593
    endloop
  endfacet
  facet normal -0.9438394790631649 -0.23363115990998895 0.23363115990998895
    outer loop
      vertex 0.30448186995485305 2.4692662705396407 2.0000000000000004
      vertex 0.7340136762890963 2.3670068381445475 3.6329931618554525
      vertex 0.30448186995485305 3.9999999999999996 3.5307337294603593
    endloop
  endfacet
  facet normal -0.8177546063521859 -0.18088038359569444 0.5464061590246361
    outer loop
      vertex 0.30448186995485305 3.9999999999999996 3.5307337294603593
      vertex 0.7340136762890963 2.3670068381445475 3.6329931618554525
      vertex 1.1715728752538097 3.9999999999999996 4.82842712474619
    endloop
  endfacet
  facet normal -0.6718539489884743 -0.3118085028622296 0.6718539489884745
    outer loop
      vertex 0.7340136762890963 2.3670068381445475 3.6329931618554525
      vertex 2.3670068381445475 2.3670068381445475 5.265986323710903
      vertex 1.1715728752538097 3.9999999999999996 4.82842712474619
    endloop
  endfacet
  facet normal -0.5464061590246357 -0.18088038359569428 0.8177546063521861
    outer loop
      vertex 1.1715728752538097 3.9999999999999996 4.82842712474619
      vertex 2.3670068381445475 2.3670068381445475 5.265986323710903
      vertex 2.4692662705396407 3.9999999999999996 5.695518130045146
    endloop
  endfacet
  facet normal -0.23363115990998878 -0.23363115990998878 0.9438394790631649
    outer loop
      vertex 2.3670068381445475 2.3670068381445475 5.265986323710903
      vertex 3.9999999999999996 2.4692662705396407 5.695518130045146
      vertex 2.4692662705396407 3.9999999999999996 5.695518130045146
    endloop
  endfacet
  facet normal -0.19148045395532337 -0.19148045395532337 0.9626372481397791
    outer loop
      vertex 2.4692662705396407 3.9999999999999996 5.695518130045146
      vertex 3.9999999999999996 2.4692662705396407 5.695518130045146
      vertex 3.9999999999999996 3.9999999999999996 6
    endloop
  endfacet
  facet normal -0.8177546063521859 -0.546406159024636 0.1808803835956945
    outer loop
      vertex 0.30448186995485305 2.4692662705396407 2.0000000000000004
      vertex 1.1715728752538097 1.1715728752538097 2.0000000000000004
      vertex 0.7340136762890963 2.3670068381445475 3.6329931618554525
    endloop
  endfacet
  facet normal -0.6718539489884743 -0.6718539489884743 0.31180850286222966
    outer loop
      vertex 1.1715728752538097 1.1715728752538097 2.0000000000000004
      vertex 2.3670068381445475 0.7340136762890963 3.6329931618554525
      vertex 0.7340136762890963 2.3670068381445475 3.6329931618554525
    endloop
  endfacet
  facet normal -0.5773502691896256 -0.5773502691896256 0.5773502691896258
    outer loop
      vertex 0.7340136762890963 2.3670068381445475 3.6329931618554525
      vertex 2.3670068381445475 0.7340136762890963 3.6329931618554525
      vertex 2.3670068381445475 2.3670068381445475 5.265986323710903
    endloop
  endfacet
  facet normal -0.3118085028622296 -0.6718539489884743 0.6718539489884745
    outer loop
      vertex 2.3670068381445475 0.7340136762890963 3.6329931618554525
      vertex 3.9999999999999996 1.1715728752538097 4.82842712474619
      vertex 2.3670068381445475 2.3670068381445475 5.265986323710903
    endloop
  endfacet
  facet normal -0.1808803835956943 -0.5464061590246357 0.8177546063521861
    outer loop
      vertex 2.3670068381445475 2.3670068381445475 5.265986323710903
      vertex 3.9999999999999996 1.1715728752538097 4.82842712474619
      vertex 3.9999999999999996 2.4692662705396407 5.695518130045146
    endloop
  endfacet
  facet normal -0.5464061590246359 -0.8177546063521862 0.18088038359569433
    outer loop
      vertex 1.1715728752538097 1.1715728752538097 2.0000000000000004
      vertex 2.4692662705396407 0.3044818699548535 2.0000000000000004
      vertex 2.3670068381445475 0.7340136762890963 3.6329931618554525
    endloop
  endfacet
  facet normal -0.233631159909989 -0.9438394790631649 0.23363115990998873
    outer loop
      vertex 2.4692662705396407 0.3044818699548535 2.0000000000000004
      vertex 3.9999999999999996 0.30448186995485305 3.5307337294603593
      vertex 2.3670068381445475 0.7340136762890963 3.6329931618554525
    endloop
  endfacet
  facet normal -0.18088038359569447 -0.8177546063521859 0.5464061590246362
    outer loop
      vertex 2.3670068381445475 0.7340136762890963 3.6329931618554525
      vertex 3.9999999999999996 0.30448186995485305 3.5307337294603593
      vertex 3.9999999999999996 1.1715728752538097 4.82842712474619
    endloop
  endfacet
  facet normal -0.19148045395532312 -0.9626372481397792 0.19148045395532284
    outer loop
      vertex 2.4692662705396407 0.3044818699548535 2.0000000000000004
      vertex 3.9999999999999996 0 2.0000000000000004
      vertex 3.9999999999999996 0.30448186995485305 3.5307337294603593
    endloop
  endfacet
  facet normal -0.9626372481397792 0.19148045395532284 -0.19148045395532284
    outer loop
      vertex 0 2.0000000000000004 3.9999999999999996
      vertex 0.30448186995485305 3.5307337294603593 3.9999999999999996
      vertex 0.30448186995485305 2.0000000000000004 2.4692662705396407
    endloop
  endfacet
  facet normal -0.9438394790631649 0.23363115990998895 -0.23363115990998895
    outer loop
      vertex 0.30448186995485305 3.5307337294603593 3.9999999999999996
      vertex 0.7340136762890963 3.6329931618554525 2.3670068381445475
      vertex 0.30448186995485305 2.0000000000000004 2.4692662705396407
    endloop
  endfacet
  facet normal -0.8177546063521859 0.1808803835956945 -0.546406159024636
    outer loop
      vertex 0.30448186995485305 2.0000000000000004 2.4692662705396407
      vertex 0.7340136762890963 3.6329931618554525 2.3670068381445475
      vertex 1.1715728752538097 2.0000000000000004 1.1715728752538097
    endloop
  endfacet
  facet normal -0.6718539489884743 0.31180850286222966 -0.6718539489884743
    outer loop
      vertex 0.7340136762890963 3.6329931618554525 2.3670068381445475
      vertex 2.3670068381445475 3.6329931618554525 0.7340136762890963
      vertex 1.1715728752538097 2.0000000000000004 1.1715728752538097
    endloop
  endfacet
  facet normal -0.5464061590246357 0.18088038359569428 -0.8177546063521861
    outer loop
      vertex 1.1715728752538097 2.0000000000000004 1.1715728752538097
      vertex 2.3670068381445475 3.6329931618554525 0.7340136762890963
      vertex 2.4692662705396407 2.0000000000000004 0.3044818699548535
    endloop
  endfacet
  facet normal -0.23363115990998903 0.23363115990998876 -0.9438394790631649
    outer loop
      vertex 2.3670068381445475 3.6329931618554525 0.7340136762890963
      vertex 3.9999999999999996 3.5307337294603593 0.30448186995485305
      vertex 2.4692662705396407 2.0000000000000004 0.3044818699548535
    endloop
  endfacet
  facet normal -0.19148045395532312 0.19148045395532284 -0.9626372481397792
    outer loop
      vertex 2.4692662705396407 2.0000000000000004 0.3044818699548535
      vertex 3.9999999999999996 3.5307337294603593 0.30448186995485305
      vertex 3.9999999999999996 2.0000000000000004 0
    endloop
  endfacet
  facet normal -0.8177546063521859 0.5464061590246361 -0.18088038359569444
    outer loop
      vertex 0.30448186995485305 3.5307337294603593 3.9999999999999996
      vertex 1.1715728752538097 4.82842712474619 3.9999999999999996
      vertex 0.7340136762890963 3.6329931618554525 2.3670068381445475
    endloop
  endfacet
  facet normal -0.6718539489884743 0.6718539489884745 -0.3118085028622296
    outer loop
      vertex 1.1715728752538097 4.82842712474619 3.9999999999999996
      vertex 2.3670068381445475 5.265986323710903 2.3670068381445475
      vertex 0.7340136762890963 3.6329931618554525 2.3670068381445475
    endloop
  endfacet
  facet normal -0.5773502691896256 0.5773502691896258 -0.5773502691896256
    outer loop
      vertex 0.7340136762890963 3.6329931618554525 2.3670068381445475
      vertex 2.3670068381445475 5.265986323710903 2.3670068381445475
      vertex 2.3670068381445475 3.6329931618554525 0.7340136762890963
    endloop
  endfacet
  facet normal -0.3118085028622296 0.6718539489884745 -0.6718539489884743
    outer loop
      vertex 2.3670068381445475 5.265986323710903 2.3670068381445475
      vertex 3.9999999999999996 4.82842712474619 1.1715728752538097
      vertex 2.3670068381445475 3.6329931618554525 0.7340136762890963
    endloop
  endfacet
  facet normal -0.18088038359569447 0.5464061590246362 -0.8177546063521859
    outer loop
      vertex 2.3670068381445475 3.6329931618554525 0.7340136762890963
      vertex 3.9999999999999996 4.82842712474619 1.1715728752538097
      vertex 3.9999999999999996 3.5307337294603593 0.30448186995485305
    endloop
  endfacet
  facet normal -0.5464061590246359 0.8177546063521862 -0.18088038359569433
    outer loop
      vertex 1.1715728752538097 4.82842712474619 3.9999999999999996
      vertex 2.4692662705396407 5.695518130045146 3.9999999999999996
      vertex 2.3670068381445475 5.265986323710903 2.3670068381445475
    endloop
  endfacet
  facet normal -0.23363115990998873 0.9438394790631649 -0.23363115990998873
    outer loop
      vertex 2.4692662705396407 5.695518130045146 3.9999999999999996
      vertex 3.9999999999999996 5.695518130045146 2.4692662705396407
      vertex 2.3670068381445475 5.265986323710903 2.3670068381445475
    endloop
  endfacet
  facet normal -0.18088038359569433 0.8177546063521862 -0.5464061590246359
    outer loop
      vertex 2.3670068381445475 5.265986323710903 2.3670068381445475
      vertex 3.9999999999999996 5.695518130045146 2.4692662705396407
      vertex 3.9999999999999996 4.82842712474619 1.1715728752538097
    endloop
  endfacet
  facet normal -0.19148045395532337 0.9626372481397791 -0.19148045395532337
    outer loop
      vertex 2.4692662705396407 5.695518130045146 3.9999999999999996
      vertex 3.9999999999999996 6 3.9999999999999996
      vertex 3.9999999999999996 5.695518130045146 2.4692662705396407
    endloop
  endfacet
  facet normal -0.9626372481397792 0.19148045395532284 0.19148045395532284
    outer loop
      vertex 0 2.0000000000000004 2.0000000000000004
      vertex 0.30448186995485305 2.0000000000000004 3.5307337294603593
      vertex 0.30448186995485305 3.5307337294603593 2.0000000000000004
    endloop
  endfacet
  facet normal -0.9438394790631647 0.23363115990998895 0.23363115990998895
    outer loop
      vertex 0.30448186995485305 2.0000000000000004 3.5307337294603593
      vertex 0.7340136762890963 3.6329931618554525 3.6329931618554525
      vertex 0.30448186995485305 3.5307337294603593 2.0000000000000004
    endloop
  endfacet
  facet normal -0.8177546063521859 0.5464061590246361 0.18088038359569447
    outer loop
      vertex 0.30448186995485305 3.5307337294603593 2.0000000000000004
      vertex 0.7340136762890963 3.6329931618554525 3.6329931618554525
      vertex 1.1715728752538097 4.82842712474619 2.0000000000000004
    endloop
  endfacet
  facet normal -0.6718539489884747 0.6718539489884742 0.3118085028622293
    outer loop
      vertex 0.7340136762890963 3.6329931618554525 3.6329931618554525
      vertex 2.3670068381445475 5.265986323710905 3.6329931618554525
      vertex 1.1715728752538097 4.82842712474619 2.0000000000000004
    endloop
  endfacet
  facet normal -0.5464061590246359 0.8177546063521862 0.18088038359569347
    outer loop
      vertex 1.1715728752538097 4.82842712474619 2.0000000000000004
      vertex 2.3670068381445475 5.265986323710905 3.6329931618554525
      vertex 2.4692662705396407 5.695518130045146 2.0000000000000004
    endloop
  endfacet
  facet normal -0.23363115990998792 0.9438394790631653 0.23363115990998792
    outer loop
      vertex 2.3670068381445475 5.265986323710905 3.6329931618554525
      vertex 3.9999999999999996 5.695518130045146 3.5307337294603593
      vertex 2.4692662705396407 5.695518130045146 2.0000000000000004
    endloop
  endfacet
  facet normal -0.19148045395532337 0.9626372481397791 0.19148045395532337
    outer loop
      vertex 2.4692662705396407 5.695518130045146 2.0000000000000004
      vertex 3.9999999999999996 5.695518130045146 3.5307337294603593
      vertex 3.9999999999999996 6 2.0000000000000004
    endloop
  endfacet
  facet normal -0.8177546063521859 0.18088038359569447 0.5464061590246361
    outer loop
      vertex 0.30448186995485305 2.0000000000000004 3.5307337294603593
      vertex 1.1715728752538097 2.0000000000000004 4.82842712474619
      vertex 0.7340136762890963 3.6329931618554525 3.6329931618554525
    endloop
  endfacet
  facet normal -0.6718539489884743 0.3118085028622296 0.6718539489884745
    outer loop
      vertex 1.1715728752538097 2.0000000000000004 4.82842712474619
      vertex 2.3670068381445475 3.6329931618554525 5.265986323710903
      vertex 0.7340136762890963 3.6329931618554525 3.6329931618554525
    endloop
  endfacet
  facet normal -0.5773502691896258 0.5773502691896253 0.577350269189626
    outer loop
      vertex 0.7340136762890963 3.6329931618554525 3.6329931618554525
      vertex 2.3670068381445475 3.6329931618554525 5.265986323710903
      vertex 2.3670068381445475 5.265986323710905 3.6329931618554525
    endloop
  endfacet
  facet normal -0.3118085028622292 0.6718539489884741 0.6718539489884748
    outer loop
      vertex 2.3670068381445475 3.6329931618554525 5.265986323710903
      vertex 3.9999999999999996 4.82842712474619 4.82842712474619
      vertex 2.3670068381445475 5.265986323710905 3.6329931618554525
    endloop
  endfacet
  facet normal -0.18088038359569342 0.8177546063521862 0.546406159024636
    outer loop
      vertex 2.3670068381445475 5.265986323710905 3.6329931618554525
      vertex 3.9999999999999996 4.82842712474619 4.82842712474619
      vertex 3.9999999999999996 5.695518130045146 3.5307337294603593
    endloop
  endfacet
  facet normal -0.5464061590246357 0.1808803835956943 0.8177546063521861
    outer loop
      vertex 1.1715728752538097 2.0000000000000004 4.82842712474619
      vertex 2.4692662705396407 2.0000000000000004 5.695518130045146
      vertex 2.3670068381445475 3.6329931618554525 5.265986323710903
    endloop
  endfacet
  facet normal -0.23363115990998926 0.23363115990998873 0.9438394790631649
    outer loop
      vertex 2.4692662705396407 2.0000000000000004 5.695518130045146
      vertex 3.9999999999999996 3.5307337294603593 5.695518130045147
      vertex 2.3670068381445475 3.6329931618554525 5.265986323710903
    endloop
  endfacet
  facet normal -0.1808803835956946 0.5464061590246362 0.8177546063521858
    outer loop
      vertex 2.3670068381445475 3.6329931618554525 5.265986323710903
      vertex 3.9999999999999996 3.5307337294603593 5.695518130045147
      vertex 3.9999999999999996 4.82842712474619 4.82842712474619
    endloop
  endfacet
  facet normal -0.1914804539553234 0.19148045395532284 0.9626372481397792
    outer loop
      vertex 2.4692662705396407 2.0000000000000004 5.695518130045146
      vertex 3.9999999999999996 2.0000000000000004 6
      vertex 3.9999999999999996 3.5307337294603593 5.695518130045147
    endloop
  endfacet
  facet normal 0.19148045395532284 -0.9626372481397792 -0.19148045395532284
    outer loop
      vertex 2.0000000000000004 0 3.9999999999999996
      vertex 2.0000000000000004 0.30448186995485305 2.4692662705396407
      vertex 3.5307337294603593 0.30448186995485305 3.9999999999999996
    endloop
  endfacet
  facet normal 0.23363115990998895 -0.9438394790631649 -0.23363115990998895
    outer loop
      vertex 2.0000000000000004 0.30448186995485305 2.4692662705396407
      vertex 3.6329931618554525 0.7340136762890963 2.3670068381445475
      vertex 3.5307337294603593 0.30448186995485305 3.9999999999999996
    endloop
  endfacet
  facet normal 0.5464061590246361 -0.8177546063521859 -0.18088038359569444
    outer loop
      vertex 3.5307337294603593 0.30448186995485305 3.9999999999999996
      vertex 3.6329931618554525 0.7340136762890963 2.3670068381445475
      vertex 4.82842712474619 1.1715728752538097 3.9999999999999996
    endloop
  endfacet
  facet normal 0.6718539489884742 -0.6718539489884747 -0.31180850286222933
    outer loop
      vertex 3.6329931618554525 0.7340136762890963 2.3670068381445475
      vertex 5.265986323710905 2.3670068381445475 2.3670068381445475
      vertex 4.82842712474619 1.1715728752538097 3.9999999999999996
    endloop
  endfacet
  facet normal 0.8177546063521862 -0.5464061590246359 -0.18088038359569342
    outer loop
      vertex 4.82842712474619 1.1715728752538097 3.9999999999999996
      vertex 5.265986323710905 2.3670068381445475 2.3670068381445475
      vertex 5.695518130045146 2.4692662705396407 3.9999999999999996
    endloop
  endfacet
  facet normal 0.9438394790631653 -0.23363115990998792 -0.23363115990998792
    outer loop
      vertex 5.265986323710905 2.3670068381445475 2.3670068381445475
      vertex 5.695518130045146 3.9999999999999996 2.4692662705396407
      vertex 5.695518130045146 2.4692662705396407 3.9999999999999996
    endloop
  endfacet
  facet normal 0.9626372481397791 -0.19148045395532337 -0.19148045395532337
    outer loop
      vertex 5.695518130045146 2.4692662705396407 3.9999999999999996
      vertex 5.695518130045146 3.9999999999999996 2.4692662705396407
      vertex 6 3.9999999999999996 3.9999999999999996
    endloop
  endfacet
  facet normal 0.1808803835956945 -0.8177546063521859 -0.546406159024636
    outer loop
      vertex 2.0000000000000004 0.30448186995485305 2.4692662705396407
      vertex 2.0000000000000004 1.1715728752538097 1.1715728752538097
      vertex 3.6329931618554525 0.7340136762890963 2.3670068381445475
    endloop
  endfacet
  facet normal 0.31180850286222966 -0.6718539489884743 -0.6718539489884743
    outer loop
      vertex 2.0000000000000004 1.1715728752538097 1.1715728752538097
      vertex 3.6329931618554525 2.3670068381445475 0.7340136762890963
      vertex 3.6329931618554525 0.7340136762890963 2.3670068381445475
    endloop
  endfacet
  facet normal 0.5773502691896254 -0.5773502691896258 -0.5773502691896258
    outer loop
      vertex 3.6329931618554525 0.7340136762890963 2.3670068381445475
      vertex 3.6329931618554525 2.3670068381445475 0.7340136762890963
      vertex 5.265986323710905 2.3670068381445475 2.3670068381445475
    endloop
  endfacet
  facet normal 0.6718539489884742 -0.31180850286222933 -0.6718539489884747
    outer loop
      vertex 3.6329931618554525 2.3670068381445475 0.7340136762890963
      vertex 4.82842712474619 3.9999999999999996 1.1715728752538097
      vertex 5.265986323710905 2.3670068381445475 2.3670068381445475
    endloop
  endfacet
  facet normal 0.8177546063521862 -0.18088038359569347 -0.5464061590246359
    outer loop
      vertex 5.265986323710905 2.3670068381445475 2.3670068381445475
      vertex 4.82842712474619 3.9999999999999996 1.1715728752538097
      vertex 5.695518130045146 3.9999999999999996 2.4692662705396407
    endloop
  endfacet
  facet normal 0.18088038359569428 -0.5464061590246357 -0.8177546063521861
    outer loop
      vertex 2.0000000000000004 1.1715728752538097 1.1715728752538097
      vertex 2.0000000000000004 2.4692662705396407 0.3044818699548535
      vertex 3.6329931618554525 2.3670068381445475 0.7340136762890963
    endloop
  endfacet
  facet normal 0.23363115990998873 -0.233631159909989 -0.9438394790631649
    outer loop
      vertex 2.0000000000000004 2.4692662705396407 0.3044818699548535
      vertex 3.5307337294603593 3.9999999999999996 0.30448186995485305
      vertex 3.6329931618554525 2.3670068381445475 0.7340136762890963
    endloop
  endfacet
  facet normal 0.5464061590246362 -0.18088038359569447 -0.8177546063521859
    outer loop
      vertex 3.6329931618554525 2.3670068381445475 0.7340136762890963
      vertex 3.5307337294603593 3.9999999999999996 0.30448186995485305
      vertex 4.82842712474619 3.9999999999999996 1.1715728752538097
    endloop
  endfacet
  facet normal 0.19148045395532284 -0.19148045395532312 -0.9626372481397792
    outer loop
      vertex 2.0000000000000004 2.4692662705396407 0.3044818699548535
      vertex 2.0000000000000004 3.9999999999999996 0
      vertex 3.5307337294603593 3.9999999999999996 0.30448186995485305
    endloop
  endfacet
  facet normal 0.19148045395532284 -0.9626372481397792 0.19148045395532284
    outer loop
      vertex 2.0000000000000004 0 2.0000000000000004
      vertex 3.5307337294603593 0.30448186995485305 2.0000000000000004
      vertex 2.0000000000000004 0.30448186995485305 3.5307337294603593
    endloop
  endfacet
  facet normal 0.23363115990998895 -0.9438394790631647 0.23363115990998895
    outer loop
      vertex 2.0000000000000004 0.30448186995485305 3.5307337294603593
      vertex 3.5307337294603593 0.30448186995485305 2.0000000000000004
      vertex 3.6329931618554525 0.7340136762890963 3.6329931618554525
    endloop
  endfacet
  facet normal 0.5464061590246361 -0.8177546063521859 0.18088038359569447
    outer loop
      vertex 3.5307337294603593 0.30448186995485305 2.0000000000000004
      vertex 4.82842712474619 1.1715728752538097 2.0000000000000004
      vertex 3.6329931618554525 0.7340136762890963 3.6329931618554525
    endloop
  endfacet
  facet normal 0.6718539489884742 -0.6718539489884747 0.3118085028622293
    outer loop
      vertex 3.6329931618554525 0.7340136762890963 3.6329931618554525
      vertex 4.82842712474619 1.1715728752538097 2.0000000000000004
      vertex 5.265986323710905 2.3670068381445475 3.6329931618554525
    endloop
  endfacet
  facet normal 0.8177546063521862 -0.5464061590246359 0.18088038359569347
    outer loop
      vertex 4.82842712474619 1.1715728752538097 2.0000000000000004
      vertex 5.695518130045146 2.4692662705396407 2.0000000000000004
      vertex 5.265986323710905 2.3670068381445475 3.6329931618554525
    endloop
  endfacet
  facet normal 0.9438394790631653 -0.23363115990998792 0.23363115990998792
    outer loop
      vertex 5.265986323710905 2.3670068381445475 3.6329931618554525
      vertex 5.695518130045146 2.4692662705396407 2.0000000000000004
      vertex 5.695518130045146 3.9999999999999996 3.5307337294603593
    endloop
  endfacet
  facet normal 0.9626372481397791 -0.19148045395532337 0.19148045395532337
    outer loop
      vertex 5.695518130045146 2.4692662705396407 2.0000000000000004
      vertex 6 3.9999999999999996 2.0000000000000004
      vertex 5.695518130045146 3.9999999999999996 3.5307337294603593
    endloop
  endfacet
  facet normal 0.18088038359569447 -0.8177546063521859 0.5464061590246361
    outer loop
      vertex 2.0000000000000004 0.30448186995485305 3.5307337294603593
      vertex 3.6329931618554525 0.7340136762890963 3.6329931618554525
      vertex 2.0000000000000004 1.1715728752538097 4.82842712474619
    endloop
  endfacet
  facet normal 0.3118085028622296 -0.6718539489884743 0.6718539489884745
    outer loop
      vertex 2.0000000000000004 1.1715728752538097 4.82842712474619
      vertex 3.6329931618554525 0.7340136762890963 3.6329931618554525
      vertex 3.6329931618554525 2.3670068381445475 5.265986323710903
    endloop
  endfacet
  facet normal 0.5773502691896253 -0.5773502691896258 0.577350269189626
    outer loop
      vertex 3.6329931618554525 0.7340136762890963 3.6329931618554525
      vertex 5.265986323710905 2.3670068381445475 3.6329931618554525
      vertex 3.6329931618554525 2.3670068381445475 5.265986323710903
    endloop
  endfacet
  facet normal 0.6718539489884741 -0.3118085028622292 0.6718539489884748
    outer loop
      vertex 3.6329931618554525 2.3670068381445475 5.265986323710903
      vertex 5.265986323710905 2.3670068381445475 3.6329931618554525
      vertex 4.82842712474619 3.9999999999999996 4.82842712474619
    endloop
  endfacet
  facet normal 0.8177546063521862 -0.18088038359569342 0.546406159024636
    outer loop
      vertex 5.265986323710905 2.3670068381445475 3.6329931618554525
      vertex 5.695518130045146 3.9999999999999996 3.5307337294603593
      vertex 4.82842712474619 3.9999999999999996 4.82842712474619
    endloop
  endfacet
  facet normal 0.1808803835956943 -0.5464061590246357 0.8177546063521861
    outer loop
      vertex 2.0000000000000004 1.1715728752538097 4.82842712474619
      vertex 3.6329931618554525 2.3670068381445475 5.265986323710903
      vertex 2.0000000000000004 2.4692662705396407 5.695518130045146
    endloop
  endfacet
  facet normal 0.23363115990998873 -0.23363115990998926 0.9438394790631649
    outer loop
      vertex 2.0000000000000004 2.4692662705396407 5.695518130045146
      vertex 3.6329931618554525 2.3670068381445475 5.265986323710903
      vertex 3.5307337294603593 3.9999999999999996 5.695518130045147
    endloop
  endfacet
  facet normal 0.5464061590246362 -0.1808803835956946 0.8177546063521858
    outer loop
      vertex 3.6329931618554525 2.3670068381445475 5.265986323710903
      vertex 4.82842712474619 3.9999999999999996 4.82842712474619
      vertex 3.5307337294603593 3.9999999999999996 5.695518130045147
    endloop
  endfacet
  facet normal 0.19148045395532284 -0.1914804539553234 0.9626372481397792
    outer loop
      vertex 2.0000000000000004 2.4692662705396407 5.695518130045146
      vertex 3.5307337294603593 3.9999999999999996 5.695518130045147
      vertex 2.0000000000000004 3.9999999999999996 6
    endloop
  endfacet
  facet normal 0.19148045395532284 0.19148045395532284 -0.9626372481397792
    outer loop
      vertex 2.0000000000000004 2.0000000000000004 0
      vertex 2.0000000000000004 3.5307337294603593 0.30448186995485305
      vertex 3.5307337294603593 2.0000000000000004 0.30448186995485305
    endloop
  endfacet
  facet normal 0.233631159909989 0.233631159909989 -0.9438394790631649
    outer loop
      vertex 2.0000000000000004 3.5307337294603593 0.30448186995485305
      vertex 3.6329931618554525 3.6329931618554525 0.7340136762890963
      vertex 3.5307337294603593 2.0000000000000004 0.30448186995485305
    endloop
  endfacet
  facet normal 0.5464061590246361 0.18088038359569447 -0.8177546063521859
    outer loop
      vertex 3.5307337294603593 2.0000000000000004 0.30448186995485305
      vertex 3.6329931618554525 3.6329931618554525 0.7340136762890963
      vertex 4.82842712474619 2.0000000000000004 1.1715728752538097
    endloop
  endfacet
  facet normal 0.6718539489884742 0.3118085028622293 -0.6718539489884747
    outer loop
      vertex 3.6329931618554525 3.6329931618554525 0.7340136762890963
      vertex 5.265986323710905 3.6329931618554525 2.3670068381445475
      vertex 4.82842712474619 2.0000000000000004 1.1715728752538097
    endloop
  endfacet
  facet normal 0.8177546063521862 0.18088038359569347 -0.5464061590246359
    outer loop
      vertex 4.82842712474619 2.0000000000000004 1.1715728752538097
      vertex 5.265986323710905 3.6329931618554525 2.3670068381445475
      vertex 5.695518130045146 2.0000000000000004 2.4692662705396407
    endloop
  endfacet
  facet normal 0.9438394790631653 0.23363115990998792 -0.23363115990998792
    outer loop
      vertex 5.265986323710905 3.6329931618554525 2.3670068381445475
      vertex 5.695518130045146 3.5307337294603593 3.9999999999999996
      vertex 5.695518130045146 2.0000000000000004 2.4692662705396407
    endloop
  endfacet
  facet normal 0.9626372481397791 0.19148045395532337 -0.19148045395532337
    outer loop
      vertex 5.695518130045146 2.0000000000000004 2.4692662705396407
      vertex 5.695518130045146 3.5307337294603593 3.9999999999999996
      vertex 6 2.0000000000000004 3.9999999999999996
    endloop
  endfacet
  facet normal 0.18088038359569447 0.5464061590246361 -0.8177546063521859
    outer loop
      vertex 2.0000000000000004 3.5307337294603593 0.30448186995485305
      vertex 2.0000000000000004 4.82842712474619 1.1715728752538097
      vertex 3.6329931618554525 3.6329931618554525 0.7340136762890963
    endloop
  endfacet
  facet normal 0.3118085028622296 0.6718539489884745 -0.6718539489884743
    outer loop
      vertex 2.0000000000000004 4.82842712474619 1.1715728752538097
      vertex 3.6329931618554525 5.265986323710903 2.3670068381445475
      vertex 3.6329931618554525 3.6329931618554525 0.7340136762890963
    endloop
  endfacet
  facet normal 0.5773502691896253 0.577350269189626 -0.5773502691896258
    outer loop
      vertex 3.6329931618554525 3.6329931618554525 0.7340136762890963
      vertex 3.6329931618554525 5.265986323710903 2.3670068381445475
      vertex 5.265986323710905 3.6329931618554525 2.3670068381445475
    endloop
  endfacet
  facet normal 0.6718539489884741 0.6718539489884748 -0.31180850286222916
    outer loop
      vertex 3.6329931618554525 5.265986323710903 2.3670068381445475
      vertex 4.82842712474619 4.82842712474619 3.9999999999999996
      vertex 5.265986323710905 3.6329931618554525 2.3670068381445475
    endloop
  endfacet
  facet normal 0.8177546063521862 0.546406159024636 -0.18088038359569342
    outer loop
      vertex 5.265986323710905 3.6329931618554525 2.3670068381445475
      vertex 4.82842712474619 4.82842712474619 3.9999999999999996
      vertex 5.695518130045146 3.5307337294603593 3.9999999999999996
    endloop
  endfacet
  facet normal 0.18088038359569433 0.8177546063521862 -0.5464061590246359
    outer loop
      vertex 2.0000000000000004 4.82842712474619 1.1715728752538097
      vertex 2.0000000000000004 5.695518130045146 2.4692662705396407
      vertex 3.6329931618554525 5.265986323710903 2.3670068381445475
    endloop
  endfacet
  facet normal 0.23363115990998867 0.9438394790631647 -0.23363115990998923
    outer loop
      vertex 2.0000000000000004 5.695518130045146 2.4692662705396407
      vertex 3.5307337294603593 5.695518130045147 3.9999999999999996
      vertex 3.6329931618554525 5.265986323710903 2.3670068381445475
    endloop
  endfacet
  facet normal 0.5464061590246362 0.8177546063521858 -0.1808803835956946
    outer loop
      vertex 3.6329931618554525 5.265986323710903 2.3670068381445475
      vertex 3.5307337294603593 5.695518130045147 3.9999999999999996
      vertex 4.82842712474619 4.82842712474619 3.9999999999999996
    endloop
  endfacet
  facet normal 0.19148045395532284 0.9626372481397792 -0.1914804539553234
    outer loop
      vertex 2.0000000000000004 5.695518130045146 2.4692662705396407
      vertex 2.0000000000000004 6 3.9999999999999996
      vertex 3.5307337294603593 5.695518130045147 3.9999999999999996
    endloop
  endfacet
  facet normal 0.19148045395532284 0.19148045395532284 0.9626372481397792
    outer loop
      vertex 2.0000000000000004 2.0000000000000004 6
      vertex 3.5307337294603593 2.0000000000000004 5.695518130045147
      vertex 2.0000000000000004 3.5307337294603593 5.695518130045147
    endloop
  endfacet
  facet normal 0.23363115990998914 0.23363115990998914 0.9438394790631647
    outer loop
      vertex 3.5307337294603593 2.0000000000000004 5.695518130045147
      vertex 3.6329931618554525 3.6329931618554525 5.265986323710903
      vertex 2.0000000000000004 3.5307337294603593 5.695518130045147
    endloop
  endfacet
  facet normal 0.1808803835956946 0.5464061590246362 0.8177546063521858
    outer loop
      vertex 2.0000000000000004 3.5307337294603593 5.695518130045147
      vertex 3.6329931618554525 3.6329931618554525 5.265986323710903
      vertex 2.0000000000000004 4.82842712474619 4.82842712474619
    endloop
  endfacet
  facet normal 0.3118085028622292 0.6718539489884741 0.6718539489884748
    outer loop
      vertex 3.6329931618554525 3.6329931618554525 5.265986323710903
      vertex 3.6329931618554525 5.265986323710905 3.6329931618554525
      vertex 2.0000000000000004 4.82842712474619 4.82842712474619
    endloop
  endfacet
  facet normal 0.18088038359569344 0.8177546063521862 0.546406159024636
    outer loop
      vertex 2.0000000000000004 4.82842712474619 4.82842712474619
      vertex 3.6329931618554525 5.265986323710905 3.6329931618554525
      vertex 2.0000000000000004 5.695518130045146 3.5307337294603593
    endloop
  endfacet
  facet normal 0.23363115990998784 0.9438394790631651 0.2336311599099884
    outer loop
      vertex 3.6329931618554525 5.265986323710905 3.6329931618554525
      vertex 3.5307337294603593 5.695518130045147 2.0000000000000004
      vertex 2.0000000000000004 5.695518130045146 3.5307337294603593
    endloop
  endfacet
  facet normal 0.19148045395532287 0.9626372481397792 0.1914804539553234
    outer loop
      vertex 2.0000000000000004 5.695518130045146 3.5307337294603593
      vertex 3.5307337294603593 5.695518130045147 2.0000000000000004
      vertex 2.0000000000000004 6 2.0000000000000004
    endloop
  endfacet
  facet normal 0.5464061590246362 0.1808803835956946 0.8177546063521858
    outer loop
      vertex 3.5307337294603593 2.0000000000000004 5.695518130045147
      vertex 4.82842712474619 2.0000000000000004 4.82842712474619
      vertex 3.6329931618554525 3.6329931618554525 5.265986323710903
    endloop
  endfacet
  facet normal 0.6718539489884744 0.3118085028622295 0.6718539489884744
    outer loop
      vertex 4.82842712474619 2.0000000000000004 4.82842712474619
      vertex 5.265986323710903 3.6329931618554525 3.6329931618554525
      vertex 3.6329931618554525 3.6329931618554525 5.265986323710903
    endloop
  endfacet
  facet normal 0.577350269189626 0.5773502691896254 0.577350269189626
    outer loop
      vertex 3.6329931618554525 3.6329931618554525 5.265986323710903
      vertex 5.265986323710903 3.6329931618554525 3.6329931618554525
      vertex 3.6329931618554525 5.265986323710905 3.6329931618554525
    endloop
  endfacet
  facet normal 0.6718539489884748 0.6718539489884741 0.31180850286222916
    outer loop
      vertex 5.265986323710903 3.6329931618554525 3.6329931618554525
      vertex 4.82842712474619 4.82842712474619 2.0000000000000004
      vertex 3.6329931618554525 5.265986323710905 3.6329931618554525
    endloop
  endfacet
  facet normal 0.5464061590246365 0.8177546063521859 0.18088038359569378
    outer loop
      vertex 3.6329931618554525 5.265986323710905 3.6329931618554525
      vertex 4.82842712474619 4.82842712474619 2.0000000000000004
      vertex 3.5307337294603593 5.695518130045147 2.0000000000000004
    endloop
  endfacet
  facet normal 0.817754606352186 0.1808803835956943 0.5464061590246359
    outer loop
      vertex 4.82842712474619 2.0000000000000004 4.82842712474619
      vertex 5.695518130045146 2.0000000000000004 3.5307337294603593
      vertex 5.265986323710903 3.6329931618554525 3.6329931618554525
    endloop
  endfacet
  facet normal 0.9438394790631649 0.23363115990998873 0.23363115990998873
    outer loop
      vertex 5.695518130045146 2.0000000000000004 3.5307337294603593
      vertex 5.695518130045146 3.5307337294603593 2.0000000000000004
      vertex 5.265986323710903 3.6329931618554525 3.6329931618554525
    endloop
  endfacet
  facet normal 0.817754606352186 0.546406159024636 0.1808803835956943
    outer loop
      vertex 5.265986323710903 3.6329931618554525 3.6329931618554525
      vertex 5.695518130045146 3.5307337294603593 2.0000000000000004
      vertex 4.82842712474619 4.82842712474619 2.0000000000000004
    endloop
  endfacet
  facet normal 0.9626372481397791 0.19148045395532337 0.19148045395532337
    outer loop
      vertex 5.695518130045146 2.0000000000000004 3.5307337294603593
      vertex 6 2.0000000000000004 2.0000000000000004
      vertex 5.695518130045146 3.5307337294603593 2.0000000000000004
    endloop
  endfacet
endsolid OpenSCAD_Model
