solid OpenSCAD_Model
  facet normal 0 0 1
    outer loop
      vertex -0.8694738077799481 1.011444864652066 5
      vertex 0 1.0200000032782555 5
      vertex -0.9752677445853325 1.0200000032782555 5
    endloop
  endfacet
  facet normal 0 0 1
    outer loop
      vertex -0.8694738077799481 1.011444864652066 5
      vertex -0.741180954897479 0.985925829567324 5
      vertex 0 1.0200000032782555 5
    endloop
  endfacet
  facet normal 0 0 1
    outer loop
      vertex 0.0009963674567396953 0.03241105147944957 5
      vertex 0.0007339829098699839 0.9288813822900668 5
      vertex -0.008555138626189396 0.15052619549830726 5
    endloop
  endfacet
  facet normal 0 0 1
    outer loop
      vertex -0.008555138626189396 0.15052619549830726 5
      vertex 0 0.9344565346837044 5
      vertex -0.034074173710931466 0.2788190483807764 5
    endloop
  endfacet
  facet normal 0 0 1
    outer loop
      vertex -0.034074173710931466 0.2788190483807764 5
      vertex 0 0.9344565346837044 5
      vertex -0.07612046748871304 0.40268343564334547 5
    endloop
  endfacet
  facet normal 0 0 1
    outer loop
      vertex -0.13397459621556107 0.5200000032782557 5
      vertex -0.07612046748871304 0.40268343564334547 5
      vertex 0 0.9344565346837044 5
    endloop
  endfacet
  facet normal 0 0 1
    outer loop
      vertex -0.13397459621556107 0.5200000032782557 5
      vertex 0 0.9344565346837044 5
      vertex -0.2066466597087646 0.6287614322869763 5
    endloop
  endfacet
  facet normal 0 0 1
    outer loop
      vertex -0.008555138626189396 0.15052619549830726 5
      vertex 0.0007339829098699839 0.9288813822900668 5
      vertex 0 0.9344565346837044 5
    endloop
  endfacet
  facet normal 0 0 1
    outer loop
      vertex -0.2928932188134522 0.7271067844648031 5
      vertex 0 1.0200000032782555 5
      vertex -0.3912385709912791 0.8133533435694908 5
    endloop
  endfacet
  facet normal 0 0 1
    outer loop
      vertex -0.2928932188134522 0.7271067844648031 5
      vertex -0.2066466597087646 0.6287614322869763 5
      vertex 0 0.9344565346837044 5
    endloop
  endfacet
  facet normal 0 0 1
    outer loop
      vertex -0.49999999999999967 0.8860254070626943 5
      vertex -0.3912385709912791 0.8133533435694908 5
      vertex 0 1.0200000032782555 5
    endloop
  endfacet
  facet normal 0 0 1
    outer loop
      vertex -0.6173165676349099 0.9438795357895424 5
      vertex -0.49999999999999967 0.8860254070626943 5
      vertex 0 1.0200000032782555 5
    endloop
  endfacet
  facet normal 0 0 1
    outer loop
      vertex -0.741180954897479 0.985925829567324 5
      vertex -0.6173165676349099 0.9438795357895424 5
      vertex 0 1.0200000032782555 5
    endloop
  endfacet
  facet normal 0 0 1
    outer loop
      vertex -0.2928932188134522 0.7271067844648031 5
      vertex 0 0.9344565346837044 5
      vertex 0 1.0200000032782555 5
    endloop
  endfacet
  facet normal -0.9999999571673799 -0.00029268624583909795 -3.745254558574984e-22
    outer loop
      vertex 0.0009963674567396953 0.03241105147944957 5
      vertex 0.0007339829098699839 0.9288813822900668 15
      vertex 0.0007339829098699839 0.9288813822900668 5
    endloop
  endfacet
  facet normal -0.9999999571673799 -0.00029268624583909795 0
    outer loop
      vertex 0.0009963674567396953 0.03241105147944957 5
      vertex 0.0009963674567396953 0.03241105147944957 15
      vertex 0.0007339829098699839 0.9288813822900668 15
    endloop
  endfacet
  facet normal 0 0 -1
    outer loop
      vertex -0.8694738077799481 1.011444864652066 15
      vertex -0.9752677445853325 1.0200000032782555 15
      vertex 0 1.0200000032782555 15
    endloop
  endfacet
  facet normal 0 0 -1
    outer loop
      vertex -0.8694738077799481 1.011444864652066 15
      vertex 0 1.0200000032782555 15
      vertex -0.741180954897479 0.985925829567324 15
    endloop
  endfacet
  facet normal 0 0 -1
    outer loop
      vertex 0.0009963674567396953 0.03241105147944957 15
      vertex -0.008555138626189396 0.15052619549830726 15
      vertex 0.0007339829098699839 0.9288813822900668 15
    endloop
  endfacet
  facet normal 0 0 -1
    outer loop
      vertex -0.008555138626189396 0.15052619549830726 15
      vertex -0.034074173710931466 0.2788190483807764 15
      vertex 0 1.0200000032782555 15
    endloop
  endfacet
  facet normal 0 0 -1
    outer loop
      vertex -0.034074173710931466 0.2788190483807764 15
      vertex -0.07612046748871304 0.40268343564334547 15
      vertex 0 1.0200000032782555 15
    endloop
  endfacet
  facet normal 0 0 -1
    outer loop
      vertex -0.13397459621556107 0.5200000032782557 15
      vertex 0 1.0200000032782555 15
      vertex -0.07612046748871304 0.40268343564334547 15
    endloop
  endfacet
  facet normal 0 0 -1
    outer loop
      vertex -0.008555138626189396 0.15052619549830726 15
      vertex 0 0.9344565346837044 15
      vertex 0.0007339829098699839 0.9288813822900668 15
    endloop
  endfacet
  facet normal 0 0 -1
    outer loop
      vertex -0.008555138626189396 0.15052619549830726 15
      vertex 0 1.0200000032782555 15
      vertex 0 0.9344565346837044 15
    endloop
  endfacet
  facet normal 0 0 -1
    outer loop
      vertex -0.2928932188134522 0.7271067844648031 15
      vertex -0.3912385709912791 0.8133533435694908 15
      vertex 0 1.0200000032782555 15
    endloop
  endfacet
  facet normal 0 0 -1
    outer loop
      vertex -0.13397459621556107 0.5200000032782557 15
      vertex -0.2066466597087646 0.6287614322869763 15
      vertex 0 1.0200000032782555 15
    endloop
  endfacet
  facet normal 0 0 -1
    outer loop
      vertex -0.2928932188134522 0.7271067844648031 15
      vertex 0 1.0200000032782555 15
      vertex -0.2066466597087646 0.6287614322869763 15
    endloop
  endfacet
  facet normal 0 0 -1
    outer loop
      vertex -0.49999999999999967 0.8860254070626943 15
      vertex 0 1.0200000032782555 15
      vertex -0.3912385709912791 0.8133533435694908 15
    endloop
  endfacet
  facet normal 0 0 -1
    outer loop
      vertex -0.6173165676349099 0.9438795357895424 15
      vertex 0 1.0200000032782555 15
      vertex -0.49999999999999967 0.8860254070626943 15
    endloop
  endfacet
  facet normal 0 0 -1
    outer loop
      vertex -0.741180954897479 0.985925829567324 15
      vertex 0 1.0200000032782555 15
      vertex -0.6173165676349099 0.9438795357895424 15
    endloop
  endfacet
  facet normal 0.08060294322085733 0.9967462894559154 0
    outer loop
      vertex -0.8694738077799481 1.011444864652066 5
      vertex -0.9752677445853325 1.0200000032782555 5
      vertex -0.8694738077799481 1.011444864652066 15
    endloop
  endfacet
  facet normal 0.4422886902190013 0.8968727415326883 1.3767520923323983e-19
    outer loop
      vertex -0.6173165676349099 0.9438795357895424 5
      vertex -0.49999999999999967 0.8860254070626943 15
      vertex -0.49999999999999967 0.8860254070626943 5
    endloop
  endfacet
  facet normal 0.3214394653031617 0.9469301294951057 -2.109166744140103e-19
    outer loop
      vertex -0.741180954897479 0.985925829567324 5
      vertex -0.6173165676349099 0.9438795357895424 15
      vertex -0.6173165676349099 0.9438795357895424 5
    endloop
  endfacet
  facet normal 0.19509032201612722 0.9807852804032307 1.0220316476251078e-19
    outer loop
      vertex -0.8694738077799481 1.011444864652066 5
      vertex -0.741180954897479 0.985925829567324 15
      vertex -0.741180954897479 0.985925829567324 5
    endloop
  endfacet
  facet normal 0.9967462894559154 0.08060294322085568 0
    outer loop
      vertex 0.0009963674567396953 0.03241105147944957 5
      vertex -0.008555138626189396 0.15052619549830726 5
      vertex 0.0009963674567396953 0.03241105147944957 15
    endloop
  endfacet
  facet normal 0.9807852804032307 0.1950903220161279 0
    outer loop
      vertex -0.008555138626189396 0.15052619549830726 5
      vertex -0.034074173710931466 0.2788190483807764 5
      vertex -0.008555138626189396 0.15052619549830726 15
    endloop
  endfacet
  facet normal 0.9469301294951056 0.32143946530316175 0
    outer loop
      vertex -0.034074173710931466 0.2788190483807764 5
      vertex -0.07612046748871304 0.40268343564334547 5
      vertex -0.034074173710931466 0.2788190483807764 15
    endloop
  endfacet
  facet normal 0.8968727415326885 0.44228869021900086 -4.8530160227514717e-20
    outer loop
      vertex -0.13397459621556107 0.5200000032782557 5
      vertex -0.07612046748871304 0.40268343564334547 15
      vertex -0.07612046748871304 0.40268343564334547 5
    endloop
  endfacet
  facet normal 0.7518398074789774 0.659345815100069 -5.354582768872632e-19
    outer loop
      vertex -0.2928932188134522 0.7271067844648031 5
      vertex -0.2066466597087646 0.6287614322869763 15
      vertex -0.2066466597087646 0.6287614322869763 5
    endloop
  endfacet
  facet normal 0.831469612302545 0.5555702330196024 0
    outer loop
      vertex -0.13397459621556107 0.5200000032782557 5
      vertex -0.2066466597087646 0.6287614322869763 5
      vertex -0.13397459621556107 0.5200000032782557 15
    endloop
  endfacet
  facet normal 0.6593458151000691 0.7518398074789773 0
    outer loop
      vertex -0.2928932188134522 0.7271067844648031 5
      vertex -0.3912385709912791 0.8133533435694908 5
      vertex -0.2928932188134522 0.7271067844648031 15
    endloop
  endfacet
  facet normal 0.5555702330196023 0.8314696123025451 1.1842123871655906e-19
    outer loop
      vertex -0.49999999999999967 0.8860254070626943 5
      vertex -0.3912385709912791 0.8133533435694908 15
      vertex -0.3912385709912791 0.8133533435694908 5
    endloop
  endfacet
  facet normal 0.08060294322085733 0.9967462894559154 -4.5992374464760676e-20
    outer loop
      vertex -0.8694738077799481 1.011444864652066 15
      vertex -0.9752677445853325 1.0200000032782555 5
      vertex -0.9752677445853325 1.0200000032782555 15
    endloop
  endfacet
  facet normal 0.19509032201612722 0.9807852804032307 0
    outer loop
      vertex -0.8694738077799481 1.011444864652066 5
      vertex -0.8694738077799481 1.011444864652066 15
      vertex -0.741180954897479 0.985925829567324 15
    endloop
  endfacet
  facet normal 0.4422886902190013 0.8968727415326883 0
    outer loop
      vertex -0.6173165676349099 0.9438795357895424 5
      vertex -0.6173165676349099 0.9438795357895424 15
      vertex -0.49999999999999967 0.8860254070626943 15
    endloop
  endfacet
  facet normal 0.3214394653031617 0.9469301294951057 0
    outer loop
      vertex -0.741180954897479 0.985925829567324 5
      vertex -0.741180954897479 0.985925829567324 15
      vertex -0.6173165676349099 0.9438795357895424 15
    endloop
  endfacet
  facet normal 0.9967462894559154 0.08060294322085568 0
    outer loop
      vertex -0.008555138626189396 0.15052619549830726 5
      vertex -0.008555138626189396 0.15052619549830726 15
      vertex 0.0009963674567396953 0.03241105147944957 15
    endloop
  endfacet
  facet normal 0.9807852804032307 0.1950903220161279 0
    outer loop
      vertex -0.034074173710931466 0.2788190483807764 5
      vertex -0.034074173710931466 0.2788190483807764 15
      vertex -0.008555138626189396 0.15052619549830726 15
    endloop
  endfacet
  facet normal 0.9469301294951056 0.32143946530316175 0
    outer loop
      vertex -0.07612046748871304 0.40268343564334547 5
      vertex -0.07612046748871304 0.40268343564334547 15
      vertex -0.034074173710931466 0.2788190483807764 15
    endloop
  endfacet
  facet normal 0.8968727415326885 0.44228869021900086 0
    outer loop
      vertex -0.13397459621556107 0.5200000032782557 5
      vertex -0.13397459621556107 0.5200000032782557 15
      vertex -0.07612046748871304 0.40268343564334547 15
    endloop
  endfacet
  facet normal 0.7518398074789774 0.659345815100069 0
    outer loop
      vertex -0.2928932188134522 0.7271067844648031 5
      vertex -0.2928932188134522 0.7271067844648031 15
      vertex -0.2066466597087646 0.6287614322869763 15
    endloop
  endfacet
  facet normal 0.831469612302545 0.5555702330196024 6.3331833788478285e-19
    outer loop
      vertex -0.13397459621556107 0.5200000032782557 15
      vertex -0.2066466597087646 0.6287614322869763 5
      vertex -0.2066466597087646 0.6287614322869763 15
    endloop
  endfacet
  facet normal 0.6593458151000691 0.7518398074789773 0
    outer loop
      vertex -0.3912385709912791 0.8133533435694908 5
      vertex -0.3912385709912791 0.8133533435694908 15
      vertex -0.2928932188134522 0.7271067844648031 15
    endloop
  endfacet
  facet normal 0.5555702330196023 0.8314696123025451 0
    outer loop
      vertex -0.49999999999999967 0.8860254070626943 5
      vertex -0.49999999999999967 0.8860254070626943 15
      vertex -0.3912385709912791 0.8133533435694908 15
    endloop
  endfacet
  facet normal 0 -1 0
    outer loop
      vertex -8 -4 0
      vertex 12 -4 0
      vertex -8 -4 20
    endloop
  endfacet
  facet normal 0 0 -1
    outer loop
      vertex -8 -4 0
      vertex 0.9344565346837044 0 0
      vertex 12 -4 0
    endloop
  endfacet
  facet normal -1 0 0
    outer loop
      vertex -8 -4 0
      vertex -8 -4 20
      vertex -8 1.0200000032782555 20
    endloop
  endfacet
  facet normal 0 0 1
    outer loop
      vertex -8 -4 20
      vertex 12 -4 20
      vertex 0.9344565346837044 0 20
    endloop
  endfacet
  facet normal 0 0 -1
    outer loop
      vertex -8 -4 0
      vertex -8 1.0200000032782555 0
      vertex 0 0.9344565346837044 0
    endloop
  endfacet
  facet normal -1 0 0
    outer loop
      vertex -8 -4 0
      vertex -8 1.0200000032782555 20
      vertex -8 1.0200000032782555 0
    endloop
  endfacet
  facet normal 0 1 0
    outer loop
      vertex -8 1.0200000032782555 0
      vertex -0.9752677445853325 1.0200000032782555 15
      vertex -0.9752677445853325 1.0200000032782555 5
    endloop
  endfacet
  facet normal 0 0 -1
    outer loop
      vertex -8 -4 0
      vertex 0.3392394483089447 0.24654699116945267 0
      vertex 0.44323769956827164 0.1667463257908821 0
    endloop
  endfacet
  facet normal 0 0 -1
    outer loop
      vertex -8 -4 0
      vertex 0.5567623004317284 0.10120286792516708 0
      vertex 0.6778708323836327 0.051038071513175964 0
    endloop
  endfacet
  facet normal 0 0 -1
    outer loop
      vertex -8 -4 0
      vertex 0.6778708323836327 0.051038071513175964 0
      vertex 0.8044910803437233 0.017110280692577362 0
    endloop
  endfacet
  facet normal 0 0 -1
    outer loop
      vertex -8 -4 0
      vertex 0.8044910803437233 0.017110280692577362 0
      vertex 0.9344565346837044 0 0
    endloop
  endfacet
  facet normal 0 0 -1
    outer loop
      vertex -8 -4 0
      vertex 0.44323769956827164 0.1667463257908821 0
      vertex 0.5567623004317284 0.10120286792516708 0
    endloop
  endfacet
  facet normal 0 0 -1
    outer loop
      vertex -8 -4 0
      vertex 0.24654699116945267 0.3392394483089447 0
      vertex 0.3392394483089447 0.24654699116945267 0
    endloop
  endfacet
  facet normal 0 0 -1
    outer loop
      vertex -8 -4 0
      vertex 0.1667463257908821 0.44323769956827164 0
      vertex 0.24654699116945267 0.3392394483089447 0
    endloop
  endfacet
  facet normal 0 0 -1
    outer loop
      vertex -8 -4 0
      vertex 0.10120286792516708 0.5567623004317284 0
      vertex 0.1667463257908821 0.44323769956827164 0
    endloop
  endfacet
  facet normal 0 0 -1
    outer loop
      vertex -8 -4 0
      vertex 0.051038071513175964 0.6778708323836327 0
      vertex 0.10120286792516708 0.5567623004317284 0
    endloop
  endfacet
  facet normal 0 0 -1
    outer loop
      vertex -8 -4 0
      vertex 0.017110280692577362 0.8044910803437233 0
      vertex 0.051038071513175964 0.6778708323836327 0
    endloop
  endfacet
  facet normal 0 0 -1
    outer loop
      vertex -8 -4 0
      vertex 0 0.9344565346837044 0
      vertex 0.017110280692577362 0.8044910803437233 0
    endloop
  endfacet
  facet normal 0 0 -1
    outer loop
      vertex -8 1.0200000032782555 0
      vertex 0 1.0200000032782555 0
      vertex 0 0.9344565346837044 0
    endloop
  endfacet
  facet normal 0 1 0
    outer loop
      vertex -8 1.0200000032782555 0
      vertex -0.9752677445853325 1.0200000032782555 5
      vertex 0 1.0200000032782555 0
    endloop
  endfacet
  facet normal 1 0 0
    outer loop
      vertex 0 0.9344565346837044 0
      vertex 0 1.0200000032782555 0
      vertex 0 0.9344565346837044 5
    endloop
  endfacet
  facet normal 0 1 0
    outer loop
      vertex 0 1.0200000032782555 0
      vertex -0.9752677445853325 1.0200000032782555 5
      vertex 0 1.0200000032782555 5
    endloop
  endfacet
  facet normal 0.9914448573967226 0.13052622242902964 0
    outer loop
      vertex 0 0.9344565346837044 0
      vertex 0 0.9344565346837044 5
      vertex 0.0007339829098699839 0.9288813822900668 5
    endloop
  endfacet
  facet normal 1 0 0
    outer loop
      vertex 0 1.0200000032782555 0
      vertex 0 1.0200000032782555 5
      vertex 0 0.9344565346837044 5
    endloop
  endfacet
  facet normal 0.38268343209432837 0.9238795326234398 0
    outer loop
      vertex 0.6778708323836327 0.051038071513175964 0
      vertex 0.5567623004317284 0.10120286792516708 0
      vertex 0.6778708323836327 0.051038071513175964 20
    endloop
  endfacet
  facet normal 0.6087614313358576 0.7933533385055602 0
    outer loop
      vertex 0.44323769956827164 0.1667463257908821 0
      vertex 0.3392394483089447 0.24654699116945267 0
      vertex 0.44323769956827164 0.1667463257908821 20
    endloop
  endfacet
  facet normal 0.4999999942646076 0.8660254070957689 0
    outer loop
      vertex 0.5567623004317284 0.10120286792516708 0
      vertex 0.44323769956827164 0.1667463257908821 0
      vertex 0.5567623004317284 0.10120286792516708 20
    endloop
  endfacet
  facet normal 0.7071067811865476 0.7071067811865476 0
    outer loop
      vertex 0.3392394483089447 0.24654699116945267 0
      vertex 0.24654699116945267 0.3392394483089447 0
      vertex 0.3392394483089447 0.24654699116945267 20
    endloop
  endfacet
  facet normal 0.7933533385055602 0.6087614313358576 0
    outer loop
      vertex 0.24654699116945267 0.3392394483089447 0
      vertex 0.1667463257908821 0.44323769956827164 0
      vertex 0.24654699116945267 0.3392394483089447 20
    endloop
  endfacet
  facet normal 0.25881902826436615 0.965925830800838 0
    outer loop
      vertex 0.6778708323836327 0.051038071513175964 0
      vertex 0.8044910803437233 0.017110280692577362 20
      vertex 0.8044910803437233 0.017110280692577362 0
    endloop
  endfacet
  facet normal 0.1305262224290296 0.9914448573967226 0
    outer loop
      vertex 0.9344565346837044 0 0
      vertex 0.8044910803437233 0.017110280692577362 0
      vertex 0.9344565346837044 0 20
    endloop
  endfacet
  facet normal 0.9238795326234398 0.38268343209432837 0
    outer loop
      vertex 0.10120286792516708 0.5567623004317284 0
      vertex 0.051038071513175964 0.6778708323836327 0
      vertex 0.10120286792516708 0.5567623004317284 20
    endloop
  endfacet
  facet normal 0.8660254070957689 0.4999999942646076 0
    outer loop
      vertex 0.10120286792516708 0.5567623004317284 0
      vertex 0.1667463257908821 0.44323769956827164 20
      vertex 0.1667463257908821 0.44323769956827164 0
    endloop
  endfacet
  facet normal 0.965925830800838 0.25881902826436615 0
    outer loop
      vertex 0.051038071513175964 0.6778708323836327 0
      vertex 0.017110280692577362 0.8044910803437233 0
      vertex 0.051038071513175964 0.6778708323836327 20
    endloop
  endfacet
  facet normal 0.9914448573967226 0.1305262224290296 0
    outer loop
      vertex 0.017110280692577362 0.8044910803437233 0
      vertex 0 0.9344565346837044 0
      vertex 0.017110280692577362 0.8044910803437233 20
    endloop
  endfacet
  facet normal 0.9914448573967225 0.13052622242902956 -8.363898141421865e-20
    outer loop
      vertex 0 0.9344565346837044 0
      vertex 0.0007339829098699839 0.9288813822900668 5
      vertex 0.017110280692577362 0.8044910803437233 20
    endloop
  endfacet
  facet normal 0 0 1
    outer loop
      vertex -8 -4 20
      vertex 0 0.9344565346837044 20
      vertex -8 1.0200000032782555 20
    endloop
  endfacet
  facet normal 0 1 0
    outer loop
      vertex -8 1.0200000032782555 0
      vertex -8 1.0200000032782555 20
      vertex 0 1.0200000032782555 20
    endloop
  endfacet
  facet normal 0 0 1
    outer loop
      vertex -8 -4 20
      vertex 0.44323769956827164 0.1667463257908821 20
      vertex 0.3392394483089447 0.24654699116945267 20
    endloop
  endfacet
  facet normal 0 0 1
    outer loop
      vertex -8 -4 20
      vertex 0.6778708323836327 0.051038071513175964 20
      vertex 0.5567623004317284 0.10120286792516708 20
    endloop
  endfacet
  facet normal 0 0 1
    outer loop
      vertex -8 -4 20
      vertex 0.8044910803437233 0.017110280692577362 20
      vertex 0.6778708323836327 0.051038071513175964 20
    endloop
  endfacet
  facet normal 0 0 1
    outer loop
      vertex -8 -4 20
      vertex 0.9344565346837044 0 20
      vertex 0.8044910803437233 0.017110280692577362 20
    endloop
  endfacet
  facet normal 0 0 1
    outer loop
      vertex -8 -4 20
      vertex 0.5567623004317284 0.10120286792516708 20
      vertex 0.44323769956827164 0.1667463257908821 20
    endloop
  endfacet
  facet normal 0 0 1
    outer loop
      vertex -8 -4 20
      vertex 0.3392394483089447 0.24654699116945267 20
      vertex 0.24654699116945267 0.3392394483089447 20
    endloop
  endfacet
  facet normal 0 0 1
    outer loop
      vertex -8 -4 20
      vertex 0.24654699116945267 0.3392394483089447 20
      vertex 0.1667463257908821 0.44323769956827164 20
    endloop
  endfacet
  facet normal 0 0 1
    outer loop
      vertex -8 -4 20
      vertex 0.1667463257908821 0.44323769956827164 20
      vertex 0.10120286792516708 0.5567623004317284 20
    endloop
  endfacet
  facet normal 0 0 1
    outer loop
      vertex -8 -4 20
      vertex 0.10120286792516708 0.5567623004317284 20
      vertex 0.051038071513175964 0.6778708323836327 20
    endloop
  endfacet
  facet normal 0 0 1
    outer loop
      vertex -8 -4 20
      vertex 0.051038071513175964 0.6778708323836327 20
      vertex 0.017110280692577362 0.8044910803437233 20
    endloop
  endfacet
  facet normal 0 0 1
    outer loop
      vertex -8 -4 20
      vertex 0.017110280692577362 0.8044910803437233 20
      vertex 0 0.9344565346837044 20
    endloop
  endfacet
  facet normal 0 1 0
    outer loop
      vertex -8 1.0200000032782555 0
      vertex 0 1.0200000032782555 20
      vertex -0.9752677445853325 1.0200000032782555 15
    endloop
  endfacet
  facet normal 0.25881902826436615 0.965925830800838 0
    outer loop
      vertex 0.6778708323836327 0.051038071513175964 0
      vertex 0.6778708323836327 0.051038071513175964 20
      vertex 0.8044910803437233 0.017110280692577362 20
    endloop
  endfacet
  facet normal 0.6087614313358576 0.7933533385055602 0
    outer loop
      vertex 0.3392394483089447 0.24654699116945267 0
      vertex 0.3392394483089447 0.24654699116945267 20
      vertex 0.44323769956827164 0.1667463257908821 20
    endloop
  endfacet
  facet normal 0.4999999942646076 0.8660254070957689 0
    outer loop
      vertex 0.44323769956827164 0.1667463257908821 0
      vertex 0.44323769956827164 0.1667463257908821 20
      vertex 0.5567623004317284 0.10120286792516708 20
    endloop
  endfacet
  facet normal 0.38268343209432837 0.9238795326234398 0
    outer loop
      vertex 0.5567623004317284 0.10120286792516708 0
      vertex 0.5567623004317284 0.10120286792516708 20
      vertex 0.6778708323836327 0.051038071513175964 20
    endloop
  endfacet
  facet normal 0.7071067811865476 0.7071067811865476 0
    outer loop
      vertex 0.24654699116945267 0.3392394483089447 0
      vertex 0.24654699116945267 0.3392394483089447 20
      vertex 0.3392394483089447 0.24654699116945267 20
    endloop
  endfacet
  facet normal 0.1305262224290296 0.9914448573967226 0
    outer loop
      vertex 0.8044910803437233 0.017110280692577362 0
      vertex 0.8044910803437233 0.017110280692577362 20
      vertex 0.9344565346837044 0 20
    endloop
  endfacet
  facet normal 0.8660254070957689 0.4999999942646076 0
    outer loop
      vertex 0.10120286792516708 0.5567623004317284 0
      vertex 0.10120286792516708 0.5567623004317284 20
      vertex 0.1667463257908821 0.44323769956827164 20
    endloop
  endfacet
  facet normal 0.9238795326234398 0.38268343209432837 0
    outer loop
      vertex 0.051038071513175964 0.6778708323836327 0
      vertex 0.051038071513175964 0.6778708323836327 20
      vertex 0.10120286792516708 0.5567623004317284 20
    endloop
  endfacet
  facet normal 0.7933533385055602 0.6087614313358576 0
    outer loop
      vertex 0.1667463257908821 0.44323769956827164 0
      vertex 0.1667463257908821 0.44323769956827164 20
      vertex 0.24654699116945267 0.3392394483089447 20
    endloop
  endfacet
  facet normal 0.965925830800838 0.25881902826436615 0
    outer loop
      vertex 0.017110280692577362 0.8044910803437233 0
      vertex 0.017110280692577362 0.8044910803437233 20
      vertex 0.051038071513175964 0.6778708323836327 20
    endloop
  endfacet
  facet normal 0.9914448573967225 0.1305262224290296 -8.452005210854565e-20
    outer loop
      vertex 0.017110280692577362 0.8044910803437233 20
      vertex 0.0007339829098699839 0.9288813822900668 5
      vertex 0.0007339829098699839 0.9288813822900668 15
    endloop
  endfacet
  facet normal 0 0 1
    outer loop
      vertex -8 1.0200000032782555 20
      vertex 0 0.9344565346837044 20
      vertex 0 1.0200000032782555 20
    endloop
  endfacet
  facet normal 0 1 0
    outer loop
      vertex 0 1.0200000032782555 20
      vertex 0 1.0200000032782555 15
      vertex -0.9752677445853325 1.0200000032782555 15
    endloop
  endfacet
  facet normal 0.9914448573967226 0.13052622242902964 0
    outer loop
      vertex 0 0.9344565346837044 20
      vertex 0.0007339829098699839 0.9288813822900668 15
      vertex 0 0.9344565346837044 15
    endloop
  endfacet
  facet normal 1 0 0
    outer loop
      vertex 0 0.9344565346837044 20
      vertex 0 0.9344565346837044 15
      vertex 0 1.0200000032782555 15
    endloop
  endfacet
  facet normal 0.9914448573967226 0.1305262224290296 -1.0680765362944481e-19
    outer loop
      vertex 0.017110280692577362 0.8044910803437233 20
      vertex 0.0007339829098699839 0.9288813822900668 15
      vertex 0 0.9344565346837044 20
    endloop
  endfacet
  facet normal 1 0 0
    outer loop
      vertex 0 0.9344565346837044 20
      vertex 0 1.0200000032782555 15
      vertex 0 1.0200000032782555 20
    endloop
  endfacet
  facet normal 1 0 0
    outer loop
      vertex 12 -4 0
      vertex 12 0 0
      vertex 12 -4 20
    endloop
  endfacet
  facet normal 0 -1 0
    outer loop
      vertex -8 -4 20
      vertex 12 -4 0
      vertex 12 -4 20
    endloop
  endfacet
  facet normal 0 0 -1
    outer loop
      vertex 0.9344565346837044 0 0
      vertex 12 0 0
      vertex 12 -4 0
    endloop
  endfacet
  facet normal 0 1 0
    outer loop
      vertex 0.9344565346837044 0 0
      vertex 12 0 20
      vertex 12 0 0
    endloop
  endfacet
  facet normal 0 1 0
    outer loop
      vertex 0.9344565346837044 0 0
      vertex 0.9344565346837044 0 20
      vertex 12 0 20
    endloop
  endfacet
  facet normal 1 0 0
    outer loop
      vertex 12 -4 20
      vertex 12 0 0
      vertex 12 0 20
    endloop
  endfacet
  facet normal 0 0 1
    outer loop
      vertex 0.9344565346837044 0 20
      vertex 12 -4 20
      vertex 12 0 20
    endloop
  endfacet
endsolid OpenSCAD_Model
