solid OpenSCAD_Model
  facet normal 0 0 -1
    outer loop
      vertex 0.29289321881345187 0.29289321881345265 0
      vertex 0.0021238060514139267 -0.0007079353504713089 0
      vertex -3.686287386450696e-18 -1.843143693225348e-18 0
    endloop
  endfacet
  facet normal 0 0 -1
    outer loop
      vertex 0.49999999999999933 0.1339745962155614 0
      vertex 0.6173165676349103 0.07612046748871293 0
      vertex 0.0021238060514139267 -0.0007079353504713089 0
    endloop
  endfacet
  facet normal 0 0 -1
    outer loop
      vertex 0.3912385709912789 0.20664665970876483 0
      vertex 0.49999999999999933 0.1339745962155614 0
      vertex 0.0021238060514139267 -0.0007079353504713089 0
    endloop
  endfacet
  facet normal 0 0 -1
    outer loop
      vertex 0.7411809548974791 0.034074173710931466 0
      vertex 0.8694738077799482 0.008555138626189396 0
      vertex 0.0021238060514139267 -0.0007079353504713089 0
    endloop
  endfacet
  facet normal 0 0 -1
    outer loop
      vertex 0.8694738077799482 0.008555138626189396 0
      vertex 0.9752677445853334 0 0
      vertex 0.0021238060514139267 -0.0007079353504713089 0
    endloop
  endfacet
  facet normal 0 0 -1
    outer loop
      vertex 0.6173165676349103 0.07612046748871293 0
      vertex 0.7411809548974791 0.034074173710931466 0
      vertex 0.0021238060514139267 -0.0007079353504713089 0
    endloop
  endfacet
  facet normal 0 0 -1
    outer loop
      vertex 0.034074173710931466 0.741180954897479 0
      vertex -3.686287386450696e-18 -1.843143693225348e-18 0
      vertex -0.0007033234075446253 -0.00035166170377231264 0
    endloop
  endfacet
  facet normal 0 0 -1
    outer loop
      vertex 0.034074173710931466 0.741180954897479 0
      vertex -0.0007033234075446253 -0.00035166170377231264 0
      vertex -0.0006977236536935163 0.00017443091342337908 0
    endloop
  endfacet
  facet normal 0 0 -1
    outer loop
      vertex 0.2066466597087646 0.3912385709912791 0
      vertex -3.686287386450696e-18 -1.843143693225348e-18 0
      vertex 0.13397459621556096 0.5 0
    endloop
  endfacet
  facet normal 0 0 -1
    outer loop
      vertex 0.07612046748871293 0.6173165676349102 0
      vertex 0.13397459621556096 0.5 0
      vertex -3.686287386450696e-18 -1.843143693225348e-18 0
    endloop
  endfacet
  facet normal 0 0 -1
    outer loop
      vertex 0.07612046748871293 0.6173165676349102 0
      vertex -3.686287386450696e-18 -1.843143693225348e-18 0
      vertex 0.034074173710931466 0.741180954897479 0
    endloop
  endfacet
  facet normal 0 0 -1
    outer loop
      vertex 0.3912385709912789 0.20664665970876483 0
      vertex 0.0021238060514139267 -0.0007079353504713089 0
      vertex 0.29289321881345187 0.29289321881345265 0
    endloop
  endfacet
  facet normal 0 0 -1
    outer loop
      vertex 0.2066466597087646 0.3912385709912791 0
      vertex 0.29289321881345187 0.29289321881345265 0
      vertex -3.686287386450696e-18 -1.843143693225348e-18 0
    endloop
  endfacet
  facet normal 0 0 -1
    outer loop
      vertex 0.034074173710931466 0.741180954897479 0
      vertex -0.0006977236536935163 0.00017443091342337908 0
      vertex 0.008555138626189396 0.869473807779948 0
    endloop
  endfacet
  facet normal 0 0 -1
    outer loop
      vertex 0.008555138626189396 0.869473807779948 0
      vertex -0.0006977236536935163 0.00017443091342337908 0
      vertex 0 0.9752677445853334 0
    endloop
  endfacet
  facet normal 0 0 1
    outer loop
      vertex 0.29289321881345187 0.29289321881345265 20
      vertex -0.0006977236536935163 0.00017443091342337908 20
      vertex -1.474514954580283e-18 3.6862873864507073e-19 20
    endloop
  endfacet
  facet normal 0 0 1
    outer loop
      vertex 0.7411809548974791 0.034074173710931466 20
      vertex -1.474514954580283e-18 3.6862873864507073e-19 20
      vertex 0.0020337974151219866 -0.0006779324717073288 20
    endloop
  endfacet
  facet normal 0 0 1
    outer loop
      vertex 0.7411809548974791 0.034074173710931466 20
      vertex 0.0020337974151219866 -0.0006779324717073288 20
      vertex 0.06572503774559207 0 20
    endloop
  endfacet
  facet normal 0 0 1
    outer loop
      vertex 0.49999999999999933 0.1339745962155614 20
      vertex -1.474514954580283e-18 3.6862873864507073e-19 20
      vertex 0.6173165676349103 0.07612046748871293 20
    endloop
  endfacet
  facet normal 0 0 1
    outer loop
      vertex 0.3912385709912789 0.20664665970876483 20
      vertex -1.474514954580283e-18 3.6862873864507073e-19 20
      vertex 0.49999999999999933 0.1339745962155614 20
    endloop
  endfacet
  facet normal 0 0 1
    outer loop
      vertex 0.7411809548974791 0.034074173710931466 20
      vertex 0.06572503774559207 0 20
      vertex 0.8694738077799482 0.008555138626189396 20
    endloop
  endfacet
  facet normal 0 0 1
    outer loop
      vertex 0.8694738077799482 0.008555138626189396 20
      vertex 0.06572503774559207 0 20
      vertex 0.9752677445853334 0 20
    endloop
  endfacet
  facet normal 0 0 1
    outer loop
      vertex 0.6173165676349103 0.07612046748871293 20
      vertex -1.474514954580283e-18 3.6862873864507073e-19 20
      vertex 0.7411809548974791 0.034074173710931466 20
    endloop
  endfacet
  facet normal 0 0 1
    outer loop
      vertex 0.2066466597087646 0.3912385709912791 20
      vertex 0.13397459621556096 0.5 20
      vertex -0.0006977236536935163 0.00017443091342337908 20
    endloop
  endfacet
  facet normal 0 0 1
    outer loop
      vertex 0.07612046748871293 0.6173165676349102 20
      vertex -0.0006977236536935163 0.00017443091342337908 20
      vertex 0.13397459621556096 0.5 20
    endloop
  endfacet
  facet normal 0 0 1
    outer loop
      vertex 0.07612046748871293 0.6173165676349102 20
      vertex 0.034074173710931466 0.741180954897479 20
      vertex -0.0006977236536935163 0.00017443091342337908 20
    endloop
  endfacet
  facet normal 0 0 1
    outer loop
      vertex 0.3912385709912789 0.20664665970876483 20
      vertex 0.29289321881345187 0.29289321881345265 20
      vertex -1.474514954580283e-18 3.6862873864507073e-19 20
    endloop
  endfacet
  facet normal 0 0 1
    outer loop
      vertex 0.2066466597087646 0.3912385709912791 20
      vertex -0.0006977236536935163 0.00017443091342337908 20
      vertex 0.29289321881345187 0.29289321881345265 20
    endloop
  endfacet
  facet normal 0 0 1
    outer loop
      vertex 0.034074173710931466 0.741180954897479 20
      vertex 0.008555138626189396 0.869473807779948 20
      vertex -0.0006977236536935163 0.00017443091342337908 20
    endloop
  endfacet
  facet normal 0 0 1
    outer loop
      vertex 0.008555138626189396 0.869473807779948 20
      vertex 0 0.9752677445853334 20
      vertex -0.0006977236536935163 0.00017443091342337908 20
    endloop
  endfacet
  facet normal 0.4422886902190014 0.8968727415326883 0
    outer loop
      vertex 0.49999999999999933 0.1339745962155614 0
      vertex 0.49999999999999933 0.1339745962155614 20
      vertex 0.6173165676349103 0.07612046748871293 0
    endloop
  endfacet
  facet normal 0.3214394653031615 0.9469301294951058 9.959950026366353e-20
    outer loop
      vertex 0.6173165676349103 0.07612046748871293 0
      vertex 0.7411809548974791 0.034074173710931466 20
      vertex 0.7411809548974791 0.034074173710931466 0
    endloop
  endfacet
  facet normal 0.6593458151000691 0.7518398074789773 0
    outer loop
      vertex 0.3912385709912789 0.20664665970876483 0
      vertex 0.29289321881345187 0.29289321881345265 0
      vertex 0.3912385709912789 0.20664665970876483 20
    endloop
  endfacet
  facet normal 0.5555702330196027 0.831469612302545 -1.7219939622223137e-19
    outer loop
      vertex 0.3912385709912789 0.20664665970876483 0
      vertex 0.49999999999999933 0.1339745962155614 20
      vertex 0.49999999999999933 0.1339745962155614 0
    endloop
  endfacet
  facet normal 0.7518398074789775 0.6593458151000687 2.512204828599833e-20
    outer loop
      vertex 0.2066466597087646 0.3912385709912791 0
      vertex 0.29289321881345187 0.29289321881345265 20
      vertex 0.29289321881345187 0.29289321881345265 0
    endloop
  endfacet
  facet normal 0.8314696123025451 0.5555702330196023 1.4242886649616755e-19
    outer loop
      vertex 0.2066466597087646 0.3912385709912791 0
      vertex 0.13397459621556096 0.5 0
      vertex 0.13397459621556096 0.5 20
    endloop
  endfacet
  facet normal 0.19509032201612803 0.9807852804032304 7.713273758505316e-20
    outer loop
      vertex 0.7411809548974791 0.034074173710931466 0
      vertex 0.8694738077799482 0.008555138626189396 20
      vertex 0.8694738077799482 0.008555138626189396 0
    endloop
  endfacet
  facet normal 0.08060294322085569 0.9967462894559154 -2.249782186098462e-20
    outer loop
      vertex 0.8694738077799482 0.008555138626189396 0
      vertex 0.9752677445853334 0 20
      vertex 0.9752677445853334 0 0
    endloop
  endfacet
  facet normal 0.8968727415326885 0.442288690219001 -1.2284509680431785e-19
    outer loop
      vertex 0.07612046748871293 0.6173165676349102 0
      vertex 0.13397459621556096 0.5 20
      vertex 0.13397459621556096 0.5 0
    endloop
  endfacet
  facet normal 0.9469301294951058 0.3214394653031615 9.959950026366353e-20
    outer loop
      vertex 0.07612046748871293 0.6173165676349102 0
      vertex 0.034074173710931466 0.741180954897479 0
      vertex 0.034074173710931466 0.741180954897479 20
    endloop
  endfacet
  facet normal 0.9807852804032304 0.1950903220161282 -3.0394381468885215e-22
    outer loop
      vertex 0.034074173710931466 0.741180954897479 0
      vertex 0.008555138626189396 0.869473807779948 0
      vertex 0.008555138626189396 0.869473807779948 20
    endloop
  endfacet
  facet normal 0.9967462894559154 0.08060294322085552 0
    outer loop
      vertex 0.008555138626189396 0.869473807779948 0
      vertex 0 0.9752677445853334 0
      vertex 0.008555138626189396 0.869473807779948 20
    endloop
  endfacet
  facet normal 0.4422886902190014 0.8968727415326883 0
    outer loop
      vertex 0.6173165676349103 0.07612046748871293 0
      vertex 0.49999999999999933 0.1339745962155614 20
      vertex 0.6173165676349103 0.07612046748871293 20
    endloop
  endfacet
  facet normal 0.3214394653031615 0.9469301294951058 0
    outer loop
      vertex 0.6173165676349103 0.07612046748871293 0
      vertex 0.6173165676349103 0.07612046748871293 20
      vertex 0.7411809548974791 0.034074173710931466 20
    endloop
  endfacet
  facet normal 0.5555702330196027 0.831469612302545 0
    outer loop
      vertex 0.3912385709912789 0.20664665970876483 0
      vertex 0.3912385709912789 0.20664665970876483 20
      vertex 0.49999999999999933 0.1339745962155614 20
    endloop
  endfacet
  facet normal 0.6593458151000691 0.7518398074789773 0
    outer loop
      vertex 0.29289321881345187 0.29289321881345265 0
      vertex 0.29289321881345187 0.29289321881345265 20
      vertex 0.3912385709912789 0.20664665970876483 20
    endloop
  endfacet
  facet normal 0.7518398074789775 0.6593458151000687 0
    outer loop
      vertex 0.2066466597087646 0.3912385709912791 0
      vertex 0.2066466597087646 0.3912385709912791 20
      vertex 0.29289321881345187 0.29289321881345265 20
    endloop
  endfacet
  facet normal 0.8314696123025451 0.5555702330196023 0
    outer loop
      vertex 0.2066466597087646 0.3912385709912791 0
      vertex 0.13397459621556096 0.5 20
      vertex 0.2066466597087646 0.3912385709912791 20
    endloop
  endfacet
  facet normal 0.19509032201612803 0.9807852804032304 0
    outer loop
      vertex 0.7411809548974791 0.034074173710931466 0
      vertex 0.7411809548974791 0.034074173710931466 20
      vertex 0.8694738077799482 0.008555138626189396 20
    endloop
  endfacet
  facet normal 0.08060294322085569 0.9967462894559154 0
    outer loop
      vertex 0.8694738077799482 0.008555138626189396 0
      vertex 0.8694738077799482 0.008555138626189396 20
      vertex 0.9752677445853334 0 20
    endloop
  endfacet
  facet normal 0.8968727415326885 0.442288690219001 0
    outer loop
      vertex 0.07612046748871293 0.6173165676349102 0
      vertex 0.07612046748871293 0.6173165676349102 20
      vertex 0.13397459621556096 0.5 20
    endloop
  endfacet
  facet normal 0.9469301294951058 0.3214394653031615 0
    outer loop
      vertex 0.07612046748871293 0.6173165676349102 0
      vertex 0.034074173710931466 0.741180954897479 20
      vertex 0.07612046748871293 0.6173165676349102 20
    endloop
  endfacet
  facet normal 0.9807852804032304 0.1950903220161282 0
    outer loop
      vertex 0.034074173710931466 0.741180954897479 0
      vertex 0.008555138626189396 0.869473807779948 20
      vertex 0.034074173710931466 0.741180954897479 20
    endloop
  endfacet
  facet normal 0.9967462894559154 0.08060294322085552 1.9707502466641514e-21
    outer loop
      vertex 0.008555138626189396 0.869473807779948 20
      vertex 0 0.9752677445853334 0
      vertex 0 0.9752677445853334 20
    endloop
  endfacet
  facet normal 0 0 -1
    outer loop
      vertex -8 -4 0
      vertex -0.0007033234075446253 -0.00035166170377231264 0
      vertex 12 -4 0
    endloop
  endfacet
  facet normal 0 -1 0
    outer loop
      vertex -8 -4 0
      vertex 12 -4 0
      vertex -8 -4 20
    endloop
  endfacet
  facet normal -1 0 0
    outer loop
      vertex -8 -4 0
      vertex -8 -4 20
      vertex -8 2 20
    endloop
  endfacet
  facet normal 0 0 1
    outer loop
      vertex 12 -4 20
      vertex 0.0020337974151219866 -0.0006779324717073288 20
      vertex -8 -4 20
    endloop
  endfacet
  facet normal 0 0 1
    outer loop
      vertex -8 -4 20
      vertex 0.0020337974151219866 -0.0006779324717073288 20
      vertex -1.474514954580283e-18 3.6862873864507073e-19 20
    endloop
  endfacet
  facet normal 0 0 1
    outer loop
      vertex -8 -4 20
      vertex -1.474514954580283e-18 3.6862873864507073e-19 20
      vertex -0.0006977236536935163 0.00017443091342337908 20
    endloop
  endfacet
  facet normal 0 0 -1
    outer loop
      vertex -8 -4 0
      vertex -8 2 0
      vertex -0.0007033234075446253 -0.00035166170377231264 0
    endloop
  endfacet
  facet normal -1 0 0
    outer loop
      vertex -8 -4 0
      vertex -8 2 20
      vertex -8 2 0
    endloop
  endfacet
  facet normal 0 0 -1
    outer loop
      vertex -0.0007033234075446253 -0.00035166170377231264 0
      vertex -3.686287386450696e-18 -1.843143693225348e-18 0
      vertex 0.0021238060514139267 -0.0007079353504713089 0
    endloop
  endfacet
  facet normal 0 0 -1
    outer loop
      vertex -8 2 0
      vertex -0.0006977236536935163 0.00017443091342337908 0
      vertex -0.0007033234075446253 -0.00035166170377231264 0
    endloop
  endfacet
  facet normal 0 0 -1
    outer loop
      vertex -8 2 0
      vertex 0 0.9752677445853334 0
      vertex -0.0006977236536935163 0.00017443091342337908 0
    endloop
  endfacet
  facet normal 0 0 -1
    outer loop
      vertex -8 2 0
      vertex 0 2 0
      vertex 0 0.9752677445853334 0
    endloop
  endfacet
  facet normal 0 1 0
    outer loop
      vertex -8 2 0
      vertex 0 2 20
      vertex 0 2 0
    endloop
  endfacet
  facet normal 1 0 0
    outer loop
      vertex 0 2 0
      vertex 0 2 20
      vertex 0 0.9752677445853334 0
    endloop
  endfacet
  facet normal 0 0 1
    outer loop
      vertex -8 -4 20
      vertex -0.0006977236536935163 0.00017443091342337908 20
      vertex -8 2 20
    endloop
  endfacet
  facet normal 0 1 0
    outer loop
      vertex -8 2 0
      vertex -8 2 20
      vertex 0 2 20
    endloop
  endfacet
  facet normal 1 0 0
    outer loop
      vertex 0 2 20
      vertex 0 0.9752677445853334 20
      vertex 0 0.9752677445853334 0
    endloop
  endfacet
  facet normal 0 0 1
    outer loop
      vertex -8 2 20
      vertex -0.0006977236536935163 0.00017443091342337908 20
      vertex 0 0.9752677445853334 20
    endloop
  endfacet
  facet normal 0 0 1
    outer loop
      vertex -8 2 20
      vertex 0 0.9752677445853334 20
      vertex 0 2 20
    endloop
  endfacet
  facet normal 0 0 -1
    outer loop
      vertex 12 -4 0
      vertex -0.0007033234075446253 -0.00035166170377231264 0
      vertex 0.0021238060514139267 -0.0007079353504713089 0
    endloop
  endfacet
  facet normal 0 0 -1
    outer loop
      vertex 12 -4 0
      vertex 0.0021238060514139267 -0.0007079353504713089 0
      vertex 0.9752677445853334 0 0
    endloop
  endfacet
  facet normal 1 0 0
    outer loop
      vertex 12 -4 0
      vertex 12 0 0
      vertex 12 -4 20
    endloop
  endfacet
  facet normal 0 0 -1
    outer loop
      vertex 12 -4 0
      vertex 0.9752677445853334 0 0
      vertex 12 0 0
    endloop
  endfacet
  facet normal 0 -1 0
    outer loop
      vertex -8 -4 20
      vertex 12 -4 0
      vertex 12 -4 20
    endloop
  endfacet
  facet normal 0 0 1
    outer loop
      vertex 12 -4 20
      vertex 0.06572503774559207 0 20
      vertex 0.0020337974151219866 -0.0006779324717073288 20
    endloop
  endfacet
  facet normal 0 0 1
    outer loop
      vertex 12 -4 20
      vertex 0.9752677445853334 0 20
      vertex 0.06572503774559207 0 20
    endloop
  endfacet
  facet normal 1 0 0
    outer loop
      vertex 12 -4 20
      vertex 12 0 0
      vertex 12 0 20
    endloop
  endfacet
  facet normal 0 0 1
    outer loop
      vertex 12 0 20
      vertex 0.9752677445853334 0 20
      vertex 12 -4 20
    endloop
  endfacet
  facet normal 0 1 0
    outer loop
      vertex 12 0 0
      vertex 0.9752677445853334 0 0
      vertex 0.9752677445853334 0 20
    endloop
  endfacet
  facet normal 0 1 0
    outer loop
      vertex 12 0 0
      vertex 0.9752677445853334 0 20
      vertex 12 0 20
    endloop
  endfacet
endsolid OpenSCAD_Model
